<?xml version="1.0" encoding="utf-8"?>
<!-- Generator: Adobe Illustrator 27.6.1, SVG Export Plug-In . SVG Version: 6.00 Build 0)  -->
<svg version="1.1" id="a" xmlns="http://www.w3.org/2000/svg" xmlns:xlink="http://www.w3.org/1999/xlink" x="0px" y="0px"
	 viewBox="0 0 178.5 225" style="enable-background:new 0 0 178.5 225;" xml:space="preserve">
<style type="text/css">
	.st0{fill:#0B0B0A;}
	.st1{fill:none;stroke:#0B0B0A;stroke-width:0.15;}
	.st2{clip-path:url(#SVGID_00000154412835766797325870000011050731582790384814_);fill:none;stroke:#0B0B0A;stroke-width:0.15;}
	.st3{clip-path:url(#SVGID_00000023280582689495701570000009359294726063935664_);fill:none;stroke:#0B0B0A;stroke-width:0.15;}
	.st4{clip-path:url(#SVGID_00000093856315302507133950000008049097708335231364_);fill:none;stroke:#0B0B0A;stroke-width:0.15;}
	.st5{clip-path:url(#SVGID_00000126312377157312340200000012976642591537840520_);fill:none;stroke:#0B0B0A;stroke-width:0.15;}
	.st6{clip-path:url(#SVGID_00000048499931313963948110000006749234828156343966_);fill:#0B0B0A;}
	.st7{clip-path:url(#SVGID_00000048499931313963948110000006749234828156343966_);fill:none;stroke:#0B0B0A;stroke-width:0.15;}
	.st8{clip-path:url(#SVGID_00000133500289132810044100000012768343097845831611_);fill:#0B0B0A;}
	.st9{clip-path:url(#SVGID_00000133500289132810044100000012768343097845831611_);fill:none;stroke:#0B0B0A;stroke-width:0.15;}
</style>
<path class="st0" d="M8.4,136.8H13v-0.6H8.4V136.8z M18.2,136.8h4.6v-0.6h-4.6V136.8z M28.1,136.8h4.6v-0.6h-4.6V136.8z M37.9,136.8
	h4.6v-0.6h-4.6V136.8z M47.7,136.8h4.6v-0.6h-4.6V136.8z M57.5,136.8h4.6v-0.6h-4.6V136.8z M67.3,136.8h4.6v-0.6h-4.6V136.8z
	 M77.1,136.8h4.6v-0.6h-4.6V136.8z M87,136.8h4.6v-0.6H87V136.8z M96.8,136.8h4.6v-0.6h-4.6V136.8z M106.6,136.8h4.6v-0.6h-4.6
	V136.8z M116.4,136.8h4.6v-0.6h-4.6V136.8z M126.2,136.8h4.6v-0.6h-4.6V136.8z M136.1,136.8h4.6v-0.6h-4.6V136.8z M145.9,136.8h4.6
	v-0.6h-4.6V136.8z M155.7,136.8h4.6v-0.6h-4.6V136.8z M165.5,136.8h4.6v-0.6h-4.6V136.8z"/>
<path class="st1" d="M170.1,136.2h-4.6v0.6h4.6V136.2z M160.3,136.2h-4.6v0.6h4.6V136.2z M150.4,136.2h-4.6v0.6h4.6V136.2z
	 M140.6,136.2h-4.6v0.6h4.6V136.2z M130.8,136.2h-4.6v0.6h4.6V136.2z M121,136.2h-4.6v0.6h4.6V136.2z M111.2,136.2h-4.6v0.6h4.6
	V136.2z M101.3,136.2h-4.6v0.6h4.6V136.2z M91.5,136.2H87v0.6h4.6V136.2z M81.7,136.2h-4.6v0.6h4.6V136.2z M71.9,136.2h-4.6v0.6h4.6
	V136.2z M62.1,136.2h-4.6v0.6h4.6V136.2z M52.3,136.2h-4.6v0.6h4.6V136.2z M42.4,136.2h-4.6v0.6h4.6V136.2z M32.6,136.2h-4.6v0.6
	h4.6V136.2z M22.8,136.2h-4.6v0.6h4.6V136.2z M13,136.2H8.4v0.6H13V136.2z"/>
<path class="st0" d="M10.7,224h4.4v-0.6h-4.4V224z M20.3,224h4.4v-0.6h-4.4V224z M29.8,224h4.4v-0.6h-4.4V224z M39.3,224h4.4v-0.6
	h-4.4V224z M48.9,224h4.4v-0.6h-4.4V224z M58.4,224h4.4v-0.6h-4.4V224z M68,224h4.4v-0.6H68V224z M77.5,224h4.4v-0.6h-4.4V224z
	 M87,224h4.4v-0.6H87V224z M96.6,224h4.4v-0.6h-4.4V224z M106.1,224h4.4v-0.6h-4.4V224z M115.7,224h4.4v-0.6h-4.4V224z M125.2,224
	h4.4v-0.6h-4.4V224z M134.7,224h4.4v-0.6h-4.4V224z M144.3,224h4.4v-0.6h-4.4V224z M153.8,224h4.4v-0.6h-4.4V224z M163.4,224h4.4
	v-0.6h-4.4V224z"/>
<g>
	<defs>
		<rect id="SVGID_1_" x="1.2" y="0.9" width="176.1" height="223.2"/>
	</defs>
	<clipPath id="SVGID_00000090295889415414300730000001777169491285665157_">
		<use xlink:href="#SVGID_1_"  style="overflow:visible;"/>
	</clipPath>
	
		<path style="clip-path:url(#SVGID_00000090295889415414300730000001777169491285665157_);fill:none;stroke:#0B0B0A;stroke-width:0.15;" d="
		M167.8,223.4h-4.4v0.6h4.4V223.4z M158.2,223.4h-4.4v0.6h4.4V223.4z M148.7,223.4h-4.4v0.6h4.4V223.4z M139.2,223.4h-4.4v0.6h4.4
		V223.4z M129.6,223.4h-4.4v0.6h4.4V223.4z M120.1,223.4h-4.4v0.6h4.4V223.4z M110.5,223.4h-4.4v0.6h4.4V223.4z M101,223.4h-4.4v0.6
		h4.4V223.4z M91.5,223.4H87v0.6h4.4V223.4z M81.9,223.4h-4.4v0.6h4.4V223.4z M72.4,223.4H68v0.6h4.4V223.4z M62.8,223.4h-4.4v0.6
		h4.4V223.4z M53.3,223.4h-4.4v0.6h4.4V223.4z M43.8,223.4h-4.4v0.6h4.4V223.4z M34.2,223.4h-4.4v0.6h4.4V223.4z M24.7,223.4h-4.4
		v0.6h4.4V223.4z M15.1,223.4h-4.4v0.6h4.4V223.4z"/>
</g>
<path class="st0" d="M11.3,2.8h4.4V2.2h-4.4V2.8z M20.8,2.8h4.4V2.2h-4.4V2.8z M30.4,2.8h4.4V2.2h-4.4V2.8z M39.9,2.8h4.4V2.2h-4.4
	V2.8z M49.5,2.8h4.4V2.2h-4.4V2.8z M59,2.8h4.4V2.2H59V2.8z M68.5,2.8H73V2.2h-4.4V2.8z M78.1,2.8h4.4V2.2h-4.4V2.8z M87.6,2.8h4.4
	V2.2h-4.4V2.8z M97.2,2.8h4.4V2.2h-4.4V2.8z M106.7,2.8h4.4V2.2h-4.4V2.8z M116.2,2.8h4.4V2.2h-4.4V2.8z M125.8,2.8h4.4V2.2h-4.4
	V2.8z M135.3,2.8h4.4V2.2h-4.4V2.8z M144.9,2.8h4.4V2.2h-4.4V2.8z M154.4,2.8h4.4V2.2h-4.4V2.8z M163.9,2.8h4.4V2.2h-4.4V2.8z"/>
<path class="st1" d="M168.4,2.2h-4.4v0.6h4.4V2.2z M158.8,2.2h-4.4v0.6h4.4V2.2z M149.3,2.2h-4.4v0.6h4.4V2.2z M139.8,2.2h-4.4v0.6
	h4.4V2.2z M130.2,2.2h-4.4v0.6h4.4V2.2z M120.7,2.2h-4.4v0.6h4.4V2.2z M111.1,2.2h-4.4v0.6h4.4V2.2z M101.6,2.2h-4.4v0.6h4.4V2.2z
	 M92.1,2.2h-4.4v0.6h4.4V2.2z M82.5,2.2h-4.4v0.6h4.4V2.2z M73,2.2h-4.4v0.6H73V2.2z M63.4,2.2H59v0.6h4.4V2.2z M53.9,2.2h-4.4v0.6
	h4.4V2.2z M44.4,2.2h-4.4v0.6h4.4V2.2z M34.8,2.2h-4.4v0.6h4.4V2.2z M25.3,2.2h-4.4v0.6h4.4V2.2z M15.7,2.2h-4.4v0.6h4.4V2.2z"/>
<polygon class="st0" points="2.6,220.9 2.8,222.3 1.5,221.7 1.3,222.3 2.7,222.6 1.7,223.6 2.2,224 2.9,222.8 3.6,224 4.1,223.6 
	3.2,222.6 4.5,222.4 4.3,221.7 3.1,222.3 3.3,220.9 "/>
<g>
	<defs>
		<rect id="SVGID_00000106132184880385178020000003940661128945711257_" x="1.2" y="0.9" width="176.1" height="223.2"/>
	</defs>
	<clipPath id="SVGID_00000018197823998133915190000013791119928725661852_">
		<use xlink:href="#SVGID_00000106132184880385178020000003940661128945711257_"  style="overflow:visible;"/>
	</clipPath>
	
		<polygon style="clip-path:url(#SVGID_00000018197823998133915190000013791119928725661852_);fill:none;stroke:#0B0B0A;stroke-width:0.15;" points="
		4.5,222.4 4.3,221.7 3.1,222.3 3.3,220.9 2.6,220.9 2.8,222.3 1.5,221.7 1.3,222.3 2.7,222.6 1.7,223.6 2.2,224 2.9,222.8 3.6,224 
		4.1,223.6 3.2,222.6 	"/>
</g>
<polygon class="st0" points="2.6,1 2.8,2.3 1.5,1.8 1.3,2.4 2.7,2.6 1.7,3.6 2.2,4 2.9,2.9 3.6,4 4.1,3.6 3.2,2.7 4.5,2.4 4.3,1.8 
	3.1,2.3 3.3,1 "/>
<g>
	<defs>
		<rect id="SVGID_00000125562329916647942090000004648890562675123391_" x="1.2" y="0.9" width="176.1" height="223.2"/>
	</defs>
	<clipPath id="SVGID_00000053529619796474806700000006324165425352697483_">
		<use xlink:href="#SVGID_00000125562329916647942090000004648890562675123391_"  style="overflow:visible;"/>
	</clipPath>
	
		<polygon style="clip-path:url(#SVGID_00000053529619796474806700000006324165425352697483_);fill:none;stroke:#0B0B0A;stroke-width:0.15;" points="
		4.5,2.4 4.3,1.8 3.1,2.3 3.3,1 2.6,1 2.8,2.3 1.5,1.8 1.3,2.4 2.7,2.6 1.7,3.6 2.2,4 2.9,2.9 3.6,4 4.1,3.6 3.2,2.7 	"/>
</g>
<polygon class="st0" points="175.2,220.9 175.4,222.3 174.2,221.7 174,222.4 175.3,222.6 174.4,223.6 174.9,224 175.6,222.8 
	176.2,224 176.8,223.6 175.8,222.6 177.2,222.4 177,221.7 175.7,222.3 175.9,220.9 "/>
<g>
	<defs>
		<rect id="SVGID_00000062913714607818781610000014322083933149218213_" x="1.2" y="0.9" width="176.1" height="223.2"/>
	</defs>
	<clipPath id="SVGID_00000010294207012810514740000014807818853570640519_">
		<use xlink:href="#SVGID_00000062913714607818781610000014322083933149218213_"  style="overflow:visible;"/>
	</clipPath>
	
		<polygon style="clip-path:url(#SVGID_00000010294207012810514740000014807818853570640519_);fill:none;stroke:#0B0B0A;stroke-width:0.15;" points="
		177.2,222.4 177,221.7 175.7,222.3 175.9,220.9 175.2,220.9 175.4,222.3 174.2,221.7 174,222.4 175.3,222.6 174.4,223.6 174.9,224 
		175.6,222.8 176.2,224 176.8,223.6 175.8,222.6 	"/>
</g>
<polygon class="st0" points="175.2,1 175.4,2.4 174.2,1.8 174,2.4 175.3,2.7 174.4,3.7 174.9,4.1 175.6,2.9 176.2,4.1 176.8,3.7 
	175.8,2.7 177.2,2.5 177,1.8 175.7,2.4 175.9,1 "/>
<polygon class="st1" points="177.2,2.5 177,1.8 175.7,2.4 175.9,1 175.2,1 175.4,2.4 174.2,1.8 174,2.4 175.3,2.7 174.4,3.7 
	174.9,4.1 175.6,2.9 176.2,4.1 176.8,3.7 175.8,2.7 "/>
<path class="st0" d="M175.3,213h0.6v-4.4h-0.6V213z M175.3,203.5h0.6V199h-0.6V203.5z M175.3,193.9h0.6v-4.4h-0.6V193.9z
	 M175.3,184.4h0.6V180h-0.6V184.4z M175.3,174.9h0.6v-4.4h-0.6V174.9z M175.3,165.3h0.6v-4.4h-0.6V165.3z M175.3,155.8h0.6v-4.4
	h-0.6V155.8z M175.3,146.3h0.6v-4.4h-0.6V146.3z M175.3,136.7h0.6v-4.4h-0.6V136.7z M175.3,127.2h0.6v-4.4h-0.6V127.2z M175.3,117.7
	h0.6v-4.4h-0.6V117.7z M175.3,108.2h0.6v-4.4h-0.6V108.2z M175.3,98.6h0.6v-4.4h-0.6V98.6z M175.3,89.1h0.6v-4.4h-0.6V89.1z
	 M175.3,79.6h0.6v-4.4h-0.6V79.6z M175.3,70h0.6v-4.4h-0.6V70z M175.3,60.5h0.6v-4.4h-0.6V60.5z M175.3,51h0.6v-4.4h-0.6V51z
	 M175.3,41.4h0.6V37h-0.6V41.4z M175.3,31.9h0.6v-4.4h-0.6V31.9z M175.3,22.4h0.6v-4.4h-0.6V22.4z M175.3,12.9h0.6V8.4h-0.6V12.9z"
	/>
<path class="st1" d="M175.8,208.6h-0.6v4.4h0.6V208.6z M175.8,199h-0.6v4.4h0.6V199z M175.8,189.5h-0.6v4.4h0.6V189.5z M175.8,180
	h-0.6v4.4h0.6V180z M175.8,170.4h-0.6v4.4h0.6V170.4z M175.8,160.9h-0.6v4.4h0.6V160.9z M175.8,151.4h-0.6v4.4h0.6V151.4z
	 M175.8,141.8h-0.6v4.4h0.6V141.8z M175.8,132.3h-0.6v4.4h0.6V132.3z M175.8,122.8h-0.6v4.4h0.6V122.8z M175.8,113.2h-0.6v4.4h0.6
	V113.2z M175.8,103.7h-0.6v4.4h0.6V103.7z M175.8,94.2h-0.6v4.4h0.6V94.2z M175.8,84.7h-0.6v4.4h0.6V84.7z M175.8,75.1h-0.6v4.4h0.6
	V75.1z M175.8,65.6h-0.6V70h0.6V65.6z M175.8,56.1h-0.6v4.4h0.6V56.1z M175.8,46.5h-0.6V51h0.6V46.5z M175.8,37h-0.6v4.4h0.6V37z
	 M175.8,27.5h-0.6v4.4h0.6V27.5z M175.8,17.9h-0.6v4.4h0.6V17.9z M175.8,8.4h-0.6v4.4h0.6V8.4z"/>
<path class="st0" d="M2.6,214.4h0.6V210H2.6V214.4z M2.6,204.9h0.6v-4.4H2.6V204.9z M2.6,195.3h0.6v-4.4H2.6V195.3z M2.6,185.8h0.6
	v-4.4H2.6V185.8z M2.6,176.3h0.6v-4.4H2.6V176.3z M2.6,166.8h0.6v-4.4H2.6V166.8z M2.6,157.2h0.6v-4.4H2.6V157.2z M2.6,147.7h0.6
	v-4.4H2.6V147.7z M2.6,138.2h0.6v-4.4H2.6V138.2z M2.6,128.6h0.6v-4.4H2.6V128.6z M2.6,119.1h0.6v-4.4H2.6V119.1z M2.6,109.6h0.6
	v-4.4H2.6V109.6z M2.6,100h0.6v-4.4H2.6V100z M2.6,90.5h0.6v-4.4H2.6V90.5z M2.6,81h0.6v-4.4H2.6V81z M2.6,71.4h0.6V67H2.6V71.4z
	 M2.6,61.9h0.6v-4.4H2.6V61.9z M2.6,52.4h0.6V48H2.6V52.4z M2.6,42.9h0.6v-4.4H2.6V42.9z M2.6,33.3h0.6v-4.4H2.6V33.3z M2.6,23.8
	h0.6v-4.4H2.6V23.8z M2.6,14.3h0.6V9.8H2.6V14.3z"/>
<path class="st1" d="M3.2,210H2.6v4.4h0.6V210z M3.2,200.4H2.6v4.4h0.6V200.4z M3.2,190.9H2.6v4.4h0.6V190.9z M3.2,181.4H2.6v4.4
	h0.6V181.4z M3.2,171.9H2.6v4.4h0.6V171.9z M3.2,162.3H2.6v4.4h0.6V162.3z M3.2,152.8H2.6v4.4h0.6V152.8z M3.2,143.3H2.6v4.4h0.6
	V143.3z M3.2,133.7H2.6v4.4h0.6V133.7z M3.2,124.2H2.6v4.4h0.6V124.2z M3.2,114.7H2.6v4.4h0.6V114.7z M3.2,105.1H2.6v4.4h0.6V105.1z
	 M3.2,95.6H2.6v4.4h0.6V95.6z M3.2,86.1H2.6v4.4h0.6V86.1z M3.2,76.5H2.6V81h0.6V76.5z M3.2,67H2.6v4.4h0.6V67z M3.2,57.5H2.6v4.4
	h0.6V57.5z M3.2,48H2.6v4.4h0.6V48z M3.2,38.4H2.6v4.4h0.6V38.4z M3.2,28.9H2.6v4.4h0.6V28.9z M3.2,19.4H2.6v4.4h0.6V19.4z M3.2,9.8
	H2.6v4.4h0.6V9.8z"/>
<g>
	<defs>
		<rect id="SVGID_00000176756288613286660000000006834830435693311404_" x="1.2" y="0.9" width="176.1" height="223.2"/>
	</defs>
	<clipPath id="SVGID_00000081625430328244262740000012900925272111331980_">
		<use xlink:href="#SVGID_00000176756288613286660000000006834830435693311404_"  style="overflow:visible;"/>
	</clipPath>
	<path style="clip-path:url(#SVGID_00000081625430328244262740000012900925272111331980_);fill:#0B0B0A;" d="M68.6,40.8l1.1,2.4h0.7
		l-1.5-2.9h-0.6l-1.5,2.9h0.6L68.6,40.8z M63.7,46.6c0.3,0,0.5-0.3,0.5-0.5c0-0.3-0.3-0.5-0.5-0.5c-0.3,0-0.5,0.3-0.5,0.5
		C63.2,46.4,63.4,46.6,63.7,46.6 M59.1,40.8l1.1,2.4h0.7l-1.5-2.9h-0.6l-1.5,2.9h0.6L59.1,40.8z"/>
	
		<path style="clip-path:url(#SVGID_00000081625430328244262740000012900925272111331980_);fill:none;stroke:#0B0B0A;stroke-width:0.15;" d="
		M68.6,40.8l1.1,2.4h0.7l-1.5-2.9h-0.6l-1.5,2.9h0.6L68.6,40.8z M63.7,46.6c0.3,0,0.5-0.3,0.5-0.5c0-0.3-0.3-0.5-0.5-0.5
		c-0.3,0-0.5,0.3-0.5,0.5C63.2,46.4,63.4,46.6,63.7,46.6z M59.1,40.8l1.1,2.4h0.7l-1.5-2.9h-0.6l-1.5,2.9h0.6L59.1,40.8z"/>
	<path style="clip-path:url(#SVGID_00000081625430328244262740000012900925272111331980_);fill:#0B0B0A;" d="M90,40.8l1.1,2.4h0.7
		l-1.5-2.9h-0.6l-1.5,2.9h0.6L90,40.8z M85.2,46.6c0.3,0,0.5-0.3,0.5-0.5c0-0.3-0.3-0.5-0.5-0.5s-0.5,0.3-0.5,0.5
		C84.6,46.4,84.9,46.6,85.2,46.6 M80.5,40.8l1.1,2.4h0.7l-1.5-2.9h-0.6l-1.5,2.9h0.6L80.5,40.8z"/>
	
		<path style="clip-path:url(#SVGID_00000081625430328244262740000012900925272111331980_);fill:none;stroke:#0B0B0A;stroke-width:0.15;" d="
		M90,40.8l1.1,2.4h0.7l-1.5-2.9h-0.6l-1.5,2.9h0.6L90,40.8z M85.2,46.6c0.3,0,0.5-0.3,0.5-0.5c0-0.3-0.3-0.5-0.5-0.5
		s-0.5,0.3-0.5,0.5C84.6,46.4,84.9,46.6,85.2,46.6z M80.5,40.8l1.1,2.4h0.7l-1.5-2.9h-0.6l-1.5,2.9h0.6L80.5,40.8z"/>
	<path style="clip-path:url(#SVGID_00000081625430328244262740000012900925272111331980_);fill:#0B0B0A;" d="M109.8,40.8l1.1,2.4
		h0.7l-1.5-2.9h-0.6l-1.5,2.9h0.6L109.8,40.8z M104.9,46.6c0.3,0,0.5-0.3,0.5-0.5c0-0.3-0.3-0.5-0.5-0.5s-0.5,0.3-0.5,0.5
		C104.4,46.4,104.6,46.6,104.9,46.6 M100.2,40.8l1.1,2.4h0.7l-1.5-2.9h-0.6l-1.5,2.9H99L100.2,40.8z"/>
	
		<path style="clip-path:url(#SVGID_00000081625430328244262740000012900925272111331980_);fill:none;stroke:#0B0B0A;stroke-width:0.15;" d="
		M109.8,40.8l1.1,2.4h0.7l-1.5-2.9h-0.6l-1.5,2.9h0.6L109.8,40.8z M104.9,46.6c0.3,0,0.5-0.3,0.5-0.5c0-0.3-0.3-0.5-0.5-0.5
		s-0.5,0.3-0.5,0.5C104.4,46.4,104.6,46.6,104.9,46.6z M100.2,40.8l1.1,2.4h0.7l-1.5-2.9h-0.6l-1.5,2.9H99L100.2,40.8z"/>
	<path style="clip-path:url(#SVGID_00000081625430328244262740000012900925272111331980_);fill:#0B0B0A;" d="M69.6,56.1l1.1,2.4h0.7
		l-1.5-2.9h-0.6l-1.5,2.9h0.6L69.6,56.1z M64.7,61.9c0.3,0,0.5-0.3,0.5-0.5c0-0.3-0.3-0.5-0.5-0.5s-0.5,0.3-0.5,0.5
		C64.2,61.7,64.4,61.9,64.7,61.9 M60,56.1l1.1,2.4h0.7l-1.5-2.9h-0.6l-1.5,2.9h0.6L60,56.1z"/>
	
		<path style="clip-path:url(#SVGID_00000081625430328244262740000012900925272111331980_);fill:none;stroke:#0B0B0A;stroke-width:0.15;" d="
		M69.6,56.1l1.1,2.4h0.7l-1.5-2.9h-0.6l-1.5,2.9h0.6L69.6,56.1z M64.7,61.9c0.3,0,0.5-0.3,0.5-0.5c0-0.3-0.3-0.5-0.5-0.5
		s-0.5,0.3-0.5,0.5C64.2,61.7,64.4,61.9,64.7,61.9z M60,56.1l1.1,2.4h0.7l-1.5-2.9h-0.6l-1.5,2.9h0.6L60,56.1z"/>
	<path style="clip-path:url(#SVGID_00000081625430328244262740000012900925272111331980_);fill:#0B0B0A;" d="M90,55.3l1.1,2.4h0.7
		l-1.5-2.9h-0.6l-1.5,2.9h0.6L90,55.3z M85.2,61.1c0.3,0,0.5-0.3,0.5-0.5c0-0.3-0.3-0.5-0.5-0.5s-0.5,0.3-0.5,0.5
		C84.6,60.9,84.9,61.1,85.2,61.1 M80.5,55.3l1.1,2.4h0.7l-1.5-2.9h-0.6l-1.5,2.9h0.6L80.5,55.3z"/>
	
		<path style="clip-path:url(#SVGID_00000081625430328244262740000012900925272111331980_);fill:none;stroke:#0B0B0A;stroke-width:0.15;" d="
		M90,55.3l1.1,2.4h0.7l-1.5-2.9h-0.6l-1.5,2.9h0.6L90,55.3z M85.2,61.1c0.3,0,0.5-0.3,0.5-0.5c0-0.3-0.3-0.5-0.5-0.5
		s-0.5,0.3-0.5,0.5C84.6,60.9,84.9,61.1,85.2,61.1z M80.5,55.3l1.1,2.4h0.7l-1.5-2.9h-0.6l-1.5,2.9h0.6L80.5,55.3z"/>
	<path style="clip-path:url(#SVGID_00000081625430328244262740000012900925272111331980_);fill:#0B0B0A;" d="M109.8,55.3l1.1,2.4
		h0.7l-1.5-2.9h-0.6l-1.5,2.9h0.6L109.8,55.3z M104.9,61.1c0.3,0,0.5-0.3,0.5-0.5c0-0.3-0.3-0.5-0.5-0.5s-0.5,0.3-0.5,0.5
		C104.4,60.9,104.6,61.1,104.9,61.1 M100.2,55.3l1.1,2.4h0.7l-1.5-2.9h-0.6l-1.5,2.9H99L100.2,55.3z"/>
	
		<path style="clip-path:url(#SVGID_00000081625430328244262740000012900925272111331980_);fill:none;stroke:#0B0B0A;stroke-width:0.15;" d="
		M109.8,55.3l1.1,2.4h0.7l-1.5-2.9h-0.6l-1.5,2.9h0.6L109.8,55.3z M104.9,61.1c0.3,0,0.5-0.3,0.5-0.5c0-0.3-0.3-0.5-0.5-0.5
		s-0.5,0.3-0.5,0.5C104.4,60.9,104.6,61.1,104.9,61.1z M100.2,55.3l1.1,2.4h0.7l-1.5-2.9h-0.6l-1.5,2.9H99L100.2,55.3z"/>
</g>
<path class="st0" d="M138.5,110.2l1.9,6.3h-0.6l-1.9-6.3H138.5z M132.1,116.5h4.5V116l-4.5,0V116.5z M127.3,116.5h4.5V116l-4.5,0
	V116.5z M122.6,116.5h4.5V116l-4.5,0V116.5z M117.8,116.5h4.5V116l-4.5,0V116.5z M114.6,110.2l1.9,6.3h-0.6l-1.9-6.3H114.6z
	 M108.3,116.5h4.5V116l-4.5,0V116.5z M103.5,116.5h4.5V116l-4.5,0V116.5z M98.7,116.5h4.5V116l-4.5,0V116.5z M95.6,110.2l1.9,6.3
	h-0.6l-1.9-6.3H95.6z M89.2,116.5h4.5V116l-4.5,0V116.5z M84.4,116.5h4.5V116l-4.5,0V116.5z M79.6,116.5h4.5V116l-4.5,0V116.5z
	 M74.9,116.5h4.5V116l-4.5,0V116.5z M70.1,116.5h4.5V116l-4.5,0V116.5z M66.9,110.2l1.9,6.3h-0.6l-1.9-6.3H66.9z"/>
<path class="st1" d="M138.5,110.2l1.9,6.3h-0.6l-1.9-6.3H138.5z M132.1,116.5h4.5V116l-4.5,0V116.5z M127.3,116.5h4.5V116l-4.5,0
	V116.5z M122.6,116.5h4.5V116l-4.5,0V116.5z M117.8,116.5h4.5V116l-4.5,0V116.5z M114.6,110.2l1.9,6.3h-0.6l-1.9-6.3H114.6z
	 M108.3,116.5h4.5V116l-4.5,0V116.5z M103.5,116.5h4.5V116l-4.5,0V116.5z M98.7,116.5h4.5V116l-4.5,0V116.5z M95.6,110.2l1.9,6.3
	h-0.6l-1.9-6.3H95.6z M89.2,116.5h4.5V116l-4.5,0V116.5z M84.4,116.5h4.5V116l-4.5,0V116.5z M79.6,116.5h4.5V116l-4.5,0V116.5z
	 M74.9,116.5h4.5V116l-4.5,0V116.5z M70.1,116.5h4.5V116l-4.5,0V116.5z M66.9,110.2l1.9,6.3h-0.6l-1.9-6.3H66.9z"/>
<path class="st0" d="M133.7,101.2l1.9,6.3H135l-1.9-6.3H133.7z M129,101.2l1.9,6.3h-0.6l-1.9-6.3H129z M122.6,107.5h4.5V107l-4.5,0
	V107.5z M117.8,107.5h4.5V107l-4.5,0V107.5z M113,107.5h4.5V107l-4.5,0V107.5z M108.3,107.5h4.5V107l-4.5,0V107.5z M103.5,107.5h4.5
	V107l-4.5,0V107.5z M98.7,107.5h4.5V107l-4.5,0V107.5z M94,107.5h4.5V107l-4.5,0V107.5z M89.2,107.5h4.5V107l-4.5,0V107.5z
	 M84.4,107.5h4.5V107l-4.5,0V107.5z M79.6,107.5h4.5V107l-4.5,0V107.5z M74.9,107.5h4.5V107l-4.5,0V107.5z M70.1,107.5h4.5V107
	l-4.5,0V107.5z M66.9,101.2l1.9,6.3h-0.6l-1.9-6.3H66.9z M62.2,101.2l1.9,6.3h-0.6l-1.9-6.3H62.2z"/>
<path class="st1" d="M133.7,101.2l1.9,6.3H135l-1.9-6.3H133.7z M129,101.2l1.9,6.3h-0.6l-1.9-6.3H129z M122.6,107.5h4.5V107l-4.5,0
	V107.5z M117.8,107.5h4.5V107l-4.5,0V107.5z M113,107.5h4.5V107l-4.5,0V107.5z M108.3,107.5h4.5V107l-4.5,0V107.5z M103.5,107.5h4.5
	V107l-4.5,0V107.5z M98.7,107.5h4.5V107l-4.5,0V107.5z M94,107.5h4.5V107l-4.5,0V107.5z M89.2,107.5h4.5V107l-4.5,0V107.5z
	 M84.4,107.5h4.5V107l-4.5,0V107.5z M79.6,107.5h4.5V107l-4.5,0V107.5z M74.9,107.5h4.5V107l-4.5,0V107.5z M70.1,107.5h4.5V107
	l-4.5,0V107.5z M66.9,101.2l1.9,6.3h-0.6l-1.9-6.3H66.9z M62.2,101.2l1.9,6.3h-0.6l-1.9-6.3H62.2z"/>
<path class="st0" d="M129,92.2l1.9,6.3h-0.6l-1.9-6.3H129z M124.2,92.2l1.9,6.3h-0.6l-1.9-6.3H124.2z M122,96.7h-3.9v0.6h3.9V96.7z
	 M122,94.8h-3.9v0.6h3.9V94.8z M117.3,96.7h-3.9v0.6h3.9V96.7z M117.3,94.8h-3.9v0.6h3.9V94.8z M112.5,96.7h-4v0.6h4V96.7z
	 M112.5,94.8h-4v0.6h4V94.8z M107.7,96.7h-3.9v0.6h3.9V96.7z M107.7,94.8h-3.9v0.6h3.9V94.8z M102.9,96.7H99v0.6h3.9V96.7z
	 M102.9,94.8H99v0.6h3.9V94.8z M98.2,96.7h-4v0.6h4V96.7z M98.2,94.8h-4v0.6h4V94.8z M93.4,96.7h-3.9v0.6h3.9V96.7z M93.4,94.8h-3.9
	v0.6h3.9V94.8z M88.6,96.7h-4v0.6h4V96.7z M88.6,94.8h-4v0.6h4V94.8z M83.9,96.7h-3.9v0.6h3.9V96.7z M83.9,94.8h-3.9v0.6h3.9V94.8z
	 M79.1,96.7h-4v0.6h4V96.7z M79.1,94.8h-4v0.6h4V94.8z M74.3,96.7h-3.9v0.6h3.9V96.7z M74.3,94.8h-3.9v0.6h3.9V94.8z M69.6,96.7h-4
	v0.6h4V96.7z M69.6,94.8h-4v0.6h4V94.8z M62.2,92.2l1.9,6.3h-0.6l-1.9-6.3H62.2z M57.4,92.2l1.9,6.3h-0.6l-1.9-6.3H57.4z"/>
<path class="st1" d="M129,92.2l1.9,6.3h-0.6l-1.9-6.3H129z M124.2,92.2l1.9,6.3h-0.6l-1.9-6.3H124.2z M122,96.7h-3.9v0.6h3.9V96.7z
	 M122,94.8h-3.9v0.6h3.9V94.8z M117.3,96.7h-3.9v0.6h3.9V96.7z M117.3,94.8h-3.9v0.6h3.9V94.8z M112.5,96.7h-4v0.6h4V96.7z
	 M112.5,94.8h-4v0.6h4V94.8z M107.7,96.7h-3.9v0.6h3.9V96.7z M107.7,94.8h-3.9v0.6h3.9V94.8z M102.9,96.7H99v0.6h3.9V96.7z
	 M102.9,94.8H99v0.6h3.9V94.8z M98.2,96.7h-4v0.6h4V96.7z M98.2,94.8h-4v0.6h4V94.8z M93.4,96.7h-3.9v0.6h3.9V96.7z M93.4,94.8h-3.9
	v0.6h3.9V94.8z M88.6,96.7h-4v0.6h4V96.7z M88.6,94.8h-4v0.6h4V94.8z M83.9,96.7h-3.9v0.6h3.9V96.7z M83.9,94.8h-3.9v0.6h3.9V94.8z
	 M79.1,96.7h-4v0.6h4V96.7z M79.1,94.8h-4v0.6h4V94.8z M74.3,96.7h-3.9v0.6h3.9V96.7z M74.3,94.8h-3.9v0.6h3.9V94.8z M69.6,96.7h-4
	v0.6h4V96.7z M69.6,94.8h-4v0.6h4V94.8z M62.2,92.2l1.9,6.3h-0.6l-1.9-6.3H62.2z M57.4,92.2l1.9,6.3h-0.6l-1.9-6.3H57.4z"/>
<path class="st0" d="M124.2,83.2l1.9,6.3h-0.6l-1.9-6.3H124.2z M119.4,83.2l1.9,6.3h-0.6l-1.9-6.3H119.4z M117.3,87.7h-4v0.6h4V87.7
	z M117.3,85.8h-4v0.6h4V85.8z M112.5,87.7h-4v0.6h4V87.7z M112.5,85.8h-4v0.6h4V85.8z M107.7,87.7h-3.9v0.6h3.9V87.7z M107.7,85.8
	h-3.9v0.6h3.9V85.8z M102.9,87.7h-4v0.6h4V87.7z M102.9,85.8h-4v0.6h4V85.8z M98.2,87.7h-4v0.6h4V87.7z M98.2,85.8h-4v0.6h4V85.8z
	 M93.4,87.7h-3.9v0.6h3.9V87.7z M93.4,85.8h-3.9v0.6h3.9V85.8z M88.6,87.7h-4v0.6h4V87.7z M88.6,85.8h-4v0.6h4V85.8z M83.9,87.7
	h-3.9v0.6h3.9V87.7z M83.9,85.8h-3.9v0.6h3.9V85.8z M79.1,87.7h-4v0.6h4V87.7z M79.1,85.8h-4v0.6h4V85.8z M74.3,87.7h-3.9v0.6h3.9
	V87.7z M74.3,85.8h-3.9v0.6h3.9V85.8z M69.6,87.7h-4v0.6h4V87.7z M69.6,85.8h-4v0.6h4V85.8z M64.8,87.7h-4v0.6h4V87.7z M64.8,85.8
	h-4v0.6h4V85.8z M57.4,83.2l1.9,6.3h-0.6l-1.9-6.3H57.4z M52.6,83.2l1.9,6.3h-0.6L52,83.2H52.6z"/>
<path class="st1" d="M124.2,83.2l1.9,6.3h-0.6l-1.9-6.3H124.2z M119.4,83.2l1.9,6.3h-0.6l-1.9-6.3H119.4z M117.3,87.7h-4v0.6h4V87.7
	z M117.3,85.8h-4v0.6h4V85.8z M112.5,87.7h-4v0.6h4V87.7z M112.5,85.8h-4v0.6h4V85.8z M107.7,87.7h-3.9v0.6h3.9V87.7z M107.7,85.8
	h-3.9v0.6h3.9V85.8z M102.9,87.7h-4v0.6h4V87.7z M102.9,85.8h-4v0.6h4V85.8z M98.2,87.7h-4v0.6h4V87.7z M98.2,85.8h-4v0.6h4V85.8z
	 M93.4,87.7h-3.9v0.6h3.9V87.7z M93.4,85.8h-3.9v0.6h3.9V85.8z M88.6,87.7h-4v0.6h4V87.7z M88.6,85.8h-4v0.6h4V85.8z M83.9,87.7
	h-3.9v0.6h3.9V87.7z M83.9,85.8h-3.9v0.6h3.9V85.8z M79.1,87.7h-4v0.6h4V87.7z M79.1,85.8h-4v0.6h4V85.8z M74.3,87.7h-3.9v0.6h3.9
	V87.7z M74.3,85.8h-3.9v0.6h3.9V85.8z M69.6,87.7h-4v0.6h4V87.7z M69.6,85.8h-4v0.6h4V85.8z M64.8,87.7h-4v0.6h4V87.7z M64.8,85.8
	h-4v0.6h4V85.8z M57.4,83.2l1.9,6.3h-0.6l-1.9-6.3H57.4z M52.6,83.2l1.9,6.3h-0.6L52,83.2H52.6z"/>
<path class="st0" d="M119.8,81.1h0.6l0-6.9h-0.6V81.1z M113,80.5h4.5V80l-4.5,0V80.5z M108.3,80.5h4.5V80l-4.5,0V80.5z M103.5,80.5
	h4.5V80l-4.5,0V80.5z M98.7,80.5h4.5V80l-4.5,0V80.5z M94,80.5h4.5V80L94,80V80.5z M89.2,80.5h4.5V80l-4.5,0V80.5z M84.4,80.5h4.5
	V80l-4.5,0V80.5z M79.6,80.5h4.5V80l-4.5,0V80.5z M74.9,80.5h4.5V80l-4.5,0V80.5z M70.1,80.5h4.5V80l-4.5,0V80.5z M65.3,80.5h4.5V80
	l-4.5,0V80.5z M60.6,80.5H65V80l-4.5,0V80.5z M55.8,80.5h4.5V80l-4.5,0V80.5z M51,80.5h4.5V80L51,80V80.5z M48.2,81.1h0.6l0-6.9
	h-0.6V81.1z"/>
<path class="st1" d="M119.8,81.1h0.6l0-6.9h-0.6V81.1z M113,80.5h4.5V80l-4.5,0V80.5z M108.3,80.5h4.5V80l-4.5,0V80.5z M103.5,80.5
	h4.5V80l-4.5,0V80.5z M98.7,80.5h4.5V80l-4.5,0V80.5z M94,80.5h4.5V80L94,80V80.5z M89.2,80.5h4.5V80l-4.5,0V80.5z M84.4,80.5h4.5
	V80l-4.5,0V80.5z M79.6,80.5h4.5V80l-4.5,0V80.5z M74.9,80.5h4.5V80l-4.5,0V80.5z M70.1,80.5h4.5V80l-4.5,0V80.5z M65.3,80.5h4.5V80
	l-4.5,0V80.5z M60.6,80.5H65V80l-4.5,0V80.5z M55.8,80.5h4.5V80l-4.5,0V80.5z M51,80.5h4.5V80L51,80V80.5z M48.2,81.1h0.6l0-6.9
	h-0.6V81.1z"/>
<path class="st0" d="M119.8,70.3h0.6l0-6.9h-0.6V70.3z M115,70.3h0.6l0-6.9H115V70.3z M108.3,69.7h4.5v-0.5l-4.5,0V69.7z
	 M103.5,69.7h4.5v-0.5l-4.5,0V69.7z M98.7,69.7h4.5v-0.5l-4.5,0V69.7z M94,69.7h4.5v-0.5l-4.5,0V69.7z M89.2,69.7h4.5v-0.5l-4.5,0
	V69.7z M84.4,69.7h4.5v-0.5l-4.5,0V69.7z M79.6,69.7h4.5v-0.5l-4.5,0V69.7z M74.9,69.7h4.5v-0.5l-4.5,0V69.7z M70.1,69.7h4.5v-0.5
	l-4.5,0V69.7z M65.3,69.7h4.5v-0.5l-4.5,0V69.7z M60.6,69.7H65v-0.5l-4.5,0V69.7z M55.8,69.7h4.5v-0.5l-4.5,0V69.7z M53,70.3h0.6
	l0-6.9H53V70.3z M48.2,70.3h0.6l0-6.9h-0.6V70.3z"/>
<path class="st1" d="M119.8,70.3h0.6l0-6.9h-0.6V70.3z M115,70.3h0.6l0-6.9H115V70.3z M108.3,69.7h4.5v-0.5l-4.5,0V69.7z
	 M103.5,69.7h4.5v-0.5l-4.5,0V69.7z M98.7,69.7h4.5v-0.5l-4.5,0V69.7z M94,69.7h4.5v-0.5l-4.5,0V69.7z M89.2,69.7h4.5v-0.5l-4.5,0
	V69.7z M84.4,69.7h4.5v-0.5l-4.5,0V69.7z M79.6,69.7h4.5v-0.5l-4.5,0V69.7z M74.9,69.7h4.5v-0.5l-4.5,0V69.7z M70.1,69.7h4.5v-0.5
	l-4.5,0V69.7z M65.3,69.7h4.5v-0.5l-4.5,0V69.7z M60.6,69.7H65v-0.5l-4.5,0V69.7z M55.8,69.7h4.5v-0.5l-4.5,0V69.7z M53,70.3h0.6
	l0-6.9H53V70.3z M48.2,70.3h0.6l0-6.9h-0.6V70.3z"/>
<path class="st0" d="M119.8,61.3h0.6l0-6.9h-0.6V61.3z M115,61.3h0.6l0-6.9H115V61.3z M53,61.3h0.6l0-6.9H53V61.3z M48.2,61.3h0.6
	l0-6.9h-0.6V61.3z"/>
<path class="st1" d="M119.8,61.3h0.6l0-6.9h-0.6V61.3z M115,61.3h0.6l0-6.9H115V61.3z M53,61.3h0.6l0-6.9H53V61.3z M48.2,61.3h0.6
	l0-6.9h-0.6V61.3z"/>
<path class="st0" d="M119.8,52.3h0.6l0-6.9h-0.6V52.3z M115,52.3h0.6l0-6.9H115V52.3z M53,52.3h0.6l0-6.9H53V52.3z M48.2,52.3h0.6
	l0-6.9h-0.6V52.3z"/>
<path class="st1" d="M119.8,52.3h0.6l0-6.9h-0.6V52.3z M115,52.3h0.6l0-6.9H115V52.3z M53,52.3h0.6l0-6.9H53V52.3z M48.2,52.3h0.6
	l0-6.9h-0.6V52.3z"/>
<path class="st0" d="M119.8,43.3h0.6l0-6.9h-0.6V43.3z M115,43.3h0.6l0-6.9H115V43.3z M53,43.3h0.6l0-6.9H53V43.3z M48.2,43.3h0.6
	l0-6.9h-0.6V43.3z"/>
<path class="st1" d="M119.8,43.3h0.6l0-6.9h-0.6V43.3z M115,43.3h0.6l0-6.9H115V43.3z M53,43.3h0.6l0-6.9H53V43.3z M48.2,43.3h0.6
	l0-6.9h-0.6V43.3z"/>
<path class="st0" d="M53.5,34.2H58v-0.5l-4.5,0V34.2z M61.6,34.2h4.5v-0.5l-4.5,0V34.2z M69.7,34.2h4.5v-0.5l-4.5,0V34.2z
	 M77.8,34.2h4.5v-0.5l-4.5,0V34.2z M85.9,34.2h4.5v-0.5l-4.5,0V34.2z M94,34.2h4.5v-0.5l-4.5,0V34.2z M102.1,34.2h4.5v-0.5l-4.5,0
	V34.2z M110.2,34.2h4.5v-0.5l-4.5,0V34.2z"/>
<path class="st1" d="M110.2,34.2h4.5v-0.5l-4.5,0V34.2z M102.1,34.2h4.5v-0.5l-4.5,0V34.2z M94,34.2h4.5v-0.5l-4.5,0V34.2z
	 M85.9,34.2h4.5v-0.5l-4.5,0V34.2z M77.8,34.2h4.5v-0.5l-4.5,0V34.2z M69.7,34.2h4.5v-0.5l-4.5,0V34.2z M61.6,34.2h4.5v-0.5l-4.5,0
	V34.2z M53.5,34.2H58v-0.5l-4.5,0V34.2z"/>
<path class="st0" d="M52.2,29.2h4.5v-0.5l-4.5,0V29.2z M59.9,29.2h4.5v-0.5l-4.5,0V29.2z M67.6,29.2h4.5v-0.5l-4.5,0V29.2z
	 M75.4,29.2h4.5v-0.5l-4.5,0V29.2z M83.1,29.2h4.5v-0.5l-4.5,0V29.2z M90.9,29.2h4.5v-0.5l-4.5,0V29.2z M98.6,29.2h4.5v-0.5l-4.5,0
	V29.2z M106.3,29.2h4.5v-0.5l-4.5,0V29.2z M114.1,29.2h4.5v-0.5l-4.5,0V29.2z"/>
<path class="st1" d="M114.1,29.2h4.5v-0.5l-4.5,0V29.2z M106.3,29.2h4.5v-0.5l-4.5,0V29.2z M98.6,29.2h4.5v-0.5l-4.5,0V29.2z
	 M90.9,29.2h4.5v-0.5l-4.5,0V29.2z M83.1,29.2h4.5v-0.5l-4.5,0V29.2z M75.4,29.2h4.5v-0.5l-4.5,0V29.2z M67.6,29.2h4.5v-0.5l-4.5,0
	V29.2z M59.9,29.2h4.5v-0.5l-4.5,0V29.2z M52.2,29.2h4.5v-0.5l-4.5,0V29.2z"/>
<polygon class="st0" points="48.3,30.1 48.3,34.6 48.8,34.6 48.8,30.1 "/>
<polygon class="st1" points="48.8,34.6 48.8,30.1 48.3,30.1 48.3,34.6 "/>
<polygon class="st0" points="119.8,30.1 119.8,34.6 120.3,34.6 120.3,30.1 "/>
<polygon class="st1" points="120.3,34.6 120.3,30.1 119.8,30.1 119.8,34.6 "/>
<g>
	<defs>
		<rect id="SVGID_00000034805474062728657540000016756677463797216163_" x="1.2" y="0.9" width="176.1" height="223.2"/>
	</defs>
	<clipPath id="SVGID_00000169540592207250921460000014902492596011552922_">
		<use xlink:href="#SVGID_00000034805474062728657540000016756677463797216163_"  style="overflow:visible;"/>
	</clipPath>
	<path style="clip-path:url(#SVGID_00000169540592207250921460000014902492596011552922_);fill:#0B0B0A;" d="M122.8,206.1
		c-0.5,0-0.9,0.2-1.1,0.7v-0.6h-0.6v4.5h0.6v-2.4c0-0.9,0.4-1.6,1-1.6c0.4,0,0.7,0.3,0.7,0.9h0.6
		C123.9,206.6,123.5,206.1,122.8,206.1 M117.3,210.2c-0.5,0-0.8-0.3-0.8-0.7c0-0.7,0.8-1,1.7-1h0.4v0.3
		C118.5,209.6,118.1,210.2,117.3,210.2 M117.7,206.1c-0.8,0-1.4,0.5-1.5,1.3h0.6c0-0.5,0.5-0.8,0.9-0.8c0.5,0,0.8,0.3,0.8,1v0.3
		h-0.3c-1.3,0-2.3,0.4-2.3,1.5c0,0.8,0.6,1.3,1.4,1.3c0.5,0,1-0.3,1.3-0.8l0,0.7h0.6l0-3C119.1,206.7,118.6,206.1,117.7,206.1
		 M112.8,210.2c-0.7,0-1.1-0.8-1.1-1.8c0-1,0.4-1.8,1.1-1.8c0.5,0,0.8,0.4,0.9,1h0.6c-0.1-0.9-0.7-1.5-1.5-1.5
		c-0.7,0-1.3,0.4-1.5,1.2c-0.1,0.4-0.2,0.7-0.2,1.2v0c0,0.9,0.3,1.6,0.8,2c0.3,0.2,0.6,0.3,0.9,0.3c0.8,0,1.4-0.6,1.5-1.5h-0.6
		C113.6,209.8,113.3,210.2,112.8,210.2 M104.7,210.1h-1.2v-5.2l0-0.6h-1.6v0.6h1v5.2h-1.3v0.6h3.1V210.1z M98.4,210.2
		c0.8,0,1-0.8,1-1.8c0-1-0.3-1.8-1-1.8c-0.8,0-1,0.8-1,1.8C97.4,209.4,97.7,210.2,98.4,210.2 M98.4,206.1c0.7,0,1.2,0.5,1.5,1.2
		c0.1,0.4,0.2,0.7,0.2,1.1c0,1.3-0.5,2.3-1.6,2.3c-1.1,0-1.6-1-1.6-2.3C96.8,207.1,97.3,206.1,98.4,206.1 M94.2,206.1
		c-0.5,0-0.9,0.2-1.1,0.7v-0.6h-0.6v4.5H93v-2.4c0-0.9,0.4-1.6,1-1.6c0.4,0,0.7,0.3,0.7,0.9h0.6C95.3,206.6,94.9,206.1,94.2,206.1
		 M90.3,209.9c-0.2,0.1-0.6,0.2-0.8,0.2c-0.4,0-0.6-0.2-0.6-0.6v-2.7h1.3v-0.5h-1.3v-1.5h-0.6v1.5h-1.1v0.5h1.1v2.7
		c0,0.7,0.4,1.2,1.2,1.2c0.3,0,0.7-0.1,0.9-0.2L90.3,209.9z M84.1,206.6c0.6,0,1,0.6,1,1.4H83C83.1,207.2,83.5,206.6,84.1,206.6
		 M84.1,206.1c-0.7,0-1.3,0.5-1.5,1.2c-0.1,0.4-0.2,0.7-0.2,1.2c0,0.8,0.2,1.6,0.8,2c0.3,0.2,0.6,0.3,1,0.3c0.8,0,1.4-0.6,1.6-1.5
		h-0.6c-0.1,0.6-0.5,0.9-1,0.9c-0.7,0-1.1-0.7-1.1-1.6h2.8C85.8,207.2,85.3,206.1,84.1,206.1 M79.3,210.2c-0.7,0-1-0.7-1-1.8
		c0-1.1,0.4-1.8,1-1.8c0.7,0,1.1,0.8,1.1,1.8C80.4,209.4,80,210.2,79.3,210.2 M79.4,206.1c-0.5,0-0.9,0.3-1.1,0.7l0-0.6h-0.6v6.3
		h0.6v-2.4c0.2,0.4,0.6,0.7,1.1,0.7c1,0,1.6-1,1.6-2.3C80.9,207.1,80.4,206.1,79.4,206.1 M69.6,210.2c-0.5,0-0.8-0.3-0.8-0.7
		c0-0.7,0.8-1,1.7-1h0.4v0.3C70.8,209.6,70.4,210.2,69.6,210.2 M70,206.1c-0.8,0-1.4,0.5-1.5,1.3h0.6c0-0.5,0.4-0.8,0.9-0.8
		c0.5,0,0.8,0.3,0.8,1v0.3h-0.3c-1.3,0-2.3,0.4-2.3,1.5c0,0.8,0.6,1.3,1.4,1.3c0.5,0,1-0.3,1.3-0.8l0,0.7h0.6l0-3
		C71.4,206.7,70.9,206.1,70,206.1 M60.5,206.1c-0.5,0-1,0.3-1.3,0.7l0-0.6h-0.6v4.5h0.6v-2.4c0-1,0.4-1.6,1.2-1.6
		c0.5,0,0.8,0.4,0.8,1v3h0.6v-3C61.8,206.7,61.4,206.1,60.5,206.1 M57,210.1h-1.2v-3.9h-1.6v0.6h1v3.4H54v0.6h3V210.1z M55.4,205.5
		c0.3,0,0.4-0.2,0.4-0.5c0-0.2-0.2-0.5-0.4-0.5c-0.3,0-0.4,0.2-0.4,0.5C55,205.3,55.2,205.5,55.4,205.5"/>
	
		<path style="clip-path:url(#SVGID_00000169540592207250921460000014902492596011552922_);fill:none;stroke:#0B0B0A;stroke-width:0.15;" d="
		M122.8,206.1c-0.5,0-0.9,0.2-1.1,0.7v-0.6h-0.6v4.5h0.6v-2.4c0-0.9,0.4-1.6,1-1.6c0.4,0,0.7,0.3,0.7,0.9h0.6
		C123.9,206.6,123.5,206.1,122.8,206.1z M117.3,210.2c-0.5,0-0.8-0.3-0.8-0.7c0-0.7,0.8-1,1.7-1h0.4v0.3
		C118.5,209.6,118.1,210.2,117.3,210.2z M117.7,206.1c-0.8,0-1.4,0.5-1.5,1.3h0.6c0-0.5,0.5-0.8,0.9-0.8c0.5,0,0.8,0.3,0.8,1v0.3
		h-0.3c-1.3,0-2.3,0.4-2.3,1.5c0,0.8,0.6,1.3,1.4,1.3c0.5,0,1-0.3,1.3-0.8l0,0.7h0.6l0-3C119.1,206.7,118.6,206.1,117.7,206.1z
		 M112.8,210.2c-0.7,0-1.1-0.8-1.1-1.8c0-1,0.4-1.8,1.1-1.8c0.5,0,0.8,0.4,0.9,1h0.6c-0.1-0.9-0.7-1.5-1.5-1.5
		c-0.7,0-1.3,0.4-1.5,1.2c-0.1,0.4-0.2,0.7-0.2,1.2v0c0,0.9,0.3,1.6,0.8,2c0.3,0.2,0.6,0.3,0.9,0.3c0.8,0,1.4-0.6,1.5-1.5h-0.6
		C113.6,209.8,113.3,210.2,112.8,210.2z M104.7,210.1h-1.2v-5.2l0-0.6h-1.6v0.6h1v5.2h-1.3v0.6h3.1V210.1z M98.4,210.2
		c0.8,0,1-0.8,1-1.8c0-1-0.3-1.8-1-1.8c-0.8,0-1,0.8-1,1.8C97.4,209.4,97.7,210.2,98.4,210.2z M98.4,206.1c0.7,0,1.2,0.5,1.5,1.2
		c0.1,0.4,0.2,0.7,0.2,1.1c0,1.3-0.5,2.3-1.6,2.3c-1.1,0-1.6-1-1.6-2.3C96.8,207.1,97.3,206.1,98.4,206.1z M94.2,206.1
		c-0.5,0-0.9,0.2-1.1,0.7v-0.6h-0.6v4.5H93v-2.4c0-0.9,0.4-1.6,1-1.6c0.4,0,0.7,0.3,0.7,0.9h0.6C95.3,206.6,94.9,206.1,94.2,206.1z
		 M90.3,209.9c-0.2,0.1-0.6,0.2-0.8,0.2c-0.4,0-0.6-0.2-0.6-0.6v-2.7h1.3v-0.5h-1.3v-1.5h-0.6v1.5h-1.1v0.5h1.1v2.7
		c0,0.7,0.4,1.2,1.2,1.2c0.3,0,0.7-0.1,0.9-0.2L90.3,209.9z M84.1,206.6c0.6,0,1,0.6,1,1.4H83C83.1,207.2,83.5,206.6,84.1,206.6z
		 M84.1,206.1c-0.7,0-1.3,0.5-1.5,1.2c-0.1,0.4-0.2,0.7-0.2,1.2c0,0.8,0.2,1.6,0.8,2c0.3,0.2,0.6,0.3,1,0.3c0.8,0,1.4-0.6,1.6-1.5
		h-0.6c-0.1,0.6-0.5,0.9-1,0.9c-0.7,0-1.1-0.7-1.1-1.6h2.8C85.8,207.2,85.3,206.1,84.1,206.1z M79.3,210.2c-0.7,0-1-0.7-1-1.8
		c0-1.1,0.4-1.8,1-1.8c0.7,0,1.1,0.8,1.1,1.8C80.4,209.4,80,210.2,79.3,210.2z M79.4,206.1c-0.5,0-0.9,0.3-1.1,0.7l0-0.6h-0.6v6.3
		h0.6v-2.4c0.2,0.4,0.6,0.7,1.1,0.7c1,0,1.6-1,1.6-2.3C80.9,207.1,80.4,206.1,79.4,206.1z M69.6,210.2c-0.5,0-0.8-0.3-0.8-0.7
		c0-0.7,0.8-1,1.7-1h0.4v0.3C70.8,209.6,70.4,210.2,69.6,210.2z M70,206.1c-0.8,0-1.4,0.5-1.5,1.3h0.6c0-0.5,0.4-0.8,0.9-0.8
		c0.5,0,0.8,0.3,0.8,1v0.3h-0.3c-1.3,0-2.3,0.4-2.3,1.5c0,0.8,0.6,1.3,1.4,1.3c0.5,0,1-0.3,1.3-0.8l0,0.7h0.6l0-3
		C71.4,206.7,70.9,206.1,70,206.1z M60.5,206.1c-0.5,0-1,0.3-1.3,0.7l0-0.6h-0.6v4.5h0.6v-2.4c0-1,0.4-1.6,1.2-1.6
		c0.5,0,0.8,0.4,0.8,1v3h0.6v-3C61.8,206.7,61.4,206.1,60.5,206.1z M57,210.1h-1.2v-3.9h-1.6v0.6h1v3.4H54v0.6h3V210.1z M55.4,205.5
		c0.3,0,0.4-0.2,0.4-0.5c0-0.2-0.2-0.5-0.4-0.5c-0.3,0-0.4,0.2-0.4,0.5C55,205.3,55.2,205.5,55.4,205.5z"/>
	<path style="clip-path:url(#SVGID_00000169540592207250921460000014902492596011552922_);fill:#0B0B0A;" d="M138.1,196.5
		c-0.1-0.8-0.7-1.2-1.5-1.2c-0.8,0-1.4,0.5-1.4,1.2c0,0.5,0.3,0.8,0.9,1.1l1,0.5c0.3,0.2,0.5,0.3,0.5,0.7c0,0.4-0.4,0.7-0.9,0.7
		c-0.5,0-0.9-0.3-1.1-0.8H135c0.2,0.9,0.9,1.4,1.7,1.4c0.5,0,1-0.2,1.3-0.6c0.1-0.2,0.2-0.4,0.2-0.6c0-0.6-0.3-0.9-0.8-1.2l-1-0.5
		c-0.4-0.2-0.6-0.3-0.6-0.6c0-0.4,0.4-0.6,0.9-0.6c0.4,0,0.8,0.2,0.9,0.7H138.1z M131.8,195.8c0.6,0,1,0.6,1,1.4h-2.1
		C130.8,196.4,131.2,195.8,131.8,195.8 M131.8,195.3c-0.7,0-1.3,0.5-1.5,1.2c-0.1,0.4-0.2,0.7-0.2,1.2c0,0.8,0.2,1.6,0.8,2
		c0.3,0.2,0.6,0.3,1,0.3c0.8,0,1.4-0.6,1.6-1.5h-0.6c-0.1,0.6-0.4,0.9-1,0.9c-0.7,0-1.1-0.7-1.1-1.6h2.8
		C133.5,196.4,133,195.3,131.8,195.3 M128.6,199.3h-1.2v-5.2l0-0.6h-1.6v0.6h1v5.2h-1.3v0.6h3.1V199.3z M123.8,199.3h-1.2v-3.9H121
		v0.6h1v3.4h-1.2v0.6h3V199.3z M122.2,194.7c0.3,0,0.4-0.2,0.4-0.5c0-0.2-0.2-0.4-0.4-0.4c-0.3,0-0.5,0.2-0.5,0.4
		C121.8,194.5,122,194.7,122.2,194.7 M118.5,195.3c-0.4,0-0.7,0.3-0.8,0.7c-0.1-0.4-0.3-0.7-0.7-0.7c-0.3,0-0.6,0.2-0.8,0.7l0-0.6
		h-0.5l0,4.5h0.6v-2.7c0-0.7,0.2-1.3,0.6-1.3c0.2,0,0.3,0.1,0.3,0.2c0,0.1,0.1,0.4,0.1,0.7v3.1h0.6v-2.7c0-0.8,0.1-1.3,0.6-1.3
		c0.3,0,0.4,0.3,0.4,0.8v3.3h0.6v-3.3C119.3,195.8,119.1,195.3,118.5,195.3 M108,199.4c-0.5,0-0.9-0.3-1.2-0.7
		c-0.1-0.2-0.2-0.5-0.2-0.8c0-0.6,0.3-1,0.7-1.3c0.2-0.1,0.4-0.2,0.6-0.2c0.8,0,1.3,0.6,1.3,1.5C109.3,198.8,108.8,199.4,108,199.4
		 M108.1,195.9c-0.6,0-1.1,0.3-1.5,0.9c0.1-1.5,0.5-2.8,1.5-2.8c0.5,0,0.9,0.4,1.1,1h0.6c-0.2-1-0.9-1.5-1.7-1.5
		c-1,0-1.6,0.8-1.9,1.9c-0.1,0.5-0.2,1.1-0.2,1.7c0,1.7,0.6,2.9,2,2.9c0.7,0,1.3-0.4,1.6-1c0.2-0.3,0.2-0.7,0.2-1.1
		c0-0.7-0.3-1.4-0.9-1.8C108.7,196,108.4,195.9,108.1,195.9 M103.7,196.5c0.7-0.2,1.2-0.8,1.2-1.5c0-0.6-0.3-1.1-0.8-1.4
		c-0.3-0.1-0.5-0.2-0.8-0.2c-0.6,0-1.2,0.3-1.5,0.8c-0.2,0.2-0.3,0.5-0.3,0.8h0.6c0.2-0.6,0.7-1,1.3-1c0.6,0,1.1,0.4,1.1,1
		c0,0.8-0.6,1.2-1.4,1.2h-0.2v0.6h0.2c0.9,0,1.6,0.5,1.6,1.3c0,0.7-0.5,1.3-1.3,1.3c-0.7,0-1.2-0.4-1.4-1.1h-0.6
		c0.2,0.9,0.9,1.7,2,1.7c0.7,0,1.3-0.3,1.6-0.9c0.2-0.3,0.2-0.6,0.2-0.9c0-0.5-0.3-1-0.7-1.3C104.2,196.7,104,196.6,103.7,196.5
		 M98.4,199.9c0.3,0,0.5-0.3,0.5-0.5c0-0.3-0.3-0.5-0.5-0.5s-0.5,0.3-0.5,0.5C97.8,199.7,98.1,199.9,98.4,199.9 M93.5,196.9
		c-0.8,0-1.3-0.6-1.3-1.5c0-0.9,0.5-1.5,1.3-1.5c0.5,0,0.9,0.3,1.2,0.7c0.1,0.2,0.2,0.5,0.2,0.8c0,0.6-0.3,1-0.7,1.3
		C94,196.9,93.7,196.9,93.5,196.9 M93.5,193.4c-0.7,0-1.3,0.4-1.6,1c-0.2,0.3-0.2,0.7-0.2,1.1c0,0.7,0.3,1.4,0.9,1.8
		c0.3,0.2,0.6,0.3,1,0.3c0.6,0,1.1-0.3,1.5-0.9c-0.1,1.5-0.4,2.8-1.5,2.8c-0.5,0-0.9-0.4-1.1-1h-0.6c0.2,1,0.9,1.5,1.7,1.5
		c1,0,1.6-0.8,1.9-1.9c0.1-0.5,0.2-1.1,0.2-1.7C95.5,194.7,94.9,193.4,93.5,193.4 M84,199.4c-0.7,0-1.1-0.8-1.1-1.8
		c0-1,0.3-1.8,1.1-1.8c0.7,0,1,0.7,1,1.8C85,198.7,84.7,199.4,84,199.4 M85,195.4v0.6c-0.2-0.4-0.6-0.7-1.1-0.7c-1,0-1.6,1-1.6,2.3
		c0,1.3,0.6,2.3,1.6,2.3c0.5,0,0.9-0.3,1.1-0.7v0.7c0,0.8-0.3,1.1-1,1.1c-0.4,0-0.9-0.2-0.9-0.7h-0.6c0,0.5,0.4,0.9,0.8,1.1
		c0.2,0.1,0.4,0.1,0.7,0.1c1,0,1.5-0.6,1.5-1.7v-2.3l0-2.2H85z M79.6,195.3c-0.5,0-1,0.3-1.3,0.7l0-0.6h-0.6v4.5h0.6v-2.4
		c0-1,0.4-1.6,1.2-1.6c0.5,0,0.8,0.4,0.8,1v3h0.6v-3C80.9,195.9,80.5,195.3,79.6,195.3 M76.1,199.3h-1.2v-3.9h-1.6v0.6h1v3.4h-1.2
		v0.6h3V199.3z M74.5,194.7c0.3,0,0.4-0.2,0.4-0.5c0-0.2-0.2-0.4-0.4-0.4s-0.4,0.2-0.4,0.4C74.1,194.5,74.3,194.7,74.5,194.7
		 M68.1,195.4l1.3,4.5h0.7l1.3-4.5h-0.6l-1.1,3.8l-1.1-3.8H68.1z M66.5,199.3h-1.2v-3.9h-1.6v0.6h1v3.4h-1.2v0.6h3V199.3z M65,194.7
		c0.3,0,0.4-0.2,0.4-0.5c0-0.2-0.2-0.4-0.4-0.4s-0.4,0.2-0.4,0.4C64.5,194.5,64.7,194.7,65,194.7 M60.8,195.3
		c-0.5,0-0.9,0.2-1.1,0.7v-0.6h-0.6v4.5h0.6v-2.4c0-0.9,0.4-1.6,1-1.6c0.4,0,0.7,0.3,0.7,0.9H62C61.9,195.8,61.5,195.3,60.8,195.3
		 M55.5,199.4c-0.7,0-1.1-0.8-1.1-1.8c0-1,0.3-1.8,1.1-1.8c0.7,0,1,0.7,1,1.8C56.6,198.7,56.2,199.4,55.5,199.4 M56.5,196
		c-0.2-0.4-0.6-0.7-1.1-0.7c-1,0-1.6,1-1.6,2.3c0,1.3,0.6,2.3,1.6,2.3c0.5,0,0.9-0.3,1.1-0.7l0,0.6h0.6v-6.3h-0.6V196z M47.6,193.7
		c-0.3-0.1-0.7-0.2-1-0.2c-0.8,0-1.2,0.5-1.2,1.2v0.6h-1.1v0.6h1.1v3.9h0.6v-3.9h1.4v-0.6h-1.4v-0.6c0-0.5,0.2-0.6,0.7-0.6
		c0.2,0,0.6,0.1,0.8,0.2L47.6,193.7z M41.2,199.4c0.8,0,1-0.8,1-1.8c0-1-0.3-1.8-1-1.8c-0.8,0-1,0.8-1,1.8
		C40.1,198.6,40.4,199.4,41.2,199.4 M41.2,195.3c0.7,0,1.2,0.5,1.5,1.2c0.1,0.4,0.2,0.7,0.2,1.1c0,1.3-0.5,2.3-1.6,2.3
		c-1.1,0-1.6-1-1.6-2.3C39.6,196.3,40.1,195.3,41.2,195.3"/>
	
		<path style="clip-path:url(#SVGID_00000169540592207250921460000014902492596011552922_);fill:none;stroke:#0B0B0A;stroke-width:0.15;" d="
		M138.1,196.5c-0.1-0.8-0.7-1.2-1.5-1.2c-0.8,0-1.4,0.5-1.4,1.2c0,0.5,0.3,0.8,0.9,1.1l1,0.5c0.3,0.2,0.5,0.3,0.5,0.7
		c0,0.4-0.4,0.7-0.9,0.7c-0.5,0-0.9-0.3-1.1-0.8H135c0.2,0.9,0.9,1.4,1.7,1.4c0.5,0,1-0.2,1.3-0.6c0.1-0.2,0.2-0.4,0.2-0.6
		c0-0.6-0.3-0.9-0.8-1.2l-1-0.5c-0.4-0.2-0.6-0.3-0.6-0.6c0-0.4,0.4-0.6,0.9-0.6c0.4,0,0.8,0.2,0.9,0.7H138.1z M131.8,195.8
		c0.6,0,1,0.6,1,1.4h-2.1C130.8,196.4,131.2,195.8,131.8,195.8z M131.8,195.3c-0.7,0-1.3,0.5-1.5,1.2c-0.1,0.4-0.2,0.7-0.2,1.2
		c0,0.8,0.2,1.6,0.8,2c0.3,0.2,0.6,0.3,1,0.3c0.8,0,1.4-0.6,1.6-1.5h-0.6c-0.1,0.6-0.4,0.9-1,0.9c-0.7,0-1.1-0.7-1.1-1.6h2.8
		C133.5,196.4,133,195.3,131.8,195.3z M128.6,199.3h-1.2v-5.2l0-0.6h-1.6v0.6h1v5.2h-1.3v0.6h3.1V199.3z M123.8,199.3h-1.2v-3.9H121
		v0.6h1v3.4h-1.2v0.6h3V199.3z M122.2,194.7c0.3,0,0.4-0.2,0.4-0.5c0-0.2-0.2-0.4-0.4-0.4c-0.3,0-0.5,0.2-0.5,0.4
		C121.8,194.5,122,194.7,122.2,194.7z M118.5,195.3c-0.4,0-0.7,0.3-0.8,0.7c-0.1-0.4-0.3-0.7-0.7-0.7c-0.3,0-0.6,0.2-0.8,0.7l0-0.6
		h-0.5l0,4.5h0.6v-2.7c0-0.7,0.2-1.3,0.6-1.3c0.2,0,0.3,0.1,0.3,0.2c0,0.1,0.1,0.4,0.1,0.7v3.1h0.6v-2.7c0-0.8,0.1-1.3,0.6-1.3
		c0.3,0,0.4,0.3,0.4,0.8v3.3h0.6v-3.3C119.3,195.8,119.1,195.3,118.5,195.3z M108,199.4c-0.5,0-0.9-0.3-1.2-0.7
		c-0.1-0.2-0.2-0.5-0.2-0.8c0-0.6,0.3-1,0.7-1.3c0.2-0.1,0.4-0.2,0.6-0.2c0.8,0,1.3,0.6,1.3,1.5C109.3,198.8,108.8,199.4,108,199.4z
		 M108.1,195.9c-0.6,0-1.1,0.3-1.5,0.9c0.1-1.5,0.5-2.8,1.5-2.8c0.5,0,0.9,0.4,1.1,1h0.6c-0.2-1-0.9-1.5-1.7-1.5
		c-1,0-1.6,0.8-1.9,1.9c-0.1,0.5-0.2,1.1-0.2,1.7c0,1.7,0.6,2.9,2,2.9c0.7,0,1.3-0.4,1.6-1c0.2-0.3,0.2-0.7,0.2-1.1
		c0-0.7-0.3-1.4-0.9-1.8C108.7,196,108.4,195.9,108.1,195.9z M103.7,196.5c0.7-0.2,1.2-0.8,1.2-1.5c0-0.6-0.3-1.1-0.8-1.4
		c-0.3-0.1-0.5-0.2-0.8-0.2c-0.6,0-1.2,0.3-1.5,0.8c-0.2,0.2-0.3,0.5-0.3,0.8h0.6c0.2-0.6,0.7-1,1.3-1c0.6,0,1.1,0.4,1.1,1
		c0,0.8-0.6,1.2-1.4,1.2h-0.2v0.6h0.2c0.9,0,1.6,0.5,1.6,1.3c0,0.7-0.5,1.3-1.3,1.3c-0.7,0-1.2-0.4-1.4-1.1h-0.6
		c0.2,0.9,0.9,1.7,2,1.7c0.7,0,1.3-0.3,1.6-0.9c0.2-0.3,0.2-0.6,0.2-0.9c0-0.5-0.3-1-0.7-1.3C104.2,196.7,104,196.6,103.7,196.5z
		 M98.4,199.9c0.3,0,0.5-0.3,0.5-0.5c0-0.3-0.3-0.5-0.5-0.5s-0.5,0.3-0.5,0.5C97.8,199.7,98.1,199.9,98.4,199.9z M93.5,196.9
		c-0.8,0-1.3-0.6-1.3-1.5c0-0.9,0.5-1.5,1.3-1.5c0.5,0,0.9,0.3,1.2,0.7c0.1,0.2,0.2,0.5,0.2,0.8c0,0.6-0.3,1-0.7,1.3
		C94,196.9,93.7,196.9,93.5,196.9z M93.5,193.4c-0.7,0-1.3,0.4-1.6,1c-0.2,0.3-0.2,0.7-0.2,1.1c0,0.7,0.3,1.4,0.9,1.8
		c0.3,0.2,0.6,0.3,1,0.3c0.6,0,1.1-0.3,1.5-0.9c-0.1,1.5-0.4,2.8-1.5,2.8c-0.5,0-0.9-0.4-1.1-1h-0.6c0.2,1,0.9,1.5,1.7,1.5
		c1,0,1.6-0.8,1.9-1.9c0.1-0.5,0.2-1.1,0.2-1.7C95.5,194.7,94.9,193.4,93.5,193.4z M84,199.4c-0.7,0-1.1-0.8-1.1-1.8
		c0-1,0.3-1.8,1.1-1.8c0.7,0,1,0.7,1,1.8C85,198.7,84.7,199.4,84,199.4z M85,195.4v0.6c-0.2-0.4-0.6-0.7-1.1-0.7c-1,0-1.6,1-1.6,2.3
		c0,1.3,0.6,2.3,1.6,2.3c0.5,0,0.9-0.3,1.1-0.7v0.7c0,0.8-0.3,1.1-1,1.1c-0.4,0-0.9-0.2-0.9-0.7h-0.6c0,0.5,0.4,0.9,0.8,1.1
		c0.2,0.1,0.4,0.1,0.7,0.1c1,0,1.5-0.6,1.5-1.7v-2.3l0-2.2H85z M79.6,195.3c-0.5,0-1,0.3-1.3,0.7l0-0.6h-0.6v4.5h0.6v-2.4
		c0-1,0.4-1.6,1.2-1.6c0.5,0,0.8,0.4,0.8,1v3h0.6v-3C80.9,195.9,80.5,195.3,79.6,195.3z M76.1,199.3h-1.2v-3.9h-1.6v0.6h1v3.4h-1.2
		v0.6h3V199.3z M74.5,194.7c0.3,0,0.4-0.2,0.4-0.5c0-0.2-0.2-0.4-0.4-0.4s-0.4,0.2-0.4,0.4C74.1,194.5,74.3,194.7,74.5,194.7z
		 M68.1,195.4l1.3,4.5h0.7l1.3-4.5h-0.6l-1.1,3.8l-1.1-3.8H68.1z M66.5,199.3h-1.2v-3.9h-1.6v0.6h1v3.4h-1.2v0.6h3V199.3z M65,194.7
		c0.3,0,0.4-0.2,0.4-0.5c0-0.2-0.2-0.4-0.4-0.4s-0.4,0.2-0.4,0.4C64.5,194.5,64.7,194.7,65,194.7z M60.8,195.3
		c-0.5,0-0.9,0.2-1.1,0.7v-0.6h-0.6v4.5h0.6v-2.4c0-0.9,0.4-1.6,1-1.6c0.4,0,0.7,0.3,0.7,0.9H62C61.9,195.8,61.5,195.3,60.8,195.3z
		 M55.5,199.4c-0.7,0-1.1-0.8-1.1-1.8c0-1,0.3-1.8,1.1-1.8c0.7,0,1,0.7,1,1.8C56.6,198.7,56.2,199.4,55.5,199.4z M56.5,196
		c-0.2-0.4-0.6-0.7-1.1-0.7c-1,0-1.6,1-1.6,2.3c0,1.3,0.6,2.3,1.6,2.3c0.5,0,0.9-0.3,1.1-0.7l0,0.6h0.6v-6.3h-0.6V196z M47.6,193.7
		c-0.3-0.1-0.7-0.2-1-0.2c-0.8,0-1.2,0.5-1.2,1.2v0.6h-1.1v0.6h1.1v3.9h0.6v-3.9h1.4v-0.6h-1.4v-0.6c0-0.5,0.2-0.6,0.7-0.6
		c0.2,0,0.6,0.1,0.8,0.2L47.6,193.7z M41.2,199.4c0.8,0,1-0.8,1-1.8c0-1-0.3-1.8-1-1.8c-0.8,0-1,0.8-1,1.8
		C40.1,198.6,40.4,199.4,41.2,199.4z M41.2,195.3c0.7,0,1.2,0.5,1.5,1.2c0.1,0.4,0.2,0.7,0.2,1.1c0,1.3-0.5,2.3-1.6,2.3
		c-1.1,0-1.6-1-1.6-2.3C39.6,196.3,40.1,195.3,41.2,195.3z"/>
	<path style="clip-path:url(#SVGID_00000169540592207250921460000014902492596011552922_);fill:#0B0B0A;" d="M145.3,185.7
		c-0.1-0.8-0.7-1.2-1.5-1.2c-0.8,0-1.4,0.5-1.4,1.2c0,0.5,0.3,0.8,0.9,1.1l1,0.5c0.3,0.2,0.5,0.3,0.5,0.7c0,0.4-0.4,0.7-0.9,0.7
		c-0.5,0-0.9-0.3-1.1-0.8h-0.6c0.2,0.9,0.9,1.4,1.7,1.4c0.5,0,1-0.2,1.3-0.6c0.1-0.2,0.2-0.4,0.2-0.6c0-0.6-0.3-0.9-0.8-1.2l-1-0.5
		c-0.4-0.2-0.6-0.3-0.6-0.6c0-0.4,0.4-0.6,0.9-0.6c0.4,0,0.8,0.2,0.9,0.7H145.3z M139.2,184.5c-0.5,0-1,0.3-1.3,0.7l0-0.6h-0.6v4.5
		h0.6v-2.4c0-1,0.4-1.6,1.2-1.6c0.5,0,0.8,0.4,0.8,1v3h0.6v-3C140.5,185.1,140.1,184.5,139.2,184.5 M134.2,188.6c0.8,0,1-0.8,1-1.8
		c0-1-0.3-1.8-1-1.8c-0.8,0-1,0.8-1,1.8C133.2,187.8,133.4,188.6,134.2,188.6 M134.2,184.5c0.7,0,1.2,0.5,1.5,1.2
		c0.1,0.4,0.2,0.7,0.2,1.1c0,1.3-0.5,2.3-1.6,2.3c-1.1,0-1.6-1-1.6-2.3C132.6,185.5,133.1,184.5,134.2,184.5 M130.9,188.5h-1.2v-3.9
		h-1.6v0.6h1v3.4h-1.2v0.6h3V188.5z M129.4,183.9c0.3,0,0.4-0.2,0.4-0.5c0-0.2-0.2-0.4-0.4-0.4c-0.3,0-0.4,0.2-0.4,0.4
		C128.9,183.7,129.1,183.9,129.4,183.9 M126.2,185.7c-0.1-0.8-0.7-1.2-1.5-1.2c-0.8,0-1.4,0.5-1.4,1.2c0,0.5,0.3,0.8,0.9,1.1l1,0.5
		c0.3,0.2,0.5,0.3,0.5,0.7c0,0.4-0.4,0.7-0.9,0.7c-0.5,0-0.9-0.3-1.1-0.8H123c0.2,0.9,0.9,1.4,1.7,1.4c0.5,0,1-0.2,1.3-0.6
		c0.1-0.2,0.2-0.4,0.2-0.6c0-0.6-0.3-0.9-0.8-1.2l-1-0.5c-0.4-0.2-0.6-0.3-0.6-0.6c0-0.4,0.4-0.6,0.9-0.6c0.4,0,0.8,0.2,0.9,0.7
		H126.2z M121.4,185.7c-0.1-0.8-0.7-1.2-1.5-1.2c-0.8,0-1.4,0.5-1.4,1.2c0,0.5,0.3,0.8,0.9,1.1l1,0.5c0.3,0.2,0.5,0.3,0.5,0.7
		c0,0.4-0.4,0.7-0.9,0.7c-0.5,0-0.9-0.3-1.1-0.8h-0.6c0.2,0.9,0.9,1.4,1.7,1.4c0.5,0,1-0.2,1.3-0.6c0.1-0.2,0.2-0.4,0.2-0.6
		c0-0.6-0.3-0.9-0.8-1.2l-1-0.5c-0.4-0.2-0.6-0.3-0.6-0.6c0-0.4,0.4-0.6,0.9-0.6c0.4,0,0.8,0.2,0.9,0.7H121.4z M116.6,188.5h-1.2
		v-3.9h-1.6v0.6h1v3.4h-1.2v0.6h3V188.5z M115.1,183.9c0.3,0,0.4-0.2,0.4-0.5c0-0.2-0.2-0.4-0.4-0.4c-0.3,0-0.4,0.2-0.4,0.4
		C114.6,183.7,114.8,183.9,115.1,183.9 M111.3,184.5c-0.4,0-0.7,0.3-0.8,0.7c-0.1-0.4-0.3-0.7-0.7-0.7c-0.3,0-0.6,0.2-0.8,0.7l0-0.6
		h-0.5l0,4.5h0.6v-2.7c0-0.7,0.2-1.3,0.6-1.3c0.2,0,0.3,0.1,0.3,0.2c0,0.1,0.1,0.4,0.1,0.7v3.1h0.6v-2.7c0-0.8,0.1-1.3,0.6-1.3
		c0.3,0,0.4,0.3,0.4,0.8v3.3h0.6v-3.3C112.2,185,111.9,184.5,111.3,184.5 M105.6,185c0.6,0,1,0.6,1,1.4h-2.1
		C104.6,185.6,105,185,105.6,185 M105.6,184.5c-0.7,0-1.3,0.5-1.5,1.2c-0.1,0.4-0.2,0.7-0.2,1.2c0,0.8,0.2,1.6,0.8,2
		c0.3,0.2,0.6,0.3,1,0.3c0.8,0,1.4-0.6,1.6-1.5h-0.6c-0.1,0.6-0.5,0.9-1,0.9c-0.7,0-1.1-0.7-1.1-1.6h2.8
		C107.3,185.6,106.7,184.5,105.6,184.5 M97.4,188.3c-0.2,0.1-0.6,0.2-0.8,0.2c-0.4,0-0.6-0.2-0.6-0.6v-2.7h1.3v-0.5H96v-1.5h-0.6
		v1.5h-1.1v0.5h1.1v2.7c0,0.7,0.4,1.2,1.2,1.2c0.3,0,0.7-0.1,0.9-0.2L97.4,188.3z M91.5,184.5c-0.5,0-1,0.3-1.3,0.7l0-0.6h-0.6v4.5
		h0.6v-2.4c0-1,0.4-1.6,1.2-1.6c0.5,0,0.8,0.4,0.8,1v3h0.6v-3C92.8,185.1,92.4,184.5,91.5,184.5 M86.5,185c0.6,0,1,0.6,1,1.4h-2.1
		C85.5,185.6,85.9,185,86.5,185 M86.5,184.5c-0.7,0-1.3,0.5-1.5,1.2c-0.1,0.4-0.2,0.7-0.2,1.2c0,0.8,0.2,1.6,0.8,2
		c0.3,0.2,0.6,0.3,1,0.3c0.8,0,1.4-0.6,1.6-1.5h-0.6c-0.1,0.6-0.4,0.9-1,0.9c-0.7,0-1.1-0.7-1.1-1.6h2.8
		C88.2,185.6,87.7,184.5,86.5,184.5 M83.3,188.5H82v-5.2l0-0.6h-1.6v0.6h1v5.2h-1.3v0.6h3.1V188.5z M76.8,188.6
		c-0.5,0-0.8-0.3-0.8-0.7c0-0.7,0.8-1,1.7-1H78v0.3C78,188,77.5,188.6,76.8,188.6 M77.2,184.5c-0.8,0-1.4,0.5-1.5,1.4h0.6
		c0-0.5,0.4-0.8,0.9-0.8c0.5,0,0.8,0.3,0.8,1v0.3h-0.3c-1.3,0-2.3,0.4-2.3,1.5c0,0.8,0.6,1.3,1.4,1.3c0.5,0,1-0.3,1.3-0.8l0,0.7h0.6
		l0-3C78.6,185.1,78,184.5,77.2,184.5 M70.5,184.6l1.3,4.5h0.7l1.3-4.5h-0.6l-1.1,3.8l-1.1-3.8H70.5z M68.9,188.5h-1.2v-3.9h-1.6
		v0.6h1v3.4h-1.2v0.6h3V188.5z M67.4,183.9c0.3,0,0.5-0.2,0.5-0.5c0-0.2-0.2-0.4-0.5-0.4c-0.3,0-0.4,0.2-0.4,0.4
		C66.9,183.7,67.1,183.9,67.4,183.9 M63.6,187c0,1-0.4,1.6-1.2,1.6c-0.5,0-0.8-0.4-0.8-1v-3h-0.6v3c0,0.9,0.5,1.6,1.3,1.6
		c0.5,0,1-0.3,1.3-0.7l0,0.6h0.6v-4.5h-0.6V187z M57.9,188.6c-0.7,0-1.1-0.8-1.1-1.8c0-1,0.3-1.8,1.1-1.8c0.7,0,1,0.7,1,1.8
		C58.9,187.9,58.6,188.6,57.9,188.6 M58.9,185.2c-0.2-0.4-0.6-0.7-1.1-0.7c-1,0-1.6,1-1.6,2.3c0,1.3,0.6,2.3,1.6,2.3
		c0.4,0,0.8-0.3,1.1-0.7v2.4h0.6v-6.3h-0.6L58.9,185.2z M53.1,185c0.6,0,1,0.6,1,1.4H52C52.1,185.6,52.5,185,53.1,185 M53.1,184.5
		c-0.7,0-1.3,0.5-1.5,1.2c-0.1,0.4-0.2,0.7-0.2,1.2c0,0.8,0.2,1.6,0.8,2c0.3,0.2,0.6,0.3,1,0.3c0.8,0,1.4-0.6,1.6-1.5h-0.6
		c-0.1,0.6-0.5,0.9-1,0.9c-0.7,0-1.1-0.7-1.1-1.6h2.8C54.8,185.6,54.3,184.5,53.1,184.5 M43.6,185c0.6,0,1,0.6,1,1.4h-2.1
		C42.6,185.6,42.9,185,43.6,185 M43.6,184.5c-0.7,0-1.3,0.5-1.5,1.2c-0.1,0.4-0.2,0.7-0.2,1.2c0,0.8,0.2,1.6,0.8,2
		c0.3,0.2,0.6,0.3,1,0.3c0.8,0,1.4-0.6,1.6-1.5h-0.6c-0.1,0.6-0.5,0.9-1,0.9c-0.7,0-1.1-0.7-1.1-1.6h2.8
		C45.3,185.6,44.7,184.5,43.6,184.5 M39,184.5c-0.5,0-1,0.3-1.3,0.7l0-0.6v-1.8h-0.6v6.3h0.6v-2.4c0-1,0.4-1.6,1.2-1.6
		c0.5,0,0.8,0.4,0.8,1v3h0.6v-3C40.3,185.1,39.8,184.5,39,184.5 M35.4,188.3c-0.2,0.1-0.6,0.2-0.8,0.2c-0.4,0-0.6-0.2-0.6-0.6v-2.7
		h1.4v-0.5H34v-1.5h-0.6v1.5h-1.1v0.5h1.1v2.7c0,0.7,0.4,1.2,1.2,1.2c0.3,0,0.7-0.1,0.9-0.2L35.4,188.3z"/>
	
		<path style="clip-path:url(#SVGID_00000169540592207250921460000014902492596011552922_);fill:none;stroke:#0B0B0A;stroke-width:0.15;" d="
		M145.3,185.7c-0.1-0.8-0.7-1.2-1.5-1.2c-0.8,0-1.4,0.5-1.4,1.2c0,0.5,0.3,0.8,0.9,1.1l1,0.5c0.3,0.2,0.5,0.3,0.5,0.7
		c0,0.4-0.4,0.7-0.9,0.7c-0.5,0-0.9-0.3-1.1-0.8h-0.6c0.2,0.9,0.9,1.4,1.7,1.4c0.5,0,1-0.2,1.3-0.6c0.1-0.2,0.2-0.4,0.2-0.6
		c0-0.6-0.3-0.9-0.8-1.2l-1-0.5c-0.4-0.2-0.6-0.3-0.6-0.6c0-0.4,0.4-0.6,0.9-0.6c0.4,0,0.8,0.2,0.9,0.7H145.3z M139.2,184.5
		c-0.5,0-1,0.3-1.3,0.7l0-0.6h-0.6v4.5h0.6v-2.4c0-1,0.4-1.6,1.2-1.6c0.5,0,0.8,0.4,0.8,1v3h0.6v-3
		C140.5,185.1,140.1,184.5,139.2,184.5z M134.2,188.6c0.8,0,1-0.8,1-1.8c0-1-0.3-1.8-1-1.8c-0.8,0-1,0.8-1,1.8
		C133.2,187.8,133.4,188.6,134.2,188.6z M134.2,184.5c0.7,0,1.2,0.5,1.5,1.2c0.1,0.4,0.2,0.7,0.2,1.1c0,1.3-0.5,2.3-1.6,2.3
		c-1.1,0-1.6-1-1.6-2.3C132.6,185.5,133.1,184.5,134.2,184.5z M130.9,188.5h-1.2v-3.9h-1.6v0.6h1v3.4h-1.2v0.6h3V188.5z
		 M129.4,183.9c0.3,0,0.4-0.2,0.4-0.5c0-0.2-0.2-0.4-0.4-0.4c-0.3,0-0.4,0.2-0.4,0.4C128.9,183.7,129.1,183.9,129.4,183.9z
		 M126.2,185.7c-0.1-0.8-0.7-1.2-1.5-1.2c-0.8,0-1.4,0.5-1.4,1.2c0,0.5,0.3,0.8,0.9,1.1l1,0.5c0.3,0.2,0.5,0.3,0.5,0.7
		c0,0.4-0.4,0.7-0.9,0.7c-0.5,0-0.9-0.3-1.1-0.8H123c0.2,0.9,0.9,1.4,1.7,1.4c0.5,0,1-0.2,1.3-0.6c0.1-0.2,0.2-0.4,0.2-0.6
		c0-0.6-0.3-0.9-0.8-1.2l-1-0.5c-0.4-0.2-0.6-0.3-0.6-0.6c0-0.4,0.4-0.6,0.9-0.6c0.4,0,0.8,0.2,0.9,0.7H126.2z M121.4,185.7
		c-0.1-0.8-0.7-1.2-1.5-1.2c-0.8,0-1.4,0.5-1.4,1.2c0,0.5,0.3,0.8,0.9,1.1l1,0.5c0.3,0.2,0.5,0.3,0.5,0.7c0,0.4-0.4,0.7-0.9,0.7
		c-0.5,0-0.9-0.3-1.1-0.8h-0.6c0.2,0.9,0.9,1.4,1.7,1.4c0.5,0,1-0.2,1.3-0.6c0.1-0.2,0.2-0.4,0.2-0.6c0-0.6-0.3-0.9-0.8-1.2l-1-0.5
		c-0.4-0.2-0.6-0.3-0.6-0.6c0-0.4,0.4-0.6,0.9-0.6c0.4,0,0.8,0.2,0.9,0.7H121.4z M116.6,188.5h-1.2v-3.9h-1.6v0.6h1v3.4h-1.2v0.6h3
		V188.5z M115.1,183.9c0.3,0,0.4-0.2,0.4-0.5c0-0.2-0.2-0.4-0.4-0.4c-0.3,0-0.4,0.2-0.4,0.4C114.6,183.7,114.8,183.9,115.1,183.9z
		 M111.3,184.5c-0.4,0-0.7,0.3-0.8,0.7c-0.1-0.4-0.3-0.7-0.7-0.7c-0.3,0-0.6,0.2-0.8,0.7l0-0.6h-0.5l0,4.5h0.6v-2.7
		c0-0.7,0.2-1.3,0.6-1.3c0.2,0,0.3,0.1,0.3,0.2c0,0.1,0.1,0.4,0.1,0.7v3.1h0.6v-2.7c0-0.8,0.1-1.3,0.6-1.3c0.3,0,0.4,0.3,0.4,0.8
		v3.3h0.6v-3.3C112.2,185,111.9,184.5,111.3,184.5z M105.6,185c0.6,0,1,0.6,1,1.4h-2.1C104.6,185.6,105,185,105.6,185z M105.6,184.5
		c-0.7,0-1.3,0.5-1.5,1.2c-0.1,0.4-0.2,0.7-0.2,1.2c0,0.8,0.2,1.6,0.8,2c0.3,0.2,0.6,0.3,1,0.3c0.8,0,1.4-0.6,1.6-1.5h-0.6
		c-0.1,0.6-0.5,0.9-1,0.9c-0.7,0-1.1-0.7-1.1-1.6h2.8C107.3,185.6,106.7,184.5,105.6,184.5z M97.4,188.3c-0.2,0.1-0.6,0.2-0.8,0.2
		c-0.4,0-0.6-0.2-0.6-0.6v-2.7h1.3v-0.5H96v-1.5h-0.6v1.5h-1.1v0.5h1.1v2.7c0,0.7,0.4,1.2,1.2,1.2c0.3,0,0.7-0.1,0.9-0.2L97.4,188.3
		z M91.5,184.5c-0.5,0-1,0.3-1.3,0.7l0-0.6h-0.6v4.5h0.6v-2.4c0-1,0.4-1.6,1.2-1.6c0.5,0,0.8,0.4,0.8,1v3h0.6v-3
		C92.8,185.1,92.4,184.5,91.5,184.5z M86.5,185c0.6,0,1,0.6,1,1.4h-2.1C85.5,185.6,85.9,185,86.5,185z M86.5,184.5
		c-0.7,0-1.3,0.5-1.5,1.2c-0.1,0.4-0.2,0.7-0.2,1.2c0,0.8,0.2,1.6,0.8,2c0.3,0.2,0.6,0.3,1,0.3c0.8,0,1.4-0.6,1.6-1.5h-0.6
		c-0.1,0.6-0.4,0.9-1,0.9c-0.7,0-1.1-0.7-1.1-1.6h2.8C88.2,185.6,87.7,184.5,86.5,184.5z M83.3,188.5H82v-5.2l0-0.6h-1.6v0.6h1v5.2
		h-1.3v0.6h3.1V188.5z M76.8,188.6c-0.5,0-0.8-0.3-0.8-0.7c0-0.7,0.8-1,1.7-1H78v0.3C78,188,77.5,188.6,76.8,188.6z M77.2,184.5
		c-0.8,0-1.4,0.5-1.5,1.4h0.6c0-0.5,0.4-0.8,0.9-0.8c0.5,0,0.8,0.3,0.8,1v0.3h-0.3c-1.3,0-2.3,0.4-2.3,1.5c0,0.8,0.6,1.3,1.4,1.3
		c0.5,0,1-0.3,1.3-0.8l0,0.7h0.6l0-3C78.6,185.1,78,184.5,77.2,184.5z M70.5,184.6l1.3,4.5h0.7l1.3-4.5h-0.6l-1.1,3.8l-1.1-3.8H70.5
		z M68.9,188.5h-1.2v-3.9h-1.6v0.6h1v3.4h-1.2v0.6h3V188.5z M67.4,183.9c0.3,0,0.5-0.2,0.5-0.5c0-0.2-0.2-0.4-0.5-0.4
		c-0.3,0-0.4,0.2-0.4,0.4C66.9,183.7,67.1,183.9,67.4,183.9z M63.6,187c0,1-0.4,1.6-1.2,1.6c-0.5,0-0.8-0.4-0.8-1v-3h-0.6v3
		c0,0.9,0.5,1.6,1.3,1.6c0.5,0,1-0.3,1.3-0.7l0,0.6h0.6v-4.5h-0.6V187z M57.9,188.6c-0.7,0-1.1-0.8-1.1-1.8c0-1,0.3-1.8,1.1-1.8
		c0.7,0,1,0.7,1,1.8C58.9,187.9,58.6,188.6,57.9,188.6z M58.9,185.2c-0.2-0.4-0.6-0.7-1.1-0.7c-1,0-1.6,1-1.6,2.3
		c0,1.3,0.6,2.3,1.6,2.3c0.4,0,0.8-0.3,1.1-0.7v2.4h0.6v-6.3h-0.6L58.9,185.2z M53.1,185c0.6,0,1,0.6,1,1.4H52
		C52.1,185.6,52.5,185,53.1,185z M53.1,184.5c-0.7,0-1.3,0.5-1.5,1.2c-0.1,0.4-0.2,0.7-0.2,1.2c0,0.8,0.2,1.6,0.8,2
		c0.3,0.2,0.6,0.3,1,0.3c0.8,0,1.4-0.6,1.6-1.5h-0.6c-0.1,0.6-0.5,0.9-1,0.9c-0.7,0-1.1-0.7-1.1-1.6h2.8
		C54.8,185.6,54.3,184.5,53.1,184.5z M43.6,185c0.6,0,1,0.6,1,1.4h-2.1C42.6,185.6,42.9,185,43.6,185z M43.6,184.5
		c-0.7,0-1.3,0.5-1.5,1.2c-0.1,0.4-0.2,0.7-0.2,1.2c0,0.8,0.2,1.6,0.8,2c0.3,0.2,0.6,0.3,1,0.3c0.8,0,1.4-0.6,1.6-1.5h-0.6
		c-0.1,0.6-0.5,0.9-1,0.9c-0.7,0-1.1-0.7-1.1-1.6h2.8C45.3,185.6,44.7,184.5,43.6,184.5z M39,184.5c-0.5,0-1,0.3-1.3,0.7l0-0.6v-1.8
		h-0.6v6.3h0.6v-2.4c0-1,0.4-1.6,1.2-1.6c0.5,0,0.8,0.4,0.8,1v3h0.6v-3C40.3,185.1,39.8,184.5,39,184.5z M35.4,188.3
		c-0.2,0.1-0.6,0.2-0.8,0.2c-0.4,0-0.6-0.2-0.6-0.6v-2.7h1.4v-0.5H34v-1.5h-0.6v1.5h-1.1v0.5h1.1v2.7c0,0.7,0.4,1.2,1.2,1.2
		c0.3,0,0.7-0.1,0.9-0.2L35.4,188.3z"/>
	<path style="clip-path:url(#SVGID_00000169540592207250921460000014902492596011552922_);fill:#0B0B0A;" d="M142.9,174.9
		c-0.1-0.8-0.7-1.2-1.5-1.2c-0.8,0-1.4,0.5-1.4,1.2c0,0.5,0.3,0.8,0.9,1.1l1,0.5c0.3,0.2,0.5,0.3,0.5,0.7c0,0.4-0.4,0.7-0.9,0.7
		c-0.5,0-0.9-0.3-1.1-0.8h-0.6c0.2,0.9,0.9,1.4,1.7,1.4c0.5,0,1-0.2,1.3-0.6c0.1-0.2,0.2-0.4,0.2-0.6c0-0.6-0.3-0.9-0.8-1.2l-1-0.5
		c-0.4-0.2-0.6-0.3-0.6-0.6c0-0.4,0.4-0.6,0.9-0.6c0.4,0,0.8,0.2,0.9,0.7H142.9z M136.6,174.2c0.6,0,1,0.6,1,1.4h-2.1
		C135.6,174.8,136,174.2,136.6,174.2 M136.6,173.7c-0.7,0-1.3,0.5-1.5,1.2c-0.1,0.4-0.2,0.7-0.2,1.2c0,0.8,0.2,1.6,0.8,2
		c0.3,0.2,0.6,0.3,1,0.3c0.8,0,1.4-0.6,1.6-1.5h-0.6c-0.1,0.6-0.5,0.9-1,0.9c-0.7,0-1.1-0.7-1.1-1.6h2.8
		C138.3,174.8,137.8,173.7,136.6,173.7 M133.3,174.9c-0.1-0.8-0.7-1.2-1.5-1.2c-0.8,0-1.4,0.5-1.4,1.2c0,0.5,0.3,0.8,0.9,1.1l1,0.5
		c0.3,0.2,0.5,0.3,0.5,0.7c0,0.4-0.4,0.7-0.9,0.7c-0.5,0-0.9-0.3-1.1-0.8h-0.6c0.2,0.9,0.9,1.4,1.7,1.4c0.5,0,1-0.2,1.3-0.6
		c0.1-0.2,0.2-0.4,0.2-0.6c0-0.6-0.3-0.9-0.8-1.2l-1-0.5c-0.4-0.2-0.6-0.3-0.6-0.6c0-0.4,0.4-0.6,0.9-0.6c0.4,0,0.8,0.2,0.9,0.7
		H133.3z M126.8,177.8c-0.5,0-0.8-0.3-0.8-0.7c0-0.7,0.8-1,1.7-1h0.4v0.3C128.1,177.2,127.6,177.8,126.8,177.8 M127.3,173.7
		c-0.8,0-1.4,0.5-1.5,1.4h0.6c0-0.5,0.5-0.8,0.9-0.8c0.5,0,0.8,0.3,0.8,1v0.3h-0.3c-1.3,0-2.3,0.4-2.3,1.5c0,0.8,0.6,1.3,1.4,1.3
		c0.5,0,1-0.3,1.3-0.8l0,0.7h0.6l0-3C128.6,174.3,128.1,173.7,127.3,173.7 M122.3,174.2c0.6,0,1,0.6,1,1.4h-2.1
		C121.3,174.8,121.7,174.2,122.3,174.2 M122.3,173.7c-0.7,0-1.3,0.5-1.5,1.2c-0.1,0.4-0.2,0.7-0.2,1.2c0,0.8,0.2,1.6,0.8,2
		c0.3,0.2,0.6,0.3,1,0.3c0.8,0,1.4-0.6,1.6-1.5h-0.6c-0.1,0.6-0.4,0.9-1,0.9c-0.7,0-1.1-0.7-1.1-1.6h2.8
		C124,174.8,123.4,173.7,122.3,173.7 M119,177.7h-1.2v-5.2l0-0.6h-1.6v0.6h1v5.2H116v0.6h3.1V177.7z M112.8,174.2c0.6,0,1,0.6,1,1.4
		h-2.1C111.8,174.8,112.1,174.2,112.8,174.2 M112.8,173.7c-0.7,0-1.3,0.5-1.5,1.2c-0.1,0.4-0.2,0.7-0.2,1.2c0,0.8,0.2,1.6,0.8,2
		c0.3,0.2,0.6,0.3,1,0.3c0.8,0,1.4-0.6,1.6-1.5h-0.6c-0.1,0.6-0.4,0.9-1,0.9c-0.7,0-1.1-0.7-1.1-1.6h2.8
		C114.4,174.8,113.9,173.7,112.8,173.7 M108.5,173.7c-0.5,0-0.9,0.2-1.1,0.7v-0.6h-0.6v4.5h0.6v-2.4c0-0.9,0.4-1.6,1-1.6
		c0.4,0,0.7,0.3,0.7,0.9h0.6C109.6,174.2,109.2,173.7,108.5,173.7 M99.9,174.9c-0.1-0.8-0.7-1.2-1.5-1.2c-0.8,0-1.4,0.5-1.4,1.2
		c0,0.5,0.3,0.8,0.9,1.1l1,0.5c0.3,0.2,0.5,0.3,0.5,0.7c0,0.4-0.4,0.7-0.9,0.7c-0.5,0-0.9-0.3-1.1-0.8h-0.6c0.2,0.9,0.9,1.4,1.7,1.4
		c0.5,0,1-0.2,1.3-0.6c0.1-0.2,0.2-0.4,0.2-0.6c0-0.6-0.3-0.9-0.8-1.2l-1-0.5c-0.4-0.2-0.6-0.3-0.6-0.6c0-0.4,0.4-0.6,0.9-0.6
		c0.4,0,0.8,0.2,0.9,0.7H99.9z M95,177.5c-0.2,0.1-0.6,0.2-0.8,0.2c-0.4,0-0.6-0.2-0.6-0.6v-2.7H95v-0.5h-1.3v-1.5h-0.6v1.5H92v0.5
		h1.1v2.7c0,0.7,0.4,1.2,1.2,1.2c0.3,0,0.7-0.1,0.9-0.2L95,177.5z M89.2,173.7c-0.5,0-1,0.3-1.3,0.7l0-0.6h-0.6v4.5h0.6v-2.4
		c0-1,0.4-1.6,1.2-1.6c0.5,0,0.8,0.4,0.8,1v3h0.6v-3C90.4,174.3,90,173.7,89.2,173.7 M83.9,177.8c-0.5,0-0.8-0.3-0.8-0.7
		c0-0.7,0.8-1,1.7-1h0.4v0.3C85.1,177.2,84.7,177.8,83.9,177.8 M84.3,173.7c-0.8,0-1.4,0.5-1.5,1.4h0.6c0-0.5,0.5-0.8,0.9-0.8
		c0.5,0,0.8,0.3,0.8,1v0.3h-0.3c-1.3,0-2.3,0.4-2.3,1.5c0,0.8,0.6,1.3,1.4,1.3c0.5,0,1-0.3,1.3-0.8l0,0.7h0.6l0-3
		C85.7,174.3,85.2,173.7,84.3,173.7 M79.3,177.8c-0.7,0-1-0.7-1-1.8c0-1.1,0.4-1.8,1-1.8c0.7,0,1.1,0.8,1.1,1.8
		C80.4,177,80,177.8,79.3,177.8 M79.4,173.7c-0.5,0-0.9,0.3-1.1,0.7l0-0.6h-0.6v6.3h0.6v-2.4c0.2,0.4,0.6,0.7,1.1,0.7
		c1,0,1.6-1,1.6-2.3C80.9,174.7,80.4,173.7,79.4,173.7 M76.1,177.7h-1.2v-3.9h-1.6v0.6h1v3.4h-1.2v0.6h3V177.7z M74.5,173.1
		c0.3,0,0.4-0.2,0.4-0.5c0-0.2-0.2-0.4-0.4-0.4s-0.4,0.2-0.4,0.4C74.1,172.9,74.3,173.1,74.5,173.1 M69.9,177.8
		c-0.7,0-1.1-0.8-1.1-1.8c0-1,0.4-1.8,1.1-1.8c0.5,0,0.8,0.4,0.9,1h0.6c-0.1-0.9-0.7-1.5-1.5-1.5c-0.7,0-1.3,0.4-1.5,1.2
		c-0.1,0.4-0.2,0.7-0.2,1.2v0c0,0.9,0.3,1.6,0.8,2c0.3,0.2,0.6,0.3,0.9,0.3c0.8,0,1.4-0.6,1.5-1.5h-0.6
		C70.7,177.4,70.4,177.8,69.9,177.8 M66.5,177.7h-1.2v-3.9h-1.6v0.6h1v3.4h-1.2v0.6h3V177.7z M65,173.1c0.3,0,0.4-0.2,0.4-0.5
		c0-0.2-0.2-0.4-0.4-0.4c-0.3,0-0.5,0.2-0.5,0.4C64.5,172.9,64.7,173.1,65,173.1 M61.7,177.5c-0.2,0.1-0.6,0.2-0.8,0.2
		c-0.4,0-0.6-0.2-0.6-0.6v-2.7h1.4v-0.5h-1.4v-1.5h-0.6v1.5h-1.1v0.5h1.1v2.7c0,0.7,0.4,1.2,1.2,1.2c0.3,0,0.7-0.1,0.9-0.2
		L61.7,177.5z M56,173.7c-0.5,0-0.9,0.2-1.1,0.7v-0.6h-0.6v4.5h0.6v-2.4c0-0.9,0.4-1.6,1-1.6c0.4,0,0.7,0.3,0.7,0.9h0.6
		C57.1,174.2,56.7,173.7,56,173.7 M50.5,177.8c-0.5,0-0.8-0.3-0.8-0.7c0-0.7,0.8-1,1.7-1h0.4v0.3C51.7,177.2,51.3,177.8,50.5,177.8
		 M50.9,173.7c-0.8,0-1.4,0.5-1.5,1.4H50c0-0.5,0.4-0.8,0.9-0.8c0.5,0,0.8,0.3,0.8,1v0.3h-0.3c-1.3,0-2.3,0.4-2.3,1.5
		c0,0.8,0.6,1.3,1.4,1.3c0.5,0,1-0.3,1.3-0.8l0,0.7h0.6l0-3C52.3,174.3,51.8,173.7,50.9,173.7 M45.9,177.8c-0.7,0-1-0.7-1-1.8
		c0-1.1,0.4-1.8,1-1.8c0.7,0,1.1,0.8,1.1,1.8C47,177,46.6,177.8,45.9,177.8 M46,173.7c-0.5,0-0.9,0.3-1.1,0.7l0-0.6h-0.6v6.3h0.6
		v-2.4c0.2,0.4,0.6,0.7,1.1,0.7c1,0,1.6-1,1.6-2.3C47.6,174.7,47,173.7,46,173.7 M36.5,177.8c-0.5,0-0.9-0.3-1.2-0.7
		c-0.1-0.2-0.2-0.5-0.2-0.8c0-0.6,0.3-1,0.7-1.3c0.2-0.1,0.4-0.2,0.6-0.2c0.8,0,1.3,0.6,1.3,1.5C37.8,177.2,37.2,177.8,36.5,177.8
		 M36.5,174.3c-0.6,0-1.1,0.3-1.5,0.9c0.1-1.5,0.5-2.8,1.5-2.8c0.5,0,0.9,0.4,1.1,1h0.6c-0.2-1-0.9-1.5-1.7-1.5
		c-1,0-1.6,0.8-1.9,1.9c-0.1,0.5-0.2,1.1-0.2,1.7c0,1.7,0.6,2.9,2,2.9c0.7,0,1.3-0.4,1.6-1c0.2-0.3,0.2-0.7,0.2-1.1
		c0-0.7-0.3-1.4-0.9-1.8C37.2,174.4,36.9,174.3,36.5,174.3"/>
	
		<path style="clip-path:url(#SVGID_00000169540592207250921460000014902492596011552922_);fill:none;stroke:#0B0B0A;stroke-width:0.15;" d="
		M142.9,174.9c-0.1-0.8-0.7-1.2-1.5-1.2c-0.8,0-1.4,0.5-1.4,1.2c0,0.5,0.3,0.8,0.9,1.1l1,0.5c0.3,0.2,0.5,0.3,0.5,0.7
		c0,0.4-0.4,0.7-0.9,0.7c-0.5,0-0.9-0.3-1.1-0.8h-0.6c0.2,0.9,0.9,1.4,1.7,1.4c0.5,0,1-0.2,1.3-0.6c0.1-0.2,0.2-0.4,0.2-0.6
		c0-0.6-0.3-0.9-0.8-1.2l-1-0.5c-0.4-0.2-0.6-0.3-0.6-0.6c0-0.4,0.4-0.6,0.9-0.6c0.4,0,0.8,0.2,0.9,0.7H142.9z M136.6,174.2
		c0.6,0,1,0.6,1,1.4h-2.1C135.6,174.8,136,174.2,136.6,174.2z M136.6,173.7c-0.7,0-1.3,0.5-1.5,1.2c-0.1,0.4-0.2,0.7-0.2,1.2
		c0,0.8,0.2,1.6,0.8,2c0.3,0.2,0.6,0.3,1,0.3c0.8,0,1.4-0.6,1.6-1.5h-0.6c-0.1,0.6-0.5,0.9-1,0.9c-0.7,0-1.1-0.7-1.1-1.6h2.8
		C138.3,174.8,137.8,173.7,136.6,173.7z M133.3,174.9c-0.1-0.8-0.7-1.2-1.5-1.2c-0.8,0-1.4,0.5-1.4,1.2c0,0.5,0.3,0.8,0.9,1.1l1,0.5
		c0.3,0.2,0.5,0.3,0.5,0.7c0,0.4-0.4,0.7-0.9,0.7c-0.5,0-0.9-0.3-1.1-0.8h-0.6c0.2,0.9,0.9,1.4,1.7,1.4c0.5,0,1-0.2,1.3-0.6
		c0.1-0.2,0.2-0.4,0.2-0.6c0-0.6-0.3-0.9-0.8-1.2l-1-0.5c-0.4-0.2-0.6-0.3-0.6-0.6c0-0.4,0.4-0.6,0.9-0.6c0.4,0,0.8,0.2,0.9,0.7
		H133.3z M126.8,177.8c-0.5,0-0.8-0.3-0.8-0.7c0-0.7,0.8-1,1.7-1h0.4v0.3C128.1,177.2,127.6,177.8,126.8,177.8z M127.3,173.7
		c-0.8,0-1.4,0.5-1.5,1.4h0.6c0-0.5,0.5-0.8,0.9-0.8c0.5,0,0.8,0.3,0.8,1v0.3h-0.3c-1.3,0-2.3,0.4-2.3,1.5c0,0.8,0.6,1.3,1.4,1.3
		c0.5,0,1-0.3,1.3-0.8l0,0.7h0.6l0-3C128.6,174.3,128.1,173.7,127.3,173.7z M122.3,174.2c0.6,0,1,0.6,1,1.4h-2.1
		C121.3,174.8,121.7,174.2,122.3,174.2z M122.3,173.7c-0.7,0-1.3,0.5-1.5,1.2c-0.1,0.4-0.2,0.7-0.2,1.2c0,0.8,0.2,1.6,0.8,2
		c0.3,0.2,0.6,0.3,1,0.3c0.8,0,1.4-0.6,1.6-1.5h-0.6c-0.1,0.6-0.4,0.9-1,0.9c-0.7,0-1.1-0.7-1.1-1.6h2.8
		C124,174.8,123.4,173.7,122.3,173.7z M119,177.7h-1.2v-5.2l0-0.6h-1.6v0.6h1v5.2H116v0.6h3.1V177.7z M112.8,174.2
		c0.6,0,1,0.6,1,1.4h-2.1C111.8,174.8,112.1,174.2,112.8,174.2z M112.8,173.7c-0.7,0-1.3,0.5-1.5,1.2c-0.1,0.4-0.2,0.7-0.2,1.2
		c0,0.8,0.2,1.6,0.8,2c0.3,0.2,0.6,0.3,1,0.3c0.8,0,1.4-0.6,1.6-1.5h-0.6c-0.1,0.6-0.4,0.9-1,0.9c-0.7,0-1.1-0.7-1.1-1.6h2.8
		C114.4,174.8,113.9,173.7,112.8,173.7z M108.5,173.7c-0.5,0-0.9,0.2-1.1,0.7v-0.6h-0.6v4.5h0.6v-2.4c0-0.9,0.4-1.6,1-1.6
		c0.4,0,0.7,0.3,0.7,0.9h0.6C109.6,174.2,109.2,173.7,108.5,173.7z M99.9,174.9c-0.1-0.8-0.7-1.2-1.5-1.2c-0.8,0-1.4,0.5-1.4,1.2
		c0,0.5,0.3,0.8,0.9,1.1l1,0.5c0.3,0.2,0.5,0.3,0.5,0.7c0,0.4-0.4,0.7-0.9,0.7c-0.5,0-0.9-0.3-1.1-0.8h-0.6c0.2,0.9,0.9,1.4,1.7,1.4
		c0.5,0,1-0.2,1.3-0.6c0.1-0.2,0.2-0.4,0.2-0.6c0-0.6-0.3-0.9-0.8-1.2l-1-0.5c-0.4-0.2-0.6-0.3-0.6-0.6c0-0.4,0.4-0.6,0.9-0.6
		c0.4,0,0.8,0.2,0.9,0.7H99.9z M95,177.5c-0.2,0.1-0.6,0.2-0.8,0.2c-0.4,0-0.6-0.2-0.6-0.6v-2.7H95v-0.5h-1.3v-1.5h-0.6v1.5H92v0.5
		h1.1v2.7c0,0.7,0.4,1.2,1.2,1.2c0.3,0,0.7-0.1,0.9-0.2L95,177.5z M89.2,173.7c-0.5,0-1,0.3-1.3,0.7l0-0.6h-0.6v4.5h0.6v-2.4
		c0-1,0.4-1.6,1.2-1.6c0.5,0,0.8,0.4,0.8,1v3h0.6v-3C90.4,174.3,90,173.7,89.2,173.7z M83.9,177.8c-0.5,0-0.8-0.3-0.8-0.7
		c0-0.7,0.8-1,1.7-1h0.4v0.3C85.1,177.2,84.7,177.8,83.9,177.8z M84.3,173.7c-0.8,0-1.4,0.5-1.5,1.4h0.6c0-0.5,0.5-0.8,0.9-0.8
		c0.5,0,0.8,0.3,0.8,1v0.3h-0.3c-1.3,0-2.3,0.4-2.3,1.5c0,0.8,0.6,1.3,1.4,1.3c0.5,0,1-0.3,1.3-0.8l0,0.7h0.6l0-3
		C85.7,174.3,85.2,173.7,84.3,173.7z M79.3,177.8c-0.7,0-1-0.7-1-1.8c0-1.1,0.4-1.8,1-1.8c0.7,0,1.1,0.8,1.1,1.8
		C80.4,177,80,177.8,79.3,177.8z M79.4,173.7c-0.5,0-0.9,0.3-1.1,0.7l0-0.6h-0.6v6.3h0.6v-2.4c0.2,0.4,0.6,0.7,1.1,0.7
		c1,0,1.6-1,1.6-2.3C80.9,174.7,80.4,173.7,79.4,173.7z M76.1,177.7h-1.2v-3.9h-1.6v0.6h1v3.4h-1.2v0.6h3V177.7z M74.5,173.1
		c0.3,0,0.4-0.2,0.4-0.5c0-0.2-0.2-0.4-0.4-0.4s-0.4,0.2-0.4,0.4C74.1,172.9,74.3,173.1,74.5,173.1z M69.9,177.8
		c-0.7,0-1.1-0.8-1.1-1.8c0-1,0.4-1.8,1.1-1.8c0.5,0,0.8,0.4,0.9,1h0.6c-0.1-0.9-0.7-1.5-1.5-1.5c-0.7,0-1.3,0.4-1.5,1.2
		c-0.1,0.4-0.2,0.7-0.2,1.2v0c0,0.9,0.3,1.6,0.8,2c0.3,0.2,0.6,0.3,0.9,0.3c0.8,0,1.4-0.6,1.5-1.5h-0.6
		C70.7,177.4,70.4,177.8,69.9,177.8z M66.5,177.7h-1.2v-3.9h-1.6v0.6h1v3.4h-1.2v0.6h3V177.7z M65,173.1c0.3,0,0.4-0.2,0.4-0.5
		c0-0.2-0.2-0.4-0.4-0.4c-0.3,0-0.5,0.2-0.5,0.4C64.5,172.9,64.7,173.1,65,173.1z M61.7,177.5c-0.2,0.1-0.6,0.2-0.8,0.2
		c-0.4,0-0.6-0.2-0.6-0.6v-2.7h1.4v-0.5h-1.4v-1.5h-0.6v1.5h-1.1v0.5h1.1v2.7c0,0.7,0.4,1.2,1.2,1.2c0.3,0,0.7-0.1,0.9-0.2
		L61.7,177.5z M56,173.7c-0.5,0-0.9,0.2-1.1,0.7v-0.6h-0.6v4.5h0.6v-2.4c0-0.9,0.4-1.6,1-1.6c0.4,0,0.7,0.3,0.7,0.9h0.6
		C57.1,174.2,56.7,173.7,56,173.7z M50.5,177.8c-0.5,0-0.8-0.3-0.8-0.7c0-0.7,0.8-1,1.7-1h0.4v0.3C51.7,177.2,51.3,177.8,50.5,177.8
		z M50.9,173.7c-0.8,0-1.4,0.5-1.5,1.4H50c0-0.5,0.4-0.8,0.9-0.8c0.5,0,0.8,0.3,0.8,1v0.3h-0.3c-1.3,0-2.3,0.4-2.3,1.5
		c0,0.8,0.6,1.3,1.4,1.3c0.5,0,1-0.3,1.3-0.8l0,0.7h0.6l0-3C52.3,174.3,51.8,173.7,50.9,173.7z M45.9,177.8c-0.7,0-1-0.7-1-1.8
		c0-1.1,0.4-1.8,1-1.8c0.7,0,1.1,0.8,1.1,1.8C47,177,46.6,177.8,45.9,177.8z M46,173.7c-0.5,0-0.9,0.3-1.1,0.7l0-0.6h-0.6v6.3h0.6
		v-2.4c0.2,0.4,0.6,0.7,1.1,0.7c1,0,1.6-1,1.6-2.3C47.6,174.7,47,173.7,46,173.7z M36.5,177.8c-0.5,0-0.9-0.3-1.2-0.7
		c-0.1-0.2-0.2-0.5-0.2-0.8c0-0.6,0.3-1,0.7-1.3c0.2-0.1,0.4-0.2,0.6-0.2c0.8,0,1.3,0.6,1.3,1.5C37.8,177.2,37.2,177.8,36.5,177.8z
		 M36.5,174.3c-0.6,0-1.1,0.3-1.5,0.9c0.1-1.5,0.5-2.8,1.5-2.8c0.5,0,0.9,0.4,1.1,1h0.6c-0.2-1-0.9-1.5-1.7-1.5
		c-1,0-1.6,0.8-1.9,1.9c-0.1,0.5-0.2,1.1-0.2,1.7c0,1.7,0.6,2.9,2,2.9c0.7,0,1.3-0.4,1.6-1c0.2-0.3,0.2-0.7,0.2-1.1
		c0-0.7-0.3-1.4-0.9-1.8C37.2,174.4,36.9,174.3,36.5,174.3z"/>
	<path style="clip-path:url(#SVGID_00000169540592207250921460000014902492596011552922_);fill:#0B0B0A;" d="M134.4,162.9
		c-0.5,0-1,0.3-1.3,0.7l0-0.6v-1.8h-0.6v6.3h0.6V165c0-1,0.4-1.6,1.2-1.6c0.5,0,0.8,0.4,0.8,1v3h0.6v-3
		C135.7,163.5,135.2,162.9,134.4,162.9 M130.8,166.7c-0.2,0.1-0.6,0.2-0.8,0.2c-0.4,0-0.6-0.2-0.6-0.6v-2.7h1.4V163h-1.4v-1.5h-0.6
		v1.5h-1.1v0.5h1.1v2.7c0,0.7,0.4,1.2,1.2,1.2c0.3,0,0.7-0.1,0.9-0.2L130.8,166.7z M126.1,166.9H125V163h-1.6v0.6h1v3.4h-1.2v0.6h3
		V166.9z M124.6,162.3c0.3,0,0.4-0.2,0.4-0.5c0-0.2-0.2-0.4-0.4-0.4c-0.3,0-0.4,0.2-0.4,0.4C124.1,162.1,124.3,162.3,124.6,162.3
		 M119.6,164.2l-0.6,2.2l-0.5-3.5h-0.6l0.7,4.5h0.6l0.7-2.4l0.7,2.4h0.6l0.7-4.5h-0.6l-0.5,3.5l-0.6-2.2H119.6z M111.3,162.9
		c-0.4,0-0.7,0.3-0.8,0.7c-0.1-0.4-0.3-0.7-0.7-0.7c-0.3,0-0.6,0.2-0.8,0.7l0-0.6h-0.5l0,4.5h0.6v-2.7c0-0.7,0.2-1.3,0.6-1.3
		c0.2,0,0.3,0.1,0.3,0.2c0,0.1,0.1,0.4,0.1,0.7v3.1h0.6v-2.7c0-0.8,0.1-1.3,0.6-1.3c0.3,0,0.4,0.3,0.4,0.8v3.3h0.6v-3.3
		C112.2,163.4,111.9,162.9,111.3,162.9 M105.6,167c0.8,0,1-0.8,1-1.8c0-1-0.3-1.8-1-1.8c-0.8,0-1,0.8-1,1.8
		C104.5,166.2,104.8,167,105.6,167 M105.6,162.9c0.7,0,1.2,0.5,1.5,1.2c0.1,0.4,0.2,0.7,0.2,1.1c0,1.3-0.5,2.3-1.6,2.3
		c-1.1,0-1.6-1-1.6-2.3C103.9,163.9,104.5,162.9,105.6,162.9 M100.8,167c0.8,0,1-0.8,1-1.8c0-1-0.3-1.8-1-1.8c-0.8,0-1,0.8-1,1.8
		C99.8,166.2,100,167,100.8,167 M100.8,162.9c0.7,0,1.2,0.5,1.5,1.2c0.1,0.4,0.2,0.7,0.2,1.1c0,1.3-0.5,2.3-1.6,2.3
		c-1.1,0-1.6-1-1.6-2.3C99.2,163.9,99.7,162.9,100.8,162.9 M97.7,166.9h-2.7l2.6-5.2v-0.6h-3.2v0.6l2.5,0l-2.6,5.1l0,0.6h3.3V166.9z
		 M86.8,162.9c-0.5,0-1,0.3-1.3,0.7l0-0.6h-0.6v4.5h0.6V165c0-1,0.4-1.6,1.2-1.6c0.5,0,0.8,0.4,0.8,1v3h0.6v-3
		C88.1,163.5,87.6,162.9,86.8,162.9 M81.7,167c0.8,0,1-0.8,1-1.8c0-1-0.3-1.8-1-1.8c-0.8,0-1,0.8-1,1.8C80.7,166.2,81,167,81.7,167
		 M81.7,162.9c0.7,0,1.2,0.5,1.5,1.2c0.1,0.4,0.2,0.7,0.2,1.1c0,1.3-0.5,2.3-1.6,2.3c-1.1,0-1.6-1-1.6-2.3
		C80.1,163.9,80.6,162.9,81.7,162.9 M72.1,167c-0.7,0-1.1-0.8-1.1-1.8c0-1,0.3-1.8,1.1-1.8c0.7,0,1,0.7,1,1.8
		C73.1,166.3,72.7,167,72.1,167 M73.1,163v0.6c-0.2-0.4-0.6-0.7-1.1-0.7c-1,0-1.6,1-1.6,2.3c0,1.3,0.6,2.3,1.6,2.3
		c0.5,0,0.9-0.3,1.1-0.7v0.7c0,0.8-0.3,1.1-1,1.1c-0.4,0-0.9-0.2-0.9-0.7h-0.6c0,0.5,0.4,0.9,0.8,1.1c0.2,0.1,0.5,0.1,0.7,0.1
		c1,0,1.5-0.6,1.5-1.7v-2.3l0-2.2H73.1z M67.7,162.9c-0.5,0-1,0.3-1.3,0.7l0-0.6h-0.6v4.5h0.6V165c0-1,0.4-1.6,1.2-1.6
		c0.5,0,0.8,0.4,0.8,1v3H69v-3C69,163.5,68.5,162.9,67.7,162.9 M64.1,166.9h-1.2V163h-1.6v0.6h1v3.4h-1.2v0.6h3V166.9z M62.6,162.3
		c0.3,0,0.4-0.2,0.4-0.5c0-0.2-0.2-0.4-0.4-0.4c-0.3,0-0.4,0.2-0.4,0.4C62.1,162.1,62.3,162.3,62.6,162.3 M59.3,166.7
		c-0.2,0.1-0.6,0.2-0.8,0.2c-0.4,0-0.6-0.2-0.6-0.6v-2.7h1.3V163h-1.3v-1.5h-0.6v1.5h-1.1v0.5h1.1v2.7c0,0.7,0.4,1.2,1.2,1.2
		c0.3,0,0.7-0.1,0.9-0.2L59.3,166.7z M53.1,163.4c0.6,0,1,0.6,1,1.4H52C52.1,164,52.5,163.4,53.1,163.4 M53.1,162.9
		c-0.7,0-1.3,0.5-1.5,1.2c-0.1,0.4-0.2,0.7-0.2,1.2c0,0.8,0.2,1.6,0.8,2c0.3,0.2,0.6,0.3,1,0.3c0.8,0,1.4-0.6,1.6-1.5h-0.6
		c-0.1,0.6-0.5,0.9-1,0.9c-0.7,0-1.1-0.7-1.1-1.6h2.8C54.8,164,54.3,162.9,53.1,162.9 M48.4,163.4c0.6,0,1,0.6,1,1.4h-2.1
		C47.4,164,47.7,163.4,48.4,163.4 M48.4,162.9c-0.7,0-1.3,0.5-1.5,1.2c-0.1,0.4-0.2,0.7-0.2,1.2c0,0.8,0.2,1.6,0.8,2
		c0.3,0.2,0.6,0.3,1,0.3c0.8,0,1.4-0.6,1.6-1.5h-0.6c-0.1,0.6-0.5,0.9-1,0.9c-0.7,0-1.1-0.7-1.1-1.6H50
		C50,164,49.5,162.9,48.4,162.9 M44.6,162.9c-0.4,0-0.7,0.3-0.8,0.7c-0.1-0.4-0.3-0.7-0.7-0.7c-0.3,0-0.6,0.2-0.8,0.7l0-0.6h-0.5
		l0,4.5h0.6v-2.7c0-0.7,0.2-1.3,0.6-1.3c0.2,0,0.3,0.1,0.3,0.2c0,0.1,0.1,0.4,0.1,0.7v3.1h0.6v-2.7c0-0.8,0.1-1.3,0.6-1.3
		c0.3,0,0.4,0.3,0.4,0.8v3.3h0.6v-3.3C45.4,163.4,45.2,162.9,44.6,162.9"/>
	
		<path style="clip-path:url(#SVGID_00000169540592207250921460000014902492596011552922_);fill:none;stroke:#0B0B0A;stroke-width:0.15;" d="
		M134.4,162.9c-0.5,0-1,0.3-1.3,0.7l0-0.6v-1.8h-0.6v6.3h0.6V165c0-1,0.4-1.6,1.2-1.6c0.5,0,0.8,0.4,0.8,1v3h0.6v-3
		C135.7,163.5,135.2,162.9,134.4,162.9z M130.8,166.7c-0.2,0.1-0.6,0.2-0.8,0.2c-0.4,0-0.6-0.2-0.6-0.6v-2.7h1.4V163h-1.4v-1.5h-0.6
		v1.5h-1.1v0.5h1.1v2.7c0,0.7,0.4,1.2,1.2,1.2c0.3,0,0.7-0.1,0.9-0.2L130.8,166.7z M126.1,166.9H125V163h-1.6v0.6h1v3.4h-1.2v0.6h3
		V166.9z M124.6,162.3c0.3,0,0.4-0.2,0.4-0.5c0-0.2-0.2-0.4-0.4-0.4c-0.3,0-0.4,0.2-0.4,0.4C124.1,162.1,124.3,162.3,124.6,162.3z
		 M119.6,164.2l-0.6,2.2l-0.5-3.5h-0.6l0.7,4.5h0.6l0.7-2.4l0.7,2.4h0.6l0.7-4.5h-0.6l-0.5,3.5l-0.6-2.2H119.6z M111.3,162.9
		c-0.4,0-0.7,0.3-0.8,0.7c-0.1-0.4-0.3-0.7-0.7-0.7c-0.3,0-0.6,0.2-0.8,0.7l0-0.6h-0.5l0,4.5h0.6v-2.7c0-0.7,0.2-1.3,0.6-1.3
		c0.2,0,0.3,0.1,0.3,0.2c0,0.1,0.1,0.4,0.1,0.7v3.1h0.6v-2.7c0-0.8,0.1-1.3,0.6-1.3c0.3,0,0.4,0.3,0.4,0.8v3.3h0.6v-3.3
		C112.2,163.4,111.9,162.9,111.3,162.9z M105.6,167c0.8,0,1-0.8,1-1.8c0-1-0.3-1.8-1-1.8c-0.8,0-1,0.8-1,1.8
		C104.5,166.2,104.8,167,105.6,167z M105.6,162.9c0.7,0,1.2,0.5,1.5,1.2c0.1,0.4,0.2,0.7,0.2,1.1c0,1.3-0.5,2.3-1.6,2.3
		c-1.1,0-1.6-1-1.6-2.3C103.9,163.9,104.5,162.9,105.6,162.9z M100.8,167c0.8,0,1-0.8,1-1.8c0-1-0.3-1.8-1-1.8c-0.8,0-1,0.8-1,1.8
		C99.8,166.2,100,167,100.8,167z M100.8,162.9c0.7,0,1.2,0.5,1.5,1.2c0.1,0.4,0.2,0.7,0.2,1.1c0,1.3-0.5,2.3-1.6,2.3
		c-1.1,0-1.6-1-1.6-2.3C99.2,163.9,99.7,162.9,100.8,162.9z M97.7,166.9h-2.7l2.6-5.2v-0.6h-3.2v0.6l2.5,0l-2.6,5.1l0,0.6h3.3V166.9
		z M86.8,162.9c-0.5,0-1,0.3-1.3,0.7l0-0.6h-0.6v4.5h0.6V165c0-1,0.4-1.6,1.2-1.6c0.5,0,0.8,0.4,0.8,1v3h0.6v-3
		C88.1,163.5,87.6,162.9,86.8,162.9z M81.7,167c0.8,0,1-0.8,1-1.8c0-1-0.3-1.8-1-1.8c-0.8,0-1,0.8-1,1.8C80.7,166.2,81,167,81.7,167
		z M81.7,162.9c0.7,0,1.2,0.5,1.5,1.2c0.1,0.4,0.2,0.7,0.2,1.1c0,1.3-0.5,2.3-1.6,2.3c-1.1,0-1.6-1-1.6-2.3
		C80.1,163.9,80.6,162.9,81.7,162.9z M72.1,167c-0.7,0-1.1-0.8-1.1-1.8c0-1,0.3-1.8,1.1-1.8c0.7,0,1,0.7,1,1.8
		C73.1,166.3,72.7,167,72.1,167z M73.1,163v0.6c-0.2-0.4-0.6-0.7-1.1-0.7c-1,0-1.6,1-1.6,2.3c0,1.3,0.6,2.3,1.6,2.3
		c0.5,0,0.9-0.3,1.1-0.7v0.7c0,0.8-0.3,1.1-1,1.1c-0.4,0-0.9-0.2-0.9-0.7h-0.6c0,0.5,0.4,0.9,0.8,1.1c0.2,0.1,0.5,0.1,0.7,0.1
		c1,0,1.5-0.6,1.5-1.7v-2.3l0-2.2H73.1z M67.7,162.9c-0.5,0-1,0.3-1.3,0.7l0-0.6h-0.6v4.5h0.6V165c0-1,0.4-1.6,1.2-1.6
		c0.5,0,0.8,0.4,0.8,1v3H69v-3C69,163.5,68.5,162.9,67.7,162.9z M64.1,166.9h-1.2V163h-1.6v0.6h1v3.4h-1.2v0.6h3V166.9z M62.6,162.3
		c0.3,0,0.4-0.2,0.4-0.5c0-0.2-0.2-0.4-0.4-0.4c-0.3,0-0.4,0.2-0.4,0.4C62.1,162.1,62.3,162.3,62.6,162.3z M59.3,166.7
		c-0.2,0.1-0.6,0.2-0.8,0.2c-0.4,0-0.6-0.2-0.6-0.6v-2.7h1.3V163h-1.3v-1.5h-0.6v1.5h-1.1v0.5h1.1v2.7c0,0.7,0.4,1.2,1.2,1.2
		c0.3,0,0.7-0.1,0.9-0.2L59.3,166.7z M53.1,163.4c0.6,0,1,0.6,1,1.4H52C52.1,164,52.5,163.4,53.1,163.4z M53.1,162.9
		c-0.7,0-1.3,0.5-1.5,1.2c-0.1,0.4-0.2,0.7-0.2,1.2c0,0.8,0.2,1.6,0.8,2c0.3,0.2,0.6,0.3,1,0.3c0.8,0,1.4-0.6,1.6-1.5h-0.6
		c-0.1,0.6-0.5,0.9-1,0.9c-0.7,0-1.1-0.7-1.1-1.6h2.8C54.8,164,54.3,162.9,53.1,162.9z M48.4,163.4c0.6,0,1,0.6,1,1.4h-2.1
		C47.4,164,47.7,163.4,48.4,163.4z M48.4,162.9c-0.7,0-1.3,0.5-1.5,1.2c-0.1,0.4-0.2,0.7-0.2,1.2c0,0.8,0.2,1.6,0.8,2
		c0.3,0.2,0.6,0.3,1,0.3c0.8,0,1.4-0.6,1.6-1.5h-0.6c-0.1,0.6-0.5,0.9-1,0.9c-0.7,0-1.1-0.7-1.1-1.6H50
		C50,164,49.5,162.9,48.4,162.9z M44.6,162.9c-0.4,0-0.7,0.3-0.8,0.7c-0.1-0.4-0.3-0.7-0.7-0.7c-0.3,0-0.6,0.2-0.8,0.7l0-0.6h-0.5
		l0,4.5h0.6v-2.7c0-0.7,0.2-1.3,0.6-1.3c0.2,0,0.3,0.1,0.3,0.2c0,0.1,0.1,0.4,0.1,0.7v3.1h0.6v-2.7c0-0.8,0.1-1.3,0.6-1.3
		c0.3,0,0.4,0.3,0.4,0.8v3.3h0.6v-3.3C45.4,163.4,45.2,162.9,44.6,162.9z"/>
	<path style="clip-path:url(#SVGID_00000169540592207250921460000014902492596011552922_);fill:#0B0B0A;" d="M140,152.1
		c-0.4,0-0.7,0.3-0.8,0.7c-0.1-0.4-0.3-0.7-0.7-0.7c-0.3,0-0.6,0.2-0.8,0.7l0-0.6h-0.5l0,4.5h0.6V154c0-0.7,0.2-1.3,0.6-1.3
		c0.2,0,0.3,0.1,0.3,0.2c0,0.1,0.1,0.4,0.1,0.7v3.1h0.6V154c0-0.8,0.1-1.3,0.6-1.3c0.3,0,0.4,0.3,0.4,0.8v3.3h0.6v-3.3
		C140.8,152.6,140.6,152.1,140,152.1 M134,156.2c-0.5,0-0.8-0.3-0.8-0.7c0-0.7,0.8-1,1.7-1h0.4v0.3
		C135.2,155.6,134.7,156.2,134,156.2 M134.4,152.1c-0.8,0-1.4,0.5-1.5,1.3h0.6c0-0.5,0.5-0.8,0.9-0.8c0.5,0,0.8,0.3,0.8,1v0.3h-0.3
		c-1.3,0-2.3,0.4-2.3,1.5c0,0.8,0.6,1.3,1.4,1.3c0.5,0,1-0.3,1.3-0.8l0,0.7h0.6l0-3C135.8,152.7,135.3,152.1,134.4,152.1
		 M129.5,152.6c0.6,0,1,0.6,1,1.4h-2.1C128.4,153.2,128.8,152.6,129.5,152.6 M129.5,152.1c-0.7,0-1.3,0.5-1.5,1.2
		c-0.1,0.4-0.2,0.7-0.2,1.2c0,0.8,0.2,1.6,0.8,2c0.3,0.2,0.6,0.3,1,0.3c0.8,0,1.4-0.6,1.6-1.5h-0.6c-0.1,0.6-0.5,0.9-1,0.9
		c-0.7,0-1.1-0.7-1.1-1.6h2.8C131.1,153.2,130.6,152.1,129.5,152.1 M126.1,155.9c-0.2,0.1-0.6,0.2-0.8,0.2c-0.4,0-0.6-0.2-0.6-0.6
		v-2.7h1.4v-0.5h-1.4v-1.5h-0.6v1.5H123v0.5h1.1v2.7c0,0.7,0.4,1.2,1.2,1.2c0.3,0,0.7-0.1,0.9-0.2L126.1,155.9z M115.6,152.1
		c-0.5,0-0.9,0.2-1.1,0.7v-0.6h-0.6v4.5h0.6v-2.4c0-0.9,0.4-1.6,1-1.6c0.4,0,0.7,0.3,0.7,0.9h0.6
		C116.8,152.6,116.3,152.1,115.6,152.1 M111.3,154.6c0,1-0.4,1.6-1.2,1.6c-0.5,0-0.8-0.4-0.8-1v-3h-0.6v3c0,0.9,0.5,1.6,1.3,1.6
		c0.5,0,1-0.3,1.3-0.7l0,0.6h0.6v-4.5h-0.6V154.6z M105.6,156.2c0.8,0,1-0.8,1-1.8c0-1-0.3-1.8-1-1.8c-0.8,0-1,0.8-1,1.8
		C104.5,155.4,104.8,156.2,105.6,156.2 M105.6,152.1c0.7,0,1.2,0.5,1.5,1.2c0.1,0.4,0.2,0.7,0.2,1.1c0,1.3-0.5,2.3-1.6,2.3
		c-1.1,0-1.6-1-1.6-2.3C103.9,153.1,104.5,152.1,105.6,152.1 M101,152.1c-0.5,0-1,0.3-1.3,0.7l0-0.6v-1.8h-0.6v6.3h0.6v-2.4
		c0-1,0.4-1.6,1.2-1.6c0.5,0,0.8,0.4,0.8,1v3h0.6v-3C102.3,152.7,101.8,152.1,101,152.1 M91.3,152.6c0.6,0,1,0.6,1,1.4h-2.1
		C90.3,153.2,90.6,152.6,91.3,152.6 M91.3,152.1c-0.7,0-1.3,0.5-1.5,1.2c-0.1,0.4-0.2,0.7-0.2,1.2c0,0.8,0.2,1.6,0.8,2
		c0.3,0.2,0.6,0.3,1,0.3c0.8,0,1.4-0.6,1.6-1.5h-0.6c-0.1,0.6-0.5,0.9-1,0.9c-0.7,0-1.1-0.7-1.1-1.6h2.8
		C93,153.2,92.4,152.1,91.3,152.1 M86.8,152.1c-0.5,0-1,0.3-1.3,0.7l0-0.6h-0.6v4.5h0.6v-2.4c0-1,0.4-1.6,1.2-1.6
		c0.5,0,0.8,0.4,0.8,1v3h0.6v-3C88.1,152.7,87.6,152.1,86.8,152.1 M81.7,156.2c0.8,0,1-0.8,1-1.8c0-1-0.3-1.8-1-1.8
		c-0.8,0-1,0.8-1,1.8C80.7,155.4,81,156.2,81.7,156.2 M81.7,152.1c0.7,0,1.2,0.5,1.5,1.2c0.1,0.4,0.2,0.7,0.2,1.1
		c0,1.3-0.5,2.3-1.6,2.3c-1.1,0-1.6-1-1.6-2.3C80.1,153.1,80.6,152.1,81.7,152.1 M70.5,152.2l1.5,4.5l-0.5,1.6H72l2-6.1h-0.6
		l-1.1,3.7l-1.2-3.7H70.5z M68.9,156.1h-1.2v-5.2l0-0.6h-1.6v0.6h1v5.2h-1.3v0.6h3.1V156.1z M63.3,152.2l-1.7,2.1v-3.9H61v6.3h0.6
		v-1.5l0.6-0.7l1.4,2.2h0.7l-1.7-2.7l1.5-1.8H63.3z M57.9,152.6c0.6,0,1,0.6,1,1.4h-2.1C56.9,153.2,57.3,152.6,57.9,152.6
		 M57.9,152.1c-0.7,0-1.3,0.5-1.5,1.2c-0.1,0.4-0.2,0.7-0.2,1.2c0,0.8,0.2,1.6,0.8,2c0.3,0.2,0.6,0.3,1,0.3c0.8,0,1.4-0.6,1.6-1.5
		h-0.6c-0.1,0.6-0.5,0.9-1,0.9c-0.7,0-1.1-0.7-1.1-1.6h2.8C59.6,153.2,59,152.1,57.9,152.1 M53.1,152.6c0.6,0,1,0.6,1,1.4H52
		C52.1,153.2,52.5,152.6,53.1,152.6 M53.1,152.1c-0.7,0-1.3,0.5-1.5,1.2c-0.1,0.4-0.2,0.7-0.2,1.2c0,0.8,0.2,1.6,0.8,2
		c0.3,0.2,0.6,0.3,1,0.3c0.8,0,1.4-0.6,1.6-1.5h-0.6c-0.1,0.6-0.5,0.9-1,0.9c-0.7,0-1.1-0.7-1.1-1.6h2.8
		C54.8,153.2,54.3,152.1,53.1,152.1 M48.1,153.4l-0.6,2.2l-0.5-3.5h-0.6l0.7,4.5h0.6l0.7-2.4l0.7,2.4h0.6l0.7-4.5h-0.6l-0.5,3.5
		l-0.6-2.2H48.1z M39.6,154.5H38l0.8-3.3L39.6,154.5z M37.4,156.7l0.4-1.6h1.9l0.4,1.6h0.6l-1.6-6.3h-0.7l-1.6,6.3H37.4z"/>
	
		<path style="clip-path:url(#SVGID_00000169540592207250921460000014902492596011552922_);fill:none;stroke:#0B0B0A;stroke-width:0.15;" d="
		M140,152.1c-0.4,0-0.7,0.3-0.8,0.7c-0.1-0.4-0.3-0.7-0.7-0.7c-0.3,0-0.6,0.2-0.8,0.7l0-0.6h-0.5l0,4.5h0.6V154
		c0-0.7,0.2-1.3,0.6-1.3c0.2,0,0.3,0.1,0.3,0.2c0,0.1,0.1,0.4,0.1,0.7v3.1h0.6V154c0-0.8,0.1-1.3,0.6-1.3c0.3,0,0.4,0.3,0.4,0.8v3.3
		h0.6v-3.3C140.8,152.6,140.6,152.1,140,152.1z M134,156.2c-0.5,0-0.8-0.3-0.8-0.7c0-0.7,0.8-1,1.7-1h0.4v0.3
		C135.2,155.6,134.7,156.2,134,156.2z M134.4,152.1c-0.8,0-1.4,0.5-1.5,1.3h0.6c0-0.5,0.5-0.8,0.9-0.8c0.5,0,0.8,0.3,0.8,1v0.3h-0.3
		c-1.3,0-2.3,0.4-2.3,1.5c0,0.8,0.6,1.3,1.4,1.3c0.5,0,1-0.3,1.3-0.8l0,0.7h0.6l0-3C135.8,152.7,135.3,152.1,134.4,152.1z
		 M129.5,152.6c0.6,0,1,0.6,1,1.4h-2.1C128.4,153.2,128.8,152.6,129.5,152.6z M129.5,152.1c-0.7,0-1.3,0.5-1.5,1.2
		c-0.1,0.4-0.2,0.7-0.2,1.2c0,0.8,0.2,1.6,0.8,2c0.3,0.2,0.6,0.3,1,0.3c0.8,0,1.4-0.6,1.6-1.5h-0.6c-0.1,0.6-0.5,0.9-1,0.9
		c-0.7,0-1.1-0.7-1.1-1.6h2.8C131.1,153.2,130.6,152.1,129.5,152.1z M126.1,155.9c-0.2,0.1-0.6,0.2-0.8,0.2c-0.4,0-0.6-0.2-0.6-0.6
		v-2.7h1.4v-0.5h-1.4v-1.5h-0.6v1.5H123v0.5h1.1v2.7c0,0.7,0.4,1.2,1.2,1.2c0.3,0,0.7-0.1,0.9-0.2L126.1,155.9z M115.6,152.1
		c-0.5,0-0.9,0.2-1.1,0.7v-0.6h-0.6v4.5h0.6v-2.4c0-0.9,0.4-1.6,1-1.6c0.4,0,0.7,0.3,0.7,0.9h0.6
		C116.8,152.6,116.3,152.1,115.6,152.1z M111.3,154.6c0,1-0.4,1.6-1.2,1.6c-0.5,0-0.8-0.4-0.8-1v-3h-0.6v3c0,0.9,0.5,1.6,1.3,1.6
		c0.5,0,1-0.3,1.3-0.7l0,0.6h0.6v-4.5h-0.6V154.6z M105.6,156.2c0.8,0,1-0.8,1-1.8c0-1-0.3-1.8-1-1.8c-0.8,0-1,0.8-1,1.8
		C104.5,155.4,104.8,156.2,105.6,156.2z M105.6,152.1c0.7,0,1.2,0.5,1.5,1.2c0.1,0.4,0.2,0.7,0.2,1.1c0,1.3-0.5,2.3-1.6,2.3
		c-1.1,0-1.6-1-1.6-2.3C103.9,153.1,104.5,152.1,105.6,152.1z M101,152.1c-0.5,0-1,0.3-1.3,0.7l0-0.6v-1.8h-0.6v6.3h0.6v-2.4
		c0-1,0.4-1.6,1.2-1.6c0.5,0,0.8,0.4,0.8,1v3h0.6v-3C102.3,152.7,101.8,152.1,101,152.1z M91.3,152.6c0.6,0,1,0.6,1,1.4h-2.1
		C90.3,153.2,90.6,152.6,91.3,152.6z M91.3,152.1c-0.7,0-1.3,0.5-1.5,1.2c-0.1,0.4-0.2,0.7-0.2,1.2c0,0.8,0.2,1.6,0.8,2
		c0.3,0.2,0.6,0.3,1,0.3c0.8,0,1.4-0.6,1.6-1.5h-0.6c-0.1,0.6-0.5,0.9-1,0.9c-0.7,0-1.1-0.7-1.1-1.6h2.8
		C93,153.2,92.4,152.1,91.3,152.1z M86.8,152.1c-0.5,0-1,0.3-1.3,0.7l0-0.6h-0.6v4.5h0.6v-2.4c0-1,0.4-1.6,1.2-1.6
		c0.5,0,0.8,0.4,0.8,1v3h0.6v-3C88.1,152.7,87.6,152.1,86.8,152.1z M81.7,156.2c0.8,0,1-0.8,1-1.8c0-1-0.3-1.8-1-1.8
		c-0.8,0-1,0.8-1,1.8C80.7,155.4,81,156.2,81.7,156.2z M81.7,152.1c0.7,0,1.2,0.5,1.5,1.2c0.1,0.4,0.2,0.7,0.2,1.1
		c0,1.3-0.5,2.3-1.6,2.3c-1.1,0-1.6-1-1.6-2.3C80.1,153.1,80.6,152.1,81.7,152.1z M70.5,152.2l1.5,4.5l-0.5,1.6H72l2-6.1h-0.6
		l-1.1,3.7l-1.2-3.7H70.5z M68.9,156.1h-1.2v-5.2l0-0.6h-1.6v0.6h1v5.2h-1.3v0.6h3.1V156.1z M63.3,152.2l-1.7,2.1v-3.9H61v6.3h0.6
		v-1.5l0.6-0.7l1.4,2.2h0.7l-1.7-2.7l1.5-1.8H63.3z M57.9,152.6c0.6,0,1,0.6,1,1.4h-2.1C56.9,153.2,57.3,152.6,57.9,152.6z
		 M57.9,152.1c-0.7,0-1.3,0.5-1.5,1.2c-0.1,0.4-0.2,0.7-0.2,1.2c0,0.8,0.2,1.6,0.8,2c0.3,0.2,0.6,0.3,1,0.3c0.8,0,1.4-0.6,1.6-1.5
		h-0.6c-0.1,0.6-0.5,0.9-1,0.9c-0.7,0-1.1-0.7-1.1-1.6h2.8C59.6,153.2,59,152.1,57.9,152.1z M53.1,152.6c0.6,0,1,0.6,1,1.4H52
		C52.1,153.2,52.5,152.6,53.1,152.6z M53.1,152.1c-0.7,0-1.3,0.5-1.5,1.2c-0.1,0.4-0.2,0.7-0.2,1.2c0,0.8,0.2,1.6,0.8,2
		c0.3,0.2,0.6,0.3,1,0.3c0.8,0,1.4-0.6,1.6-1.5h-0.6c-0.1,0.6-0.5,0.9-1,0.9c-0.7,0-1.1-0.7-1.1-1.6h2.8
		C54.8,153.2,54.3,152.1,53.1,152.1z M48.1,153.4l-0.6,2.2l-0.5-3.5h-0.6l0.7,4.5h0.6l0.7-2.4l0.7,2.4h0.6l0.7-4.5h-0.6l-0.5,3.5
		l-0.6-2.2H48.1z M39.6,154.5H38l0.8-3.3L39.6,154.5z M37.4,156.7l0.4-1.6h1.9l0.4,1.6h0.6l-1.6-6.3h-0.7l-1.6,6.3H37.4z"/>
</g>
</svg>
