<?xml version="1.0" encoding="UTF-8"?><svg id="a" xmlns="http://www.w3.org/2000/svg" xmlns:xlink="http://www.w3.org/1999/xlink" viewBox="0 0 178.5 225"><defs><clipPath id="b"><rect x="1.49" y=".74" width="176.01" height="223.16" style="fill:none;"/></clipPath><clipPath id="c"><rect x="1.49" y=".74" width="176.01" height="223.16" style="fill:none;"/></clipPath><clipPath id="d"><rect x="1.49" y=".74" width="176.01" height="223.16" style="fill:none;"/></clipPath><clipPath id="e"><rect x="1.49" y=".74" width="176.01" height="223.16" style="fill:none;"/></clipPath><clipPath id="f"><rect x="1.49" y=".74" width="176.01" height="223.16" style="fill:none;"/></clipPath><clipPath id="g"><rect x="1.49" y=".74" width="176.01" height="223.16" style="fill:none;"/></clipPath><clipPath id="h"><rect x="1.49" y=".74" width="176.01" height="223.16" style="fill:none;"/></clipPath></defs><path d="m8.67,170.62h4.57v-.56h-4.57v.56Zm9.82,0h4.57v-.56h-4.57v.56Zm9.82,0h4.57v-.56h-4.57v.56Zm9.82,0h4.56v-.56h-4.56v.56Zm9.82,0h4.56v-.56h-4.56v.56Zm9.82,0h4.56v-.56h-4.56v.56Zm9.82,0h4.57v-.56h-4.57v.56Zm9.82,0h4.57v-.56h-4.57v.56Zm9.82,0h4.57v-.56h-4.57v.56Zm9.82,0h4.57v-.56h-4.57v.56Zm9.82,0h4.57v-.56h-4.57v.56Zm9.82,0h4.57v-.56h-4.57v.56Zm9.82,0h4.57v-.56h-4.57v.56Zm9.82,0h4.57v-.56h-4.57v.56Zm9.82,0h4.57v-.56h-4.57v.56Zm9.82,0h4.57v-.56h-4.57v.56Zm9.82,0h4.57v-.56h-4.57v.56Z" style="fill:#0d0d0b;"/><path d="m170.31,170.07h-4.57v.56h4.57v-.56Zm-9.82,0h-4.57v.56h4.57v-.56Zm-9.82,0h-4.57v.56h4.57v-.56Zm-9.82,0h-4.57v.56h4.57v-.56Zm-9.82,0h-4.57v.56h4.57v-.56Zm-9.82,0h-4.57v.56h4.57v-.56Zm-9.82,0h-4.57v.56h4.57v-.56Zm-9.82,0h-4.57v.56h4.57v-.56Zm-9.82,0h-4.57v.56h4.57v-.56Zm-9.82,0h-4.57v.56h4.57v-.56Zm-9.82,0h-4.57v.56h4.57v-.56Zm-9.82,0h-4.56v.56h4.56v-.56Zm-9.82,0h-4.56v.56h4.56v-.56Zm-9.82,0h-4.56v.56h4.56v-.56Zm-9.82,0h-4.57v.56h4.57v-.56Zm-9.82,0h-4.57v.56h4.57v-.56Zm-9.82,0h-4.57v.56h4.57v-.56Z" style="fill:none; stroke:#0d0d0b; stroke-width:.1px;"/><path d="m10.96,223.8h4.44v-.56h-4.44v.56Zm9.54,0h4.44v-.56h-4.44v.56Zm9.54,0h4.44v-.56h-4.44v.56Zm9.54,0h4.44v-.56h-4.44v.56Zm9.54,0h4.44v-.56h-4.44v.56Zm9.54,0h4.44v-.56h-4.44v.56Zm9.54,0h4.44v-.56h-4.44v.56Zm9.54,0h4.44v-.56h-4.44v.56Zm9.54,0h4.44v-.56h-4.44v.56Zm9.54,0h4.44v-.56h-4.44v.56Zm9.54,0h4.44v-.56h-4.44v.56Zm9.54,0h4.44v-.56h-4.44v.56Zm9.54,0h4.44v-.56h-4.44v.56Zm9.54,0h4.43v-.56h-4.43v.56Zm9.54,0h4.43v-.56h-4.43v.56Zm9.54,0h4.43v-.56h-4.43v.56Zm9.54,0h4.43v-.56h-4.43v.56Z" style="fill:#0d0d0b;"/><g style="clip-path:url(#b); fill:none;"><path d="m168.03,223.24h-4.44v.56h4.44v-.56Zm-9.54,0h-4.44v.56h4.44v-.56Zm-9.54,0h-4.44v.56h4.44v-.56Zm-9.54,0h-4.44v.56h4.44v-.56Zm-9.54,0h-4.44v.56h4.44v-.56Zm-9.54,0h-4.44v.56h4.44v-.56Zm-9.54,0h-4.44v.56h4.44v-.56Zm-9.54,0h-4.44v.56h4.44v-.56Zm-9.54,0h-4.44v.56h4.44v-.56Zm-9.54,0h-4.44v.56h4.44v-.56Zm-9.54,0h-4.44v.56h4.44v-.56Zm-9.54,0h-4.44v.56h4.44v-.56Zm-9.54,0h-4.44v.56h4.44v-.56Zm-9.54,0h-4.44v.56h4.44v-.56Zm-9.54,0h-4.44v.56h4.44v-.56Zm-9.54,0h-4.44v.56h4.44v-.56Zm-9.54,0h-4.44v.56h4.44v-.56Z" style="fill:none; stroke:#0d0d0b; stroke-width:.1px;"/></g><path d="m11.55,2.6h4.44v-.56h-4.44v.56Zm9.54,0h4.44v-.56h-4.44v.56Zm9.54,0h4.44v-.56h-4.44v.56Zm9.54,0h4.44v-.56h-4.44v.56Zm9.54,0h4.44v-.56h-4.44v.56Zm9.54,0h4.44v-.56h-4.44v.56Zm9.54,0h4.44v-.56h-4.44v.56Zm9.54,0h4.44v-.56h-4.44v.56Zm9.54,0h4.44v-.56h-4.44v.56Zm9.54,0h4.44v-.56h-4.44v.56Zm9.54,0h4.44v-.56h-4.44v.56Zm9.54,0h4.44v-.56h-4.44v.56Zm9.54,0h4.44v-.56h-4.44v.56Zm9.54,0h4.44v-.56h-4.44v.56Zm9.54,0h4.44v-.56h-4.44v.56Zm9.54,0h4.43v-.56h-4.43v.56Zm9.54,0h4.43v-.56h-4.43v.56Z" style="fill:#0d0d0b;"/><path d="m168.62,2.05h-4.44v.56h4.44v-.56Zm-9.54,0h-4.44v.56h4.44v-.56Zm-9.54,0h-4.44v.56h4.44v-.56Zm-9.54,0h-4.44v.56h4.44v-.56Zm-9.54,0h-4.44v.56h4.44v-.56Zm-9.54,0h-4.44v.56h4.44v-.56Zm-9.54,0h-4.44v.56h4.44v-.56Zm-9.54,0h-4.44v.56h4.44v-.56Zm-9.54,0h-4.44v.56h4.44v-.56Zm-9.54,0h-4.44v.56h4.44v-.56Zm-9.54,0h-4.44v.56h4.44v-.56Zm-9.54,0h-4.44v.56h4.44v-.56Zm-9.54,0h-4.44v.56h4.44v-.56Zm-9.54,0h-4.44v.56h4.44v-.56Zm-9.54,0h-4.44v.56h4.44v-.56Zm-9.54,0h-4.44v.56h4.44v-.56Zm-9.54,0h-4.44v.56h4.44v-.56Z" style="fill:none; stroke:#0d0d0b; stroke-width:.1px;"/><polygon points="2.84 220.72 3 222.08 1.77 221.53 1.56 222.16 2.91 222.4 1.96 223.4 2.48 223.79 3.18 222.61 3.85 223.8 4.38 223.4 3.45 222.42 4.8 222.19 4.59 221.54 3.34 222.08 3.5 220.72 2.84 220.72" style="fill:#0d0d0b;"/><g style="clip-path:url(#c); fill:none;"><polygon points="4.8 222.19 4.59 221.54 3.34 222.08 3.5 220.72 2.84 220.72 3 222.08 1.77 221.53 1.56 222.16 2.91 222.4 1.96 223.4 2.49 223.79 3.18 222.61 3.85 223.8 4.38 223.4 3.45 222.42 4.8 222.19" style="fill:none; stroke:#0d0d0b; stroke-width:.1px;"/></g><polygon points="2.84 .79 3 2.14 1.77 1.6 1.56 2.23 2.91 2.46 1.96 3.46 2.48 3.85 3.18 2.68 3.85 3.86 4.38 3.46 3.45 2.49 4.8 2.25 4.59 1.61 3.34 2.14 3.5 .79 2.84 .79" style="fill:#0d0d0b;"/><g style="clip-path:url(#d); fill:none;"><polygon points="4.8 2.25 4.59 1.6 3.34 2.14 3.5 .79 2.84 .79 3 2.14 1.77 1.6 1.56 2.23 2.91 2.46 1.96 3.46 2.49 3.85 3.18 2.68 3.85 3.86 4.38 3.46 3.45 2.49 4.8 2.25" style="fill:none; stroke:#0d0d0b; stroke-width:.1px;"/></g><polygon points="175.48 220.75 175.64 222.11 174.41 221.56 174.2 222.19 175.55 222.42 174.6 223.42 175.13 223.81 175.82 222.64 176.49 223.82 177.02 223.42 176.09 222.45 177.44 222.21 177.23 221.57 175.98 222.11 176.14 220.75 175.48 220.75" style="fill:#0d0d0b;"/><g style="clip-path:url(#e); fill:none;"><polygon points="177.44 222.21 177.23 221.57 175.98 222.11 176.14 220.75 175.48 220.75 175.64 222.11 174.41 221.56 174.2 222.19 175.55 222.42 174.6 223.42 175.13 223.81 175.82 222.64 176.49 223.82 177.02 223.42 176.09 222.45 177.44 222.21" style="fill:none; stroke:#0d0d0b; stroke-width:.1px;"/></g><polygon points="175.48 .82 175.64 2.18 174.41 1.63 174.2 2.26 175.55 2.5 174.6 3.5 175.13 3.89 175.82 2.71 176.49 3.9 177.02 3.5 176.09 2.52 177.44 2.29 177.23 1.64 175.98 2.18 176.14 .82 175.48 .82" style="fill:#0d0d0b;"/><polygon points="177.44 2.29 177.23 1.64 175.98 2.18 176.14 .82 175.48 .82 175.64 2.18 174.41 1.63 174.2 2.26 175.55 2.5 174.6 3.5 175.13 3.89 175.82 2.71 176.49 3.9 177.02 3.5 176.09 2.52 177.44 2.29" style="fill:none; stroke:#0d0d0b; stroke-width:.1px;"/><path d="m175.53,212.81h.56v-4.44h-.56v4.44Zm0-9.53h.56v-4.44h-.56v4.44Zm0-9.53h.56v-4.44h-.56v4.44Zm0-9.53h.56v-4.44h-.56v4.44Zm0-9.53h.56v-4.44h-.56v4.44Zm0-9.53h.56v-4.44h-.56v4.44Zm0-9.53h.56v-4.43h-.56v4.43Zm0-9.53h.56v-4.44h-.56v4.44Zm0-9.53h.56v-4.43h-.56v4.43Zm0-9.53h.56v-4.44h-.56v4.44Zm0-9.53h.56v-4.43h-.56v4.43Zm0-9.53h.56v-4.44h-.56v4.44Zm0-9.53h.56v-4.44h-.56v4.44Zm0-9.53h.56v-4.44h-.56v4.44Zm0-9.53h.56v-4.43h-.56v4.43Zm0-9.53h.56v-4.44h-.56v4.44Zm0-9.53h.56v-4.43h-.56v4.43Zm0-9.53h.56v-4.44h-.56v4.44Zm0-9.53h.56v-4.43h-.56v4.43Zm0-9.53h.56v-4.44h-.56v4.44Zm0-9.53h.56v-4.43h-.56v4.43Zm0-9.53h.56v-4.44h-.56v4.44Z" style="fill:#0d0d0b;"/><path d="m176.08,208.38h-.56v4.44h.56v-4.44Zm0-9.53h-.56v4.44h.56v-4.44Zm0-9.53h-.56v4.44h.56v-4.44Zm0-9.53h-.56v4.44h.56v-4.44Zm0-9.53h-.56v4.44h.56v-4.44Zm0-9.53h-.56v4.44h.56v-4.44Zm0-9.53h-.56v4.44h.56v-4.44Zm0-9.53h-.56v4.44h.56v-4.44Zm0-9.53h-.56v4.44h.56v-4.44Zm0-9.53h-.56v4.44h.56v-4.44Zm0-9.53h-.56v4.44h.56v-4.44Zm0-9.53h-.56v4.44h.56v-4.44Zm0-9.53h-.56v4.44h.56v-4.44Zm0-9.53h-.56v4.44h.56v-4.44Zm0-9.53h-.56v4.44h.56v-4.44Zm0-9.53h-.56v4.44h.56v-4.44Zm0-9.53h-.56v4.44h.56v-4.44Zm0-9.53h-.56v4.44h.56v-4.44Zm0-9.53h-.56v4.44h.56v-4.44Zm0-9.53h-.56v4.44h.56v-4.44Zm0-9.53h-.56v4.44h.56v-4.44Zm0-9.53h-.56v4.44h.56v-4.44Z" style="fill:none; stroke:#0d0d0b; stroke-width:.1px;"/><path d="m2.87,214.23h.56v-4.44h-.56v4.44Zm0-9.53h.56v-4.44h-.56v4.44Zm0-9.53h.56v-4.44h-.56v4.44Zm0-9.53h.56v-4.44h-.56v4.44Zm0-9.53h.56v-4.44h-.56v4.44Zm0-9.53h.56v-4.44h-.56v4.44Zm0-9.53h.56v-4.44h-.56v4.44Zm0-9.53h.56v-4.44h-.56v4.44Zm0-9.53h.56v-4.44h-.56v4.44Zm0-9.53h.56v-4.44h-.56v4.44Zm0-9.53h.56v-4.44h-.56v4.44Zm0-9.53h.56v-4.44h-.56v4.44Zm0-9.53h.56v-4.44h-.56v4.44Zm0-9.53h.56v-4.44h-.56v4.44Zm0-9.53h.56v-4.44h-.56v4.44Zm0-9.53h.56v-4.44h-.56v4.44Zm0-9.53h.56v-4.44h-.56v4.44Zm0-9.53h.56v-4.44h-.56v4.44Zm0-9.53h.56v-4.44h-.56v4.44Zm0-9.53h.56v-4.44h-.56v4.44Zm0-9.53h.56v-4.44h-.56v4.44Zm0-9.53h.56v-4.44h-.56v4.44Z" style="fill:#0d0d0b;"/><path d="m3.42,209.8h-.56v4.44h.56v-4.44Zm0-9.53h-.56v4.44h.56v-4.44Zm0-9.53h-.56v4.44h.56v-4.44Zm0-9.53h-.56v4.44h.56v-4.44Zm0-9.53h-.56v4.44h.56v-4.44Zm0-9.53h-.56v4.44h.56v-4.44Zm0-9.53h-.56v4.44h.56v-4.44Zm0-9.53h-.56v4.44h.56v-4.44Zm0-9.53h-.56v4.44h.56v-4.44Zm0-9.53h-.56v4.44h.56v-4.44Zm0-9.53h-.56v4.44h.56v-4.44Zm0-9.53h-.56v4.44h.56v-4.44Zm0-9.53h-.56v4.44h.56v-4.44Zm0-9.53h-.56v4.44h.56v-4.44Zm0-9.53h-.56v4.44h.56v-4.44Zm0-9.53h-.56v4.44h.56v-4.44Zm0-9.53h-.56v4.44h.56v-4.44Zm0-9.53h-.56v4.44h.56v-4.44Zm0-9.53h-.56v4.44h.56v-4.44Zm0-9.53h-.56v4.44h.56v-4.44Zm0-9.53h-.56v4.44h.56v-4.44Zm0-9.53h-.56v4.44h.56v-4.44Z" style="fill:none; stroke:#0d0d0b; stroke-width:.1px;"/><g style="clip-path:url(#f); fill:none;"><path d="m157.79,207.99c-.14-.8-.74-1.25-1.49-1.25s-1.43.47-1.43,1.16c0,.46.29.83.85,1.11l1.04.52c.32.17.52.32.52.68,0,.4-.42.66-.94.66s-.95-.26-1.1-.83h-.59c.17.85.86,1.39,1.69,1.39.53,0,1.03-.21,1.3-.57.14-.18.21-.39.21-.63,0-.58-.31-.93-.82-1.18l-1.04-.52c-.4-.19-.57-.34-.57-.62,0-.37.4-.6.86-.6.44,0,.78.22.9.69h.59Zm-5.6-1.16l-1.71,2.1v-3.9h-.58v6.3h.58v-1.51l.58-.7,1.4,2.21h.68l-1.71-2.66,1.5-1.84h-.73Zm-5.44.47c.62,0,.96.58,1.03,1.38h-2.13c.1-.79.46-1.38,1.11-1.38m0-.56c-.75,0-1.27.48-1.52,1.19-.12.35-.19.74-.19,1.15,0,.83.24,1.59.76,2.02.26.21.58.32.95.32.83,0,1.42-.59,1.56-1.49h-.59c-.13.62-.45.93-.96.93-.72,0-1.09-.74-1.12-1.63h2.76c.03-1.38-.49-2.49-1.64-2.49m-4.77.56c.62,0,.96.58,1.03,1.38h-2.13c.1-.79.46-1.38,1.11-1.38m0-.56c-.75,0-1.27.48-1.52,1.19-.12.35-.19.74-.19,1.15,0,.83.24,1.59.76,2.02.26.21.58.32.95.32.83,0,1.42-.59,1.56-1.49h-.59c-.13.62-.45.93-.96.93-.72,0-1.09-.74-1.12-1.63h2.76c.03-1.38-.49-2.49-1.64-2.49m-5.08,1.37l-.64,2.24-.5-3.52h-.58l.75,4.5h.58l.67-2.36.67,2.36h.59l.75-4.5h-.58l-.5,3.52-.64-2.24h-.56Zm-8.57.37c.5-.4.79-.68.98-1.11.1-.22.14-.46.14-.74,0-.6-.32-1.15-.85-1.46-.26-.15-.56-.23-.88-.23-1.07,0-1.82.78-1.94,1.92h.59c.11-.79.57-1.34,1.35-1.34.67,0,1.14.5,1.14,1.1,0,.74-.49,1.06-.9,1.39l-.94.75c-.86.68-1.18,1.36-1.24,2.55h3.61s0-.57,0-.57h-2.96c.11-.66.4-1.07.94-1.5l.95-.77Zm-3.7,2.29h-1.53v-5.74h-.57l-1.55,1.66.38.47,1.17-1.3v4.91h-1.53v.57h3.63v-.57Zm-10.79-4.02c-.46,0-.88.23-1.14.73v-.64h-.58v4.5h.58v-2.45c0-.9.4-1.58,1.03-1.58.44,0,.67.29.71.86h.58c-.04-.89-.5-1.42-1.19-1.42m-5.28,4.12c.76,0,1.03-.78,1.03-1.78s-.27-1.78-1.03-1.78-1.04.81-1.04,1.78.28,1.78,1.04,1.78m0-4.12c.75,0,1.23.49,1.46,1.2.11.35.16.74.16,1.14,0,1.32-.51,2.34-1.62,2.34s-1.62-1.02-1.62-2.34.53-2.34,1.62-2.34m-3.15-1.55c-.28-.14-.72-.22-1-.22-.76,0-1.21.46-1.21,1.21v.65h-1.14v.56h1.14v3.94h.58v-3.94h1.44v-.56h-1.44v-.65c0-.48.23-.65.67-.65.23,0,.58.1.83.22l.13-.56Zm-10.64,1.55c-.46,0-.88.23-1.14.73v-.64h-.58v4.5h.58v-2.45c0-.9.4-1.58,1.04-1.58.44,0,.67.29.71.86h.58c-.05-.89-.5-1.42-1.19-1.42m-5.26.56c.62,0,.96.58,1.03,1.38h-2.13c.1-.79.46-1.38,1.11-1.38m0-.56c-.75,0-1.27.48-1.52,1.19-.13.35-.19.74-.19,1.15,0,.83.24,1.59.75,2.02.26.21.58.32.95.32.83,0,1.42-.59,1.56-1.49h-.59c-.14.62-.45.93-.96.93-.72,0-1.09-.74-1.12-1.63h2.76c.03-1.38-.49-2.49-1.64-2.49m-5.07,1.37l-.64,2.24-.5-3.52h-.58l.75,4.5h.58l.67-2.36.67,2.36h.59l.75-4.5h-.58l-.49,3.52-.64-2.24h-.56Zm-4.49,2.75c.76,0,1.03-.78,1.03-1.78s-.27-1.78-1.03-1.78-1.04.81-1.04,1.78.28,1.78,1.04,1.78m0-4.12c.75,0,1.23.49,1.46,1.2.11.35.16.74.16,1.14,0,1.32-.51,2.34-1.62,2.34s-1.62-1.02-1.62-2.34.53-2.34,1.62-2.34m-3.01-1.15v-.56h-3.62v.56h1.52v5.74h.58v-5.74h1.51Zm-9.76,5.19h-1.23v-5.75s-1.56,0-1.56,0v.56h.98v5.19h-1.25v.56h3.07v-.56Zm-6.27-3.47c.62,0,.96.58,1.03,1.38h-2.13c.1-.79.46-1.38,1.11-1.38m0-.56c-.75,0-1.27.48-1.52,1.19-.13.35-.19.74-.19,1.15,0,.83.24,1.59.76,2.02.26.21.58.32.95.32.83,0,1.42-.59,1.56-1.49h-.59c-.14.62-.45.93-.96.93-.72,0-1.09-.74-1.12-1.63h2.76c.03-1.38-.49-2.49-1.64-2.49m-3.19-1.55c-.28-.14-.72-.22-1-.22-.76,0-1.2.46-1.2,1.21v.65h-1.14v.56h1.14v3.94h.58v-3.94h1.44v-.56h-1.44v-.65c0-.48.22-.65.67-.65.22,0,.58.1.83.22l.13-.56Zm-4.77,0c-.28-.14-.72-.22-1-.22-.76,0-1.2.46-1.2,1.21v.65h-1.14v.56h1.14v3.94h.58v-3.94h1.44v-.56h-1.44v-.65c0-.48.22-.65.67-.65.22,0,.58.1.83.22l.13-.56Zm-4.9,5.57h-1.19v-3.94h-1.56v.56h.98v3.39h-1.21v.56h2.98v-.56Zm-1.55-4.63c.25,0,.45-.21.45-.46s-.2-.45-.45-.45-.45.21-.45.45.2.46.45.46m-5.71-.55h2.56v-.56h-3.15v6.3h3.15v-.56h-2.56v-2.35h2.3v-.56h-2.3v-2.28Zm-8.51,1.71c.62,0,.96.58,1.03,1.38h-2.13c.1-.79.46-1.38,1.11-1.38m0-.56c-.75,0-1.27.48-1.52,1.19-.13.35-.19.74-.19,1.15,0,.83.24,1.59.75,2.02.26.21.58.32.96.32.83,0,1.42-.59,1.56-1.49h-.59c-.14.62-.45.93-.96.93-.72,0-1.09-.74-1.13-1.63h2.76c.03-1.38-.49-2.49-1.64-2.49m-4.6,0c-.54,0-1.02.26-1.27.74v-.65s0-1.8,0-1.8h-.59v6.3h.58v-2.45c0-.97.41-1.58,1.2-1.58.55,0,.78.39.78,1.01v3.02h.58v-3.02c0-.93-.46-1.57-1.3-1.57m-3.57,3.82c-.23.12-.58.22-.78.22-.42,0-.62-.17-.62-.65v-2.75h1.35v-.54h-1.35v-1.5h-.57v1.5h-1.08v.54h1.08v2.75c0,.75.42,1.2,1.15,1.2.25,0,.68-.08.94-.22l-.12-.56Z" style="fill:#0d0d0b;"/><path d="m157.79,207.99c-.14-.8-.74-1.25-1.49-1.25s-1.43.47-1.43,1.16c0,.46.29.83.85,1.11l1.04.52c.32.17.52.32.52.68,0,.4-.42.66-.94.66s-.95-.26-1.1-.83h-.59c.17.85.86,1.39,1.69,1.39.53,0,1.03-.21,1.3-.57.14-.18.21-.39.21-.63,0-.58-.31-.93-.82-1.18l-1.04-.52c-.4-.19-.57-.34-.57-.62,0-.37.4-.6.86-.6.44,0,.78.22.9.69h.59Zm-5.6-1.16l-1.71,2.1v-3.9h-.58v6.3h.58v-1.51l.58-.7,1.4,2.21h.68l-1.71-2.66,1.5-1.84h-.73Zm-5.44.47c.62,0,.96.58,1.03,1.38h-2.13c.1-.79.46-1.38,1.11-1.38Zm0-.56c-.75,0-1.27.48-1.52,1.19-.12.35-.19.74-.19,1.15,0,.83.24,1.59.76,2.02.26.21.58.32.95.32.83,0,1.42-.59,1.56-1.49h-.59c-.13.62-.45.93-.96.93-.72,0-1.09-.74-1.12-1.63h2.76c.03-1.38-.49-2.49-1.64-2.49Zm-4.77.56c.62,0,.96.58,1.03,1.38h-2.13c.1-.79.46-1.38,1.11-1.38Zm0-.56c-.75,0-1.27.48-1.52,1.19-.12.35-.19.74-.19,1.15,0,.83.24,1.59.76,2.02.26.21.58.32.95.32.83,0,1.42-.59,1.56-1.49h-.59c-.13.62-.45.93-.96.93-.72,0-1.09-.74-1.12-1.63h2.76c.03-1.38-.49-2.49-1.64-2.49Zm-5.08,1.37l-.64,2.24-.5-3.52h-.58l.75,4.5h.58l.67-2.36.67,2.36h.59l.75-4.5h-.58l-.5,3.52-.64-2.24h-.56Zm-8.57.37c.5-.4.79-.68.98-1.11.1-.22.14-.46.14-.74,0-.6-.32-1.15-.85-1.46-.26-.15-.56-.23-.88-.23-1.07,0-1.82.78-1.94,1.92h.59c.11-.79.57-1.34,1.35-1.34.67,0,1.14.5,1.14,1.1,0,.74-.49,1.06-.9,1.39l-.94.75c-.86.68-1.18,1.36-1.24,2.55h3.61s0-.57,0-.57h-2.96c.11-.66.4-1.07.94-1.5l.95-.77Zm-3.7,2.29h-1.53v-5.74h-.57l-1.55,1.66.38.47,1.17-1.3v4.91h-1.53v.57h3.63v-.57Zm-10.79-4.02c-.46,0-.88.23-1.14.73v-.64h-.58v4.5h.58v-2.45c0-.9.4-1.58,1.03-1.58.44,0,.67.29.71.86h.58c-.04-.89-.5-1.42-1.19-1.42Zm-5.28,4.12c.76,0,1.03-.78,1.03-1.78s-.27-1.78-1.03-1.78-1.04.81-1.04,1.78.28,1.78,1.04,1.78Zm0-4.12c.75,0,1.23.49,1.46,1.2.11.35.16.74.16,1.14,0,1.32-.51,2.34-1.62,2.34s-1.62-1.02-1.62-2.34.53-2.34,1.62-2.34Zm-3.15-1.55c-.28-.14-.72-.22-1-.22-.76,0-1.21.46-1.21,1.21v.65h-1.14v.56h1.14v3.94h.58v-3.94h1.44v-.56h-1.44v-.65c0-.48.23-.65.67-.65.23,0,.58.1.83.22l.13-.56Zm-10.64,1.55c-.46,0-.88.23-1.14.73v-.64h-.58v4.5h.58v-2.45c0-.9.4-1.58,1.04-1.58.44,0,.67.29.71.86h.58c-.05-.89-.5-1.42-1.19-1.42Zm-5.26.56c.62,0,.96.58,1.03,1.38h-2.13c.1-.79.46-1.38,1.11-1.38Zm0-.56c-.75,0-1.27.48-1.52,1.19-.13.35-.19.74-.19,1.15,0,.83.24,1.59.75,2.02.26.21.58.32.95.32.83,0,1.42-.59,1.56-1.49h-.59c-.14.62-.45.93-.96.93-.72,0-1.09-.74-1.12-1.63h2.76c.03-1.38-.49-2.49-1.64-2.49Zm-5.07,1.37l-.64,2.24-.5-3.52h-.58l.75,4.5h.58l.67-2.36.67,2.36h.59l.75-4.5h-.58l-.49,3.52-.64-2.24h-.56Zm-4.49,2.75c.76,0,1.03-.78,1.03-1.78s-.27-1.78-1.03-1.78-1.04.81-1.04,1.78.28,1.78,1.04,1.78Zm0-4.12c.75,0,1.23.49,1.46,1.2.11.35.16.74.16,1.14,0,1.32-.51,2.34-1.62,2.34s-1.62-1.02-1.62-2.34.53-2.34,1.62-2.34Zm-3.01-1.15v-.56h-3.62v.56h1.52v5.74h.58v-5.74h1.51Zm-9.76,5.19h-1.23v-5.75s-1.56,0-1.56,0v.56h.98v5.19h-1.25v.56h3.07v-.56Zm-6.27-3.47c.62,0,.96.58,1.03,1.38h-2.13c.1-.79.46-1.38,1.11-1.38Zm0-.56c-.75,0-1.27.48-1.52,1.19-.13.35-.19.74-.19,1.15,0,.83.24,1.59.76,2.02.26.21.58.32.95.32.83,0,1.42-.59,1.56-1.49h-.59c-.14.62-.45.93-.96.93-.72,0-1.09-.74-1.12-1.63h2.76c.03-1.38-.49-2.49-1.64-2.49Zm-3.19-1.55c-.28-.14-.72-.22-1-.22-.76,0-1.2.46-1.2,1.21v.65h-1.14v.56h1.14v3.94h.58v-3.94h1.44v-.56h-1.44v-.65c0-.48.22-.65.67-.65.22,0,.58.1.83.22l.13-.56Zm-4.77,0c-.28-.14-.72-.22-1-.22-.76,0-1.2.46-1.2,1.21v.65h-1.14v.56h1.14v3.94h.58v-3.94h1.44v-.56h-1.44v-.65c0-.48.22-.65.67-.65.22,0,.58.1.83.22l.13-.56Zm-4.9,5.57h-1.19v-3.94h-1.56v.56h.98v3.39h-1.21v.56h2.98v-.56Zm-1.55-4.63c.25,0,.45-.21.45-.46s-.2-.45-.45-.45-.45.21-.45.45.2.46.45.46Zm-5.71-.55h2.56v-.56h-3.15v6.3h3.15v-.56h-2.56v-2.35h2.3v-.56h-2.3v-2.28Zm-8.51,1.71c.62,0,.96.58,1.03,1.38h-2.13c.1-.79.46-1.38,1.11-1.38Zm0-.56c-.75,0-1.27.48-1.52,1.19-.13.35-.19.74-.19,1.15,0,.83.24,1.59.75,2.02.26.21.58.32.96.32.83,0,1.42-.59,1.56-1.49h-.59c-.14.62-.45.93-.96.93-.72,0-1.09-.74-1.13-1.63h2.76c.03-1.38-.49-2.49-1.64-2.49Zm-4.6,0c-.54,0-1.02.26-1.27.74v-.65s0-1.8,0-1.8h-.59v6.3h.58v-2.45c0-.97.41-1.58,1.2-1.58.55,0,.78.39.78,1.01v3.02h.58v-3.02c0-.93-.46-1.57-1.3-1.57Zm-3.57,3.82c-.23.12-.58.22-.78.22-.42,0-.62-.17-.62-.65v-2.75h1.35v-.54h-1.35v-1.5h-.57v1.5h-1.08v.54h1.08v2.75c0,.75.42,1.2,1.15,1.2.25,0,.68-.08.94-.22l-.12-.56Z" style="fill:none; stroke:#0d0d0b; stroke-width:.15px;"/><path d="m146.66,200.06c-.66,0-1.02-.66-1.02-1.77s.36-1.78,1.02-1.78c.75,0,1.08.77,1.08,1.78s-.33,1.77-1.08,1.77m.07-4.11c-.47,0-.86.29-1.07.72v-.63h-.57v6.3h.58v-2.4c.21.42.61.68,1.05.68,1.04,0,1.59-1,1.59-2.33s-.56-2.34-1.59-2.34m-3.8,2.54c0,.97-.41,1.58-1.2,1.58-.54,0-.78-.39-.78-1.01v-3.02h-.58v3.02c0,.93.46,1.57,1.3,1.57.54,0,1.01-.26,1.27-.74v.65s.59,0,.59,0v-4.5h-.58v2.45Zm-9.13,1.28c-.23.12-.58.22-.78.22-.42,0-.62-.17-.62-.65v-2.75h1.35v-.54h-1.35v-1.5h-.58v1.5h-1.08v.54h1.08v2.75c0,.75.42,1.2,1.15,1.2.25,0,.68-.08.95-.22l-.12-.56Zm-5.97-3.82c-.54,0-1.02.26-1.27.74v-.65s0-1.8,0-1.8h-.59v6.3h.58v-2.45c0-.97.41-1.58,1.2-1.58.55,0,.78.39.78,1.01v3.02h.58v-3.02c0-.93-.46-1.57-1.29-1.57m-5.08,4.12c-.75,0-1.08-.77-1.08-1.78s.33-1.77,1.08-1.77c.66,0,1.02.66,1.02,1.77s-.36,1.78-1.02,1.78m.98-4.03v.6c-.21-.42-.61-.68-1.05-.68-1.04,0-1.59,1-1.59,2.33s.56,2.34,1.59,2.34c.46,0,.86-.28,1.06-.71v.68c0,.76-.3,1.14-.95,1.14-.44,0-.86-.23-.95-.71h-.58c.04.53.4.93.85,1.12.23.1.45.14.68.14.98,0,1.54-.65,1.54-1.69v-4.56h-.59Zm-4.16,3.93h-1.19v-3.94h-1.56v.56h.98v3.39h-1.21v.56h2.98v-.56Zm-1.55-4.63c.25,0,.45-.21.45-.46s-.2-.45-.45-.45-.45.21-.45.45.2.46.45.46m-3.18,4.64h-1.23v-5.75s-1.57,0-1.57,0v.56h.98v5.19h-1.25v.56h3.07v-.56Zm-11.07.09c.75,0,1.02-.78,1.02-1.78s-.27-1.78-1.02-1.78-1.04.81-1.04,1.78.28,1.78,1.04,1.78m0-4.12c.75,0,1.23.49,1.46,1.2.11.35.16.74.16,1.14,0,1.32-.51,2.34-1.62,2.34s-1.62-1.02-1.62-2.34.53-2.34,1.62-2.34m-3.37,3.82c-.23.12-.58.22-.78.22-.42,0-.62-.17-.62-.65v-2.75h1.35v-.54h-1.35v-1.5h-.57v1.5h-1.08v.54h1.08v2.75c0,.75.42,1.2,1.15,1.2.25,0,.68-.08.94-.22l-.12-.56Zm-12.67-3.73l1.48,4.45-.54,1.62h.6l1.95-6.07h-.61l-1.12,3.65-1.15-3.65h-.61Zm-3.14,4.03c-.75,0-1.08-.77-1.08-1.78s.33-1.77,1.08-1.77c.66,0,1.02.66,1.02,1.77s-.36,1.78-1.02,1.78m.98-4.03v.6c-.21-.42-.61-.68-1.05-.68-1.04,0-1.59,1-1.59,2.33s.56,2.34,1.59,2.34c.46,0,.86-.28,1.06-.71v.68c0,.76-.3,1.14-.95,1.14-.44,0-.86-.23-.95-.71h-.58c.04.53.39.93.85,1.12.22.1.45.14.68.14.98,0,1.54-.65,1.54-1.69v-4.56h-.59Zm-5.13-.09c-.46,0-.88.23-1.14.73v-.64h-.58v4.5h.57v-2.45c0-.9.4-1.58,1.04-1.58.44,0,.67.29.71.86h.58c-.04-.89-.5-1.42-1.19-1.42m-5.26.56c.62,0,.96.58,1.03,1.38h-2.13c.1-.79.46-1.38,1.11-1.38m0-.56c-.75,0-1.27.48-1.52,1.19-.13.35-.19.74-.19,1.15,0,.83.24,1.59.75,2.02.26.22.58.32.96.32.83,0,1.42-.59,1.56-1.49h-.59c-.14.62-.45.93-.96.93-.72,0-1.09-.74-1.13-1.63h2.76c.03-1.38-.49-2.49-1.64-2.49m-4.53,0c-.54,0-1.01.26-1.27.74v-.65s-.59,0-.59,0v4.5h.58v-2.45c0-.97.42-1.58,1.2-1.58.55,0,.78.39.78,1.01v3.02h.58v-3.02c0-.93-.46-1.57-1.3-1.57m-5.01.56c.62,0,.96.58,1.03,1.38h-2.13c.1-.79.46-1.38,1.11-1.38m0-.56c-.75,0-1.27.48-1.52,1.19-.13.35-.19.74-.19,1.15,0,.83.24,1.59.76,2.02.26.22.58.32.95.32.83,0,1.42-.59,1.56-1.49h-.59c-.14.62-.45.93-.96.93-.72,0-1.09-.74-1.13-1.63h2.76c.03-1.38-.49-2.49-1.64-2.49m-9.37,0c-.54,0-1.02.26-1.27.74v-.65s0-1.8,0-1.8h-.59v6.3h.58v-2.45c0-.97.42-1.58,1.2-1.58.55,0,.78.39.78,1.01v3.02h.58v-3.02c0-.93-.46-1.57-1.29-1.57m-5.08,4.12c-.75,0-1.08-.77-1.08-1.78s.33-1.77,1.08-1.77c.66,0,1.02.66,1.02,1.77s-.36,1.78-1.02,1.78m.98-4.03v.6c-.21-.42-.61-.68-1.05-.68-1.04,0-1.59,1-1.59,2.33s.56,2.34,1.59,2.34c.46,0,.86-.28,1.06-.71v.68c0,.76-.3,1.14-.95,1.14-.44,0-.86-.23-.95-.71h-.58c.04.53.4.93.85,1.12.22.1.45.14.68.14.98,0,1.54-.65,1.54-1.69v-4.56h-.59Zm-4.66,2.45c0,.97-.42,1.58-1.2,1.58-.54,0-.78-.39-.78-1.01v-3.02h-.58v3.02c0,.93.46,1.57,1.3,1.57.54,0,1.01-.26,1.27-.74v.65s.59,0,.59,0v-4.5h-.58v2.45Zm-5.75,1.58c.76,0,1.03-.78,1.03-1.78s-.27-1.78-1.03-1.78-1.04.81-1.04,1.78.28,1.78,1.04,1.78m0-4.12c.75,0,1.23.49,1.46,1.2.11.35.16.74.16,1.14,0,1.32-.51,2.34-1.62,2.34s-1.62-1.02-1.62-2.34.53-2.34,1.62-2.34m-4.49,0c-.54,0-1.01.26-1.27.74v-.65s-.59,0-.59,0v4.5h.58v-2.45c0-.97.41-1.58,1.2-1.58.55,0,.78.39.78,1.01v3.02h.58v-3.02c0-.93-.46-1.57-1.3-1.57m-5.01.56c.62,0,.96.58,1.03,1.38h-2.14c.1-.79.46-1.38,1.11-1.38m0-.56c-.75,0-1.27.48-1.52,1.19-.13.35-.19.74-.19,1.15,0,.83.24,1.59.76,2.02.26.22.58.32.95.32.83,0,1.42-.59,1.56-1.49h-.59c-.14.62-.45.93-.96.93-.72,0-1.09-.74-1.13-1.63h2.76c.03-1.38-.49-2.49-1.64-2.49" style="fill:#0d0d0b;"/><path d="m146.66,200.06c-.66,0-1.02-.66-1.02-1.77s.36-1.78,1.02-1.78c.75,0,1.08.77,1.08,1.78s-.33,1.77-1.08,1.77Zm.07-4.11c-.47,0-.86.29-1.07.72v-.63h-.57v6.3h.58v-2.4c.21.42.61.68,1.05.68,1.04,0,1.59-1,1.59-2.33s-.56-2.34-1.59-2.34Zm-3.8,2.54c0,.97-.41,1.58-1.2,1.58-.54,0-.78-.39-.78-1.01v-3.02h-.58v3.02c0,.93.46,1.57,1.3,1.57.54,0,1.01-.26,1.27-.74v.65s.59,0,.59,0v-4.5h-.58v2.45Zm-9.13,1.28c-.23.12-.58.22-.78.22-.42,0-.62-.17-.62-.65v-2.75h1.35v-.54h-1.35v-1.5h-.58v1.5h-1.08v.54h1.08v2.75c0,.75.42,1.2,1.15,1.2.25,0,.68-.08.95-.22l-.12-.56Zm-5.97-3.82c-.54,0-1.02.26-1.27.74v-.65s0-1.8,0-1.8h-.59v6.3h.58v-2.45c0-.97.41-1.58,1.2-1.58.55,0,.78.39.78,1.01v3.02h.58v-3.02c0-.93-.46-1.57-1.29-1.57Zm-5.08,4.12c-.75,0-1.08-.77-1.08-1.78s.33-1.77,1.08-1.77c.66,0,1.02.66,1.02,1.77s-.36,1.78-1.02,1.78Zm.98-4.03v.6c-.21-.42-.61-.68-1.05-.68-1.04,0-1.59,1-1.59,2.33s.56,2.34,1.59,2.34c.46,0,.86-.28,1.06-.71v.68c0,.76-.3,1.14-.95,1.14-.44,0-.86-.23-.95-.71h-.58c.04.53.4.93.85,1.12.23.1.45.14.68.14.98,0,1.54-.65,1.54-1.69v-4.56h-.59Zm-4.16,3.93h-1.19v-3.94h-1.56v.56h.98v3.39h-1.21v.56h2.98v-.56Zm-1.55-4.63c.25,0,.45-.21.45-.46s-.2-.45-.45-.45-.45.21-.45.45.2.46.45.46Zm-3.18,4.64h-1.23v-5.75s-1.57,0-1.57,0v.56h.98v5.19h-1.25v.56h3.07v-.56Zm-11.07.09c.75,0,1.02-.78,1.02-1.78s-.27-1.78-1.02-1.78-1.04.81-1.04,1.78.28,1.78,1.04,1.78Zm0-4.12c.75,0,1.23.49,1.46,1.2.11.35.16.74.16,1.14,0,1.32-.51,2.34-1.62,2.34s-1.62-1.02-1.62-2.34.53-2.34,1.62-2.34Zm-3.37,3.82c-.23.12-.58.22-.78.22-.42,0-.62-.17-.62-.65v-2.75h1.35v-.54h-1.35v-1.5h-.57v1.5h-1.08v.54h1.08v2.75c0,.75.42,1.2,1.15,1.2.25,0,.68-.08.94-.22l-.12-.56Zm-12.67-3.73l1.48,4.45-.54,1.62h.6l1.95-6.07h-.61l-1.12,3.65-1.15-3.65h-.61Zm-3.14,4.03c-.75,0-1.08-.77-1.08-1.78s.33-1.77,1.08-1.77c.66,0,1.02.66,1.02,1.77s-.36,1.78-1.02,1.78Zm.98-4.03v.6c-.21-.42-.61-.68-1.05-.68-1.04,0-1.59,1-1.59,2.33s.56,2.34,1.59,2.34c.46,0,.86-.28,1.06-.71v.68c0,.76-.3,1.14-.95,1.14-.44,0-.86-.23-.95-.71h-.58c.04.53.39.93.85,1.12.22.1.45.14.68.14.98,0,1.54-.65,1.54-1.69v-4.56h-.59Zm-5.13-.09c-.46,0-.88.23-1.14.73v-.64h-.58v4.5h.57v-2.45c0-.9.4-1.58,1.04-1.58.44,0,.67.29.71.86h.58c-.04-.89-.5-1.42-1.19-1.42Zm-5.26.56c.62,0,.96.58,1.03,1.38h-2.13c.1-.79.46-1.38,1.11-1.38Zm0-.56c-.75,0-1.27.48-1.52,1.19-.13.35-.19.74-.19,1.15,0,.83.24,1.59.75,2.02.26.22.58.32.96.32.83,0,1.42-.59,1.56-1.49h-.59c-.14.62-.45.93-.96.93-.72,0-1.09-.74-1.13-1.63h2.76c.03-1.38-.49-2.49-1.64-2.49Zm-4.53,0c-.54,0-1.01.26-1.27.74v-.65s-.59,0-.59,0v4.5h.58v-2.45c0-.97.42-1.58,1.2-1.58.55,0,.78.39.78,1.01v3.02h.58v-3.02c0-.93-.46-1.57-1.3-1.57Zm-5.01.56c.62,0,.96.58,1.03,1.38h-2.13c.1-.79.46-1.38,1.11-1.38Zm0-.56c-.75,0-1.27.48-1.52,1.19-.13.35-.19.74-.19,1.15,0,.83.24,1.59.76,2.02.26.22.58.32.95.32.83,0,1.42-.59,1.56-1.49h-.59c-.14.62-.45.93-.96.93-.72,0-1.09-.74-1.13-1.63h2.76c.03-1.38-.49-2.49-1.64-2.49Zm-9.37,0c-.54,0-1.02.26-1.27.74v-.65s0-1.8,0-1.8h-.59v6.3h.58v-2.45c0-.97.42-1.58,1.2-1.58.55,0,.78.39.78,1.01v3.02h.58v-3.02c0-.93-.46-1.57-1.29-1.57Zm-5.08,4.12c-.75,0-1.08-.77-1.08-1.78s.33-1.77,1.08-1.77c.66,0,1.02.66,1.02,1.77s-.36,1.78-1.02,1.78Zm.98-4.03v.6c-.21-.42-.61-.68-1.05-.68-1.04,0-1.59,1-1.59,2.33s.56,2.34,1.59,2.34c.46,0,.86-.28,1.06-.71v.68c0,.76-.3,1.14-.95,1.14-.44,0-.86-.23-.95-.71h-.58c.04.53.4.93.85,1.12.22.1.45.14.68.14.98,0,1.54-.65,1.54-1.69v-4.56h-.59Zm-4.66,2.45c0,.97-.42,1.58-1.2,1.58-.54,0-.78-.39-.78-1.01v-3.02h-.58v3.02c0,.93.46,1.57,1.3,1.57.54,0,1.01-.26,1.27-.74v.65s.59,0,.59,0v-4.5h-.58v2.45Zm-5.75,1.58c.76,0,1.03-.78,1.03-1.78s-.27-1.78-1.03-1.78-1.04.81-1.04,1.78.28,1.78,1.04,1.78Zm0-4.12c.75,0,1.23.49,1.46,1.2.11.35.16.74.16,1.14,0,1.32-.51,2.34-1.62,2.34s-1.62-1.02-1.62-2.34.53-2.34,1.62-2.34Zm-4.49,0c-.54,0-1.01.26-1.27.74v-.65s-.59,0-.59,0v4.5h.58v-2.45c0-.97.41-1.58,1.2-1.58.55,0,.78.39.78,1.01v3.02h.58v-3.02c0-.93-.46-1.57-1.3-1.57Zm-5.01.56c.62,0,.96.58,1.03,1.38h-2.14c.1-.79.46-1.38,1.11-1.38Zm0-.56c-.75,0-1.27.48-1.52,1.19-.13.35-.19.74-.19,1.15,0,.83.24,1.59.76,2.02.26.22.58.32.95.32.83,0,1.42-.59,1.56-1.49h-.59c-.14.62-.45.93-.96.93-.72,0-1.09-.74-1.13-1.63h2.76c.03-1.38-.49-2.49-1.64-2.49Z" style="fill:none; stroke:#0d0d0b; stroke-width:.15px;"/><path d="m158.68,185.7c.62,0,.96.59,1.03,1.38h-2.13c.1-.79.46-1.38,1.11-1.38m0-.56c-.75,0-1.27.48-1.52,1.19-.12.35-.19.74-.19,1.15,0,.83.24,1.58.76,2.02.26.22.58.32.95.32.83,0,1.42-.59,1.56-1.49h-.59c-.14.62-.45.93-.96.93-.72,0-1.09-.74-1.12-1.63h2.76c.03-1.38-.49-2.49-1.64-2.49m-3.8,0c-.36,0-.66.25-.85.73-.07-.44-.29-.73-.69-.73-.33,0-.64.23-.79.7l-.04-.6h-.49l-.02,4.5h.57v-2.7c0-.69.16-1.34.63-1.34.17,0,.28.07.33.21.04.14.07.38.07.7v3.13h.58v-2.7c0-.79.09-1.34.58-1.34.33,0,.39.26.39.76v3.28h.57v-3.3c0-.75-.24-1.29-.85-1.29m-4.79,2.55c0,.97-.41,1.58-1.2,1.58-.54,0-.78-.39-.78-1.01v-3.02h-.58v3.02c0,.93.46,1.56,1.29,1.56.54,0,1.01-.26,1.27-.74v.65s.59,0,.59,0v-4.5h-.58v2.45Zm-4.23-1.29c-.14-.8-.74-1.25-1.49-1.25s-1.43.47-1.43,1.16c0,.46.29.83.85,1.11l1.04.52c.32.17.52.32.52.67,0,.4-.42.66-.94.66s-.95-.26-1.1-.83h-.59c.17.85.86,1.38,1.69,1.38.53,0,1.03-.21,1.3-.57.14-.18.21-.39.21-.63,0-.58-.31-.93-.82-1.18l-1.04-.52c-.4-.19-.57-.34-.57-.62,0-.37.4-.6.86-.6.44,0,.78.22.9.69h.59Zm-6.02-1.25c-.54,0-1.01.26-1.27.74v-.65s-.59,0-.59,0v4.5h.58v-2.45c0-.97.41-1.58,1.2-1.58.55,0,.78.39.78,1.01v3.02h.58v-3.02c0-.93-.46-1.57-1.3-1.57m-5.04,4.12c.76,0,1.03-.78,1.03-1.78s-.27-1.78-1.03-1.78-1.04.81-1.04,1.78.28,1.78,1.04,1.78m0-4.12c.75,0,1.23.49,1.46,1.2.11.35.16.74.16,1.14,0,1.32-.51,2.34-1.62,2.34s-1.62-1.02-1.62-2.34.53-2.34,1.62-2.34m-4.66,4.12c-.75,0-1.12-.79-1.12-1.77s.38-1.76,1.12-1.76c.51,0,.81.36.89.96h.59c-.11-.94-.66-1.52-1.49-1.52-.72,0-1.25.44-1.51,1.15-.13.35-.2.75-.2,1.17h0c0,.87.27,1.6.78,2.02.26.21.57.31.93.31.82,0,1.38-.58,1.49-1.52h-.59c-.08.6-.39.96-.89.96m-8.12-2.87c-.14-.8-.74-1.25-1.49-1.25s-1.43.47-1.43,1.16c0,.46.29.83.85,1.11l1.04.52c.32.17.52.32.52.67,0,.4-.42.66-.94.66s-.94-.26-1.1-.83h-.59c.17.85.86,1.38,1.69,1.38.53,0,1.03-.21,1.31-.57.14-.18.21-.39.21-.63,0-.58-.31-.93-.82-1.18l-1.04-.52c-.4-.19-.57-.34-.57-.62,0-.37.4-.6.86-.6.44,0,.78.22.9.69h.59Zm-6.26-.69c.62,0,.96.59,1.03,1.38h-2.13c.1-.79.46-1.38,1.11-1.38m0-.56c-.75,0-1.27.48-1.52,1.19-.13.35-.19.74-.19,1.15,0,.83.24,1.58.75,2.02.26.22.58.32.95.32.83,0,1.42-.59,1.56-1.49h-.59c-.14.62-.45.93-.96.93-.72,0-1.09-.74-1.12-1.63h2.76c.03-1.38-.49-2.49-1.64-2.49m-4.8,1.83l-.97-1.74h-.65l1.32,2.24-1.33,2.26h.65l.98-1.76.98,1.76h.65l-1.33-2.26,1.32-2.24h-.65l-.97,1.74Zm-4.77,2.29c.76,0,1.03-.78,1.03-1.78s-.27-1.78-1.03-1.78-1.04.81-1.04,1.78.28,1.78,1.04,1.78m0-4.12c.75,0,1.23.49,1.46,1.2.11.35.16.74.16,1.14,0,1.32-.51,2.34-1.62,2.34s-1.62-1.02-1.62-2.34.53-2.34,1.62-2.34m-4.82,4.12c-.66,0-1.02-.67-1.02-1.78s.36-1.77,1.02-1.77c.75,0,1.08.76,1.08,1.77s-.33,1.78-1.08,1.78m.07-4.11c-.44,0-.85.26-1.05.68v-2.4h-.58v6.3h.56v-.63c.22.43.61.72,1.08.72,1.03,0,1.59-1.01,1.59-2.34s-.56-2.33-1.59-2.33m-4.51,0c-.54,0-1.02.26-1.27.74v-.65s-.59,0-.59,0v4.5h.58v-2.45c0-.97.41-1.58,1.2-1.58.55,0,.78.39.78,1.01v3.02h.58v-3.02c0-.93-.46-1.57-1.29-1.57m-3.56,4.02h-1.19v-3.94h-1.57v.56h.98v3.38h-1.21v.56h2.98v-.56Zm-1.55-4.63c.25,0,.45-.21.45-.46s-.2-.45-.45-.45-.45.21-.45.45.2.46.45.46m-7.95,4.64h-1.23v-5.75s-1.57,0-1.57,0v.56h.98v5.19h-1.25v.56h3.07v-.56Zm-4.82,0h-1.19v-3.94h-1.56v.56h.98v3.38h-1.21v.56h2.98v-.56Zm-1.55-4.63c.25,0,.45-.21.45-.46s-.2-.45-.45-.45-.45.21-.45.45.2.46.45.46m-4.91,4.74c-.5,0-.83-.27-.83-.74,0-.68.8-.96,1.7-.96h.36v.25c0,.82-.48,1.45-1.23,1.45m.42-4.13c-.77,0-1.41.49-1.51,1.35h.59c.05-.51.45-.79.92-.79.51,0,.81.33.81,1.03v.31h-.31c-1.31,0-2.33.44-2.33,1.51,0,.78.59,1.28,1.38,1.28.48,0,1.04-.28,1.25-.76l.02.67h.57v-3.01c0-1.01-.52-1.58-1.38-1.58m-3.24-1.71h-.66l-1.09,3.16-1.09-3.17h-.68v6.31h.6l-.02-4.96.9,2.62h.58l.88-2.62v4.96h.59v-6.3Zm-10.09,3.16c0,1.63-.41,2.66-1.22,2.66s-1.21-.97-1.21-2.66.41-2.64,1.21-2.64,1.22.98,1.22,2.64m.6,0c0-2.03-.59-3.24-1.82-3.24s-1.79,1.21-1.79,3.24.58,3.24,1.79,3.24c1.23,0,1.82-1.22,1.82-3.24m-5.37,0c0,1.63-.41,2.66-1.22,2.66s-1.21-.97-1.21-2.66.4-2.64,1.21-2.64,1.22.98,1.22,2.64m.6,0c0-2.03-.59-3.24-1.82-3.24s-1.79,1.21-1.79,3.24.58,3.24,1.79,3.24c1.22,0,1.82-1.22,1.82-3.24m-5.37,0c0,1.63-.41,2.66-1.22,2.66s-1.21-.97-1.21-2.66.4-2.64,1.21-2.64,1.22.98,1.22,2.64m.6,0c0-2.03-.59-3.24-1.82-3.24s-1.79,1.21-1.79,3.24.58,3.24,1.79,3.24c1.22,0,1.82-1.22,1.82-3.24m-6.9,2.05h.72l-.76,2.17h-.52l.56-2.17Zm-3.24-2.05c0,1.63-.41,2.66-1.22,2.66s-1.21-.97-1.21-2.66.41-2.64,1.21-2.64,1.22.98,1.22,2.64m.6,0c0-2.03-.59-3.24-1.82-3.24s-1.79,1.21-1.79,3.24.58,3.24,1.79,3.24c1.22,0,1.82-1.22,1.82-3.24m-5.37,0c0,1.63-.41,2.66-1.22,2.66s-1.21-.97-1.21-2.66.41-2.64,1.21-2.64,1.22.98,1.22,2.64m.6,0c0-2.03-.59-3.24-1.82-3.24s-1.79,1.21-1.79,3.24.57,3.24,1.79,3.24c1.22,0,1.82-1.22,1.82-3.24m-5.37,0c0,1.63-.41,2.66-1.22,2.66s-1.21-.97-1.21-2.66.41-2.64,1.21-2.64,1.22.98,1.22,2.64m.6,0c0-2.03-.59-3.24-1.82-3.24s-1.79,1.21-1.79,3.24.57,3.24,1.79,3.24c1.22,0,1.82-1.22,1.82-3.24m-6.9,2.05h.72l-.75,2.17h-.52l.56-2.17Zm-2.66.52h-1.53v-5.74h-.57l-1.55,1.66.38.47,1.17-1.3v4.91h-1.53v.57h3.63v-.57Z" style="fill:#0d0d0b;"/><path d="m158.68,185.7c.62,0,.96.59,1.03,1.38h-2.13c.1-.79.46-1.38,1.11-1.38Zm0-.56c-.75,0-1.27.48-1.52,1.19-.12.35-.19.74-.19,1.15,0,.83.24,1.58.76,2.02.26.22.58.32.95.32.83,0,1.42-.59,1.56-1.49h-.59c-.14.62-.45.93-.96.93-.72,0-1.09-.74-1.12-1.63h2.76c.03-1.38-.49-2.49-1.64-2.49Zm-3.8,0c-.36,0-.66.25-.85.73-.07-.44-.29-.73-.69-.73-.33,0-.64.23-.79.7l-.04-.6h-.49l-.02,4.5h.57v-2.7c0-.69.16-1.34.63-1.34.17,0,.28.07.33.21.04.14.07.38.07.7v3.13h.58v-2.7c0-.79.09-1.34.58-1.34.33,0,.39.26.39.76v3.28h.57v-3.3c0-.75-.24-1.29-.85-1.29Zm-4.79,2.55c0,.97-.41,1.58-1.2,1.58-.54,0-.78-.39-.78-1.01v-3.02h-.58v3.02c0,.93.46,1.56,1.29,1.56.54,0,1.01-.26,1.27-.74v.65s.59,0,.59,0v-4.5h-.58v2.45Zm-4.23-1.29c-.14-.8-.74-1.25-1.49-1.25s-1.43.47-1.43,1.16c0,.46.29.83.85,1.11l1.04.52c.32.17.52.32.52.67,0,.4-.42.66-.94.66s-.95-.26-1.1-.83h-.59c.17.85.86,1.38,1.69,1.38.53,0,1.03-.21,1.3-.57.14-.18.21-.39.21-.63,0-.58-.31-.93-.82-1.18l-1.04-.52c-.4-.19-.57-.34-.57-.62,0-.37.4-.6.86-.6.44,0,.78.22.9.69h.59Zm-6.02-1.25c-.54,0-1.01.26-1.27.74v-.65s-.59,0-.59,0v4.5h.58v-2.45c0-.97.41-1.58,1.2-1.58.55,0,.78.39.78,1.01v3.02h.58v-3.02c0-.93-.46-1.57-1.3-1.57Zm-5.04,4.12c.76,0,1.03-.78,1.03-1.78s-.27-1.78-1.03-1.78-1.04.81-1.04,1.78.28,1.78,1.04,1.78Zm0-4.12c.75,0,1.23.49,1.46,1.2.11.35.16.74.16,1.14,0,1.32-.51,2.34-1.62,2.34s-1.62-1.02-1.62-2.34.53-2.34,1.62-2.34Zm-4.66,4.12c-.75,0-1.12-.79-1.12-1.77s.38-1.76,1.12-1.76c.51,0,.81.36.89.96h.59c-.11-.94-.66-1.52-1.49-1.52-.72,0-1.25.44-1.51,1.15-.13.35-.2.75-.2,1.17h0c0,.87.27,1.6.78,2.02.26.21.57.31.93.31.82,0,1.38-.58,1.49-1.52h-.59c-.08.6-.39.96-.89.96Zm-8.12-2.87c-.14-.8-.74-1.25-1.49-1.25s-1.43.47-1.43,1.16c0,.46.29.83.85,1.11l1.04.52c.32.17.52.32.52.67,0,.4-.42.66-.94.66s-.94-.26-1.1-.83h-.59c.17.85.86,1.38,1.69,1.38.53,0,1.03-.21,1.31-.57.14-.18.21-.39.21-.63,0-.58-.31-.93-.82-1.18l-1.04-.52c-.4-.19-.57-.34-.57-.62,0-.37.4-.6.86-.6.44,0,.78.22.9.69h.59Zm-6.26-.69c.62,0,.96.59,1.03,1.38h-2.13c.1-.79.46-1.38,1.11-1.38Zm0-.56c-.75,0-1.27.48-1.52,1.19-.13.35-.19.74-.19,1.15,0,.83.24,1.58.75,2.02.26.22.58.32.95.32.83,0,1.42-.59,1.56-1.49h-.59c-.14.62-.45.93-.96.93-.72,0-1.09-.74-1.12-1.63h2.76c.03-1.38-.49-2.49-1.64-2.49Zm-4.8,1.83l-.97-1.74h-.65l1.32,2.24-1.33,2.26h.65l.98-1.76.98,1.76h.65l-1.33-2.26,1.32-2.24h-.65l-.97,1.74Zm-4.77,2.29c.76,0,1.03-.78,1.03-1.78s-.27-1.78-1.03-1.78-1.04.81-1.04,1.78.28,1.78,1.04,1.78Zm0-4.12c.75,0,1.23.49,1.46,1.2.11.35.16.74.16,1.14,0,1.32-.51,2.34-1.62,2.34s-1.62-1.02-1.62-2.34.53-2.34,1.62-2.34Zm-4.82,4.12c-.66,0-1.02-.67-1.02-1.78s.36-1.77,1.02-1.77c.75,0,1.08.76,1.08,1.77s-.33,1.78-1.08,1.78Zm.07-4.11c-.44,0-.85.26-1.05.68v-2.4h-.58v6.3h.56v-.63c.22.43.61.72,1.08.72,1.03,0,1.59-1.01,1.59-2.34s-.56-2.33-1.59-2.33Zm-4.51,0c-.54,0-1.02.26-1.27.74v-.65s-.59,0-.59,0v4.5h.58v-2.45c0-.97.41-1.58,1.2-1.58.55,0,.78.39.78,1.01v3.02h.58v-3.02c0-.93-.46-1.57-1.29-1.57Zm-3.56,4.02h-1.19v-3.94h-1.57v.56h.98v3.38h-1.21v.56h2.98v-.56Zm-1.55-4.63c.25,0,.45-.21.45-.46s-.2-.45-.45-.45-.45.21-.45.45.2.46.45.46Zm-7.95,4.64h-1.23v-5.75s-1.57,0-1.57,0v.56h.98v5.19h-1.25v.56h3.07v-.56Zm-4.82,0h-1.19v-3.94h-1.56v.56h.98v3.38h-1.21v.56h2.98v-.56Zm-1.55-4.63c.25,0,.45-.21.45-.46s-.2-.45-.45-.45-.45.21-.45.45.2.46.45.46Zm-4.91,4.74c-.5,0-.83-.27-.83-.74,0-.68.8-.96,1.7-.96h.36v.25c0,.82-.48,1.45-1.23,1.45Zm.42-4.13c-.77,0-1.41.49-1.51,1.35h.59c.05-.51.45-.79.92-.79.51,0,.81.33.81,1.03v.31h-.31c-1.31,0-2.33.44-2.33,1.51,0,.78.59,1.28,1.38,1.28.48,0,1.04-.28,1.25-.76l.02.67h.57v-3.01c0-1.01-.52-1.58-1.38-1.58Zm-3.24-1.71h-.66l-1.09,3.16-1.09-3.17h-.68v6.31h.6l-.02-4.96.9,2.62h.58l.88-2.62v4.96h.59v-6.3Zm-10.09,3.16c0,1.63-.41,2.66-1.22,2.66s-1.21-.97-1.21-2.66.41-2.64,1.21-2.64,1.22.98,1.22,2.64Zm.6,0c0-2.03-.59-3.24-1.82-3.24s-1.79,1.21-1.79,3.24.58,3.24,1.79,3.24c1.23,0,1.82-1.22,1.82-3.24Zm-5.37,0c0,1.63-.41,2.66-1.22,2.66s-1.21-.97-1.21-2.66.4-2.64,1.21-2.64,1.22.98,1.22,2.64Zm.6,0c0-2.03-.59-3.24-1.82-3.24s-1.79,1.21-1.79,3.24.58,3.24,1.79,3.24c1.22,0,1.82-1.22,1.82-3.24Zm-5.37,0c0,1.63-.41,2.66-1.22,2.66s-1.21-.97-1.21-2.66.4-2.64,1.21-2.64,1.22.98,1.22,2.64Zm.6,0c0-2.03-.59-3.24-1.82-3.24s-1.79,1.21-1.79,3.24.58,3.24,1.79,3.24c1.22,0,1.82-1.22,1.82-3.24Zm-6.9,2.05h.72l-.76,2.17h-.52l.56-2.17Zm-3.24-2.05c0,1.63-.41,2.66-1.22,2.66s-1.21-.97-1.21-2.66.41-2.64,1.21-2.64,1.22.98,1.22,2.64Zm.6,0c0-2.03-.59-3.24-1.82-3.24s-1.79,1.21-1.79,3.24.58,3.24,1.79,3.24c1.22,0,1.82-1.22,1.82-3.24Zm-5.37,0c0,1.63-.41,2.66-1.22,2.66s-1.21-.97-1.21-2.66.41-2.64,1.21-2.64,1.22.98,1.22,2.64Zm.6,0c0-2.03-.59-3.24-1.82-3.24s-1.79,1.21-1.79,3.24.57,3.24,1.79,3.24c1.22,0,1.82-1.22,1.82-3.24Zm-5.37,0c0,1.63-.41,2.66-1.22,2.66s-1.21-.97-1.21-2.66.41-2.64,1.21-2.64,1.22.98,1.22,2.64Zm.6,0c0-2.03-.59-3.24-1.82-3.24s-1.79,1.21-1.79,3.24.57,3.24,1.79,3.24c1.22,0,1.82-1.22,1.82-3.24Zm-6.9,2.05h.72l-.75,2.17h-.52l.56-2.17Zm-2.66.52h-1.53v-5.74h-.57l-1.55,1.66.38.47,1.17-1.3v4.91h-1.53v.57h3.63v-.57Z" style="fill:none; stroke:#0d0d0b; stroke-width:.15px;"/></g><path d="m114.06,154.64h.59v-6.93s-.59,0-.59,0v6.93Zm-6.72-.63h4.48v-.54h-4.48s0,.54,0,.54Zm-4.77,0h4.48v-.54h-4.48s0,.54,0,.54Zm-2.83.63h.59v-6.93s-.59,0-.59,0v6.93Zm-28.62,0h.59v-6.93s-.59,0-.59,0v6.93Zm-6.71-.63h4.48v-.54h-4.48s0,.54,0,.54Zm-4.77,0h4.48v-.54h-4.48s0,.54,0,.54Zm-2.82.63h.59v-6.93s-.59,0-.59,0v6.93Z" style="fill:#0d0d0b;"/><path d="m114.06,154.64h.59v-6.93s-.59,0-.59,0v6.93Zm-6.72-.63h4.48v-.54h-4.48s0,.54,0,.54Zm-4.77,0h4.48v-.54h-4.48s0,.54,0,.54Zm-2.83.63h.59v-6.93s-.59,0-.59,0v6.93Zm-28.62,0h.59v-6.93s-.59,0-.59,0v6.93Zm-6.71-.63h4.48v-.54h-4.48s0,.54,0,.54Zm-4.77,0h4.48v-.54h-4.48s0,.54,0,.54Zm-2.82.63h.59v-6.93s-.59,0-.59,0v6.93Z" style="fill:none; stroke:#0d0d0b; stroke-width:.15px;"/><path d="m104.18,126.12l1.86,6.31h-.62l-1.85-6.31h.61Zm-2.16,4.48h-3.95v.58h3.95v-.58Zm0-1.93h-3.95v.58h3.95v-.58Zm-4.77,1.93h-3.95v.58h3.95v-.58Zm0-1.93h-3.95v.58h3.95v-.58Zm-4.77,1.93h-3.95v.58h3.95v-.58Zm0-1.93h-3.95v.58h3.95v-.58Zm-4.77,1.93h-3.95v.58h3.95v-.58Zm0-1.93h-3.95v.58h3.95v-.58Zm-4.77,1.93h-3.95v.58h3.95v-.58Zm0-1.93h-3.95v.58h3.95v-.58Zm-4.77,1.93h-3.95v.58h3.95v-.58Zm0-1.93h-3.95v.58h3.95v-.58Zm-4.77,1.93h-3.95v.58h3.95v-.58Zm0-1.93h-3.95v.58h3.95v-.58Zm-7.37,3.75h-.62l1.86-6.31h.61l-1.85,6.31Z" style="fill:#0d0d0b;"/><path d="m104.18,126.12l1.86,6.31h-.62l-1.85-6.31h.61Zm-2.16,4.48h-3.95v.58h3.95v-.58Zm0-1.93h-3.95v.58h3.95v-.58Zm-4.77,1.93h-3.95v.58h3.95v-.58Zm0-1.93h-3.95v.58h3.95v-.58Zm-4.77,1.93h-3.95v.58h3.95v-.58Zm0-1.93h-3.95v.58h3.95v-.58Zm-4.77,1.93h-3.95v.58h3.95v-.58Zm0-1.93h-3.95v.58h3.95v-.58Zm-4.77,1.93h-3.95v.58h3.95v-.58Zm0-1.93h-3.95v.58h3.95v-.58Zm-4.77,1.93h-3.95v.58h3.95v-.58Zm0-1.93h-3.95v.58h3.95v-.58Zm-4.77,1.93h-3.95v.58h3.95v-.58Zm0-1.93h-3.95v.58h3.95v-.58Zm-7.37,3.75h-.62l1.86-6.31h.61l-1.85,6.31Z" style="fill:none; stroke:#0d0d0b; stroke-width:.15px;"/><path d="m99.41,115.32l1.86,6.31h-.62l-1.85-6.31h.61Zm-4.77,0l1.86,6.31h-.62l-1.85-6.31h.61Zm-6.38,6.3h4.48v-.54h-4.48s0,.54,0,.54Zm-4.77,0h4.48v-.54h-4.48s0,.54,0,.54Zm-4.77,0h4.48v-.54h-4.48s0,.54,0,.54Zm-3.15,0h-.62l1.86-6.31h.61l-1.85,6.31Zm-4.77,0h-.62l1.86-6.31h.61l-1.85,6.31Z" style="fill:#0d0d0b;"/><path d="m99.41,115.32l1.86,6.31h-.62l-1.85-6.31h.61Zm-4.77,0l1.86,6.31h-.62l-1.85-6.31h.61Zm-6.38,6.3h4.48v-.54h-4.48s0,.54,0,.54Zm-4.77,0h4.48v-.54h-4.48s0,.54,0,.54Zm-4.77,0h4.48v-.54h-4.48s0,.54,0,.54Zm-3.15,0h-.62l1.86-6.31h.61l-1.85,6.31Zm-4.77,0h-.62l1.86-6.31h.61l-1.85,6.31Z" style="fill:none; stroke:#0d0d0b; stroke-width:.15px;"/><path d="m94.64,104.52l1.86,6.31h-.62l-1.85-6.31h.61Zm-6.38,6.3h4.48v-.54h-4.48s0,.54,0,.54Zm-4.77,0h4.48v-.54h-4.48s0,.54,0,.54Zm-4.77,0h4.48v-.54h-4.48s0,.54,0,.54Zm-3.15,0h-.62l1.86-6.31h.61l-1.85,6.31Z" style="fill:#0d0d0b;"/><path d="m94.64,104.52l1.86,6.31h-.62l-1.85-6.31h.61Zm-6.38,6.3h4.48v-.54h-4.48s0,.54,0,.54Zm-4.77,0h4.48v-.54h-4.48s0,.54,0,.54Zm-4.77,0h4.48v-.54h-4.48s0,.54,0,.54Zm-3.15,0h-.62l1.86-6.31h.61l-1.85,6.31Z" style="fill:none; stroke:#0d0d0b; stroke-width:.15px;"/><path d="m94.98,100.64h.59v-6.93s-.59,0-.59,0v6.93Zm-2.49-2.45h-3.95v.58h3.95v-.58Zm0-1.93h-3.95v.58h3.95v-.58Zm-4.77,1.93h-3.95v.58h3.95v-.58Zm0-1.93h-3.95v.58h3.95v-.58Zm-4.77,1.93h-3.95v.58h3.95v-.58Zm0-1.93h-3.95v.58h3.95v-.58Zm-7.04,4.37h.59v-6.93s-.59,0-.59,0v6.93Z" style="fill:#0d0d0b;"/><path d="m94.98,100.64h.59v-6.93s-.59,0-.59,0v6.93Zm-2.49-2.45h-3.95v.58h3.95v-.58Zm0-1.93h-3.95v.58h3.95v-.58Zm-4.77,1.93h-3.95v.58h3.95v-.58Zm0-1.93h-3.95v.58h3.95v-.58Zm-4.77,1.93h-3.95v.58h3.95v-.58Zm0-1.93h-3.95v.58h3.95v-.58Zm-7.04,4.37h.59v-6.93s-.59,0-.59,0v6.93Z" style="fill:none; stroke:#0d0d0b; stroke-width:.15px;"/><path d="m96.89,84.38l-.21-.65-1.25.54.16-1.36h-.67l.16,1.36-1.23-.55-.21.63,1.35.23-.94,1,.52.4.69-1.18.67,1.19.53-.4-.94-.97,1.35-.23Zm-6.68,5.46h.59v-6.93s-.59,0-.59,0v6.93Zm-6.72-.63h4.48v-.54h-4.48s0,.54,0,.54Zm-2.82.63h.59v-6.93s-.59,0-.59,0v6.93Zm-2.85-5.46l-.21-.65-1.25.54.16-1.36h-.67l.16,1.36-1.23-.55-.21.63,1.35.23-.94,1,.52.4.69-1.18.67,1.19.53-.4-.94-.97,1.35-.23Z" style="fill:#0d0d0b;"/><path d="m96.89,84.38l-.21-.65-1.25.54.16-1.36h-.67l.16,1.36-1.23-.55-.21.63,1.35.23-.94,1,.52.4.69-1.18.67,1.19.53-.4-.94-.97,1.35-.23Zm-6.68,5.46h.59v-6.93s-.59,0-.59,0v6.93Zm-6.72-.63h4.48v-.54h-4.48s0,.54,0,.54Zm-2.82.63h.59v-6.93s-.59,0-.59,0v6.93Zm-2.85-5.46l-.21-.65-1.25.54.16-1.36h-.67l.16,1.36-1.23-.55-.21.63,1.35.23-.94,1,.52.4.69-1.18.67,1.19.53-.4-.94-.97,1.35-.23Z" style="fill:none; stroke:#0d0d0b; stroke-width:.15px;"/><path d="m90.21,79.04h.59v-6.93s-.59,0-.59,0v6.93Zm-4.77,0h.59v-6.93s-.59,0-.59,0v6.93Zm-4.77,0h.59v-6.93s-.59,0-.59,0v6.93Z" style="fill:#0d0d0b;"/><path d="m90.21,79.04h.59v-6.93s-.59,0-.59,0v6.93Zm-4.77,0h.59v-6.93s-.59,0-.59,0v6.93Zm-4.77,0h.59v-6.93s-.59,0-.59,0v6.93Z" style="fill:none; stroke:#0d0d0b; stroke-width:.15px;"/><path d="m90.21,68.24h.59v-6.93s-.59,0-.59,0v6.93Zm-4.77,0h.59v-6.93s-.59,0-.59,0v6.93Zm-4.77,0h.59v-6.93s-.59,0-.59,0v6.93Z" style="fill:#0d0d0b;"/><path d="m90.21,68.24h.59v-6.93s-.59,0-.59,0v6.93Zm-4.77,0h.59v-6.93s-.59,0-.59,0v6.93Zm-4.77,0h.59v-6.93s-.59,0-.59,0v6.93Z" style="fill:none; stroke:#0d0d0b; stroke-width:.15px;"/><path d="m90.21,57.44h.59v-6.93s-.59,0-.59,0v6.93Zm-4.77,0h.59v-6.93s-.59,0-.59,0v6.93Zm-4.77,0h.59v-6.93s-.59,0-.59,0v6.93Z" style="fill:#0d0d0b;"/><path d="m90.21,57.44h.59v-6.93s-.59,0-.59,0v6.93Zm-4.77,0h.59v-6.93s-.59,0-.59,0v6.93Zm-4.77,0h.59v-6.93s-.59,0-.59,0v6.93Z" style="fill:none; stroke:#0d0d0b; stroke-width:.15px;"/><path d="m90.21,46.64h.59v-6.93s-.59,0-.59,0v6.93Zm-4.77,0h.59v-6.93s-.59,0-.59,0v6.93Zm-4.77,0h.59v-6.93s-.59,0-.59,0v6.93Z" style="fill:#0d0d0b;"/><path d="m90.21,46.64h.59v-6.93s-.59,0-.59,0v6.93Zm-4.77,0h.59v-6.93s-.59,0-.59,0v6.93Zm-4.77,0h.59v-6.93s-.59,0-.59,0v6.93Z" style="fill:none; stroke:#0d0d0b; stroke-width:.15px;"/><path d="m90.21,35.84h.59v-6.93s-.59,0-.59,0v6.93Zm-4.77,0h.59v-6.93s-.59,0-.59,0v6.93Zm-4.77,0h.59v-6.93s-.59,0-.59,0v6.93Z" style="fill:#0d0d0b;"/><path d="m90.21,35.84h.59v-6.93s-.59,0-.59,0v6.93Zm-4.77,0h.59v-6.93s-.59,0-.59,0v6.93Zm-4.77,0h.59v-6.93s-.59,0-.59,0v6.93Z" style="fill:none; stroke:#0d0d0b; stroke-width:.15px;"/><g style="clip-path:url(#g); fill:none;"><path d="m89.84,24.48c.29,0,.55-.25.55-.54s-.26-.55-.55-.55-.54.25-.54.55.25.54.54.54m-5.01.57h.59v-6.93s-.59,0-.59,0v6.93Zm-4.53-.57c.29,0,.55-.25.55-.54s-.26-.55-.55-.55-.54.25-.54.55.25.54.54.54" style="fill:#0d0d0b;"/><path d="m89.84,24.48c.29,0,.55-.25.55-.54s-.26-.55-.55-.55-.54.25-.54.55.25.54.54.54Zm-5.01.57h.59v-6.93s-.59,0-.59,0v6.93Zm-4.53-.57c.29,0,.55-.25.55-.54s-.26-.55-.55-.55-.54.25-.54.55.25.54.54.54Z" style="fill:none; stroke:#0d0d0b; stroke-width:.15px;"/></g><polygon points="98.35 11.06 98.15 10.41 96.89 10.95 97.06 9.59 96.39 9.59 96.55 10.95 95.32 10.4 95.11 11.03 96.46 11.27 95.52 12.27 96.04 12.66 96.73 11.48 97.41 12.67 97.94 12.27 97 11.29 98.35 11.06" style="fill:#0d0d0b;"/><polygon points="98.35 11.06 98.15 10.41 96.89 10.95 97.06 9.59 96.39 9.59 96.55 10.95 95.32 10.4 95.11 11.03 96.46 11.27 95.52 12.27 96.04 12.66 96.73 11.48 97.41 12.67 97.94 12.27 97 11.29 98.35 11.06" style="fill:none; stroke:#0d0d0b; stroke-width:.15px;"/><polygon points="61.35 45.11 61.15 44.46 59.89 45 60.06 43.65 59.39 43.65 59.55 45 58.32 44.46 58.11 45.09 59.46 45.32 58.52 46.32 59.04 46.71 59.73 45.54 60.41 46.72 60.94 46.32 60 45.35 61.35 45.11" style="fill:#0d0d0b;"/><polygon points="61.35 45.11 61.15 44.46 59.89 45 60.06 43.65 59.39 43.65 59.55 45 58.32 44.46 58.11 45.09 59.46 45.32 58.52 46.32 59.04 46.71 59.73 45.54 60.41 46.72 60.94 46.32 60 45.35 61.35 45.11" style="fill:none; stroke:#0d0d0b; stroke-width:.15px;"/><polygon points="123.35 126.51 123.15 125.86 121.89 126.4 122.06 125.05 121.39 125.05 121.55 126.4 120.32 125.86 120.11 126.49 121.46 126.72 120.52 127.72 121.04 128.11 121.73 126.94 122.41 128.12 122.94 127.72 122 126.75 123.35 126.51" style="fill:#0d0d0b;"/><polygon points="123.35 126.51 123.15 125.86 121.89 126.4 122.06 125.05 121.39 125.05 121.55 126.4 120.32 125.86 120.11 126.49 121.46 126.72 120.52 127.72 121.04 128.11 121.73 126.94 122.41 128.12 122.94 127.72 122 126.75 123.35 126.51" style="fill:none; stroke:#0d0d0b; stroke-width:.15px;"/><polygon points="103.52 55.33 103.52 62.26 104.11 62.26 104.12 55.33 103.52 55.33" style="fill:#0d0d0b;"/><polygon points="103.52 62.26 104.11 62.26 104.12 55.33 103.52 55.33 103.52 62.26" style="fill:none; stroke:#0d0d0b; stroke-width:.15px;"/><path d="m97.54,48.83h3.02v-.54h-3.02v.54Zm9.54,0h3.02v-.54h-3.02v.54Z" style="fill:#0d0d0b;"/><path d="m107.08,48.83h3.02v-.54h-3.02v.54Zm-9.54,0h3.02v-.54h-3.02v.54Z" style="fill:none; stroke:#0d0d0b; stroke-width:.15px;"/><polygon points="103.52 35.33 103.52 42.26 104.11 42.26 104.12 35.33 103.52 35.33" style="fill:#0d0d0b;"/><polygon points="103.52 42.26 104.11 42.26 104.12 35.33 103.52 35.33 103.52 42.26" style="fill:none; stroke:#0d0d0b; stroke-width:.15px;"/><polygon points="105.67 48.8 105.46 48.15 104.21 48.69 104.37 47.33 103.71 47.33 103.87 48.69 102.64 48.14 102.43 48.77 103.78 49.01 102.84 50.01 103.36 50.4 104.05 49.22 104.72 50.41 105.26 50.01 104.32 49.03 105.67 48.8" style="fill:#0d0d0b;"/><polygon points="105.67 48.8 105.46 48.15 104.21 48.69 104.37 47.33 103.71 47.33 103.87 48.69 102.64 48.14 102.43 48.77 103.78 49.01 102.84 50.01 103.36 50.4 104.05 49.22 104.72 50.41 105.26 50.01 104.32 49.03 105.67 48.8" style="fill:none; stroke:#0d0d0b; stroke-width:.15px;"/><g style="clip-path:url(#h); fill:none;"><path d="m101.37,145.4c.24.16.6.09.76-.15.16-.25.09-.6-.15-.76-.24-.16-.59-.09-.75.16-.16.24-.09.59.15.75m-4.21-5.45l-.24.48,2.71,1.35.24-.48-2.71-1.35Zm-4.9-1.75l-.16.51,2.89.89.16-.51-2.89-.89Zm-5.13-.91l-.07.53,3,.38.07-.54-3-.38Zm-5.2.02l.02.54,3.02-.11-.02-.54-3.02.11Zm-5.2,1.08l.13.52,2.93-.73-.13-.52-2.93.73Zm-4.85,1.92l.22.49,2.76-1.23-.22-.49-2.76,1.22Zm-1.77,4.11c.24-.16.32-.51.17-.75-.16-.25-.52-.32-.76-.16-.24.16-.32.5-.16.75.16.24.5.32.75.16" style="fill:#0d0d0b;"/><path d="m101.37,145.4c.24.16.6.09.76-.15.16-.25.09-.6-.15-.76-.24-.16-.59-.09-.75.16-.16.24-.09.59.15.75Zm-4.21-5.45l-.24.48,2.71,1.35.24-.48-2.71-1.35Zm-4.9-1.75l-.16.51,2.89.89.16-.51-2.89-.89Zm-5.13-.91l-.07.53,3,.38.07-.54-3-.38Zm-5.2.02l.02.54,3.02-.11-.02-.54-3.02.11Zm-5.2,1.08l.13.52,2.93-.73-.13-.52-2.93.73Zm-4.85,1.92l.22.49,2.76-1.23-.22-.49-2.76,1.22Zm-1.77,4.11c.24-.16.32-.51.17-.75-.16-.25-.52-.32-.76-.16-.24.16-.32.5-.16.75.16.24.5.32.75.16Z" style="fill:none; stroke:#0d0d0b; stroke-width:.15px;"/></g><polygon points="60.08 137.87 60.08 144.8 60.66 144.8 60.67 137.87 60.08 137.87" style="fill:#0d0d0b;"/><polygon points="60.08 144.8 60.66 144.8 60.67 137.87 60.08 137.87 60.08 144.8" style="fill:none; stroke:#0d0d0b; stroke-width:.15px;"/><polygon points="110.81 137.19 110.81 144.12 111.4 144.12 111.41 137.19 110.81 137.19" style="fill:#0d0d0b;"/><polygon points="110.81 144.12 111.4 144.12 111.41 137.19 110.81 137.19 110.81 144.12" style="fill:none; stroke:#0d0d0b; stroke-width:.15px;"/></svg>