<?xml version="1.0" encoding="utf-8"?>
<!-- Generator: Adobe Illustrator 27.6.1, SVG Export Plug-In . SVG Version: 6.00 Build 0)  -->
<svg version="1.1" id="a" xmlns="http://www.w3.org/2000/svg" xmlns:xlink="http://www.w3.org/1999/xlink" x="0px" y="0px"
	 viewBox="0 0 178.5 225" style="enable-background:new 0 0 178.5 225;" xml:space="preserve">
<style type="text/css">
	.st0{fill:#0B0B0A;}
	.st1{fill:none;stroke:#0B0B0A;stroke-width:0.15;}
	.st2{clip-path:url(#SVGID_00000065766428173555315660000004607510796099549832_);fill:none;stroke:#0B0B0A;stroke-width:0.15;}
	.st3{clip-path:url(#SVGID_00000062184806862393776530000004436243266571872415_);fill:none;stroke:#0B0B0A;stroke-width:0.15;}
	.st4{clip-path:url(#SVGID_00000051362256472453145790000002214292808284216758_);fill:none;stroke:#0B0B0A;stroke-width:0.15;}
	.st5{clip-path:url(#SVGID_00000103248296329647175760000017511844001416766395_);fill:none;stroke:#0B0B0A;stroke-width:0.15;}
	.st6{clip-path:url(#SVGID_00000015332531124375634970000005968428840779825306_);fill:#0B0B0A;}
	.st7{clip-path:url(#SVGID_00000015332531124375634970000005968428840779825306_);fill:none;stroke:#0B0B0A;stroke-width:0.15;}
</style>
<path class="st0" d="M9,170.5h4.6v-0.6H9V170.5z M18.9,170.5h4.6v-0.6h-4.6V170.5z M28.7,170.5h4.6v-0.6h-4.6V170.5z M38.5,170.5
	h4.6v-0.6h-4.6V170.5z M48.3,170.5h4.6v-0.6h-4.6V170.5z M58.1,170.5h4.6v-0.6h-4.6V170.5z M68,170.5h4.6v-0.6H68V170.5z
	 M77.8,170.5h4.6v-0.6h-4.6V170.5z M87.6,170.5h4.6v-0.6h-4.6V170.5z M97.4,170.5h4.6v-0.6h-4.6V170.5z M107.2,170.5h4.6v-0.6h-4.6
	V170.5z M117,170.5h4.6v-0.6H117V170.5z M126.9,170.5h4.6v-0.6h-4.6V170.5z M136.7,170.5h4.6v-0.6h-4.6V170.5z M146.5,170.5h4.6
	v-0.6h-4.6V170.5z M156.3,170.5h4.6v-0.6h-4.6V170.5z M166.1,170.5h4.6v-0.6h-4.6V170.5z"/>
<path class="st1" d="M170.7,169.9h-4.6v0.6h4.6V169.9z M160.9,169.9h-4.6v0.6h4.6V169.9z M151.1,169.9h-4.6v0.6h4.6V169.9z
	 M141.2,169.9h-4.6v0.6h4.6V169.9z M131.4,169.9h-4.6v0.6h4.6V169.9z M121.6,169.9H117v0.6h4.6V169.9z M111.8,169.9h-4.6v0.6h4.6
	V169.9z M102,169.9h-4.6v0.6h4.6V169.9z M92.1,169.9h-4.6v0.6h4.6V169.9z M82.3,169.9h-4.6v0.6h4.6V169.9z M72.5,169.9h-4.6v0.6h4.6
	V169.9z M62.7,169.9h-4.6v0.6h4.6V169.9z M52.9,169.9h-4.6v0.6h4.6V169.9z M43.1,169.9h-4.6v0.6h4.6V169.9z M33.2,169.9h-4.6v0.6
	h4.6V169.9z M23.4,169.9h-4.6v0.6h4.6V169.9z M13.6,169.9H9v0.6h4.6V169.9z"/>
<path class="st0" d="M11.3,223.7h4.4v-0.6h-4.4V223.7z M20.9,223.7h4.4v-0.6h-4.4V223.7z M30.4,223.7h4.4v-0.6h-4.4V223.7z
	 M40,223.7h4.4v-0.6H40V223.7z M49.5,223.7h4.4v-0.6h-4.4V223.7z M59,223.7h4.4v-0.6H59V223.7z M68.6,223.7H73v-0.6h-4.4V223.7z
	 M78.1,223.7h4.4v-0.6h-4.4V223.7z M87.7,223.7h4.4v-0.6h-4.4V223.7z M97.2,223.7h4.4v-0.6h-4.4V223.7z M106.7,223.7h4.4v-0.6h-4.4
	V223.7z M116.3,223.7h4.4v-0.6h-4.4V223.7z M125.8,223.7h4.4v-0.6h-4.4V223.7z M135.4,223.7h4.4v-0.6h-4.4V223.7z M144.9,223.7h4.4
	v-0.6h-4.4V223.7z M154.4,223.7h4.4v-0.6h-4.4V223.7z M164,223.7h4.4v-0.6H164V223.7z"/>
<g>
	<defs>
		<rect id="SVGID_1_" x="1.8" y="0.6" width="176.1" height="223.2"/>
	</defs>
	<clipPath id="SVGID_00000018208140124150257830000017723569093439049896_">
		<use xlink:href="#SVGID_1_"  style="overflow:visible;"/>
	</clipPath>
	
		<path style="clip-path:url(#SVGID_00000018208140124150257830000017723569093439049896_);fill:none;stroke:#0B0B0A;stroke-width:0.15;" d="
		M168.4,223.1H164v0.6h4.4V223.1z M158.9,223.1h-4.4v0.6h4.4V223.1z M149.3,223.1h-4.4v0.6h4.4V223.1z M139.8,223.1h-4.4v0.6h4.4
		V223.1z M130.2,223.1h-4.4v0.6h4.4V223.1z M120.7,223.1h-4.4v0.6h4.4V223.1z M111.2,223.1h-4.4v0.6h4.4V223.1z M101.6,223.1h-4.4
		v0.6h4.4V223.1z M92.1,223.1h-4.4v0.6h4.4V223.1z M82.5,223.1h-4.4v0.6h4.4V223.1z M73,223.1h-4.4v0.6H73V223.1z M63.5,223.1H59
		v0.6h4.4V223.1z M53.9,223.1h-4.4v0.6h4.4V223.1z M44.4,223.1H40v0.6h4.4V223.1z M34.8,223.1h-4.4v0.6h4.4V223.1z M25.3,223.1h-4.4
		v0.6h4.4V223.1z M15.8,223.1h-4.4v0.6h4.4V223.1z"/>
</g>
<path class="st0" d="M11.9,2.5h4.4V1.9h-4.4V2.5z M21.5,2.5h4.4V1.9h-4.4V2.5z M31,2.5h4.4V1.9H31V2.5z M40.5,2.5H45V1.9h-4.4V2.5z
	 M50.1,2.5h4.4V1.9h-4.4V2.5z M59.6,2.5h4.4V1.9h-4.4V2.5z M69.2,2.5h4.4V1.9h-4.4V2.5z M78.7,2.5h4.4V1.9h-4.4V2.5z M88.2,2.5h4.4
	V1.9h-4.4V2.5z M97.8,2.5h4.4V1.9h-4.4V2.5z M107.3,2.5h4.4V1.9h-4.4V2.5z M116.9,2.5h4.4V1.9h-4.4V2.5z M126.4,2.5h4.4V1.9h-4.4
	V2.5z M135.9,2.5h4.4V1.9h-4.4V2.5z M145.5,2.5h4.4V1.9h-4.4V2.5z M155,2.5h4.4V1.9H155V2.5z M164.6,2.5h4.4V1.9h-4.4V2.5z"/>
<path class="st1" d="M169,1.9h-4.4v0.6h4.4V1.9z M159.5,1.9H155v0.6h4.4V1.9z M149.9,1.9h-4.4v0.6h4.4V1.9z M140.4,1.9h-4.4v0.6h4.4
	V1.9z M130.8,1.9h-4.4v0.6h4.4V1.9z M121.3,1.9h-4.4v0.6h4.4V1.9z M111.8,1.9h-4.4v0.6h4.4V1.9z M102.2,1.9h-4.4v0.6h4.4V1.9z
	 M92.7,1.9h-4.4v0.6h4.4V1.9z M83.1,1.9h-4.4v0.6h4.4V1.9z M73.6,1.9h-4.4v0.6h4.4V1.9z M64.1,1.9h-4.4v0.6h4.4V1.9z M54.5,1.9h-4.4
	v0.6h4.4V1.9z M45,1.9h-4.4v0.6H45V1.9z M35.4,1.9H31v0.6h4.4V1.9z M25.9,1.9h-4.4v0.6h4.4V1.9z M16.4,1.9h-4.4v0.6h4.4V1.9z"/>
<polygon class="st0" points="3.2,220.6 3.4,221.9 2.1,221.4 1.9,222 3.3,222.3 2.3,223.3 2.9,223.6 3.6,222.5 4.2,223.7 4.8,223.3 
	3.8,222.3 5.2,222 5,221.4 3.7,221.9 3.9,220.6 "/>
<g>
	<defs>
		<rect id="SVGID_00000068642644099209679420000006667146540657637801_" x="1.8" y="0.6" width="176.1" height="223.2"/>
	</defs>
	<clipPath id="SVGID_00000171693596213809012430000009582774766710910594_">
		<use xlink:href="#SVGID_00000068642644099209679420000006667146540657637801_"  style="overflow:visible;"/>
	</clipPath>
	
		<polygon style="clip-path:url(#SVGID_00000171693596213809012430000009582774766710910594_);fill:none;stroke:#0B0B0A;stroke-width:0.15;" points="
		5.2,222 5,221.4 3.7,221.9 3.9,220.6 3.2,220.6 3.4,221.9 2.1,221.4 1.9,222 3.3,222.3 2.3,223.3 2.9,223.6 3.6,222.5 4.2,223.7 
		4.8,223.3 3.8,222.3 	"/>
</g>
<polygon class="st0" points="3.2,0.6 3.4,2 2.1,1.5 1.9,2.1 3.3,2.3 2.3,3.3 2.9,3.7 3.6,2.5 4.2,3.7 4.8,3.3 3.8,2.3 5.2,2.1 
	5,1.5 3.7,2 3.9,0.6 "/>
<g>
	<defs>
		<rect id="SVGID_00000124146120648346598180000003841751329957578385_" x="1.8" y="0.6" width="176.1" height="223.2"/>
	</defs>
	<clipPath id="SVGID_00000106862407445420454870000004917699774488108689_">
		<use xlink:href="#SVGID_00000124146120648346598180000003841751329957578385_"  style="overflow:visible;"/>
	</clipPath>
	
		<polygon style="clip-path:url(#SVGID_00000106862407445420454870000004917699774488108689_);fill:none;stroke:#0B0B0A;stroke-width:0.15;" points="
		5.2,2.1 5,1.5 3.7,2 3.9,0.6 3.2,0.6 3.4,2 2.1,1.5 1.9,2.1 3.3,2.3 2.3,3.3 2.9,3.7 3.6,2.5 4.2,3.7 4.8,3.3 3.8,2.3 	"/>
</g>
<polygon class="st0" points="175.9,220.6 176,222 174.8,221.4 174.6,222 175.9,222.3 175,223.3 175.5,223.7 176.2,222.5 
	176.9,223.7 177.4,223.3 176.5,222.3 177.8,222.1 177.6,221.4 176.4,222 176.5,220.6 "/>
<g>
	<defs>
		<rect id="SVGID_00000076581022634269936840000004520093630291773072_" x="1.8" y="0.6" width="176.1" height="223.2"/>
	</defs>
	<clipPath id="SVGID_00000097501456388526223850000012514423433247556786_">
		<use xlink:href="#SVGID_00000076581022634269936840000004520093630291773072_"  style="overflow:visible;"/>
	</clipPath>
	
		<polygon style="clip-path:url(#SVGID_00000097501456388526223850000012514423433247556786_);fill:none;stroke:#0B0B0A;stroke-width:0.15;" points="
		177.8,222.1 177.6,221.4 176.4,222 176.5,220.6 175.9,220.6 176,222 174.8,221.4 174.6,222 175.9,222.3 175,223.3 175.5,223.7 
		176.2,222.5 176.9,223.7 177.4,223.3 176.5,222.3 	"/>
</g>
<polygon class="st0" points="175.9,0.7 176,2 174.8,1.5 174.6,2.1 175.9,2.4 175,3.4 175.5,3.8 176.2,2.6 176.9,3.8 177.4,3.4 
	176.5,2.4 177.8,2.1 177.6,1.5 176.4,2 176.5,0.7 "/>
<polygon class="st1" points="177.8,2.1 177.6,1.5 176.4,2 176.5,0.7 175.9,0.7 176,2 174.8,1.5 174.6,2.1 175.9,2.4 175,3.4 
	175.5,3.7 176.2,2.6 176.9,3.8 177.4,3.4 176.5,2.4 "/>
<path class="st0" d="M175.9,212.7h0.6v-4.4h-0.6V212.7z M175.9,203.1h0.6v-4.4h-0.6V203.1z M175.9,193.6h0.6v-4.4h-0.6V193.6z
	 M175.9,184.1h0.6v-4.4h-0.6V184.1z M175.9,174.6h0.6v-4.4h-0.6V174.6z M175.9,165h0.6v-4.4h-0.6V165z M175.9,155.5h0.6v-4.4h-0.6
	V155.5z M175.9,146h0.6v-4.4h-0.6V146z M175.9,136.4h0.6V132h-0.6V136.4z M175.9,126.9h0.6v-4.4h-0.6V126.9z M175.9,117.4h0.6v-4.4
	h-0.6V117.4z M175.9,107.8h0.6v-4.4h-0.6V107.8z M175.9,98.3h0.6v-4.4h-0.6V98.3z M175.9,88.8h0.6v-4.4h-0.6V88.8z M175.9,79.2h0.6
	v-4.4h-0.6V79.2z M175.9,69.7h0.6v-4.4h-0.6V69.7z M175.9,60.2h0.6v-4.4h-0.6V60.2z M175.9,50.7h0.6v-4.4h-0.6V50.7z M175.9,41.1
	h0.6v-4.4h-0.6V41.1z M175.9,31.6h0.6v-4.4h-0.6V31.6z M175.9,22.1h0.6v-4.4h-0.6V22.1z M175.9,12.5h0.6V8.1h-0.6V12.5z"/>
<path class="st1" d="M176.5,208.2h-0.6v4.4h0.6V208.2z M176.5,198.7h-0.6v4.4h0.6V198.7z M176.5,189.2h-0.6v4.4h0.6V189.2z
	 M176.5,179.6h-0.6v4.4h0.6V179.6z M176.5,170.1h-0.6v4.4h0.6V170.1z M176.5,160.6h-0.6v4.4h0.6V160.6z M176.5,151.1h-0.6v4.4h0.6
	V151.1z M176.5,141.5h-0.6v4.4h0.6V141.5z M176.5,132h-0.6v4.4h0.6V132z M176.5,122.5h-0.6v4.4h0.6V122.5z M176.5,112.9h-0.6v4.4
	h0.6V112.9z M176.5,103.4h-0.6v4.4h0.6V103.4z M176.5,93.9h-0.6v4.4h0.6V93.9z M176.5,84.3h-0.6v4.4h0.6V84.3z M176.5,74.8h-0.6v4.4
	h0.6V74.8z M176.5,65.3h-0.6v4.4h0.6V65.3z M176.5,55.7h-0.6v4.4h0.6V55.7z M176.5,46.2h-0.6v4.4h0.6V46.2z M176.5,36.7h-0.6v4.4
	h0.6V36.7z M176.5,27.2h-0.6v4.4h0.6V27.2z M176.5,17.6h-0.6v4.4h0.6V17.6z M176.5,8.1h-0.6v4.4h0.6V8.1z"/>
<path class="st0" d="M3.2,214.1h0.6v-4.4H3.2V214.1z M3.2,204.6h0.6v-4.4H3.2V204.6z M3.2,195h0.6v-4.4H3.2V195z M3.2,185.5h0.6
	v-4.4H3.2V185.5z M3.2,176h0.6v-4.4H3.2V176z M3.2,166.4h0.6V162H3.2V166.4z M3.2,156.9h0.6v-4.4H3.2V156.9z M3.2,147.4h0.6v-4.4
	H3.2V147.4z M3.2,137.8h0.6v-4.4H3.2V137.8z M3.2,128.3h0.6v-4.4H3.2V128.3z M3.2,118.8h0.6v-4.4H3.2V118.8z M3.2,109.3h0.6v-4.4
	H3.2V109.3z M3.2,99.7h0.6v-4.4H3.2V99.7z M3.2,90.2h0.6v-4.4H3.2V90.2z M3.2,80.7h0.6v-4.4H3.2V80.7z M3.2,71.1h0.6v-4.4H3.2V71.1z
	 M3.2,61.6h0.6v-4.4H3.2V61.6z M3.2,52.1h0.6v-4.4H3.2V52.1z M3.2,42.5h0.6v-4.4H3.2V42.5z M3.2,33h0.6v-4.4H3.2V33z M3.2,23.5h0.6
	V19H3.2V23.5z M3.2,13.9h0.6V9.5H3.2V13.9z"/>
<path class="st1" d="M3.8,209.7H3.2v4.4h0.6V209.7z M3.8,200.1H3.2v4.4h0.6V200.1z M3.8,190.6H3.2v4.4h0.6V190.6z M3.8,181.1H3.2
	v4.4h0.6V181.1z M3.8,171.5H3.2v4.4h0.6V171.5z M3.8,162H3.2v4.4h0.6V162z M3.8,152.5H3.2v4.4h0.6V152.5z M3.8,142.9H3.2v4.4h0.6
	V142.9z M3.8,133.4H3.2v4.4h0.6V133.4z M3.8,123.9H3.2v4.4h0.6V123.9z M3.8,114.3H3.2v4.4h0.6V114.3z M3.8,104.8H3.2v4.4h0.6V104.8z
	 M3.8,95.3H3.2v4.4h0.6V95.3z M3.8,85.8H3.2v4.4h0.6V85.8z M3.8,76.2H3.2v4.4h0.6V76.2z M3.8,66.7H3.2v4.4h0.6V66.7z M3.8,57.2H3.2
	v4.4h0.6V57.2z M3.8,47.6H3.2v4.4h0.6V47.6z M3.8,38.1H3.2v4.4h0.6V38.1z M3.8,28.6H3.2V33h0.6V28.6z M3.8,19H3.2v4.4h0.6V19z
	 M3.8,9.5H3.2v4.4h0.6V9.5z"/>
<path class="st0" d="M149.6,133.3h3v-0.5h-3V133.3z M145.4,130.2h0.7l0.6-0.7l0.6,0.7h0.7l-1-1.1h-0.5L145.4,130.2z M140.1,133.3h3
	v-0.5h-3V133.3z M138.8,133.6h-3.9v0.6h3.9V133.6z M138.8,131.6h-3.9v0.6h3.9V131.6z M134.1,133.6h-3.9v0.6h3.9V133.6z M134.1,131.6
	h-3.9v0.6h3.9V131.6z M125.8,133.3h3v-0.5h-3V133.3z M121,133.3h3v-0.5h-3V133.3z M116.3,133.3h3v-0.5h-3V133.3z M111.5,133.3h3
	v-0.5h-3V133.3z M106.7,133.3h3v-0.5h-3V133.3z M101.9,133.3h3v-0.5h-3V133.3z M97.2,133.3h3v-0.5h-3V133.3z M92.9,130.2h0.7
	l0.6-0.7l0.6,0.7h0.7l-1-1.1h-0.5L92.9,130.2z M91.1,133.6h-3.9v0.6h3.9V133.6z M91.1,131.6h-3.9v0.6h3.9V131.6z M86.4,133.6h-3.9
	v0.6h3.9V133.6z M86.4,131.6h-3.9v0.6h3.9V131.6z M78.1,133.3h3v-0.5h-3V133.3z M73.3,133.3h3v-0.5h-3V133.3z M68.6,133.3h3v-0.5h-3
	V133.3z M63.8,133.3h3v-0.5h-3V133.3z M62.5,133.6h-4v0.6h4V133.6z M62.5,131.6h-4v0.6h4V131.6z M57.7,133.6h-4v0.6h4V133.6z
	 M57.7,131.6h-4v0.6h4V131.6z M50,130.2h0.7l0.6-0.7l0.6,0.7h0.7l-1-1.1H51L50,130.2z M44.7,133.3h3v-0.5h-3V133.3z M39.9,133.3h3
	v-0.5h-3V133.3z M35.2,133.3h3v-0.5h-3V133.3z M30.4,133.3h3v-0.5h-3V133.3z"/>
<path class="st1" d="M149.6,133.3h3v-0.5h-3V133.3z M145.4,130.2h0.7l0.6-0.7l0.6,0.7h0.7l-1-1.1h-0.5L145.4,130.2z M140.1,133.3h3
	v-0.5h-3V133.3z M138.8,133.6h-3.9v0.6h3.9V133.6z M138.8,131.6h-3.9v0.6h3.9V131.6z M134.1,133.6h-3.9v0.6h3.9V133.6z M134.1,131.6
	h-3.9v0.6h3.9V131.6z M125.8,133.3h3v-0.5h-3V133.3z M121,133.3h3v-0.5h-3V133.3z M116.3,133.3h3v-0.5h-3V133.3z M111.5,133.3h3
	v-0.5h-3V133.3z M106.7,133.3h3v-0.5h-3V133.3z M101.9,133.3h3v-0.5h-3V133.3z M97.2,133.3h3v-0.5h-3V133.3z M92.9,130.2h0.7
	l0.6-0.7l0.6,0.7h0.7l-1-1.1h-0.5L92.9,130.2z M91.1,133.6h-3.9v0.6h3.9V133.6z M91.1,131.6h-3.9v0.6h3.9V131.6z M86.4,133.6h-3.9
	v0.6h3.9V133.6z M86.4,131.6h-3.9v0.6h3.9V131.6z M78.1,133.3h3v-0.5h-3V133.3z M73.3,133.3h3v-0.5h-3V133.3z M68.6,133.3h3v-0.5h-3
	V133.3z M63.8,133.3h3v-0.5h-3V133.3z M62.5,133.6h-4v0.6h4V133.6z M62.5,131.6h-4v0.6h4V131.6z M57.7,133.6h-4v0.6h4V133.6z
	 M57.7,131.6h-4v0.6h4V131.6z M50,130.2h0.7l0.6-0.7l0.6,0.7h0.7l-1-1.1H51L50,130.2z M44.7,133.3h3v-0.5h-3V133.3z M39.9,133.3h3
	v-0.5h-3V133.3z M35.2,133.3h3v-0.5h-3V133.3z M30.4,133.3h3v-0.5h-3V133.3z"/>
<path class="st0" d="M143.7,118.8v5.6h-1v0.6h1.6v-6.7h-1.6l0,0.6H143.7z M138.9,118.8v5.6h-1v0.6h1.6v-6.7h-1.6l0,0.6H138.9z
	 M107.4,125.2h0.6l0-6.9h-0.6V125.2z M102.6,125.2h0.6l0-6.9h-0.6V125.2z M76.1,125.2h0.6l0-6.9h-0.6V125.2z M71.3,125.2h0.6l0-6.9
	h-0.6V125.2z M42.2,124.5h-1v-5.6h1l0-0.6h-1.6v6.7h1.6V124.5z M37.5,124.5h-1v-5.6h1l0-0.6h-1.6v6.7h1.6V124.5z"/>
<path class="st1" d="M143.7,118.8v5.6h-1v0.6h1.6v-6.7h-1.6l0,0.6H143.7z M138.9,118.8v5.6h-1v0.6h1.6v-6.7h-1.6l0,0.6H138.9z
	 M107.4,125.2h0.6l0-6.9h-0.6V125.2z M102.6,125.2h0.6l0-6.9h-0.6V125.2z M76.1,125.2h0.6l0-6.9h-0.6V125.2z M71.3,125.2h0.6l0-6.9
	h-0.6V125.2z M42.2,124.5h-1v-5.6h1l0-0.6h-1.6v6.7h1.6V124.5z M37.5,124.5h-1v-5.6h1l0-0.6h-1.6v6.7h1.6V124.5z"/>
<path class="st0" d="M142.6,114.4h0.6l0-6.9h-0.6V114.4z M137.8,114.4h0.6l0-6.9h-0.6V114.4z M127.2,108v5.6h-1v0.6h1.6v-6.7h-1.6
	l0,0.6H127.2z M123.8,109l-0.2-0.6l-1.3,0.5l0.2-1.4h-0.7l0.2,1.4l-1.2-0.5l-0.2,0.6l1.3,0.2l-0.9,1l0.5,0.4l0.7-1.2l0.7,1.2
	l0.5-0.4l-0.9-1L123.8,109z M118.2,113.7h-1V108h1l0-0.6h-1.6v6.7h1.6V113.7z M107.6,114.4h0.6l0-6.9h-0.6V114.4z M102.8,114.4h0.6
	l0-6.9h-0.6V114.4z M95.6,108v5.6h-1v0.6h1.6v-6.7h-1.6l0,0.6H95.6z M92.2,109l-0.2-0.6l-1.3,0.5l0.2-1.4h-0.7l0.2,1.4l-1.2-0.5
	l-0.2,0.6l1.3,0.2l-0.9,1l0.5,0.4l0.7-1.2l0.7,1.2l0.5-0.4l-0.9-1L92.2,109z M86.6,113.7h-1V108h1l0-0.6H85v6.7h1.6V113.7z
	 M76,114.4h0.6l0-6.9H76V114.4z M71.2,114.4h0.6l0-6.9h-0.6V114.4z M62.2,108v5.6h-1v0.6h1.6v-6.7h-1.6l0,0.6H62.2z M58.8,109
	l-0.2-0.6l-1.3,0.5l0.2-1.4h-0.7l0.2,1.4l-1.2-0.5l-0.2,0.6l1.3,0.2l-0.9,1l0.5,0.4l0.7-1.2l0.7,1.2l0.5-0.4l-0.9-1L58.8,109z
	 M53.2,113.7h-1V108h1l0-0.6h-1.6v6.7h1.6V113.7z M41.1,114.4h0.6l0-6.9h-0.6V114.4z M36.4,114.4H37l0-6.9h-0.6V114.4z"/>
<path class="st1" d="M142.6,114.4h0.6l0-6.9h-0.6V114.4z M137.8,114.4h0.6l0-6.9h-0.6V114.4z M127.2,108v5.6h-1v0.6h1.6v-6.7h-1.6
	l0,0.6H127.2z M123.8,109l-0.2-0.6l-1.3,0.5l0.2-1.4h-0.7l0.2,1.4l-1.2-0.5l-0.2,0.6l1.3,0.2l-0.9,1l0.5,0.4l0.7-1.2l0.7,1.2
	l0.5-0.4l-0.9-1L123.8,109z M118.2,113.7h-1V108h1l0-0.6h-1.6v6.7h1.6V113.7z M107.6,114.4h0.6l0-6.9h-0.6V114.4z M102.8,114.4h0.6
	l0-6.9h-0.6V114.4z M95.6,108v5.6h-1v0.6h1.6v-6.7h-1.6l0,0.6H95.6z M92.2,109l-0.2-0.6l-1.3,0.5l0.2-1.4h-0.7l0.2,1.4l-1.2-0.5
	l-0.2,0.6l1.3,0.2l-0.9,1l0.5,0.4l0.7-1.2l0.7,1.2l0.5-0.4l-0.9-1L92.2,109z M86.6,113.7h-1V108h1l0-0.6H85v6.7h1.6V113.7z
	 M76,114.4h0.6l0-6.9H76V114.4z M71.2,114.4h0.6l0-6.9h-0.6V114.4z M62.2,108v5.6h-1v0.6h1.6v-6.7h-1.6l0,0.6H62.2z M58.8,109
	l-0.2-0.6l-1.3,0.5l0.2-1.4h-0.7l0.2,1.4l-1.2-0.5l-0.2,0.6l1.3,0.2l-0.9,1l0.5,0.4l0.7-1.2l0.7,1.2l0.5-0.4l-0.9-1L58.8,109z
	 M53.2,113.7h-1V108h1l0-0.6h-1.6v6.7h1.6V113.7z M41.1,114.4h0.6l0-6.9h-0.6V114.4z M36.4,114.4H37l0-6.9h-0.6V114.4z"/>
<path class="st0" d="M139.1,96.7l1.9,6.3h-0.6l-1.9-6.3H139.1z M134.3,96.7l1.9,6.3h-0.6l-1.9-6.3H134.3z M114.4,103h-0.6l1.9-6.3
	h0.6L114.4,103z M110.5,103h-0.6l1.9-6.3h0.6L110.5,103z M106.6,96.7l1.9,6.3h-0.6l-1.9-6.3H106.6z M103.6,96.7l1.9,6.3h-0.6
	l-1.9-6.3H103.6z M79.8,103h-0.6l1.9-6.3h0.6L79.8,103z M76.4,103h-0.6l1.9-6.3h0.6L76.4,103z M72.2,96.7l1.9,6.3h-0.6l-1.9-6.3
	H72.2z M68.7,96.7l1.9,6.3H70l-1.9-6.3H68.7z M45.6,103H45l1.9-6.3h0.6L45.6,103z M40.8,103h-0.6l1.9-6.3h0.6L40.8,103z"/>
<path class="st1" d="M139.1,96.7l1.9,6.3h-0.6l-1.9-6.3H139.1z M134.3,96.7l1.9,6.3h-0.6l-1.9-6.3H134.3z M114.4,103h-0.6l1.9-6.3
	h0.6L114.4,103z M110.5,103h-0.6l1.9-6.3h0.6L110.5,103z M106.6,96.7l1.9,6.3h-0.6l-1.9-6.3H106.6z M103.6,96.7l1.9,6.3h-0.6
	l-1.9-6.3H103.6z M79.8,103h-0.6l1.9-6.3h0.6L79.8,103z M76.4,103h-0.6l1.9-6.3h0.6L76.4,103z M72.2,96.7l1.9,6.3h-0.6l-1.9-6.3
	H72.2z M68.7,96.7l1.9,6.3H70l-1.9-6.3H68.7z M45.6,103H45l1.9-6.3h0.6L45.6,103z M40.8,103h-0.6l1.9-6.3h0.6L40.8,103z"/>
<path class="st0" d="M136.2,85.9l1.9,6.3h-0.6l-1.9-6.3H136.2z M131.4,85.9l1.9,6.3h-0.6l-1.9-6.3H131.4z M117.1,92.2h-0.6l1.9-6.3
	h0.6L117.1,92.2z M112.4,92.2h-0.6l1.9-6.3h0.6L112.4,92.2z M102.8,85.9l1.9,6.3h-0.6l-1.9-6.3H102.8z M98.1,85.9l1.9,6.3h-0.6
	l-1.9-6.3H98.1z M83.8,92.2h-0.6l1.9-6.3h0.6L83.8,92.2z M79,92.2h-0.6l1.9-6.3h0.6L79,92.2z M69.4,85.9l1.9,6.3h-0.6l-1.9-6.3H69.4
	z M64.7,85.9l1.9,6.3h-0.6l-1.9-6.3H64.7z M50.4,92.2h-0.6l1.9-6.3h0.6L50.4,92.2z M45.6,92.2H45l1.9-6.3h0.6L45.6,92.2z"/>
<path class="st1" d="M136.2,85.9l1.9,6.3h-0.6l-1.9-6.3H136.2z M131.4,85.9l1.9,6.3h-0.6l-1.9-6.3H131.4z M117.1,92.2h-0.6l1.9-6.3
	h0.6L117.1,92.2z M112.4,92.2h-0.6l1.9-6.3h0.6L112.4,92.2z M102.8,85.9l1.9,6.3h-0.6l-1.9-6.3H102.8z M98.1,85.9l1.9,6.3h-0.6
	l-1.9-6.3H98.1z M83.8,92.2h-0.6l1.9-6.3h0.6L83.8,92.2z M79,92.2h-0.6l1.9-6.3h0.6L79,92.2z M69.4,85.9l1.9,6.3h-0.6l-1.9-6.3H69.4
	z M64.7,85.9l1.9,6.3h-0.6l-1.9-6.3H64.7z M50.4,92.2h-0.6l1.9-6.3h0.6L50.4,92.2z M45.6,92.2H45l1.9-6.3h0.6L45.6,92.2z"/>
<path class="st0" d="M136.7,82h0.6l0-6.9h-0.6V82z M131,75.1l1.9,6.3h-0.6l-1.9-6.3H131z M127.6,75.1l1.9,6.3h-0.6l-1.9-6.3H127.6z
	 M120.7,81.4h-0.6l1.9-6.3h0.6L120.7,81.4z M117.3,81.4h-0.6l1.9-6.3h0.6L117.3,81.4z M103.3,82h0.6l0-6.9h-0.6V82z M98.1,75.1
	l1.9,6.3h-0.6l-1.9-6.3H98.1z M94.7,75.1l1.9,6.3H96l-1.9-6.3H94.7z M87.2,81.4h-0.6l1.9-6.3H89L87.2,81.4z M83.8,81.4h-0.6l1.9-6.3
	h0.6L83.8,81.4z M69.8,82h0.6l0-6.9h-0.6V82z M64,75.1l1.9,6.3h-0.6l-1.9-6.3H64z M60.6,75.1l1.9,6.3h-0.6L60,75.1H60.6z M53.8,81.4
	h-0.6l1.9-6.3h0.6L53.8,81.4z M50.4,81.4h-0.6l1.9-6.3h0.6L50.4,81.4z"/>
<path class="st1" d="M136.7,82h0.6l0-6.9h-0.6V82z M131,75.1l1.9,6.3h-0.6l-1.9-6.3H131z M127.6,75.1l1.9,6.3h-0.6l-1.9-6.3H127.6z
	 M120.7,81.4h-0.6l1.9-6.3h0.6L120.7,81.4z M117.3,81.4h-0.6l1.9-6.3h0.6L117.3,81.4z M103.3,82h0.6l0-6.9h-0.6V82z M98.1,75.1
	l1.9,6.3h-0.6l-1.9-6.3H98.1z M94.7,75.1l1.9,6.3H96l-1.9-6.3H94.7z M87.2,81.4h-0.6l1.9-6.3H89L87.2,81.4z M83.8,81.4h-0.6l1.9-6.3
	h0.6L83.8,81.4z M69.8,82h0.6l0-6.9h-0.6V82z M64,75.1l1.9,6.3h-0.6l-1.9-6.3H64z M60.6,75.1l1.9,6.3h-0.6L60,75.1H60.6z M53.8,81.4
	h-0.6l1.9-6.3h0.6L53.8,81.4z M50.4,81.4h-0.6l1.9-6.3h0.6L50.4,81.4z"/>
<path class="st0" d="M136.5,71.2h0.6l0-6.9h-0.6V71.2z M131.8,71.2h0.6l0-6.9h-0.6V71.2z M126.7,64.3l1.9,6.3h-0.6l-1.9-6.3H126.7z
	 M121.9,70.6h-0.6l1.9-6.3h0.6L121.9,70.6z M103.2,71.2h0.6l0-6.9h-0.6V71.2z M98.4,71.2H99l0-6.9h-0.6V71.2z M93.3,64.3l1.9,6.3
	h-0.6l-1.9-6.3H93.3z M88.5,70.6h-0.6l1.9-6.3h0.6L88.5,70.6z M69.8,71.2h0.6l0-6.9h-0.6V71.2z M65,71.2h0.6l0-6.9H65V71.2z
	 M59.9,64.3l1.9,6.3h-0.6l-1.9-6.3H59.9z M55.1,70.6h-0.6l1.9-6.3H57L55.1,70.6z"/>
<path class="st1" d="M136.5,71.2h0.6l0-6.9h-0.6V71.2z M131.8,71.2h0.6l0-6.9h-0.6V71.2z M126.7,64.3l1.9,6.3h-0.6l-1.9-6.3H126.7z
	 M121.9,70.6h-0.6l1.9-6.3h0.6L121.9,70.6z M103.2,71.2h0.6l0-6.9h-0.6V71.2z M98.4,71.2H99l0-6.9h-0.6V71.2z M93.3,64.3l1.9,6.3
	h-0.6l-1.9-6.3H93.3z M88.5,70.6h-0.6l1.9-6.3h0.6L88.5,70.6z M69.8,71.2h0.6l0-6.9h-0.6V71.2z M65,71.2h0.6l0-6.9H65V71.2z
	 M59.9,64.3l1.9,6.3h-0.6l-1.9-6.3H59.9z M55.1,70.6h-0.6l1.9-6.3H57L55.1,70.6z"/>
<g>
	<defs>
		<rect id="SVGID_00000169542754868791776970000011253324894938978988_" x="1.8" y="0.6" width="176.1" height="223.2"/>
	</defs>
	<clipPath id="SVGID_00000122687603468503423720000004191571513334308772_">
		<use xlink:href="#SVGID_00000169542754868791776970000011253324894938978988_"  style="overflow:visible;"/>
	</clipPath>
	<path style="clip-path:url(#SVGID_00000122687603468503423720000004191571513334308772_);fill:#0B0B0A;" d="M68.5,56.4
		c-0.2,0-0.4-0.2-0.4-0.4c0-0.2,0.2-0.4,0.4-0.4c0.2,0,0.4,0.2,0.4,0.4C68.9,56.2,68.7,56.4,68.5,56.4 M68.5,56.8
		c0.5,0,0.9-0.4,0.9-0.9c0-0.5-0.4-0.9-0.9-0.9c-0.5,0-0.9,0.4-0.9,0.9C67.6,56.5,68,56.8,68.5,56.8"/>
	
		<path style="clip-path:url(#SVGID_00000122687603468503423720000004191571513334308772_);fill:none;stroke:#0B0B0A;stroke-width:0.15;" d="
		M68.5,56.4c-0.2,0-0.4-0.2-0.4-0.4c0-0.2,0.2-0.4,0.4-0.4c0.2,0,0.4,0.2,0.4,0.4C68.9,56.2,68.7,56.4,68.5,56.4z M68.5,56.8
		c0.5,0,0.9-0.4,0.9-0.9c0-0.5-0.4-0.9-0.9-0.9c-0.5,0-0.9,0.4-0.9,0.9C67.6,56.5,68,56.8,68.5,56.8z"/>
	<path style="clip-path:url(#SVGID_00000122687603468503423720000004191571513334308772_);fill:#0B0B0A;" d="M71.5,47.4
		c-0.2,0-0.4-0.2-0.4-0.4c0-0.2,0.2-0.4,0.4-0.4c0.2,0,0.4,0.2,0.4,0.4C71.9,47.2,71.7,47.4,71.5,47.4 M71.5,47.8
		c0.5,0,0.9-0.4,0.9-0.9c0-0.5-0.4-0.9-0.9-0.9c-0.5,0-0.9,0.4-0.9,0.9C70.6,47.5,71,47.8,71.5,47.8"/>
	
		<path style="clip-path:url(#SVGID_00000122687603468503423720000004191571513334308772_);fill:none;stroke:#0B0B0A;stroke-width:0.15;" d="
		M71.5,47.4c-0.2,0-0.4-0.2-0.4-0.4c0-0.2,0.2-0.4,0.4-0.4c0.2,0,0.4,0.2,0.4,0.4C71.9,47.2,71.7,47.4,71.5,47.4z M71.5,47.8
		c0.5,0,0.9-0.4,0.9-0.9c0-0.5-0.4-0.9-0.9-0.9c-0.5,0-0.9,0.4-0.9,0.9C70.6,47.5,71,47.8,71.5,47.8z"/>
	<path style="clip-path:url(#SVGID_00000122687603468503423720000004191571513334308772_);fill:#0B0B0A;" d="M66.7,41.4
		c-0.2,0-0.4-0.2-0.4-0.4c0-0.2,0.2-0.4,0.4-0.4c0.2,0,0.4,0.2,0.4,0.4C67.1,41.2,66.9,41.4,66.7,41.4 M66.7,41.8
		c0.5,0,0.9-0.4,0.9-0.9c0-0.5-0.4-0.9-0.9-0.9c-0.5,0-0.9,0.4-0.9,0.9C65.9,41.5,66.2,41.8,66.7,41.8"/>
	
		<path style="clip-path:url(#SVGID_00000122687603468503423720000004191571513334308772_);fill:none;stroke:#0B0B0A;stroke-width:0.15;" d="
		M66.7,41.4c-0.2,0-0.4-0.2-0.4-0.4c0-0.2,0.2-0.4,0.4-0.4c0.2,0,0.4,0.2,0.4,0.4C67.1,41.2,66.9,41.4,66.7,41.4z M66.7,41.8
		c0.5,0,0.9-0.4,0.9-0.9c0-0.5-0.4-0.9-0.9-0.9c-0.5,0-0.9,0.4-0.9,0.9C65.9,41.5,66.2,41.8,66.7,41.8z"/>
	<path style="clip-path:url(#SVGID_00000122687603468503423720000004191571513334308772_);fill:#0B0B0A;" d="M71.5,34.2
		c-0.2,0-0.4-0.2-0.4-0.4c0-0.2,0.2-0.4,0.4-0.4c0.2,0,0.4,0.2,0.4,0.4C71.9,34,71.7,34.2,71.5,34.2 M71.5,34.6
		c0.5,0,0.9-0.4,0.9-0.9c0-0.5-0.4-0.9-0.9-0.9c-0.5,0-0.9,0.4-0.9,0.9C70.6,34.3,71,34.6,71.5,34.6"/>
	
		<path style="clip-path:url(#SVGID_00000122687603468503423720000004191571513334308772_);fill:none;stroke:#0B0B0A;stroke-width:0.15;" d="
		M71.5,34.2c-0.2,0-0.4-0.2-0.4-0.4c0-0.2,0.2-0.4,0.4-0.4c0.2,0,0.4,0.2,0.4,0.4C71.9,34,71.7,34.2,71.5,34.2z M71.5,34.6
		c0.5,0,0.9-0.4,0.9-0.9c0-0.5-0.4-0.9-0.9-0.9c-0.5,0-0.9,0.4-0.9,0.9C70.6,34.3,71,34.6,71.5,34.6z"/>
	<path style="clip-path:url(#SVGID_00000122687603468503423720000004191571513334308772_);fill:#0B0B0A;" d="M98.5,59.4
		c-0.2,0-0.4-0.2-0.4-0.4c0-0.2,0.2-0.4,0.4-0.4c0.2,0,0.4,0.2,0.4,0.4C98.9,59.2,98.7,59.4,98.5,59.4 M98.5,59.8
		c0.5,0,0.9-0.4,0.9-0.9c0-0.5-0.4-0.9-0.9-0.9c-0.5,0-0.9,0.4-0.9,0.9C97.6,59.5,98,59.8,98.5,59.8"/>
	
		<path style="clip-path:url(#SVGID_00000122687603468503423720000004191571513334308772_);fill:none;stroke:#0B0B0A;stroke-width:0.15;" d="
		M98.5,59.4c-0.2,0-0.4-0.2-0.4-0.4c0-0.2,0.2-0.4,0.4-0.4c0.2,0,0.4,0.2,0.4,0.4C98.9,59.2,98.7,59.4,98.5,59.4z M98.5,59.8
		c0.5,0,0.9-0.4,0.9-0.9c0-0.5-0.4-0.9-0.9-0.9c-0.5,0-0.9,0.4-0.9,0.9C97.6,59.5,98,59.8,98.5,59.8z"/>
	<path style="clip-path:url(#SVGID_00000122687603468503423720000004191571513334308772_);fill:#0B0B0A;" d="M104.7,55.8
		c-0.2,0-0.4-0.2-0.4-0.4c0-0.2,0.2-0.4,0.4-0.4c0.2,0,0.4,0.2,0.4,0.4C105.1,55.6,104.9,55.8,104.7,55.8 M104.7,56.2
		c0.5,0,0.9-0.4,0.9-0.9c0-0.5-0.4-0.9-0.9-0.9c-0.5,0-0.9,0.4-0.9,0.9C103.9,55.9,104.2,56.2,104.7,56.2"/>
	
		<path style="clip-path:url(#SVGID_00000122687603468503423720000004191571513334308772_);fill:none;stroke:#0B0B0A;stroke-width:0.15;" d="
		M104.7,55.8c-0.2,0-0.4-0.2-0.4-0.4c0-0.2,0.2-0.4,0.4-0.4c0.2,0,0.4,0.2,0.4,0.4C105.1,55.6,104.9,55.8,104.7,55.8z M104.7,56.2
		c0.5,0,0.9-0.4,0.9-0.9c0-0.5-0.4-0.9-0.9-0.9c-0.5,0-0.9,0.4-0.9,0.9C103.9,55.9,104.2,56.2,104.7,56.2z"/>
	<path style="clip-path:url(#SVGID_00000122687603468503423720000004191571513334308772_);fill:#0B0B0A;" d="M103.5,48.4
		c-0.2,0-0.4-0.2-0.4-0.4c0-0.2,0.2-0.4,0.4-0.4c0.2,0,0.4,0.2,0.4,0.4C103.9,48.2,103.7,48.4,103.5,48.4 M103.5,48.8
		c0.5,0,0.9-0.4,0.9-0.9c0-0.5-0.4-0.9-0.9-0.9c-0.5,0-0.9,0.4-0.9,0.9C102.6,48.5,103,48.8,103.5,48.8"/>
	
		<path style="clip-path:url(#SVGID_00000122687603468503423720000004191571513334308772_);fill:none;stroke:#0B0B0A;stroke-width:0.15;" d="
		M103.5,48.4c-0.2,0-0.4-0.2-0.4-0.4c0-0.2,0.2-0.4,0.4-0.4c0.2,0,0.4,0.2,0.4,0.4C103.9,48.2,103.7,48.4,103.5,48.4z M103.5,48.8
		c0.5,0,0.9-0.4,0.9-0.9c0-0.5-0.4-0.9-0.9-0.9c-0.5,0-0.9,0.4-0.9,0.9C102.6,48.5,103,48.8,103.5,48.8z"/>
	<path style="clip-path:url(#SVGID_00000122687603468503423720000004191571513334308772_);fill:#0B0B0A;" d="M105.9,42.4
		c-0.2,0-0.4-0.2-0.4-0.4c0-0.2,0.2-0.4,0.4-0.4c0.2,0,0.4,0.2,0.4,0.4C106.3,42.2,106.1,42.4,105.9,42.4 M105.9,42.8
		c0.5,0,0.9-0.4,0.9-0.9c0-0.5-0.4-0.9-0.9-0.9c-0.5,0-0.9,0.4-0.9,0.9C105,42.5,105.4,42.8,105.9,42.8"/>
	
		<path style="clip-path:url(#SVGID_00000122687603468503423720000004191571513334308772_);fill:none;stroke:#0B0B0A;stroke-width:0.15;" d="
		M105.9,42.4c-0.2,0-0.4-0.2-0.4-0.4c0-0.2,0.2-0.4,0.4-0.4c0.2,0,0.4,0.2,0.4,0.4C106.3,42.2,106.1,42.4,105.9,42.4z M105.9,42.8
		c0.5,0,0.9-0.4,0.9-0.9c0-0.5-0.4-0.9-0.9-0.9c-0.5,0-0.9,0.4-0.9,0.9C105,42.5,105.4,42.8,105.9,42.8z"/>
	<path style="clip-path:url(#SVGID_00000122687603468503423720000004191571513334308772_);fill:#0B0B0A;" d="M128.5,59.4
		c-0.2,0-0.4-0.2-0.4-0.4c0-0.2,0.2-0.4,0.4-0.4s0.4,0.2,0.4,0.4C128.9,59.2,128.7,59.4,128.5,59.4 M128.5,59.8
		c0.5,0,0.9-0.4,0.9-0.9c0-0.5-0.4-0.9-0.9-0.9s-0.9,0.4-0.9,0.9C127.6,59.5,128,59.8,128.5,59.8"/>
	
		<path style="clip-path:url(#SVGID_00000122687603468503423720000004191571513334308772_);fill:none;stroke:#0B0B0A;stroke-width:0.15;" d="
		M128.5,59.4c-0.2,0-0.4-0.2-0.4-0.4c0-0.2,0.2-0.4,0.4-0.4s0.4,0.2,0.4,0.4C128.9,59.2,128.7,59.4,128.5,59.4z M128.5,59.8
		c0.5,0,0.9-0.4,0.9-0.9c0-0.5-0.4-0.9-0.9-0.9s-0.9,0.4-0.9,0.9C127.6,59.5,128,59.8,128.5,59.8z"/>
	<path style="clip-path:url(#SVGID_00000122687603468503423720000004191571513334308772_);fill:#0B0B0A;" d="M133.3,49.6
		c-0.2,0-0.4-0.2-0.4-0.4c0-0.2,0.2-0.4,0.4-0.4c0.2,0,0.4,0.2,0.4,0.4C133.7,49.4,133.5,49.6,133.3,49.6 M133.3,50
		c0.5,0,0.9-0.4,0.9-0.9c0-0.5-0.4-0.9-0.9-0.9c-0.5,0-0.9,0.4-0.9,0.9C132.4,49.7,132.8,50,133.3,50"/>
	
		<path style="clip-path:url(#SVGID_00000122687603468503423720000004191571513334308772_);fill:none;stroke:#0B0B0A;stroke-width:0.15;" d="
		M133.3,49.6c-0.2,0-0.4-0.2-0.4-0.4c0-0.2,0.2-0.4,0.4-0.4c0.2,0,0.4,0.2,0.4,0.4C133.7,49.4,133.5,49.6,133.3,49.6z M133.3,50
		c0.5,0,0.9-0.4,0.9-0.9c0-0.5-0.4-0.9-0.9-0.9c-0.5,0-0.9,0.4-0.9,0.9C132.4,49.7,132.8,50,133.3,50z"/>
	<path style="clip-path:url(#SVGID_00000122687603468503423720000004191571513334308772_);fill:#0B0B0A;" d="M125.6,42.4
		c-0.2,0-0.4-0.2-0.4-0.4c0-0.2,0.2-0.4,0.4-0.4c0.2,0,0.4,0.2,0.4,0.4C126,42.2,125.8,42.4,125.6,42.4 M125.6,42.8
		c0.5,0,0.9-0.4,0.9-0.9c0-0.5-0.4-0.9-0.9-0.9c-0.5,0-0.9,0.4-0.9,0.9C124.7,42.5,125.1,42.8,125.6,42.8"/>
	
		<path style="clip-path:url(#SVGID_00000122687603468503423720000004191571513334308772_);fill:none;stroke:#0B0B0A;stroke-width:0.15;" d="
		M125.6,42.4c-0.2,0-0.4-0.2-0.4-0.4c0-0.2,0.2-0.4,0.4-0.4c0.2,0,0.4,0.2,0.4,0.4C126,42.2,125.8,42.4,125.6,42.4z M125.6,42.8
		c0.5,0,0.9-0.4,0.9-0.9c0-0.5-0.4-0.9-0.9-0.9c-0.5,0-0.9,0.4-0.9,0.9C124.7,42.5,125.1,42.8,125.6,42.8z"/>
	<path style="clip-path:url(#SVGID_00000122687603468503423720000004191571513334308772_);fill:#0B0B0A;" d="M26.8,22.6L26.8,22.6
		L26.8,22.6c0-1,0.5-1.9,1.4-2.4c0.4-0.2,0.9-0.4,1.4-0.4h0.2c-0.9,0.6-1.4,1.6-1.5,2.7v0v0c0,1.1,0.6,2.1,1.4,2.7h-0.2
		c-1,0-1.9-0.5-2.4-1.4C26.9,23.6,26.8,23.1,26.8,22.6 M29.5,25.9c0.3,0,0.6,0,0.9-0.1v-0.6c-1-0.4-1.6-1.4-1.6-2.5v0v0
		c0-1.1,0.6-2.1,1.6-2.5v-0.6c-0.3-0.1-0.6-0.1-0.9-0.1c-1.2,0-2.3,0.6-2.8,1.6c-0.3,0.5-0.4,1-0.4,1.6v0v0c0,1.2,0.6,2.2,1.6,2.8
		C28.4,25.7,28.9,25.9,29.5,25.9"/>
	
		<path style="clip-path:url(#SVGID_00000122687603468503423720000004191571513334308772_);fill:none;stroke:#0B0B0A;stroke-width:0.15;" d="
		M26.8,22.6L26.8,22.6L26.8,22.6c0-1,0.5-1.9,1.4-2.4c0.4-0.2,0.9-0.4,1.4-0.4h0.2c-0.9,0.6-1.4,1.6-1.5,2.7v0v0
		c0,1.1,0.6,2.1,1.4,2.7h-0.2c-1,0-1.9-0.5-2.4-1.4C26.9,23.6,26.8,23.1,26.8,22.6z M29.5,25.9c0.3,0,0.6,0,0.9-0.1v-0.6
		c-1-0.4-1.6-1.4-1.6-2.5v0v0c0-1.1,0.6-2.1,1.6-2.5v-0.6c-0.3-0.1-0.6-0.1-0.9-0.1c-1.2,0-2.3,0.6-2.8,1.6c-0.3,0.5-0.4,1-0.4,1.6
		v0v0c0,1.2,0.6,2.2,1.6,2.8C28.4,25.7,28.9,25.9,29.5,25.9z"/>
	<path style="clip-path:url(#SVGID_00000122687603468503423720000004191571513334308772_);fill:#0B0B0A;" d="M147.3,211.3
		c0.3,0,0.5-0.3,0.5-0.5c0-0.3-0.3-0.5-0.5-0.5c-0.3,0-0.5,0.3-0.5,0.5C146.7,211.1,147,211.3,147.3,211.3 M144.1,207.9
		c-0.1-0.8-0.7-1.2-1.5-1.2c-0.8,0-1.4,0.5-1.4,1.2c0,0.5,0.3,0.8,0.9,1.1l1,0.5c0.3,0.2,0.5,0.3,0.5,0.7c0,0.4-0.4,0.7-0.9,0.7
		c-0.5,0-0.9-0.3-1.1-0.8h-0.6c0.2,0.9,0.9,1.4,1.7,1.4c0.5,0,1-0.2,1.3-0.6c0.1-0.2,0.2-0.4,0.2-0.6c0-0.6-0.3-0.9-0.8-1.2l-1-0.5
		c-0.4-0.2-0.6-0.3-0.6-0.6c0-0.4,0.4-0.6,0.9-0.6c0.4,0,0.8,0.2,0.9,0.7H144.1z M137.8,207.2c0.6,0,1,0.6,1,1.4h-2.1
		C136.8,207.8,137.2,207.2,137.8,207.2 M137.8,206.7c-0.7,0-1.3,0.5-1.5,1.2c-0.1,0.4-0.2,0.7-0.2,1.2c0,0.8,0.2,1.6,0.8,2
		c0.3,0.2,0.6,0.3,1,0.3c0.8,0,1.4-0.6,1.6-1.5h-0.6c-0.1,0.6-0.4,0.9-1,0.9c-0.7,0-1.1-0.7-1.1-1.6h2.8
		C139.5,207.8,139,206.7,137.8,206.7 M134,206.7c-0.4,0-0.7,0.3-0.8,0.7c-0.1-0.4-0.3-0.7-0.7-0.7c-0.3,0-0.6,0.2-0.8,0.7l0-0.6
		h-0.5l0,4.5h0.6v-2.7c0-0.7,0.2-1.3,0.6-1.3c0.2,0,0.3,0.1,0.3,0.2c0,0.1,0.1,0.4,0.1,0.7v3.1h0.6v-2.7c0-0.8,0.1-1.3,0.6-1.3
		c0.3,0,0.4,0.3,0.4,0.8v3.3h0.6V208C134.9,207.2,134.6,206.7,134,206.7 M128.2,210.8c0.8,0,1-0.8,1-1.8c0-1-0.3-1.8-1-1.8
		c-0.8,0-1,0.8-1,1.8C127.2,210,127.5,210.8,128.2,210.8 M128.2,206.7c0.7,0,1.2,0.5,1.5,1.2c0.1,0.4,0.2,0.7,0.2,1.1
		c0,1.3-0.5,2.3-1.6,2.3c-1.1,0-1.6-1-1.6-2.3C126.6,207.7,127.1,206.7,128.2,206.7 M123.7,206.7c-0.5,0-1,0.3-1.3,0.7l0-0.6V205
		h-0.6v6.3h0.6v-2.4c0-1,0.4-1.6,1.2-1.6c0.5,0,0.8,0.4,0.8,1v3h0.6v-3C125,207.3,124.5,206.7,123.7,206.7 M115.1,208.1
		c0,1.6-0.4,2.7-1.2,2.7c-0.8,0-1.2-1-1.2-2.7c0-1.8,0.4-2.6,1.2-2.6C114.7,205.5,115.1,206.5,115.1,208.1 M115.7,208.1
		c0-2-0.6-3.2-1.8-3.2c-1.2,0-1.8,1.2-1.8,3.2c0,2,0.6,3.2,1.8,3.2C115.1,211.4,115.7,210.1,115.7,208.1 M110.3,208.1
		c0,1.6-0.4,2.7-1.2,2.7c-0.8,0-1.2-1-1.2-2.7c0-1.8,0.4-2.6,1.2-2.6C110,205.5,110.3,206.5,110.3,208.1 M111,208.1
		c0-2-0.6-3.2-1.8-3.2c-1.2,0-1.8,1.2-1.8,3.2c0,2,0.6,3.2,1.8,3.2C110.4,211.4,111,210.1,111,208.1 M105.6,208.1
		c0,1.6-0.4,2.7-1.2,2.7c-0.8,0-1.2-1-1.2-2.7c0-1.8,0.4-2.6,1.2-2.6C105.2,205.5,105.6,206.5,105.6,208.1 M106.2,208.1
		c0-2-0.6-3.2-1.8-3.2c-1.2,0-1.8,1.2-1.8,3.2c0,2,0.6,3.2,1.8,3.2C105.6,211.4,106.2,210.1,106.2,208.1 M99.3,210.2h0.7l-0.8,2.2
		h-0.5L99.3,210.2z M96,208.1c0,1.6-0.4,2.7-1.2,2.7c-0.8,0-1.2-1-1.2-2.7c0-1.8,0.4-2.6,1.2-2.6C95.7,205.5,96,206.5,96,208.1
		 M96.6,208.1c0-2-0.6-3.2-1.8-3.2c-1.2,0-1.8,1.2-1.8,3.2c0,2,0.6,3.2,1.8,3.2C96,211.4,96.6,210.1,96.6,208.1 M90.2,207.1
		c-0.4,0-0.9,0.2-1.2,0.5l0.2-2.2h2.4V205h-2.9l-0.4,3.4l0.5,0.1c0.3-0.5,0.8-0.8,1.3-0.8c0.8,0,1.3,0.7,1.3,1.5
		c0,0.6-0.2,1.1-0.6,1.3c-0.2,0.1-0.4,0.2-0.7,0.2c-0.7,0-1.2-0.5-1.3-1.1h-0.6c0.1,0.6,0.4,1.1,1,1.4c0.3,0.2,0.6,0.2,0.9,0.2
		c0.7,0,1.3-0.4,1.7-1.1c0.2-0.3,0.2-0.7,0.2-1.1c0-0.8-0.3-1.4-0.8-1.8C90.9,207.2,90.5,207.1,90.2,207.1 M80.5,210.8
		c0.8,0,1-0.8,1-1.8c0-1-0.3-1.8-1-1.8c-0.8,0-1,0.8-1,1.8C79.5,210,79.8,210.8,80.5,210.8 M80.5,206.7c0.7,0,1.2,0.5,1.5,1.2
		c0.1,0.4,0.2,0.7,0.2,1.1c0,1.3-0.5,2.3-1.6,2.3c-1.1,0-1.6-1-1.6-2.3C78.9,207.7,79.4,206.7,80.5,206.7 M77.2,210.5
		c-0.2,0.1-0.6,0.2-0.8,0.2c-0.4,0-0.6-0.2-0.6-0.6v-2.7h1.4v-0.5h-1.4v-1.5h-0.6v1.5h-1.1v0.5h1.1v2.7c0,0.7,0.4,1.2,1.2,1.2
		c0.3,0,0.7-0.1,0.9-0.2L77.2,210.5z M66.2,210.8c-0.7,0-1-0.7-1-1.8c0-1.1,0.4-1.8,1-1.8c0.7,0,1.1,0.8,1.1,1.8
		C67.2,210,66.9,210.8,66.2,210.8 M66.2,206.7c-0.5,0-0.9,0.3-1.1,0.7l0-0.6h-0.6v6.3h0.6v-2.4c0.2,0.4,0.6,0.7,1.1,0.7
		c1,0,1.6-1,1.6-2.3C67.8,207.7,67.3,206.7,66.2,206.7 M62.4,209.2c0,1-0.4,1.6-1.2,1.6c-0.5,0-0.8-0.4-0.8-1v-3h-0.6v3
		c0,0.9,0.5,1.6,1.3,1.6c0.5,0,1-0.3,1.3-0.7l0,0.6H63v-4.5h-0.6V209.2z M52.4,206.7c-0.5,0-0.9,0.2-1.1,0.7v-0.6h-0.6v4.5h0.6v-2.4
		c0-0.9,0.4-1.6,1-1.6c0.4,0,0.7,0.3,0.7,0.9h0.6C53.6,207.2,53.1,206.7,52.4,206.7 M47.2,207.2c0.6,0,1,0.6,1,1.4h-2.1
		C46.2,207.8,46.5,207.2,47.2,207.2 M47.2,206.7c-0.7,0-1.3,0.5-1.5,1.2c-0.1,0.4-0.2,0.7-0.2,1.2c0,0.8,0.2,1.6,0.8,2
		c0.3,0.2,0.6,0.3,1,0.3c0.8,0,1.4-0.6,1.6-1.5h-0.6c-0.1,0.6-0.5,0.9-1,0.9c-0.7,0-1.1-0.7-1.1-1.6h2.8
		C48.8,207.8,48.3,206.7,47.2,206.7 M42.1,208.1l-0.6,2.2l-0.5-3.5h-0.6l0.7,4.5h0.6l0.7-2.4l0.7,2.4h0.6l0.7-4.5h-0.6l-0.5,3.5
		l-0.6-2.2H42.1z M37.6,210.8c0.8,0,1-0.8,1-1.8c0-1-0.3-1.8-1-1.8c-0.8,0-1,0.8-1,1.8C36.6,210,36.8,210.8,37.6,210.8 M37.6,206.7
		c0.7,0,1.2,0.5,1.5,1.2c0.1,0.4,0.2,0.7,0.2,1.1c0,1.3-0.5,2.3-1.6,2.3c-1.1,0-1.6-1-1.6-2.3C36,207.7,36.5,206.7,37.6,206.7
		 M32.8,210.8c-0.7,0-1-0.7-1-1.8c0-1.1,0.4-1.8,1-1.8c0.7,0,1.1,0.8,1.1,1.8C33.9,210,33.5,210.8,32.8,210.8 M32.8,206.7
		c-0.5,0-0.9,0.3-1.1,0.7l0-0.6h-0.6v6.3h0.6v-2.4c0.2,0.4,0.6,0.7,1.1,0.7c1,0,1.6-1,1.6-2.3C34.4,207.7,33.9,206.7,32.8,206.7"/>
	
		<path style="clip-path:url(#SVGID_00000122687603468503423720000004191571513334308772_);fill:none;stroke:#0B0B0A;stroke-width:0.15;" d="
		M147.3,211.3c0.3,0,0.5-0.3,0.5-0.5c0-0.3-0.3-0.5-0.5-0.5c-0.3,0-0.5,0.3-0.5,0.5C146.7,211.1,147,211.3,147.3,211.3z
		 M144.1,207.9c-0.1-0.8-0.7-1.2-1.5-1.2c-0.8,0-1.4,0.5-1.4,1.2c0,0.5,0.3,0.8,0.9,1.1l1,0.5c0.3,0.2,0.5,0.3,0.5,0.7
		c0,0.4-0.4,0.7-0.9,0.7c-0.5,0-0.9-0.3-1.1-0.8h-0.6c0.2,0.9,0.9,1.4,1.7,1.4c0.5,0,1-0.2,1.3-0.6c0.1-0.2,0.2-0.4,0.2-0.6
		c0-0.6-0.3-0.9-0.8-1.2l-1-0.5c-0.4-0.2-0.6-0.3-0.6-0.6c0-0.4,0.4-0.6,0.9-0.6c0.4,0,0.8,0.2,0.9,0.7H144.1z M137.8,207.2
		c0.6,0,1,0.6,1,1.4h-2.1C136.8,207.8,137.2,207.2,137.8,207.2z M137.8,206.7c-0.7,0-1.3,0.5-1.5,1.2c-0.1,0.4-0.2,0.7-0.2,1.2
		c0,0.8,0.2,1.6,0.8,2c0.3,0.2,0.6,0.3,1,0.3c0.8,0,1.4-0.6,1.6-1.5h-0.6c-0.1,0.6-0.4,0.9-1,0.9c-0.7,0-1.1-0.7-1.1-1.6h2.8
		C139.5,207.8,139,206.7,137.8,206.7z M134,206.7c-0.4,0-0.7,0.3-0.8,0.7c-0.1-0.4-0.3-0.7-0.7-0.7c-0.3,0-0.6,0.2-0.8,0.7l0-0.6
		h-0.5l0,4.5h0.6v-2.7c0-0.7,0.2-1.3,0.6-1.3c0.2,0,0.3,0.1,0.3,0.2c0,0.1,0.1,0.4,0.1,0.7v3.1h0.6v-2.7c0-0.8,0.1-1.3,0.6-1.3
		c0.3,0,0.4,0.3,0.4,0.8v3.3h0.6V208C134.9,207.2,134.6,206.7,134,206.7z M128.2,210.8c0.8,0,1-0.8,1-1.8c0-1-0.3-1.8-1-1.8
		c-0.8,0-1,0.8-1,1.8C127.2,210,127.5,210.8,128.2,210.8z M128.2,206.7c0.7,0,1.2,0.5,1.5,1.2c0.1,0.4,0.2,0.7,0.2,1.1
		c0,1.3-0.5,2.3-1.6,2.3c-1.1,0-1.6-1-1.6-2.3C126.6,207.7,127.1,206.7,128.2,206.7z M123.7,206.7c-0.5,0-1,0.3-1.3,0.7l0-0.6V205
		h-0.6v6.3h0.6v-2.4c0-1,0.4-1.6,1.2-1.6c0.5,0,0.8,0.4,0.8,1v3h0.6v-3C125,207.3,124.5,206.7,123.7,206.7z M115.1,208.1
		c0,1.6-0.4,2.7-1.2,2.7c-0.8,0-1.2-1-1.2-2.7c0-1.8,0.4-2.6,1.2-2.6C114.7,205.5,115.1,206.5,115.1,208.1z M115.7,208.1
		c0-2-0.6-3.2-1.8-3.2c-1.2,0-1.8,1.2-1.8,3.2c0,2,0.6,3.2,1.8,3.2C115.1,211.4,115.7,210.1,115.7,208.1z M110.3,208.1
		c0,1.6-0.4,2.7-1.2,2.7c-0.8,0-1.2-1-1.2-2.7c0-1.8,0.4-2.6,1.2-2.6C110,205.5,110.3,206.5,110.3,208.1z M111,208.1
		c0-2-0.6-3.2-1.8-3.2c-1.2,0-1.8,1.2-1.8,3.2c0,2,0.6,3.2,1.8,3.2C110.4,211.4,111,210.1,111,208.1z M105.6,208.1
		c0,1.6-0.4,2.7-1.2,2.7c-0.8,0-1.2-1-1.2-2.7c0-1.8,0.4-2.6,1.2-2.6C105.2,205.5,105.6,206.5,105.6,208.1z M106.2,208.1
		c0-2-0.6-3.2-1.8-3.2c-1.2,0-1.8,1.2-1.8,3.2c0,2,0.6,3.2,1.8,3.2C105.6,211.4,106.2,210.1,106.2,208.1z M99.3,210.2h0.7l-0.8,2.2
		h-0.5L99.3,210.2z M96,208.1c0,1.6-0.4,2.7-1.2,2.7c-0.8,0-1.2-1-1.2-2.7c0-1.8,0.4-2.6,1.2-2.6C95.7,205.5,96,206.5,96,208.1z
		 M96.6,208.1c0-2-0.6-3.2-1.8-3.2c-1.2,0-1.8,1.2-1.8,3.2c0,2,0.6,3.2,1.8,3.2C96,211.4,96.6,210.1,96.6,208.1z M90.2,207.1
		c-0.4,0-0.9,0.2-1.2,0.5l0.2-2.2h2.4V205h-2.9l-0.4,3.4l0.5,0.1c0.3-0.5,0.8-0.8,1.3-0.8c0.8,0,1.3,0.7,1.3,1.5
		c0,0.6-0.2,1.1-0.6,1.3c-0.2,0.1-0.4,0.2-0.7,0.2c-0.7,0-1.2-0.5-1.3-1.1h-0.6c0.1,0.6,0.4,1.1,1,1.4c0.3,0.2,0.6,0.2,0.9,0.2
		c0.7,0,1.3-0.4,1.7-1.1c0.2-0.3,0.2-0.7,0.2-1.1c0-0.8-0.3-1.4-0.8-1.8C90.9,207.2,90.5,207.1,90.2,207.1z M80.5,210.8
		c0.8,0,1-0.8,1-1.8c0-1-0.3-1.8-1-1.8c-0.8,0-1,0.8-1,1.8C79.5,210,79.8,210.8,80.5,210.8z M80.5,206.7c0.7,0,1.2,0.5,1.5,1.2
		c0.1,0.4,0.2,0.7,0.2,1.1c0,1.3-0.5,2.3-1.6,2.3c-1.1,0-1.6-1-1.6-2.3C78.9,207.7,79.4,206.7,80.5,206.7z M77.2,210.5
		c-0.2,0.1-0.6,0.2-0.8,0.2c-0.4,0-0.6-0.2-0.6-0.6v-2.7h1.4v-0.5h-1.4v-1.5h-0.6v1.5h-1.1v0.5h1.1v2.7c0,0.7,0.4,1.2,1.2,1.2
		c0.3,0,0.7-0.1,0.9-0.2L77.2,210.5z M66.2,210.8c-0.7,0-1-0.7-1-1.8c0-1.1,0.4-1.8,1-1.8c0.7,0,1.1,0.8,1.1,1.8
		C67.2,210,66.9,210.8,66.2,210.8z M66.2,206.7c-0.5,0-0.9,0.3-1.1,0.7l0-0.6h-0.6v6.3h0.6v-2.4c0.2,0.4,0.6,0.7,1.1,0.7
		c1,0,1.6-1,1.6-2.3C67.8,207.7,67.3,206.7,66.2,206.7z M62.4,209.2c0,1-0.4,1.6-1.2,1.6c-0.5,0-0.8-0.4-0.8-1v-3h-0.6v3
		c0,0.9,0.5,1.6,1.3,1.6c0.5,0,1-0.3,1.3-0.7l0,0.6H63v-4.5h-0.6V209.2z M52.4,206.7c-0.5,0-0.9,0.2-1.1,0.7v-0.6h-0.6v4.5h0.6v-2.4
		c0-0.9,0.4-1.6,1-1.6c0.4,0,0.7,0.3,0.7,0.9h0.6C53.6,207.2,53.1,206.7,52.4,206.7z M47.2,207.2c0.6,0,1,0.6,1,1.4h-2.1
		C46.2,207.8,46.5,207.2,47.2,207.2z M47.2,206.7c-0.7,0-1.3,0.5-1.5,1.2c-0.1,0.4-0.2,0.7-0.2,1.2c0,0.8,0.2,1.6,0.8,2
		c0.3,0.2,0.6,0.3,1,0.3c0.8,0,1.4-0.6,1.6-1.5h-0.6c-0.1,0.6-0.5,0.9-1,0.9c-0.7,0-1.1-0.7-1.1-1.6h2.8
		C48.8,207.8,48.3,206.7,47.2,206.7z M42.1,208.1l-0.6,2.2l-0.5-3.5h-0.6l0.7,4.5h0.6l0.7-2.4l0.7,2.4h0.6l0.7-4.5h-0.6l-0.5,3.5
		l-0.6-2.2H42.1z M37.6,210.8c0.8,0,1-0.8,1-1.8c0-1-0.3-1.8-1-1.8c-0.8,0-1,0.8-1,1.8C36.6,210,36.8,210.8,37.6,210.8z M37.6,206.7
		c0.7,0,1.2,0.5,1.5,1.2c0.1,0.4,0.2,0.7,0.2,1.1c0,1.3-0.5,2.3-1.6,2.3c-1.1,0-1.6-1-1.6-2.3C36,207.7,36.5,206.7,37.6,206.7z
		 M32.8,210.8c-0.7,0-1-0.7-1-1.8c0-1.1,0.4-1.8,1-1.8c0.7,0,1.1,0.8,1.1,1.8C33.9,210,33.5,210.8,32.8,210.8z M32.8,206.7
		c-0.5,0-0.9,0.3-1.1,0.7l0-0.6h-0.6v6.3h0.6v-2.4c0.2,0.4,0.6,0.7,1.1,0.7c1,0,1.6-1,1.6-2.3C34.4,207.7,33.9,206.7,32.8,206.7z"/>
	<path style="clip-path:url(#SVGID_00000122687603468503423720000004191571513334308772_);fill:#0B0B0A;" d="M159.5,195.9
		c-0.5,0-1,0.3-1.3,0.7l0-0.6h-0.6v4.5h0.6V198c0-1,0.4-1.6,1.2-1.6c0.5,0,0.8,0.4,0.8,1v3h0.6v-3
		C160.8,196.5,160.4,195.9,159.5,195.9 M154.3,200c-0.5,0-0.8-0.3-0.8-0.7c0-0.7,0.8-1,1.7-1h0.4v0.3C155.5,199.4,155,200,154.3,200
		 M154.7,195.9c-0.8,0-1.4,0.5-1.5,1.4h0.6c0-0.5,0.4-0.8,0.9-0.8c0.5,0,0.8,0.3,0.8,1v0.3h-0.3c-1.3,0-2.3,0.4-2.3,1.5
		c0,0.8,0.6,1.3,1.4,1.3c0.5,0,1-0.3,1.3-0.8l0,0.7h0.6l0-3C156.1,196.5,155.5,195.9,154.7,195.9 M149.8,200c-0.7,0-1.1-0.8-1.1-1.8
		c0-1,0.4-1.8,1.1-1.8c0.5,0,0.8,0.4,0.9,1h0.6c-0.1-0.9-0.7-1.5-1.5-1.5c-0.7,0-1.3,0.4-1.5,1.2c-0.1,0.4-0.2,0.7-0.2,1.2v0
		c0,0.9,0.3,1.6,0.8,2c0.3,0.2,0.6,0.3,0.9,0.3c0.8,0,1.4-0.6,1.5-1.5h-0.6C150.6,199.6,150.3,200,149.8,200 M141.6,199.7
		c-0.2,0.1-0.6,0.2-0.8,0.2c-0.4,0-0.6-0.2-0.6-0.6v-2.7h1.4V196h-1.4v-1.5h-0.6v1.5h-1.1v0.5h1.1v2.7c0,0.7,0.4,1.2,1.2,1.2
		c0.3,0,0.7-0.1,0.9-0.2L141.6,199.7z M135.2,200c-0.5,0-0.8-0.3-0.8-0.7c0-0.7,0.8-1,1.7-1h0.4v0.3
		C136.4,199.4,135.9,200,135.2,200 M135.6,195.9c-0.8,0-1.4,0.5-1.5,1.4h0.6c0-0.5,0.5-0.8,0.9-0.8c0.5,0,0.8,0.3,0.8,1v0.3h-0.3
		c-1.3,0-2.3,0.4-2.3,1.5c0,0.8,0.6,1.3,1.4,1.3c0.5,0,1-0.3,1.3-0.8l0,0.7h0.6l0-3C137,196.5,136.5,195.9,135.6,195.9 M130.8,195.9
		c-0.5,0-1,0.3-1.3,0.7l0-0.6v-1.8H129v6.3h0.6V198c0-1,0.4-1.6,1.2-1.6c0.5,0,0.8,0.4,0.8,1v3h0.6v-3
		C132.1,196.5,131.7,195.9,130.8,195.9 M127.2,199.7c-0.2,0.1-0.6,0.2-0.8,0.2c-0.4,0-0.6-0.2-0.6-0.6v-2.7h1.3V196h-1.3v-1.5h-0.6
		v1.5h-1.1v0.5h1.1v2.7c0,0.7,0.4,1.2,1.2,1.2c0.3,0,0.7-0.1,0.9-0.2L127.2,199.7z M114.6,196l1.5,4.5l-0.5,1.6h0.6l2-6.1h-0.6
		l-1.1,3.7l-1.2-3.7H114.6z M112.9,199.7c-0.2,0.1-0.6,0.2-0.8,0.2c-0.4,0-0.6-0.2-0.6-0.6v-2.7h1.3V196h-1.3v-1.5H111v1.5h-1.1v0.5
		h1.1v2.7c0,0.7,0.4,1.2,1.2,1.2c0.3,0,0.7-0.1,0.9-0.2L112.9,199.7z M108.3,199.9h-1.2V196h-1.6v0.6h1v3.4h-1.2v0.6h3V199.9z
		 M106.7,195.3c0.3,0,0.4-0.2,0.4-0.5c0-0.2-0.2-0.4-0.4-0.4c-0.3,0-0.4,0.2-0.4,0.4C106.3,195.1,106.5,195.3,106.7,195.3
		 M102.1,200c-0.7,0-1.1-0.8-1.1-1.8c0-1,0.4-1.8,1.1-1.8c0.5,0,0.8,0.4,0.9,1h0.6c-0.1-0.9-0.7-1.5-1.5-1.5c-0.7,0-1.3,0.4-1.5,1.2
		c-0.1,0.4-0.2,0.7-0.2,1.2v0c0,0.9,0.3,1.6,0.8,2c0.3,0.2,0.6,0.3,0.9,0.3c0.8,0,1.4-0.6,1.5-1.5H103
		C102.9,199.6,102.6,200,102.1,200 M98.7,199.9h-1.2V196H96v0.6h1v3.4h-1.2v0.6h3V199.9z M97.2,195.3c0.3,0,0.4-0.2,0.4-0.5
		c0-0.2-0.2-0.4-0.4-0.4c-0.3,0-0.5,0.2-0.5,0.4C96.7,195.1,96.9,195.3,97.2,195.3 M93,195.9c-0.5,0-0.9,0.2-1.1,0.7V196h-0.6v4.5
		h0.6V198c0-0.9,0.4-1.6,1-1.6c0.4,0,0.7,0.3,0.7,0.9h0.6C94.1,196.4,93.7,195.9,93,195.9 M89.1,199.7c-0.2,0.1-0.6,0.2-0.8,0.2
		c-0.4,0-0.6-0.2-0.6-0.6v-2.7H89V196h-1.3v-1.5h-0.6v1.5H86v0.5h1.1v2.7c0,0.7,0.4,1.2,1.2,1.2c0.3,0,0.7-0.1,0.9-0.2L89.1,199.7z
		 M83,200c-0.7,0-1.1-0.8-1.1-1.8c0-1,0.4-1.8,1.1-1.8c0.5,0,0.8,0.4,0.9,1h0.6c-0.1-0.9-0.7-1.5-1.5-1.5c-0.7,0-1.3,0.4-1.5,1.2
		c-0.1,0.4-0.2,0.7-0.2,1.2v0c0,0.9,0.3,1.6,0.8,2c0.3,0.2,0.6,0.3,0.9,0.3c0.8,0,1.4-0.6,1.5-1.5h-0.6C83.8,199.6,83.5,200,83,200
		 M78.2,196.4c0.6,0,1,0.6,1,1.4h-2.1C77.2,197,77.5,196.4,78.2,196.4 M78.2,195.9c-0.7,0-1.3,0.5-1.5,1.2c-0.1,0.4-0.2,0.7-0.2,1.2
		c0,0.8,0.2,1.6,0.8,2c0.3,0.2,0.6,0.3,1,0.3c0.8,0,1.4-0.6,1.6-1.5h-0.6c-0.1,0.6-0.4,0.9-1,0.9c-0.7,0-1.1-0.7-1.1-1.6h2.8
		C79.8,197,79.3,195.9,78.2,195.9 M74.9,199.9h-1.2v-5.2l0-0.6h-1.6v0.6h1v5.2h-1.3v0.6h3.1V199.9z M68.6,196.4c0.6,0,1,0.6,1,1.4
		h-2.1C67.6,197,68,196.4,68.6,196.4 M68.6,195.9c-0.7,0-1.3,0.5-1.5,1.2c-0.1,0.4-0.2,0.7-0.2,1.2c0,0.8,0.2,1.6,0.8,2
		c0.3,0.2,0.6,0.3,1,0.3c0.8,0,1.4-0.6,1.6-1.5h-0.6c-0.1,0.6-0.5,0.9-1,0.9c-0.7,0-1.1-0.7-1.1-1.6h2.8
		C70.3,197,69.8,195.9,68.6,195.9 M60.7,194.3c-0.3-0.1-0.7-0.2-1-0.2c-0.8,0-1.2,0.5-1.2,1.2v0.6h-1.1v0.6h1.1v3.9h0.6v-3.9h1.4
		V196h-1.4v-0.6c0-0.5,0.2-0.6,0.7-0.6c0.2,0,0.6,0.1,0.8,0.2L60.7,194.3z M54.3,200c0.8,0,1-0.8,1-1.8c0-1-0.3-1.8-1-1.8
		c-0.8,0-1,0.8-1,1.8C53.3,199.2,53.5,200,54.3,200 M54.3,195.9c0.7,0,1.2,0.5,1.5,1.2c0.1,0.4,0.2,0.7,0.2,1.1
		c0,1.3-0.5,2.3-1.6,2.3c-1.1,0-1.6-1-1.6-2.3C52.7,196.9,53.2,195.9,54.3,195.9 M46.2,199.7c-0.2,0.1-0.6,0.2-0.8,0.2
		c-0.4,0-0.6-0.2-0.6-0.6v-2.7h1.3V196h-1.3v-1.5h-0.6v1.5h-1.1v0.5h1.1v2.7c0,0.7,0.4,1.2,1.2,1.2c0.3,0,0.7-0.1,0.9-0.2
		L46.2,199.7z M40.3,195.9c-0.5,0-1,0.3-1.3,0.7l0-0.6h-0.6v4.5H39V198c0-1,0.4-1.6,1.2-1.6c0.5,0,0.8,0.4,0.8,1v3h0.6v-3
		C41.6,196.5,41.1,195.9,40.3,195.9 M36.2,198.4c0,1-0.4,1.6-1.2,1.6c-0.5,0-0.8-0.4-0.8-1v-3h-0.6v3c0,0.9,0.5,1.6,1.3,1.6
		c0.5,0,1-0.3,1.3-0.7l0,0.6h0.6V196h-0.6V198.4z M30.5,200c0.8,0,1-0.8,1-1.8c0-1-0.3-1.8-1-1.8c-0.8,0-1,0.8-1,1.8
		C29.4,199.2,29.7,200,30.5,200 M30.4,195.9c0.7,0,1.2,0.5,1.5,1.2c0.1,0.4,0.2,0.7,0.2,1.1c0,1.3-0.5,2.3-1.6,2.3
		c-1.1,0-1.6-1-1.6-2.3C28.8,196.9,29.4,195.9,30.4,195.9 M26.7,195.9c-0.4,0-0.7,0.3-0.8,0.7c-0.1-0.4-0.3-0.7-0.7-0.7
		c-0.3,0-0.6,0.2-0.8,0.7l0-0.6h-0.5l0,4.5h0.6v-2.7c0-0.7,0.2-1.3,0.6-1.3c0.2,0,0.3,0.1,0.3,0.2c0,0.1,0.1,0.4,0.1,0.7v3.1H26
		v-2.7c0-0.8,0.1-1.3,0.6-1.3c0.3,0,0.4,0.3,0.4,0.8v3.3h0.6v-3.3C27.5,196.4,27.3,195.9,26.7,195.9 M20.7,200
		c-0.5,0-0.8-0.3-0.8-0.7c0-0.7,0.8-1,1.7-1h0.4v0.3C21.9,199.4,21.5,200,20.7,200 M21.1,195.9c-0.8,0-1.4,0.5-1.5,1.4h0.6
		c0-0.5,0.5-0.8,0.9-0.8c0.5,0,0.8,0.3,0.8,1v0.3h-0.3c-1.3,0-2.3,0.4-2.3,1.5c0,0.8,0.6,1.3,1.4,1.3c0.5,0,1-0.3,1.3-0.8l0,0.7h0.6
		l0-3C22.5,196.5,22,195.9,21.1,195.9"/>
	
		<path style="clip-path:url(#SVGID_00000122687603468503423720000004191571513334308772_);fill:none;stroke:#0B0B0A;stroke-width:0.15;" d="
		M159.5,195.9c-0.5,0-1,0.3-1.3,0.7l0-0.6h-0.6v4.5h0.6V198c0-1,0.4-1.6,1.2-1.6c0.5,0,0.8,0.4,0.8,1v3h0.6v-3
		C160.8,196.5,160.4,195.9,159.5,195.9z M154.3,200c-0.5,0-0.8-0.3-0.8-0.7c0-0.7,0.8-1,1.7-1h0.4v0.3
		C155.5,199.4,155,200,154.3,200z M154.7,195.9c-0.8,0-1.4,0.5-1.5,1.4h0.6c0-0.5,0.4-0.8,0.9-0.8c0.5,0,0.8,0.3,0.8,1v0.3h-0.3
		c-1.3,0-2.3,0.4-2.3,1.5c0,0.8,0.6,1.3,1.4,1.3c0.5,0,1-0.3,1.3-0.8l0,0.7h0.6l0-3C156.1,196.5,155.5,195.9,154.7,195.9z
		 M149.8,200c-0.7,0-1.1-0.8-1.1-1.8c0-1,0.4-1.8,1.1-1.8c0.5,0,0.8,0.4,0.9,1h0.6c-0.1-0.9-0.7-1.5-1.5-1.5c-0.7,0-1.3,0.4-1.5,1.2
		c-0.1,0.4-0.2,0.7-0.2,1.2v0c0,0.9,0.3,1.6,0.8,2c0.3,0.2,0.6,0.3,0.9,0.3c0.8,0,1.4-0.6,1.5-1.5h-0.6
		C150.6,199.6,150.3,200,149.8,200z M141.6,199.7c-0.2,0.1-0.6,0.2-0.8,0.2c-0.4,0-0.6-0.2-0.6-0.6v-2.7h1.4V196h-1.4v-1.5h-0.6v1.5
		h-1.1v0.5h1.1v2.7c0,0.7,0.4,1.2,1.2,1.2c0.3,0,0.7-0.1,0.9-0.2L141.6,199.7z M135.2,200c-0.5,0-0.8-0.3-0.8-0.7c0-0.7,0.8-1,1.7-1
		h0.4v0.3C136.4,199.4,135.9,200,135.2,200z M135.6,195.9c-0.8,0-1.4,0.5-1.5,1.4h0.6c0-0.5,0.5-0.8,0.9-0.8c0.5,0,0.8,0.3,0.8,1
		v0.3h-0.3c-1.3,0-2.3,0.4-2.3,1.5c0,0.8,0.6,1.3,1.4,1.3c0.5,0,1-0.3,1.3-0.8l0,0.7h0.6l0-3C137,196.5,136.5,195.9,135.6,195.9z
		 M130.8,195.9c-0.5,0-1,0.3-1.3,0.7l0-0.6v-1.8H129v6.3h0.6V198c0-1,0.4-1.6,1.2-1.6c0.5,0,0.8,0.4,0.8,1v3h0.6v-3
		C132.1,196.5,131.7,195.9,130.8,195.9z M127.2,199.7c-0.2,0.1-0.6,0.2-0.8,0.2c-0.4,0-0.6-0.2-0.6-0.6v-2.7h1.3V196h-1.3v-1.5h-0.6
		v1.5h-1.1v0.5h1.1v2.7c0,0.7,0.4,1.2,1.2,1.2c0.3,0,0.7-0.1,0.9-0.2L127.2,199.7z M114.6,196l1.5,4.5l-0.5,1.6h0.6l2-6.1h-0.6
		l-1.1,3.7l-1.2-3.7H114.6z M112.9,199.7c-0.2,0.1-0.6,0.2-0.8,0.2c-0.4,0-0.6-0.2-0.6-0.6v-2.7h1.3V196h-1.3v-1.5H111v1.5h-1.1v0.5
		h1.1v2.7c0,0.7,0.4,1.2,1.2,1.2c0.3,0,0.7-0.1,0.9-0.2L112.9,199.7z M108.3,199.9h-1.2V196h-1.6v0.6h1v3.4h-1.2v0.6h3V199.9z
		 M106.7,195.3c0.3,0,0.4-0.2,0.4-0.5c0-0.2-0.2-0.4-0.4-0.4c-0.3,0-0.4,0.2-0.4,0.4C106.3,195.1,106.5,195.3,106.7,195.3z
		 M102.1,200c-0.7,0-1.1-0.8-1.1-1.8c0-1,0.4-1.8,1.1-1.8c0.5,0,0.8,0.4,0.9,1h0.6c-0.1-0.9-0.7-1.5-1.5-1.5c-0.7,0-1.3,0.4-1.5,1.2
		c-0.1,0.4-0.2,0.7-0.2,1.2v0c0,0.9,0.3,1.6,0.8,2c0.3,0.2,0.6,0.3,0.9,0.3c0.8,0,1.4-0.6,1.5-1.5H103
		C102.9,199.6,102.6,200,102.1,200z M98.7,199.9h-1.2V196H96v0.6h1v3.4h-1.2v0.6h3V199.9z M97.2,195.3c0.3,0,0.4-0.2,0.4-0.5
		c0-0.2-0.2-0.4-0.4-0.4c-0.3,0-0.5,0.2-0.5,0.4C96.7,195.1,96.9,195.3,97.2,195.3z M93,195.9c-0.5,0-0.9,0.2-1.1,0.7V196h-0.6v4.5
		h0.6V198c0-0.9,0.4-1.6,1-1.6c0.4,0,0.7,0.3,0.7,0.9h0.6C94.1,196.4,93.7,195.9,93,195.9z M89.1,199.7c-0.2,0.1-0.6,0.2-0.8,0.2
		c-0.4,0-0.6-0.2-0.6-0.6v-2.7H89V196h-1.3v-1.5h-0.6v1.5H86v0.5h1.1v2.7c0,0.7,0.4,1.2,1.2,1.2c0.3,0,0.7-0.1,0.9-0.2L89.1,199.7z
		 M83,200c-0.7,0-1.1-0.8-1.1-1.8c0-1,0.4-1.8,1.1-1.8c0.5,0,0.8,0.4,0.9,1h0.6c-0.1-0.9-0.7-1.5-1.5-1.5c-0.7,0-1.3,0.4-1.5,1.2
		c-0.1,0.4-0.2,0.7-0.2,1.2v0c0,0.9,0.3,1.6,0.8,2c0.3,0.2,0.6,0.3,0.9,0.3c0.8,0,1.4-0.6,1.5-1.5h-0.6C83.8,199.6,83.5,200,83,200z
		 M78.2,196.4c0.6,0,1,0.6,1,1.4h-2.1C77.2,197,77.5,196.4,78.2,196.4z M78.2,195.9c-0.7,0-1.3,0.5-1.5,1.2
		c-0.1,0.4-0.2,0.7-0.2,1.2c0,0.8,0.2,1.6,0.8,2c0.3,0.2,0.6,0.3,1,0.3c0.8,0,1.4-0.6,1.6-1.5h-0.6c-0.1,0.6-0.4,0.9-1,0.9
		c-0.7,0-1.1-0.7-1.1-1.6h2.8C79.8,197,79.3,195.9,78.2,195.9z M74.9,199.9h-1.2v-5.2l0-0.6h-1.6v0.6h1v5.2h-1.3v0.6h3.1V199.9z
		 M68.6,196.4c0.6,0,1,0.6,1,1.4h-2.1C67.6,197,68,196.4,68.6,196.4z M68.6,195.9c-0.7,0-1.3,0.5-1.5,1.2c-0.1,0.4-0.2,0.7-0.2,1.2
		c0,0.8,0.2,1.6,0.8,2c0.3,0.2,0.6,0.3,1,0.3c0.8,0,1.4-0.6,1.6-1.5h-0.6c-0.1,0.6-0.5,0.9-1,0.9c-0.7,0-1.1-0.7-1.1-1.6h2.8
		C70.3,197,69.8,195.9,68.6,195.9z M60.7,194.3c-0.3-0.1-0.7-0.2-1-0.2c-0.8,0-1.2,0.5-1.2,1.2v0.6h-1.1v0.6h1.1v3.9h0.6v-3.9h1.4
		V196h-1.4v-0.6c0-0.5,0.2-0.6,0.7-0.6c0.2,0,0.6,0.1,0.8,0.2L60.7,194.3z M54.3,200c0.8,0,1-0.8,1-1.8c0-1-0.3-1.8-1-1.8
		c-0.8,0-1,0.8-1,1.8C53.3,199.2,53.5,200,54.3,200z M54.3,195.9c0.7,0,1.2,0.5,1.5,1.2c0.1,0.4,0.2,0.7,0.2,1.1
		c0,1.3-0.5,2.3-1.6,2.3c-1.1,0-1.6-1-1.6-2.3C52.7,196.9,53.2,195.9,54.3,195.9z M46.2,199.7c-0.2,0.1-0.6,0.2-0.8,0.2
		c-0.4,0-0.6-0.2-0.6-0.6v-2.7h1.3V196h-1.3v-1.5h-0.6v1.5h-1.1v0.5h1.1v2.7c0,0.7,0.4,1.2,1.2,1.2c0.3,0,0.7-0.1,0.9-0.2
		L46.2,199.7z M40.3,195.9c-0.5,0-1,0.3-1.3,0.7l0-0.6h-0.6v4.5H39V198c0-1,0.4-1.6,1.2-1.6c0.5,0,0.8,0.4,0.8,1v3h0.6v-3
		C41.6,196.5,41.1,195.9,40.3,195.9z M36.2,198.4c0,1-0.4,1.6-1.2,1.6c-0.5,0-0.8-0.4-0.8-1v-3h-0.6v3c0,0.9,0.5,1.6,1.3,1.6
		c0.5,0,1-0.3,1.3-0.7l0,0.6h0.6V196h-0.6V198.4z M30.5,200c0.8,0,1-0.8,1-1.8c0-1-0.3-1.8-1-1.8c-0.8,0-1,0.8-1,1.8
		C29.4,199.2,29.7,200,30.5,200z M30.4,195.9c0.7,0,1.2,0.5,1.5,1.2c0.1,0.4,0.2,0.7,0.2,1.1c0,1.3-0.5,2.3-1.6,2.3
		c-1.1,0-1.6-1-1.6-2.3C28.8,196.9,29.4,195.9,30.4,195.9z M26.7,195.9c-0.4,0-0.7,0.3-0.8,0.7c-0.1-0.4-0.3-0.7-0.7-0.7
		c-0.3,0-0.6,0.2-0.8,0.7l0-0.6h-0.5l0,4.5h0.6v-2.7c0-0.7,0.2-1.3,0.6-1.3c0.2,0,0.3,0.1,0.3,0.2c0,0.1,0.1,0.4,0.1,0.7v3.1H26
		v-2.7c0-0.8,0.1-1.3,0.6-1.3c0.3,0,0.4,0.3,0.4,0.8v3.3h0.6v-3.3C27.5,196.4,27.3,195.9,26.7,195.9z M20.7,200
		c-0.5,0-0.8-0.3-0.8-0.7c0-0.7,0.8-1,1.7-1h0.4v0.3C21.9,199.4,21.5,200,20.7,200z M21.1,195.9c-0.8,0-1.4,0.5-1.5,1.4h0.6
		c0-0.5,0.5-0.8,0.9-0.8c0.5,0,0.8,0.3,0.8,1v0.3h-0.3c-1.3,0-2.3,0.4-2.3,1.5c0,0.8,0.6,1.3,1.4,1.3c0.5,0,1-0.3,1.3-0.8l0,0.7h0.6
		l0-3C22.5,196.5,22,195.9,21.1,195.9z"/>
	<path style="clip-path:url(#SVGID_00000122687603468503423720000004191571513334308772_);fill:#0B0B0A;" d="M166.4,185.6
		c0.6,0,1,0.6,1,1.4h-2.1C165.4,186.2,165.8,185.6,166.4,185.6 M166.4,185.1c-0.7,0-1.3,0.5-1.5,1.2c-0.1,0.4-0.2,0.7-0.2,1.2
		c0,0.8,0.2,1.6,0.8,2c0.3,0.2,0.6,0.3,1,0.3c0.8,0,1.4-0.6,1.6-1.5h-0.6c-0.1,0.6-0.5,0.9-1,0.9c-0.7,0-1.1-0.7-1.1-1.6h2.8
		C168.1,186.2,167.6,185.1,166.4,185.1 M162.6,185.1c-0.4,0-0.7,0.3-0.8,0.7c-0.1-0.4-0.3-0.7-0.7-0.7c-0.3,0-0.6,0.2-0.8,0.7l0-0.6
		h-0.5l0,4.5h0.6V187c0-0.7,0.2-1.3,0.6-1.3c0.2,0,0.3,0.1,0.3,0.2c0,0.1,0.1,0.4,0.1,0.7v3.1h0.6V187c0-0.8,0.1-1.3,0.6-1.3
		c0.3,0,0.4,0.3,0.4,0.8v3.3h0.6v-3.3C163.5,185.6,163.2,185.1,162.6,185.1 M156.7,189.2c-0.5,0-0.8-0.3-0.8-0.7c0-0.7,0.8-1,1.7-1
		h0.4v0.3C157.9,188.6,157.4,189.2,156.7,189.2 M157.1,185.1c-0.8,0-1.4,0.5-1.5,1.3h0.6c0-0.5,0.5-0.8,0.9-0.8c0.5,0,0.8,0.3,0.8,1
		v0.3h-0.3c-1.3,0-2.3,0.4-2.3,1.5c0,0.8,0.6,1.3,1.4,1.3c0.5,0,1-0.3,1.3-0.8l0,0.7h0.6l0-3C158.5,185.7,157.9,185.1,157.1,185.1
		 M153.6,186.3c-0.1-0.8-0.7-1.2-1.5-1.2c-0.8,0-1.4,0.5-1.4,1.2c0,0.5,0.3,0.8,0.9,1.1l1,0.5c0.3,0.2,0.5,0.3,0.5,0.7
		c0,0.4-0.4,0.7-0.9,0.7c-0.5,0-0.9-0.3-1.1-0.8h-0.6c0.2,0.9,0.9,1.4,1.7,1.4c0.5,0,1-0.2,1.3-0.6c0.1-0.2,0.2-0.4,0.2-0.6
		c0-0.6-0.3-0.9-0.8-1.2l-1-0.5c-0.4-0.2-0.6-0.3-0.6-0.6c0-0.4,0.4-0.6,0.9-0.6c0.4,0,0.8,0.2,0.9,0.7H153.6z M142.6,185.6
		c0.6,0,1,0.6,1,1.4h-2.1C141.6,186.2,141.9,185.6,142.6,185.6 M142.6,185.1c-0.7,0-1.3,0.5-1.5,1.2c-0.1,0.4-0.2,0.7-0.2,1.2
		c0,0.8,0.2,1.6,0.8,2c0.3,0.2,0.6,0.3,1,0.3c0.8,0,1.4-0.6,1.6-1.5h-0.6c-0.1,0.6-0.5,0.9-1,0.9c-0.7,0-1.1-0.7-1.1-1.6h2.8
		C144.2,186.2,143.7,185.1,142.6,185.1 M138,185.1c-0.5,0-1,0.3-1.3,0.7l0-0.6v-1.8h-0.6v6.3h0.6v-2.4c0-1,0.4-1.6,1.2-1.6
		c0.6,0,0.8,0.4,0.8,1v3h0.6v-3C139.3,185.7,138.8,185.1,138,185.1 M134.4,188.9c-0.2,0.1-0.6,0.2-0.8,0.2c-0.4,0-0.6-0.2-0.6-0.6
		v-2.7h1.4v-0.5H133v-1.5h-0.6v1.5h-1.1v0.5h1.1v2.7c0,0.7,0.4,1.2,1.2,1.2c0.3,0,0.7-0.1,0.9-0.2L134.4,188.9z M125,186.3
		c-0.1-0.8-0.7-1.2-1.5-1.2c-0.8,0-1.4,0.5-1.4,1.2c0,0.5,0.3,0.8,0.9,1.1l1,0.5c0.3,0.2,0.5,0.3,0.5,0.7c0,0.4-0.4,0.7-0.9,0.7
		c-0.5,0-0.9-0.3-1.1-0.8h-0.6c0.2,0.9,0.9,1.4,1.7,1.4c0.5,0,1-0.2,1.3-0.6c0.1-0.2,0.2-0.4,0.2-0.6c0-0.6-0.3-0.9-0.8-1.2l-1-0.5
		c-0.4-0.2-0.6-0.3-0.6-0.6c0-0.4,0.4-0.6,0.9-0.6c0.4,0,0.8,0.2,0.9,0.7H125z M118.7,185.6c0.6,0,1,0.6,1,1.4h-2.1
		C117.7,186.2,118.1,185.6,118.7,185.6 M118.7,185.1c-0.7,0-1.3,0.5-1.5,1.2c-0.1,0.4-0.2,0.7-0.2,1.2c0,0.8,0.2,1.6,0.8,2
		c0.3,0.2,0.6,0.3,1,0.3c0.8,0,1.4-0.6,1.6-1.5h-0.6c-0.1,0.6-0.5,0.9-1,0.9c-0.7,0-1.1-0.7-1.1-1.6h2.8
		C120.4,186.2,119.9,185.1,118.7,185.1 M115.5,186.3c-0.1-0.8-0.7-1.2-1.5-1.2c-0.8,0-1.4,0.5-1.4,1.2c0,0.5,0.3,0.8,0.9,1.1l1,0.5
		c0.3,0.2,0.5,0.3,0.5,0.7c0,0.4-0.4,0.7-0.9,0.7c-0.5,0-0.9-0.3-1.1-0.8h-0.6c0.2,0.9,0.9,1.4,1.7,1.4c0.5,0,1-0.2,1.3-0.6
		c0.1-0.2,0.2-0.4,0.2-0.6c0-0.6-0.3-0.9-0.8-1.2l-1-0.5c-0.4-0.2-0.6-0.3-0.6-0.6c0-0.4,0.4-0.6,0.9-0.6c0.4,0,0.8,0.2,0.9,0.7
		H115.5z M110.1,187.6c0,1-0.4,1.6-1.2,1.6c-0.5,0-0.8-0.4-0.8-1v-3h-0.6v3c0,0.9,0.5,1.6,1.3,1.6c0.5,0,1-0.3,1.3-0.7l0,0.6h0.6
		v-4.5h-0.6V187.6z M100.1,185.1c-0.5,0-0.9,0.2-1.1,0.7v-0.6h-0.6v4.5H99v-2.4c0-0.9,0.4-1.6,1-1.6c0.4,0,0.7,0.3,0.7,0.9h0.6
		C101.3,185.6,100.8,185.1,100.1,185.1 M94.9,185.6c0.6,0,1,0.6,1,1.4h-2.1C93.9,186.2,94.2,185.6,94.9,185.6 M94.9,185.1
		c-0.7,0-1.3,0.5-1.5,1.2c-0.1,0.4-0.2,0.7-0.2,1.2c0,0.8,0.2,1.6,0.8,2c0.3,0.2,0.6,0.3,1,0.3c0.8,0,1.4-0.6,1.6-1.5h-0.6
		c-0.1,0.6-0.5,0.9-1,0.9c-0.7,0-1.1-0.7-1.1-1.6h2.8C96.5,186.2,96,185.1,94.9,185.1 M91.5,188.9c-0.2,0.1-0.6,0.2-0.8,0.2
		c-0.4,0-0.6-0.2-0.6-0.6v-2.7h1.4v-0.5h-1.4v-1.5h-0.6v1.5h-1.1v0.5h1.1v2.7c0,0.7,0.4,1.2,1.2,1.2c0.3,0,0.7-0.1,0.9-0.2
		L91.5,188.9z M85.6,185.1c-0.5,0-1,0.3-1.3,0.7l0-0.6h-0.6v4.5h0.6v-2.4c0-1,0.4-1.6,1.2-1.6c0.5,0,0.8,0.4,0.8,1v3h0.6v-3
		C86.9,185.7,86.4,185.1,85.6,185.1 M80.6,185.6c0.6,0,1,0.6,1,1.4h-2.1C79.6,186.2,79.9,185.6,80.6,185.6 M80.6,185.1
		c-0.7,0-1.3,0.5-1.5,1.2c-0.1,0.4-0.2,0.7-0.2,1.2c0,0.8,0.2,1.6,0.8,2c0.3,0.2,0.6,0.3,1,0.3c0.8,0,1.4-0.6,1.6-1.5h-0.6
		c-0.1,0.6-0.4,0.9-1,0.9c-0.7,0-1.1-0.7-1.1-1.6h2.8C82.2,186.2,81.7,185.1,80.6,185.1 M75.9,189.2c-0.7,0-1.1-0.8-1.1-1.8
		c0-1,0.4-1.8,1.1-1.8c0.5,0,0.8,0.4,0.9,1h0.6c-0.1-0.9-0.7-1.5-1.5-1.5c-0.7,0-1.3,0.4-1.5,1.2c-0.1,0.4-0.2,0.7-0.2,1.2v0
		c0,0.9,0.3,1.6,0.8,2c0.3,0.2,0.6,0.3,0.9,0.3c0.8,0,1.4-0.6,1.5-1.5h-0.6C76.7,188.8,76.4,189.2,75.9,189.2 M66,189.2
		c-0.5,0-0.8-0.3-0.8-0.7c0-0.7,0.8-1,1.7-1h0.4v0.3C67.3,188.6,66.8,189.2,66,189.2 M66.4,185.1c-0.8,0-1.4,0.5-1.5,1.3h0.6
		c0-0.5,0.4-0.8,0.9-0.8c0.5,0,0.8,0.3,0.8,1v0.3h-0.3c-1.3,0-2.3,0.4-2.3,1.5c0,0.8,0.6,1.3,1.4,1.3c0.5,0,1-0.3,1.3-0.8l0,0.7h0.6
		l0-3C67.8,185.7,67.3,185.1,66.4,185.1 M62.9,188.9c-0.2,0.1-0.6,0.2-0.8,0.2c-0.4,0-0.6-0.2-0.6-0.6v-2.7h1.4v-0.5h-1.4v-1.5h-0.6
		v1.5h-1.1v0.5h1.1v2.7c0,0.7,0.4,1.2,1.2,1.2c0.3,0,0.7-0.1,0.9-0.2L62.9,188.9z M56.5,189.2c-0.5,0-0.8-0.3-0.8-0.7
		c0-0.7,0.8-1,1.7-1h0.4v0.3C57.7,188.6,57.2,189.2,56.5,189.2 M56.9,185.1c-0.8,0-1.4,0.5-1.5,1.3H56c0-0.5,0.5-0.8,0.9-0.8
		c0.5,0,0.8,0.3,0.8,1v0.3h-0.3c-1.3,0-2.3,0.4-2.3,1.5c0,0.8,0.6,1.3,1.4,1.3c0.5,0,1-0.3,1.3-0.8l0,0.7h0.6l0-3
		C58.3,185.7,57.8,185.1,56.9,185.1 M52,189.2c-0.7,0-1.1-0.8-1.1-1.8c0-1,0.3-1.8,1.1-1.8c0.7,0,1,0.7,1,1.8
		C53,188.5,52.6,189.2,52,189.2 M52.9,185.8c-0.2-0.4-0.6-0.7-1.1-0.7c-1,0-1.6,1-1.6,2.3c0,1.3,0.6,2.3,1.6,2.3
		c0.5,0,0.9-0.3,1.1-0.7l0,0.6h0.6v-6.3h-0.6V185.8z M42.4,185.6c0.6,0,1,0.6,1,1.4h-2.1C41.4,186.2,41.8,185.6,42.4,185.6
		 M42.4,185.1c-0.7,0-1.3,0.5-1.5,1.2c-0.1,0.4-0.2,0.7-0.2,1.2c0,0.8,0.2,1.6,0.8,2c0.3,0.2,0.6,0.3,1,0.3c0.8,0,1.4-0.6,1.6-1.5
		h-0.6c-0.1,0.6-0.5,0.9-1,0.9c-0.7,0-1.1-0.7-1.1-1.6H44C44.1,186.2,43.6,185.1,42.4,185.1 M39.1,189.1h-1.2v-5.2l0-0.6h-1.6v0.6h1
		v5.2h-1.3v0.6h3.1V189.1z M32.7,189.2c-0.7,0-1.1-0.8-1.1-1.8c0-1,0.3-1.8,1.1-1.8c0.7,0,1,0.7,1,1.8
		C33.8,188.5,33.4,189.2,32.7,189.2 M33.7,185.2v0.6c-0.2-0.4-0.6-0.7-1.1-0.7c-1,0-1.6,1-1.6,2.3c0,1.3,0.6,2.3,1.6,2.3
		c0.5,0,0.9-0.3,1.1-0.7v0.7c0,0.8-0.3,1.1-1,1.1c-0.4,0-0.9-0.2-0.9-0.7h-0.6c0,0.5,0.4,0.9,0.8,1.1c0.2,0.1,0.5,0.1,0.7,0.1
		c1,0,1.5-0.6,1.5-1.7v-2.3l0-2.2H33.7z M28.3,185.1c-0.5,0-1,0.3-1.3,0.7l0-0.6h-0.6v4.5h0.6v-2.4c0-1,0.4-1.6,1.2-1.6
		c0.5,0,0.8,0.4,0.8,1v3h0.6v-3C29.6,185.7,29.2,185.1,28.3,185.1 M24.8,189.1h-1.2v-3.9H22v0.6h1v3.4h-1.2v0.6h3V189.1z
		 M23.2,184.5c0.3,0,0.5-0.2,0.5-0.5c0-0.2-0.2-0.4-0.5-0.4c-0.3,0-0.4,0.2-0.4,0.4C22.8,184.3,23,184.5,23.2,184.5 M16.7,187.9
		c0.1,0.8,0.5,1.3,1,1.6c0.3,0.2,0.6,0.2,0.9,0.2c0.6,0,1.2-0.3,1.5-0.8c0.2-0.2,0.3-0.5,0.3-0.8c0-0.7-0.4-1.2-1.1-1.7l-1.1-0.7
		c-0.4-0.3-0.7-0.5-0.7-1c0-0.6,0.5-0.9,1.1-0.9c0.6,0,1.1,0.5,1.2,1.2h0.6c-0.1-0.7-0.4-1.3-0.9-1.6c-0.3-0.2-0.5-0.2-0.8-0.2
		c-0.6,0-1.1,0.3-1.4,0.7c-0.2,0.2-0.2,0.5-0.2,0.8c0,0.6,0.4,1.1,1,1.5l1.1,0.7c0.6,0.4,0.8,0.6,0.8,1.2c0,0.6-0.6,1.1-1.2,1.1
		c-0.7,0-1.3-0.5-1.4-1.3H16.7z"/>
	
		<path style="clip-path:url(#SVGID_00000122687603468503423720000004191571513334308772_);fill:none;stroke:#0B0B0A;stroke-width:0.15;" d="
		M166.4,185.6c0.6,0,1,0.6,1,1.4h-2.1C165.4,186.2,165.8,185.6,166.4,185.6z M166.4,185.1c-0.7,0-1.3,0.5-1.5,1.2
		c-0.1,0.4-0.2,0.7-0.2,1.2c0,0.8,0.2,1.6,0.8,2c0.3,0.2,0.6,0.3,1,0.3c0.8,0,1.4-0.6,1.6-1.5h-0.6c-0.1,0.6-0.5,0.9-1,0.9
		c-0.7,0-1.1-0.7-1.1-1.6h2.8C168.1,186.2,167.6,185.1,166.4,185.1z M162.6,185.1c-0.4,0-0.7,0.3-0.8,0.7c-0.1-0.4-0.3-0.7-0.7-0.7
		c-0.3,0-0.6,0.2-0.8,0.7l0-0.6h-0.5l0,4.5h0.6V187c0-0.7,0.2-1.3,0.6-1.3c0.2,0,0.3,0.1,0.3,0.2c0,0.1,0.1,0.4,0.1,0.7v3.1h0.6V187
		c0-0.8,0.1-1.3,0.6-1.3c0.3,0,0.4,0.3,0.4,0.8v3.3h0.6v-3.3C163.5,185.6,163.2,185.1,162.6,185.1z M156.7,189.2
		c-0.5,0-0.8-0.3-0.8-0.7c0-0.7,0.8-1,1.7-1h0.4v0.3C157.9,188.6,157.4,189.2,156.7,189.2z M157.1,185.1c-0.8,0-1.4,0.5-1.5,1.3h0.6
		c0-0.5,0.5-0.8,0.9-0.8c0.5,0,0.8,0.3,0.8,1v0.3h-0.3c-1.3,0-2.3,0.4-2.3,1.5c0,0.8,0.6,1.3,1.4,1.3c0.5,0,1-0.3,1.3-0.8l0,0.7h0.6
		l0-3C158.5,185.7,157.9,185.1,157.1,185.1z M153.6,186.3c-0.1-0.8-0.7-1.2-1.5-1.2c-0.8,0-1.4,0.5-1.4,1.2c0,0.5,0.3,0.8,0.9,1.1
		l1,0.5c0.3,0.2,0.5,0.3,0.5,0.7c0,0.4-0.4,0.7-0.9,0.7c-0.5,0-0.9-0.3-1.1-0.8h-0.6c0.2,0.9,0.9,1.4,1.7,1.4c0.5,0,1-0.2,1.3-0.6
		c0.1-0.2,0.2-0.4,0.2-0.6c0-0.6-0.3-0.9-0.8-1.2l-1-0.5c-0.4-0.2-0.6-0.3-0.6-0.6c0-0.4,0.4-0.6,0.9-0.6c0.4,0,0.8,0.2,0.9,0.7
		H153.6z M142.6,185.6c0.6,0,1,0.6,1,1.4h-2.1C141.6,186.2,141.9,185.6,142.6,185.6z M142.6,185.1c-0.7,0-1.3,0.5-1.5,1.2
		c-0.1,0.4-0.2,0.7-0.2,1.2c0,0.8,0.2,1.6,0.8,2c0.3,0.2,0.6,0.3,1,0.3c0.8,0,1.4-0.6,1.6-1.5h-0.6c-0.1,0.6-0.5,0.9-1,0.9
		c-0.7,0-1.1-0.7-1.1-1.6h2.8C144.2,186.2,143.7,185.1,142.6,185.1z M138,185.1c-0.5,0-1,0.3-1.3,0.7l0-0.6v-1.8h-0.6v6.3h0.6v-2.4
		c0-1,0.4-1.6,1.2-1.6c0.6,0,0.8,0.4,0.8,1v3h0.6v-3C139.3,185.7,138.8,185.1,138,185.1z M134.4,188.9c-0.2,0.1-0.6,0.2-0.8,0.2
		c-0.4,0-0.6-0.2-0.6-0.6v-2.7h1.4v-0.5H133v-1.5h-0.6v1.5h-1.1v0.5h1.1v2.7c0,0.7,0.4,1.2,1.2,1.2c0.3,0,0.7-0.1,0.9-0.2
		L134.4,188.9z M125,186.3c-0.1-0.8-0.7-1.2-1.5-1.2c-0.8,0-1.4,0.5-1.4,1.2c0,0.5,0.3,0.8,0.9,1.1l1,0.5c0.3,0.2,0.5,0.3,0.5,0.7
		c0,0.4-0.4,0.7-0.9,0.7c-0.5,0-0.9-0.3-1.1-0.8h-0.6c0.2,0.9,0.9,1.4,1.7,1.4c0.5,0,1-0.2,1.3-0.6c0.1-0.2,0.2-0.4,0.2-0.6
		c0-0.6-0.3-0.9-0.8-1.2l-1-0.5c-0.4-0.2-0.6-0.3-0.6-0.6c0-0.4,0.4-0.6,0.9-0.6c0.4,0,0.8,0.2,0.9,0.7H125z M118.7,185.6
		c0.6,0,1,0.6,1,1.4h-2.1C117.7,186.2,118.1,185.6,118.7,185.6z M118.7,185.1c-0.7,0-1.3,0.5-1.5,1.2c-0.1,0.4-0.2,0.7-0.2,1.2
		c0,0.8,0.2,1.6,0.8,2c0.3,0.2,0.6,0.3,1,0.3c0.8,0,1.4-0.6,1.6-1.5h-0.6c-0.1,0.6-0.5,0.9-1,0.9c-0.7,0-1.1-0.7-1.1-1.6h2.8
		C120.4,186.2,119.9,185.1,118.7,185.1z M115.5,186.3c-0.1-0.8-0.7-1.2-1.5-1.2c-0.8,0-1.4,0.5-1.4,1.2c0,0.5,0.3,0.8,0.9,1.1l1,0.5
		c0.3,0.2,0.5,0.3,0.5,0.7c0,0.4-0.4,0.7-0.9,0.7c-0.5,0-0.9-0.3-1.1-0.8h-0.6c0.2,0.9,0.9,1.4,1.7,1.4c0.5,0,1-0.2,1.3-0.6
		c0.1-0.2,0.2-0.4,0.2-0.6c0-0.6-0.3-0.9-0.8-1.2l-1-0.5c-0.4-0.2-0.6-0.3-0.6-0.6c0-0.4,0.4-0.6,0.9-0.6c0.4,0,0.8,0.2,0.9,0.7
		H115.5z M110.1,187.6c0,1-0.4,1.6-1.2,1.6c-0.5,0-0.8-0.4-0.8-1v-3h-0.6v3c0,0.9,0.5,1.6,1.3,1.6c0.5,0,1-0.3,1.3-0.7l0,0.6h0.6
		v-4.5h-0.6V187.6z M100.1,185.1c-0.5,0-0.9,0.2-1.1,0.7v-0.6h-0.6v4.5H99v-2.4c0-0.9,0.4-1.6,1-1.6c0.4,0,0.7,0.3,0.7,0.9h0.6
		C101.3,185.6,100.8,185.1,100.1,185.1z M94.9,185.6c0.6,0,1,0.6,1,1.4h-2.1C93.9,186.2,94.2,185.6,94.9,185.6z M94.9,185.1
		c-0.7,0-1.3,0.5-1.5,1.2c-0.1,0.4-0.2,0.7-0.2,1.2c0,0.8,0.2,1.6,0.8,2c0.3,0.2,0.6,0.3,1,0.3c0.8,0,1.4-0.6,1.6-1.5h-0.6
		c-0.1,0.6-0.5,0.9-1,0.9c-0.7,0-1.1-0.7-1.1-1.6h2.8C96.5,186.2,96,185.1,94.9,185.1z M91.5,188.9c-0.2,0.1-0.6,0.2-0.8,0.2
		c-0.4,0-0.6-0.2-0.6-0.6v-2.7h1.4v-0.5h-1.4v-1.5h-0.6v1.5h-1.1v0.5h1.1v2.7c0,0.7,0.4,1.2,1.2,1.2c0.3,0,0.7-0.1,0.9-0.2
		L91.5,188.9z M85.6,185.1c-0.5,0-1,0.3-1.3,0.7l0-0.6h-0.6v4.5h0.6v-2.4c0-1,0.4-1.6,1.2-1.6c0.5,0,0.8,0.4,0.8,1v3h0.6v-3
		C86.9,185.7,86.4,185.1,85.6,185.1z M80.6,185.6c0.6,0,1,0.6,1,1.4h-2.1C79.6,186.2,79.9,185.6,80.6,185.6z M80.6,185.1
		c-0.7,0-1.3,0.5-1.5,1.2c-0.1,0.4-0.2,0.7-0.2,1.2c0,0.8,0.2,1.6,0.8,2c0.3,0.2,0.6,0.3,1,0.3c0.8,0,1.4-0.6,1.6-1.5h-0.6
		c-0.1,0.6-0.4,0.9-1,0.9c-0.7,0-1.1-0.7-1.1-1.6h2.8C82.2,186.2,81.7,185.1,80.6,185.1z M75.9,189.2c-0.7,0-1.1-0.8-1.1-1.8
		c0-1,0.4-1.8,1.1-1.8c0.5,0,0.8,0.4,0.9,1h0.6c-0.1-0.9-0.7-1.5-1.5-1.5c-0.7,0-1.3,0.4-1.5,1.2c-0.1,0.4-0.2,0.7-0.2,1.2v0
		c0,0.9,0.3,1.6,0.8,2c0.3,0.2,0.6,0.3,0.9,0.3c0.8,0,1.4-0.6,1.5-1.5h-0.6C76.7,188.8,76.4,189.2,75.9,189.2z M66,189.2
		c-0.5,0-0.8-0.3-0.8-0.7c0-0.7,0.8-1,1.7-1h0.4v0.3C67.3,188.6,66.8,189.2,66,189.2z M66.4,185.1c-0.8,0-1.4,0.5-1.5,1.3h0.6
		c0-0.5,0.4-0.8,0.9-0.8c0.5,0,0.8,0.3,0.8,1v0.3h-0.3c-1.3,0-2.3,0.4-2.3,1.5c0,0.8,0.6,1.3,1.4,1.3c0.5,0,1-0.3,1.3-0.8l0,0.7h0.6
		l0-3C67.8,185.7,67.3,185.1,66.4,185.1z M62.9,188.9c-0.2,0.1-0.6,0.2-0.8,0.2c-0.4,0-0.6-0.2-0.6-0.6v-2.7h1.4v-0.5h-1.4v-1.5
		h-0.6v1.5h-1.1v0.5h1.1v2.7c0,0.7,0.4,1.2,1.2,1.2c0.3,0,0.7-0.1,0.9-0.2L62.9,188.9z M56.5,189.2c-0.5,0-0.8-0.3-0.8-0.7
		c0-0.7,0.8-1,1.7-1h0.4v0.3C57.7,188.6,57.2,189.2,56.5,189.2z M56.9,185.1c-0.8,0-1.4,0.5-1.5,1.3H56c0-0.5,0.5-0.8,0.9-0.8
		c0.5,0,0.8,0.3,0.8,1v0.3h-0.3c-1.3,0-2.3,0.4-2.3,1.5c0,0.8,0.6,1.3,1.4,1.3c0.5,0,1-0.3,1.3-0.8l0,0.7h0.6l0-3
		C58.3,185.7,57.8,185.1,56.9,185.1z M52,189.2c-0.7,0-1.1-0.8-1.1-1.8c0-1,0.3-1.8,1.1-1.8c0.7,0,1,0.7,1,1.8
		C53,188.5,52.6,189.2,52,189.2z M52.9,185.8c-0.2-0.4-0.6-0.7-1.1-0.7c-1,0-1.6,1-1.6,2.3c0,1.3,0.6,2.3,1.6,2.3
		c0.5,0,0.9-0.3,1.1-0.7l0,0.6h0.6v-6.3h-0.6V185.8z M42.4,185.6c0.6,0,1,0.6,1,1.4h-2.1C41.4,186.2,41.8,185.6,42.4,185.6z
		 M42.4,185.1c-0.7,0-1.3,0.5-1.5,1.2c-0.1,0.4-0.2,0.7-0.2,1.2c0,0.8,0.2,1.6,0.8,2c0.3,0.2,0.6,0.3,1,0.3c0.8,0,1.4-0.6,1.6-1.5
		h-0.6c-0.1,0.6-0.5,0.9-1,0.9c-0.7,0-1.1-0.7-1.1-1.6H44C44.1,186.2,43.6,185.1,42.4,185.1z M39.1,189.1h-1.2v-5.2l0-0.6h-1.6v0.6
		h1v5.2h-1.3v0.6h3.1V189.1z M32.7,189.2c-0.7,0-1.1-0.8-1.1-1.8c0-1,0.3-1.8,1.1-1.8c0.7,0,1,0.7,1,1.8
		C33.8,188.5,33.4,189.2,32.7,189.2z M33.7,185.2v0.6c-0.2-0.4-0.6-0.7-1.1-0.7c-1,0-1.6,1-1.6,2.3c0,1.3,0.6,2.3,1.6,2.3
		c0.5,0,0.9-0.3,1.1-0.7v0.7c0,0.8-0.3,1.1-1,1.1c-0.4,0-0.9-0.2-0.9-0.7h-0.6c0,0.5,0.4,0.9,0.8,1.1c0.2,0.1,0.5,0.1,0.7,0.1
		c1,0,1.5-0.6,1.5-1.7v-2.3l0-2.2H33.7z M28.3,185.1c-0.5,0-1,0.3-1.3,0.7l0-0.6h-0.6v4.5h0.6v-2.4c0-1,0.4-1.6,1.2-1.6
		c0.5,0,0.8,0.4,0.8,1v3h0.6v-3C29.6,185.7,29.2,185.1,28.3,185.1z M24.8,189.1h-1.2v-3.9H22v0.6h1v3.4h-1.2v0.6h3V189.1z
		 M23.2,184.5c0.3,0,0.5-0.2,0.5-0.5c0-0.2-0.2-0.4-0.5-0.4c-0.3,0-0.4,0.2-0.4,0.4C22.8,184.3,23,184.5,23.2,184.5z M16.7,187.9
		c0.1,0.8,0.5,1.3,1,1.6c0.3,0.2,0.6,0.2,0.9,0.2c0.6,0,1.2-0.3,1.5-0.8c0.2-0.2,0.3-0.5,0.3-0.8c0-0.7-0.4-1.2-1.1-1.7l-1.1-0.7
		c-0.4-0.3-0.7-0.5-0.7-1c0-0.6,0.5-0.9,1.1-0.9c0.6,0,1.1,0.5,1.2,1.2h0.6c-0.1-0.7-0.4-1.3-0.9-1.6c-0.3-0.2-0.5-0.2-0.8-0.2
		c-0.6,0-1.1,0.3-1.4,0.7c-0.2,0.2-0.2,0.5-0.2,0.8c0,0.6,0.4,1.1,1,1.5l1.1,0.7c0.6,0.4,0.8,0.6,0.8,1.2c0,0.6-0.6,1.1-1.2,1.1
		c-0.7,0-1.3-0.5-1.4-1.3H16.7z"/>
</g>
</svg>
