<?xml version="1.0" encoding="UTF-8"?><svg id="a" xmlns="http://www.w3.org/2000/svg" xmlns:xlink="http://www.w3.org/1999/xlink" viewBox="0 0 254 131.5"><defs><clipPath id="b"><rect x=".31" y=".4" width="252.91" height="130.57" style="fill:none;"/></clipPath><clipPath id="c"><rect x=".31" y=".4" width="252.91" height="130.57" style="fill:none;"/></clipPath><clipPath id="d"><rect x=".31" y=".4" width="252.91" height="130.57" style="fill:none;"/></clipPath><clipPath id="e"><rect x=".31" y=".4" width="252.91" height="130.57" style="fill:none;"/></clipPath><clipPath id="f"><rect x=".31" y=".4" width="252.91" height="130.57" style="fill:none;"/></clipPath><clipPath id="g"><rect x=".31" y=".4" width="252.91" height="130.57" style="fill:none;"/></clipPath><clipPath id="h"><rect x=".31" y=".4" width="252.91" height="130.57" style="fill:none;"/></clipPath></defs><path d="m10.35,84.26h4.44v-.56h-4.44v.56Zm9.54,0h4.44v-.56h-4.44v.56Zm9.54,0h4.44v-.56h-4.44v.56Zm9.54,0h4.44v-.56h-4.44v.56Zm9.54,0h4.44v-.56h-4.44v.56Zm9.54,0h4.44v-.56h-4.44v.56Zm9.54,0h4.44v-.56h-4.44v.56Zm9.54,0h4.44v-.56h-4.44v.56Zm9.54,0h4.44v-.56h-4.44v.56Zm9.54,0h4.44v-.56h-4.44v.56Zm9.54,0h4.44v-.56h-4.44v.56Zm9.54,0h4.44v-.56h-4.44v.56Zm9.54,0h4.44v-.56h-4.44v.56Zm9.54,0h4.44v-.56h-4.44v.56Zm9.54,0h4.44v-.56h-4.44v.56Zm9.54,0h4.43v-.56h-4.43v.56Zm9.54,0h4.43v-.56h-4.43v.56Zm9.54,0h4.43v-.56h-4.43v.56Zm9.54,0h4.43v-.56h-4.43v.56Zm9.54,0h4.43v-.56h-4.43v.56Zm9.54,0h4.43v-.56h-4.43v.56Zm9.54,0h4.43v-.56h-4.43v.56Zm9.54,0h4.43v-.56h-4.43v.56Zm9.54,0h4.43v-.56h-4.43v.56Zm9.54,0h4.43v-.56h-4.43v.56Z" style="fill:#0d0d0b;"/><path d="m243.74,83.7h-4.44v.56h4.44v-.56Zm-9.54,0h-4.44v.56h4.44v-.56Zm-9.54,0h-4.44v.56h4.44v-.56Zm-9.54,0h-4.44v.56h4.44v-.56Zm-9.54,0h-4.44v.56h4.44v-.56Zm-9.54,0h-4.44v.56h4.44v-.56Zm-9.54,0h-4.44v.56h4.44v-.56Zm-9.54,0h-4.44v.56h4.44v-.56Zm-9.54,0h-4.44v.56h4.44v-.56Zm-9.54,0h-4.44v.56h4.44v-.56Zm-9.54,0h-4.44v.56h4.44v-.56Zm-9.54,0h-4.44v.56h4.44v-.56Zm-9.54,0h-4.44v.56h4.44v-.56Zm-9.54,0h-4.44v.56h4.44v-.56Zm-9.54,0h-4.44v.56h4.44v-.56Zm-9.54,0h-4.44v.56h4.44v-.56Zm-9.54,0h-4.44v.56h4.44v-.56Zm-9.54,0h-4.44v.56h4.44v-.56Zm-9.54,0h-4.44v.56h4.44v-.56Zm-9.54,0h-4.44v.56h4.44v-.56Zm-9.54,0h-4.44v.56h4.44v-.56Zm-9.54,0h-4.44v.56h4.44v-.56Zm-9.54,0h-4.44v.56h4.44v-.56Zm-9.54,0h-4.44v.56h4.44v-.56Zm-9.54,0h-4.44v.56h4.44v-.56Z" style="fill:none; stroke:#0d0d0b; stroke-width:.15px;"/><path d="m10.27,130.27h4.44v-.56h-4.44v.56Zm9.54,0h4.44v-.56h-4.44v.56Zm9.54,0h4.44v-.56h-4.44v.56Zm9.54,0h4.44v-.56h-4.44v.56Zm9.54,0h4.44v-.56h-4.44v.56Zm9.54,0h4.44v-.56h-4.44v.56Zm9.54,0h4.44v-.56h-4.44v.56Zm9.54,0h4.44v-.56h-4.44v.56Zm9.54,0h4.44v-.56h-4.44v.56Zm9.54,0h4.44v-.56h-4.44v.56Zm9.54,0h4.44v-.56h-4.44v.56Zm9.54,0h4.44v-.56h-4.44v.56Zm9.54,0h4.44v-.56h-4.44v.56Zm9.54,0h4.44v-.56h-4.44v.56Zm9.54,0h4.44v-.56h-4.44v.56Zm9.54,0h4.44v-.56h-4.44v.56Zm9.54,0h4.44v-.56h-4.44v.56Zm9.54,0h4.44v-.56h-4.44v.56Zm9.54,0h4.44v-.56h-4.44v.56Zm9.54,0h4.44v-.56h-4.44v.56Zm9.54,0h4.44v-.56h-4.44v.56Zm9.54,0h4.44v-.56h-4.44v.56Zm9.54,0h4.44v-.56h-4.44v.56Zm9.54,0h4.44v-.56h-4.44v.56Zm9.54,0h4.44v-.56h-4.44v.56Z" style="fill:#0d0d0b;"/><path d="m243.66,129.71h-4.44v.56h4.44v-.56Zm-9.54,0h-4.44v.56h4.44v-.56Zm-9.54,0h-4.44v.56h4.44v-.56Zm-9.54,0h-4.44v.56h4.44v-.56Zm-9.54,0h-4.44v.56h4.44v-.56Zm-9.54,0h-4.44v.56h4.44v-.56Zm-9.54,0h-4.44v.56h4.44v-.56Zm-9.54,0h-4.44v.56h4.44v-.56Zm-9.54,0h-4.44v.56h4.44v-.56Zm-9.54,0h-4.44v.56h4.44v-.56Zm-9.54,0h-4.44v.56h4.44v-.56Zm-9.54,0h-4.44v.56h4.44v-.56Zm-9.54,0h-4.44v.56h4.44v-.56Zm-9.54,0h-4.44v.56h4.44v-.56Zm-9.54,0h-4.44v.56h4.44v-.56Zm-9.54,0h-4.44v.56h4.44v-.56Zm-9.54,0h-4.44v.56h4.44v-.56Zm-9.54,0h-4.44v.56h4.44v-.56Zm-9.54,0h-4.44v.56h4.44v-.56Zm-9.54,0h-4.44v.56h4.44v-.56Zm-9.54,0h-4.44v.56h4.44v-.56Zm-9.54,0h-4.44v.56h4.44v-.56Zm-9.54,0h-4.44v.56h4.44v-.56Zm-9.54,0h-4.44v.56h4.44v-.56Zm-9.54,0h-4.44v.56h4.44v-.56Z" style="fill:none; stroke:#0d0d0b; stroke-width:.15px;"/><path d="m10.62,2.35h4.44v-.56h-4.44v.56Zm9.54,0h4.44v-.56h-4.44v.56Zm9.54,0h4.44v-.56h-4.44v.56Zm9.54,0h4.44v-.56h-4.44v.56Zm9.54,0h4.44v-.56h-4.44v.56Zm9.54,0h4.44v-.56h-4.44v.56Zm9.54,0h4.44v-.56h-4.44v.56Zm9.54,0h4.44v-.56h-4.44v.56Zm9.54,0h4.44v-.56h-4.44v.56Zm9.54,0h4.44v-.56h-4.44v.56Zm9.54,0h4.44v-.56h-4.44v.56Zm9.54,0h4.44v-.56h-4.44v.56Zm9.54,0h4.44v-.56h-4.44v.56Zm9.54,0h4.44v-.56h-4.44v.56Zm9.54,0h4.44v-.56h-4.44v.56Zm9.54,0h4.44v-.56h-4.44v.56Zm9.54,0h4.44v-.56h-4.44v.56Zm9.54,0h4.44v-.56h-4.44v.56Zm9.54,0h4.44v-.56h-4.44v.56Zm9.54,0h4.44v-.56h-4.44v.56Zm9.54,0h4.44v-.56h-4.44v.56Zm9.54,0h4.44v-.56h-4.44v.56Zm9.54,0h4.44v-.56h-4.44v.56Zm9.54,0h4.44v-.56h-4.44v.56Zm9.54,0h4.44v-.56h-4.44v.56Z" style="fill:#0d0d0b;"/><path d="m244.02,1.79h-4.44v.56h4.44v-.56Zm-9.54,0h-4.44v.56h4.44v-.56Zm-9.54,0h-4.44v.56h4.44v-.56Zm-9.54,0h-4.44v.56h4.44v-.56Zm-9.54,0h-4.44v.56h4.44v-.56Zm-9.54,0h-4.44v.56h4.44v-.56Zm-9.54,0h-4.44v.56h4.44v-.56Zm-9.54,0h-4.44v.56h4.44v-.56Zm-9.54,0h-4.44v.56h4.44v-.56Zm-9.54,0h-4.44v.56h4.44v-.56Zm-9.54,0h-4.44v.56h4.44v-.56Zm-9.54,0h-4.44v.56h4.44v-.56Zm-9.54,0h-4.44v.56h4.44v-.56Zm-9.54,0h-4.44v.56h4.44v-.56Zm-9.54,0h-4.44v.56h4.44v-.56Zm-9.54,0h-4.44v.56h4.44v-.56Zm-9.54,0h-4.44v.56h4.44v-.56Zm-9.54,0h-4.44v.56h4.44v-.56Zm-9.54,0h-4.44v.56h4.44v-.56Zm-9.54,0h-4.44v.56h4.44v-.56Zm-9.54,0h-4.44v.56h4.44v-.56Zm-9.54,0h-4.44v.56h4.44v-.56Zm-9.54,0h-4.44v.56h4.44v-.56Zm-9.54,0h-4.44v.56h4.44v-.56Zm-9.54,0h-4.44v.56h4.44v-.56Z" style="fill:none; stroke:#0d0d0b; stroke-width:.15px;"/><polygon points="1.69 127.78 1.85 129.14 .62 128.59 .41 129.22 1.76 129.45 .81 130.45 1.34 130.85 2.03 129.67 2.7 130.86 3.23 130.45 2.3 129.48 3.65 129.25 3.44 128.6 2.19 129.14 2.35 127.78 1.69 127.78" style="fill:#0d0d0b;"/><g style="clip-path:url(#b); fill:none;"><polygon points="3.65 129.25 3.44 128.6 2.19 129.14 2.35 127.78 1.69 127.78 1.85 129.14 .62 128.59 .41 129.22 1.76 129.45 .81 130.45 1.34 130.85 2.03 129.67 2.7 130.86 3.23 130.45 2.3 129.48 3.65 129.25" style="fill:none; stroke:#0d0d0b; stroke-width:.15px;"/></g><polygon points="251.16 127.78 251.32 129.14 250.09 128.59 249.88 129.22 251.23 129.45 250.29 130.45 250.81 130.85 251.5 129.67 252.18 130.86 252.71 130.45 251.77 129.48 253.12 129.25 252.91 128.6 251.66 129.14 251.83 127.78 251.16 127.78" style="fill:#0d0d0b;"/><g style="clip-path:url(#c); fill:none;"><polygon points="253.12 129.25 252.91 128.6 251.66 129.14 251.82 127.78 251.16 127.78 251.32 129.14 250.09 128.59 249.88 129.22 251.23 129.45 250.29 130.45 250.81 130.85 251.5 129.67 252.18 130.86 252.71 130.45 251.77 129.48 253.12 129.25" style="fill:none; stroke:#0d0d0b; stroke-width:.15px;"/></g><polygon points="1.69 .47 1.85 1.83 .62 1.28 .41 1.91 1.76 2.15 .81 3.15 1.34 3.54 2.03 2.36 2.7 3.55 3.23 3.15 2.3 2.17 3.65 1.94 3.44 1.29 2.19 1.83 2.35 .47 1.69 .47" style="fill:#0d0d0b;"/><g style="clip-path:url(#d); fill:none;"><polygon points="3.65 1.94 3.44 1.29 2.19 1.83 2.35 .47 1.69 .47 1.85 1.83 .62 1.28 .41 1.91 1.76 2.15 .81 3.15 1.34 3.54 2.03 2.36 2.7 3.55 3.23 3.15 2.3 2.17 3.65 1.94" style="fill:none; stroke:#0d0d0b; stroke-width:.15px;"/></g><polygon points="251.16 .47 251.32 1.83 250.09 1.28 249.88 1.91 251.23 2.15 250.29 3.15 250.81 3.54 251.5 2.36 252.18 3.55 252.71 3.15 251.77 2.17 253.12 1.94 252.91 1.29 251.66 1.83 251.83 .47 251.16 .47" style="fill:#0d0d0b;"/><g style="clip-path:url(#e); fill:none;"><polygon points="253.12 1.94 252.91 1.29 251.66 1.83 251.82 .47 251.16 .47 251.32 1.83 250.09 1.28 249.88 1.91 251.23 2.15 250.29 3.15 250.81 3.54 251.5 2.36 252.18 3.55 252.71 3.15 251.77 2.17 253.12 1.94" style="fill:none; stroke:#0d0d0b; stroke-width:.15px;"/></g><path d="m1.71,121.22h.56v-4.44h-.56v4.44Zm0-9.54h.56v-4.44h-.56v4.44Zm0-9.54h.56v-4.44h-.56v4.44Zm0-9.54h.56v-4.44h-.56v4.44Zm0-9.54h.56v-4.44h-.56v4.44Zm0-9.54h.56v-4.44h-.56v4.44Zm0-9.54h.56v-4.44h-.56v4.44Zm0-9.54h.56v-4.44h-.56v4.44Zm0-9.54h.56v-4.44h-.56v4.44Zm0-9.54h.56v-4.44h-.56v4.44Zm0-9.54h.56v-4.44h-.56v4.44Zm0-9.54h.56v-4.44h-.56v4.44Z" style="fill:#0d0d0b;"/><path d="m2.27,116.78h-.56v4.44h.56v-4.44Zm0-9.54h-.56v4.44h.56v-4.44Zm0-9.54h-.56v4.44h.56v-4.44Zm0-9.54h-.56v4.44h.56v-4.44Zm0-9.54h-.56v4.44h.56v-4.44Zm0-9.54h-.56v4.44h.56v-4.44Zm0-9.54h-.56v4.44h.56v-4.44Zm0-9.54h-.56v4.44h.56v-4.44Zm0-9.54h-.56v4.44h.56v-4.44Zm0-9.54h-.56v4.44h.56v-4.44Zm0-9.54h-.56v4.44h.56v-4.44Zm0-9.54h-.56v4.44h.56v-4.44Z" style="fill:none; stroke:#0d0d0b; stroke-width:.15px;"/><path d="m251.79,120.22h.56v-4.44h-.56v4.44Zm0-9.54h.56v-4.44h-.56v4.44Zm0-9.54h.56v-4.44h-.56v4.44Zm0-9.54h.56v-4.44h-.56v4.44Zm0-9.54h.56v-4.44h-.56v4.44Zm0-9.54h.56v-4.44h-.56v4.44Zm0-9.54h.56v-4.44h-.56v4.44Zm0-9.54h.56v-4.44h-.56v4.44Zm0-9.54h.56v-4.44h-.56v4.44Zm0-9.54h.56v-4.44h-.56v4.44Zm0-9.54h.56v-4.44h-.56v4.44Zm0-9.54h.56v-4.44h-.56v4.44Z" style="fill:#0d0d0b;"/><path d="m252.35,115.78h-.56v4.44h.56v-4.44Zm0-9.54h-.56v4.44h.56v-4.44Zm0-9.54h-.56v4.44h.56v-4.44Zm0-9.54h-.56v4.44h.56v-4.44Zm0-9.54h-.56v4.44h.56v-4.44Zm0-9.54h-.56v4.44h.56v-4.44Zm0-9.54h-.56v4.44h.56v-4.44Zm0-9.54h-.56v4.44h.56v-4.44Zm0-9.54h-.56v4.44h.56v-4.44Zm0-9.54h-.56v4.44h.56v-4.44Zm0-9.54h-.56v4.44h.56v-4.44Zm0-9.54h-.56v4.44h.56v-4.44Z" style="fill:none; stroke:#0d0d0b; stroke-width:.15px;"/><g style="clip-path:url(#f); fill:none;"><path d="m187.13,116.74l1.49,4.45-.54,1.62h.6l1.95-6.07h-.61l-1.12,3.65-1.15-3.65h-.61Zm-3.24,4.04c-.49,0-.83-.27-.83-.74,0-.68.8-.96,1.7-.96h.36v.25c0,.82-.48,1.45-1.23,1.45m.42-4.13c-.77,0-1.41.49-1.51,1.35h.59c.04-.51.45-.79.92-.79.51,0,.81.33.81,1.03v.31h-.31c-1.31,0-2.33.44-2.33,1.51,0,.78.59,1.28,1.38,1.28.48,0,1.04-.28,1.25-.75l.02.66h.57v-3.01c0-1.01-.52-1.58-1.38-1.58m-4.93,4.12c-.75,0-1.08-.77-1.08-1.78s.33-1.77,1.08-1.77c.66,0,1.02.66,1.02,1.77s-.36,1.78-1.02,1.78m.98-3.43c-.21-.42-.61-.68-1.05-.68-1.04,0-1.59,1-1.59,2.33s.56,2.34,1.59,2.34c.46,0,.86-.29,1.07-.72v.63h.57v-6.3h-.58v2.4Zm-12.3-.6l1.49,4.45-.54,1.62h.6l1.95-6.07h-.61l-1.12,3.65-1.15-3.65h-.61Zm-2.52-.09c-.46,0-.88.23-1.13.73v-.64h-.58v4.5h.58v-2.45c0-.9.4-1.58,1.04-1.58.44,0,.67.29.71.86h.58c-.04-.89-.5-1.42-1.19-1.42m-5.26.56c.62,0,.96.59,1.03,1.38h-2.13c.1-.79.46-1.38,1.11-1.38m0-.56c-.75,0-1.27.48-1.52,1.19-.13.35-.19.74-.19,1.15,0,.83.24,1.59.76,2.02.26.22.58.32.96.32.83,0,1.42-.59,1.56-1.48h-.59c-.14.62-.45.93-.96.93-.72,0-1.09-.74-1.13-1.63h2.76c.03-1.38-.49-2.49-1.64-2.49m-6.47.09l1.33,4.5h.67l1.33-4.5h-.6l-1.06,3.78-1.06-3.78h-.6Zm-3.07.47c.62,0,.96.59,1.03,1.38h-2.13c.1-.79.46-1.38,1.11-1.38m0-.56c-.75,0-1.27.48-1.52,1.19-.13.35-.19.74-.19,1.15,0,.83.24,1.59.75,2.02.26.22.58.32.96.32.83,0,1.42-.59,1.56-1.48h-.59c-.13.62-.45.93-.96.93-.72,0-1.09-.74-1.13-1.63h2.76c.03-1.38-.49-2.49-1.64-2.49m-11.3.09l1.49,4.45-.54,1.62h.6l1.95-6.07h-.61l-1.12,3.65-1.15-3.65h-.61Zm-1.5,3.94h-1.23v-5.75s-1.57,0-1.57,0v.56h.98v5.19h-1.25v.56h3.07v-.56Zm-4.77,0h-1.23v-5.75s-1.57,0-1.57,0v.56h.98v5.19h-1.25v.56h3.07v-.56Zm-6.51.1c-.5,0-.83-.27-.83-.74,0-.68.8-.96,1.7-.96h.36v.25c0,.82-.48,1.45-1.23,1.45m.41-4.13c-.77,0-1.41.49-1.51,1.35h.59c.05-.51.45-.79.92-.79.51,0,.81.33.81,1.03v.31h-.31c-1.31,0-2.33.44-2.33,1.51,0,.78.59,1.28,1.38,1.28.48,0,1.04-.28,1.25-.75l.02.66h.57v-3.01c0-1.01-.52-1.58-1.38-1.58m-5.04,4.12c-.66,0-1.02-.67-1.02-1.78s.36-1.77,1.02-1.77c.75,0,1.08.77,1.08,1.77s-.33,1.78-1.08,1.78m.07-4.11c-.44,0-.85.26-1.05.68v-2.4h-.58v6.3h.56v-.63c.22.43.61.72,1.08.72,1.03,0,1.59-1.01,1.59-2.34s-.56-2.33-1.59-2.33m-4.78,4.11c.75,0,1.02-.78,1.02-1.78s-.27-1.78-1.02-1.78-1.04.81-1.04,1.78.28,1.78,1.04,1.78m0-4.12c.75,0,1.23.49,1.46,1.2.11.35.16.74.16,1.14,0,1.32-.51,2.34-1.62,2.34s-1.62-1.02-1.62-2.34.53-2.34,1.62-2.34m-3.23,4.03h-1.23v-5.75s-1.57,0-1.57,0v.56h.98v5.19h-1.25v.56h3.07v-.56Zm-6.41.09c-.75,0-1.08-.77-1.08-1.78s.33-1.77,1.08-1.77c.66,0,1.02.66,1.02,1.77s-.36,1.78-1.02,1.78m.98-4.03v.6c-.21-.42-.61-.68-1.05-.68-1.04,0-1.59,1-1.59,2.33s.56,2.34,1.59,2.34c.46,0,.85-.28,1.06-.71v.68c0,.76-.3,1.14-.95,1.14-.44,0-.87-.23-.95-.71h-.58c.05.53.4.93.85,1.12.23.1.45.14.69.14.98,0,1.54-.65,1.54-1.69v-4.56h-.59Zm-10.37,4.03c-.75,0-1.08-.77-1.08-1.78s.33-1.77,1.08-1.77c.66,0,1.02.66,1.02,1.77s-.36,1.78-1.02,1.78m.98-3.43c-.21-.42-.61-.68-1.05-.68-1.04,0-1.59,1-1.59,2.33s.56,2.34,1.59,2.34c.46,0,.86-.29,1.07-.72v.63h.57v-6.3h-.58v2.4Zm-5.77-.14c.62,0,.96.59,1.03,1.38h-2.13c.1-.79.46-1.38,1.11-1.38m0-.56c-.75,0-1.27.48-1.52,1.19-.13.35-.19.74-.19,1.15,0,.83.24,1.59.76,2.02.26.22.58.32.95.32.83,0,1.42-.59,1.56-1.48h-.59c-.14.62-.45.93-.96.93-.72,0-1.09-.74-1.13-1.63h2.76c.03-1.38-.49-2.49-1.64-2.49m-6.47.09l1.33,4.5h.67l1.33-4.5h-.6l-1.06,3.78-1.06-3.78h-.6Zm-1.61,3.93h-1.19v-3.94h-1.57v.56h.98v3.38h-1.21v.56h2.98v-.56Zm-1.55-4.63c.25,0,.45-.21.45-.46s-.2-.45-.45-.45-.45.21-.45.45.2.46.45.46m-4.68,1.16c.62,0,.96.59,1.03,1.38h-2.13c.1-.79.46-1.38,1.11-1.38m0-.56c-.75,0-1.27.48-1.52,1.19-.13.35-.19.74-.19,1.15,0,.83.24,1.59.75,2.02.26.22.58.32.96.32.83,0,1.42-.59,1.56-1.48h-.59c-.13.62-.45.93-.96.93-.72,0-1.09-.74-1.13-1.63h2.76c.03-1.38-.49-2.49-1.64-2.49m-4.7,4.12c-.75,0-1.13-.79-1.13-1.77s.38-1.76,1.13-1.76c.5,0,.81.36.89.96h.59c-.11-.95-.66-1.52-1.48-1.52-.72,0-1.25.44-1.51,1.15-.14.35-.2.75-.2,1.17h0c0,.86.27,1.6.78,2.02.26.21.57.31.93.31.82,0,1.38-.57,1.48-1.52h-.59c-.08.6-.39.96-.89.96m-4.84-3.57c.62,0,.96.59,1.03,1.38h-2.13c.1-.79.46-1.38,1.11-1.38m0-.56c-.75,0-1.27.48-1.52,1.19-.13.35-.19.74-.19,1.15,0,.83.24,1.59.75,2.02.26.22.58.32.96.32.83,0,1.42-.59,1.56-1.48h-.59c-.13.62-.45.93-.96.93-.72,0-1.09-.74-1.13-1.63h2.76c.03-1.38-.49-2.49-1.64-2.49m-4.28,0c-.46,0-.88.23-1.14.73v-.64h-.58v4.5h.58v-2.45c0-.9.4-1.58,1.04-1.58.44,0,.67.29.71.86h.58c-.04-.89-.5-1.42-1.19-1.42" style="fill:#0d0d0b;"/><path d="m187.13,116.74l1.49,4.45-.54,1.62h.6l1.95-6.07h-.61l-1.12,3.65-1.15-3.65h-.61Zm-3.24,4.04c-.49,0-.83-.27-.83-.74,0-.68.8-.96,1.7-.96h.36v.25c0,.82-.48,1.45-1.23,1.45Zm.42-4.13c-.77,0-1.41.49-1.51,1.35h.59c.04-.51.45-.79.92-.79.51,0,.81.33.81,1.03v.31h-.31c-1.31,0-2.33.44-2.33,1.51,0,.78.59,1.28,1.38,1.28.48,0,1.04-.28,1.25-.75l.02.66h.57v-3.01c0-1.01-.52-1.58-1.38-1.58Zm-4.93,4.12c-.75,0-1.08-.77-1.08-1.78s.33-1.77,1.08-1.77c.66,0,1.02.66,1.02,1.77s-.36,1.78-1.02,1.78Zm.98-3.43c-.21-.42-.61-.68-1.05-.68-1.04,0-1.59,1-1.59,2.33s.56,2.34,1.59,2.34c.46,0,.86-.29,1.07-.72v.63h.57v-6.3h-.58v2.4Zm-12.3-.6l1.49,4.45-.54,1.62h.6l1.95-6.07h-.61l-1.12,3.65-1.15-3.65h-.61Zm-2.52-.09c-.46,0-.88.23-1.13.73v-.64h-.58v4.5h.58v-2.45c0-.9.4-1.58,1.04-1.58.44,0,.67.29.71.86h.58c-.04-.89-.5-1.42-1.19-1.42Zm-5.26.56c.62,0,.96.59,1.03,1.38h-2.13c.1-.79.46-1.38,1.11-1.38Zm0-.56c-.75,0-1.27.48-1.52,1.19-.13.35-.19.74-.19,1.15,0,.83.24,1.59.76,2.02.26.22.58.32.96.32.83,0,1.42-.59,1.56-1.48h-.59c-.14.62-.45.93-.96.93-.72,0-1.09-.74-1.13-1.63h2.76c.03-1.38-.49-2.49-1.64-2.49Zm-6.47.09l1.33,4.5h.67l1.33-4.5h-.6l-1.06,3.78-1.06-3.78h-.6Zm-3.07.47c.62,0,.96.59,1.03,1.38h-2.13c.1-.79.46-1.38,1.11-1.38Zm0-.56c-.75,0-1.27.48-1.52,1.19-.13.35-.19.74-.19,1.15,0,.83.24,1.59.75,2.02.26.22.58.32.96.32.83,0,1.42-.59,1.56-1.48h-.59c-.13.62-.45.93-.96.93-.72,0-1.09-.74-1.13-1.63h2.76c.03-1.38-.49-2.49-1.64-2.49Zm-11.3.09l1.49,4.45-.54,1.62h.6l1.95-6.07h-.61l-1.12,3.65-1.15-3.65h-.61Zm-1.5,3.94h-1.23v-5.75s-1.57,0-1.57,0v.56h.98v5.19h-1.25v.56h3.07v-.56Zm-4.77,0h-1.23v-5.75s-1.57,0-1.57,0v.56h.98v5.19h-1.25v.56h3.07v-.56Zm-6.51.1c-.5,0-.83-.27-.83-.74,0-.68.8-.96,1.7-.96h.36v.25c0,.82-.48,1.45-1.23,1.45Zm.41-4.13c-.77,0-1.41.49-1.51,1.35h.59c.05-.51.45-.79.92-.79.51,0,.81.33.81,1.03v.31h-.31c-1.31,0-2.33.44-2.33,1.51,0,.78.59,1.28,1.38,1.28.48,0,1.04-.28,1.25-.75l.02.66h.57v-3.01c0-1.01-.52-1.58-1.38-1.58Zm-5.04,4.12c-.66,0-1.02-.67-1.02-1.78s.36-1.77,1.02-1.77c.75,0,1.08.77,1.08,1.77s-.33,1.78-1.08,1.78Zm.07-4.11c-.44,0-.85.26-1.05.68v-2.4h-.58v6.3h.56v-.63c.22.43.61.72,1.08.72,1.03,0,1.59-1.01,1.59-2.34s-.56-2.33-1.59-2.33Zm-4.78,4.11c.75,0,1.02-.78,1.02-1.78s-.27-1.78-1.02-1.78-1.04.81-1.04,1.78.28,1.78,1.04,1.78Zm0-4.12c.75,0,1.23.49,1.46,1.2.11.35.16.74.16,1.14,0,1.32-.51,2.34-1.62,2.34s-1.62-1.02-1.62-2.34.53-2.34,1.62-2.34Zm-3.23,4.03h-1.23v-5.75s-1.57,0-1.57,0v.56h.98v5.19h-1.25v.56h3.07v-.56Zm-6.41.09c-.75,0-1.08-.77-1.08-1.78s.33-1.77,1.08-1.77c.66,0,1.02.66,1.02,1.77s-.36,1.78-1.02,1.78Zm.98-4.03v.6c-.21-.42-.61-.68-1.05-.68-1.04,0-1.59,1-1.59,2.33s.56,2.34,1.59,2.34c.46,0,.85-.28,1.06-.71v.68c0,.76-.3,1.14-.95,1.14-.44,0-.87-.23-.95-.71h-.58c.05.53.4.93.85,1.12.23.1.45.14.69.14.98,0,1.54-.65,1.54-1.69v-4.56h-.59Zm-10.37,4.03c-.75,0-1.08-.77-1.08-1.78s.33-1.77,1.08-1.77c.66,0,1.02.66,1.02,1.77s-.36,1.78-1.02,1.78Zm.98-3.43c-.21-.42-.61-.68-1.05-.68-1.04,0-1.59,1-1.59,2.33s.56,2.34,1.59,2.34c.46,0,.86-.29,1.07-.72v.63h.57v-6.3h-.58v2.4Zm-5.77-.14c.62,0,.96.59,1.03,1.38h-2.13c.1-.79.46-1.38,1.11-1.38Zm0-.56c-.75,0-1.27.48-1.52,1.19-.13.35-.19.74-.19,1.15,0,.83.24,1.59.76,2.02.26.22.58.32.95.32.83,0,1.42-.59,1.56-1.48h-.59c-.14.62-.45.93-.96.93-.72,0-1.09-.74-1.13-1.63h2.76c.03-1.38-.49-2.49-1.64-2.49Zm-6.47.09l1.33,4.5h.67l1.33-4.5h-.6l-1.06,3.78-1.06-3.78h-.6Zm-1.61,3.93h-1.19v-3.94h-1.57v.56h.98v3.38h-1.21v.56h2.98v-.56Zm-1.55-4.63c.25,0,.45-.21.45-.46s-.2-.45-.45-.45-.45.21-.45.45.2.46.45.46Zm-4.68,1.16c.62,0,.96.59,1.03,1.38h-2.13c.1-.79.46-1.38,1.11-1.38Zm0-.56c-.75,0-1.27.48-1.52,1.19-.13.35-.19.74-.19,1.15,0,.83.24,1.59.75,2.02.26.22.58.32.96.32.83,0,1.42-.59,1.56-1.48h-.59c-.13.62-.45.93-.96.93-.72,0-1.09-.74-1.13-1.63h2.76c.03-1.38-.49-2.49-1.64-2.49Zm-4.7,4.12c-.75,0-1.13-.79-1.13-1.77s.38-1.76,1.13-1.76c.5,0,.81.36.89.96h.59c-.11-.95-.66-1.52-1.48-1.52-.72,0-1.25.44-1.51,1.15-.14.35-.2.75-.2,1.17h0c0,.86.27,1.6.78,2.02.26.21.57.31.93.31.82,0,1.38-.57,1.48-1.52h-.59c-.08.6-.39.96-.89.96Zm-4.84-3.57c.62,0,.96.59,1.03,1.38h-2.13c.1-.79.46-1.38,1.11-1.38Zm0-.56c-.75,0-1.27.48-1.52,1.19-.13.35-.19.74-.19,1.15,0,.83.24,1.59.75,2.02.26.22.58.32.96.32.83,0,1.42-.59,1.56-1.48h-.59c-.13.62-.45.93-.96.93-.72,0-1.09-.74-1.13-1.63h2.76c.03-1.38-.49-2.49-1.64-2.49Zm-4.28,0c-.46,0-.88.23-1.14.73v-.64h-.58v4.5h.58v-2.45c0-.9.4-1.58,1.04-1.58.44,0,.67.29.71.86h.58c-.04-.89-.5-1.42-1.19-1.42Z" style="fill:none; stroke:#0d0d0b; stroke-width:.15px;"/><path d="m207.99,109.97c-.75,0-1.08-.77-1.08-1.78s.33-1.77,1.08-1.77c.66,0,1.02.66,1.02,1.77s-.36,1.78-1.02,1.78m.98-3.43c-.21-.42-.61-.68-1.05-.68-1.04,0-1.59,1-1.59,2.33s.56,2.34,1.59,2.34c.47,0,.86-.29,1.07-.72v.63h.57v-6.3h-.58v2.4Zm-5.53-.69c-.54,0-1.01.26-1.27.74v-.65s-.59,0-.59,0v4.5h.58v-2.45c0-.97.41-1.58,1.2-1.58.55,0,.78.39.78,1.01v3.02h.58v-3.02c0-.93-.46-1.57-1.3-1.57m-5.25,4.13c-.49,0-.83-.27-.83-.74,0-.68.8-.96,1.7-.96h.36v.25c0,.82-.48,1.45-1.23,1.45m.41-4.13c-.76,0-1.41.48-1.51,1.35h.59c.04-.51.45-.79.92-.79.51,0,.81.33.81,1.03v.31h-.31c-1.3,0-2.33.44-2.33,1.51,0,.78.59,1.28,1.38,1.28.48,0,1.04-.28,1.25-.75l.02.66h.57v-3c0-1.01-.52-1.58-1.39-1.58m-8.35,3.82c-.23.12-.58.22-.78.22-.42,0-.62-.17-.62-.65v-2.75h1.35v-.54h-1.35v-1.5h-.57v1.5h-1.08v.54h1.08v2.75c0,.75.42,1.2,1.15,1.2.25,0,.68-.08.94-.22l-.12-.56Zm-5.9-3.82c-.54,0-1.01.26-1.27.74v-.65s-.59,0-.59,0v4.5h.58v-2.45c0-.97.41-1.58,1.2-1.58.55,0,.78.39.78,1.01v3.02h.58v-3.02c0-.93-.46-1.57-1.3-1.57m-5.01.56c.62,0,.96.59,1.03,1.38h-2.13c.1-.79.46-1.38,1.11-1.38m0-.56c-.75,0-1.27.48-1.52,1.19-.12.35-.19.74-.19,1.15,0,.83.24,1.59.75,2.02.26.22.58.32.95.32.83,0,1.42-.59,1.56-1.48h-.59c-.14.62-.45.93-.96.93-.72,0-1.09-.74-1.12-1.63h2.76c.03-1.38-.5-2.49-1.64-2.49m-3.28,1.25c-.14-.8-.74-1.25-1.49-1.25s-1.43.47-1.43,1.16c0,.46.29.83.85,1.11l1.04.52c.32.17.52.32.52.68,0,.4-.42.66-.94.66s-.94-.26-1.1-.83h-.59c.17.86.86,1.39,1.69,1.39.53,0,1.03-.21,1.31-.57.13-.18.21-.39.21-.63,0-.58-.31-.93-.82-1.18l-1.04-.52c-.4-.19-.57-.34-.57-.62,0-.37.4-.6.86-.6.44,0,.78.22.9.69h.59Zm-11.03-.69c.62,0,.96.59,1.03,1.38h-2.13c.1-.79.46-1.38,1.11-1.38m0-.56c-.75,0-1.27.48-1.52,1.19-.12.35-.19.74-.19,1.15,0,.83.24,1.59.76,2.02.26.22.58.32.95.32.83,0,1.42-.59,1.56-1.48h-.59c-.14.62-.45.93-.96.93-.72,0-1.09-.74-1.12-1.63h2.76c.03-1.38-.49-2.49-1.64-2.49m-4.86,4.12c-.66,0-1.02-.67-1.02-1.78s.36-1.77,1.02-1.77c.75,0,1.08.76,1.08,1.77s-.33,1.78-1.08,1.78m.07-4.11c-.44,0-.85.26-1.05.68v-2.4h-.58v6.3h.56v-.63c.22.43.61.72,1.08.72,1.03,0,1.59-1.01,1.59-2.34s-.56-2.33-1.59-2.33m-8.02,4.02h-1.23v-5.75s-1.56,0-1.56,0v.56h.98v5.19h-1.25v.56h3.07v-.56Zm-4.77,0h-1.23v-5.75s-1.57,0-1.57,0v.56h.98v5.19h-1.25v.56h3.07v-.56Zm-4.82,0h-1.19v-3.94h-1.57v.56h.98v3.38h-1.21v.56h2.98v-.56Zm-1.55-4.63c.25,0,.45-.21.45-.46s-.2-.45-.45-.45-.45.21-.45.45.2.46.45.46m-4.99,1.97l-.64,2.24-.5-3.52h-.58l.75,4.5h.58l.67-2.36.67,2.36h.59l.75-4.5h-.59l-.49,3.52-.64-2.24h-.56Zm-7.74-.12c-.14-.8-.74-1.25-1.49-1.25s-1.43.47-1.43,1.16c0,.46.29.83.85,1.11l1.05.52c.32.17.52.32.52.68,0,.4-.42.66-.94.66s-.94-.26-1.1-.83h-.59c.17.86.86,1.39,1.69,1.39.53,0,1.03-.21,1.31-.57.13-.18.21-.39.21-.63,0-.58-.31-.93-.82-1.18l-1.05-.52c-.4-.19-.57-.34-.57-.62,0-.37.4-.6.86-.6.44,0,.78.22.9.69h.59Zm-4.76,2.78h-1.23v-5.75s-1.57,0-1.57,0v.56h.98v5.19h-1.25v.56h3.07v-.56Zm-4.82,0h-1.19v-3.94h-1.56v.56h.98v3.38h-1.21v.56h2.98v-.56Zm-1.55-4.63c.25,0,.45-.21.45-.46s-.2-.45-.45-.45-.45.21-.45.45.2.46.45.46m-4.91,4.73c-.5,0-.83-.27-.83-.74,0-.68.8-.96,1.7-.96h.36v.25c0,.82-.48,1.45-1.23,1.45m.41-4.13c-.76,0-1.41.48-1.51,1.35h.59c.05-.51.45-.79.92-.79.51,0,.81.33.81,1.03v.31h-.31c-1.31,0-2.33.44-2.33,1.51,0,.78.59,1.28,1.38,1.28.48,0,1.04-.28,1.25-.75l.02.66h.57v-3c0-1.01-.52-1.58-1.39-1.58m-3.98,0c-.36,0-.66.25-.85.73-.07-.44-.29-.73-.69-.73-.33,0-.64.23-.79.7l-.04-.6h-.49l-.02,4.5h.57v-2.7c0-.69.16-1.34.63-1.34.17,0,.28.07.33.21.05.14.07.38.07.7v3.13h.57v-2.7c0-.79.09-1.34.58-1.34.33,0,.39.26.39.76v3.28h.57v-3.3c0-.75-.24-1.3-.85-1.3m-5.74.57c.62,0,.96.59,1.03,1.38h-2.13c.1-.79.46-1.38,1.11-1.38m0-.56c-.75,0-1.27.48-1.52,1.19-.13.35-.19.74-.19,1.15,0,.83.24,1.59.76,2.02.26.22.58.32.95.32.83,0,1.42-.59,1.56-1.48h-.59c-.14.62-.45.93-.96.93-.72,0-1.09-.74-1.12-1.63h2.76c.03-1.38-.49-2.49-1.64-2.49m-9.3,0c-.54,0-1.01.26-1.27.74v-.65s-.59,0-.59,0v4.5h.58v-2.45c0-.97.41-1.58,1.2-1.58.55,0,.78.39.78,1.01v3.02h.58v-3.02c0-.93-.46-1.57-1.3-1.57m-5.04,4.12c.76,0,1.03-.78,1.03-1.78s-.27-1.78-1.03-1.78-1.04.81-1.04,1.78.28,1.78,1.04,1.78m0-4.12c.75,0,1.23.49,1.46,1.2.11.35.16.74.16,1.14,0,1.32-.51,2.34-1.62,2.34s-1.62-1.02-1.62-2.34.53-2.34,1.62-2.34m-3.28,4.02h-1.19v-3.94h-1.57v.56h.98v3.38h-1.21v.56h2.98v-.56Zm-1.55-4.63c.25,0,.45-.21.45-.46s-.2-.45-.45-.45-.45.21-.45.45.2.46.45.46m-3.18,4.64h-1.23v-5.75s-1.57,0-1.57,0v.56h.98v5.19h-1.25v.56h3.07v-.56Zm-4.77,0h-1.23v-5.75s-1.57,0-1.57,0v.56h.98v5.19h-1.25v.56h3.07v-.56Zm-4.82,0h-1.19v-3.94h-1.57v.56h.98v3.38h-1.21v.56h2.98v-.56Zm-1.55-4.63c.25,0,.45-.21.45-.46s-.2-.45-.45-.45-.45.21-.45.45.2.46.45.46m-4.77,4.73c-.66,0-1.02-.67-1.02-1.78s.36-1.77,1.02-1.77c.75,0,1.08.76,1.08,1.77s-.33,1.78-1.08,1.78m.07-4.11c-.44,0-.85.26-1.05.68v-2.4h-.58v6.3h.56v-.63c.22.43.61.72,1.08.72,1.03,0,1.59-1.01,1.59-2.34s-.56-2.33-1.59-2.33m-10.8,4.58h.65l2.57-5.72v-.58h-3.8v.58h3.18l-2.6,5.72Zm-2.85-1.95h-1.93l1.93-3.26v3.26Zm1.3.56v-.56h-.72v-4.36h-.58l-2.58,4.36v.56h2.58v1.39h.58v-1.39h.72Zm-6.19-1.95c.67-.18,1.16-.83,1.16-1.47,0-.6-.31-1.11-.8-1.38-.25-.14-.53-.2-.84-.2-.64,0-1.2.3-1.55.79-.18.24-.3.52-.34.82h.58c.15-.61.66-1.04,1.31-1.04.58,0,1.05.42,1.05,1.01,0,.76-.61,1.21-1.41,1.21h-.22v.56h.22c.94,0,1.62.47,1.62,1.31,0,.75-.5,1.28-1.27,1.28s-1.22-.44-1.4-1.1h-.6c.22.94.89,1.65,1.98,1.65.72,0,1.31-.33,1.64-.89.15-.28.23-.59.23-.95,0-.51-.25-1-.67-1.31-.21-.15-.44-.25-.69-.29" style="fill:#0d0d0b;"/><path d="m207.99,109.97c-.75,0-1.08-.77-1.08-1.78s.33-1.77,1.08-1.77c.66,0,1.02.66,1.02,1.77s-.36,1.78-1.02,1.78Zm.98-3.43c-.21-.42-.61-.68-1.05-.68-1.04,0-1.59,1-1.59,2.33s.56,2.34,1.59,2.34c.47,0,.86-.29,1.07-.72v.63h.57v-6.3h-.58v2.4Zm-5.53-.69c-.54,0-1.01.26-1.27.74v-.65s-.59,0-.59,0v4.5h.58v-2.45c0-.97.41-1.58,1.2-1.58.55,0,.78.39.78,1.01v3.02h.58v-3.02c0-.93-.46-1.57-1.3-1.57Zm-5.25,4.13c-.49,0-.83-.27-.83-.74,0-.68.8-.96,1.7-.96h.36v.25c0,.82-.48,1.45-1.23,1.45Zm.41-4.13c-.76,0-1.41.48-1.51,1.35h.59c.04-.51.45-.79.92-.79.51,0,.81.33.81,1.03v.31h-.31c-1.3,0-2.33.44-2.33,1.51,0,.78.59,1.28,1.38,1.28.48,0,1.04-.28,1.25-.75l.02.66h.57v-3c0-1.01-.52-1.58-1.39-1.58Zm-8.35,3.82c-.23.12-.58.22-.78.22-.42,0-.62-.17-.62-.65v-2.75h1.35v-.54h-1.35v-1.5h-.57v1.5h-1.08v.54h1.08v2.75c0,.75.42,1.2,1.15,1.2.25,0,.68-.08.94-.22l-.12-.56Zm-5.9-3.82c-.54,0-1.01.26-1.27.74v-.65s-.59,0-.59,0v4.5h.58v-2.45c0-.97.41-1.58,1.2-1.58.55,0,.78.39.78,1.01v3.02h.58v-3.02c0-.93-.46-1.57-1.3-1.57Zm-5.01.56c.62,0,.96.59,1.03,1.38h-2.13c.1-.79.46-1.38,1.11-1.38Zm0-.56c-.75,0-1.27.48-1.52,1.19-.12.35-.19.74-.19,1.15,0,.83.24,1.59.75,2.02.26.22.58.32.95.32.83,0,1.42-.59,1.56-1.48h-.59c-.14.62-.45.93-.96.93-.72,0-1.09-.74-1.12-1.63h2.76c.03-1.38-.5-2.49-1.64-2.49Zm-3.28,1.25c-.14-.8-.74-1.25-1.49-1.25s-1.43.47-1.43,1.16c0,.46.29.83.85,1.11l1.04.52c.32.17.52.32.52.68,0,.4-.42.66-.94.66s-.94-.26-1.1-.83h-.59c.17.86.86,1.39,1.69,1.39.53,0,1.03-.21,1.31-.57.13-.18.21-.39.21-.63,0-.58-.31-.93-.82-1.18l-1.04-.52c-.4-.19-.57-.34-.57-.62,0-.37.4-.6.86-.6.44,0,.78.22.9.69h.59Zm-11.03-.69c.62,0,.96.59,1.03,1.38h-2.13c.1-.79.46-1.38,1.11-1.38Zm0-.56c-.75,0-1.27.48-1.52,1.19-.12.35-.19.74-.19,1.15,0,.83.24,1.59.76,2.02.26.22.58.32.95.32.83,0,1.42-.59,1.56-1.48h-.59c-.14.62-.45.93-.96.93-.72,0-1.09-.74-1.12-1.63h2.76c.03-1.38-.49-2.49-1.64-2.49Zm-4.86,4.12c-.66,0-1.02-.67-1.02-1.78s.36-1.77,1.02-1.77c.75,0,1.08.76,1.08,1.77s-.33,1.78-1.08,1.78Zm.07-4.11c-.44,0-.85.26-1.05.68v-2.4h-.58v6.3h.56v-.63c.22.43.61.72,1.08.72,1.03,0,1.59-1.01,1.59-2.34s-.56-2.33-1.59-2.33Zm-8.02,4.02h-1.23v-5.75s-1.56,0-1.56,0v.56h.98v5.19h-1.25v.56h3.07v-.56Zm-4.77,0h-1.23v-5.75s-1.57,0-1.57,0v.56h.98v5.19h-1.25v.56h3.07v-.56Zm-4.82,0h-1.19v-3.94h-1.57v.56h.98v3.38h-1.21v.56h2.98v-.56Zm-1.55-4.63c.25,0,.45-.21.45-.46s-.2-.45-.45-.45-.45.21-.45.45.2.46.45.46Zm-4.99,1.97l-.64,2.24-.5-3.52h-.58l.75,4.5h.58l.67-2.36.67,2.36h.59l.75-4.5h-.59l-.49,3.52-.64-2.24h-.56Zm-7.74-.12c-.14-.8-.74-1.25-1.49-1.25s-1.43.47-1.43,1.16c0,.46.29.83.85,1.11l1.05.52c.32.17.52.32.52.68,0,.4-.42.66-.94.66s-.94-.26-1.1-.83h-.59c.17.86.86,1.39,1.69,1.39.53,0,1.03-.21,1.31-.57.13-.18.21-.39.21-.63,0-.58-.31-.93-.82-1.18l-1.05-.52c-.4-.19-.57-.34-.57-.62,0-.37.4-.6.86-.6.44,0,.78.22.9.69h.59Zm-4.76,2.78h-1.23v-5.75s-1.57,0-1.57,0v.56h.98v5.19h-1.25v.56h3.07v-.56Zm-4.82,0h-1.19v-3.94h-1.56v.56h.98v3.38h-1.21v.56h2.98v-.56Zm-1.55-4.63c.25,0,.45-.21.45-.46s-.2-.45-.45-.45-.45.21-.45.45.2.46.45.46Zm-4.91,4.73c-.5,0-.83-.27-.83-.74,0-.68.8-.96,1.7-.96h.36v.25c0,.82-.48,1.45-1.23,1.45Zm.41-4.13c-.76,0-1.41.48-1.51,1.35h.59c.05-.51.45-.79.92-.79.51,0,.81.33.81,1.03v.31h-.31c-1.31,0-2.33.44-2.33,1.51,0,.78.59,1.28,1.38,1.28.48,0,1.04-.28,1.25-.75l.02.66h.57v-3c0-1.01-.52-1.58-1.39-1.58Zm-3.98,0c-.36,0-.66.25-.85.73-.07-.44-.29-.73-.69-.73-.33,0-.64.23-.79.7l-.04-.6h-.49l-.02,4.5h.57v-2.7c0-.69.16-1.34.63-1.34.17,0,.28.07.33.21.05.14.07.38.07.7v3.13h.57v-2.7c0-.79.09-1.34.58-1.34.33,0,.39.26.39.76v3.28h.57v-3.3c0-.75-.24-1.3-.85-1.3Zm-5.74.57c.62,0,.96.59,1.03,1.38h-2.13c.1-.79.46-1.38,1.11-1.38Zm0-.56c-.75,0-1.27.48-1.52,1.19-.13.35-.19.74-.19,1.15,0,.83.24,1.59.76,2.02.26.22.58.32.95.32.83,0,1.42-.59,1.56-1.48h-.59c-.14.62-.45.93-.96.93-.72,0-1.09-.74-1.12-1.63h2.76c.03-1.38-.49-2.49-1.64-2.49Zm-9.3,0c-.54,0-1.01.26-1.27.74v-.65s-.59,0-.59,0v4.5h.58v-2.45c0-.97.41-1.58,1.2-1.58.55,0,.78.39.78,1.01v3.02h.58v-3.02c0-.93-.46-1.57-1.3-1.57Zm-5.04,4.12c.76,0,1.03-.78,1.03-1.78s-.27-1.78-1.03-1.78-1.04.81-1.04,1.78.28,1.78,1.04,1.78Zm0-4.12c.75,0,1.23.49,1.46,1.2.11.35.16.74.16,1.14,0,1.32-.51,2.34-1.62,2.34s-1.62-1.02-1.62-2.34.53-2.34,1.62-2.34Zm-3.28,4.02h-1.19v-3.94h-1.57v.56h.98v3.38h-1.21v.56h2.98v-.56Zm-1.55-4.63c.25,0,.45-.21.45-.46s-.2-.45-.45-.45-.45.21-.45.45.2.46.45.46Zm-3.18,4.64h-1.23v-5.75s-1.57,0-1.57,0v.56h.98v5.19h-1.25v.56h3.07v-.56Zm-4.77,0h-1.23v-5.75s-1.57,0-1.57,0v.56h.98v5.19h-1.25v.56h3.07v-.56Zm-4.82,0h-1.19v-3.94h-1.57v.56h.98v3.38h-1.21v.56h2.98v-.56Zm-1.55-4.63c.25,0,.45-.21.45-.46s-.2-.45-.45-.45-.45.21-.45.45.2.46.45.46Zm-4.77,4.73c-.66,0-1.02-.67-1.02-1.78s.36-1.77,1.02-1.77c.75,0,1.08.76,1.08,1.77s-.33,1.78-1.08,1.78Zm.07-4.11c-.44,0-.85.26-1.05.68v-2.4h-.58v6.3h.56v-.63c.22.43.61.72,1.08.72,1.03,0,1.59-1.01,1.59-2.34s-.56-2.33-1.59-2.33Zm-10.8,4.58h.65l2.57-5.72v-.58h-3.8v.58h3.18l-2.6,5.72Zm-2.85-1.95h-1.93l1.93-3.26v3.26Zm1.3.56v-.56h-.72v-4.36h-.58l-2.58,4.36v.56h2.58v1.39h.58v-1.39h.72Zm-6.19-1.95c.67-.18,1.16-.83,1.16-1.47,0-.6-.31-1.11-.8-1.38-.25-.14-.53-.2-.84-.2-.64,0-1.2.3-1.55.79-.18.24-.3.52-.34.82h.58c.15-.61.66-1.04,1.31-1.04.58,0,1.05.42,1.05,1.01,0,.76-.61,1.21-1.41,1.21h-.22v.56h.22c.94,0,1.62.47,1.62,1.31,0,.75-.5,1.28-1.27,1.28s-1.22-.44-1.4-1.1h-.6c.22.94.89,1.65,1.98,1.65.72,0,1.31-.33,1.64-.89.15-.28.23-.59.23-.95,0-.51-.25-1-.67-1.31-.21-.15-.44-.25-.69-.29Z" style="fill:none; stroke:#0d0d0b; stroke-width:.15px;"/><path d="m203.69,95.05c-.46,0-.88.23-1.14.73v-.64h-.58v4.5h.57v-2.45c0-.9.4-1.58,1.04-1.58.44,0,.67.29.71.86h.58c-.04-.89-.5-1.42-1.19-1.42m-5.26.56c.62,0,.96.59,1.03,1.38h-2.13c.1-.79.46-1.38,1.11-1.38m0-.56c-.75,0-1.27.48-1.52,1.19-.13.35-.19.74-.19,1.15,0,.83.24,1.58.76,2.02.26.22.58.32.95.32.83,0,1.42-.59,1.56-1.48h-.59c-.14.62-.45.93-.96.93-.72,0-1.09-.74-1.12-1.63h2.76c.03-1.38-.49-2.49-1.64-2.49m-6.47.09l1.33,4.5h.67l1.33-4.5h-.6l-1.06,3.78-1.06-3.78h-.6Zm-3.1,4.03c.76,0,1.03-.78,1.03-1.78s-.27-1.78-1.03-1.78-1.04.81-1.04,1.78.28,1.78,1.04,1.78m0-4.12c.75,0,1.23.49,1.46,1.2.11.35.16.74.16,1.14,0,1.32-.51,2.34-1.62,2.34s-1.62-1.02-1.62-2.34.53-2.34,1.62-2.34m-8.14,3.81c-.22.12-.58.22-.78.22-.42,0-.62-.17-.62-.65v-2.75h1.35v-.54h-1.35v-1.5h-.58v1.5h-1.08v.54h1.08v2.75c0,.75.42,1.2,1.15,1.2.25,0,.68-.08.95-.21l-.12-.56Zm-6.37.32c-.5,0-.83-.27-.83-.74,0-.67.8-.96,1.7-.96h.36v.25c0,.82-.48,1.45-1.23,1.45m.41-4.13c-.77,0-1.41.49-1.51,1.35h.59c.05-.51.45-.79.92-.79.51,0,.81.33.81,1.03v.31h-.31c-1.31,0-2.33.44-2.33,1.51,0,.78.59,1.28,1.38,1.28.48,0,1.04-.28,1.25-.75l.02.67h.57v-3.01c0-1.01-.52-1.58-1.38-1.58m-4.78,0c-.54,0-1.02.26-1.27.74v-.65s0-1.8,0-1.8h-.59v6.3h.58v-2.45c0-.97.41-1.58,1.2-1.58.55,0,.78.39.78,1.01v3.02h.58v-3.02c0-.93-.46-1.56-1.3-1.56m-3.57,3.81c-.23.12-.58.22-.78.22-.42,0-.62-.17-.62-.65v-2.75h1.35v-.54h-1.35v-1.5h-.57v1.5h-1.08v.54h1.08v2.75c0,.75.42,1.2,1.15,1.2.25,0,.68-.08.95-.21l-.12-.56Zm-10.89.31c-.75,0-1.08-.77-1.08-1.78s.33-1.77,1.08-1.77c.66,0,1.02.66,1.02,1.77s-.36,1.78-1.02,1.78m.98-3.43c-.21-.42-.61-.68-1.05-.68-1.04,0-1.59,1-1.59,2.33s.56,2.34,1.59,2.34c.47,0,.86-.29,1.07-.72v.63h.57v-6.3h-.58v2.4Zm-5.77-.13c.62,0,.96.59,1.03,1.38h-2.13c.1-.79.46-1.38,1.11-1.38m0-.56c-.75,0-1.27.48-1.52,1.19-.13.35-.19.74-.19,1.15,0,.83.24,1.58.76,2.02.26.22.58.32.95.32.83,0,1.42-.59,1.56-1.48h-.59c-.13.62-.45.93-.96.93-.72,0-1.09-.74-1.12-1.63h2.76c.03-1.38-.49-2.49-1.64-2.49m-3.4,3.81c-.23.12-.58.22-.78.22-.42,0-.62-.17-.62-.65v-2.75h1.35v-.54h-1.35v-1.5h-.57v1.5h-1.08v.54h1.08v2.75c0,.75.42,1.2,1.15,1.2.25,0,.68-.08.95-.21l-.12-.56Zm-6.07.31c-.75,0-1.13-.79-1.13-1.77s.38-1.76,1.13-1.76c.5,0,.81.36.89.96h.59c-.11-.95-.67-1.52-1.48-1.52-.72,0-1.25.44-1.51,1.15-.14.35-.2.75-.2,1.17h0c0,.86.27,1.6.78,2.02.26.21.57.31.93.31.82,0,1.38-.57,1.48-1.52h-.59c-.08.6-.39.96-.89.96m-4.84-3.56c.62,0,.96.59,1.03,1.38h-2.13c.1-.79.46-1.38,1.11-1.38m0-.56c-.75,0-1.27.48-1.52,1.19-.13.35-.19.74-.19,1.15,0,.83.24,1.58.76,2.02.26.22.58.32.96.32.83,0,1.42-.59,1.56-1.48h-.59c-.13.62-.45.93-.96.93-.72,0-1.09-.74-1.13-1.63h2.76c.03-1.38-.49-2.49-1.64-2.49m-4.78.64v4.02c0,.51-.22.68-.66.68-.22,0-.59-.09-.82-.21l-.13.56c.28.14.73.22.99.22.78,0,1.2-.46,1.2-1.24v-4.58s-1.75,0-1.75,0v.56h1.17Zm.2-1.27c.25,0,.45-.21.45-.46s-.2-.45-.45-.45-.45.21-.45.45.2.46.45.46m-4.99,4.75c.76,0,1.03-.78,1.03-1.78s-.27-1.78-1.03-1.78-1.04.81-1.04,1.78.28,1.78,1.04,1.78m0-4.12c.75,0,1.23.49,1.46,1.2.11.35.16.74.16,1.14,0,1.32-.51,2.34-1.62,2.34s-1.62-1.02-1.62-2.34.53-2.34,1.62-2.34m-4.25,0c-.46,0-.88.23-1.14.73v-.64h-.58v4.5h.57v-2.45c0-.9.4-1.58,1.04-1.58.44,0,.67.29.71.86h.58c-.04-.89-.5-1.42-1.19-1.42m-5.35,4.11c-.66,0-1.02-.66-1.02-1.77s.36-1.78,1.02-1.78c.75,0,1.08.77,1.08,1.78s-.33,1.77-1.08,1.77m.07-4.11c-.47,0-.86.29-1.07.72v-.63h-.57v6.3h.58v-2.4c.21.42.61.68,1.05.68,1.04,0,1.59-1,1.59-2.33s-.56-2.34-1.59-2.34m-8.03,1.25c-.14-.8-.74-1.25-1.49-1.25-.79,0-1.43.47-1.43,1.16,0,.46.29.83.85,1.11l1.04.52c.32.17.52.32.52.68,0,.4-.42.66-.94.66s-.95-.26-1.1-.83h-.59c.17.85.86,1.38,1.69,1.38.53,0,1.03-.21,1.3-.57.14-.18.21-.39.21-.63,0-.58-.31-.93-.82-1.18l-1.04-.52c-.4-.19-.57-.34-.57-.62,0-.37.4-.6.87-.6.44,0,.78.22.9.69h.59Zm-6.38-2.97h.72l-.76,2.17h-.52l.56-2.17Zm-3.29,5.53c-.22.12-.58.22-.78.22-.42,0-.62-.17-.62-.65v-2.75h1.35v-.54h-1.35v-1.5h-.57v1.5h-1.08v.54h1.08v2.75c0,.75.42,1.2,1.15,1.2.25,0,.68-.08.94-.21l-.12-.56Zm-4.68.21h-1.19v-3.94h-1.57v.56h.98v3.38h-1.21v.56h2.98v-.56Zm-1.55-4.63c.25,0,.45-.21.45-.46s-.2-.45-.45-.45-.45.21-.45.45.2.46.45.46m-9.82,4.1h.72l-.76,2.17h-.52l.56-2.17Zm-3.88-2.26c.67-.18,1.16-.83,1.16-1.47,0-.6-.31-1.11-.8-1.38-.25-.13-.53-.2-.84-.2-.64,0-1.2.3-1.55.79-.18.24-.3.52-.34.82h.58c.15-.61.66-1.04,1.31-1.04.58,0,1.05.42,1.05,1.01,0,.76-.61,1.21-1.41,1.21h-.22v.56h.22c.94,0,1.62.47,1.62,1.31,0,.75-.5,1.28-1.27,1.28s-1.22-.44-1.4-1.1h-.6c.22.94.89,1.65,1.98,1.65.72,0,1.31-.33,1.64-.89.15-.28.23-.59.23-.94,0-.51-.25-1-.67-1.31-.21-.15-.44-.25-.69-.29m-4.63.49c.5-.4.79-.68.98-1.11.1-.22.14-.46.14-.74,0-.6-.31-1.15-.84-1.46-.26-.15-.56-.23-.88-.23-1.07,0-1.82.78-1.93,1.92h.58c.11-.79.57-1.34,1.35-1.34.68,0,1.14.49,1.14,1.1,0,.74-.49,1.06-.9,1.39l-.94.75c-.86.68-1.18,1.36-1.24,2.55h3.61s0-.58,0-.58h-2.96c.11-.66.4-1.07.94-1.5l.95-.77Zm-4.27-.28c0,1.63-.41,2.66-1.22,2.66s-1.21-.97-1.21-2.66.4-2.64,1.21-2.64,1.22.98,1.22,2.64m.6,0c0-2.03-.59-3.24-1.82-3.24s-1.79,1.21-1.79,3.24.58,3.24,1.79,3.24c1.22,0,1.82-1.22,1.82-3.24m-5.87.28c.5-.4.79-.68.98-1.11.1-.22.14-.46.14-.74,0-.6-.31-1.15-.84-1.46-.26-.15-.56-.23-.88-.23-1.07,0-1.82.78-1.93,1.92h.58c.11-.79.57-1.34,1.35-1.34.68,0,1.14.49,1.14,1.1,0,.74-.49,1.06-.9,1.39l-.94.75c-.86.68-1.18,1.36-1.24,2.55h3.61s0-.58,0-.58h-2.96c.11-.66.4-1.07.94-1.5l.95-.77Zm-11.97-1.64l1.49,4.45-.54,1.62h.6l1.95-6.07h-.61l-1.12,3.65-1.15-3.65h-.61Zm-4.25,3.93v-2.38h1.35c.72,0,1.19.5,1.19,1.22s-.4,1.15-1.16,1.15h-1.38Zm1.29-5.18c.6,0,1,.41,1,1.09,0,.72-.47,1.15-1.08,1.15h-1.21v-2.24h1.29Zm.68,2.48c.53-.19.91-.82.91-1.39,0-.64-.29-1.15-.77-1.44-.24-.13-.51-.21-.81-.21h-1.88v6.3h1.97c1.07,0,1.75-.67,1.75-1.72,0-.72-.47-1.36-1.16-1.54" style="fill:#0d0d0b;"/><path d="m203.69,95.05c-.46,0-.88.23-1.14.73v-.64h-.58v4.5h.57v-2.45c0-.9.4-1.58,1.04-1.58.44,0,.67.29.71.86h.58c-.04-.89-.5-1.42-1.19-1.42Zm-5.26.56c.62,0,.96.59,1.03,1.38h-2.13c.1-.79.46-1.38,1.11-1.38Zm0-.56c-.75,0-1.27.48-1.52,1.19-.13.35-.19.74-.19,1.15,0,.83.24,1.58.76,2.02.26.22.58.32.95.32.83,0,1.42-.59,1.56-1.48h-.59c-.14.62-.45.93-.96.93-.72,0-1.09-.74-1.12-1.63h2.76c.03-1.38-.49-2.49-1.64-2.49Zm-6.47.09l1.33,4.5h.67l1.33-4.5h-.6l-1.06,3.78-1.06-3.78h-.6Zm-3.1,4.03c.76,0,1.03-.78,1.03-1.78s-.27-1.78-1.03-1.78-1.04.81-1.04,1.78.28,1.78,1.04,1.78Zm0-4.12c.75,0,1.23.49,1.46,1.2.11.35.16.74.16,1.14,0,1.32-.51,2.34-1.62,2.34s-1.62-1.02-1.62-2.34.53-2.34,1.62-2.34Zm-8.14,3.81c-.22.12-.58.22-.78.22-.42,0-.62-.17-.62-.65v-2.75h1.35v-.54h-1.35v-1.5h-.58v1.5h-1.08v.54h1.08v2.75c0,.75.42,1.2,1.15,1.2.25,0,.68-.08.95-.21l-.12-.56Zm-6.37.32c-.5,0-.83-.27-.83-.74,0-.67.8-.96,1.7-.96h.36v.25c0,.82-.48,1.45-1.23,1.45Zm.41-4.13c-.77,0-1.41.49-1.51,1.35h.59c.05-.51.45-.79.92-.79.51,0,.81.33.81,1.03v.31h-.31c-1.31,0-2.33.44-2.33,1.51,0,.78.59,1.28,1.38,1.28.48,0,1.04-.28,1.25-.75l.02.67h.57v-3.01c0-1.01-.52-1.58-1.38-1.58Zm-4.78,0c-.54,0-1.02.26-1.27.74v-.65s0-1.8,0-1.8h-.59v6.3h.58v-2.45c0-.97.41-1.58,1.2-1.58.55,0,.78.39.78,1.01v3.02h.58v-3.02c0-.93-.46-1.56-1.3-1.56Zm-3.57,3.81c-.23.12-.58.22-.78.22-.42,0-.62-.17-.62-.65v-2.75h1.35v-.54h-1.35v-1.5h-.57v1.5h-1.08v.54h1.08v2.75c0,.75.42,1.2,1.15,1.2.25,0,.68-.08.95-.21l-.12-.56Zm-10.89.31c-.75,0-1.08-.77-1.08-1.78s.33-1.77,1.08-1.77c.66,0,1.02.66,1.02,1.77s-.36,1.78-1.02,1.78Zm.98-3.43c-.21-.42-.61-.68-1.05-.68-1.04,0-1.59,1-1.59,2.33s.56,2.34,1.59,2.34c.47,0,.86-.29,1.07-.72v.63h.57v-6.3h-.58v2.4Zm-5.77-.13c.62,0,.96.59,1.03,1.38h-2.13c.1-.79.46-1.38,1.11-1.38Zm0-.56c-.75,0-1.27.48-1.52,1.19-.13.35-.19.74-.19,1.15,0,.83.24,1.58.76,2.02.26.22.58.32.95.32.83,0,1.42-.59,1.56-1.48h-.59c-.13.62-.45.93-.96.93-.72,0-1.09-.74-1.12-1.63h2.76c.03-1.38-.49-2.49-1.64-2.49Zm-3.4,3.81c-.23.12-.58.22-.78.22-.42,0-.62-.17-.62-.65v-2.75h1.35v-.54h-1.35v-1.5h-.57v1.5h-1.08v.54h1.08v2.75c0,.75.42,1.2,1.15,1.2.25,0,.68-.08.95-.21l-.12-.56Zm-6.07.31c-.75,0-1.13-.79-1.13-1.77s.38-1.76,1.13-1.76c.5,0,.81.36.89.96h.59c-.11-.95-.67-1.52-1.48-1.52-.72,0-1.25.44-1.51,1.15-.14.35-.2.75-.2,1.17h0c0,.86.27,1.6.78,2.02.26.21.57.31.93.31.82,0,1.38-.57,1.48-1.52h-.59c-.08.6-.39.96-.89.96Zm-4.84-3.56c.62,0,.96.59,1.03,1.38h-2.13c.1-.79.46-1.38,1.11-1.38Zm0-.56c-.75,0-1.27.48-1.52,1.19-.13.35-.19.74-.19,1.15,0,.83.24,1.58.76,2.02.26.22.58.32.96.32.83,0,1.42-.59,1.56-1.48h-.59c-.13.62-.45.93-.96.93-.72,0-1.09-.74-1.13-1.63h2.76c.03-1.38-.49-2.49-1.64-2.49Zm-4.78.64v4.02c0,.51-.22.68-.66.68-.22,0-.59-.09-.82-.21l-.13.56c.28.14.73.22.99.22.78,0,1.2-.46,1.2-1.24v-4.58s-1.75,0-1.75,0v.56h1.17Zm.2-1.27c.25,0,.45-.21.45-.46s-.2-.45-.45-.45-.45.21-.45.45.2.46.45.46Zm-4.99,4.75c.76,0,1.03-.78,1.03-1.78s-.27-1.78-1.03-1.78-1.04.81-1.04,1.78.28,1.78,1.04,1.78Zm0-4.12c.75,0,1.23.49,1.46,1.2.11.35.16.74.16,1.14,0,1.32-.51,2.34-1.62,2.34s-1.62-1.02-1.62-2.34.53-2.34,1.62-2.34Zm-4.25,0c-.46,0-.88.23-1.14.73v-.64h-.58v4.5h.57v-2.45c0-.9.4-1.58,1.04-1.58.44,0,.67.29.71.86h.58c-.04-.89-.5-1.42-1.19-1.42Zm-5.35,4.11c-.66,0-1.02-.66-1.02-1.77s.36-1.78,1.02-1.78c.75,0,1.08.77,1.08,1.78s-.33,1.77-1.08,1.77Zm.07-4.11c-.47,0-.86.29-1.07.72v-.63h-.57v6.3h.58v-2.4c.21.42.61.68,1.05.68,1.04,0,1.59-1,1.59-2.33s-.56-2.34-1.59-2.34Zm-8.03,1.25c-.14-.8-.74-1.25-1.49-1.25-.79,0-1.43.47-1.43,1.16,0,.46.29.83.85,1.11l1.04.52c.32.17.52.32.52.68,0,.4-.42.66-.94.66s-.95-.26-1.1-.83h-.59c.17.85.86,1.38,1.69,1.38.53,0,1.03-.21,1.3-.57.14-.18.21-.39.21-.63,0-.58-.31-.93-.82-1.18l-1.04-.52c-.4-.19-.57-.34-.57-.62,0-.37.4-.6.87-.6.44,0,.78.22.9.69h.59Zm-6.38-2.97h.72l-.76,2.17h-.52l.56-2.17Zm-3.29,5.53c-.22.12-.58.22-.78.22-.42,0-.62-.17-.62-.65v-2.75h1.35v-.54h-1.35v-1.5h-.57v1.5h-1.08v.54h1.08v2.75c0,.75.42,1.2,1.15,1.2.25,0,.68-.08.94-.21l-.12-.56Zm-4.68.21h-1.19v-3.94h-1.57v.56h.98v3.38h-1.21v.56h2.98v-.56Zm-1.55-4.63c.25,0,.45-.21.45-.46s-.2-.45-.45-.45-.45.21-.45.45.2.46.45.46Zm-9.82,4.1h.72l-.76,2.17h-.52l.56-2.17Zm-3.88-2.26c.67-.18,1.16-.83,1.16-1.47,0-.6-.31-1.11-.8-1.38-.25-.13-.53-.2-.84-.2-.64,0-1.2.3-1.55.79-.18.24-.3.52-.34.82h.58c.15-.61.66-1.04,1.31-1.04.58,0,1.05.42,1.05,1.01,0,.76-.61,1.21-1.41,1.21h-.22v.56h.22c.94,0,1.62.47,1.62,1.31,0,.75-.5,1.28-1.27,1.28s-1.22-.44-1.4-1.1h-.6c.22.94.89,1.65,1.98,1.65.72,0,1.31-.33,1.64-.89.15-.28.23-.59.23-.94,0-.51-.25-1-.67-1.31-.21-.15-.44-.25-.69-.29Zm-4.63.49c.5-.4.79-.68.98-1.11.1-.22.14-.46.14-.74,0-.6-.31-1.15-.84-1.46-.26-.15-.56-.23-.88-.23-1.07,0-1.82.78-1.93,1.92h.58c.11-.79.57-1.34,1.35-1.34.68,0,1.14.49,1.14,1.1,0,.74-.49,1.06-.9,1.39l-.94.75c-.86.68-1.18,1.36-1.24,2.55h3.61s0-.58,0-.58h-2.96c.11-.66.4-1.07.94-1.5l.95-.77Zm-4.27-.28c0,1.63-.41,2.66-1.22,2.66s-1.21-.97-1.21-2.66.4-2.64,1.21-2.64,1.22.98,1.22,2.64Zm.6,0c0-2.03-.59-3.24-1.82-3.24s-1.79,1.21-1.79,3.24.58,3.24,1.79,3.24c1.22,0,1.82-1.22,1.82-3.24Zm-5.87.28c.5-.4.79-.68.98-1.11.1-.22.14-.46.14-.74,0-.6-.31-1.15-.84-1.46-.26-.15-.56-.23-.88-.23-1.07,0-1.82.78-1.93,1.92h.58c.11-.79.57-1.34,1.35-1.34.68,0,1.14.49,1.14,1.1,0,.74-.49,1.06-.9,1.39l-.94.75c-.86.68-1.18,1.36-1.24,2.55h3.61s0-.58,0-.58h-2.96c.11-.66.4-1.07.94-1.5l.95-.77Zm-11.97-1.64l1.49,4.45-.54,1.62h.6l1.95-6.07h-.61l-1.12,3.65-1.15-3.65h-.61Zm-4.25,3.93v-2.38h1.35c.72,0,1.19.5,1.19,1.22s-.4,1.15-1.16,1.15h-1.38Zm1.29-5.18c.6,0,1,.41,1,1.09,0,.72-.47,1.15-1.08,1.15h-1.21v-2.24h1.29Zm.68,2.48c.53-.19.91-.82.91-1.39,0-.64-.29-1.15-.77-1.44-.24-.13-.51-.21-.81-.21h-1.88v6.3h1.97c1.07,0,1.75-.67,1.75-1.72,0-.72-.47-1.36-1.16-1.54Z" style="fill:none; stroke:#0d0d0b; stroke-width:.15px;"/></g><path d="m49.17,47.31h4.44v-.56h-4.44v.56Zm9.54,0h4.44v-.56h-4.44v.56Zm9.54,0h4.44v-.56h-4.44v.56Zm9.54,0h4.44v-.56h-4.44v.56Zm9.54,0h4.44v-.56h-4.44v.56Zm9.54,0h4.44v-.56h-4.44v.56Zm9.54,0h4.44v-.56h-4.44v.56Zm9.54,0h4.44v-.56h-4.44v.56Zm9.54,0h4.44v-.56h-4.44v.56Zm9.54,0h4.44v-.56h-4.44v.56Z" style="fill:#0d0d0b;"/><path d="m139.47,46.75h-4.44v.56h4.44v-.56Zm-9.54,0h-4.44v.56h4.44v-.56Zm-9.54,0h-4.44v.56h4.44v-.56Zm-9.54,0h-4.44v.56h4.44v-.56Zm-9.54,0h-4.44v.56h4.44v-.56Zm-9.54,0h-4.44v.56h4.44v-.56Zm-9.54,0h-4.44v.56h4.44v-.56Zm-9.54,0h-4.44v.56h4.44v-.56Zm-9.54,0h-4.44v.56h4.44v-.56Zm-9.54,0h-4.44v.56h4.44v-.56Z" style="fill:none; stroke:#0d0d0b; stroke-width:.15px;"/><path d="m33.16,50.92h3.02v-.54h-3.02v.54Zm4.77,0h3.02v-.54h-3.02v.54Zm4.77,0h3.02v-.54h-3.02v.54Zm4.77,0h3.02v-.54h-3.02v.54Zm4.77,0h3.02v-.54h-3.02v.54Zm4.77,0h3.02v-.54h-3.02v.54Zm4.77,0h3.02v-.54h-3.02v.54Z" style="fill:#0d0d0b;"/><path d="m61.78,50.92h3.02v-.54h-3.02v.54Zm-4.77,0h3.02v-.54h-3.02v.54Zm-4.77,0h3.02v-.54h-3.02v.54Zm-4.77,0h3.02v-.54h-3.02v.54Zm-4.77,0h3.02v-.54h-3.02v.54Zm-4.77,0h3.02v-.54h-3.02v.54Zm-4.77,0h3.02v-.54h-3.02v.54Z" style="fill:none; stroke:#0d0d0b; stroke-width:.15px;"/><path d="m192.09,48.79h3.02v-.54h-3.02v.54Zm4.77,0h3.02v-.54h-3.02v.54Zm4.77,0h3.02v-.54h-3.02v.54Zm4.77,0h3.02v-.54h-3.02v.54Z" style="fill:#0d0d0b;"/><path d="m206.4,48.79h3.02v-.54h-3.02v.54Zm-4.77,0h3.02v-.54h-3.02v.54Zm-4.77,0h3.02v-.54h-3.02v.54Zm-4.77,0h3.02v-.54h-3.02v.54Z" style="fill:none; stroke:#0d0d0b; stroke-width:.15px;"/><path d="m73.16,43.53h3.02v-.54h-3.02v.54Zm4.77,0h3.02v-.54h-3.02v.54Zm4.77,0h3.02v-.54h-3.02v.54Zm4.77,0h3.02v-.54h-3.02v.54Zm4.77,0h3.02v-.54h-3.02v.54Zm4.77,0h3.02v-.54h-3.02v.54Zm4.77,0h3.02v-.54h-3.02v.54Z" style="fill:#0d0d0b;"/><path d="m101.78,43.53h3.02v-.54h-3.02v.54Zm-4.77,0h3.02v-.54h-3.02v.54Zm-4.77,0h3.02v-.54h-3.02v.54Zm-4.77,0h3.02v-.54h-3.02v.54Zm-4.77,0h3.02v-.54h-3.02v.54Zm-4.77,0h3.02v-.54h-3.02v.54Zm-4.77,0h3.02v-.54h-3.02v.54Z" style="fill:none; stroke:#0d0d0b; stroke-width:.15px;"/><path d="m152.11,60.69h3.02v-.54h-3.02v.54Zm4.77,0h3.02v-.54h-3.02v.54Zm4.77,0h3.02v-.54h-3.02v.54Zm4.77,0h3.02v-.54h-3.02v.54Zm4.77,0h3.02v-.54h-3.02v.54Zm4.77,0h3.02v-.54h-3.02v.54Zm4.77,0h3.02v-.54h-3.02v.54Z" style="fill:#0d0d0b;"/><path d="m180.73,60.69h3.02v-.54h-3.02v.54Zm-4.77,0h3.02v-.54h-3.02v.54Zm-4.77,0h3.02v-.54h-3.02v.54Zm-4.77,0h3.02v-.54h-3.02v.54Zm-4.77,0h3.02v-.54h-3.02v.54Zm-4.77,0h3.02v-.54h-3.02v.54Zm-4.77,0h3.02v-.54h-3.02v.54Z" style="fill:none; stroke:#0d0d0b; stroke-width:.15px;"/><path d="m104.48,33.88h3.02v-.54h-3.02v.54Zm4.77,0h3.02v-.54h-3.02v.54Zm4.77,0h3.02v-.54h-3.02v.54Zm4.77,0h3.02v-.54h-3.02v.54Zm4.77,0h3.02v-.54h-3.02v.54Zm4.77,0h3.02v-.54h-3.02v.54Zm4.77,0h3.02v-.54h-3.02v.54Z" style="fill:#0d0d0b;"/><path d="m133.1,33.88h3.02v-.54h-3.02v.54Zm-4.77,0h3.02v-.54h-3.02v.54Zm-4.77,0h3.02v-.54h-3.02v.54Zm-4.77,0h3.02v-.54h-3.02v.54Zm-4.77,0h3.02v-.54h-3.02v.54Zm-4.77,0h3.02v-.54h-3.02v.54Zm-4.77,0h3.02v-.54h-3.02v.54Z" style="fill:none; stroke:#0d0d0b; stroke-width:.15px;"/><polygon points="88.24 59.66 88.03 59.01 86.78 59.55 86.94 58.19 86.28 58.19 86.44 59.55 85.21 59 85 59.63 86.35 59.87 85.4 60.87 85.93 61.26 86.62 60.08 87.29 61.27 87.82 60.87 86.89 59.89 88.24 59.66" style="fill:#0d0d0b;"/><polygon points="88.24 59.66 88.03 59.01 86.78 59.55 86.94 58.19 86.28 58.19 86.44 59.55 85.21 59 85 59.63 86.35 59.87 85.4 60.87 85.93 61.26 86.62 60.08 87.29 61.27 87.82 60.87 86.89 59.89 88.24 59.66" style="fill:none; stroke:#0d0d0b; stroke-width:.15px;"/><polygon points="108.24 39.35 108.03 38.7 106.78 39.24 106.94 37.88 106.28 37.88 106.44 39.24 105.21 38.69 105 39.32 106.35 39.55 105.4 40.55 105.93 40.95 106.62 39.77 107.29 40.96 107.82 40.55 106.89 39.58 108.24 39.35" style="fill:#0d0d0b;"/><polygon points="108.24 39.35 108.03 38.7 106.78 39.24 106.94 37.88 106.28 37.88 106.44 39.24 105.21 38.69 105 39.32 106.35 39.55 105.4 40.55 105.93 40.95 106.62 39.77 107.29 40.96 107.82 40.55 106.89 39.58 108.24 39.35" style="fill:none; stroke:#0d0d0b; stroke-width:.15px;"/><polygon points="25.47 48.66 25.26 48.01 24.01 48.55 24.17 47.19 23.51 47.19 23.67 48.55 22.44 48 22.23 48.63 23.58 48.86 22.63 49.86 23.16 50.26 23.85 49.08 24.52 50.27 25.05 49.86 24.12 48.89 25.47 48.66" style="fill:#0d0d0b;"/><polygon points="25.47 48.66 25.26 48.01 24.01 48.55 24.17 47.19 23.51 47.19 23.67 48.55 22.44 48 22.23 48.63 23.58 48.86 22.63 49.86 23.16 50.26 23.85 49.08 24.52 50.27 25.05 49.86 24.12 48.89 25.47 48.66" style="fill:none; stroke:#0d0d0b; stroke-width:.15px;"/><polygon points="186.24 56.45 186.04 55.8 184.79 56.34 184.95 54.98 184.28 54.98 184.44 56.34 183.21 55.79 183 56.42 184.35 56.65 183.41 57.65 183.93 58.05 184.62 56.87 185.3 58.06 185.83 57.65 184.89 56.68 186.24 56.45" style="fill:#0d0d0b;"/><polygon points="186.24 56.45 186.04 55.8 184.79 56.34 184.95 54.98 184.28 54.98 184.44 56.34 183.21 55.79 183 56.42 184.35 56.65 183.41 57.65 183.93 58.05 184.62 56.87 185.3 58.06 185.83 57.65 184.89 56.68 186.24 56.45" style="fill:none; stroke:#0d0d0b; stroke-width:.15px;"/><polygon points="93.61 28.25 93.4 27.6 92.15 28.14 92.31 26.78 91.64 26.78 91.81 28.14 90.57 27.59 90.37 28.22 91.72 28.45 90.77 29.45 91.29 29.85 91.99 28.67 92.66 29.86 93.19 29.45 92.26 28.48 93.61 28.25" style="fill:#0d0d0b;"/><polygon points="93.61 28.25 93.4 27.6 92.15 28.14 92.31 26.78 91.64 26.78 91.81 28.14 90.57 27.59 90.37 28.22 91.72 28.45 90.77 29.45 91.29 29.85 91.99 28.67 92.66 29.86 93.19 29.45 92.26 28.48 93.61 28.25" style="fill:none; stroke:#0d0d0b; stroke-width:.15px;"/><polygon points="230.4 39.05 230.19 38.4 228.94 38.94 229.1 37.58 228.44 37.58 228.6 38.94 227.37 38.39 227.16 39.02 228.51 39.25 227.57 40.25 228.09 40.65 228.78 39.47 229.46 40.66 229.99 40.25 229.05 39.28 230.4 39.05" style="fill:#0d0d0b;"/><polygon points="230.4 39.05 230.19 38.4 228.94 38.94 229.1 37.58 228.44 37.58 228.6 38.94 227.37 38.39 227.16 39.02 228.51 39.25 227.57 40.25 228.09 40.65 228.78 39.47 229.46 40.66 229.99 40.25 229.05 39.28 230.4 39.05" style="fill:none; stroke:#0d0d0b; stroke-width:.15px;"/><path d="m90.17,65.01h4.43v-.56h-4.43v.56Zm9.54,0h4.43v-.56h-4.43v.56Zm9.54,0h4.43v-.56h-4.43v.56Zm9.54,0h4.43v-.56h-4.43v.56Zm9.54,0h4.44v-.56h-4.44v.56Zm9.54,0h4.44v-.56h-4.44v.56Zm9.54,0h4.44v-.56h-4.44v.56Zm9.54,0h4.44v-.56h-4.44v.56Z" style="fill:#0d0d0b;"/><path d="m161.38,64.46h-4.44v.56h4.44v-.56Zm-9.54,0h-4.44v.56h4.44v-.56Zm-9.54,0h-4.44v.56h4.44v-.56Zm-9.54,0h-4.44v.56h4.44v-.56Zm-9.54,0h-4.44v.56h4.44v-.56Zm-9.54,0h-4.44v.56h4.44v-.56Zm-9.54,0h-4.44v.56h4.44v-.56Zm-9.54,0h-4.44v.56h4.44v-.56Z" style="fill:none; stroke:#0d0d0b; stroke-width:.15px;"/><g style="clip-path:url(#g); fill:none;"><path d="m191.32,34.23c.29,0,.55-.25.55-.54s-.26-.55-.55-.55-.54.25-.54.55.25.54.54.54m-6.23-2.13h3.02v-.54h-3.02v.54Zm-4.77,0h3.02v-.54h-3.02v.54Zm-4.77,0h3.02v-.54h-3.02v.54Zm-4.77,0h3.02v-.54h-3.02v.54Zm-4.77,0h3.02v-.54h-3.02v.54Zm-4.77,0h3.02v-.54h-3.02v.54Zm-4.77,0h3.02v-.54h-3.02v.54Zm-4.77,0h3.02v-.54h-3.02v.54Zm-4.77,0h3.02v-.54h-3.02v.54Zm-3.31,2.13c.29,0,.55-.25.55-.54s-.26-.55-.55-.55-.54.25-.54.55.25.54.54.54" style="fill:#0d0d0b;"/><path d="m191.32,34.23c.29,0,.55-.25.55-.54s-.26-.55-.55-.55-.54.25-.54.55.25.54.54.54Zm-6.23-2.13h3.02v-.54h-3.02v.54Zm-4.77,0h3.02v-.54h-3.02v.54Zm-4.77,0h3.02v-.54h-3.02v.54Zm-4.77,0h3.02v-.54h-3.02v.54Zm-4.77,0h3.02v-.54h-3.02v.54Zm-4.77,0h3.02v-.54h-3.02v.54Zm-4.77,0h3.02v-.54h-3.02v.54Zm-4.77,0h3.02v-.54h-3.02v.54Zm-4.77,0h3.02v-.54h-3.02v.54Zm-3.31,2.13c.29,0,.55-.25.55-.54s-.26-.55-.55-.55-.54.25-.54.55.25.54.54.54Z" style="fill:none; stroke:#0d0d0b; stroke-width:.15px;"/></g><path d="m143.36,64.72h.54v-3.02h-.54v3.02Zm0-4.77h.54v-3.02h-.54v3.02Zm0-4.77h.54v-3.02h-.54v3.02Zm0-4.77h.54v-3.02h-.54v3.02Zm0-4.77h.54v-3.02h-.54v3.02Zm0-4.77h.54v-3.02h-.54v3.02Z" style="fill:#0d0d0b;"/><path d="m143.9,61.69h-.54v3.02h.54v-3.02Zm0-4.77h-.54v3.02h.54v-3.02Zm0-4.77h-.54v3.02h.54v-3.02Zm0-4.77h-.54v3.02h.54v-3.02Zm0-4.77h-.54v3.02h.54v-3.02Zm0-4.77h-.54v3.02h.54v-3.02Z" style="fill:none; stroke:#0d0d0b; stroke-width:.15px;"/><path d="m191.36,64.42h.54v-3.02h-.54v3.02Zm0-4.77h.54v-3.02h-.54v3.02Zm0-4.77h.54v-3.02h-.54v3.02Zm0-4.77h.54v-3.02h-.54v3.02Zm0-4.77h.54v-3.02h-.54v3.02Zm0-4.77h.54v-3.02h-.54v3.02Z" style="fill:#0d0d0b;"/><path d="m191.9,61.4h-.54v3.02h.54v-3.02Zm0-4.77h-.54v3.02h.54v-3.02Zm0-4.77h-.54v3.02h.54v-3.02Zm0-4.77h-.54v3.02h.54v-3.02Zm0-4.77h-.54v3.02h.54v-3.02Zm0-4.77h-.54v3.02h.54v-3.02Z" style="fill:none; stroke:#0d0d0b; stroke-width:.15px;"/><g style="clip-path:url(#h); fill:none;"><path d="m191.32,67.66c.29,0,.55.25.55.54s-.26.55-.55.55-.54-.25-.54-.55.25-.54.54-.54m-6.23,2.13h3.02v.54h-3.02v-.54Zm-4.77,0h3.02v.54h-3.02v-.54Zm-4.77,0h3.02v.54h-3.02v-.54Zm-4.77,0h3.02v.54h-3.02v-.54Zm-4.77,0h3.02v.54h-3.02v-.54Zm-4.77,0h3.02v.54h-3.02v-.54Zm-4.77,0h3.02v.54h-3.02v-.54Zm-4.77,0h3.02v.54h-3.02v-.54Zm-4.77,0h3.02v.54h-3.02v-.54Zm-3.31-2.13c.29,0,.55.25.55.54s-.26.55-.55.55-.54-.25-.54-.55.25-.54.54-.54" style="fill:#0d0d0b;"/><path d="m191.32,67.66c.29,0,.55.25.55.54s-.26.55-.55.55-.54-.25-.54-.55.25-.54.54-.54Zm-6.23,2.13h3.02v.54h-3.02v-.54Zm-4.77,0h3.02v.54h-3.02v-.54Zm-4.77,0h3.02v.54h-3.02v-.54Zm-4.77,0h3.02v.54h-3.02v-.54Zm-4.77,0h3.02v.54h-3.02v-.54Zm-4.77,0h3.02v.54h-3.02v-.54Zm-4.77,0h3.02v.54h-3.02v-.54Zm-4.77,0h3.02v.54h-3.02v-.54Zm-4.77,0h3.02v.54h-3.02v-.54Zm-3.31-2.13c.29,0,.55.25.55.54s-.26.55-.55.55-.54-.25-.54-.55.25-.54.54-.54Z" style="fill:none; stroke:#0d0d0b; stroke-width:.15px;"/></g><path d="m165.71,49.07l-.32.43,2.43,1.8.32-.43-2.43-1.8Zm-3.83-2.84l-.32.43,2.43,1.8.32-.43-2.43-1.8Zm-3.84-2.84l-.32.43,2.43,1.8.32-.43-2.43-1.8Zm-3.83-2.84l-.32.43,2.43,1.8.32-.43-2.43-1.8Zm-3.83-2.84l-.32.43,2.43,1.8.32-.43-2.43-1.8Zm-3.83-2.84l-.32.43,2.43,1.8.32-.43-2.43-1.8Z" style="fill:#0d0d0b;"/><path d="m165.71,49.07l-.32.43,2.43,1.8.32-.43-2.43-1.8Zm-3.83-2.84l-.32.43,2.43,1.8.32-.43-2.43-1.8Zm-3.84-2.84l-.32.43,2.43,1.8.32-.43-2.43-1.8Zm-3.83-2.84l-.32.43,2.43,1.8.32-.43-2.43-1.8Zm-3.83-2.84l-.32.43,2.43,1.8.32-.43-2.43-1.8Zm-3.83-2.84l-.32.43,2.43,1.8.32-.43-2.43-1.8Z" style="fill:none; stroke:#0d0d0b; stroke-width:.15px;"/><path d="m170.02,49.07l.32.43-2.43,1.8-.32-.43,2.43-1.8Zm3.83-2.84l.32.43-2.43,1.8-.32-.43,2.43-1.8Zm3.84-2.84l.32.43-2.43,1.8-.32-.43,2.43-1.8Zm3.83-2.84l.32.43-2.43,1.8-.32-.43,2.43-1.8Zm3.83-2.84l.32.43-2.43,1.8-.32-.43,2.43-1.8Zm3.83-2.84l.32.43-2.43,1.8-.32-.43,2.43-1.8Z" style="fill:#0d0d0b;"/><path d="m170.02,49.07l.32.43-2.43,1.8-.32-.43,2.43-1.8Zm3.83-2.84l.32.43-2.43,1.8-.32-.43,2.43-1.8Zm3.84-2.84l.32.43-2.43,1.8-.32-.43,2.43-1.8Zm3.83-2.84l.32.43-2.43,1.8-.32-.43,2.43-1.8Zm3.83-2.84l.32.43-2.43,1.8-.32-.43,2.43-1.8Zm3.83-2.84l.32.43-2.43,1.8-.32-.43,2.43-1.8Z" style="fill:none; stroke:#0d0d0b; stroke-width:.15px;"/><path d="m192.02,44.15h4.43v-.56h-4.43v.56Zm9.54,0h4.43v-.56h-4.43v.56Zm9.54,0h4.43v-.56h-4.43v.56Zm9.54,0h4.43v-.56h-4.43v.56Z" style="fill:#0d0d0b;"/><path d="m225.07,43.59h-4.44v.56h4.44v-.56Zm-9.54,0h-4.44v.56h4.44v-.56Zm-9.54,0h-4.44v.56h4.44v-.56Zm-9.54,0h-4.44v.56h4.44v-.56Z" style="fill:none; stroke:#0d0d0b; stroke-width:.15px;"/></svg>