<?xml version="1.0" encoding="UTF-8"?><svg id="a" xmlns="http://www.w3.org/2000/svg" xmlns:xlink="http://www.w3.org/1999/xlink" viewBox="0 0 254 131.5"><defs><clipPath id="b"><rect x=".07" y=".42" width="252.91" height="130.57" style="fill:none;"/></clipPath><clipPath id="c"><rect x=".07" y=".42" width="252.91" height="130.57" style="fill:none;"/></clipPath><clipPath id="d"><rect x=".07" y=".42" width="252.91" height="130.57" style="fill:none;"/></clipPath><clipPath id="e"><rect x=".07" y=".42" width="252.91" height="130.57" style="fill:none;"/></clipPath><clipPath id="f"><rect x=".07" y=".42" width="252.91" height="130.57" style="fill:none;"/></clipPath><clipPath id="g"><rect x=".07" y=".42" width="252.91" height="130.57" style="fill:none;"/></clipPath><clipPath id="h"><rect x=".07" y=".42" width="252.91" height="130.57" style="fill:none;"/></clipPath></defs><path d="m7.15,92.19h4.44v-.56h-4.44v.56Zm9.54,0h4.44v-.56h-4.44v.56Zm9.54,0h4.44v-.56h-4.44v.56Zm9.54,0h4.44v-.56h-4.44v.56Zm9.54,0h4.44v-.56h-4.44v.56Zm9.54,0h4.44v-.56h-4.44v.56Zm9.54,0h4.44v-.56h-4.44v.56Zm9.54,0h4.44v-.56h-4.44v.56Zm9.54,0h4.43v-.56h-4.43v.56Zm9.54,0h4.43v-.56h-4.43v.56Zm9.54,0h4.43v-.56h-4.43v.56Zm9.54,0h4.43v-.56h-4.43v.56Zm9.54,0h4.43v-.56h-4.43v.56Zm9.54,0h4.43v-.56h-4.43v.56Zm9.54,0h4.43v-.56h-4.43v.56Zm9.54,0h4.43v-.56h-4.43v.56Zm9.54,0h4.43v-.56h-4.43v.56Zm9.54,0h4.43v-.56h-4.43v.56Zm9.54,0h4.43v-.56h-4.43v.56Zm9.54,0h4.44v-.56h-4.44v.56Zm9.54,0h4.44v-.56h-4.44v.56Zm9.54,0h4.44v-.56h-4.44v.56Zm9.54,0h4.44v-.56h-4.44v.56Zm9.54,0h4.44v-.56h-4.44v.56Zm9.54,0h4.44v-.56h-4.44v.56Z" style="fill:#0d0d0b;"/><path d="m240.55,91.63h-4.44v.56h4.44v-.56Zm-9.54,0h-4.44v.56h4.44v-.56Zm-9.54,0h-4.44v.56h4.44v-.56Zm-9.54,0h-4.44v.56h4.44v-.56Zm-9.54,0h-4.44v.56h4.44v-.56Zm-9.54,0h-4.44v.56h4.44v-.56Zm-9.54,0h-4.44v.56h4.44v-.56Zm-9.54,0h-4.44v.56h4.44v-.56Zm-9.54,0h-4.44v.56h4.44v-.56Zm-9.54,0h-4.44v.56h4.44v-.56Zm-9.54,0h-4.44v.56h4.44v-.56Zm-9.54,0h-4.44v.56h4.44v-.56Zm-9.54,0h-4.44v.56h4.44v-.56Zm-9.54,0h-4.44v.56h4.44v-.56Zm-9.54,0h-4.44v.56h4.44v-.56Zm-9.54,0h-4.44v.56h4.44v-.56Zm-9.54,0h-4.44v.56h4.44v-.56Zm-9.54,0h-4.44v.56h4.44v-.56Zm-9.54,0h-4.44v.56h4.44v-.56Zm-9.54,0h-4.44v.56h4.44v-.56Zm-9.54,0h-4.44v.56h4.44v-.56Zm-9.54,0h-4.44v.56h4.44v-.56Zm-9.54,0h-4.44v.56h4.44v-.56Zm-9.54,0h-4.44v.56h4.44v-.56Zm-9.54,0h-4.44v.56h4.44v-.56Z" style="fill:none; stroke:#0d0d0b; stroke-width:.15px;"/><path d="m10.03,130.29h4.44v-.56h-4.44v.56Zm9.54,0h4.44v-.56h-4.44v.56Zm9.54,0h4.44v-.56h-4.44v.56Zm9.54,0h4.44v-.56h-4.44v.56Zm9.54,0h4.44v-.56h-4.44v.56Zm9.54,0h4.44v-.56h-4.44v.56Zm9.54,0h4.44v-.56h-4.44v.56Zm9.54,0h4.44v-.56h-4.44v.56Zm9.54,0h4.44v-.56h-4.44v.56Zm9.54,0h4.44v-.56h-4.44v.56Zm9.54,0h4.44v-.56h-4.44v.56Zm9.54,0h4.44v-.56h-4.44v.56Zm9.54,0h4.44v-.56h-4.44v.56Zm9.54,0h4.44v-.56h-4.44v.56Zm9.54,0h4.44v-.56h-4.44v.56Zm9.54,0h4.44v-.56h-4.44v.56Zm9.54,0h4.44v-.56h-4.44v.56Zm9.54,0h4.44v-.56h-4.44v.56Zm9.54,0h4.44v-.56h-4.44v.56Zm9.54,0h4.44v-.56h-4.44v.56Zm9.54,0h4.44v-.56h-4.44v.56Zm9.54,0h4.44v-.56h-4.44v.56Zm9.54,0h4.44v-.56h-4.44v.56Zm9.54,0h4.44v-.56h-4.44v.56Zm9.54,0h4.44v-.56h-4.44v.56Z" style="fill:#0d0d0b;"/><path d="m243.42,129.73h-4.44v.56h4.44v-.56Zm-9.54,0h-4.44v.56h4.44v-.56Zm-9.54,0h-4.44v.56h4.44v-.56Zm-9.54,0h-4.44v.56h4.44v-.56Zm-9.54,0h-4.44v.56h4.44v-.56Zm-9.54,0h-4.44v.56h4.44v-.56Zm-9.54,0h-4.44v.56h4.44v-.56Zm-9.54,0h-4.44v.56h4.44v-.56Zm-9.54,0h-4.44v.56h4.44v-.56Zm-9.54,0h-4.44v.56h4.44v-.56Zm-9.54,0h-4.44v.56h4.44v-.56Zm-9.54,0h-4.44v.56h4.44v-.56Zm-9.54,0h-4.44v.56h4.44v-.56Zm-9.54,0h-4.44v.56h4.44v-.56Zm-9.54,0h-4.44v.56h4.44v-.56Zm-9.54,0h-4.44v.56h4.44v-.56Zm-9.54,0h-4.44v.56h4.44v-.56Zm-9.54,0h-4.44v.56h4.44v-.56Zm-9.54,0h-4.44v.56h4.44v-.56Zm-9.54,0h-4.44v.56h4.44v-.56Zm-9.54,0h-4.44v.56h4.44v-.56Zm-9.54,0h-4.44v.56h4.44v-.56Zm-9.54,0h-4.44v.56h4.44v-.56Zm-9.54,0h-4.44v.56h4.44v-.56Zm-9.54,0h-4.44v.56h4.44v-.56Z" style="fill:none; stroke:#0d0d0b; stroke-width:.15px;"/><path d="m10.38,2.37h4.44v-.56h-4.44v.56Zm9.54,0h4.44v-.56h-4.44v.56Zm9.54,0h4.44v-.56h-4.44v.56Zm9.54,0h4.44v-.56h-4.44v.56Zm9.54,0h4.44v-.56h-4.44v.56Zm9.54,0h4.44v-.56h-4.44v.56Zm9.54,0h4.44v-.56h-4.44v.56Zm9.54,0h4.44v-.56h-4.44v.56Zm9.54,0h4.44v-.56h-4.44v.56Zm9.54,0h4.44v-.56h-4.44v.56Zm9.54,0h4.44v-.56h-4.44v.56Zm9.54,0h4.44v-.56h-4.44v.56Zm9.54,0h4.44v-.56h-4.44v.56Zm9.54,0h4.44v-.56h-4.44v.56Zm9.54,0h4.44v-.56h-4.44v.56Zm9.54,0h4.44v-.56h-4.44v.56Zm9.54,0h4.44v-.56h-4.44v.56Zm9.54,0h4.44v-.56h-4.44v.56Zm9.54,0h4.44v-.56h-4.44v.56Zm9.54,0h4.44v-.56h-4.44v.56Zm9.54,0h4.44v-.56h-4.44v.56Zm9.54,0h4.44v-.56h-4.44v.56Zm9.54,0h4.44v-.56h-4.44v.56Zm9.54,0h4.44v-.56h-4.44v.56Zm9.54,0h4.44v-.56h-4.44v.56Z" style="fill:#0d0d0b;"/><path d="m243.78,1.81h-4.44v.56h4.44v-.56Zm-9.54,0h-4.44v.56h4.44v-.56Zm-9.54,0h-4.44v.56h4.44v-.56Zm-9.54,0h-4.44v.56h4.44v-.56Zm-9.54,0h-4.44v.56h4.44v-.56Zm-9.54,0h-4.44v.56h4.44v-.56Zm-9.54,0h-4.44v.56h4.44v-.56Zm-9.54,0h-4.44v.56h4.44v-.56Zm-9.54,0h-4.44v.56h4.44v-.56Zm-9.54,0h-4.44v.56h4.44v-.56Zm-9.54,0h-4.44v.56h4.44v-.56Zm-9.54,0h-4.44v.56h4.44v-.56Zm-9.54,0h-4.44v.56h4.44v-.56Zm-9.54,0h-4.44v.56h4.44v-.56Zm-9.54,0h-4.44v.56h4.44v-.56Zm-9.54,0h-4.44v.56h4.44v-.56Zm-9.54,0h-4.44v.56h4.44v-.56Zm-9.54,0h-4.44v.56h4.44v-.56Zm-9.54,0h-4.44v.56h4.44v-.56Zm-9.54,0h-4.44v.56h4.44v-.56Zm-9.54,0h-4.44v.56h4.44v-.56Zm-9.54,0h-4.44v.56h4.44v-.56Zm-9.54,0h-4.44v.56h4.44v-.56Zm-9.54,0h-4.44v.56h4.44v-.56Zm-9.54,0h-4.44v.56h4.44v-.56Z" style="fill:none; stroke:#0d0d0b; stroke-width:.15px;"/><polygon points="1.45 127.8 1.61 129.16 .38 128.61 .17 129.24 1.52 129.47 .57 130.47 1.1 130.87 1.79 129.69 2.46 130.88 2.99 130.47 2.06 129.5 3.41 129.27 3.2 128.62 1.95 129.16 2.11 127.8 1.45 127.8" style="fill:#0d0d0b;"/><g style="clip-path:url(#b); fill:none;"><polygon points="3.41 129.26 3.2 128.62 1.95 129.16 2.11 127.8 1.45 127.8 1.61 129.16 .38 128.61 .17 129.24 1.52 129.47 .57 130.47 1.1 130.87 1.79 129.69 2.46 130.87 2.99 130.47 2.06 129.5 3.41 129.26" style="fill:none; stroke:#0d0d0b; stroke-width:.15px;"/></g><polygon points="250.92 127.8 251.08 129.16 249.85 128.61 249.64 129.24 250.99 129.47 250.05 130.47 250.57 130.87 251.26 129.69 251.94 130.88 252.47 130.47 251.53 129.5 252.88 129.27 252.67 128.62 251.42 129.16 251.59 127.8 250.92 127.8" style="fill:#0d0d0b;"/><g style="clip-path:url(#c); fill:none;"><polygon points="252.88 129.26 252.67 128.62 251.42 129.16 251.58 127.8 250.92 127.8 251.08 129.16 249.85 128.61 249.64 129.24 250.99 129.47 250.05 130.47 250.57 130.87 251.26 129.69 251.94 130.87 252.47 130.47 251.53 129.5 252.88 129.26" style="fill:none; stroke:#0d0d0b; stroke-width:.15px;"/></g><polygon points="1.45 .49 1.61 1.85 .38 1.3 .17 1.93 1.52 2.17 .57 3.17 1.1 3.56 1.79 2.38 2.46 3.57 2.99 3.17 2.06 2.19 3.41 1.96 3.2 1.31 1.95 1.85 2.11 .49 1.45 .49" style="fill:#0d0d0b;"/><g style="clip-path:url(#d); fill:none;"><polygon points="3.41 1.96 3.2 1.31 1.95 1.85 2.11 .49 1.45 .49 1.61 1.85 .38 1.3 .17 1.93 1.52 2.17 .57 3.17 1.1 3.56 1.79 2.38 2.46 3.57 2.99 3.17 2.06 2.19 3.41 1.96" style="fill:none; stroke:#0d0d0b; stroke-width:.15px;"/></g><polygon points="250.92 .49 251.08 1.85 249.85 1.3 249.64 1.93 250.99 2.17 250.05 3.17 250.57 3.56 251.26 2.38 251.94 3.57 252.47 3.17 251.53 2.19 252.88 1.96 252.67 1.31 251.42 1.85 251.59 .49 250.92 .49" style="fill:#0d0d0b;"/><g style="clip-path:url(#e); fill:none;"><polygon points="252.88 1.96 252.67 1.31 251.42 1.85 251.59 .49 250.92 .49 251.08 1.85 249.85 1.3 249.64 1.93 250.99 2.17 250.05 3.17 250.57 3.56 251.26 2.38 251.94 3.57 252.47 3.17 251.53 2.19 252.88 1.96" style="fill:none; stroke:#0d0d0b; stroke-width:.15px;"/></g><path d="m1.47,121.24h.56v-4.44h-.56v4.44Zm0-9.54h.56v-4.44h-.56v4.44Zm0-9.54h.56v-4.44h-.56v4.44Zm0-9.54h.56v-4.44h-.56v4.44Zm0-9.54h.56v-4.44h-.56v4.44Zm0-9.54h.56v-4.44h-.56v4.44Zm0-9.54h.56v-4.44h-.56v4.44Zm0-9.54h.56v-4.44h-.56v4.44Zm0-9.54h.56v-4.44h-.56v4.44Zm0-9.54h.56v-4.44h-.56v4.44Zm0-9.54h.56v-4.44h-.56v4.44Zm0-9.54h.56v-4.44h-.56v4.44Z" style="fill:#0d0d0b;"/><path d="m2.03,116.8h-.56v4.44h.56v-4.44Zm0-9.54h-.56v4.44h.56v-4.44Zm0-9.54h-.56v4.44h.56v-4.44Zm0-9.54h-.56v4.44h.56v-4.44Zm0-9.54h-.56v4.44h.56v-4.44Zm0-9.54h-.56v4.44h.56v-4.44Zm0-9.54h-.56v4.44h.56v-4.44Zm0-9.54h-.56v4.44h.56v-4.44Zm0-9.54h-.56v4.44h.56v-4.44Zm0-9.54h-.56v4.44h.56v-4.44Zm0-9.54h-.56v4.44h.56v-4.44Zm0-9.54h-.56v4.44h.56v-4.44Z" style="fill:none; stroke:#0d0d0b; stroke-width:.15px;"/><path d="m251.55,120.24h.56v-4.44h-.56v4.44Zm0-9.54h.56v-4.44h-.56v4.44Zm0-9.54h.56v-4.44h-.56v4.44Zm0-9.54h.56v-4.44h-.56v4.44Zm0-9.54h.56v-4.44h-.56v4.44Zm0-9.54h.56v-4.44h-.56v4.44Zm0-9.54h.56v-4.44h-.56v4.44Zm0-9.54h.56v-4.44h-.56v4.44Zm0-9.54h.56v-4.44h-.56v4.44Zm0-9.54h.56v-4.44h-.56v4.44Zm0-9.54h.56v-4.44h-.56v4.44Zm0-9.54h.56v-4.44h-.56v4.44Z" style="fill:#0d0d0b;"/><path d="m252.11,115.8h-.56v4.44h.56v-4.44Zm0-9.54h-.56v4.44h.56v-4.44Zm0-9.54h-.56v4.44h.56v-4.44Zm0-9.54h-.56v4.44h.56v-4.44Zm0-9.54h-.56v4.44h.56v-4.44Zm0-9.54h-.56v4.44h.56v-4.44Zm0-9.54h-.56v4.44h.56v-4.44Zm0-9.54h-.56v4.44h.56v-4.44Zm0-9.54h-.56v4.44h.56v-4.44Zm0-9.54h-.56v4.44h.56v-4.44Zm0-9.54h-.56v4.44h.56v-4.44Zm0-9.54h-.56v4.44h.56v-4.44Z" style="fill:none; stroke:#0d0d0b; stroke-width:.15px;"/><g style="clip-path:url(#f); fill:none;"><path d="m226.09,116.47c-.14-.8-.74-1.25-1.49-1.25-.79,0-1.43.47-1.43,1.16,0,.46.29.83.85,1.11l1.04.52c.32.17.52.32.52.68,0,.4-.42.66-.94.66s-.95-.26-1.1-.83h-.59c.17.85.86,1.38,1.69,1.38.53,0,1.03-.21,1.3-.57.14-.18.21-.39.21-.63,0-.58-.31-.93-.82-1.18l-1.04-.52c-.41-.19-.57-.34-.57-.62,0-.37.4-.6.87-.6.44,0,.78.22.9.69h.59Zm-4.76,2.78h-1.23v-5.75s-1.56,0-1.56,0v.56h.98v5.19h-1.25v.56h3.07v-.56Zm-6.3.09c.76,0,1.02-.78,1.02-1.78s-.27-1.78-1.02-1.78-1.04.81-1.04,1.78.28,1.78,1.04,1.78m0-4.12c.75,0,1.23.49,1.46,1.2.11.35.16.74.16,1.14,0,1.32-.51,2.34-1.62,2.34s-1.62-1.02-1.62-2.34.53-2.34,1.62-2.34m-4.76,4.12c.76,0,1.03-.78,1.03-1.78s-.27-1.78-1.03-1.78-1.04.81-1.04,1.78.28,1.78,1.04,1.78m0-4.12c.75,0,1.23.49,1.46,1.2.11.35.16.74.16,1.14,0,1.32-.51,2.34-1.62,2.34s-1.62-1.02-1.62-2.34.53-2.34,1.62-2.34m-4.82,4.11c-.66,0-1.02-.66-1.02-1.77s.36-1.78,1.02-1.78c.75,0,1.08.77,1.08,1.78s-.33,1.77-1.08,1.77m.07-4.11c-.47,0-.86.29-1.07.72v-.63h-.57v6.3h.58v-2.4c.21.42.61.68,1.05.68,1.04,0,1.59-1,1.59-2.33s-.56-2.34-1.59-2.34m-9.66,4.12c-.75,0-1.08-.77-1.08-1.78s.33-1.77,1.08-1.77c.66,0,1.02.66,1.02,1.77s-.36,1.78-1.02,1.78m.98-4.03v.6c-.21-.42-.61-.68-1.05-.68-1.03,0-1.59,1-1.59,2.33s.56,2.34,1.59,2.34c.46,0,.86-.28,1.06-.71v.68c0,.76-.3,1.14-.96,1.14-.44,0-.86-.23-.94-.71h-.59c.04.53.4.93.85,1.12.22.1.45.14.68.14.98,0,1.54-.65,1.54-1.69v-4.56h-.59Zm-5.37-.09c-.54,0-1.01.26-1.27.74v-.65s-.59,0-.59,0v4.5h.58v-2.45c0-.97.41-1.58,1.2-1.58.55,0,.78.39.78,1.01v3.02h.58v-3.02c0-.93-.46-1.57-1.3-1.57m-3.56,4.02h-1.19v-3.94h-1.57v.56h.98v3.39h-1.21v.56h2.98v-.56Zm-1.55-4.63c.25,0,.45-.21.45-.46s-.2-.45-.45-.45-.45.21-.45.45.2.46.45.46m-3.71.59c-.36,0-.66.25-.85.73-.07-.44-.29-.73-.69-.73-.33,0-.64.23-.79.7l-.04-.6h-.49l-.02,4.5h.57v-2.7c0-.69.16-1.34.63-1.34.17,0,.28.07.33.21.04.14.07.38.07.7v3.13h.57v-2.7c0-.79.09-1.34.58-1.34.33,0,.39.26.39.77v3.28h.57v-3.3c0-.75-.24-1.3-.85-1.3m-4.77,0c-.36,0-.66.25-.85.73-.07-.44-.29-.73-.69-.73-.33,0-.64.23-.79.7l-.04-.6h-.49l-.02,4.5h.57v-2.7c0-.69.16-1.34.63-1.34.17,0,.28.07.33.21.04.14.07.38.07.7v3.13h.57v-2.7c0-.79.09-1.34.59-1.34.33,0,.39.26.39.77v3.28h.57v-3.3c0-.75-.24-1.3-.85-1.3m-4.28,4.03h-1.19v-3.94h-1.57v.56h.98v3.39h-1.21v.56h2.98v-.56Zm-1.55-4.63c.25,0,.45-.21.45-.46s-.2-.45-.45-.45-.45.21-.45.45.2.46.45.46m-4.99,1.97l-.64,2.24-.49-3.52h-.59l.75,4.5h.59l.67-2.36.67,2.36h.58l.75-4.5h-.59l-.49,3.52-.64-2.24h-.56Zm-2.97-.12c-.14-.8-.74-1.25-1.49-1.25s-1.43.47-1.43,1.16c0,.46.29.83.85,1.11l1.04.52c.32.17.52.32.52.68,0,.4-.42.66-.94.66s-.94-.26-1.1-.83h-.59c.17.85.86,1.38,1.69,1.38.53,0,1.03-.21,1.31-.57.13-.18.21-.39.21-.63,0-.58-.31-.93-.82-1.18l-1.04-.52c-.4-.19-.57-.34-.57-.62,0-.37.4-.6.86-.6.44,0,.78.22.9.69h.59Zm-10.96,2.87c-.75,0-1.12-.79-1.12-1.77s.38-1.76,1.12-1.76c.51,0,.81.36.89.96h.59c-.11-.95-.66-1.52-1.49-1.52-.72,0-1.25.44-1.51,1.15-.13.35-.2.75-.2,1.17h0c0,.86.27,1.6.78,2.02.26.21.57.31.93.31.82,0,1.38-.57,1.49-1.52h-.59c-.08.6-.39.96-.89.96m-3.38-.1h-1.19v-3.94h-1.57v.56h.98v3.39h-1.21v.56h2.98v-.56Zm-1.55-4.63c.25,0,.45-.21.45-.46s-.2-.45-.45-.45-.45.21-.45.45.2.46.45.46m-4.77,4.72c-.66,0-1.02-.66-1.02-1.77s.36-1.78,1.02-1.78c.75,0,1.08.77,1.08,1.78s-.33,1.77-1.08,1.77m.07-4.11c-.47,0-.86.29-1.07.72v-.63h-.57v6.3h.58v-2.4c.21.42.61.68,1.05.68,1.04,0,1.59-1,1.59-2.33s-.56-2.34-1.59-2.34m-3.78,0c-.36,0-.66.25-.85.73-.07-.44-.29-.73-.69-.73-.33,0-.64.23-.79.7l-.04-.6h-.49l-.02,4.5h.57v-2.7c0-.69.16-1.34.63-1.34.17,0,.28.07.33.21.04.14.07.38.07.7v3.13h.57v-2.7c0-.79.09-1.34.59-1.34.33,0,.39.26.39.77v3.28h.57v-3.3c0-.75-.24-1.3-.85-1.3m-7.51.1l1.48,4.45-.54,1.62h.6l1.95-6.07h-.61l-1.12,3.65-1.15-3.65h-.61Zm-1.5,3.94h-1.23v-5.75s-1.57,0-1.57,0v.56h.98v5.19h-1.25v.56h3.07v-.56Zm-6.31.11c-.86,0-1.29-.89-1.29-2.68s.43-2.68,1.29-2.68,1.29.89,1.29,2.68-.43,2.68-1.29,2.68m0-5.92c-1.38,0-1.87,1.43-1.87,3.24s.49,3.24,1.87,3.24,1.87-1.43,1.87-3.24-.49-3.24-1.87-3.24m-10.78,6.37h.65l2.57-5.71v-.58h-3.8v.58h3.18l-2.6,5.71Zm-3.58.06c.29,0,.55-.25.55-.54s-.26-.55-.55-.55-.54.25-.54.55.25.54.54.54m-4.16-3.41c.68-.18,1.16-.83,1.16-1.47,0-.6-.31-1.11-.8-1.38-.25-.14-.53-.2-.84-.2-.64,0-1.2.3-1.55.79-.18.24-.3.52-.34.82h.58c.15-.61.66-1.04,1.31-1.04.58,0,1.05.42,1.05,1.01,0,.76-.61,1.21-1.41,1.21h-.22v.56h.22c.94,0,1.62.47,1.62,1.31,0,.75-.5,1.28-1.27,1.28s-1.22-.44-1.39-1.1h-.6c.22.95.89,1.66,1.98,1.66.72,0,1.31-.33,1.64-.89.15-.28.23-.59.23-.95,0-.51-.25-1-.67-1.31-.21-.15-.44-.25-.69-.29m-3.56,2.78h-1.53v-5.74h-.57l-1.55,1.66.38.47,1.17-1.3v4.91h-1.53v.57h3.63v-.57Zm-9.77,0h-1.23v-5.75s-1.57,0-1.57,0v.56h.98v5.19h-1.25v.56h3.07v-.56Zm-4.77,0h-1.23v-5.75s-1.56,0-1.56,0v.56h.98v5.19h-1.25v.56h3.07v-.56Zm-4.82,0h-1.19v-3.94h-1.57v.56h.98v3.39h-1.21v.56h2.98v-.56Zm-1.55-4.63c.25,0,.45-.21.45-.46s-.2-.45-.45-.45-.45.21-.45.45.2.46.45.46m-3.1-.94c-.28-.13-.72-.22-1-.22-.76,0-1.21.46-1.21,1.2v.65h-1.14v.56h1.14v3.94h.58v-3.94h1.44v-.56h-1.44v-.65c0-.48.23-.65.67-.65.23,0,.59.1.83.22l.13-.56Zm-11.15,5.67c.76,0,1.03-.78,1.03-1.78s-.27-1.78-1.03-1.78-1.04.81-1.04,1.78.28,1.78,1.04,1.78m0-4.12c.75,0,1.23.49,1.46,1.2.11.35.16.74.16,1.14,0,1.32-.51,2.34-1.62,2.34s-1.62-1.02-1.62-2.34.53-2.34,1.62-2.34m-3.37,3.82c-.22.12-.58.22-.78.22-.42,0-.62-.17-.62-.65v-2.75h1.35v-.54h-1.35v-1.5h-.58v1.5h-1.08v.54h1.08v2.75c0,.75.42,1.2,1.15,1.2.25,0,.68-.08.94-.22l-.12-.56Zm-10.42-3.82c-.46,0-.88.23-1.13.73v-.64h-.58v4.5h.57v-2.45c0-.9.4-1.58,1.03-1.58.44,0,.67.29.71.86h.58c-.04-.89-.5-1.42-1.19-1.42m-5.26.56c.62,0,.96.59,1.03,1.38h-2.13c.1-.79.46-1.38,1.11-1.38m0-.56c-.75,0-1.27.48-1.52,1.19-.13.35-.19.74-.19,1.15,0,.83.24,1.59.76,2.02.26.22.58.32.95.32.83,0,1.42-.59,1.56-1.48h-.59c-.13.62-.45.93-.96.93-.72,0-1.09-.74-1.12-1.63h2.76c.03-1.38-.49-2.49-1.64-2.49m-5.08,1.37l-.64,2.24-.49-3.52h-.58l.75,4.5h.58l.67-2.36.67,2.36h.58l.75-4.5h-.58l-.5,3.52-.64-2.24h-.56Zm-4.49,2.75c.76,0,1.03-.78,1.03-1.78s-.27-1.78-1.03-1.78-1.04.81-1.04,1.78.28,1.78,1.04,1.78m0-4.12c.75,0,1.23.49,1.46,1.2.11.35.16.74.16,1.14,0,1.32-.51,2.34-1.62,2.34s-1.62-1.02-1.62-2.34.53-2.34,1.62-2.34m-4.56,0c-.54,0-1.02.26-1.27.74v-.65s0-1.8,0-1.8h-.59v6.3h.58v-2.45c0-.97.41-1.58,1.2-1.58.55,0,.78.39.78,1.01v3.02h.58v-3.02c0-.93-.46-1.57-1.3-1.57m-3.45,1.25c-.14-.8-.74-1.25-1.49-1.25s-1.43.47-1.43,1.16c0,.46.29.83.85,1.11l1.05.52c.32.17.52.32.52.68,0,.4-.42.66-.94.66s-.94-.26-1.1-.83h-.59c.17.85.86,1.38,1.69,1.38.53,0,1.03-.21,1.31-.57.14-.18.21-.39.21-.63,0-.58-.31-.93-.82-1.18l-1.05-.52c-.41-.19-.57-.34-.57-.62,0-.37.4-.6.86-.6.44,0,.78.22.9.69h.59Z" style="fill:#0d0d0b;"/><path d="m226.09,116.47c-.14-.8-.74-1.25-1.49-1.25-.79,0-1.43.47-1.43,1.16,0,.46.29.83.85,1.11l1.04.52c.32.17.52.32.52.68,0,.4-.42.66-.94.66s-.95-.26-1.1-.83h-.59c.17.85.86,1.38,1.69,1.38.53,0,1.03-.21,1.3-.57.14-.18.21-.39.21-.63,0-.58-.31-.93-.82-1.18l-1.04-.52c-.41-.19-.57-.34-.57-.62,0-.37.4-.6.87-.6.44,0,.78.22.9.69h.59Zm-4.76,2.78h-1.23v-5.75s-1.56,0-1.56,0v.56h.98v5.19h-1.25v.56h3.07v-.56Zm-6.3.09c.76,0,1.02-.78,1.02-1.78s-.27-1.78-1.02-1.78-1.04.81-1.04,1.78.28,1.78,1.04,1.78Zm0-4.12c.75,0,1.23.49,1.46,1.2.11.35.16.74.16,1.14,0,1.32-.51,2.34-1.62,2.34s-1.62-1.02-1.62-2.34.53-2.34,1.62-2.34Zm-4.76,4.12c.76,0,1.03-.78,1.03-1.78s-.27-1.78-1.03-1.78-1.04.81-1.04,1.78.28,1.78,1.04,1.78Zm0-4.12c.75,0,1.23.49,1.46,1.2.11.35.16.74.16,1.14,0,1.32-.51,2.34-1.62,2.34s-1.62-1.02-1.62-2.34.53-2.34,1.62-2.34Zm-4.82,4.11c-.66,0-1.02-.66-1.02-1.77s.36-1.78,1.02-1.78c.75,0,1.08.77,1.08,1.78s-.33,1.77-1.08,1.77Zm.07-4.11c-.47,0-.86.29-1.07.72v-.63h-.57v6.3h.58v-2.4c.21.42.61.68,1.05.68,1.04,0,1.59-1,1.59-2.33s-.56-2.34-1.59-2.34Zm-9.66,4.12c-.75,0-1.08-.77-1.08-1.78s.33-1.77,1.08-1.77c.66,0,1.02.66,1.02,1.77s-.36,1.78-1.02,1.78Zm.98-4.03v.6c-.21-.42-.61-.68-1.05-.68-1.03,0-1.59,1-1.59,2.33s.56,2.34,1.59,2.34c.46,0,.86-.28,1.06-.71v.68c0,.76-.3,1.14-.96,1.14-.44,0-.86-.23-.94-.71h-.59c.04.53.4.93.85,1.12.22.1.45.14.68.14.98,0,1.54-.65,1.54-1.69v-4.56h-.59Zm-5.37-.09c-.54,0-1.01.26-1.27.74v-.65s-.59,0-.59,0v4.5h.58v-2.45c0-.97.41-1.58,1.2-1.58.55,0,.78.39.78,1.01v3.02h.58v-3.02c0-.93-.46-1.57-1.3-1.57Zm-3.56,4.02h-1.19v-3.94h-1.57v.56h.98v3.39h-1.21v.56h2.98v-.56Zm-1.55-4.63c.25,0,.45-.21.45-.46s-.2-.45-.45-.45-.45.21-.45.45.2.46.45.46Zm-3.71.59c-.36,0-.66.25-.85.73-.07-.44-.29-.73-.69-.73-.33,0-.64.23-.79.7l-.04-.6h-.49l-.02,4.5h.57v-2.7c0-.69.16-1.34.63-1.34.17,0,.28.07.33.21.04.14.07.38.07.7v3.13h.57v-2.7c0-.79.09-1.34.58-1.34.33,0,.39.26.39.77v3.28h.57v-3.3c0-.75-.24-1.3-.85-1.3Zm-4.77,0c-.36,0-.66.25-.85.73-.07-.44-.29-.73-.69-.73-.33,0-.64.23-.79.7l-.04-.6h-.49l-.02,4.5h.57v-2.7c0-.69.16-1.34.63-1.34.17,0,.28.07.33.21.04.14.07.38.07.7v3.13h.57v-2.7c0-.79.09-1.34.59-1.34.33,0,.39.26.39.77v3.28h.57v-3.3c0-.75-.24-1.3-.85-1.3Zm-4.28,4.03h-1.19v-3.94h-1.57v.56h.98v3.39h-1.21v.56h2.98v-.56Zm-1.55-4.63c.25,0,.45-.21.45-.46s-.2-.45-.45-.45-.45.21-.45.45.2.46.45.46Zm-4.99,1.97l-.64,2.24-.49-3.52h-.59l.75,4.5h.59l.67-2.36.67,2.36h.58l.75-4.5h-.59l-.49,3.52-.64-2.24h-.56Zm-2.97-.12c-.14-.8-.74-1.25-1.49-1.25s-1.43.47-1.43,1.16c0,.46.29.83.85,1.11l1.04.52c.32.17.52.32.52.68,0,.4-.42.66-.94.66s-.94-.26-1.1-.83h-.59c.17.85.86,1.38,1.69,1.38.53,0,1.03-.21,1.31-.57.13-.18.21-.39.21-.63,0-.58-.31-.93-.82-1.18l-1.04-.52c-.4-.19-.57-.34-.57-.62,0-.37.4-.6.86-.6.44,0,.78.22.9.69h.59Zm-10.96,2.87c-.75,0-1.12-.79-1.12-1.77s.38-1.76,1.12-1.76c.51,0,.81.36.89.96h.59c-.11-.95-.66-1.52-1.49-1.52-.72,0-1.25.44-1.51,1.15-.13.35-.2.75-.2,1.17h0c0,.86.27,1.6.78,2.02.26.21.57.31.93.31.82,0,1.38-.57,1.49-1.52h-.59c-.08.6-.39.96-.89.96Zm-3.38-.1h-1.19v-3.94h-1.57v.56h.98v3.39h-1.21v.56h2.98v-.56Zm-1.55-4.63c.25,0,.45-.21.45-.46s-.2-.45-.45-.45-.45.21-.45.45.2.46.45.46Zm-4.77,4.72c-.66,0-1.02-.66-1.02-1.77s.36-1.78,1.02-1.78c.75,0,1.08.77,1.08,1.78s-.33,1.77-1.08,1.77Zm.07-4.11c-.47,0-.86.29-1.07.72v-.63h-.57v6.3h.58v-2.4c.21.42.61.68,1.05.68,1.04,0,1.59-1,1.59-2.33s-.56-2.34-1.59-2.34Zm-3.78,0c-.36,0-.66.25-.85.73-.07-.44-.29-.73-.69-.73-.33,0-.64.23-.79.7l-.04-.6h-.49l-.02,4.5h.57v-2.7c0-.69.16-1.34.63-1.34.17,0,.28.07.33.21.04.14.07.38.07.7v3.13h.57v-2.7c0-.79.09-1.34.59-1.34.33,0,.39.26.39.77v3.28h.57v-3.3c0-.75-.24-1.3-.85-1.3Zm-7.51.1l1.48,4.45-.54,1.62h.6l1.95-6.07h-.61l-1.12,3.65-1.15-3.65h-.61Zm-1.5,3.94h-1.23v-5.75s-1.57,0-1.57,0v.56h.98v5.19h-1.25v.56h3.07v-.56Zm-6.31.11c-.86,0-1.29-.89-1.29-2.68s.43-2.68,1.29-2.68,1.29.89,1.29,2.68-.43,2.68-1.29,2.68Zm0-5.92c-1.38,0-1.87,1.43-1.87,3.24s.49,3.24,1.87,3.24,1.87-1.43,1.87-3.24-.49-3.24-1.87-3.24Zm-10.78,6.37h.65l2.57-5.71v-.58h-3.8v.58h3.18l-2.6,5.71Zm-3.58.06c.29,0,.55-.25.55-.54s-.26-.55-.55-.55-.54.25-.54.55.25.54.54.54Zm-4.16-3.41c.68-.18,1.16-.83,1.16-1.47,0-.6-.31-1.11-.8-1.38-.25-.14-.53-.2-.84-.2-.64,0-1.2.3-1.55.79-.18.24-.3.52-.34.82h.58c.15-.61.66-1.04,1.31-1.04.58,0,1.05.42,1.05,1.01,0,.76-.61,1.21-1.41,1.21h-.22v.56h.22c.94,0,1.62.47,1.62,1.31,0,.75-.5,1.28-1.27,1.28s-1.22-.44-1.39-1.1h-.6c.22.95.89,1.66,1.98,1.66.72,0,1.31-.33,1.64-.89.15-.28.23-.59.23-.95,0-.51-.25-1-.67-1.31-.21-.15-.44-.25-.69-.29Zm-3.56,2.78h-1.53v-5.74h-.57l-1.55,1.66.38.47,1.17-1.3v4.91h-1.53v.57h3.63v-.57Zm-9.77,0h-1.23v-5.75s-1.57,0-1.57,0v.56h.98v5.19h-1.25v.56h3.07v-.56Zm-4.77,0h-1.23v-5.75s-1.56,0-1.56,0v.56h.98v5.19h-1.25v.56h3.07v-.56Zm-4.82,0h-1.19v-3.94h-1.57v.56h.98v3.39h-1.21v.56h2.98v-.56Zm-1.55-4.63c.25,0,.45-.21.45-.46s-.2-.45-.45-.45-.45.21-.45.45.2.46.45.46Zm-3.1-.94c-.28-.13-.72-.22-1-.22-.76,0-1.21.46-1.21,1.2v.65h-1.14v.56h1.14v3.94h.58v-3.94h1.44v-.56h-1.44v-.65c0-.48.23-.65.67-.65.23,0,.59.1.83.22l.13-.56Zm-11.15,5.67c.76,0,1.03-.78,1.03-1.78s-.27-1.78-1.03-1.78-1.04.81-1.04,1.78.28,1.78,1.04,1.78Zm0-4.12c.75,0,1.23.49,1.46,1.2.11.35.16.74.16,1.14,0,1.32-.51,2.34-1.62,2.34s-1.62-1.02-1.62-2.34.53-2.34,1.62-2.34Zm-3.37,3.82c-.22.12-.58.22-.78.22-.42,0-.62-.17-.62-.65v-2.75h1.35v-.54h-1.35v-1.5h-.58v1.5h-1.08v.54h1.08v2.75c0,.75.42,1.2,1.15,1.2.25,0,.68-.08.94-.22l-.12-.56Zm-10.42-3.82c-.46,0-.88.23-1.13.73v-.64h-.58v4.5h.57v-2.45c0-.9.4-1.58,1.03-1.58.44,0,.67.29.71.86h.58c-.04-.89-.5-1.42-1.19-1.42Zm-5.26.56c.62,0,.96.59,1.03,1.38h-2.13c.1-.79.46-1.38,1.11-1.38Zm0-.56c-.75,0-1.27.48-1.52,1.19-.13.35-.19.74-.19,1.15,0,.83.24,1.59.76,2.02.26.22.58.32.95.32.83,0,1.42-.59,1.56-1.48h-.59c-.13.62-.45.93-.96.93-.72,0-1.09-.74-1.12-1.63h2.76c.03-1.38-.49-2.49-1.64-2.49Zm-5.08,1.37l-.64,2.24-.49-3.52h-.58l.75,4.5h.58l.67-2.36.67,2.36h.58l.75-4.5h-.58l-.5,3.52-.64-2.24h-.56Zm-4.49,2.75c.76,0,1.03-.78,1.03-1.78s-.27-1.78-1.03-1.78-1.04.81-1.04,1.78.28,1.78,1.04,1.78Zm0-4.12c.75,0,1.23.49,1.46,1.2.11.35.16.74.16,1.14,0,1.32-.51,2.34-1.62,2.34s-1.62-1.02-1.62-2.34.53-2.34,1.62-2.34Zm-4.56,0c-.54,0-1.02.26-1.27.74v-.65s0-1.8,0-1.8h-.59v6.3h.58v-2.45c0-.97.41-1.58,1.2-1.58.55,0,.78.39.78,1.01v3.02h.58v-3.02c0-.93-.46-1.57-1.3-1.57Zm-3.45,1.25c-.14-.8-.74-1.25-1.49-1.25s-1.43.47-1.43,1.16c0,.46.29.83.85,1.11l1.05.52c.32.17.52.32.52.68,0,.4-.42.66-.94.66s-.94-.26-1.1-.83h-.59c.17.85.86,1.38,1.69,1.38.53,0,1.03-.21,1.31-.57.14-.18.21-.39.21-.63,0-.58-.31-.93-.82-1.18l-1.05-.52c-.41-.19-.57-.34-.57-.62,0-.37.4-.6.86-.6.44,0,.78.22.9.69h.59Z" style="fill:none; stroke:#0d0d0b; stroke-width:.15px;"/><path d="m243.67,104.98c.62,0,.96.59,1.03,1.38h-2.14c.1-.79.46-1.38,1.11-1.38m0-.56c-.75,0-1.27.48-1.52,1.19-.13.35-.19.74-.19,1.15,0,.83.24,1.59.76,2.02.26.22.58.32.95.32.83,0,1.42-.59,1.56-1.48h-.59c-.14.62-.45.93-.96.93-.72,0-1.09-.74-1.13-1.63h2.76c.03-1.38-.49-2.49-1.64-2.49m-4.6,0c-.54,0-1.02.26-1.27.74v-.65s0-1.8,0-1.8h-.59v6.3h.58v-2.45c0-.97.42-1.58,1.2-1.58.55,0,.78.39.78,1.01v3.02h.58v-3.02c0-.93-.46-1.57-1.29-1.57m-3.57,3.82c-.23.12-.58.22-.78.22-.42,0-.62-.17-.62-.65v-2.75h1.35v-.54h-1.35v-1.5h-.57v1.5h-1.08v.54h1.08v2.75c0,.75.42,1.2,1.15,1.2.25,0,.68-.08.94-.22l-.12-.56Zm-10.91-3.26c.62,0,.96.59,1.03,1.38h-2.13c.1-.79.46-1.38,1.11-1.38m0-.56c-.75,0-1.27.48-1.52,1.19-.12.35-.19.74-.19,1.15,0,.83.24,1.59.76,2.02.26.22.58.32.95.32.83,0,1.42-.59,1.56-1.48h-.59c-.13.62-.45.93-.96.93-.72,0-1.09-.74-1.12-1.63h2.76c.03-1.38-.49-2.49-1.64-2.49m-3.28,1.25c-.14-.8-.74-1.25-1.49-1.25s-1.43.47-1.43,1.16c0,.46.29.83.85,1.11l1.04.52c.33.17.52.32.52.68,0,.4-.42.66-.94.66s-.95-.26-1.1-.83h-.59c.17.85.86,1.38,1.69,1.38.53,0,1.03-.21,1.3-.57.13-.18.21-.39.21-.63,0-.58-.31-.93-.82-1.18l-1.05-.52c-.4-.19-.57-.34-.57-.62,0-.37.4-.6.86-.6.44,0,.78.22.9.69h.59Zm-5.31,1.29c0,.97-.42,1.58-1.2,1.58-.54,0-.78-.39-.78-1.01v-3.02h-.58v3.02c0,.93.46,1.56,1.29,1.56.54,0,1.01-.26,1.27-.74v.65s.59,0,.59,0v-4.5h-.58v2.45Zm-10.52,1.58c.76,0,1.03-.78,1.03-1.78s-.27-1.78-1.03-1.78-1.04.81-1.04,1.78.28,1.78,1.04,1.78m0-4.12c.75,0,1.23.49,1.46,1.2.11.35.16.74.16,1.14,0,1.32-.51,2.34-1.62,2.34s-1.62-1.02-1.62-2.34.53-2.34,1.62-2.34m-3.37,3.82c-.23.12-.58.22-.78.22-.42,0-.62-.17-.62-.65v-2.75h1.35v-.54h-1.35v-1.5h-.57v1.5h-1.08v.54h1.08v2.75c0,.75.42,1.2,1.15,1.2.25,0,.68-.08.95-.22l-.12-.56Zm-12.67-3.73l1.48,4.45-.54,1.62h.6l1.95-6.07h-.61l-1.12,3.65-1.15-3.65h-.61Zm-3.14,4.03c-.75,0-1.08-.77-1.08-1.78s.33-1.77,1.08-1.77c.66,0,1.02.66,1.02,1.77s-.36,1.78-1.02,1.78m.98-4.03v.6c-.21-.42-.61-.68-1.05-.68-1.04,0-1.59,1-1.59,2.33s.56,2.34,1.59,2.34c.46,0,.86-.28,1.06-.71v.68c0,.76-.3,1.14-.95,1.14-.44,0-.86-.23-.95-.71h-.59c.05.53.4.93.85,1.12.23.1.45.14.68.14.98,0,1.54-.65,1.54-1.69v-4.56h-.59Zm-5.13-.09c-.46,0-.88.23-1.13.73v-.64h-.58v4.5h.57v-2.45c0-.9.4-1.58,1.03-1.58.44,0,.67.29.71.86h.58c-.04-.89-.5-1.42-1.19-1.42m-5.26.56c.62,0,.96.59,1.03,1.38h-2.13c.1-.79.46-1.38,1.11-1.38m0-.56c-.75,0-1.27.48-1.52,1.19-.12.35-.19.74-.19,1.15,0,.83.24,1.59.76,2.02.26.22.58.32.95.32.83,0,1.42-.59,1.56-1.48h-.59c-.13.62-.45.93-.96.93-.72,0-1.09-.74-1.12-1.63h2.76c.03-1.38-.49-2.49-1.64-2.49m-4.53,0c-.54,0-1.01.26-1.27.74v-.65s-.59,0-.59,0v4.5h.58v-2.45c0-.97.41-1.58,1.2-1.58.55,0,.78.39.78,1.01v3.02h.58v-3.02c0-.93-.46-1.57-1.3-1.57m-5.01.56c.62,0,.96.59,1.03,1.38h-2.13c.1-.79.46-1.38,1.11-1.38m0-.56c-.75,0-1.27.48-1.52,1.19-.12.35-.19.74-.19,1.15,0,.83.24,1.59.75,2.02.26.22.58.32.95.32.83,0,1.42-.59,1.56-1.48h-.59c-.13.62-.45.93-.96.93-.72,0-1.09-.74-1.12-1.63h2.76c.03-1.38-.49-2.49-1.64-2.49m-9.37,0c-.54,0-1.02.26-1.27.74v-.65s0-1.8,0-1.8h-.59v6.3h.58v-2.45c0-.97.41-1.58,1.2-1.58.55,0,.78.39.78,1.01v3.02h.58v-3.02c0-.93-.46-1.57-1.3-1.57m-5.08,4.12c-.75,0-1.08-.77-1.08-1.78s.33-1.77,1.08-1.77c.66,0,1.02.66,1.02,1.77s-.36,1.78-1.02,1.78m.98-4.03v.6c-.21-.42-.61-.68-1.05-.68-1.04,0-1.59,1-1.59,2.33s.56,2.34,1.59,2.34c.46,0,.86-.28,1.06-.71v.68c0,.76-.3,1.14-.95,1.14-.44,0-.86-.23-.95-.71h-.59c.05.53.4.93.85,1.12.22.1.45.14.68.14.98,0,1.54-.65,1.54-1.69v-4.56h-.59Zm-4.66,2.45c0,.97-.41,1.58-1.2,1.58-.54,0-.78-.39-.78-1.01v-3.02h-.58v3.02c0,.93.46,1.56,1.29,1.56.54,0,1.01-.26,1.27-.74v.65s.59,0,.59,0v-4.5h-.58v2.45Zm-5.75,1.58c.76,0,1.03-.78,1.03-1.78s-.27-1.78-1.03-1.78-1.04.81-1.04,1.78.28,1.78,1.04,1.78m0-4.12c.75,0,1.23.49,1.46,1.2.11.35.16.74.16,1.14,0,1.32-.51,2.34-1.62,2.34s-1.62-1.02-1.62-2.34.53-2.34,1.62-2.34m-4.49,0c-.54,0-1.01.26-1.27.74v-.65s-.59,0-.59,0v4.5h.58v-2.45c0-.97.41-1.58,1.2-1.58.55,0,.78.39.78,1.01v3.02h.58v-3.02c0-.93-.46-1.57-1.3-1.57m-5.01.56c.62,0,.96.59,1.03,1.38h-2.13c.1-.79.46-1.38,1.11-1.38m0-.56c-.75,0-1.27.48-1.52,1.19-.12.35-.19.74-.19,1.15,0,.83.24,1.59.76,2.02.26.22.58.32.95.32.83,0,1.42-.59,1.56-1.48h-.59c-.13.62-.45.93-.96.93-.72,0-1.09-.74-1.12-1.63h2.76c.03-1.38-.49-2.49-1.64-2.49m-9.54.56c.62,0,.96.59,1.03,1.38h-2.13c.1-.79.46-1.38,1.11-1.38m0-.56c-.75,0-1.27.48-1.52,1.19-.13.35-.19.74-.19,1.15,0,.83.24,1.59.76,2.02.26.22.58.32.95.32.83,0,1.42-.59,1.56-1.48h-.59c-.14.62-.45.93-.96.93-.72,0-1.09-.74-1.12-1.63h2.76c.03-1.38-.49-2.49-1.64-2.49m-3.8,0c-.36,0-.66.25-.85.73-.07-.44-.29-.73-.69-.73-.33,0-.64.23-.79.7l-.04-.6h-.49l-.02,4.5h.57v-2.7c0-.69.16-1.34.63-1.34.17,0,.28.07.33.21.04.14.07.38.07.7v3.13h.57v-2.7c0-.79.09-1.34.58-1.34.33,0,.39.26.39.76v3.28h.57v-3.3c0-.75-.24-1.3-.85-1.3m-4.79,2.55c0,.97-.41,1.58-1.2,1.58-.54,0-.78-.39-.78-1.01v-3.02h-.58v3.02c0,.93.46,1.56,1.29,1.56.54,0,1.01-.26,1.27-.74v.65s.59,0,.59,0v-4.5h-.58v2.45Zm-4.23-1.29c-.14-.8-.74-1.25-1.49-1.25s-1.43.47-1.43,1.16c0,.46.29.83.85,1.11l1.04.52c.32.17.52.32.52.68,0,.4-.42.66-.94.66s-.94-.26-1.1-.83h-.59c.17.85.86,1.38,1.69,1.38.53,0,1.03-.21,1.31-.57.14-.18.21-.39.21-.63,0-.58-.31-.93-.82-1.18l-1.04-.52c-.4-.19-.57-.34-.57-.62,0-.37.4-.6.86-.6.44,0,.78.22.9.69h.59Zm-6.02-1.25c-.54,0-1.01.26-1.27.74v-.65s-.59,0-.59,0v4.5h.58v-2.45c0-.97.41-1.58,1.2-1.58.55,0,.78.39.78,1.01v3.02h.58v-3.02c0-.93-.46-1.57-1.3-1.57m-5.04,4.12c.76,0,1.03-.78,1.03-1.78s-.27-1.78-1.03-1.78-1.04.81-1.04,1.78.28,1.78,1.04,1.78m0-4.12c.75,0,1.23.49,1.46,1.2.11.35.16.74.16,1.14,0,1.32-.51,2.34-1.62,2.34s-1.62-1.02-1.62-2.34.53-2.34,1.62-2.34m-4.66,4.12c-.75,0-1.12-.79-1.12-1.77s.38-1.76,1.12-1.76c.5,0,.81.36.89.96h.59c-.11-.94-.67-1.52-1.49-1.52-.72,0-1.25.44-1.51,1.15-.13.35-.2.75-.2,1.17h0c0,.86.27,1.6.78,2.02.26.21.57.31.93.31.82,0,1.38-.57,1.49-1.52h-.59c-.08.6-.39.96-.89.96m-8.12-2.87c-.14-.8-.74-1.25-1.49-1.25s-1.43.47-1.43,1.16c0,.46.29.83.85,1.11l1.04.52c.32.17.52.32.52.68,0,.4-.42.66-.94.66s-.94-.26-1.1-.83h-.59c.17.85.86,1.38,1.69,1.38.53,0,1.03-.21,1.31-.57.14-.18.21-.39.21-.63,0-.58-.31-.93-.82-1.18l-1.04-.52c-.41-.19-.57-.34-.57-.62,0-.37.4-.6.86-.6.44,0,.78.22.9.69h.59Zm-6.26-.69c.62,0,.96.59,1.03,1.38h-2.13c.1-.79.46-1.38,1.11-1.38m0-.56c-.75,0-1.27.48-1.52,1.19-.13.35-.19.74-.19,1.15,0,.83.24,1.59.76,2.02.26.22.58.32.95.32.83,0,1.42-.59,1.56-1.48h-.59c-.14.62-.45.93-.96.93-.72,0-1.09-.74-1.12-1.63h2.76c.03-1.38-.49-2.49-1.64-2.49m-4.8,1.83l-.97-1.74h-.65l1.32,2.24-1.33,2.26h.65l.98-1.75.98,1.75h.65l-1.33-2.26,1.32-2.24h-.65l-.97,1.74Zm-4.77,2.29c.76,0,1.03-.78,1.03-1.78s-.27-1.78-1.03-1.78-1.04.81-1.04,1.78.28,1.78,1.04,1.78m0-4.12c.75,0,1.23.49,1.46,1.2.11.35.16.74.16,1.14,0,1.32-.51,2.34-1.62,2.34s-1.62-1.02-1.62-2.34.53-2.34,1.62-2.34m-4.82,4.12c-.66,0-1.02-.67-1.02-1.78s.36-1.77,1.02-1.77c.75,0,1.08.76,1.08,1.77s-.33,1.78-1.08,1.78m.07-4.11c-.44,0-.85.26-1.05.68v-2.4h-.58v6.3h.56v-.63c.22.43.61.72,1.08.72,1.03,0,1.59-1.01,1.59-2.34s-.56-2.33-1.59-2.33m-4.51,0c-.54,0-1.01.26-1.27.74v-.65s-.59,0-.59,0v4.5h.58v-2.45c0-.97.41-1.58,1.2-1.58.55,0,.78.39.78,1.01v3.02h.58v-3.02c0-.93-.46-1.57-1.29-1.57m-3.56,4.02h-1.19v-3.94h-1.57v.56h.98v3.38h-1.21v.56h2.98v-.56Zm-1.55-4.63c.25,0,.45-.21.45-.46s-.2-.45-.45-.45-.45.21-.45.45.2.46.45.46m-8.29,2.05c0,1.63-.41,2.66-1.22,2.66s-1.21-.97-1.21-2.66.41-2.64,1.21-2.64,1.22.98,1.22,2.64m.6,0c0-2.02-.59-3.24-1.82-3.24s-1.79,1.21-1.79,3.24.58,3.24,1.79,3.24c1.23,0,1.82-1.22,1.82-3.24m-5.37,0c0,1.63-.41,2.66-1.22,2.66s-1.21-.97-1.21-2.66.4-2.64,1.21-2.64,1.22.98,1.22,2.64m.6,0c0-2.02-.59-3.24-1.82-3.24s-1.79,1.21-1.79,3.24.58,3.24,1.79,3.24c1.22,0,1.82-1.22,1.82-3.24m-5.37,0c0,1.63-.41,2.66-1.22,2.66s-1.21-.97-1.21-2.66.4-2.64,1.21-2.64,1.22.98,1.22,2.64m.6,0c0-2.02-.59-3.24-1.82-3.24s-1.79,1.21-1.79,3.24.58,3.24,1.79,3.24c1.22,0,1.82-1.22,1.82-3.24m-6.9,2.05h.72l-.76,2.17h-.52l.56-2.17Zm-3.24-2.05c0,1.63-.41,2.66-1.21,2.66s-1.21-.97-1.21-2.66.41-2.64,1.21-2.64,1.21.98,1.21,2.64m.6,0c0-2.02-.59-3.24-1.82-3.24s-1.79,1.21-1.79,3.24.58,3.24,1.79,3.24c1.22,0,1.82-1.22,1.82-3.24m-5.37,0c0,1.63-.41,2.66-1.21,2.66s-1.21-.97-1.21-2.66.41-2.64,1.21-2.64,1.21.98,1.21,2.64m.6,0c0-2.02-.59-3.24-1.82-3.24s-1.79,1.21-1.79,3.24.57,3.24,1.79,3.24c1.22,0,1.82-1.22,1.82-3.24m-5.37,0c0,1.63-.41,2.66-1.22,2.66s-1.21-.97-1.21-2.66.41-2.64,1.21-2.64,1.22.98,1.22,2.64m.6,0c0-2.02-.59-3.24-1.82-3.24s-1.79,1.21-1.79,3.24.57,3.24,1.79,3.24c1.22,0,1.82-1.22,1.82-3.24m-6.9,2.05h.72l-.76,2.17h-.52l.56-2.17Zm-2.66.52h-1.53v-5.74h-.57l-1.55,1.66.38.47,1.17-1.3v4.91h-1.53v.57h3.63v-.57Z" style="fill:#0d0d0b;"/><path d="m243.67,104.98c.62,0,.96.59,1.03,1.38h-2.14c.1-.79.46-1.38,1.11-1.38Zm0-.56c-.75,0-1.27.48-1.52,1.19-.13.35-.19.74-.19,1.15,0,.83.24,1.59.76,2.02.26.22.58.32.95.32.83,0,1.42-.59,1.56-1.48h-.59c-.14.62-.45.93-.96.93-.72,0-1.09-.74-1.13-1.63h2.76c.03-1.38-.49-2.49-1.64-2.49Zm-4.6,0c-.54,0-1.02.26-1.27.74v-.65s0-1.8,0-1.8h-.59v6.3h.58v-2.45c0-.97.42-1.58,1.2-1.58.55,0,.78.39.78,1.01v3.02h.58v-3.02c0-.93-.46-1.57-1.29-1.57Zm-3.57,3.82c-.23.12-.58.22-.78.22-.42,0-.62-.17-.62-.65v-2.75h1.35v-.54h-1.35v-1.5h-.57v1.5h-1.08v.54h1.08v2.75c0,.75.42,1.2,1.15,1.2.25,0,.68-.08.94-.22l-.12-.56Zm-10.91-3.26c.62,0,.96.59,1.03,1.38h-2.13c.1-.79.46-1.38,1.11-1.38Zm0-.56c-.75,0-1.27.48-1.52,1.19-.12.35-.19.74-.19,1.15,0,.83.24,1.59.76,2.02.26.22.58.32.95.32.83,0,1.42-.59,1.56-1.48h-.59c-.13.62-.45.93-.96.93-.72,0-1.09-.74-1.12-1.63h2.76c.03-1.38-.49-2.49-1.64-2.49Zm-3.28,1.25c-.14-.8-.74-1.25-1.49-1.25s-1.43.47-1.43,1.16c0,.46.29.83.85,1.11l1.04.52c.33.17.52.32.52.68,0,.4-.42.66-.94.66s-.95-.26-1.1-.83h-.59c.17.85.86,1.38,1.69,1.38.53,0,1.03-.21,1.3-.57.13-.18.21-.39.21-.63,0-.58-.31-.93-.82-1.18l-1.05-.52c-.4-.19-.57-.34-.57-.62,0-.37.4-.6.86-.6.44,0,.78.22.9.69h.59Zm-5.31,1.29c0,.97-.42,1.58-1.2,1.58-.54,0-.78-.39-.78-1.01v-3.02h-.58v3.02c0,.93.46,1.56,1.29,1.56.54,0,1.01-.26,1.27-.74v.65s.59,0,.59,0v-4.5h-.58v2.45Zm-10.52,1.58c.76,0,1.03-.78,1.03-1.78s-.27-1.78-1.03-1.78-1.04.81-1.04,1.78.28,1.78,1.04,1.78Zm0-4.12c.75,0,1.23.49,1.46,1.2.11.35.16.74.16,1.14,0,1.32-.51,2.34-1.62,2.34s-1.62-1.02-1.62-2.34.53-2.34,1.62-2.34Zm-3.37,3.82c-.23.12-.58.22-.78.22-.42,0-.62-.17-.62-.65v-2.75h1.35v-.54h-1.35v-1.5h-.57v1.5h-1.08v.54h1.08v2.75c0,.75.42,1.2,1.15,1.2.25,0,.68-.08.95-.22l-.12-.56Zm-12.67-3.73l1.48,4.45-.54,1.62h.6l1.95-6.07h-.61l-1.12,3.65-1.15-3.65h-.61Zm-3.14,4.03c-.75,0-1.08-.77-1.08-1.78s.33-1.77,1.08-1.77c.66,0,1.02.66,1.02,1.77s-.36,1.78-1.02,1.78Zm.98-4.03v.6c-.21-.42-.61-.68-1.05-.68-1.04,0-1.59,1-1.59,2.33s.56,2.34,1.59,2.34c.46,0,.86-.28,1.06-.71v.68c0,.76-.3,1.14-.95,1.14-.44,0-.86-.23-.95-.71h-.59c.05.53.4.93.85,1.12.23.1.45.14.68.14.98,0,1.54-.65,1.54-1.69v-4.56h-.59Zm-5.13-.09c-.46,0-.88.23-1.13.73v-.64h-.58v4.5h.57v-2.45c0-.9.4-1.58,1.03-1.58.44,0,.67.29.71.86h.58c-.04-.89-.5-1.42-1.19-1.42Zm-5.26.56c.62,0,.96.59,1.03,1.38h-2.13c.1-.79.46-1.38,1.11-1.38Zm0-.56c-.75,0-1.27.48-1.52,1.19-.12.35-.19.74-.19,1.15,0,.83.24,1.59.76,2.02.26.22.58.32.95.32.83,0,1.42-.59,1.56-1.48h-.59c-.13.62-.45.93-.96.93-.72,0-1.09-.74-1.12-1.63h2.76c.03-1.38-.49-2.49-1.64-2.49Zm-4.53,0c-.54,0-1.01.26-1.27.74v-.65s-.59,0-.59,0v4.5h.58v-2.45c0-.97.41-1.58,1.2-1.58.55,0,.78.39.78,1.01v3.02h.58v-3.02c0-.93-.46-1.57-1.3-1.57Zm-5.01.56c.62,0,.96.59,1.03,1.38h-2.13c.1-.79.46-1.38,1.11-1.38Zm0-.56c-.75,0-1.27.48-1.52,1.19-.12.35-.19.74-.19,1.15,0,.83.24,1.59.75,2.02.26.22.58.32.95.32.83,0,1.42-.59,1.56-1.48h-.59c-.13.62-.45.93-.96.93-.72,0-1.09-.74-1.12-1.63h2.76c.03-1.38-.49-2.49-1.64-2.49Zm-9.37,0c-.54,0-1.02.26-1.27.74v-.65s0-1.8,0-1.8h-.59v6.3h.58v-2.45c0-.97.41-1.58,1.2-1.58.55,0,.78.39.78,1.01v3.02h.58v-3.02c0-.93-.46-1.57-1.3-1.57Zm-5.08,4.12c-.75,0-1.08-.77-1.08-1.78s.33-1.77,1.08-1.77c.66,0,1.02.66,1.02,1.77s-.36,1.78-1.02,1.78Zm.98-4.03v.6c-.21-.42-.61-.68-1.05-.68-1.04,0-1.59,1-1.59,2.33s.56,2.34,1.59,2.34c.46,0,.86-.28,1.06-.71v.68c0,.76-.3,1.14-.95,1.14-.44,0-.86-.23-.95-.71h-.59c.05.53.4.93.85,1.12.22.1.45.14.68.14.98,0,1.54-.65,1.54-1.69v-4.56h-.59Zm-4.66,2.45c0,.97-.41,1.58-1.2,1.58-.54,0-.78-.39-.78-1.01v-3.02h-.58v3.02c0,.93.46,1.56,1.29,1.56.54,0,1.01-.26,1.27-.74v.65s.59,0,.59,0v-4.5h-.58v2.45Zm-5.75,1.58c.76,0,1.03-.78,1.03-1.78s-.27-1.78-1.03-1.78-1.04.81-1.04,1.78.28,1.78,1.04,1.78Zm0-4.12c.75,0,1.23.49,1.46,1.2.11.35.16.74.16,1.14,0,1.32-.51,2.34-1.62,2.34s-1.62-1.02-1.62-2.34.53-2.34,1.62-2.34Zm-4.49,0c-.54,0-1.01.26-1.27.74v-.65s-.59,0-.59,0v4.5h.58v-2.45c0-.97.41-1.58,1.2-1.58.55,0,.78.39.78,1.01v3.02h.58v-3.02c0-.93-.46-1.57-1.3-1.57Zm-5.01.56c.62,0,.96.59,1.03,1.38h-2.13c.1-.79.46-1.38,1.11-1.38Zm0-.56c-.75,0-1.27.48-1.52,1.19-.12.35-.19.74-.19,1.15,0,.83.24,1.59.76,2.02.26.22.58.32.95.32.83,0,1.42-.59,1.56-1.48h-.59c-.13.62-.45.93-.96.93-.72,0-1.09-.74-1.12-1.63h2.76c.03-1.38-.49-2.49-1.64-2.49Zm-9.54.56c.62,0,.96.59,1.03,1.38h-2.13c.1-.79.46-1.38,1.11-1.38Zm0-.56c-.75,0-1.27.48-1.52,1.19-.13.35-.19.74-.19,1.15,0,.83.24,1.59.76,2.02.26.22.58.32.95.32.83,0,1.42-.59,1.56-1.48h-.59c-.14.62-.45.93-.96.93-.72,0-1.09-.74-1.12-1.63h2.76c.03-1.38-.49-2.49-1.64-2.49Zm-3.8,0c-.36,0-.66.25-.85.73-.07-.44-.29-.73-.69-.73-.33,0-.64.23-.79.7l-.04-.6h-.49l-.02,4.5h.57v-2.7c0-.69.16-1.34.63-1.34.17,0,.28.07.33.21.04.14.07.38.07.7v3.13h.57v-2.7c0-.79.09-1.34.58-1.34.33,0,.39.26.39.76v3.28h.57v-3.3c0-.75-.24-1.3-.85-1.3Zm-4.79,2.55c0,.97-.41,1.58-1.2,1.58-.54,0-.78-.39-.78-1.01v-3.02h-.58v3.02c0,.93.46,1.56,1.29,1.56.54,0,1.01-.26,1.27-.74v.65s.59,0,.59,0v-4.5h-.58v2.45Zm-4.23-1.29c-.14-.8-.74-1.25-1.49-1.25s-1.43.47-1.43,1.16c0,.46.29.83.85,1.11l1.04.52c.32.17.52.32.52.68,0,.4-.42.66-.94.66s-.94-.26-1.1-.83h-.59c.17.85.86,1.38,1.69,1.38.53,0,1.03-.21,1.31-.57.14-.18.21-.39.21-.63,0-.58-.31-.93-.82-1.18l-1.04-.52c-.4-.19-.57-.34-.57-.62,0-.37.4-.6.86-.6.44,0,.78.22.9.69h.59Zm-6.02-1.25c-.54,0-1.01.26-1.27.74v-.65s-.59,0-.59,0v4.5h.58v-2.45c0-.97.41-1.58,1.2-1.58.55,0,.78.39.78,1.01v3.02h.58v-3.02c0-.93-.46-1.57-1.3-1.57Zm-5.04,4.12c.76,0,1.03-.78,1.03-1.78s-.27-1.78-1.03-1.78-1.04.81-1.04,1.78.28,1.78,1.04,1.78Zm0-4.12c.75,0,1.23.49,1.46,1.2.11.35.16.74.16,1.14,0,1.32-.51,2.34-1.62,2.34s-1.62-1.02-1.62-2.34.53-2.34,1.62-2.34Zm-4.66,4.12c-.75,0-1.12-.79-1.12-1.77s.38-1.76,1.12-1.76c.5,0,.81.36.89.96h.59c-.11-.94-.67-1.52-1.49-1.52-.72,0-1.25.44-1.51,1.15-.13.35-.2.75-.2,1.17h0c0,.86.27,1.6.78,2.02.26.21.57.31.93.31.82,0,1.38-.57,1.49-1.52h-.59c-.08.6-.39.96-.89.96Zm-8.12-2.87c-.14-.8-.74-1.25-1.49-1.25s-1.43.47-1.43,1.16c0,.46.29.83.85,1.11l1.04.52c.32.17.52.32.52.68,0,.4-.42.66-.94.66s-.94-.26-1.1-.83h-.59c.17.85.86,1.38,1.69,1.38.53,0,1.03-.21,1.31-.57.14-.18.21-.39.21-.63,0-.58-.31-.93-.82-1.18l-1.04-.52c-.41-.19-.57-.34-.57-.62,0-.37.4-.6.86-.6.44,0,.78.22.9.69h.59Zm-6.26-.69c.62,0,.96.59,1.03,1.38h-2.13c.1-.79.46-1.38,1.11-1.38Zm0-.56c-.75,0-1.27.48-1.52,1.19-.13.35-.19.74-.19,1.15,0,.83.24,1.59.76,2.02.26.22.58.32.95.32.83,0,1.42-.59,1.56-1.48h-.59c-.14.62-.45.93-.96.93-.72,0-1.09-.74-1.12-1.63h2.76c.03-1.38-.49-2.49-1.64-2.49Zm-4.8,1.83l-.97-1.74h-.65l1.32,2.24-1.33,2.26h.65l.98-1.75.98,1.75h.65l-1.33-2.26,1.32-2.24h-.65l-.97,1.74Zm-4.77,2.29c.76,0,1.03-.78,1.03-1.78s-.27-1.78-1.03-1.78-1.04.81-1.04,1.78.28,1.78,1.04,1.78Zm0-4.12c.75,0,1.23.49,1.46,1.2.11.35.16.74.16,1.14,0,1.32-.51,2.34-1.62,2.34s-1.62-1.02-1.62-2.34.53-2.34,1.62-2.34Zm-4.82,4.12c-.66,0-1.02-.67-1.02-1.78s.36-1.77,1.02-1.77c.75,0,1.08.76,1.08,1.77s-.33,1.78-1.08,1.78Zm.07-4.11c-.44,0-.85.26-1.05.68v-2.4h-.58v6.3h.56v-.63c.22.43.61.72,1.08.72,1.03,0,1.59-1.01,1.59-2.34s-.56-2.33-1.59-2.33Zm-4.51,0c-.54,0-1.01.26-1.27.74v-.65s-.59,0-.59,0v4.5h.58v-2.45c0-.97.41-1.58,1.2-1.58.55,0,.78.39.78,1.01v3.02h.58v-3.02c0-.93-.46-1.57-1.29-1.57Zm-3.56,4.02h-1.19v-3.94h-1.57v.56h.98v3.38h-1.21v.56h2.98v-.56Zm-1.55-4.63c.25,0,.45-.21.45-.46s-.2-.45-.45-.45-.45.21-.45.45.2.46.45.46Zm-8.29,2.05c0,1.63-.41,2.66-1.22,2.66s-1.21-.97-1.21-2.66.41-2.64,1.21-2.64,1.22.98,1.22,2.64Zm.6,0c0-2.02-.59-3.24-1.82-3.24s-1.79,1.21-1.79,3.24.58,3.24,1.79,3.24c1.23,0,1.82-1.22,1.82-3.24Zm-5.37,0c0,1.63-.41,2.66-1.22,2.66s-1.21-.97-1.21-2.66.4-2.64,1.21-2.64,1.22.98,1.22,2.64Zm.6,0c0-2.02-.59-3.24-1.82-3.24s-1.79,1.21-1.79,3.24.58,3.24,1.79,3.24c1.22,0,1.82-1.22,1.82-3.24Zm-5.37,0c0,1.63-.41,2.66-1.22,2.66s-1.21-.97-1.21-2.66.4-2.64,1.21-2.64,1.22.98,1.22,2.64Zm.6,0c0-2.02-.59-3.24-1.82-3.24s-1.79,1.21-1.79,3.24.58,3.24,1.79,3.24c1.22,0,1.82-1.22,1.82-3.24Zm-6.9,2.05h.72l-.76,2.17h-.52l.56-2.17Zm-3.24-2.05c0,1.63-.41,2.66-1.21,2.66s-1.21-.97-1.21-2.66.41-2.64,1.21-2.64,1.21.98,1.21,2.64Zm.6,0c0-2.02-.59-3.24-1.82-3.24s-1.79,1.21-1.79,3.24.58,3.24,1.79,3.24c1.22,0,1.82-1.22,1.82-3.24Zm-5.37,0c0,1.63-.41,2.66-1.21,2.66s-1.21-.97-1.21-2.66.41-2.64,1.21-2.64,1.21.98,1.21,2.64Zm.6,0c0-2.02-.59-3.24-1.82-3.24s-1.79,1.21-1.79,3.24.57,3.24,1.79,3.24c1.22,0,1.82-1.22,1.82-3.24Zm-5.37,0c0,1.63-.41,2.66-1.22,2.66s-1.21-.97-1.21-2.66.41-2.64,1.21-2.64,1.22.98,1.22,2.64Zm.6,0c0-2.02-.59-3.24-1.82-3.24s-1.79,1.21-1.79,3.24.57,3.24,1.79,3.24c1.22,0,1.82-1.22,1.82-3.24Zm-6.9,2.05h.72l-.76,2.17h-.52l.56-2.17Zm-2.66.52h-1.53v-5.74h-.57l-1.55,1.66.38.47,1.17-1.3v4.91h-1.53v.57h3.63v-.57Z" style="fill:none; stroke:#0d0d0b; stroke-width:.15px;"/></g><path d="m94.18,24.71l-3.72,2.42.3.47,3.72-2.42-.3-.47Zm-8,5.2l-3.72,2.42.3.47,3.72-2.42-.3-.47Zm-8,5.2l-3.72,2.42.3.47,3.72-2.42-.3-.47Zm-8,5.2l-3.72,2.42.3.47,3.72-2.42-.3-.47Zm-8,5.2l-3.72,2.42.3.47,3.72-2.42-.3-.47Zm-8,5.19l-3.72,2.42.3.47,3.72-2.42-.3-.47Zm-8,5.2l-3.72,2.42.3.47,3.72-2.42-.3-.47Zm-8,5.2l-3.72,2.42.3.47,3.72-2.42-.3-.47Zm-8,5.2l-3.72,2.42.3.47,3.72-2.42-.3-.47Z" style="fill:#0d0d0b;"/><path d="m94.18,24.71l-3.72,2.42.3.47,3.72-2.42-.3-.47Zm-8,5.2l-3.72,2.42.3.47,3.72-2.42-.3-.47Zm-8,5.2l-3.72,2.42.3.47,3.72-2.42-.3-.47Zm-8,5.2l-3.72,2.42.3.47,3.72-2.42-.3-.47Zm-8,5.2l-3.72,2.42.3.47,3.72-2.42-.3-.47Zm-8,5.19l-3.72,2.42.3.47,3.72-2.42-.3-.47Zm-8,5.2l-3.72,2.42.3.47,3.72-2.42-.3-.47Zm-8,5.2l-3.72,2.42.3.47,3.72-2.42-.3-.47Zm-8,5.2l-3.72,2.42.3.47,3.72-2.42-.3-.47Z" style="fill:none; stroke:#0d0d0b; stroke-width:.15px;"/><path d="m228.13,28.73l-3.72,2.42.3.47,3.72-2.42-.3-.47Zm-8,5.2l-3.72,2.42.3.47,3.72-2.42-.3-.47Zm-8,5.2l-3.72,2.42.3.47,3.72-2.42-.3-.47Zm-8,5.2l-3.72,2.42.3.47,3.72-2.42-.3-.47Zm-8,5.19l-3.72,2.42.3.47,3.72-2.42-.3-.47Zm-8,5.2l-3.72,2.42.3.47,3.72-2.42-.3-.47Zm-8,5.2l-3.72,2.42.3.47,3.72-2.42-.3-.47Zm-8,5.2l-3.72,2.42.3.47,3.72-2.42-.3-.47Z" style="fill:#0d0d0b;"/><path d="m228.13,28.73l-3.72,2.42.3.47,3.72-2.42-.3-.47Zm-8,5.2l-3.72,2.42.3.47,3.72-2.42-.3-.47Zm-8,5.2l-3.72,2.42.3.47,3.72-2.42-.3-.47Zm-8,5.2l-3.72,2.42.3.47,3.72-2.42-.3-.47Zm-8,5.19l-3.72,2.42.3.47,3.72-2.42-.3-.47Zm-8,5.2l-3.72,2.42.3.47,3.72-2.42-.3-.47Zm-8,5.2l-3.72,2.42.3.47,3.72-2.42-.3-.47Zm-8,5.2l-3.72,2.42.3.47,3.72-2.42-.3-.47Z" style="fill:none; stroke:#0d0d0b; stroke-width:.15px;"/><path d="m160.57,24.71l-3.72,2.42.3.47,3.72-2.42-.3-.47Zm-8,5.2l-3.72,2.42.3.47,3.72-2.42-.3-.47Zm-8,5.2l-3.72,2.42.3.47,3.72-2.42-.3-.47Zm-8,5.2l-3.72,2.42.3.47,3.72-2.42-.3-.47Zm-8,5.2l-3.72,2.42.3.47,3.72-2.42-.3-.47Zm-8,5.19l-3.72,2.42.3.47,3.72-2.42-.3-.47Zm-8,5.2l-3.72,2.42.3.47,3.72-2.42-.3-.47Zm-8,5.2l-3.72,2.42.3.47,3.72-2.42-.3-.47Zm-8,5.2l-3.72,2.42.3.47,3.72-2.42-.3-.47Z" style="fill:#0d0d0b;"/><path d="m160.57,24.71l-3.72,2.42.3.47,3.72-2.42-.3-.47Zm-8,5.2l-3.72,2.42.3.47,3.72-2.42-.3-.47Zm-8,5.2l-3.72,2.42.3.47,3.72-2.42-.3-.47Zm-8,5.2l-3.72,2.42.3.47,3.72-2.42-.3-.47Zm-8,5.2l-3.72,2.42.3.47,3.72-2.42-.3-.47Zm-8,5.19l-3.72,2.42.3.47,3.72-2.42-.3-.47Zm-8,5.2l-3.72,2.42.3.47,3.72-2.42-.3-.47Zm-8,5.2l-3.72,2.42.3.47,3.72-2.42-.3-.47Zm-8,5.2l-3.72,2.42.3.47,3.72-2.42-.3-.47Z" style="fill:none; stroke:#0d0d0b; stroke-width:.15px;"/><path d="m101.72,24.71l-3.72,2.42.3.47,3.72-2.42-.3-.47Zm-8,5.2l-3.72,2.42.3.47,3.72-2.42-.3-.47Zm-8,5.2l-3.72,2.42.3.47,3.72-2.42-.3-.47Zm-8,5.2l-3.72,2.42.3.47,3.72-2.42-.3-.47Zm-8,5.2l-3.72,2.42.3.47,3.72-2.42-.3-.47Zm-8,5.19l-3.72,2.42.3.47,3.72-2.42-.3-.47Zm-8,5.2l-3.72,2.42.3.47,3.72-2.42-.3-.47Zm-8,5.2l-3.72,2.42.3.47,3.72-2.42-.3-.47Zm-8,5.2l-3.72,2.42.3.47,3.72-2.42-.3-.47Z" style="fill:#0d0d0b;"/><path d="m101.72,24.71l-3.72,2.42.3.47,3.72-2.42-.3-.47Zm-8,5.2l-3.72,2.42.3.47,3.72-2.42-.3-.47Zm-8,5.2l-3.72,2.42.3.47,3.72-2.42-.3-.47Zm-8,5.2l-3.72,2.42.3.47,3.72-2.42-.3-.47Zm-8,5.2l-3.72,2.42.3.47,3.72-2.42-.3-.47Zm-8,5.19l-3.72,2.42.3.47,3.72-2.42-.3-.47Zm-8,5.2l-3.72,2.42.3.47,3.72-2.42-.3-.47Zm-8,5.2l-3.72,2.42.3.47,3.72-2.42-.3-.47Zm-8,5.2l-3.72,2.42.3.47,3.72-2.42-.3-.47Z" style="fill:none; stroke:#0d0d0b; stroke-width:.15px;"/><path d="m235.66,28.73l-3.72,2.42.3.47,3.72-2.42-.3-.47Zm-8,5.2l-3.72,2.42.3.47,3.72-2.42-.3-.47Zm-8,5.2l-3.72,2.42.3.47,3.72-2.42-.3-.47Zm-8,5.2l-3.72,2.42.3.47,3.72-2.42-.3-.47Zm-8,5.19l-3.72,2.42.3.47,3.72-2.42-.3-.47Zm-8,5.2l-3.72,2.42.3.47,3.72-2.42-.3-.47Zm-8,5.2l-3.72,2.42.3.47,3.72-2.42-.3-.47Zm-8,5.2l-3.72,2.42.3.47,3.72-2.42-.3-.47Z" style="fill:#0d0d0b;"/><path d="m235.66,28.73l-3.72,2.42.3.47,3.72-2.42-.3-.47Zm-8,5.2l-3.72,2.42.3.47,3.72-2.42-.3-.47Zm-8,5.2l-3.72,2.42.3.47,3.72-2.42-.3-.47Zm-8,5.2l-3.72,2.42.3.47,3.72-2.42-.3-.47Zm-8,5.19l-3.72,2.42.3.47,3.72-2.42-.3-.47Zm-8,5.2l-3.72,2.42.3.47,3.72-2.42-.3-.47Zm-8,5.2l-3.72,2.42.3.47,3.72-2.42-.3-.47Zm-8,5.2l-3.72,2.42.3.47,3.72-2.42-.3-.47Z" style="fill:none; stroke:#0d0d0b; stroke-width:.15px;"/><path d="m168.11,24.71l-3.72,2.42.3.47,3.72-2.42-.3-.47Zm-8,5.2l-3.72,2.42.3.47,3.72-2.42-.3-.47Zm-8,5.2l-3.72,2.42.3.47,3.72-2.42-.3-.47Zm-8,5.2l-3.72,2.42.3.47,3.72-2.42-.3-.47Zm-8,5.2l-3.72,2.42.3.47,3.72-2.42-.3-.47Zm-8,5.19l-3.72,2.42.3.47,3.72-2.42-.3-.47Zm-8,5.2l-3.72,2.42.3.47,3.72-2.42-.3-.47Zm-8,5.2l-3.72,2.42.3.47,3.72-2.42-.3-.47Zm-8,5.2l-3.72,2.42.3.47,3.72-2.42-.3-.47Z" style="fill:#0d0d0b;"/><path d="m168.11,24.71l-3.72,2.42.3.47,3.72-2.42-.3-.47Zm-8,5.2l-3.72,2.42.3.47,3.72-2.42-.3-.47Zm-8,5.2l-3.72,2.42.3.47,3.72-2.42-.3-.47Zm-8,5.2l-3.72,2.42.3.47,3.72-2.42-.3-.47Zm-8,5.2l-3.72,2.42.3.47,3.72-2.42-.3-.47Zm-8,5.19l-3.72,2.42.3.47,3.72-2.42-.3-.47Zm-8,5.2l-3.72,2.42.3.47,3.72-2.42-.3-.47Zm-8,5.2l-3.72,2.42.3.47,3.72-2.42-.3-.47Zm-8,5.2l-3.72,2.42.3.47,3.72-2.42-.3-.47Z" style="fill:none; stroke:#0d0d0b; stroke-width:.15px;"/><rect x="92.37" y="27.1" width="4.44" height=".56" style="fill:#0d0d0b;"/><rect x="92.37" y="27.1" width="4.44" height=".56" style="fill:none; stroke:#0d0d0b; stroke-width:.15px;"/><rect x="157.59" y="28.06" width="4.44" height=".56" style="fill:#0d0d0b;"/><rect x="157.59" y="28.06" width="4.44" height=".56" style="fill:none; stroke:#0d0d0b; stroke-width:.15px;"/><rect x="87.37" y="30.09" width="4.44" height=".56" style="fill:#0d0d0b;"/><rect x="87.37" y="30.1" width="4.44" height=".56" style="fill:none; stroke:#0d0d0b; stroke-width:.15px;"/><rect x="229.31" y="28.92" width="4.43" height=".56" style="fill:#0d0d0b;"/><rect x="229.31" y="28.92" width="4.44" height=".56" style="fill:none; stroke:#0d0d0b; stroke-width:.15px;"/><rect x="84.37" y="33.1" width="4.44" height=".56" style="fill:#0d0d0b;"/><rect x="84.37" y="33.1" width="4.44" height=".56" style="fill:none; stroke:#0d0d0b; stroke-width:.15px;"/><rect x="226.31" y="31.92" width="4.44" height=".56" style="fill:#0d0d0b;"/><rect x="226.31" y="31.92" width="4.44" height=".56" style="fill:none; stroke:#0d0d0b; stroke-width:.15px;"/><rect x="79.37" y="35.1" width="4.44" height=".56" style="fill:#0d0d0b;"/><rect x="79.37" y="35.1" width="4.44" height=".56" style="fill:none; stroke:#0d0d0b; stroke-width:.15px;"/><rect x="221.31" y="33.92" width="4.44" height=".56" style="fill:#0d0d0b;"/><rect x="221.31" y="33.92" width="4.44" height=".56" style="fill:none; stroke:#0d0d0b; stroke-width:.15px;"/><rect x="76.37" y="38.09" width="4.43" height=".56" style="fill:#0d0d0b;"/><rect x="76.37" y="38.1" width="4.44" height=".56" style="fill:none; stroke:#0d0d0b; stroke-width:.15px;"/><rect x="218.31" y="36.92" width="4.44" height=".56" style="fill:#0d0d0b;"/><rect x="218.31" y="36.92" width="4.44" height=".56" style="fill:none; stroke:#0d0d0b; stroke-width:.15px;"/><rect x="71.54" y="40.09" width="4.44" height=".56" style="fill:#0d0d0b;"/><rect x="71.55" y="40.1" width="4.44" height=".56" style="fill:none; stroke:#0d0d0b; stroke-width:.15px;"/><rect x="213.49" y="38.92" width="4.44" height=".56" style="fill:#0d0d0b;"/><rect x="213.49" y="38.92" width="4.44" height=".56" style="fill:none; stroke:#0d0d0b; stroke-width:.15px;"/><rect x="68.21" y="43.1" width="4.44" height=".56" style="fill:#0d0d0b;"/><rect x="68.21" y="43.1" width="4.44" height=".56" style="fill:none; stroke:#0d0d0b; stroke-width:.15px;"/><rect x="210.15" y="41.92" width="4.44" height=".56" style="fill:#0d0d0b;"/><rect x="210.15" y="41.92" width="4.44" height=".56" style="fill:none; stroke:#0d0d0b; stroke-width:.15px;"/><rect x="63.25" y="45.43" width="4.44" height=".56" style="fill:#0d0d0b;"/><rect x="63.25" y="45.43" width="4.44" height=".56" style="fill:none; stroke:#0d0d0b; stroke-width:.15px;"/><rect x="205.19" y="44.26" width="4.44" height=".56" style="fill:#0d0d0b;"/><rect x="205.19" y="44.26" width="4.44" height=".56" style="fill:none; stroke:#0d0d0b; stroke-width:.15px;"/><rect x="60.43" y="48.31" width="4.44" height=".56" style="fill:#0d0d0b;"/><rect x="60.43" y="48.31" width="4.44" height=".56" style="fill:none; stroke:#0d0d0b; stroke-width:.15px;"/><rect x="202.37" y="47.13" width="4.44" height=".56" style="fill:#0d0d0b;"/><rect x="202.37" y="47.13" width="4.44" height=".56" style="fill:none; stroke:#0d0d0b; stroke-width:.15px;"/><rect x="56.07" y="50.26" width="4.44" height=".56" style="fill:#0d0d0b;"/><rect x="56.08" y="50.26" width="4.44" height=".56" style="fill:none; stroke:#0d0d0b; stroke-width:.15px;"/><rect x="198.02" y="49.08" width="4.44" height=".56" style="fill:#0d0d0b;"/><rect x="198.02" y="49.08" width="4.44" height=".56" style="fill:none; stroke:#0d0d0b; stroke-width:.15px;"/><rect x="53.08" y="53.1" width="4.44" height=".56" style="fill:#0d0d0b;"/><rect x="53.08" y="53.1" width="4.44" height=".56" style="fill:none; stroke:#0d0d0b; stroke-width:.15px;"/><rect x="195.02" y="51.92" width="4.44" height=".56" style="fill:#0d0d0b;"/><rect x="195.02" y="51.92" width="4.44" height=".56" style="fill:none; stroke:#0d0d0b; stroke-width:.15px;"/><rect x="48.21" y="55.09" width="4.44" height=".56" style="fill:#0d0d0b;"/><rect x="48.21" y="55.1" width="4.44" height=".56" style="fill:none; stroke:#0d0d0b; stroke-width:.15px;"/><rect x="190.15" y="53.92" width="4.43" height=".56" style="fill:#0d0d0b;"/><rect x="190.15" y="53.92" width="4.44" height=".56" style="fill:none; stroke:#0d0d0b; stroke-width:.15px;"/><rect x="44.37" y="58.09" width="4.44" height=".56" style="fill:#0d0d0b;"/><rect x="44.37" y="58.1" width="4.44" height=".56" style="fill:none; stroke:#0d0d0b; stroke-width:.15px;"/><rect x="186.31" y="56.92" width="4.44" height=".56" style="fill:#0d0d0b;"/><rect x="186.31" y="56.92" width="4.44" height=".56" style="fill:none; stroke:#0d0d0b; stroke-width:.15px;"/><rect x="39.5" y="61.01" width="4.44" height=".56" style="fill:#0d0d0b;"/><rect x="39.5" y="61.01" width="4.44" height=".56" style="fill:none; stroke:#0d0d0b; stroke-width:.15px;"/><rect x="181.44" y="59.84" width="4.44" height=".56" style="fill:#0d0d0b;"/><rect x="181.44" y="59.84" width="4.44" height=".56" style="fill:none; stroke:#0d0d0b; stroke-width:.15px;"/><rect x="36.79" y="63.39" width="4.44" height=".56" style="fill:#0d0d0b;"/><rect x="36.79" y="63.39" width="4.44" height=".56" style="fill:none; stroke:#0d0d0b; stroke-width:.15px;"/><rect x="178.73" y="62.21" width="4.43" height=".56" style="fill:#0d0d0b;"/><rect x="178.73" y="62.21" width="4.44" height=".56" style="fill:none; stroke:#0d0d0b; stroke-width:.15px;"/><rect x="31.52" y="66.35" width="4.44" height=".56" style="fill:#0d0d0b;"/><rect x="31.52" y="66.35" width="4.44" height=".56" style="fill:none; stroke:#0d0d0b; stroke-width:.15px;"/><rect x="173.46" y="65.18" width="4.44" height=".56" style="fill:#0d0d0b;"/><rect x="173.46" y="65.18" width="4.44" height=".56" style="fill:none; stroke:#0d0d0b; stroke-width:.15px;"/><rect x="27.17" y="70.04" width="4.44" height=".56" style="fill:#0d0d0b;"/><rect x="27.17" y="70.04" width="4.44" height=".56" style="fill:none; stroke:#0d0d0b; stroke-width:.15px;"/><rect x="169.11" y="68.87" width="4.44" height=".56" style="fill:#0d0d0b;"/><rect x="169.11" y="68.87" width="4.44" height=".56" style="fill:none; stroke:#0d0d0b; stroke-width:.15px;"/><rect x="153.94" y="30.09" width="4.43" height=".56" style="fill:#0d0d0b;"/><rect x="153.94" y="30.1" width="4.44" height=".56" style="fill:none; stroke:#0d0d0b; stroke-width:.15px;"/><rect x="150.37" y="32.8" width="4.44" height=".56" style="fill:#0d0d0b;"/><rect x="150.37" y="32.8" width="4.44" height=".56" style="fill:none; stroke:#0d0d0b; stroke-width:.15px;"/><rect x="145.66" y="35.1" width="4.44" height=".56" style="fill:#0d0d0b;"/><rect x="145.66" y="35.1" width="4.44" height=".56" style="fill:none; stroke:#0d0d0b; stroke-width:.15px;"/><rect x="142.31" y="38.39" width="4.44" height=".56" style="fill:#0d0d0b;"/><rect x="142.31" y="38.39" width="4.44" height=".56" style="fill:none; stroke:#0d0d0b; stroke-width:.15px;"/><rect x="137.99" y="39.77" width="4.44" height=".56" style="fill:#0d0d0b;"/><rect x="137.99" y="39.77" width="4.44" height=".56" style="fill:none; stroke:#0d0d0b; stroke-width:.15px;"/><rect x="135.15" y="42.89" width="4.44" height=".56" style="fill:#0d0d0b;"/><rect x="135.15" y="42.89" width="4.44" height=".56" style="fill:none; stroke:#0d0d0b; stroke-width:.15px;"/><rect x="129.63" y="44.98" width="4.43" height=".56" style="fill:#0d0d0b;"/><rect x="129.63" y="44.98" width="4.44" height=".56" style="fill:none; stroke:#0d0d0b; stroke-width:.15px;"/><rect x="127.16" y="48.09" width="4.43" height=".56" style="fill:#0d0d0b;"/><rect x="127.16" y="48.1" width="4.44" height=".56" style="fill:none; stroke:#0d0d0b; stroke-width:.15px;"/><rect x="121.94" y="50.23" width="4.44" height=".56" style="fill:#0d0d0b;"/><rect x="121.94" y="50.23" width="4.44" height=".56" style="fill:none; stroke:#0d0d0b; stroke-width:.15px;"/><rect x="119.16" y="53.1" width="4.43" height=".56" style="fill:#0d0d0b;"/><rect x="119.16" y="53.1" width="4.44" height=".56" style="fill:none; stroke:#0d0d0b; stroke-width:.15px;"/><rect x="113.94" y="55.64" width="4.44" height=".56" style="fill:#0d0d0b;"/><rect x="113.94" y="55.64" width="4.44" height=".56" style="fill:none; stroke:#0d0d0b; stroke-width:.15px;"/><rect x="111" y="58.8" width="4.44" height=".56" style="fill:#0d0d0b;"/><rect x="111" y="58.8" width="4.44" height=".56" style="fill:none; stroke:#0d0d0b; stroke-width:.15px;"/><rect x="106.03" y="60.85" width="4.44" height=".56" style="fill:#0d0d0b;"/><rect x="106.03" y="60.85" width="4.44" height=".56" style="fill:none; stroke:#0d0d0b; stroke-width:.15px;"/><rect x="102.66" y="64.22" width="4.44" height=".56" style="fill:#0d0d0b;"/><rect x="102.66" y="64.22" width="4.44" height=".56" style="fill:none; stroke:#0d0d0b; stroke-width:.15px;"/><rect x="97.66" y="66.09" width="4.43" height=".56" style="fill:#0d0d0b;"/><rect x="97.66" y="66.1" width="4.44" height=".56" style="fill:none; stroke:#0d0d0b; stroke-width:.15px;"/><rect x="94.85" y="69.1" width="4.44" height=".56" style="fill:#0d0d0b;"/><rect x="94.84" y="69.1" width="4.44" height=".56" style="fill:none; stroke:#0d0d0b; stroke-width:.15px;"/><g style="clip-path:url(#g); fill:none;"><path d="m103.39,41.85c-.05.32-.23.6-.55.6-.26,0-.49-.24-.68-.42-.47-.42-.73-.58-1.1-.58-.61,0-1.01.5-1.11,1.15h.56c.04-.32.23-.59.55-.59.22,0,.34.1.7.42.5.43.71.58,1.07.58.61,0,1.03-.5,1.13-1.15h-.58Z" style="fill:#0d0d0b;"/><path d="m103.39,41.85c-.05.32-.23.6-.55.6-.26,0-.49-.24-.68-.42-.47-.42-.73-.58-1.1-.58-.61,0-1.01.5-1.11,1.15h.56c.04-.32.23-.59.55-.59.22,0,.34.1.7.42.5.43.71.58,1.07.58.61,0,1.03-.5,1.13-1.15h-.58Z" style="fill:none; stroke:#0d0d0b; stroke-width:.15px;"/><path d="m125.46,36.85c-.05.32-.23.6-.55.6-.26,0-.49-.24-.68-.42-.47-.42-.73-.58-1.1-.58-.61,0-1.01.5-1.11,1.15h.56c.04-.32.23-.59.55-.59.22,0,.34.1.7.42.5.43.71.58,1.07.58.61,0,1.03-.5,1.13-1.15h-.58Z" style="fill:#0d0d0b;"/><path d="m125.46,36.85c-.05.32-.23.6-.55.6-.26,0-.49-.24-.68-.42-.47-.42-.73-.58-1.1-.58-.61,0-1.01.5-1.11,1.15h.56c.04-.32.23-.59.55-.59.22,0,.34.1.7.42.5.43.71.58,1.07.58.61,0,1.03-.5,1.13-1.15h-.58Z" style="fill:none; stroke:#0d0d0b; stroke-width:.15px;"/><path d="m36.04,29.99c-.05.32-.23.6-.55.6-.26,0-.49-.24-.67-.42-.47-.42-.73-.58-1.1-.58-.61,0-1.01.5-1.11,1.15h.56c.05-.32.23-.59.55-.59.22,0,.34.1.7.42.5.43.71.58,1.07.58.61,0,1.03-.5,1.13-1.15h-.58Z" style="fill:#0d0d0b;"/><path d="m36.04,29.99c-.05.32-.23.6-.55.6-.26,0-.49-.24-.67-.42-.47-.42-.73-.58-1.1-.58-.61,0-1.01.5-1.11,1.15h.56c.05-.32.23-.59.55-.59.22,0,.34.1.7.42.5.43.71.58,1.07.58.61,0,1.03-.5,1.13-1.15h-.58Z" style="fill:none; stroke:#0d0d0b; stroke-width:.15px;"/><path d="m239.94,38.47c-.05.32-.23.6-.55.6-.26,0-.49-.24-.68-.42-.47-.42-.73-.58-1.1-.58-.61,0-1.01.5-1.11,1.15h.56c.04-.32.23-.59.55-.59.22,0,.34.1.7.42.5.43.71.58,1.07.58.61,0,1.03-.5,1.13-1.15h-.58Z" style="fill:#0d0d0b;"/><path d="m239.94,38.47c-.05.32-.23.6-.55.6-.26,0-.49-.24-.68-.42-.47-.42-.73-.58-1.1-.58-.61,0-1.01.5-1.11,1.15h.56c.04-.32.23-.59.55-.59.22,0,.34.1.7.42.5.43.71.58,1.07.58.61,0,1.03-.5,1.13-1.15h-.58Z" style="fill:none; stroke:#0d0d0b; stroke-width:.15px;"/><path d="m144.83,26.01c-.05.32-.23.6-.55.6-.26,0-.49-.24-.68-.42-.47-.42-.73-.58-1.1-.58-.61,0-1.01.5-1.11,1.15h.56c.04-.32.23-.59.55-.59.22,0,.34.1.7.42.5.43.71.58,1.07.58.61,0,1.03-.5,1.13-1.15h-.58Z" style="fill:#0d0d0b;"/><path d="m144.83,26.01c-.05.32-.23.6-.55.6-.26,0-.49-.24-.68-.42-.47-.42-.73-.58-1.1-.58-.61,0-1.01.5-1.11,1.15h.56c.04-.32.23-.59.55-.59.22,0,.34.1.7.42.5.43.71.58,1.07.58.61,0,1.03-.5,1.13-1.15h-.58Z" style="fill:none; stroke:#0d0d0b; stroke-width:.15px;"/><path d="m58.86,60.64c-.05.32-.23.6-.55.6-.26,0-.49-.24-.67-.42-.47-.42-.73-.58-1.1-.58-.61,0-1.01.5-1.11,1.15h.56c.05-.32.23-.59.55-.59.22,0,.34.1.7.42.5.43.71.58,1.07.58.61,0,1.03-.5,1.13-1.15h-.58Z" style="fill:#0d0d0b;"/><path d="m58.86,60.64c-.05.32-.23.6-.55.6-.26,0-.49-.24-.67-.42-.47-.42-.73-.58-1.1-.58-.61,0-1.01.5-1.11,1.15h.56c.05-.32.23-.59.55-.59.22,0,.34.1.7.42.5.43.71.58,1.07.58.61,0,1.03-.5,1.13-1.15h-.58Z" style="fill:none; stroke:#0d0d0b; stroke-width:.15px;"/><path d="m200.8,59.47c-.05.32-.23.6-.55.6-.26,0-.49-.24-.68-.42-.47-.42-.73-.58-1.1-.58-.61,0-1.01.5-1.11,1.15h.56c.04-.32.23-.59.55-.59.22,0,.34.1.7.42.5.43.71.58,1.07.58.61,0,1.03-.5,1.13-1.15h-.58Z" style="fill:#0d0d0b;"/><path d="m200.8,59.47c-.05.32-.23.6-.55.6-.26,0-.49-.24-.68-.42-.47-.42-.73-.58-1.1-.58-.61,0-1.01.5-1.11,1.15h.56c.04-.32.23-.59.55-.59.22,0,.34.1.7.42.5.43.71.58,1.07.58.61,0,1.03-.5,1.13-1.15h-.58Z" style="fill:none; stroke:#0d0d0b; stroke-width:.15px;"/><path d="m98,52.16c-.05.32-.23.6-.55.6-.26,0-.49-.24-.68-.42-.47-.42-.73-.58-1.1-.58-.61,0-1.01.5-1.11,1.15h.56c.04-.32.23-.59.55-.59.22,0,.34.1.7.42.5.43.71.58,1.07.58.61,0,1.03-.5,1.13-1.15h-.58Z" style="fill:#0d0d0b;"/><path d="m98,52.16c-.05.32-.23.6-.55.6-.26,0-.49-.24-.68-.42-.47-.42-.73-.58-1.1-.58-.61,0-1.01.5-1.11,1.15h.56c.04-.32.23-.59.55-.59.22,0,.34.1.7.42.5.43.71.58,1.07.58.61,0,1.03-.5,1.13-1.15h-.58Z" style="fill:none; stroke:#0d0d0b; stroke-width:.15px;"/><path d="m239.94,50.99c-.05.32-.23.6-.55.6-.26,0-.49-.24-.68-.42-.47-.42-.73-.58-1.1-.58-.61,0-1.01.5-1.11,1.15h.56c.04-.32.23-.59.55-.59.22,0,.34.1.7.42.5.43.71.58,1.07.58.61,0,1.03-.5,1.13-1.15h-.58Z" style="fill:#0d0d0b;"/><path d="m239.94,50.99c-.05.32-.23.6-.55.6-.26,0-.49-.24-.68-.42-.47-.42-.73-.58-1.1-.58-.61,0-1.01.5-1.11,1.15h.56c.04-.32.23-.59.55-.59.22,0,.34.1.7.42.5.43.71.58,1.07.58.61,0,1.03-.5,1.13-1.15h-.58Z" style="fill:none; stroke:#0d0d0b; stroke-width:.15px;"/></g><polygon points="161.6 42.55 161.39 41.9 160.14 42.44 160.3 41.08 159.64 41.08 159.8 42.44 158.56 41.89 158.36 42.52 159.71 42.75 158.76 43.75 159.28 44.15 159.98 42.97 160.65 44.16 161.18 43.75 160.25 42.78 161.6 42.55" style="fill:#0d0d0b;"/><polygon points="161.6 42.55 161.39 41.9 160.14 42.44 160.3 41.08 159.64 41.08 159.8 42.44 158.56 41.89 158.36 42.52 159.71 42.75 158.76 43.75 159.28 44.15 159.98 42.97 160.65 44.16 161.18 43.75 160.25 42.78 161.6 42.55" style="fill:none; stroke:#0d0d0b; stroke-width:.15px;"/><polygon points="85.65 55.87 85.45 55.22 84.2 55.76 84.36 54.4 83.69 54.4 83.86 55.76 82.62 55.21 82.42 55.84 83.77 56.07 82.82 57.07 83.34 57.47 84.04 56.29 84.71 57.48 85.24 57.07 84.3 56.1 85.65 55.87" style="fill:#0d0d0b;"/><polygon points="85.65 55.87 85.45 55.22 84.2 55.76 84.36 54.4 83.69 54.4 83.86 55.76 82.62 55.21 82.42 55.84 83.77 56.07 82.82 57.07 83.34 57.47 84.04 56.29 84.71 57.48 85.24 57.07 84.3 56.1 85.65 55.87" style="fill:none; stroke:#0d0d0b; stroke-width:.15px;"/><polygon points="80.21 26.01 80 25.36 78.75 25.9 78.91 24.54 78.25 24.54 78.41 25.9 77.18 25.35 76.97 25.98 78.32 26.21 77.38 27.21 77.9 27.61 78.59 26.43 79.27 27.62 79.8 27.21 78.86 26.24 80.21 26.01" style="fill:#0d0d0b;"/><polygon points="80.21 26.01 80 25.36 78.75 25.9 78.91 24.54 78.25 24.54 78.41 25.9 77.18 25.35 76.97 25.98 78.32 26.21 77.38 27.21 77.9 27.61 78.59 26.43 79.27 27.62 79.8 27.21 78.86 26.24 80.21 26.01" style="fill:none; stroke:#0d0d0b; stroke-width:.15px;"/><polygon points="26.66 44.63 26.45 43.98 25.2 44.52 25.36 43.16 24.7 43.16 24.86 44.52 23.63 43.97 23.42 44.6 24.77 44.83 23.83 45.83 24.35 46.23 25.04 45.05 25.71 46.24 26.25 45.83 25.31 44.86 26.66 44.63" style="fill:#0d0d0b;"/><polygon points="26.66 44.63 26.45 43.98 25.2 44.52 25.36 43.16 24.7 43.16 24.86 44.52 23.63 43.97 23.42 44.6 24.77 44.83 23.83 45.83 24.35 46.23 25.04 45.05 25.71 46.24 26.25 45.83 25.31 44.86 26.66 44.63" style="fill:none; stroke:#0d0d0b; stroke-width:.15px;"/><polygon points="227.6 54.69 227.39 54.05 226.14 54.59 226.3 53.23 225.64 53.23 225.8 54.59 224.56 54.04 224.36 54.67 225.71 54.9 224.76 55.9 225.28 56.29 225.98 55.12 226.65 56.3 227.18 55.9 226.25 54.93 227.6 54.69" style="fill:#0d0d0b;"/><polygon points="227.6 54.69 227.39 54.05 226.14 54.59 226.3 53.23 225.64 53.23 225.8 54.59 224.56 54.04 224.36 54.67 225.71 54.9 224.76 55.9 225.28 56.29 225.98 55.12 226.65 56.3 227.18 55.9 226.25 54.93 227.6 54.69" style="fill:none; stroke:#0d0d0b; stroke-width:.15px;"/><polygon points="120.66 66.63 120.45 65.98 119.2 66.52 119.36 65.16 118.7 65.16 118.86 66.52 117.63 65.97 117.42 66.6 118.77 66.83 117.83 67.83 118.35 68.23 119.04 67.05 119.71 68.24 120.25 67.83 119.31 66.86 120.66 66.63" style="fill:#0d0d0b;"/><polygon points="120.66 66.63 120.45 65.98 119.2 66.52 119.36 65.16 118.7 65.16 118.86 66.52 117.63 65.97 117.42 66.6 118.77 66.83 117.83 67.83 118.35 68.23 119.04 67.05 119.71 68.24 120.25 67.83 119.31 66.86 120.66 66.63" style="fill:none; stroke:#0d0d0b; stroke-width:.15px;"/><polygon points="204.67 28.83 204.47 28.18 203.21 28.72 203.38 27.36 202.71 27.36 202.87 28.72 201.64 28.17 201.43 28.8 202.78 29.03 201.84 30.03 202.36 30.43 203.05 29.25 203.73 30.44 204.26 30.03 203.32 29.06 204.67 28.83" style="fill:#0d0d0b;"/><polygon points="204.67 28.83 204.47 28.18 203.21 28.72 203.38 27.36 202.71 27.36 202.87 28.72 201.64 28.17 201.43 28.8 202.78 29.03 201.84 30.03 202.36 30.43 203.05 29.25 203.73 30.44 204.26 30.03 203.32 29.06 204.67 28.83" style="fill:none; stroke:#0d0d0b; stroke-width:.15px;"/><g style="clip-path:url(#h); fill:none;"><path d="m159.46,51.44c-.05.32-.23.6-.55.6-.26,0-.49-.24-.68-.42-.47-.42-.73-.58-1.1-.58-.61,0-1.01.5-1.11,1.15h.56c.04-.32.23-.59.55-.59.22,0,.34.1.7.42.5.43.71.58,1.07.58.61,0,1.03-.5,1.13-1.15h-.58Z" style="fill:#0d0d0b;"/><path d="m159.46,51.44c-.05.32-.23.6-.55.6-.26,0-.49-.24-.68-.42-.47-.42-.73-.58-1.1-.58-.61,0-1.01.5-1.11,1.15h.56c.04-.32.23-.59.55-.59.22,0,.34.1.7.42.5.43.71.58,1.07.58.61,0,1.03-.5,1.13-1.15h-.58Z" style="fill:none; stroke:#0d0d0b; stroke-width:.15px;"/><path d="m179.46,40.64c-.05.32-.23.6-.55.6-.26,0-.49-.24-.68-.42-.47-.42-.73-.58-1.1-.58-.61,0-1.01.5-1.11,1.15h.56c.04-.32.23-.59.55-.59.22,0,.34.1.7.42.5.43.71.58,1.07.58.61,0,1.03-.5,1.13-1.15h-.58Z" style="fill:#0d0d0b;"/><path d="m179.46,40.64c-.05.32-.23.6-.55.6-.26,0-.49-.24-.68-.42-.47-.42-.73-.58-1.1-.58-.61,0-1.01.5-1.11,1.15h.56c.04-.32.23-.59.55-.59.22,0,.34.1.7.42.5.43.71.58,1.07.58.61,0,1.03-.5,1.13-1.15h-.58Z" style="fill:none; stroke:#0d0d0b; stroke-width:.15px;"/><path d="m58.86,31.71c-.05.32-.23.6-.55.6-.26,0-.49-.24-.67-.42-.47-.42-.73-.58-1.1-.58-.61,0-1.01.5-1.11,1.15h.56c.05-.32.23-.59.55-.59.22,0,.34.1.7.42.5.43.71.58,1.07.58.61,0,1.03-.5,1.13-1.15h-.58Z" style="fill:#0d0d0b;"/><path d="m58.86,31.71c-.05.32-.23.6-.55.6-.26,0-.49-.24-.67-.42-.47-.42-.73-.58-1.1-.58-.61,0-1.01.5-1.11,1.15h.56c.05-.32.23-.59.55-.59.22,0,.34.1.7.42.5.43.71.58,1.07.58.61,0,1.03-.5,1.13-1.15h-.58Z" style="fill:none; stroke:#0d0d0b; stroke-width:.15px;"/><path d="m16.68,50.68c-.05.32-.23.6-.55.6-.26,0-.49-.24-.67-.42-.47-.42-.73-.58-1.1-.58-.61,0-1.01.5-1.11,1.15h.56c.04-.32.23-.59.55-.59.22,0,.34.1.7.42.5.43.71.58,1.07.58.61,0,1.03-.5,1.13-1.15h-.58Z" style="fill:#0d0d0b;"/><path d="m16.68,50.68c-.05.32-.23.6-.55.6-.26,0-.49-.24-.67-.42-.47-.42-.73-.58-1.1-.58-.61,0-1.01.5-1.11,1.15h.56c.04-.32.23-.59.55-.59.22,0,.34.1.7.42.5.43.71.58,1.07.58.61,0,1.03-.5,1.13-1.15h-.58Z" style="fill:none; stroke:#0d0d0b; stroke-width:.15px;"/></g></svg>