<?xml version="1.0" encoding="UTF-8"?><svg id="a" xmlns="http://www.w3.org/2000/svg" xmlns:xlink="http://www.w3.org/1999/xlink" viewBox="0 0 253 130.5"><defs><clipPath id="b"><rect x=".51" y=".1" width="252.91" height="130.57" style="fill:none;"/></clipPath><clipPath id="c"><rect x=".51" y=".1" width="252.91" height="130.57" style="fill:none;"/></clipPath><clipPath id="d"><rect x=".51" y=".1" width="252.91" height="130.57" style="fill:none;"/></clipPath><clipPath id="e"><rect x=".51" y=".1" width="252.91" height="130.57" style="fill:none;"/></clipPath><clipPath id="f"><rect x=".51" y=".1" width="252.91" height="130.57" style="fill:none;"/></clipPath><clipPath id="g"><rect x=".51" y=".1" width="252.91" height="130.57" style="fill:none;"/></clipPath></defs><path d="m7.59,91.87h4.44v-.56h-4.44v.56Zm9.54,0h4.44v-.56h-4.44v.56Zm9.54,0h4.44v-.56h-4.44v.56Zm9.54,0h4.44v-.56h-4.44v.56Zm9.54,0h4.44v-.56h-4.44v.56Zm9.54,0h4.44v-.56h-4.44v.56Zm9.54,0h4.44v-.56h-4.44v.56Zm9.54,0h4.44v-.56h-4.44v.56Zm9.54,0h4.44v-.56h-4.44v.56Zm9.54,0h4.43v-.56h-4.43v.56Zm9.54,0h4.43v-.56h-4.43v.56Zm9.54,0h4.43v-.56h-4.43v.56Zm9.54,0h4.43v-.56h-4.43v.56Zm9.54,0h4.43v-.56h-4.43v.56Zm9.54,0h4.43v-.56h-4.43v.56Zm9.54,0h4.43v-.56h-4.43v.56Zm9.54,0h4.43v-.56h-4.43v.56Zm9.54,0h4.43v-.56h-4.43v.56Zm9.54,0h4.43v-.56h-4.43v.56Zm9.54,0h4.44v-.56h-4.44v.56Zm9.54,0h4.44v-.56h-4.44v.56Zm9.54,0h4.44v-.56h-4.44v.56Zm9.54,0h4.44v-.56h-4.44v.56Zm9.54,0h4.44v-.56h-4.44v.56Zm9.54,0h4.44v-.56h-4.44v.56Z" style="fill:#0d0d0b;"/><path d="m240.99,91.31h-4.44v.56h4.44v-.56Zm-9.54,0h-4.44v.56h4.44v-.56Zm-9.54,0h-4.44v.56h4.44v-.56Zm-9.54,0h-4.44v.56h4.44v-.56Zm-9.54,0h-4.44v.56h4.44v-.56Zm-9.54,0h-4.44v.56h4.44v-.56Zm-9.54,0h-4.44v.56h4.44v-.56Zm-9.54,0h-4.44v.56h4.44v-.56Zm-9.54,0h-4.44v.56h4.44v-.56Zm-9.54,0h-4.44v.56h4.44v-.56Zm-9.54,0h-4.44v.56h4.44v-.56Zm-9.54,0h-4.44v.56h4.44v-.56Zm-9.54,0h-4.44v.56h4.44v-.56Zm-9.54,0h-4.44v.56h4.44v-.56Zm-9.54,0h-4.44v.56h4.44v-.56Zm-9.54,0h-4.44v.56h4.44v-.56Zm-9.54,0h-4.44v.56h4.44v-.56Zm-9.54,0h-4.44v.56h4.44v-.56Zm-9.54,0h-4.44v.56h4.44v-.56Zm-9.54,0h-4.44v.56h4.44v-.56Zm-9.54,0h-4.44v.56h4.44v-.56Zm-9.54,0h-4.44v.56h4.44v-.56Zm-9.54,0h-4.44v.56h4.44v-.56Zm-9.54,0h-4.44v.56h4.44v-.56Zm-9.54,0h-4.44v.56h4.44v-.56Z" style="fill:none; stroke:#0d0d0b; stroke-width:.15px;"/><path d="m10.47,129.97h4.44v-.56h-4.44v.56Zm9.54,0h4.43v-.56h-4.43v.56Zm9.54,0h4.44v-.56h-4.44v.56Zm9.54,0h4.44v-.56h-4.44v.56Zm9.54,0h4.44v-.56h-4.44v.56Zm9.54,0h4.44v-.56h-4.44v.56Zm9.54,0h4.44v-.56h-4.44v.56Zm9.54,0h4.44v-.56h-4.44v.56Zm9.54,0h4.44v-.56h-4.44v.56Zm9.54,0h4.44v-.56h-4.44v.56Zm9.54,0h4.44v-.56h-4.44v.56Zm9.54,0h4.44v-.56h-4.44v.56Zm9.54,0h4.44v-.56h-4.44v.56Zm9.54,0h4.44v-.56h-4.44v.56Zm9.54,0h4.44v-.56h-4.44v.56Zm9.54,0h4.44v-.56h-4.44v.56Zm9.54,0h4.44v-.56h-4.44v.56Zm9.54,0h4.44v-.56h-4.44v.56Zm9.54,0h4.44v-.56h-4.44v.56Zm9.54,0h4.44v-.56h-4.44v.56Zm9.54,0h4.44v-.56h-4.44v.56Zm9.54,0h4.44v-.56h-4.44v.56Zm9.54,0h4.44v-.56h-4.44v.56Zm9.54,0h4.44v-.56h-4.44v.56Zm9.54,0h4.44v-.56h-4.44v.56Z" style="fill:#0d0d0b;"/><path d="m243.87,129.41h-4.44v.56h4.44v-.56Zm-9.54,0h-4.44v.56h4.44v-.56Zm-9.54,0h-4.44v.56h4.44v-.56Zm-9.54,0h-4.44v.56h4.44v-.56Zm-9.54,0h-4.44v.56h4.44v-.56Zm-9.54,0h-4.44v.56h4.44v-.56Zm-9.54,0h-4.44v.56h4.44v-.56Zm-9.54,0h-4.44v.56h4.44v-.56Zm-9.54,0h-4.44v.56h4.44v-.56Zm-9.54,0h-4.44v.56h4.44v-.56Zm-9.54,0h-4.44v.56h4.44v-.56Zm-9.54,0h-4.44v.56h4.44v-.56Zm-9.54,0h-4.44v.56h4.44v-.56Zm-9.54,0h-4.44v.56h4.44v-.56Zm-9.54,0h-4.44v.56h4.44v-.56Zm-9.54,0h-4.44v.56h4.44v-.56Zm-9.54,0h-4.44v.56h4.44v-.56Zm-9.54,0h-4.44v.56h4.44v-.56Zm-9.54,0h-4.44v.56h4.44v-.56Zm-9.54,0h-4.44v.56h4.44v-.56Zm-9.54,0h-4.44v.56h4.44v-.56Zm-9.54,0h-4.44v.56h4.44v-.56Zm-9.54,0h-4.44v.56h4.44v-.56Zm-9.54,0h-4.44v.56h4.44v-.56Zm-9.54,0h-4.44v.56h4.44v-.56Z" style="fill:none; stroke:#0d0d0b; stroke-width:.15px;"/><path d="m10.83,2.05h4.44v-.56h-4.44v.56Zm9.54,0h4.44v-.56h-4.44v.56Zm9.54,0h4.44v-.56h-4.44v.56Zm9.54,0h4.44v-.56h-4.44v.56Zm9.54,0h4.44v-.56h-4.44v.56Zm9.54,0h4.44v-.56h-4.44v.56Zm9.54,0h4.44v-.56h-4.44v.56Zm9.54,0h4.44v-.56h-4.44v.56Zm9.54,0h4.44v-.56h-4.44v.56Zm9.54,0h4.44v-.56h-4.44v.56Zm9.54,0h4.44v-.56h-4.44v.56Zm9.54,0h4.44v-.56h-4.44v.56Zm9.54,0h4.44v-.56h-4.44v.56Zm9.54,0h4.44v-.56h-4.44v.56Zm9.54,0h4.44v-.56h-4.44v.56Zm9.54,0h4.44v-.56h-4.44v.56Zm9.54,0h4.44v-.56h-4.44v.56Zm9.54,0h4.44v-.56h-4.44v.56Zm9.54,0h4.44v-.56h-4.44v.56Zm9.54,0h4.44v-.56h-4.44v.56Zm9.54,0h4.44v-.56h-4.44v.56Zm9.54,0h4.44v-.56h-4.44v.56Zm9.54,0h4.44v-.56h-4.44v.56Zm9.54,0h4.44v-.56h-4.44v.56Zm9.54,0h4.44v-.56h-4.44v.56Z" style="fill:#0d0d0b;"/><path d="m244.22,1.49h-4.44v.56h4.44v-.56Zm-9.54,0h-4.44v.56h4.44v-.56Zm-9.54,0h-4.44v.56h4.44v-.56Zm-9.54,0h-4.44v.56h4.44v-.56Zm-9.54,0h-4.44v.56h4.44v-.56Zm-9.54,0h-4.44v.56h4.44v-.56Zm-9.54,0h-4.44v.56h4.44v-.56Zm-9.54,0h-4.44v.56h4.44v-.56Zm-9.54,0h-4.44v.56h4.44v-.56Zm-9.54,0h-4.44v.56h4.44v-.56Zm-9.54,0h-4.44v.56h4.44v-.56Zm-9.54,0h-4.44v.56h4.44v-.56Zm-9.54,0h-4.44v.56h4.44v-.56Zm-9.54,0h-4.44v.56h4.44v-.56Zm-9.54,0h-4.44v.56h4.44v-.56Zm-9.54,0h-4.44v.56h4.44v-.56Zm-9.54,0h-4.44v.56h4.44v-.56Zm-9.54,0h-4.44v.56h4.44v-.56Zm-9.54,0h-4.44v.56h4.44v-.56Zm-9.54,0h-4.44v.56h4.44v-.56Zm-9.54,0h-4.44v.56h4.44v-.56Zm-9.54,0h-4.44v.56h4.44v-.56Zm-9.54,0h-4.44v.56h4.44v-.56Zm-9.54,0h-4.44v.56h4.44v-.56Zm-9.54,0h-4.44v.56h4.44v-.56Z" style="fill:none; stroke:#0d0d0b; stroke-width:.15px;"/><polygon points="1.89 127.48 2.05 128.84 .82 128.29 .61 128.92 1.96 129.15 1.02 130.15 1.54 130.55 2.23 129.37 2.91 130.56 3.44 130.15 2.5 129.18 3.85 128.95 3.64 128.3 2.39 128.84 2.56 127.48 1.89 127.48" style="fill:#0d0d0b;"/><g style="clip-path:url(#b); fill:none;"><polygon points="3.85 128.95 3.64 128.3 2.39 128.84 2.56 127.48 1.89 127.48 2.05 128.84 .82 128.29 .61 128.92 1.96 129.15 1.02 130.15 1.54 130.55 2.23 129.37 2.91 130.56 3.44 130.15 2.5 129.18 3.85 128.95" style="fill:none; stroke:#0d0d0b; stroke-width:.15px;"/></g><polygon points="251.36 127.48 251.52 128.84 250.29 128.29 250.08 128.92 251.43 129.15 250.49 130.15 251.01 130.55 251.7 129.37 252.38 130.56 252.91 130.15 251.97 129.18 253.32 128.95 253.12 128.3 251.87 128.84 252.03 127.48 251.36 127.48" style="fill:#0d0d0b;"/><g style="clip-path:url(#c); fill:none;"><polygon points="253.32 128.95 253.12 128.3 251.87 128.84 252.03 127.48 251.36 127.48 251.52 128.84 250.29 128.29 250.08 128.92 251.43 129.15 250.49 130.15 251.01 130.55 251.7 129.37 252.38 130.56 252.91 130.15 251.97 129.18 253.32 128.95" style="fill:none; stroke:#0d0d0b; stroke-width:.15px;"/></g><polygon points="1.89 .18 2.05 1.54 .82 .99 .61 1.62 1.96 1.85 1.02 2.85 1.54 3.24 2.23 2.07 2.91 3.25 3.44 2.85 2.5 1.88 3.85 1.64 3.64 1 2.39 1.54 2.56 .18 1.89 .18" style="fill:#0d0d0b;"/><g style="clip-path:url(#d); fill:none;"><polygon points="3.85 1.64 3.64 .99 2.39 1.53 2.56 .18 1.89 .18 2.05 1.53 .82 .99 .61 1.62 1.96 1.85 1.02 2.85 1.54 3.24 2.23 2.07 2.91 3.25 3.44 2.85 2.5 1.88 3.85 1.64" style="fill:none; stroke:#0d0d0b; stroke-width:.15px;"/></g><polygon points="251.36 .18 251.52 1.54 250.29 .99 250.08 1.62 251.43 1.85 250.49 2.85 251.01 3.24 251.7 2.07 252.38 3.25 252.91 2.85 251.97 1.88 253.32 1.64 253.12 1 251.87 1.54 252.03 .18 251.36 .18" style="fill:#0d0d0b;"/><g style="clip-path:url(#e); fill:none;"><polygon points="253.32 1.64 253.12 1 251.87 1.54 252.03 .18 251.36 .18 251.52 1.54 250.29 .99 250.08 1.62 251.43 1.85 250.49 2.85 251.01 3.24 251.7 2.07 252.38 3.25 252.91 2.85 251.97 1.88 253.32 1.64" style="fill:none; stroke:#0d0d0b; stroke-width:.15px;"/></g><path d="m1.91,120.92h.56v-4.44h-.56v4.44Zm0-9.54h.56v-4.44h-.56v4.44Zm0-9.54h.56v-4.44h-.56v4.44Zm0-9.54h.56v-4.44h-.56v4.44Zm0-9.54h.56v-4.44h-.56v4.44Zm0-9.54h.56v-4.44h-.56v4.44Zm0-9.54h.56v-4.44h-.56v4.44Zm0-9.54h.56v-4.44h-.56v4.44Zm0-9.54h.56v-4.44h-.56v4.44Zm0-9.54h.56v-4.44h-.56v4.44Zm0-9.54h.56v-4.44h-.56v4.44Zm0-9.54h.56v-4.44h-.56v4.44Z" style="fill:#0d0d0b;"/><path d="m2.47,116.48h-.56v4.44h.56v-4.44Zm0-9.54h-.56v4.44h.56v-4.44Zm0-9.54h-.56v4.44h.56v-4.44Zm0-9.54h-.56v4.44h.56v-4.44Zm0-9.54h-.56v4.44h.56v-4.44Zm0-9.54h-.56v4.44h.56v-4.44Zm0-9.54h-.56v4.44h.56v-4.44Zm0-9.54h-.56v4.44h.56v-4.44Zm0-9.54h-.56v4.44h.56v-4.44Zm0-9.54h-.56v4.44h.56v-4.44Zm0-9.54h-.56v4.44h.56v-4.44Zm0-9.54h-.56v4.44h.56v-4.44Z" style="fill:none; stroke:#0d0d0b; stroke-width:.15px;"/><path d="m252,119.92h.56v-4.44h-.56v4.44Zm0-9.54h.56v-4.44h-.56v4.44Zm0-9.54h.56v-4.44h-.56v4.44Zm0-9.54h.56v-4.44h-.56v4.44Zm0-9.54h.56v-4.44h-.56v4.44Zm0-9.54h.56v-4.44h-.56v4.44Zm0-9.54h.56v-4.44h-.56v4.44Zm0-9.54h.56v-4.44h-.56v4.44Zm0-9.54h.56v-4.44h-.56v4.44Zm0-9.54h.56v-4.44h-.56v4.44Zm0-9.54h.56v-4.44h-.56v4.44Zm0-9.54h.56v-4.44h-.56v4.44Z" style="fill:#0d0d0b;"/><path d="m252.55,115.48h-.56v4.44h.56v-4.44Zm0-9.54h-.56v4.44h.56v-4.44Zm0-9.54h-.56v4.44h.56v-4.44Zm0-9.54h-.56v4.44h.56v-4.44Zm0-9.54h-.56v4.44h.56v-4.44Zm0-9.54h-.56v4.44h.56v-4.44Zm0-9.54h-.56v4.44h.56v-4.44Zm0-9.54h-.56v4.44h.56v-4.44Zm0-9.54h-.56v4.44h.56v-4.44Zm0-9.54h-.56v4.44h.56v-4.44Zm0-9.54h-.56v4.44h.56v-4.44Zm0-9.54h-.56v4.44h.56v-4.44Z" style="fill:none; stroke:#0d0d0b; stroke-width:.15px;"/><g style="clip-path:url(#f); fill:none;"><path d="m214.6,116.24c-.14-.8-.74-1.25-1.49-1.25-.79,0-1.43.47-1.43,1.16,0,.46.29.83.85,1.11l1.04.52c.32.17.52.32.52.68,0,.4-.42.66-.94.66s-.95-.26-1.1-.83h-.59c.17.85.86,1.38,1.69,1.38.53,0,1.03-.21,1.3-.57.13-.18.21-.39.21-.63,0-.58-.31-.93-.82-1.18l-1.04-.52c-.4-.19-.57-.34-.57-.62,0-.37.4-.6.87-.6.44,0,.78.22.9.69h.59Zm-6.4,2.87c-.75,0-1.08-.77-1.08-1.78s.33-1.77,1.08-1.77c.66,0,1.02.66,1.02,1.77s-.36,1.78-1.02,1.78m.98-4.03v.6c-.21-.42-.61-.68-1.05-.68-1.04,0-1.59,1-1.59,2.33s.56,2.34,1.59,2.34c.46,0,.86-.28,1.06-.71v.68c0,.76-.3,1.14-.95,1.14-.44,0-.87-.23-.95-.71h-.58c.04.53.4.93.85,1.12.23.1.45.14.68.14.98,0,1.54-.65,1.54-1.69v-4.56h-.59Zm-5.85,4.04c-.5,0-.83-.27-.83-.74,0-.68.8-.96,1.7-.96h.36v.25c0,.82-.48,1.45-1.23,1.45m.41-4.13c-.77,0-1.41.49-1.51,1.35h.59c.04-.51.45-.79.92-.79.51,0,.81.33.81,1.03v.31h-.31c-1.31,0-2.33.44-2.33,1.51,0,.78.59,1.28,1.38,1.28.48,0,1.04-.28,1.25-.75l.02.66h.57v-3.01c0-1.01-.52-1.58-1.38-1.58m-5.04,4.12c-.66,0-1.02-.67-1.02-1.78s.36-1.77,1.02-1.77c.75,0,1.08.77,1.08,1.77s-.33,1.78-1.08,1.78m.07-4.11c-.44,0-.85.26-1.05.68v-2.4h-.58v6.3h.56v-.63c.21.43.61.72,1.08.72,1.03,0,1.59-1.01,1.59-2.34s-.56-2.33-1.59-2.33m-9.45,4.11c-.75,0-1.13-.79-1.13-1.77s.38-1.76,1.13-1.76c.5,0,.81.36.89.96h.59c-.11-.95-.66-1.52-1.48-1.52-.72,0-1.25.44-1.51,1.15-.13.35-.2.75-.2,1.17h0c0,.86.27,1.6.78,2.02.26.21.57.31.93.31.82,0,1.38-.57,1.48-1.52h-.59c-.08.6-.39.96-.89.96m-3.38-.1h-1.19v-3.94h-1.57v.56h.98v3.38h-1.21v.56h2.98v-.56Zm-1.55-4.63c.25,0,.45-.21.45-.46s-.2-.45-.45-.45-.45.21-.45.45.2.46.45.46m-3.31,4.42c-.23.12-.58.22-.78.22-.42,0-.62-.17-.62-.65v-2.75h1.35v-.54h-1.35v-1.5h-.57v1.5h-1.08v.54h1.08v2.75c0,.75.42,1.2,1.15,1.2.25,0,.68-.08.94-.22l-.12-.56Zm-4.64-2.57c-.14-.8-.74-1.25-1.49-1.25-.79,0-1.43.47-1.43,1.16,0,.46.29.83.85,1.11l1.04.52c.32.17.52.32.52.68,0,.4-.42.66-.94.66s-.95-.26-1.1-.83h-.59c.17.85.86,1.38,1.69,1.38.53,0,1.03-.21,1.31-.57.13-.18.21-.39.21-.63,0-.58-.3-.93-.82-1.18l-1.05-.52c-.4-.19-.57-.34-.57-.62,0-.37.4-.6.86-.6.44,0,.78.22.9.69h.59Zm-6.5,2.88c-.5,0-.83-.27-.83-.74,0-.68.8-.96,1.7-.96h.36v.25c0,.82-.48,1.45-1.23,1.45m.41-4.13c-.77,0-1.41.49-1.51,1.35h.59c.04-.51.45-.79.92-.79.51,0,.81.33.81,1.03v.31h-.31c-1.31,0-2.33.44-2.33,1.51,0,.78.59,1.28,1.38,1.28.48,0,1.04-.28,1.25-.75l.02.66h.57v-3.01c0-1.01-.52-1.58-1.38-1.58m-3.45,4.03h-1.23v-5.75s-1.57,0-1.57,0v.56h.98v5.19h-1.25v.56h3.07v-.56Zm-6.36.08c-.66,0-1.02-.66-1.02-1.77s.36-1.78,1.02-1.78c.75,0,1.08.77,1.08,1.78s-.33,1.77-1.08,1.77m.07-4.11c-.47,0-.86.29-1.07.72v-.63h-.57v6.3h.58v-2.4c.21.42.61.68,1.05.68,1.03,0,1.59-1,1.59-2.33s-.56-2.34-1.59-2.34m-8.36,1.45c0,1.63-.41,2.66-1.21,2.66s-1.21-.97-1.21-2.66.4-2.64,1.21-2.64,1.21.98,1.21,2.64m.6,0c0-2.02-.59-3.24-1.82-3.24s-1.79,1.21-1.79,3.24.57,3.24,1.79,3.24c1.22,0,1.82-1.22,1.82-3.24m-5.37,0c0,1.63-.41,2.66-1.21,2.66s-1.21-.97-1.21-2.66.4-2.64,1.21-2.64,1.21.98,1.21,2.64m.6,0c0-2.02-.59-3.24-1.82-3.24s-1.79,1.21-1.79,3.24.57,3.24,1.79,3.24c1.22,0,1.82-1.22,1.82-3.24m-5.37,0c0,1.63-.41,2.66-1.22,2.66s-1.21-.97-1.21-2.66.41-2.64,1.21-2.64,1.22.98,1.22,2.64m.6,0c0-2.02-.59-3.24-1.82-3.24s-1.79,1.21-1.79,3.24.58,3.24,1.79,3.24c1.22,0,1.82-1.22,1.82-3.24m-5.89,1.19h-1.93l1.93-3.26v3.26Zm1.3.56v-.56h-.72v-4.36h-.58l-2.58,4.36v.56h2.58v1.4h.58v-1.4h.72Zm-11.62.93c-.75,0-1.08-.77-1.08-1.78s.33-1.77,1.08-1.77c.66,0,1.02.66,1.02,1.77s-.36,1.78-1.02,1.78m.98-4.03v.6c-.21-.42-.61-.68-1.05-.68-1.04,0-1.59,1-1.59,2.33s.56,2.34,1.59,2.34c.46,0,.86-.28,1.06-.71v.68c0,.76-.3,1.14-.95,1.14-.44,0-.86-.23-.95-.71h-.58c.04.53.39.93.84,1.12.23.1.45.14.69.14.98,0,1.54-.65,1.54-1.69v-4.56h-.59Zm-5.37-.09c-.54,0-1.01.26-1.27.74v-.65s-.59,0-.59,0v4.5h.58v-2.45c0-.97.41-1.58,1.2-1.58.55,0,.78.39.78,1.01v3.02h.58v-3.02c0-.93-.46-1.57-1.29-1.57m-3.56,4.02h-1.19v-3.94h-1.56v.56h.98v3.38h-1.21v.56h2.98v-.56Zm-1.55-4.63c.25,0,.45-.21.45-.46s-.2-.45-.45-.45-.45.21-.45.45.2.46.45.46m-4.61,4.73c-.75,0-1.13-.79-1.13-1.77s.38-1.76,1.13-1.76c.5,0,.81.36.89.96h.59c-.11-.95-.67-1.52-1.48-1.52-.72,0-1.25.44-1.51,1.15-.14.35-.2.75-.2,1.17h0c0,.86.27,1.6.78,2.02.26.21.57.31.93.31.82,0,1.38-.57,1.48-1.52h-.59c-.08.6-.39.96-.89.96m-3.89-1.58c0,.97-.41,1.58-1.2,1.58-.54,0-.78-.39-.78-1.01v-3.02h-.58v3.02c0,.93.46,1.56,1.3,1.56.54,0,1.01-.26,1.27-.74v.65s.59,0,.59,0v-4.5h-.58v2.45Zm-5.71,1.58c-.75,0-1.08-.77-1.08-1.78s.33-1.77,1.08-1.77c.66,0,1.02.66,1.02,1.77s-.36,1.78-1.02,1.78m.98-3.43c-.21-.42-.61-.68-1.05-.68-1.04,0-1.59,1-1.59,2.33s.56,2.34,1.59,2.34c.47,0,.86-.29,1.07-.72v.63h.57v-6.3h-.58v2.4Zm-5.8,3.43c.75,0,1.02-.78,1.02-1.78s-.27-1.78-1.02-1.78-1.04.81-1.04,1.78.28,1.78,1.04,1.78m0-4.12c.75,0,1.23.49,1.46,1.2.11.35.16.74.16,1.14,0,1.32-.51,2.34-1.62,2.34s-1.62-1.02-1.62-2.34.53-2.34,1.62-2.34m-4.25,0c-.46,0-.88.23-1.14.73v-.64h-.58v4.5h.58v-2.45c0-.9.4-1.58,1.04-1.58.44,0,.67.29.71.86h.58c-.05-.89-.5-1.42-1.19-1.42m-5.35,4.11c-.66,0-1.02-.66-1.02-1.77s.36-1.78,1.02-1.78c.75,0,1.08.77,1.08,1.78s-.33,1.77-1.08,1.77m.07-4.11c-.47,0-.86.29-1.07.72v-.63h-.57v6.3h.58v-2.4c.21.42.61.68,1.05.68,1.04,0,1.59-1,1.59-2.33s-.56-2.34-1.59-2.34m-8.03,1.25c-.14-.8-.74-1.25-1.49-1.25-.79,0-1.43.47-1.43,1.16,0,.46.29.83.85,1.11l1.04.52c.32.17.52.32.52.68,0,.4-.42.66-.94.66s-.95-.26-1.1-.83h-.59c.17.85.86,1.38,1.69,1.38.53,0,1.03-.21,1.31-.57.13-.18.21-.39.21-.63,0-.58-.31-.93-.82-1.18l-1.04-.52c-.41-.19-.57-.34-.57-.62,0-.37.4-.6.87-.6.44,0,.78.22.9.69h.59Zm-6.5,2.88c-.49,0-.83-.27-.83-.74,0-.68.8-.96,1.7-.96h.36v.25c0,.82-.48,1.45-1.23,1.45m.41-4.13c-.76,0-1.41.49-1.51,1.35h.59c.04-.51.45-.79.92-.79.51,0,.81.33.81,1.03v.31h-.31c-1.31,0-2.33.44-2.33,1.51,0,.78.59,1.28,1.38,1.28.48,0,1.04-.28,1.25-.75l.02.66h.57v-3.01c0-1.01-.52-1.58-1.39-1.58m-11.48.09l1.48,4.45-.54,1.62h.6l1.95-6.07h-.61l-1.12,3.65-1.15-3.65h-.61Zm-3.14,4.03c-.75,0-1.08-.77-1.08-1.78s.33-1.77,1.08-1.77c.66,0,1.02.66,1.02,1.77s-.36,1.78-1.02,1.78m.98-4.03v.6c-.21-.42-.61-.68-1.05-.68-1.04,0-1.59,1-1.59,2.33s.56,2.34,1.59,2.34c.46,0,.86-.28,1.06-.71v.68c0,.76-.3,1.14-.96,1.14-.44,0-.86-.23-.95-.71h-.58c.04.53.4.93.85,1.12.22.1.45.14.68.14.98,0,1.54-.65,1.54-1.69v-4.56h-.59Zm-5.13-.09c-.46,0-.88.23-1.13.73v-.64h-.58v4.5h.57v-2.45c0-.9.4-1.58,1.04-1.58.44,0,.67.29.71.86h.58c-.04-.89-.5-1.42-1.19-1.42m-5.26.56c.62,0,.96.59,1.03,1.38h-2.13c.1-.79.46-1.38,1.11-1.38m0-.56c-.75,0-1.27.48-1.52,1.19-.13.35-.19.74-.19,1.15,0,.83.24,1.59.75,2.02.26.22.58.32.95.32.83,0,1.42-.59,1.56-1.48h-.59c-.13.62-.45.93-.96.93-.72,0-1.09-.74-1.13-1.63h2.76c.03-1.38-.49-2.49-1.64-2.49m-4.53,0c-.54,0-1.01.26-1.27.74v-.65s-.59,0-.59,0v4.5h.58v-2.45c0-.97.41-1.58,1.2-1.58.55,0,.78.39.78,1.01v3.02h.58v-3.02c0-.93-.46-1.57-1.3-1.57m-5.01.56c.62,0,.96.59,1.03,1.38h-2.13c.1-.79.46-1.38,1.11-1.38m0-.56c-.75,0-1.27.48-1.52,1.19-.13.35-.19.74-.19,1.15,0,.83.24,1.59.76,2.02.26.22.58.32.95.32.83,0,1.42-.59,1.56-1.48h-.59c-.14.62-.45.93-.96.93-.72,0-1.09-.74-1.13-1.63h2.76c.03-1.38-.49-2.49-1.64-2.49" style="fill:#0d0d0b;"/><path d="m214.6,116.24c-.14-.8-.74-1.25-1.49-1.25-.79,0-1.43.47-1.43,1.16,0,.46.29.83.85,1.11l1.04.52c.32.17.52.32.52.68,0,.4-.42.66-.94.66s-.95-.26-1.1-.83h-.59c.17.85.86,1.38,1.69,1.38.53,0,1.03-.21,1.3-.57.13-.18.21-.39.21-.63,0-.58-.31-.93-.82-1.18l-1.04-.52c-.4-.19-.57-.34-.57-.62,0-.37.4-.6.87-.6.44,0,.78.22.9.69h.59Zm-6.4,2.87c-.75,0-1.08-.77-1.08-1.78s.33-1.77,1.08-1.77c.66,0,1.02.66,1.02,1.77s-.36,1.78-1.02,1.78Zm.98-4.03v.6c-.21-.42-.61-.68-1.05-.68-1.04,0-1.59,1-1.59,2.33s.56,2.34,1.59,2.34c.46,0,.86-.28,1.06-.71v.68c0,.76-.3,1.14-.95,1.14-.44,0-.87-.23-.95-.71h-.58c.04.53.4.93.85,1.12.23.1.45.14.68.14.98,0,1.54-.65,1.54-1.69v-4.56h-.59Zm-5.85,4.04c-.5,0-.83-.27-.83-.74,0-.68.8-.96,1.7-.96h.36v.25c0,.82-.48,1.45-1.23,1.45Zm.41-4.13c-.77,0-1.41.49-1.51,1.35h.59c.04-.51.45-.79.92-.79.51,0,.81.33.81,1.03v.31h-.31c-1.31,0-2.33.44-2.33,1.51,0,.78.59,1.28,1.38,1.28.48,0,1.04-.28,1.25-.75l.02.66h.57v-3.01c0-1.01-.52-1.58-1.38-1.58Zm-5.04,4.12c-.66,0-1.02-.67-1.02-1.78s.36-1.77,1.02-1.77c.75,0,1.08.77,1.08,1.77s-.33,1.78-1.08,1.78Zm.07-4.11c-.44,0-.85.26-1.05.68v-2.4h-.58v6.3h.56v-.63c.21.43.61.72,1.08.72,1.03,0,1.59-1.01,1.59-2.34s-.56-2.33-1.59-2.33Zm-9.45,4.11c-.75,0-1.13-.79-1.13-1.77s.38-1.76,1.13-1.76c.5,0,.81.36.89.96h.59c-.11-.95-.66-1.52-1.48-1.52-.72,0-1.25.44-1.51,1.15-.13.35-.2.75-.2,1.17h0c0,.86.27,1.6.78,2.02.26.21.57.31.93.31.82,0,1.38-.57,1.48-1.52h-.59c-.08.6-.39.96-.89.96Zm-3.38-.1h-1.19v-3.94h-1.57v.56h.98v3.38h-1.21v.56h2.98v-.56Zm-1.55-4.63c.25,0,.45-.21.45-.46s-.2-.45-.45-.45-.45.21-.45.45.2.46.45.46Zm-3.31,4.42c-.23.12-.58.22-.78.22-.42,0-.62-.17-.62-.65v-2.75h1.35v-.54h-1.35v-1.5h-.57v1.5h-1.08v.54h1.08v2.75c0,.75.42,1.2,1.15,1.2.25,0,.68-.08.94-.22l-.12-.56Zm-4.64-2.57c-.14-.8-.74-1.25-1.49-1.25-.79,0-1.43.47-1.43,1.16,0,.46.29.83.85,1.11l1.04.52c.32.17.52.32.52.68,0,.4-.42.66-.94.66s-.95-.26-1.1-.83h-.59c.17.85.86,1.38,1.69,1.38.53,0,1.03-.21,1.31-.57.13-.18.21-.39.21-.63,0-.58-.3-.93-.82-1.18l-1.05-.52c-.4-.19-.57-.34-.57-.62,0-.37.4-.6.86-.6.44,0,.78.22.9.69h.59Zm-6.5,2.88c-.5,0-.83-.27-.83-.74,0-.68.8-.96,1.7-.96h.36v.25c0,.82-.48,1.45-1.23,1.45Zm.41-4.13c-.77,0-1.41.49-1.51,1.35h.59c.04-.51.45-.79.92-.79.51,0,.81.33.81,1.03v.31h-.31c-1.31,0-2.33.44-2.33,1.51,0,.78.59,1.28,1.38,1.28.48,0,1.04-.28,1.25-.75l.02.66h.57v-3.01c0-1.01-.52-1.58-1.38-1.58Zm-3.45,4.03h-1.23v-5.75s-1.57,0-1.57,0v.56h.98v5.19h-1.25v.56h3.07v-.56Zm-6.36.08c-.66,0-1.02-.66-1.02-1.77s.36-1.78,1.02-1.78c.75,0,1.08.77,1.08,1.78s-.33,1.77-1.08,1.77Zm.07-4.11c-.47,0-.86.29-1.07.72v-.63h-.57v6.3h.58v-2.4c.21.42.61.68,1.05.68,1.03,0,1.59-1,1.59-2.33s-.56-2.34-1.59-2.34Zm-8.36,1.45c0,1.63-.41,2.66-1.21,2.66s-1.21-.97-1.21-2.66.4-2.64,1.21-2.64,1.21.98,1.21,2.64Zm.6,0c0-2.02-.59-3.24-1.82-3.24s-1.79,1.21-1.79,3.24.57,3.24,1.79,3.24c1.22,0,1.82-1.22,1.82-3.24Zm-5.37,0c0,1.63-.41,2.66-1.21,2.66s-1.21-.97-1.21-2.66.4-2.64,1.21-2.64,1.21.98,1.21,2.64Zm.6,0c0-2.02-.59-3.24-1.82-3.24s-1.79,1.21-1.79,3.24.57,3.24,1.79,3.24c1.22,0,1.82-1.22,1.82-3.24Zm-5.37,0c0,1.63-.41,2.66-1.22,2.66s-1.21-.97-1.21-2.66.41-2.64,1.21-2.64,1.22.98,1.22,2.64Zm.6,0c0-2.02-.59-3.24-1.82-3.24s-1.79,1.21-1.79,3.24.58,3.24,1.79,3.24c1.22,0,1.82-1.22,1.82-3.24Zm-5.89,1.19h-1.93l1.93-3.26v3.26Zm1.3.56v-.56h-.72v-4.36h-.58l-2.58,4.36v.56h2.58v1.4h.58v-1.4h.72Zm-11.62.93c-.75,0-1.08-.77-1.08-1.78s.33-1.77,1.08-1.77c.66,0,1.02.66,1.02,1.77s-.36,1.78-1.02,1.78Zm.98-4.03v.6c-.21-.42-.61-.68-1.05-.68-1.04,0-1.59,1-1.59,2.33s.56,2.34,1.59,2.34c.46,0,.86-.28,1.06-.71v.68c0,.76-.3,1.14-.95,1.14-.44,0-.86-.23-.95-.71h-.58c.04.53.39.93.84,1.12.23.1.45.14.69.14.98,0,1.54-.65,1.54-1.69v-4.56h-.59Zm-5.37-.09c-.54,0-1.01.26-1.27.74v-.65s-.59,0-.59,0v4.5h.58v-2.45c0-.97.41-1.58,1.2-1.58.55,0,.78.39.78,1.01v3.02h.58v-3.02c0-.93-.46-1.57-1.29-1.57Zm-3.56,4.02h-1.19v-3.94h-1.56v.56h.98v3.38h-1.21v.56h2.98v-.56Zm-1.55-4.63c.25,0,.45-.21.45-.46s-.2-.45-.45-.45-.45.21-.45.45.2.46.45.46Zm-4.61,4.73c-.75,0-1.13-.79-1.13-1.77s.38-1.76,1.13-1.76c.5,0,.81.36.89.96h.59c-.11-.95-.67-1.52-1.48-1.52-.72,0-1.25.44-1.51,1.15-.14.35-.2.75-.2,1.17h0c0,.86.27,1.6.78,2.02.26.21.57.31.93.31.82,0,1.38-.57,1.48-1.52h-.59c-.08.6-.39.96-.89.96Zm-3.89-1.58c0,.97-.41,1.58-1.2,1.58-.54,0-.78-.39-.78-1.01v-3.02h-.58v3.02c0,.93.46,1.56,1.3,1.56.54,0,1.01-.26,1.27-.74v.65s.59,0,.59,0v-4.5h-.58v2.45Zm-5.71,1.58c-.75,0-1.08-.77-1.08-1.78s.33-1.77,1.08-1.77c.66,0,1.02.66,1.02,1.77s-.36,1.78-1.02,1.78Zm.98-3.43c-.21-.42-.61-.68-1.05-.68-1.04,0-1.59,1-1.59,2.33s.56,2.34,1.59,2.34c.47,0,.86-.29,1.07-.72v.63h.57v-6.3h-.58v2.4Zm-5.8,3.43c.75,0,1.02-.78,1.02-1.78s-.27-1.78-1.02-1.78-1.04.81-1.04,1.78.28,1.78,1.04,1.78Zm0-4.12c.75,0,1.23.49,1.46,1.2.11.35.16.74.16,1.14,0,1.32-.51,2.34-1.62,2.34s-1.62-1.02-1.62-2.34.53-2.34,1.62-2.34Zm-4.25,0c-.46,0-.88.23-1.14.73v-.64h-.58v4.5h.58v-2.45c0-.9.4-1.58,1.04-1.58.44,0,.67.29.71.86h.58c-.05-.89-.5-1.42-1.19-1.42Zm-5.35,4.11c-.66,0-1.02-.66-1.02-1.77s.36-1.78,1.02-1.78c.75,0,1.08.77,1.08,1.78s-.33,1.77-1.08,1.77Zm.07-4.11c-.47,0-.86.29-1.07.72v-.63h-.57v6.3h.58v-2.4c.21.42.61.68,1.05.68,1.04,0,1.59-1,1.59-2.33s-.56-2.34-1.59-2.34Zm-8.03,1.25c-.14-.8-.74-1.25-1.49-1.25-.79,0-1.43.47-1.43,1.16,0,.46.29.83.85,1.11l1.04.52c.32.17.52.32.52.68,0,.4-.42.66-.94.66s-.95-.26-1.1-.83h-.59c.17.85.86,1.38,1.69,1.38.53,0,1.03-.21,1.31-.57.13-.18.21-.39.21-.63,0-.58-.31-.93-.82-1.18l-1.04-.52c-.41-.19-.57-.34-.57-.62,0-.37.4-.6.87-.6.44,0,.78.22.9.69h.59Zm-6.5,2.88c-.49,0-.83-.27-.83-.74,0-.68.8-.96,1.7-.96h.36v.25c0,.82-.48,1.45-1.23,1.45Zm.41-4.13c-.76,0-1.41.49-1.51,1.35h.59c.04-.51.45-.79.92-.79.51,0,.81.33.81,1.03v.31h-.31c-1.31,0-2.33.44-2.33,1.51,0,.78.59,1.28,1.38,1.28.48,0,1.04-.28,1.25-.75l.02.66h.57v-3.01c0-1.01-.52-1.58-1.39-1.58Zm-11.48.09l1.48,4.45-.54,1.62h.6l1.95-6.07h-.61l-1.12,3.65-1.15-3.65h-.61Zm-3.14,4.03c-.75,0-1.08-.77-1.08-1.78s.33-1.77,1.08-1.77c.66,0,1.02.66,1.02,1.77s-.36,1.78-1.02,1.78Zm.98-4.03v.6c-.21-.42-.61-.68-1.05-.68-1.04,0-1.59,1-1.59,2.33s.56,2.34,1.59,2.34c.46,0,.86-.28,1.06-.71v.68c0,.76-.3,1.14-.96,1.14-.44,0-.86-.23-.95-.71h-.58c.04.53.4.93.85,1.12.22.1.45.14.68.14.98,0,1.54-.65,1.54-1.69v-4.56h-.59Zm-5.13-.09c-.46,0-.88.23-1.13.73v-.64h-.58v4.5h.57v-2.45c0-.9.4-1.58,1.04-1.58.44,0,.67.29.71.86h.58c-.04-.89-.5-1.42-1.19-1.42Zm-5.26.56c.62,0,.96.59,1.03,1.38h-2.13c.1-.79.46-1.38,1.11-1.38Zm0-.56c-.75,0-1.27.48-1.52,1.19-.13.35-.19.74-.19,1.15,0,.83.24,1.59.75,2.02.26.22.58.32.95.32.83,0,1.42-.59,1.56-1.48h-.59c-.13.62-.45.93-.96.93-.72,0-1.09-.74-1.13-1.63h2.76c.03-1.38-.49-2.49-1.64-2.49Zm-4.53,0c-.54,0-1.01.26-1.27.74v-.65s-.59,0-.59,0v4.5h.58v-2.45c0-.97.41-1.58,1.2-1.58.55,0,.78.39.78,1.01v3.02h.58v-3.02c0-.93-.46-1.57-1.3-1.57Zm-5.01.56c.62,0,.96.59,1.03,1.38h-2.13c.1-.79.46-1.38,1.11-1.38Zm0-.56c-.75,0-1.27.48-1.52,1.19-.13.35-.19.74-.19,1.15,0,.83.24,1.59.76,2.02.26.22.58.32.95.32.83,0,1.42-.59,1.56-1.48h-.59c-.14.62-.45.93-.96.93-.72,0-1.09-.74-1.13-1.63h2.76c.03-1.38-.49-2.49-1.64-2.49Z" style="fill:none; stroke:#0d0d0b; stroke-width:.15px;"/><path d="m241.89,104.19c-.54,0-1.02.26-1.27.74v-.65s0-1.8,0-1.8h-.59v6.3h.58v-2.45c0-.97.41-1.58,1.2-1.58.55,0,.78.39.78,1.01v3.02h.58v-3.02c0-.93-.46-1.57-1.29-1.57m-4.87,4.12c-.75,0-1.13-.79-1.13-1.77s.38-1.76,1.13-1.76c.5,0,.81.36.89.96h.59c-.11-.94-.66-1.52-1.48-1.52-.72,0-1.25.44-1.51,1.15-.13.35-.2.75-.2,1.17h0c0,.86.27,1.6.78,2.02.26.21.57.31.93.31.82,0,1.38-.58,1.48-1.52h-.59c-.08.6-.39.96-.89.96m-3.89-1.58c0,.97-.41,1.58-1.2,1.58-.54,0-.78-.39-.78-1.01v-3.02h-.58v3.02c0,.93.46,1.57,1.29,1.57.54,0,1.01-.26,1.27-.74v.65s.59,0,.59,0v-4.5h-.58v2.45Zm-4.75-2.55c-.36,0-.66.25-.85.73-.07-.44-.29-.73-.69-.73-.33,0-.64.23-.79.7l-.04-.6h-.49l-.02,4.5h.57v-2.7c0-.69.16-1.34.63-1.34.17,0,.28.07.33.21.04.14.07.38.07.7v3.13h.57v-2.7c0-.79.09-1.34.59-1.34.33,0,.39.26.39.77v3.28h.57v-3.3c0-.75-.24-1.3-.85-1.3m-9.02,1.26c-.14-.8-.74-1.25-1.49-1.25s-1.43.47-1.43,1.16c0,.46.29.83.85,1.11l1.04.52c.32.17.52.32.52.67,0,.4-.42.66-.94.66s-.95-.26-1.1-.83h-.59c.17.85.86,1.39,1.69,1.39.53,0,1.03-.21,1.3-.57.14-.18.21-.39.21-.63,0-.58-.3-.93-.82-1.18l-1.04-.52c-.41-.19-.57-.34-.57-.62,0-.37.4-.6.86-.6.44,0,.78.22.9.69h.59Zm-6.5,2.88c-.5,0-.83-.27-.83-.74,0-.68.8-.96,1.7-.96h.36v.25c0,.82-.48,1.45-1.23,1.45m.41-4.13c-.77,0-1.41.49-1.51,1.35h.59c.05-.51.45-.79.92-.79.51,0,.81.33.81,1.03v.31h-.31c-1.31,0-2.33.44-2.33,1.51,0,.78.59,1.28,1.38,1.28.48,0,1.04-.28,1.25-.75l.02.66h.57v-3c0-1.01-.52-1.58-1.38-1.58m-8.23,1.25c-.14-.8-.74-1.25-1.49-1.25-.79,0-1.43.47-1.43,1.16,0,.46.29.83.85,1.11l1.04.52c.32.17.52.32.52.67,0,.4-.42.66-.94.66s-.95-.26-1.1-.83h-.59c.17.85.86,1.39,1.69,1.39.53,0,1.03-.21,1.3-.57.13-.18.21-.39.21-.63,0-.58-.31-.93-.82-1.18l-1.04-.52c-.4-.19-.57-.34-.57-.62,0-.37.4-.6.87-.6.44,0,.78.22.9.69h.59Zm-4.9,2.57c-.23.12-.58.22-.78.22-.42,0-.62-.17-.62-.65v-2.75h1.35v-.54h-1.35v-1.5h-.58v1.5h-1.08v.54h1.08v2.75c0,.75.42,1.2,1.15,1.2.25,0,.68-.08.95-.22l-.12-.56Zm-4.64-2.57c-.14-.8-.74-1.25-1.49-1.25-.79,0-1.43.47-1.43,1.16,0,.46.29.83.85,1.11l1.05.52c.32.17.52.32.52.67,0,.4-.42.66-.94.66s-.95-.26-1.1-.83h-.59c.17.85.86,1.39,1.69,1.39.53,0,1.03-.21,1.3-.57.13-.18.21-.39.21-.63,0-.58-.3-.93-.82-1.18l-1.04-.52c-.4-.19-.57-.34-.57-.62,0-.37.4-.6.87-.6.44,0,.78.22.9.69h.59Zm-6.29,2.87c.76,0,1.03-.78,1.03-1.78s-.27-1.78-1.03-1.78-1.04.81-1.04,1.78.28,1.78,1.04,1.78m0-4.12c.75,0,1.23.49,1.46,1.2.11.35.16.74.16,1.14,0,1.32-.51,2.34-1.62,2.34s-1.62-1.02-1.62-2.34.53-2.34,1.62-2.34m-4.66,4.12c-.75,0-1.13-.79-1.13-1.77s.38-1.76,1.13-1.76c.5,0,.81.36.89.96h.59c-.11-.94-.66-1.52-1.48-1.52-.72,0-1.25.44-1.51,1.15-.13.35-.2.75-.2,1.17h0c0,.86.27,1.6.78,2.02.26.21.57.31.93.31.82,0,1.38-.58,1.48-1.52h-.59c-.08.6-.39.96-.89.96m-8.12-2.87c-.14-.8-.74-1.25-1.49-1.25-.79,0-1.43.47-1.43,1.16,0,.46.29.83.85,1.11l1.04.52c.32.17.52.32.52.67,0,.4-.42.66-.94.66s-.95-.26-1.1-.83h-.59c.17.85.86,1.39,1.69,1.39.53,0,1.03-.21,1.3-.57.13-.18.21-.39.21-.63,0-.58-.31-.93-.82-1.18l-1.04-.52c-.4-.19-.57-.34-.57-.62,0-.37.4-.6.87-.6.44,0,.78.22.9.69h.59Zm-6.26-.69c.62,0,.96.58,1.03,1.38h-2.13c.1-.79.46-1.38,1.11-1.38m0-.56c-.75,0-1.27.48-1.52,1.19-.13.35-.19.74-.19,1.15,0,.83.24,1.59.76,2.02.26.22.58.32.96.32.83,0,1.42-.59,1.56-1.49h-.59c-.13.62-.45.93-.96.93-.72,0-1.09-.74-1.13-1.63h2.76c.03-1.38-.49-2.49-1.64-2.49m-4.6,0c-.54,0-1.02.26-1.27.74v-.65s0-1.8,0-1.8h-.59v6.3h.58v-2.45c0-.97.41-1.58,1.2-1.58.55,0,.78.39.78,1.01v3.02h.58v-3.02c0-.93-.46-1.57-1.29-1.57m-4.87,4.12c-.75,0-1.13-.79-1.13-1.77s.38-1.76,1.13-1.76c.5,0,.81.36.89.96h.59c-.11-.94-.67-1.52-1.48-1.52-.72,0-1.25.44-1.51,1.15-.14.35-.2.75-.2,1.17h0c0,.86.27,1.6.78,2.02.26.21.57.31.93.31.82,0,1.38-.58,1.48-1.52h-.59c-.08.6-.39.96-.89.96m-4.36-4.12c-.46,0-.88.23-1.13.73v-.64h-.58v4.5h.57v-2.45c0-.9.4-1.58,1.04-1.58.44,0,.67.29.71.86h.58c-.04-.89-.5-1.42-1.19-1.42m-5.49,4.13c-.5,0-.83-.27-.83-.74,0-.68.8-.96,1.7-.96h.36v.25c0,.82-.48,1.45-1.23,1.45m.41-4.13c-.77,0-1.41.49-1.51,1.35h.59c.04-.51.45-.79.92-.79.51,0,.81.33.81,1.03v.31h-.31c-1.31,0-2.33.44-2.33,1.51,0,.78.59,1.28,1.38,1.28.48,0,1.04-.28,1.25-.75l.02.66h.57v-3c0-1.01-.52-1.58-1.38-1.58m-4.95.56c.62,0,.96.58,1.03,1.38h-2.13c.1-.79.46-1.38,1.11-1.38m0-.56c-.75,0-1.27.48-1.52,1.19-.13.35-.19.74-.19,1.15,0,.83.24,1.59.76,2.02.26.22.58.32.95.32.83,0,1.42-.59,1.56-1.49h-.59c-.14.62-.45.93-.96.93-.72,0-1.09-.74-1.13-1.63h2.76c.03-1.38-.49-2.49-1.64-2.49m-3.28,1.25c-.14-.8-.74-1.25-1.49-1.25-.79,0-1.43.47-1.43,1.16,0,.46.29.83.85,1.11l1.05.52c.32.17.52.32.52.67,0,.4-.42.66-.94.66s-.95-.26-1.1-.83h-.59c.17.85.86,1.39,1.69,1.39.53,0,1.03-.21,1.3-.57.13-.18.21-.39.21-.63,0-.58-.31-.93-.82-1.18l-1.04-.52c-.4-.19-.57-.34-.57-.62,0-.37.4-.6.87-.6.44,0,.78.22.9.69h.59Zm-11.03-.69c.62,0,.96.58,1.03,1.38h-2.13c.1-.79.46-1.38,1.11-1.38m0-.56c-.75,0-1.27.48-1.52,1.19-.13.35-.19.74-.19,1.15,0,.83.24,1.59.76,2.02.26.22.58.32.96.32.83,0,1.42-.59,1.56-1.49h-.59c-.13.62-.45.93-.96.93-.72,0-1.09-.74-1.13-1.63h2.76c.03-1.38-.49-2.49-1.64-2.49m-3.27,4.03h-1.23v-5.75s-1.57,0-1.57,0v.56h.98v5.19h-1.25v.56h3.07v-.56Zm-6.41.09c-.75,0-1.08-.77-1.08-1.78s.33-1.77,1.08-1.77c.66,0,1.02.66,1.02,1.77s-.36,1.78-1.02,1.78m.98-4.03v.6c-.21-.42-.61-.68-1.05-.68-1.04,0-1.59,1-1.59,2.33s.56,2.34,1.59,2.34c.46,0,.85-.28,1.06-.71v.68c0,.76-.3,1.14-.95,1.14-.44,0-.87-.23-.95-.71h-.58c.05.53.4.93.85,1.12.23.1.45.14.69.14.98,0,1.54-.65,1.54-1.69v-4.56h-.59Zm-5.64,4.03c.76,0,1.03-.78,1.03-1.78s-.27-1.78-1.03-1.78-1.04.81-1.04,1.78.28,1.78,1.04,1.78m0-4.12c.75,0,1.23.49,1.46,1.2.11.35.16.74.16,1.14,0,1.32-.51,2.34-1.62,2.34s-1.62-1.02-1.62-2.34.53-2.34,1.62-2.34m-4.76,4.12c.75,0,1.03-.78,1.03-1.78s-.27-1.78-1.03-1.78-1.04.81-1.04,1.78.28,1.78,1.04,1.78m0-4.12c.75,0,1.23.49,1.46,1.2.11.35.16.74.16,1.14,0,1.32-.51,2.34-1.62,2.34s-1.62-1.02-1.62-2.34.53-2.34,1.62-2.34m-2.91,1.31h-1.97v.56h1.41v.47c0,1.13-.44,1.78-1.23,1.78-1.04,0-1.37-1.22-1.37-2.68s.4-2.68,1.43-2.68c.68,0,1.01.46,1.12,1.26h.59c-.11-1.15-.71-1.82-1.71-1.82-1.4,0-2.01,1.43-2.01,3.24s.56,3.24,1.95,3.24c.56,0,.97-.25,1.23-.76l.07.67h.51l-.03-3.27Zm-9.78-2.86c-.28-.14-.72-.22-1-.22-.76,0-1.21.46-1.21,1.2v.65h-1.14v.56h1.14v3.94h.58v-3.94h1.44v-.56h-1.44v-.65c0-.48.22-.65.67-.65.22,0,.58.1.83.22l.13-.56Zm-6.38,5.67c.75,0,1.03-.78,1.03-1.78s-.27-1.78-1.03-1.78-1.04.81-1.04,1.78.28,1.78,1.04,1.78m0-4.12c.75,0,1.23.49,1.46,1.2.11.35.16.74.16,1.14,0,1.32-.51,2.34-1.62,2.34s-1.62-1.02-1.62-2.34.53-2.34,1.62-2.34m-9.33,0c-.54,0-1.02.26-1.27.74v-.65s0-1.8,0-1.8h-.59v6.3h.58v-2.45c0-.97.42-1.58,1.2-1.58.55,0,.78.39.78,1.01v3.02h.58v-3.02c0-.93-.46-1.57-1.29-1.57m-3.57,3.82c-.22.12-.58.22-.78.22-.42,0-.62-.17-.62-.65v-2.75h1.35v-.54h-1.35v-1.5h-.57v1.5h-1.08v.54h1.08v2.75c0,.75.42,1.2,1.15,1.2.25,0,.68-.08.94-.22l-.12-.56Zm-5.65-3.82c-.46,0-.88.23-1.14.73v-.64h-.58v4.5h.58v-2.45c0-.9.4-1.58,1.04-1.58.44,0,.67.29.71.86h.58c-.05-.89-.5-1.42-1.19-1.42m-5.28,4.12c.75,0,1.02-.78,1.02-1.78s-.27-1.78-1.02-1.78-1.04.81-1.04,1.78.28,1.78,1.04,1.78m0-4.12c.75,0,1.23.49,1.46,1.2.11.35.16.74.16,1.14,0,1.32-.51,2.34-1.62,2.34s-1.62-1.02-1.62-2.34.53-2.34,1.62-2.34m-5.04,1.37l-.64,2.24-.49-3.52h-.59l.75,4.5h.58l.67-2.36.67,2.36h.58l.75-4.5h-.58l-.5,3.52-.64-2.24h-.56Zm-9.23-.81c.62,0,.96.58,1.03,1.38h-2.13c.1-.79.46-1.38,1.11-1.38m0-.56c-.75,0-1.27.48-1.52,1.19-.13.35-.19.74-.19,1.15,0,.83.24,1.59.76,2.02.26.22.58.32.95.32.83,0,1.42-.59,1.56-1.49h-.59c-.14.62-.45.93-.96.93-.72,0-1.09-.74-1.13-1.63h2.76c.03-1.38-.49-2.49-1.64-2.49m-3.4,3.82c-.22.12-.58.22-.78.22-.42,0-.62-.17-.62-.65v-2.75h1.35v-.54h-1.35v-1.5h-.58v1.5h-1.08v.54h1.08v2.75c0,.75.42,1.2,1.15,1.2.25,0,.68-.08.94-.22l-.12-.56Zm-5.18-1.28c0,.97-.41,1.58-1.2,1.58-.54,0-.78-.39-.78-1.01v-3.02h-.58v3.02c0,.93.46,1.57,1.3,1.57.54,0,1.01-.26,1.27-.74v.65s.59,0,.59,0v-4.5h-.58v2.45Zm-5.48-2.54c-.54,0-1.01.26-1.27.74v-.65s-.59,0-.59,0v4.5h.58v-2.45c0-.97.42-1.58,1.2-1.58.55,0,.78.39.78,1.01v3.02h.58v-3.02c0-.93-.46-1.57-1.29-1.57m-3.56,4.02h-1.19v-3.94h-1.56v.56h.98v3.39h-1.21v.56h2.98v-.56Zm-1.55-4.63c.25,0,.45-.21.45-.46s-.2-.45-.45-.45-.45.21-.45.45.2.46.45.46m-3.71.59c-.36,0-.66.25-.85.73-.07-.44-.29-.73-.69-.73-.33,0-.64.23-.79.7l-.04-.6h-.48l-.02,4.5h.57v-2.7c0-.69.16-1.34.63-1.34.17,0,.28.07.33.21.05.14.07.38.07.7v3.13h.57v-2.7c0-.79.09-1.34.59-1.34.33,0,.39.26.39.77v3.28h.57v-3.3c0-.75-.24-1.3-.85-1.3m-10.51.57c.62,0,.96.58,1.03,1.38h-2.14c.1-.79.46-1.38,1.11-1.38m0-.56c-.75,0-1.27.48-1.52,1.19-.13.35-.19.74-.19,1.15,0,.83.24,1.59.75,2.02.26.22.58.32.95.32.83,0,1.42-.59,1.56-1.49h-.59c-.14.62-.45.93-.96.93-.72,0-1.09-.74-1.13-1.63h2.76c.03-1.38-.49-2.49-1.64-2.49m-4.53,0c-.54,0-1.01.26-1.27.74v-.65s-.59,0-.59,0v4.5h.58v-2.45c0-.97.41-1.58,1.2-1.58.55,0,.78.39.78,1.01v3.02h.58v-3.02c0-.93-.46-1.57-1.3-1.57m-5.04,4.12c.76,0,1.02-.78,1.02-1.78s-.27-1.78-1.02-1.78-1.04.81-1.04,1.78.28,1.78,1.04,1.78m0-4.12c.75,0,1.23.49,1.46,1.2.11.35.16.74.16,1.14,0,1.32-.51,2.34-1.62,2.34s-1.62-1.02-1.62-2.34.53-2.34,1.62-2.34" style="fill:#0d0d0b;"/><path d="m241.89,104.19c-.54,0-1.02.26-1.27.74v-.65s0-1.8,0-1.8h-.59v6.3h.58v-2.45c0-.97.41-1.58,1.2-1.58.55,0,.78.39.78,1.01v3.02h.58v-3.02c0-.93-.46-1.57-1.29-1.57Zm-4.87,4.12c-.75,0-1.13-.79-1.13-1.77s.38-1.76,1.13-1.76c.5,0,.81.36.89.96h.59c-.11-.94-.66-1.52-1.48-1.52-.72,0-1.25.44-1.51,1.15-.13.35-.2.75-.2,1.17h0c0,.86.27,1.6.78,2.02.26.21.57.31.93.31.82,0,1.38-.58,1.48-1.52h-.59c-.08.6-.39.96-.89.96Zm-3.89-1.58c0,.97-.41,1.58-1.2,1.58-.54,0-.78-.39-.78-1.01v-3.02h-.58v3.02c0,.93.46,1.57,1.29,1.57.54,0,1.01-.26,1.27-.74v.65s.59,0,.59,0v-4.5h-.58v2.45Zm-4.75-2.55c-.36,0-.66.25-.85.73-.07-.44-.29-.73-.69-.73-.33,0-.64.23-.79.7l-.04-.6h-.49l-.02,4.5h.57v-2.7c0-.69.16-1.34.63-1.34.17,0,.28.07.33.21.04.14.07.38.07.7v3.13h.57v-2.7c0-.79.09-1.34.59-1.34.33,0,.39.26.39.77v3.28h.57v-3.3c0-.75-.24-1.3-.85-1.3Zm-9.02,1.26c-.14-.8-.74-1.25-1.49-1.25s-1.43.47-1.43,1.16c0,.46.29.83.85,1.11l1.04.52c.32.17.52.32.52.67,0,.4-.42.66-.94.66s-.95-.26-1.1-.83h-.59c.17.85.86,1.39,1.69,1.39.53,0,1.03-.21,1.3-.57.14-.18.21-.39.21-.63,0-.58-.3-.93-.82-1.18l-1.04-.52c-.41-.19-.57-.34-.57-.62,0-.37.4-.6.86-.6.44,0,.78.22.9.69h.59Zm-6.5,2.88c-.5,0-.83-.27-.83-.74,0-.68.8-.96,1.7-.96h.36v.25c0,.82-.48,1.45-1.23,1.45Zm.41-4.13c-.77,0-1.41.49-1.51,1.35h.59c.05-.51.45-.79.92-.79.51,0,.81.33.81,1.03v.31h-.31c-1.31,0-2.33.44-2.33,1.51,0,.78.59,1.28,1.38,1.28.48,0,1.04-.28,1.25-.75l.02.66h.57v-3c0-1.01-.52-1.58-1.38-1.58Zm-8.23,1.25c-.14-.8-.74-1.25-1.49-1.25-.79,0-1.43.47-1.43,1.16,0,.46.29.83.85,1.11l1.04.52c.32.17.52.32.52.67,0,.4-.42.66-.94.66s-.95-.26-1.1-.83h-.59c.17.85.86,1.39,1.69,1.39.53,0,1.03-.21,1.3-.57.13-.18.21-.39.21-.63,0-.58-.31-.93-.82-1.18l-1.04-.52c-.4-.19-.57-.34-.57-.62,0-.37.4-.6.87-.6.44,0,.78.22.9.69h.59Zm-4.9,2.57c-.23.12-.58.22-.78.22-.42,0-.62-.17-.62-.65v-2.75h1.35v-.54h-1.35v-1.5h-.58v1.5h-1.08v.54h1.08v2.75c0,.75.42,1.2,1.15,1.2.25,0,.68-.08.95-.22l-.12-.56Zm-4.64-2.57c-.14-.8-.74-1.25-1.49-1.25-.79,0-1.43.47-1.43,1.16,0,.46.29.83.85,1.11l1.05.52c.32.17.52.32.52.67,0,.4-.42.66-.94.66s-.95-.26-1.1-.83h-.59c.17.85.86,1.39,1.69,1.39.53,0,1.03-.21,1.3-.57.13-.18.21-.39.21-.63,0-.58-.3-.93-.82-1.18l-1.04-.52c-.4-.19-.57-.34-.57-.62,0-.37.4-.6.87-.6.44,0,.78.22.9.69h.59Zm-6.29,2.87c.76,0,1.03-.78,1.03-1.78s-.27-1.78-1.03-1.78-1.04.81-1.04,1.78.28,1.78,1.04,1.78Zm0-4.12c.75,0,1.23.49,1.46,1.2.11.35.16.74.16,1.14,0,1.32-.51,2.34-1.62,2.34s-1.62-1.02-1.62-2.34.53-2.34,1.62-2.34Zm-4.66,4.12c-.75,0-1.13-.79-1.13-1.77s.38-1.76,1.13-1.76c.5,0,.81.36.89.96h.59c-.11-.94-.66-1.52-1.48-1.52-.72,0-1.25.44-1.51,1.15-.13.35-.2.75-.2,1.17h0c0,.86.27,1.6.78,2.02.26.21.57.31.93.31.82,0,1.38-.58,1.48-1.52h-.59c-.08.6-.39.96-.89.96Zm-8.12-2.87c-.14-.8-.74-1.25-1.49-1.25-.79,0-1.43.47-1.43,1.16,0,.46.29.83.85,1.11l1.04.52c.32.17.52.32.52.67,0,.4-.42.66-.94.66s-.95-.26-1.1-.83h-.59c.17.85.86,1.39,1.69,1.39.53,0,1.03-.21,1.3-.57.13-.18.21-.39.21-.63,0-.58-.31-.93-.82-1.18l-1.04-.52c-.4-.19-.57-.34-.57-.62,0-.37.4-.6.87-.6.44,0,.78.22.9.69h.59Zm-6.26-.69c.62,0,.96.58,1.03,1.38h-2.13c.1-.79.46-1.38,1.11-1.38Zm0-.56c-.75,0-1.27.48-1.52,1.19-.13.35-.19.74-.19,1.15,0,.83.24,1.59.76,2.02.26.22.58.32.96.32.83,0,1.42-.59,1.56-1.49h-.59c-.13.62-.45.93-.96.93-.72,0-1.09-.74-1.13-1.63h2.76c.03-1.38-.49-2.49-1.64-2.49Zm-4.6,0c-.54,0-1.02.26-1.27.74v-.65s0-1.8,0-1.8h-.59v6.3h.58v-2.45c0-.97.41-1.58,1.2-1.58.55,0,.78.39.78,1.01v3.02h.58v-3.02c0-.93-.46-1.57-1.29-1.57Zm-4.87,4.12c-.75,0-1.13-.79-1.13-1.77s.38-1.76,1.13-1.76c.5,0,.81.36.89.96h.59c-.11-.94-.67-1.52-1.48-1.52-.72,0-1.25.44-1.51,1.15-.14.35-.2.75-.2,1.17h0c0,.86.27,1.6.78,2.02.26.21.57.31.93.31.82,0,1.38-.58,1.48-1.52h-.59c-.08.6-.39.96-.89.96Zm-4.36-4.12c-.46,0-.88.23-1.13.73v-.64h-.58v4.5h.57v-2.45c0-.9.4-1.58,1.04-1.58.44,0,.67.29.71.86h.58c-.04-.89-.5-1.42-1.19-1.42Zm-5.49,4.13c-.5,0-.83-.27-.83-.74,0-.68.8-.96,1.7-.96h.36v.25c0,.82-.48,1.45-1.23,1.45Zm.41-4.13c-.77,0-1.41.49-1.51,1.35h.59c.04-.51.45-.79.92-.79.51,0,.81.33.81,1.03v.31h-.31c-1.31,0-2.33.44-2.33,1.51,0,.78.59,1.28,1.38,1.28.48,0,1.04-.28,1.25-.75l.02.66h.57v-3c0-1.01-.52-1.58-1.38-1.58Zm-4.95.56c.62,0,.96.58,1.03,1.38h-2.13c.1-.79.46-1.38,1.11-1.38Zm0-.56c-.75,0-1.27.48-1.52,1.19-.13.35-.19.74-.19,1.15,0,.83.24,1.59.76,2.02.26.22.58.32.95.32.83,0,1.42-.59,1.56-1.49h-.59c-.14.62-.45.93-.96.93-.72,0-1.09-.74-1.13-1.63h2.76c.03-1.38-.49-2.49-1.64-2.49Zm-3.28,1.25c-.14-.8-.74-1.25-1.49-1.25-.79,0-1.43.47-1.43,1.16,0,.46.29.83.85,1.11l1.05.52c.32.17.52.32.52.67,0,.4-.42.66-.94.66s-.95-.26-1.1-.83h-.59c.17.85.86,1.39,1.69,1.39.53,0,1.03-.21,1.3-.57.13-.18.21-.39.21-.63,0-.58-.31-.93-.82-1.18l-1.04-.52c-.4-.19-.57-.34-.57-.62,0-.37.4-.6.87-.6.44,0,.78.22.9.69h.59Zm-11.03-.69c.62,0,.96.58,1.03,1.38h-2.13c.1-.79.46-1.38,1.11-1.38Zm0-.56c-.75,0-1.27.48-1.52,1.19-.13.35-.19.74-.19,1.15,0,.83.24,1.59.76,2.02.26.22.58.32.96.32.83,0,1.42-.59,1.56-1.49h-.59c-.13.62-.45.93-.96.93-.72,0-1.09-.74-1.13-1.63h2.76c.03-1.38-.49-2.49-1.64-2.49Zm-3.27,4.03h-1.23v-5.75s-1.57,0-1.57,0v.56h.98v5.19h-1.25v.56h3.07v-.56Zm-6.41.09c-.75,0-1.08-.77-1.08-1.78s.33-1.77,1.08-1.77c.66,0,1.02.66,1.02,1.77s-.36,1.78-1.02,1.78Zm.98-4.03v.6c-.21-.42-.61-.68-1.05-.68-1.04,0-1.59,1-1.59,2.33s.56,2.34,1.59,2.34c.46,0,.85-.28,1.06-.71v.68c0,.76-.3,1.14-.95,1.14-.44,0-.87-.23-.95-.71h-.58c.05.53.4.93.85,1.12.23.1.45.14.69.14.98,0,1.54-.65,1.54-1.69v-4.56h-.59Zm-5.64,4.03c.76,0,1.03-.78,1.03-1.78s-.27-1.78-1.03-1.78-1.04.81-1.04,1.78.28,1.78,1.04,1.78Zm0-4.12c.75,0,1.23.49,1.46,1.2.11.35.16.74.16,1.14,0,1.32-.51,2.34-1.62,2.34s-1.62-1.02-1.62-2.34.53-2.34,1.62-2.34Zm-4.76,4.12c.75,0,1.03-.78,1.03-1.78s-.27-1.78-1.03-1.78-1.04.81-1.04,1.78.28,1.78,1.04,1.78Zm0-4.12c.75,0,1.23.49,1.46,1.2.11.35.16.74.16,1.14,0,1.32-.51,2.34-1.62,2.34s-1.62-1.02-1.62-2.34.53-2.34,1.62-2.34Zm-2.91,1.31h-1.97v.56h1.41v.47c0,1.13-.44,1.78-1.23,1.78-1.04,0-1.37-1.22-1.37-2.68s.4-2.68,1.43-2.68c.68,0,1.01.46,1.12,1.26h.59c-.11-1.15-.71-1.82-1.71-1.82-1.4,0-2.01,1.43-2.01,3.24s.56,3.24,1.95,3.24c.56,0,.97-.25,1.23-.76l.07.67h.51l-.03-3.27Zm-9.78-2.86c-.28-.14-.72-.22-1-.22-.76,0-1.21.46-1.21,1.2v.65h-1.14v.56h1.14v3.94h.58v-3.94h1.44v-.56h-1.44v-.65c0-.48.22-.65.67-.65.22,0,.58.1.83.22l.13-.56Zm-6.38,5.67c.75,0,1.03-.78,1.03-1.78s-.27-1.78-1.03-1.78-1.04.81-1.04,1.78.28,1.78,1.04,1.78Zm0-4.12c.75,0,1.23.49,1.46,1.2.11.35.16.74.16,1.14,0,1.32-.51,2.34-1.62,2.34s-1.62-1.02-1.62-2.34.53-2.34,1.62-2.34Zm-9.33,0c-.54,0-1.02.26-1.27.74v-.65s0-1.8,0-1.8h-.59v6.3h.58v-2.45c0-.97.42-1.58,1.2-1.58.55,0,.78.39.78,1.01v3.02h.58v-3.02c0-.93-.46-1.57-1.29-1.57Zm-3.57,3.82c-.22.12-.58.22-.78.22-.42,0-.62-.17-.62-.65v-2.75h1.35v-.54h-1.35v-1.5h-.57v1.5h-1.08v.54h1.08v2.75c0,.75.42,1.2,1.15,1.2.25,0,.68-.08.94-.22l-.12-.56Zm-5.65-3.82c-.46,0-.88.23-1.14.73v-.64h-.58v4.5h.58v-2.45c0-.9.4-1.58,1.04-1.58.44,0,.67.29.71.86h.58c-.05-.89-.5-1.42-1.19-1.42Zm-5.28,4.12c.75,0,1.02-.78,1.02-1.78s-.27-1.78-1.02-1.78-1.04.81-1.04,1.78.28,1.78,1.04,1.78Zm0-4.12c.75,0,1.23.49,1.46,1.2.11.35.16.74.16,1.14,0,1.32-.51,2.34-1.62,2.34s-1.62-1.02-1.62-2.34.53-2.34,1.62-2.34Zm-5.04,1.37l-.64,2.24-.49-3.52h-.59l.75,4.5h.58l.67-2.36.67,2.36h.58l.75-4.5h-.58l-.5,3.52-.64-2.24h-.56Zm-9.23-.81c.62,0,.96.58,1.03,1.38h-2.13c.1-.79.46-1.38,1.11-1.38Zm0-.56c-.75,0-1.27.48-1.52,1.19-.13.35-.19.74-.19,1.15,0,.83.24,1.59.76,2.02.26.22.58.32.95.32.83,0,1.42-.59,1.56-1.49h-.59c-.14.62-.45.93-.96.93-.72,0-1.09-.74-1.13-1.63h2.76c.03-1.38-.49-2.49-1.64-2.49Zm-3.4,3.82c-.22.12-.58.22-.78.22-.42,0-.62-.17-.62-.65v-2.75h1.35v-.54h-1.35v-1.5h-.58v1.5h-1.08v.54h1.08v2.75c0,.75.42,1.2,1.15,1.2.25,0,.68-.08.94-.22l-.12-.56Zm-5.18-1.28c0,.97-.41,1.58-1.2,1.58-.54,0-.78-.39-.78-1.01v-3.02h-.58v3.02c0,.93.46,1.57,1.3,1.57.54,0,1.01-.26,1.27-.74v.65s.59,0,.59,0v-4.5h-.58v2.45Zm-5.48-2.54c-.54,0-1.01.26-1.27.74v-.65s-.59,0-.59,0v4.5h.58v-2.45c0-.97.42-1.58,1.2-1.58.55,0,.78.39.78,1.01v3.02h.58v-3.02c0-.93-.46-1.57-1.29-1.57Zm-3.56,4.02h-1.19v-3.94h-1.56v.56h.98v3.39h-1.21v.56h2.98v-.56Zm-1.55-4.63c.25,0,.45-.21.45-.46s-.2-.45-.45-.45-.45.21-.45.45.2.46.45.46Zm-3.71.59c-.36,0-.66.25-.85.73-.07-.44-.29-.73-.69-.73-.33,0-.64.23-.79.7l-.04-.6h-.48l-.02,4.5h.57v-2.7c0-.69.16-1.34.63-1.34.17,0,.28.07.33.21.05.14.07.38.07.7v3.13h.57v-2.7c0-.79.09-1.34.59-1.34.33,0,.39.26.39.77v3.28h.57v-3.3c0-.75-.24-1.3-.85-1.3Zm-10.51.57c.62,0,.96.58,1.03,1.38h-2.14c.1-.79.46-1.38,1.11-1.38Zm0-.56c-.75,0-1.27.48-1.52,1.19-.13.35-.19.74-.19,1.15,0,.83.24,1.59.75,2.02.26.22.58.32.95.32.83,0,1.42-.59,1.56-1.49h-.59c-.14.62-.45.93-.96.93-.72,0-1.09-.74-1.13-1.63h2.76c.03-1.38-.49-2.49-1.64-2.49Zm-4.53,0c-.54,0-1.01.26-1.27.74v-.65s-.59,0-.59,0v4.5h.58v-2.45c0-.97.41-1.58,1.2-1.58.55,0,.78.39.78,1.01v3.02h.58v-3.02c0-.93-.46-1.57-1.3-1.57Zm-5.04,4.12c.76,0,1.02-.78,1.02-1.78s-.27-1.78-1.02-1.78-1.04.81-1.04,1.78.28,1.78,1.04,1.78Zm0-4.12c.75,0,1.23.49,1.46,1.2.11.35.16.74.16,1.14,0,1.32-.51,2.34-1.62,2.34s-1.62-1.02-1.62-2.34.53-2.34,1.62-2.34Z" style="fill:none; stroke:#0d0d0b; stroke-width:.15px;"/><path d="m240.31,73.58h-.56v2.19h.56v-2.19Zm-6.55,4.23h3.02v-.54h-3.02v.54Zm-2.06-1.07c0,1.63-.41,2.66-1.22,2.66s-1.21-.97-1.21-2.66.4-2.64,1.21-2.64,1.22.98,1.22,2.64m.6,0c0-2.02-.59-3.24-1.82-3.24s-1.79,1.21-1.79,3.24.57,3.24,1.79,3.24c1.23,0,1.82-1.22,1.82-3.24m-8.08,1.07h3.02v-.54h-3.02v.54Zm-2.06-1.07c0,1.63-.41,2.66-1.22,2.66s-1.21-.97-1.21-2.66.41-2.64,1.21-2.64,1.22.98,1.22,2.64m.6,0c0-2.02-.59-3.24-1.82-3.24s-1.79,1.21-1.79,3.24.57,3.24,1.79,3.24c1.23,0,1.82-1.22,1.82-3.24m-8.07,1.07h3.02v-.54h-3.02v.54Zm-2.19-3.17l-.81-1.25h-.78l1.05,1.25h.54Zm-4.95-1.06h-.56v2.19h.56v-2.19Zm-1.17,0h-.56v2.19h.56v-2.19Zm-4.19,0h-.56v2.19h.56v-2.19Zm-6.55,4.23h3.02v-.54h-3.02v.54Zm-2.06-1.07c0,1.63-.41,2.66-1.22,2.66s-1.21-.97-1.21-2.66.4-2.64,1.21-2.64,1.22.98,1.22,2.64m.6,0c0-2.02-.59-3.24-1.82-3.24s-1.79,1.21-1.79,3.24.58,3.24,1.79,3.24c1.22,0,1.82-1.22,1.82-3.24m-8.07,1.07h3.02v-.54h-3.02v.54Zm-2.06-1.07c0,1.63-.41,2.66-1.22,2.66s-1.21-.97-1.21-2.66.4-2.64,1.21-2.64,1.22.98,1.22,2.64m.6,0c0-2.02-.59-3.24-1.82-3.24s-1.79,1.21-1.79,3.24.57,3.24,1.79,3.24c1.23,0,1.82-1.22,1.82-3.24m-8.08,1.07h3.02v-.54h-3.02v.54Zm-2.19-3.17l-.81-1.25h-.78l1.05,1.25h.54Zm-4.95-1.06h-.56v2.19h.56v-2.19Zm-1.17,0h-.56v2.19h.56v-2.19Zm-4.19,0h-.56v2.19h.56v-2.19Zm-6.56,4.23h3.02v-.54h-3.02v.54Zm-2.06-1.07c0,1.63-.41,2.66-1.21,2.66s-1.21-.97-1.21-2.66.41-2.64,1.21-2.64,1.21.98,1.21,2.64m.6,0c0-2.02-.59-3.24-1.82-3.24s-1.79,1.21-1.79,3.24.57,3.24,1.79,3.24c1.22,0,1.82-1.22,1.82-3.24m-8.07,1.07h3.02v-.54h-3.02v.54Zm-2.06-1.07c0,1.63-.41,2.66-1.22,2.66s-1.21-.97-1.21-2.66.4-2.64,1.21-2.64,1.22.98,1.22,2.64m.6,0c0-2.02-.59-3.24-1.82-3.24s-1.79,1.21-1.79,3.24.57,3.24,1.79,3.24c1.23,0,1.82-1.22,1.82-3.24m-8.08,1.07h3.02v-.54h-3.02v.54Zm-2.19-3.17l-.81-1.25h-.78l1.05,1.25h.54Zm-4.95-1.06h-.56v2.19h.56v-2.19Zm-1.17,0h-.56v2.19h.56v-2.19Zm-4.19,0h-.56v2.19h.56v-2.19Zm-6.56,4.23h3.02v-.54h-3.02v.54Zm-2.06-1.07c0,1.63-.42,2.66-1.22,2.66s-1.21-.97-1.21-2.66.4-2.64,1.21-2.64,1.22.98,1.22,2.64m.6,0c0-2.02-.59-3.24-1.82-3.24s-1.79,1.21-1.79,3.24.57,3.24,1.79,3.24c1.22,0,1.82-1.22,1.82-3.24m-8.08,1.07h3.02v-.54h-3.02v.54Zm-2.06-1.07c0,1.63-.41,2.66-1.22,2.66s-1.21-.97-1.21-2.66.4-2.64,1.21-2.64,1.22.98,1.22,2.64m.6,0c0-2.02-.59-3.24-1.82-3.24s-1.79,1.21-1.79,3.24.57,3.24,1.79,3.24c1.22,0,1.82-1.22,1.82-3.24m-8.08,1.07h3.02v-.54h-3.02v.54Zm-2.19-3.17l-.81-1.25h-.78l1.05,1.25h.54Zm-4.95-1.06h-.56v2.19h.56v-2.19Zm-1.17,0h-.56v2.19h.56v-2.19Zm-4.19,0h-.56v2.19h.56v-2.19Zm-6.55,4.23h3.02v-.54h-3.02v.54Zm-2.06-1.07c0,1.63-.41,2.66-1.22,2.66s-1.21-.97-1.21-2.66.4-2.64,1.21-2.64,1.22.98,1.22,2.64m.6,0c0-2.02-.59-3.24-1.82-3.24s-1.79,1.21-1.79,3.24.58,3.24,1.79,3.24c1.22,0,1.82-1.22,1.82-3.24m-8.08,1.07h3.02v-.54h-3.02v.54Zm-2.06-1.07c0,1.63-.41,2.66-1.21,2.66s-1.21-.97-1.21-2.66.4-2.64,1.21-2.64,1.21.98,1.21,2.64m.6,0c0-2.02-.59-3.24-1.82-3.24s-1.79,1.21-1.79,3.24.57,3.24,1.79,3.24c1.22,0,1.82-1.22,1.82-3.24m-8.08,1.07h3.02v-.54h-3.02v.54Zm-2.19-3.17l-.81-1.25h-.78l1.05,1.25h.54Zm-4.95-1.06h-.56v2.19h.56v-2.19Zm-1.17,0h-.56v2.19h.56v-2.19Zm-4.19,0h-.56v2.19h.56v-2.19Zm-6.55,4.23h3.02v-.54h-3.02v.54Zm-2.06-1.07c0,1.63-.41,2.66-1.22,2.66s-1.21-.97-1.21-2.66.41-2.64,1.21-2.64,1.22.98,1.22,2.64m.6,0c0-2.02-.59-3.24-1.82-3.24s-1.79,1.21-1.79,3.24.58,3.24,1.79,3.24c1.23,0,1.82-1.22,1.82-3.24m-8.08,1.07h3.02v-.54h-3.02v.54Zm-2.06-1.07c0,1.63-.41,2.66-1.22,2.66s-1.21-.97-1.21-2.66.41-2.64,1.21-2.64,1.22.98,1.22,2.64m.6,0c0-2.02-.59-3.24-1.82-3.24s-1.79,1.21-1.79,3.24.57,3.24,1.79,3.24c1.23,0,1.82-1.22,1.82-3.24m-8.07,1.07h3.02v-.54h-3.02v.54Zm-2.19-3.17l-.81-1.25h-.78l1.05,1.25h.54Zm-4.95-1.06h-.56v2.19h.56v-2.19Zm-1.17,0h-.56v2.19h.56v-2.19Z" style="fill:#0d0d0b;"/><path d="m240.31,73.58h-.56v2.19h.56v-2.19Zm-6.55,4.23h3.02v-.54h-3.02v.54Zm-2.06-1.07c0,1.63-.41,2.66-1.22,2.66s-1.21-.97-1.21-2.66.4-2.64,1.21-2.64,1.22.98,1.22,2.64Zm.6,0c0-2.02-.59-3.24-1.82-3.24s-1.79,1.21-1.79,3.24.57,3.24,1.79,3.24c1.23,0,1.82-1.22,1.82-3.24Zm-8.08,1.07h3.02v-.54h-3.02v.54Zm-2.06-1.07c0,1.63-.41,2.66-1.22,2.66s-1.21-.97-1.21-2.66.41-2.64,1.21-2.64,1.22.98,1.22,2.64Zm.6,0c0-2.02-.59-3.24-1.82-3.24s-1.79,1.21-1.79,3.24.57,3.24,1.79,3.24c1.23,0,1.82-1.22,1.82-3.24Zm-8.07,1.07h3.02v-.54h-3.02v.54Zm-2.19-3.17l-.81-1.25h-.78l1.05,1.25h.54Zm-4.95-1.06h-.56v2.19h.56v-2.19Zm-1.17,0h-.56v2.19h.56v-2.19Zm-4.19,0h-.56v2.19h.56v-2.19Zm-6.55,4.23h3.02v-.54h-3.02v.54Zm-2.06-1.07c0,1.63-.41,2.66-1.22,2.66s-1.21-.97-1.21-2.66.4-2.64,1.21-2.64,1.22.98,1.22,2.64Zm.6,0c0-2.02-.59-3.24-1.82-3.24s-1.79,1.21-1.79,3.24.58,3.24,1.79,3.24c1.22,0,1.82-1.22,1.82-3.24Zm-8.07,1.07h3.02v-.54h-3.02v.54Zm-2.06-1.07c0,1.63-.41,2.66-1.22,2.66s-1.21-.97-1.21-2.66.4-2.64,1.21-2.64,1.22.98,1.22,2.64Zm.6,0c0-2.02-.59-3.24-1.82-3.24s-1.79,1.21-1.79,3.24.57,3.24,1.79,3.24c1.23,0,1.82-1.22,1.82-3.24Zm-8.08,1.07h3.02v-.54h-3.02v.54Zm-2.19-3.17l-.81-1.25h-.78l1.05,1.25h.54Zm-4.95-1.06h-.56v2.19h.56v-2.19Zm-1.17,0h-.56v2.19h.56v-2.19Zm-4.19,0h-.56v2.19h.56v-2.19Zm-6.56,4.23h3.02v-.54h-3.02v.54Zm-2.06-1.07c0,1.63-.41,2.66-1.21,2.66s-1.21-.97-1.21-2.66.41-2.64,1.21-2.64,1.21.98,1.21,2.64Zm.6,0c0-2.02-.59-3.24-1.82-3.24s-1.79,1.21-1.79,3.24.57,3.24,1.79,3.24c1.22,0,1.82-1.22,1.82-3.24Zm-8.07,1.07h3.02v-.54h-3.02v.54Zm-2.06-1.07c0,1.63-.41,2.66-1.22,2.66s-1.21-.97-1.21-2.66.4-2.64,1.21-2.64,1.22.98,1.22,2.64Zm.6,0c0-2.02-.59-3.24-1.82-3.24s-1.79,1.21-1.79,3.24.57,3.24,1.79,3.24c1.23,0,1.82-1.22,1.82-3.24Zm-8.08,1.07h3.02v-.54h-3.02v.54Zm-2.19-3.17l-.81-1.25h-.78l1.05,1.25h.54Zm-4.95-1.06h-.56v2.19h.56v-2.19Zm-1.17,0h-.56v2.19h.56v-2.19Zm-4.19,0h-.56v2.19h.56v-2.19Zm-6.56,4.23h3.02v-.54h-3.02v.54Zm-2.06-1.07c0,1.63-.42,2.66-1.22,2.66s-1.21-.97-1.21-2.66.4-2.64,1.21-2.64,1.22.98,1.22,2.64Zm.6,0c0-2.02-.59-3.24-1.82-3.24s-1.79,1.21-1.79,3.24.57,3.24,1.79,3.24c1.22,0,1.82-1.22,1.82-3.24Zm-8.08,1.07h3.02v-.54h-3.02v.54Zm-2.06-1.07c0,1.63-.41,2.66-1.22,2.66s-1.21-.97-1.21-2.66.4-2.64,1.21-2.64,1.22.98,1.22,2.64Zm.6,0c0-2.02-.59-3.24-1.82-3.24s-1.79,1.21-1.79,3.24.57,3.24,1.79,3.24c1.22,0,1.82-1.22,1.82-3.24Zm-8.08,1.07h3.02v-.54h-3.02v.54Zm-2.19-3.17l-.81-1.25h-.78l1.05,1.25h.54Zm-4.95-1.06h-.56v2.19h.56v-2.19Zm-1.17,0h-.56v2.19h.56v-2.19Zm-4.19,0h-.56v2.19h.56v-2.19Zm-6.55,4.23h3.02v-.54h-3.02v.54Zm-2.06-1.07c0,1.63-.41,2.66-1.22,2.66s-1.21-.97-1.21-2.66.4-2.64,1.21-2.64,1.22.98,1.22,2.64Zm.6,0c0-2.02-.59-3.24-1.82-3.24s-1.79,1.21-1.79,3.24.58,3.24,1.79,3.24c1.22,0,1.82-1.22,1.82-3.24Zm-8.08,1.07h3.02v-.54h-3.02v.54Zm-2.06-1.07c0,1.63-.41,2.66-1.21,2.66s-1.21-.97-1.21-2.66.4-2.64,1.21-2.64,1.21.98,1.21,2.64Zm.6,0c0-2.02-.59-3.24-1.82-3.24s-1.79,1.21-1.79,3.24.57,3.24,1.79,3.24c1.22,0,1.82-1.22,1.82-3.24Zm-8.08,1.07h3.02v-.54h-3.02v.54Zm-2.19-3.17l-.81-1.25h-.78l1.05,1.25h.54Zm-4.95-1.06h-.56v2.19h.56v-2.19Zm-1.17,0h-.56v2.19h.56v-2.19Zm-4.19,0h-.56v2.19h.56v-2.19Zm-6.55,4.23h3.02v-.54h-3.02v.54Zm-2.06-1.07c0,1.63-.41,2.66-1.22,2.66s-1.21-.97-1.21-2.66.41-2.64,1.21-2.64,1.22.98,1.22,2.64Zm.6,0c0-2.02-.59-3.24-1.82-3.24s-1.79,1.21-1.79,3.24.58,3.24,1.79,3.24c1.23,0,1.82-1.22,1.82-3.24Zm-8.08,1.07h3.02v-.54h-3.02v.54Zm-2.06-1.07c0,1.63-.41,2.66-1.22,2.66s-1.21-.97-1.21-2.66.41-2.64,1.21-2.64,1.22.98,1.22,2.64Zm.6,0c0-2.02-.59-3.24-1.82-3.24s-1.79,1.21-1.79,3.24.57,3.24,1.79,3.24c1.23,0,1.82-1.22,1.82-3.24Zm-8.07,1.07h3.02v-.54h-3.02v.54Zm-2.19-3.17l-.81-1.25h-.78l1.05,1.25h.54Zm-4.95-1.06h-.56v2.19h.56v-2.19Zm-1.17,0h-.56v2.19h.56v-2.19Z" style="fill:none; stroke:#0d0d0b; stroke-width:.15px;"/></g><path d="m239.74,69.71h.59v-6.93s-.59,0-.59,0v6.93Zm-3.6-6.93h-.56v2.19h.56v-2.19Zm-1.17,0h-.56v2.19h.56v-2.19Zm-3.59,0h-.56v2.19h.56v-2.19Zm-1.17,0h-.56v2.19h.56v-2.19Zm-3.6,0h-.56v2.19h.56v-2.19Zm-1.17,0h-.56v2.19h.56v-2.19Zm-3.6,0h-.56v2.19h.56v-2.19Zm-1.17,0h-.56v2.19h.56v-2.19Zm-3.6,0h-.56v2.19h.56v-2.19Zm-1.17,0h-.56v2.19h.56v-2.19Zm-4.76,6.93h.59v-6.93s-.59,0-.59,0v6.93Zm-6.71-.63h4.48v-.54h-4.48s0,.54,0,.54Zm-2.82.63h.59v-6.93s-.59,0-.59,0v6.93Zm-3.6-6.93h-.56v2.19h.56v-2.19Zm-1.17,0h-.56v2.19h.56v-2.19Zm-3.59,0h-.56v2.19h.56v-2.19Zm-1.17,0h-.56v2.19h.56v-2.19Zm-3.6,0h-.56v2.19h.56v-2.19Zm-1.17,0h-.56v2.19h.56v-2.19Zm-3.6,0h-.56v2.19h.56v-2.19Zm-1.17,0h-.56v2.19h.56v-2.19Zm-3.59,0h-.56v2.19h.56v-2.19Zm-1.17,0h-.56v2.19h.56v-2.19Zm-4.76,6.93h.59v-6.93s-.59,0-.59,0v6.93Zm-6.71-.63h4.48v-.54h-4.48s0,.54,0,.54Zm-2.82.63h.59v-6.93s-.59,0-.59,0v6.93Zm-3.6-6.93h-.56v2.19h.56v-2.19Zm-1.17,0h-.56v2.19h.56v-2.19Zm-3.6,0h-.56v2.19h.56v-2.19Zm-1.17,0h-.56v2.19h.56v-2.19Zm-3.6,0h-.56v2.19h.56v-2.19Zm-1.17,0h-.56v2.19h.56v-2.19Zm-3.6,0h-.56v2.19h.56v-2.19Zm-1.17,0h-.56v2.19h.56v-2.19Zm-3.59,0h-.56v2.19h.56v-2.19Zm-1.17,0h-.56v2.19h.56v-2.19Zm-4.76,6.93h.59v-6.93s-.59,0-.59,0v6.93Zm-6.71-.63h4.48v-.54h-4.48s0,.54,0,.54Zm-2.82.63h.59v-6.93s-.59,0-.59,0v6.93Zm-3.6-6.93h-.56v2.19h.56v-2.19Zm-1.17,0h-.56v2.19h.56v-2.19Zm-3.6,0h-.56v2.19h.56v-2.19Zm-1.17,0h-.56v2.19h.56v-2.19Zm-3.6,0h-.56v2.19h.56v-2.19Zm-1.17,0h-.56v2.19h.56v-2.19Zm-3.59,0h-.56v2.19h.56v-2.19Zm-1.17,0h-.56v2.19h.56v-2.19Zm-3.6,0h-.56v2.19h.56v-2.19Zm-1.17,0h-.56v2.19h.56v-2.19Zm-4.76,6.93h.59v-6.93s-.59,0-.59,0v6.93Zm-6.71-.63h4.48v-.54h-4.48s0,.54,0,.54Zm-2.82.63h.59v-6.93s-.59,0-.59,0v6.93Zm-3.6-6.93h-.56v2.19h.56v-2.19Zm-1.17,0h-.56v2.19h.56v-2.19Zm-3.6,0h-.56v2.19h.56v-2.19Zm-1.17,0h-.56v2.19h.56v-2.19Zm-3.59,0h-.56v2.19h.56v-2.19Zm-1.17,0h-.56v2.19h.56v-2.19Zm-3.6,0h-.56v2.19h.56v-2.19Zm-1.17,0h-.56v2.19h.56v-2.19Zm-3.6,0h-.56v2.19h.56v-2.19Zm-1.17,0h-.56v2.19h.56v-2.19Zm-4.76,6.93h.59v-6.93s-.59,0-.59,0v6.93Zm-6.71-.63h4.48v-.54h-4.48s0,.54,0,.54Zm-2.82.63h.59v-6.93s-.59,0-.59,0v6.93Zm-3.6-6.93h-.56v2.19h.56v-2.19Zm-1.17,0h-.56v2.19h.56v-2.19Zm-3.59,0h-.56v2.19h.56v-2.19Zm-1.17,0h-.56v2.19h.56v-2.19Zm-3.6,0h-.56v2.19h.56v-2.19Zm-1.17,0h-.56v2.19h.56v-2.19Zm-3.6,0h-.56v2.19h.56v-2.19Zm-1.17,0h-.56v2.19h.56v-2.19Zm-3.59,0h-.56v2.19h.56v-2.19Zm-1.17,0h-.56v2.19h.56v-2.19Zm-4.76,6.93h.59v-6.93s-.59,0-.59,0v6.93Zm-6.71-.63h4.48v-.54h-4.48s0,.54,0,.54Z" style="fill:#0d0d0b;"/><path d="m239.74,69.71h.59v-6.93s-.59,0-.59,0v6.93Zm-3.6-6.93h-.56v2.19h.56v-2.19Zm-1.17,0h-.56v2.19h.56v-2.19Zm-3.59,0h-.56v2.19h.56v-2.19Zm-1.17,0h-.56v2.19h.56v-2.19Zm-3.6,0h-.56v2.19h.56v-2.19Zm-1.17,0h-.56v2.19h.56v-2.19Zm-3.6,0h-.56v2.19h.56v-2.19Zm-1.17,0h-.56v2.19h.56v-2.19Zm-3.6,0h-.56v2.19h.56v-2.19Zm-1.17,0h-.56v2.19h.56v-2.19Zm-4.76,6.93h.59v-6.93s-.59,0-.59,0v6.93Zm-6.71-.63h4.48v-.54h-4.48s0,.54,0,.54Zm-2.82.63h.59v-6.93s-.59,0-.59,0v6.93Zm-3.6-6.93h-.56v2.19h.56v-2.19Zm-1.17,0h-.56v2.19h.56v-2.19Zm-3.59,0h-.56v2.19h.56v-2.19Zm-1.17,0h-.56v2.19h.56v-2.19Zm-3.6,0h-.56v2.19h.56v-2.19Zm-1.17,0h-.56v2.19h.56v-2.19Zm-3.6,0h-.56v2.19h.56v-2.19Zm-1.17,0h-.56v2.19h.56v-2.19Zm-3.59,0h-.56v2.19h.56v-2.19Zm-1.17,0h-.56v2.19h.56v-2.19Zm-4.76,6.93h.59v-6.93s-.59,0-.59,0v6.93Zm-6.71-.63h4.48v-.54h-4.48s0,.54,0,.54Zm-2.82.63h.59v-6.93s-.59,0-.59,0v6.93Zm-3.6-6.93h-.56v2.19h.56v-2.19Zm-1.17,0h-.56v2.19h.56v-2.19Zm-3.6,0h-.56v2.19h.56v-2.19Zm-1.17,0h-.56v2.19h.56v-2.19Zm-3.6,0h-.56v2.19h.56v-2.19Zm-1.17,0h-.56v2.19h.56v-2.19Zm-3.6,0h-.56v2.19h.56v-2.19Zm-1.17,0h-.56v2.19h.56v-2.19Zm-3.59,0h-.56v2.19h.56v-2.19Zm-1.17,0h-.56v2.19h.56v-2.19Zm-4.76,6.93h.59v-6.93s-.59,0-.59,0v6.93Zm-6.71-.63h4.48v-.54h-4.48s0,.54,0,.54Zm-2.82.63h.59v-6.93s-.59,0-.59,0v6.93Zm-3.6-6.93h-.56v2.19h.56v-2.19Zm-1.17,0h-.56v2.19h.56v-2.19Zm-3.6,0h-.56v2.19h.56v-2.19Zm-1.17,0h-.56v2.19h.56v-2.19Zm-3.6,0h-.56v2.19h.56v-2.19Zm-1.17,0h-.56v2.19h.56v-2.19Zm-3.59,0h-.56v2.19h.56v-2.19Zm-1.17,0h-.56v2.19h.56v-2.19Zm-3.6,0h-.56v2.19h.56v-2.19Zm-1.17,0h-.56v2.19h.56v-2.19Zm-4.76,6.93h.59v-6.93s-.59,0-.59,0v6.93Zm-6.71-.63h4.48v-.54h-4.48s0,.54,0,.54Zm-2.82.63h.59v-6.93s-.59,0-.59,0v6.93Zm-3.6-6.93h-.56v2.19h.56v-2.19Zm-1.17,0h-.56v2.19h.56v-2.19Zm-3.6,0h-.56v2.19h.56v-2.19Zm-1.17,0h-.56v2.19h.56v-2.19Zm-3.59,0h-.56v2.19h.56v-2.19Zm-1.17,0h-.56v2.19h.56v-2.19Zm-3.6,0h-.56v2.19h.56v-2.19Zm-1.17,0h-.56v2.19h.56v-2.19Zm-3.6,0h-.56v2.19h.56v-2.19Zm-1.17,0h-.56v2.19h.56v-2.19Zm-4.76,6.93h.59v-6.93s-.59,0-.59,0v6.93Zm-6.71-.63h4.48v-.54h-4.48s0,.54,0,.54Zm-2.82.63h.59v-6.93s-.59,0-.59,0v6.93Zm-3.6-6.93h-.56v2.19h.56v-2.19Zm-1.17,0h-.56v2.19h.56v-2.19Zm-3.59,0h-.56v2.19h.56v-2.19Zm-1.17,0h-.56v2.19h.56v-2.19Zm-3.6,0h-.56v2.19h.56v-2.19Zm-1.17,0h-.56v2.19h.56v-2.19Zm-3.6,0h-.56v2.19h.56v-2.19Zm-1.17,0h-.56v2.19h.56v-2.19Zm-3.59,0h-.56v2.19h.56v-2.19Zm-1.17,0h-.56v2.19h.56v-2.19Zm-4.76,6.93h.59v-6.93s-.59,0-.59,0v6.93Zm-6.71-.63h4.48v-.54h-4.48s0,.54,0,.54Z" style="fill:none; stroke:#0d0d0b; stroke-width:.15px;"/><path d="m235.22,58.91h.59v-6.93s-.59,0-.59,0v6.93Zm-6.72-.63h4.48v-.54h-4.48s0,.54,0,.54Zm-4.77,0h4.48v-.54h-4.48s0,.54,0,.54Zm-4.77,0h4.48v-.54h-4.48s0,.54,0,.54Zm-3.16-6.3l1.86,6.31h-.62l-1.85-6.31h.61Zm-20.69,6.3h4.48v-.54h-4.48s0,.54,0,.54Zm-2.82.63h.59v-6.93s-.59,0-.59,0v6.93Zm-6.71-.63h4.48v-.54h-4.48s0,.54,0,.54Zm-2.82.63h.59v-6.93s-.59,0-.59,0v6.93Zm-6.71-.63h4.48v-.54h-4.48s0,.54,0,.54Zm-17.46,0h-.62l1.86-6.31h.61l-1.85,6.31Zm-6.39,0h4.48v-.54h-4.48s0,.54,0,.54Zm-4.77,0h4.48v-.54h-4.48s0,.54,0,.54Zm-4.77,0h4.48v-.54h-4.48s0,.54,0,.54Zm-2.82.63h.59v-6.93s-.59,0-.59,0v6.93Zm-19.41-.62h-.62l1.86-6.31h.61l-1.85,6.31Zm-6.39,0h4.48v-.54h-4.48s0,.54,0,.54Zm-4.77,0h4.48v-.54h-4.48s0,.54,0,.54Zm-4.77,0h4.48v-.54h-4.48s0,.54,0,.54Zm-3.16-6.3l1.86,6.31h-.62l-1.85-6.31h.61Zm-19.07,6.31h-.62l1.86-6.31h.61l-1.85,6.31Zm-6.39,0h4.48v-.54h-4.48s0,.54,0,.54Zm-4.77,0h4.48v-.54h-4.48s0,.54,0,.54Zm-4.77,0h4.48v-.54h-4.48s0,.54,0,.54Zm-3.16-6.3l1.86,6.31h-.62l-1.85-6.31h.61Zm-19.07,6.31h-.62l1.86-6.31h.61l-1.85,6.31Zm-6.39,0h4.48v-.54h-4.48s0,.54,0,.54Zm-4.77,0h4.48v-.54h-4.48s0,.54,0,.54Zm-4.77,0h4.48v-.54h-4.48s0,.54,0,.54Zm-2.82.63h.59v-6.93s-.59,0-.59,0v6.93Z" style="fill:#0d0d0b;"/><path d="m235.22,58.91h.59v-6.93s-.59,0-.59,0v6.93Zm-6.72-.63h4.48v-.54h-4.48s0,.54,0,.54Zm-4.77,0h4.48v-.54h-4.48s0,.54,0,.54Zm-4.77,0h4.48v-.54h-4.48s0,.54,0,.54Zm-3.16-6.3l1.86,6.31h-.62l-1.85-6.31h.61Zm-20.69,6.3h4.48v-.54h-4.48s0,.54,0,.54Zm-2.82.63h.59v-6.93s-.59,0-.59,0v6.93Zm-6.71-.63h4.48v-.54h-4.48s0,.54,0,.54Zm-2.82.63h.59v-6.93s-.59,0-.59,0v6.93Zm-6.71-.63h4.48v-.54h-4.48s0,.54,0,.54Zm-17.46,0h-.62l1.86-6.31h.61l-1.85,6.31Zm-6.39,0h4.48v-.54h-4.48s0,.54,0,.54Zm-4.77,0h4.48v-.54h-4.48s0,.54,0,.54Zm-4.77,0h4.48v-.54h-4.48s0,.54,0,.54Zm-2.82.63h.59v-6.93s-.59,0-.59,0v6.93Zm-19.41-.62h-.62l1.86-6.31h.61l-1.85,6.31Zm-6.39,0h4.48v-.54h-4.48s0,.54,0,.54Zm-4.77,0h4.48v-.54h-4.48s0,.54,0,.54Zm-4.77,0h4.48v-.54h-4.48s0,.54,0,.54Zm-3.16-6.3l1.86,6.31h-.62l-1.85-6.31h.61Zm-19.07,6.31h-.62l1.86-6.31h.61l-1.85,6.31Zm-6.39,0h4.48v-.54h-4.48s0,.54,0,.54Zm-4.77,0h4.48v-.54h-4.48s0,.54,0,.54Zm-4.77,0h4.48v-.54h-4.48s0,.54,0,.54Zm-3.16-6.3l1.86,6.31h-.62l-1.85-6.31h.61Zm-19.07,6.31h-.62l1.86-6.31h.61l-1.85,6.31Zm-6.39,0h4.48v-.54h-4.48s0,.54,0,.54Zm-4.77,0h4.48v-.54h-4.48s0,.54,0,.54Zm-4.77,0h4.48v-.54h-4.48s0,.54,0,.54Zm-2.82.63h.59v-6.93s-.59,0-.59,0v6.93Z" style="fill:none; stroke:#0d0d0b; stroke-width:.15px;"/><g style="clip-path:url(#g); fill:none;"><path d="m234.72,47.93c.66-.98.99-2.11.99-3.38s-.33-2.38-.99-3.37h.56c.68.93,1.02,2.05,1.02,3.37s-.34,2.42-1.02,3.38h-.56Zm-6.22-.45h4.48v-.54h-4.48s0,.54,0,.54Zm-4.04-2.07h3.02v-.54h-3.02v.54Zm-8.65,2.08h-.62l1.86-6.31h.61l-1.85,6.31Zm-23.53.62h.59v-6.93s-.59,0-.59,0v6.93Zm-9.54,0h.59v-6.93s-.59,0-.59,0v6.93Zm-19.08,0h.59v-6.93s-.59,0-.59,0v6.93Zm-9.58-1.72h.72l-.76,2.17h-.52l.56-2.17Zm-6.68,1.09h4.48v-.54h-4.48s0,.54,0,.54Zm-4.77,0h4.48v-.54h-4.48s0,.54,0,.54Zm-3.16-6.3l1.86,6.31h-.62l-1.85-6.31h.61Zm-19.08,0l1.86,6.31h-.62l-1.85-6.31h.61Zm-11.15,6.3h4.48v-.54h-4.48s0,.54,0,.54Zm-7.92,0h-.62l1.86-6.31h.61l-1.85,6.31Zm-19.09-6.31l1.86,6.31h-.62l-1.85-6.31h.61Zm-11.15,6.3h4.48v-.54h-4.48s0,.54,0,.54Zm-7.92,0h-.62l1.86-6.31h.61l-1.85,6.31Zm-13.98.62h.59v-6.93s-.59,0-.59,0v6.93Zm-9.58-1.72h.72l-.76,2.17h-.52l.56-2.17Zm-6.68,1.09h4.48v-.54h-4.48s0,.54,0,.54Zm-4.77,0h4.48v-.54h-4.48s0,.54,0,.54Zm-3.16-6.3l1.86,6.31h-.62l-1.85-6.31h.61Z" style="fill:#0d0d0b;"/><path d="m234.72,47.93c.66-.98.99-2.11.99-3.38s-.33-2.38-.99-3.37h.56c.68.93,1.02,2.05,1.02,3.37s-.34,2.42-1.02,3.38h-.56Zm-6.22-.45h4.48v-.54h-4.48s0,.54,0,.54Zm-4.04-2.07h3.02v-.54h-3.02v.54Zm-8.65,2.08h-.62l1.86-6.31h.61l-1.85,6.31Zm-23.53.62h.59v-6.93s-.59,0-.59,0v6.93Zm-9.54,0h.59v-6.93s-.59,0-.59,0v6.93Zm-19.08,0h.59v-6.93s-.59,0-.59,0v6.93Zm-9.58-1.72h.72l-.76,2.17h-.52l.56-2.17Zm-6.68,1.09h4.48v-.54h-4.48s0,.54,0,.54Zm-4.77,0h4.48v-.54h-4.48s0,.54,0,.54Zm-3.16-6.3l1.86,6.31h-.62l-1.85-6.31h.61Zm-19.08,0l1.86,6.31h-.62l-1.85-6.31h.61Zm-11.15,6.3h4.48v-.54h-4.48s0,.54,0,.54Zm-7.92,0h-.62l1.86-6.31h.61l-1.85,6.31Zm-19.09-6.31l1.86,6.31h-.62l-1.85-6.31h.61Zm-11.15,6.3h4.48v-.54h-4.48s0,.54,0,.54Zm-7.92,0h-.62l1.86-6.31h.61l-1.85,6.31Zm-13.98.62h.59v-6.93s-.59,0-.59,0v6.93Zm-9.58-1.72h.72l-.76,2.17h-.52l.56-2.17Zm-6.68,1.09h4.48v-.54h-4.48s0,.54,0,.54Zm-4.77,0h4.48v-.54h-4.48s0,.54,0,.54Zm-3.16-6.3l1.86,6.31h-.62l-1.85-6.31h.61Z" style="fill:none; stroke:#0d0d0b; stroke-width:.15px;"/></g><path d="m228.5,36.68h4.48v-.54h-4.48s0,.54,0,.54Zm-4.77,0h4.48v-.54h-4.48s0,.54,0,.54Zm-4.77,0h4.48v-.54h-4.48s0,.54,0,.54Zm-26.68.63h.59v-6.93s-.59,0-.59,0v6.93Zm-9.54,0h.59v-6.93s-.59,0-.59,0v6.93Zm-19.08,0h.59v-6.93s-.59,0-.59,0v6.93Zm-8.18-5.87l-.81-1.25h-.78l1.05,1.25h.54Zm-8.07,5.24h4.48v-.54h-4.48s0,.54,0,.54Zm-7.92,0h-.62l1.86-6.31h.61l-1.85,6.31Zm-25.47,0h4.48v-.54h-4.48s0,.54,0,.54Zm-4.77,0h4.48v-.54h-4.48s0,.54,0,.54Zm-4.77,0h4.48v-.54h-4.48s0,.54,0,.54Zm-28.62,0h4.48v-.54h-4.48s0,.54,0,.54Zm-4.77,0h4.48v-.54h-4.48s0,.54,0,.54Zm-4.77,0h4.48v-.54h-4.48s0,.54,0,.54Zm-17.13.63h.59v-6.93s-.59,0-.59,0v6.93Zm-8.18-5.87l-.81-1.25h-.78l1.05,1.25h.54Zm-8.07,5.24h4.48v-.54h-4.48s0,.54,0,.54Zm-7.92,0h-.62l1.86-6.31h.61l-1.85,6.31Z" style="fill:#0d0d0b;"/><path d="m228.5,36.68h4.48v-.54h-4.48s0,.54,0,.54Zm-4.77,0h4.48v-.54h-4.48s0,.54,0,.54Zm-4.77,0h4.48v-.54h-4.48s0,.54,0,.54Zm-26.68.63h.59v-6.93s-.59,0-.59,0v6.93Zm-9.54,0h.59v-6.93s-.59,0-.59,0v6.93Zm-19.08,0h.59v-6.93s-.59,0-.59,0v6.93Zm-8.18-5.87l-.81-1.25h-.78l1.05,1.25h.54Zm-8.07,5.24h4.48v-.54h-4.48s0,.54,0,.54Zm-7.92,0h-.62l1.86-6.31h.61l-1.85,6.31Zm-25.47,0h4.48v-.54h-4.48s0,.54,0,.54Zm-4.77,0h4.48v-.54h-4.48s0,.54,0,.54Zm-4.77,0h4.48v-.54h-4.48s0,.54,0,.54Zm-28.62,0h4.48v-.54h-4.48s0,.54,0,.54Zm-4.77,0h4.48v-.54h-4.48s0,.54,0,.54Zm-4.77,0h4.48v-.54h-4.48s0,.54,0,.54Zm-17.13.63h.59v-6.93s-.59,0-.59,0v6.93Zm-8.18-5.87l-.81-1.25h-.78l1.05,1.25h.54Zm-8.07,5.24h4.48v-.54h-4.48s0,.54,0,.54Zm-7.92,0h-.62l1.86-6.31h.61l-1.85,6.31Z" style="fill:none; stroke:#0d0d0b; stroke-width:.15px;"/><path d="m28.16,25.88h4.48v-.54h-4.48s0,.54,0,.54Zm4.77,0h4.48v-.54h-4.48s0,.54,0,.54Zm9.54,0h4.48v-.54h-4.48s0,.54,0,.54Zm100.17,0h4.48v-.54h-4.48s0,.54,0,.54Zm4.77,0h4.48v-.54h-4.48s0,.54,0,.54Zm9.54,0h4.48v-.54h-4.48s0,.54,0,.54Zm28.62,0h4.48v-.54h-4.48s0,.54,0,.54Z" style="fill:#0d0d0b;"/><path d="m185.57,25.88h4.48v-.54h-4.48s0,.54,0,.54Zm-28.62,0h4.48v-.54h-4.48s0,.54,0,.54Zm-9.54,0h4.48v-.54h-4.48s0,.54,0,.54Zm-4.77,0h4.48v-.54h-4.48s0,.54,0,.54Zm-100.17,0h4.48v-.54h-4.48s0,.54,0,.54Zm-9.54,0h4.48v-.54h-4.48s0,.54,0,.54Zm-4.77,0h4.48v-.54h-4.48s0,.54,0,.54Z" style="fill:none; stroke:#0d0d0b; stroke-width:.15px;"/></svg>