<?xml version="1.0" encoding="UTF-8"?><svg id="a" xmlns="http://www.w3.org/2000/svg" xmlns:xlink="http://www.w3.org/1999/xlink" viewBox="0 0 178.5 225"><defs><clipPath id="b"><rect x="1.54" y=".72" width="176.07" height="223.22" style="fill:none;"/></clipPath><clipPath id="c"><rect x="1.54" y=".72" width="176.07" height="223.22" style="fill:none;"/></clipPath><clipPath id="d"><rect x="1.54" y=".72" width="176.07" height="223.22" style="fill:none;"/></clipPath><clipPath id="e"><rect x="1.54" y=".72" width="176.07" height="223.22" style="fill:none;"/></clipPath><clipPath id="f"><rect x="1.54" y=".72" width="176.07" height="223.22" style="fill:none;"/></clipPath><clipPath id="g"><rect x="1.54" y=".72" width="176.07" height="223.22" style="fill:none;"/></clipPath></defs><path d="m8.75,147.25h4.57v-.56h-4.57v.56Zm9.82,0h4.57v-.56h-4.57v.56Zm9.82,0h4.57v-.56h-4.57v.56Zm9.82,0h4.56v-.56h-4.56v.56Zm9.82,0h4.56v-.56h-4.56v.56Zm9.82,0h4.56v-.56h-4.56v.56Zm9.82,0h4.57v-.56h-4.57v.56Zm9.82,0h4.57v-.56h-4.57v.56Zm9.82,0h4.57v-.56h-4.57v.56Zm9.82,0h4.57v-.56h-4.57v.56Zm9.82,0h4.57v-.56h-4.57v.56Zm9.82,0h4.57v-.56h-4.57v.56Zm9.82,0h4.57v-.56h-4.57v.56Zm9.82,0h4.57v-.56h-4.57v.56Zm9.82,0h4.57v-.56h-4.57v.56Zm9.82,0h4.57v-.56h-4.57v.56Zm9.82,0h4.57v-.56h-4.57v.56Z" style="fill:#0d0d0b;"/><path d="m170.39,146.69h-4.57v.56h4.57v-.56Zm-9.82,0h-4.57v.56h4.57v-.56Zm-9.82,0h-4.57v.56h4.57v-.56Zm-9.82,0h-4.57v.56h4.57v-.56Zm-9.82,0h-4.57v.56h4.57v-.56Zm-9.82,0h-4.57v.56h4.57v-.56Zm-9.82,0h-4.57v.56h4.57v-.56Zm-9.82,0h-4.57v.56h4.57v-.56Zm-9.82,0h-4.57v.56h4.57v-.56Zm-9.82,0h-4.57v.56h4.57v-.56Zm-9.82,0h-4.57v.56h4.57v-.56Zm-9.82,0h-4.56v.56h4.56v-.56Zm-9.82,0h-4.56v.56h4.56v-.56Zm-9.82,0h-4.56v.56h4.56v-.56Zm-9.82,0h-4.57v.56h4.57v-.56Zm-9.82,0h-4.57v.56h4.57v-.56Zm-9.82,0h-4.57v.56h4.57v-.56Z" style="fill:none; stroke:#0d0d0b; stroke-width:.15px;"/><path d="m11.04,223.81h4.44v-.56h-4.44v.56Zm9.54,0h4.44v-.56h-4.44v.56Zm9.54,0h4.44v-.56h-4.44v.56Zm9.54,0h4.44v-.56h-4.44v.56Zm9.54,0h4.44v-.56h-4.44v.56Zm9.54,0h4.44v-.56h-4.44v.56Zm9.54,0h4.44v-.56h-4.44v.56Zm9.54,0h4.44v-.56h-4.44v.56Zm9.54,0h4.44v-.56h-4.44v.56Zm9.54,0h4.44v-.56h-4.44v.56Zm9.54,0h4.44v-.56h-4.44v.56Zm9.54,0h4.44v-.56h-4.44v.56Zm9.54,0h4.44v-.56h-4.44v.56Zm9.54,0h4.44v-.56h-4.44v.56Zm9.54,0h4.44v-.56h-4.44v.56Zm9.54,0h4.44v-.56h-4.44v.56Zm9.54,0h4.44v-.56h-4.44v.56Z" style="fill:#0d0d0b;"/><g style="clip-path:url(#b); fill:none;"><path d="m168.11,223.25h-4.44v.56h4.44v-.56Zm-9.54,0h-4.44v.56h4.44v-.56Zm-9.54,0h-4.44v.56h4.44v-.56Zm-9.54,0h-4.44v.56h4.44v-.56Zm-9.54,0h-4.44v.56h4.44v-.56Zm-9.54,0h-4.44v.56h4.44v-.56Zm-9.54,0h-4.44v.56h4.44v-.56Zm-9.54,0h-4.44v.56h4.44v-.56Zm-9.54,0h-4.44v.56h4.44v-.56Zm-9.54,0h-4.44v.56h4.44v-.56Zm-9.54,0h-4.44v.56h4.44v-.56Zm-9.54,0h-4.44v.56h4.44v-.56Zm-9.54,0h-4.44v.56h4.44v-.56Zm-9.54,0h-4.44v.56h4.44v-.56Zm-9.54,0h-4.44v.56h4.44v-.56Zm-9.54,0h-4.44v.56h4.44v-.56Zm-9.54,0h-4.44v.56h4.44v-.56Z" style="fill:none; stroke:#0d0d0b; stroke-width:.15px;"/></g><path d="m11.62,2.61h4.43v-.56h-4.43v.56Zm9.54,0h4.43v-.56h-4.43v.56Zm9.54,0h4.44v-.56h-4.44v.56Zm9.54,0h4.44v-.56h-4.44v.56Zm9.54,0h4.44v-.56h-4.44v.56Zm9.54,0h4.44v-.56h-4.44v.56Zm9.54,0h4.44v-.56h-4.44v.56Zm9.54,0h4.44v-.56h-4.44v.56Zm9.54,0h4.44v-.56h-4.44v.56Zm9.54,0h4.44v-.56h-4.44v.56Zm9.54,0h4.44v-.56h-4.44v.56Zm9.54,0h4.44v-.56h-4.44v.56Zm9.54,0h4.44v-.56h-4.44v.56Zm9.54,0h4.44v-.56h-4.44v.56Zm9.54,0h4.44v-.56h-4.44v.56Zm9.54,0h4.44v-.56h-4.44v.56Zm9.54,0h4.44v-.56h-4.44v.56Z" style="fill:#0d0d0b;"/><path d="m168.7,2.06h-4.44v.56h4.44v-.56Zm-9.54,0h-4.44v.56h4.44v-.56Zm-9.54,0h-4.44v.56h4.44v-.56Zm-9.54,0h-4.44v.56h4.44v-.56Zm-9.54,0h-4.44v.56h4.44v-.56Zm-9.54,0h-4.44v.56h4.44v-.56Zm-9.54,0h-4.44v.56h4.44v-.56Zm-9.54,0h-4.44v.56h4.44v-.56Zm-9.54,0h-4.44v.56h4.44v-.56Zm-9.54,0h-4.44v.56h4.44v-.56Zm-9.54,0h-4.44v.56h4.44v-.56Zm-9.54,0h-4.44v.56h4.44v-.56Zm-9.54,0h-4.44v.56h4.44v-.56Zm-9.54,0h-4.44v.56h4.44v-.56Zm-9.54,0h-4.44v.56h4.44v-.56Zm-9.54,0h-4.44v.56h4.44v-.56Zm-9.54,0h-4.44v.56h4.44v-.56Z" style="fill:none; stroke:#0d0d0b; stroke-width:.15px;"/><polygon points="2.91 220.73 3.08 222.09 1.84 221.54 1.64 222.17 2.99 222.41 2.04 223.4 2.56 223.8 3.26 222.62 3.93 223.81 4.46 223.4 3.53 222.43 4.87 222.2 4.67 221.55 3.42 222.09 3.58 220.73 2.91 220.73" style="fill:#0d0d0b;"/><g style="clip-path:url(#c); fill:none;"><polygon points="4.87 222.2 4.67 221.55 3.42 222.09 3.58 220.73 2.91 220.73 3.08 222.09 1.84 221.54 1.64 222.17 2.99 222.41 2.04 223.4 2.56 223.8 3.26 222.62 3.93 223.81 4.46 223.4 3.52 222.43 4.87 222.2" style="fill:none; stroke:#0d0d0b; stroke-width:.15px;"/></g><polygon points="2.91 .8 3.08 2.15 1.84 1.61 1.64 2.24 2.99 2.47 2.04 3.47 2.56 3.86 3.26 2.69 3.93 3.87 4.46 3.47 3.53 2.5 4.87 2.26 4.67 1.61 3.42 2.15 3.58 .8 2.91 .8" style="fill:#0d0d0b;"/><g style="clip-path:url(#d); fill:none;"><polygon points="4.87 2.26 4.67 1.61 3.42 2.15 3.58 .8 2.91 .8 3.08 2.15 1.84 1.61 1.64 2.24 2.99 2.47 2.04 3.47 2.56 3.86 3.26 2.69 3.93 3.87 4.46 3.47 3.52 2.5 4.87 2.26" style="fill:none; stroke:#0d0d0b; stroke-width:.15px;"/></g><polygon points="175.55 220.76 175.71 222.12 174.48 221.57 174.28 222.2 175.62 222.43 174.68 223.43 175.2 223.82 175.89 222.65 176.57 223.83 177.1 223.43 176.16 222.46 177.51 222.22 177.31 221.58 176.06 222.12 176.22 220.76 175.55 220.76" style="fill:#0d0d0b;"/><g style="clip-path:url(#e); fill:none;"><polygon points="177.51 222.22 177.31 221.57 176.06 222.11 176.22 220.76 175.55 220.76 175.72 222.11 174.48 221.57 174.28 222.2 175.63 222.43 174.68 223.43 175.2 223.82 175.9 222.65 176.57 223.83 177.1 223.43 176.16 222.46 177.51 222.22" style="fill:none; stroke:#0d0d0b; stroke-width:.15px;"/></g><polygon points="175.55 .83 175.71 2.19 174.48 1.64 174.28 2.27 175.62 2.51 174.68 3.51 175.2 3.9 175.89 2.72 176.57 3.91 177.1 3.51 176.16 2.53 177.51 2.3 177.31 1.65 176.06 2.19 176.22 .83 175.55 .83" style="fill:#0d0d0b;"/><polygon points="177.51 2.3 177.31 1.65 176.06 2.19 176.22 .83 175.55 .83 175.72 2.19 174.48 1.64 174.28 2.27 175.63 2.51 174.68 3.51 175.2 3.9 175.9 2.72 176.57 3.91 177.1 3.51 176.16 2.53 177.51 2.3" style="fill:none; stroke:#0d0d0b; stroke-width:.15px;"/><path d="m175.6,212.82h.56v-4.44h-.56v4.44Zm0-9.53h.56v-4.43h-.56v4.43Zm0-9.53h.56v-4.44h-.56v4.44Zm0-9.53h.56v-4.44h-.56v4.44Zm0-9.53h.56v-4.44h-.56v4.44Zm0-9.53h.56v-4.44h-.56v4.44Zm0-9.53h.56v-4.44h-.56v4.44Zm0-9.53h.56v-4.43h-.56v4.43Zm0-9.53h.56v-4.44h-.56v4.44Zm0-9.53h.56v-4.43h-.56v4.43Zm0-9.53h.56v-4.44h-.56v4.44Zm0-9.53h.56v-4.43h-.56v4.43Zm0-9.53h.56v-4.44h-.56v4.44Zm0-9.53h.56v-4.43h-.56v4.43Zm0-9.53h.56v-4.44h-.56v4.44Zm0-9.53h.56v-4.43h-.56v4.43Zm0-9.53h.56v-4.44h-.56v4.44Zm0-9.53h.56v-4.44h-.56v4.44Zm0-9.53h.56v-4.44h-.56v4.44Zm0-9.53h.56v-4.44h-.56v4.44Zm0-9.53h.56v-4.44h-.56v4.44Zm0-9.53h.56v-4.44h-.56v4.44Z" style="fill:#0d0d0b;"/><path d="m176.16,208.39h-.56v4.44h.56v-4.44Zm0-9.53h-.56v4.44h.56v-4.44Zm0-9.53h-.56v4.44h.56v-4.44Zm0-9.53h-.56v4.44h.56v-4.44Zm0-9.53h-.56v4.44h.56v-4.44Zm0-9.53h-.56v4.44h.56v-4.44Zm0-9.53h-.56v4.44h.56v-4.44Zm0-9.53h-.56v4.44h.56v-4.44Zm0-9.53h-.56v4.44h.56v-4.44Zm0-9.53h-.56v4.44h.56v-4.44Zm0-9.53h-.56v4.44h.56v-4.44Zm0-9.53h-.56v4.44h.56v-4.44Zm0-9.53h-.56v4.44h.56v-4.44Zm0-9.53h-.56v4.44h.56v-4.44Zm0-9.53h-.56v4.44h.56v-4.44Zm0-9.53h-.56v4.44h.56v-4.44Zm0-9.53h-.56v4.44h.56v-4.44Zm0-9.53h-.56v4.44h.56v-4.44Zm0-9.53h-.56v4.44h.56v-4.44Zm0-9.53h-.56v4.44h.56v-4.44Zm0-9.53h-.56v4.44h.56v-4.44Zm0-9.53h-.56v4.44h.56v-4.44Z" style="fill:none; stroke:#0d0d0b; stroke-width:.15px;"/><path d="m2.94,214.24h.56v-4.44h-.56v4.44Zm0-9.53h.56v-4.44h-.56v4.44Zm0-9.53h.56v-4.44h-.56v4.44Zm0-9.53h.56v-4.44h-.56v4.44Zm0-9.53h.56v-4.44h-.56v4.44Zm0-9.53h.56v-4.44h-.56v4.44Zm0-9.53h.56v-4.44h-.56v4.44Zm0-9.53h.56v-4.44h-.56v4.44Zm0-9.53h.56v-4.44h-.56v4.44Zm0-9.53h.56v-4.44h-.56v4.44Zm0-9.53h.56v-4.44h-.56v4.44Zm0-9.53h.56v-4.43h-.56v4.43Zm0-9.53h.56v-4.44h-.56v4.44Zm0-9.53h.56v-4.43h-.56v4.43Zm0-9.53h.56v-4.44h-.56v4.44Zm0-9.53h.56v-4.43h-.56v4.43Zm0-9.53h.56v-4.44h-.56v4.44Zm0-9.53h.56v-4.43h-.56v4.43Zm0-9.53h.56v-4.44h-.56v4.44Zm0-9.53h.56v-4.43h-.56v4.43Zm0-9.53h.56v-4.44h-.56v4.44Zm0-9.53h.56v-4.43h-.56v4.43Z" style="fill:#0d0d0b;"/><path d="m3.5,209.8h-.56v4.44h.56v-4.44Zm0-9.53h-.56v4.44h.56v-4.44Zm0-9.53h-.56v4.44h.56v-4.44Zm0-9.53h-.56v4.44h.56v-4.44Zm0-9.53h-.56v4.44h.56v-4.44Zm0-9.53h-.56v4.44h.56v-4.44Zm0-9.53h-.56v4.44h.56v-4.44Zm0-9.53h-.56v4.44h.56v-4.44Zm0-9.53h-.56v4.44h.56v-4.44Zm0-9.53h-.56v4.44h.56v-4.44Zm0-9.53h-.56v4.44h.56v-4.44Zm0-9.53h-.56v4.44h.56v-4.44Zm0-9.53h-.56v4.44h.56v-4.44Zm0-9.53h-.56v4.44h.56v-4.44Zm0-9.53h-.56v4.44h.56v-4.44Zm0-9.53h-.56v4.44h.56v-4.44Zm0-9.53h-.56v4.44h.56v-4.44Zm0-9.53h-.56v4.44h.56v-4.44Zm0-9.53h-.56v4.44h.56v-4.44Zm0-9.53h-.56v4.44h.56v-4.44Zm0-9.53h-.56v4.44h.56v-4.44Zm0-9.53h-.56v4.44h.56v-4.44Z" style="fill:none; stroke:#0d0d0b; stroke-width:.15px;"/><g style="clip-path:url(#f); fill:none;"><path d="m106.23,61.78h2.48v-.45h-2.48v.45Zm1.93,2.2c0,.86-.25,1.32-.69,1.32s-.69-.46-.69-1.32.23-1.33.69-1.33.69.47.69,1.33m.43,0c0-1.12-.4-1.74-1.12-1.74s-1.12.63-1.12,1.74.39,1.74,1.12,1.74,1.12-.63,1.12-1.74" style="fill:#0d0d0b;"/><path d="m106.23,61.78h2.48v-.45h-2.48v.45Zm1.93,2.2c0,.86-.25,1.32-.69,1.32s-.69-.46-.69-1.32.23-1.33.69-1.33.69.47.69,1.33Zm.43,0c0-1.12-.4-1.74-1.12-1.74s-1.12.63-1.12,1.74.39,1.74,1.12,1.74,1.12-.63,1.12-1.74Z" style="fill:none; stroke:#0d0d0b; stroke-width:.15px;"/></g><rect x="58.74" y="103.82" width="3.02" height=".54" style="fill:#0d0d0b;"/><rect x="58.74" y="103.82" width="3.02" height=".54" style="fill:none; stroke:#0d0d0b; stroke-width:.15px;"/><polygon points="64.04 104.27 68.39 103.19 68.26 102.66 63.91 103.74 64.04 104.27" style="fill:#0d0d0b;"/><polygon points="64.04 104.27 68.39 103.19 68.26 102.66 63.91 103.74 64.04 104.27" style="fill:none; stroke:#0d0d0b; stroke-width:.15px;"/><polygon points="64.46 106.25 68.78 107.44 68.93 106.92 64.61 105.72 64.46 106.25" style="fill:#0d0d0b;"/><polygon points="64.46 106.25 68.78 107.44 68.93 106.92 64.61 105.72 64.46 106.25" style="fill:none; stroke:#0d0d0b; stroke-width:.15px;"/><polygon points="70.28 102.58 74.35 100.72 74.13 100.23 70.05 102.08 70.28 102.58" style="fill:#0d0d0b;"/><polygon points="70.28 102.58 74.35 100.72 74.13 100.23 70.05 102.08 70.28 102.58" style="fill:none; stroke:#0d0d0b; stroke-width:.15px;"/><polygon points="76.01 99.61 79.71 97.07 79.4 96.62 75.7 99.15 76.01 99.61" style="fill:#0d0d0b;"/><polygon points="76.01 99.61 79.71 97.07 79.4 96.62 75.7 99.15 76.01 99.61" style="fill:none; stroke:#0d0d0b; stroke-width:.15px;"/><polygon points="70.28 95.45 74.18 97.65 74.45 97.18 70.55 94.97 70.28 95.45" style="fill:#0d0d0b;"/><polygon points="70.28 95.45 74.18 97.65 74.45 97.18 70.55 94.97 70.28 95.45" style="fill:none; stroke:#0d0d0b; stroke-width:.15px;"/><polygon points="65.95 89.35 68.09 93.29 68.56 93.03 66.43 89.09 65.95 89.35" style="fill:#0d0d0b;"/><polygon points="65.95 89.35 68.09 93.29 68.56 93.03 66.43 89.09 65.95 89.35" style="fill:none; stroke:#0d0d0b; stroke-width:.15px;"/><polygon points="67.94 89.23 67.99 89.77 72.45 89.35 72.4 88.81 67.94 89.23" style="fill:#0d0d0b;"/><polygon points="67.99 89.77 72.45 89.35 72.4 88.81 67.94 89.23 67.99 89.77" style="fill:none; stroke:#0d0d0b; stroke-width:.15px;"/><polygon points="65.27 84.68 68.67 87.59 69.03 87.17 65.63 84.26 65.27 84.68" style="fill:#0d0d0b;"/><polygon points="65.27 84.68 68.67 87.59 69.03 87.17 65.63 84.26 65.27 84.68" style="fill:none; stroke:#0d0d0b; stroke-width:.15px;"/><polygon points="61.08 79.14 63.21 83.08 63.69 82.82 61.56 78.88 61.08 79.14" style="fill:#0d0d0b;"/><polygon points="61.08 79.14 63.21 83.08 63.69 82.82 61.56 78.88 61.08 79.14" style="fill:none; stroke:#0d0d0b; stroke-width:.15px;"/><polygon points="61.14 76.1 65.35 77.63 65.54 77.12 61.33 75.58 61.14 76.1" style="fill:#0d0d0b;"/><polygon points="61.14 76.1 65.35 77.63 65.54 77.12 61.33 75.58 61.14 76.1" style="fill:none; stroke:#0d0d0b; stroke-width:.15px;"/><polygon points="62.84 71.48 64.9 75.45 65.38 75.2 63.32 71.22 62.84 71.48" style="fill:#0d0d0b;"/><polygon points="62.84 71.48 64.9 75.45 65.38 75.2 63.32 71.22 62.84 71.48" style="fill:none; stroke:#0d0d0b; stroke-width:.15px;"/><polygon points="60.27 65.43 61.62 69.71 62.13 69.55 60.79 65.27 60.27 65.43" style="fill:#0d0d0b;"/><polygon points="60.27 65.43 61.62 69.71 62.13 69.55 60.79 65.27 60.27 65.43" style="fill:none; stroke:#0d0d0b; stroke-width:.15px;"/><polygon points="62.02 58.69 60.6 62.94 61.12 63.11 62.55 58.86 62.02 58.69" style="fill:#0d0d0b;"/><polygon points="62.02 58.69 60.6 62.94 61.12 63.11 62.55 58.86 62.02 58.69" style="fill:none; stroke:#0d0d0b; stroke-width:.15px;"/><polygon points="63.02 59.2 66.05 62.51 66.45 62.14 63.43 58.83 63.02 59.2" style="fill:#0d0d0b;"/><polygon points="63.02 59.2 66.05 62.51 66.45 62.14 63.43 58.83 63.02 59.2" style="fill:none; stroke:#0d0d0b; stroke-width:.15px;"/><polygon points="67.31 63.12 71 65.66 71.31 65.22 67.62 62.67 67.31 63.12" style="fill:#0d0d0b;"/><polygon points="67.31 63.12 71 65.66 71.31 65.22 67.62 62.67 67.31 63.12" style="fill:none; stroke:#0d0d0b; stroke-width:.15px;"/><polygon points="72.28 66.52 75.97 69.06 76.28 68.61 72.59 66.06 72.28 66.52" style="fill:#0d0d0b;"/><polygon points="72.28 66.52 75.97 69.06 76.28 68.61 72.59 66.06 72.28 66.52" style="fill:none; stroke:#0d0d0b; stroke-width:.15px;"/><polygon points="78.29 69.72 82.37 71.58 82.59 71.08 78.52 69.22 78.29 69.72" style="fill:#0d0d0b;"/><polygon points="78.29 69.72 82.37 71.58 82.59 71.08 78.52 69.22 78.29 69.72" style="fill:none; stroke:#0d0d0b; stroke-width:.15px;"/><polygon points="85.3 72.29 89.77 72.68 89.81 72.14 85.35 71.74 85.3 72.29" style="fill:#0d0d0b;"/><polygon points="85.3 72.29 89.77 72.68 89.81 72.14 85.35 71.74 85.3 72.29" style="fill:none; stroke:#0d0d0b; stroke-width:.15px;"/><polygon points="91.28 70.73 91.82 70.74 91.91 66.26 91.36 66.25 91.28 70.73" style="fill:#0d0d0b;"/><polygon points="91.36 66.25 91.28 70.73 91.82 70.74 91.91 66.26 91.36 66.25" style="fill:none; stroke:#0d0d0b; stroke-width:.15px;"/><polygon points="94.29 60.79 92.15 64.73 92.62 64.99 94.77 61.05 94.29 60.79" style="fill:#0d0d0b;"/><polygon points="94.29 60.79 92.15 64.73 92.62 64.99 94.77 61.05 94.29 60.79" style="fill:none; stroke:#0d0d0b; stroke-width:.15px;"/><polygon points="99.06 57.18 95.28 59.59 95.57 60.05 99.35 57.65 99.06 57.18" style="fill:#0d0d0b;"/><polygon points="99.06 57.18 95.28 59.59 95.57 60.05 99.35 57.65 99.06 57.18" style="fill:none; stroke:#0d0d0b; stroke-width:.15px;"/><polygon points="104.74 55.83 100.35 56.73 100.46 57.26 104.85 56.37 104.74 55.83" style="fill:#0d0d0b;"/><polygon points="104.74 55.83 100.35 56.73 100.46 57.26 104.85 56.37 104.74 55.83" style="fill:none; stroke:#0d0d0b; stroke-width:.15px;"/><polygon points="112.19 57.88 108.05 56.16 107.84 56.66 111.98 58.39 112.19 57.88" style="fill:#0d0d0b;"/><polygon points="112.19 57.88 108.05 56.16 107.84 56.66 111.98 58.39 112.19 57.88" style="fill:none; stroke:#0d0d0b; stroke-width:.15px;"/><polygon points="119.25 58.86 115 60.28 115.18 60.8 119.43 59.38 119.25 58.86" style="fill:#0d0d0b;"/><polygon points="119.25 58.86 115 60.28 115.18 60.8 119.43 59.38 119.25 58.86" style="fill:none; stroke:#0d0d0b; stroke-width:.15px;"/><polygon points="122.43 59.5 118.97 62.35 119.31 62.77 122.78 59.92 122.43 59.5" style="fill:#0d0d0b;"/><polygon points="122.43 59.5 118.97 62.35 119.31 62.77 122.78 59.92 122.43 59.5" style="fill:none; stroke:#0d0d0b; stroke-width:.15px;"/><polygon points="121.8 63.13 117.4 64.03 117.51 64.56 121.91 63.67 121.8 63.13" style="fill:#0d0d0b;"/><polygon points="121.8 63.13 117.4 64.03 117.51 64.56 121.91 63.67 121.8 63.13" style="fill:none; stroke:#0d0d0b; stroke-width:.15px;"/><rect x="122.32" y="62.61" width="3.02" height=".54" transform="translate(-10.02 25.85) rotate(-11.46)" style="fill:#0d0d0b;"/><rect x="122.32" y="62.61" width="3.02" height=".54" transform="translate(-10.02 25.85) rotate(-11.46)" style="fill:none; stroke:#0d0d0b; stroke-width:.15px;"/><rect x="120.51" y="57.97" width="3.02" height=".54" transform="translate(-12.99 51.07) rotate(-22.47)" style="fill:#0d0d0b;"/><rect x="120.51" y="57.97" width="3.02" height=".54" transform="translate(-12.99 51.07) rotate(-22.47)" style="fill:none; stroke:#0d0d0b; stroke-width:.15px;"/><polygon points="125.36 63.56 122.11 66.64 122.49 67.03 125.74 63.96 125.36 63.56" style="fill:#0d0d0b;"/><polygon points="125.36 63.56 122.11 66.64 122.49 67.03 125.74 63.96 125.36 63.56" style="fill:none; stroke:#0d0d0b; stroke-width:.15px;"/><polygon points="121.89 67.41 118.28 70.07 118.61 70.51 122.21 67.85 121.89 67.41" style="fill:#0d0d0b;"/><polygon points="121.89 67.41 118.28 70.07 118.61 70.51 122.21 67.85 121.89 67.41" style="fill:none; stroke:#0d0d0b; stroke-width:.15px;"/><polygon points="71.11 108.7 75.58 108.93 75.61 108.39 71.14 108.15 71.11 108.7" style="fill:#0d0d0b;"/><polygon points="71.11 108.7 75.58 108.94 75.61 108.39 71.14 108.15 71.11 108.7" style="fill:none; stroke:#0d0d0b; stroke-width:.15px;"/><polygon points="110.51 92.96 112.98 89.23 112.53 88.93 110.05 92.66 110.51 92.96" style="fill:#0d0d0b;"/><polygon points="110.51 92.96 112.98 89.23 112.53 88.93 110.05 92.66 110.51 92.96" style="fill:none; stroke:#0d0d0b; stroke-width:.15px;"/><polygon points="92.62 107.52 96.76 105.8 96.55 105.3 92.41 107.01 92.62 107.52" style="fill:#0d0d0b;"/><polygon points="92.62 107.52 96.76 105.8 96.55 105.3 92.41 107.01 92.62 107.52" style="fill:none; stroke:#0d0d0b; stroke-width:.15px;"/><polygon points="79.3 109.31 83.78 109.31 83.78 108.77 79.3 108.76 79.3 109.31" style="fill:#0d0d0b;"/><polygon points="79.3 109.31 83.78 109.31 83.78 108.77 79.3 108.76 79.3 109.31" style="fill:none; stroke:#0d0d0b; stroke-width:.15px;"/><polygon points="114.14 86.92 116.07 82.88 115.58 82.64 113.64 86.68 114.14 86.92" style="fill:#0d0d0b;"/><polygon points="114.14 86.92 116.07 82.88 115.58 82.64 113.64 86.68 114.14 86.92" style="fill:none; stroke:#0d0d0b; stroke-width:.15px;"/><polygon points="100.25 103.92 103.6 100.95 103.25 100.54 99.88 103.5 100.25 103.92" style="fill:#0d0d0b;"/><polygon points="100.25 103.92 103.6 100.95 103.25 100.54 99.88 103.5 100.25 103.92" style="fill:none; stroke:#0d0d0b; stroke-width:.15px;"/><polygon points="85.94 109.01 90.29 107.93 90.16 107.4 85.81 108.48 85.94 109.01" style="fill:#0d0d0b;"/><polygon points="85.94 109.01 90.29 107.93 90.16 107.4 85.81 108.48 85.94 109.01" style="fill:none; stroke:#0d0d0b; stroke-width:.15px;"/><polygon points="116.53 81.62 117.72 77.3 117.2 77.16 116 81.47 116.53 81.62" style="fill:#0d0d0b;"/><polygon points="116.53 81.62 117.72 77.3 117.2 77.16 116 81.47 116.53 81.62" style="fill:none; stroke:#0d0d0b; stroke-width:.15px;"/><polygon points="106.48 98.42 109.56 95.17 109.17 94.8 106.08 98.04 106.48 98.42" style="fill:#0d0d0b;"/><polygon points="106.48 98.42 109.56 95.17 109.17 94.8 106.08 98.04 106.48 98.42" style="fill:none; stroke:#0d0d0b; stroke-width:.15px;"/><polygon points="117.63 75.58 119.16 71.37 118.65 71.18 117.11 75.39 117.63 75.58" style="fill:#0d0d0b;"/><polygon points="117.63 75.58 119.16 71.37 118.65 71.18 117.11 75.39 117.63 75.58" style="fill:none; stroke:#0d0d0b; stroke-width:.15px;"/><g style="clip-path:url(#g); fill:none;"><path d="m130.84,204.54l-1.71,2.1v-3.9h-.58v6.3h.58v-1.51l.58-.7,1.39,2.21h.68l-1.71-2.66,1.5-1.83h-.73Zm-4.95-.09c-.46,0-.88.23-1.13.73v-.64h-.58v4.5h.58v-2.45c0-.9.4-1.58,1.03-1.58.44,0,.67.29.71.86h.58c-.04-.89-.5-1.42-1.19-1.42m-5.28,4.12c.76,0,1.03-.78,1.03-1.78s-.27-1.78-1.03-1.78-1.04.81-1.04,1.78.28,1.78,1.04,1.78m0-4.12c.75,0,1.23.49,1.46,1.2.11.35.16.74.16,1.14,0,1.32-.51,2.34-1.62,2.34s-1.62-1.02-1.62-2.34.53-2.34,1.62-2.34m-4.47,1.73l1.69-3.44h-.65l-1.34,2.84-1.32-2.84h-.66l1.69,3.45v2.85h.58v-2.86Zm-10.11-.36l-.64,2.24-.5-3.52h-.58l.75,4.5h.58l.67-2.36.67,2.36h.58l.75-4.5h-.58l-.5,3.52-.64-2.24h-.56Zm-4.46-.81c.62,0,.96.59,1.03,1.38h-2.13c.1-.79.46-1.38,1.11-1.38m0-.56c-.75,0-1.27.48-1.52,1.19-.13.35-.19.74-.19,1.15,0,.83.24,1.59.76,2.02.26.22.58.32.95.32.83,0,1.42-.59,1.56-1.48h-.59c-.14.62-.45.93-.96.93-.72,0-1.09-.74-1.12-1.63h2.76c.03-1.38-.49-2.49-1.64-2.49m-3.15-1.71h-.59l.03,5.15-2.08-5.15h-.68v6.3h.59l-.03-5.14,2.09,5.14h.67v-6.3Zm-11.14,5.83c-.75,0-1.08-.77-1.08-1.78s.33-1.77,1.08-1.77c.66,0,1.02.66,1.02,1.77s-.36,1.78-1.02,1.78m.98-3.43c-.21-.42-.61-.68-1.05-.68-1.03,0-1.59,1-1.59,2.33s.56,2.34,1.59,2.34c.47,0,.86-.29,1.07-.72v.63h.57v-6.3h-.58v2.4Zm-5.53-.69c-.54,0-1.01.26-1.27.74v-.65s-.59,0-.59,0v4.5h.58v-2.45c0-.97.41-1.58,1.2-1.58.55,0,.78.39.78,1.01v3.02h.58v-3.02c0-.93-.46-1.57-1.29-1.57m-5.25,4.13c-.49,0-.83-.27-.83-.74,0-.68.8-.96,1.7-.96h.36v.25c0,.82-.48,1.45-1.23,1.45m.41-4.13c-.76,0-1.41.49-1.51,1.35h.59c.04-.51.45-.79.92-.79.51,0,.81.33.81,1.03v.31h-.31c-1.31,0-2.33.44-2.33,1.51,0,.78.59,1.28,1.38,1.28.48,0,1.04-.28,1.25-.76l.02.66h.57v-3c0-1.01-.52-1.58-1.39-1.58m-8.23,1.25c-.14-.8-.74-1.25-1.49-1.25s-1.43.47-1.43,1.16c0,.46.29.83.85,1.11l1.04.52c.32.17.52.32.52.68,0,.4-.42.66-.94.66s-.94-.26-1.1-.83h-.59c.17.85.86,1.38,1.69,1.38.53,0,1.03-.21,1.31-.57.14-.18.21-.39.21-.63,0-.58-.31-.93-.82-1.18l-1.04-.52c-.4-.19-.57-.34-.57-.62,0-.37.4-.6.86-.6.44,0,.78.22.9.69h.59Zm-4.81,2.77h-1.19v-3.94h-1.57v.56h.98v3.38h-1.21v.56h2.98v-.56Zm-1.55-4.63c.25,0,.45-.21.45-.46s-.2-.45-.45-.45-.45.21-.45.45.2.46.45.46m-4.19.6c-.46,0-.88.23-1.13.73v-.64h-.58v4.5h.57v-2.45c0-.9.4-1.58,1.04-1.58.44,0,.67.29.71.86h.58c-.04-.89-.5-1.42-1.19-1.42m-5.49,4.13c-.49,0-.83-.27-.83-.74,0-.68.8-.96,1.7-.96h.36v.25c0,.82-.48,1.45-1.23,1.45m.42-4.13c-.77,0-1.41.49-1.51,1.35h.59c.04-.51.45-.79.92-.79.51,0,.81.33.81,1.03v.31h-.31c-1.31,0-2.33.44-2.33,1.51,0,.78.59,1.28,1.38,1.28.48,0,1.05-.28,1.25-.76l.02.66h.57v-3c0-1.01-.52-1.58-1.39-1.58m-6.18,1.47v-2.62h1.31c.68,0,1.05.56,1.05,1.31s-.38,1.31-1.05,1.31h-1.31Zm-.58-3.18v6.3h.58v-2.56h1.31c.65,0,1.17-.36,1.44-.93.13-.28.2-.59.2-.94,0-.68-.28-1.28-.77-1.61-.25-.17-.54-.25-.86-.25h-1.89Z" style="fill:#0d0d0b;"/><path d="m130.84,204.54l-1.71,2.1v-3.9h-.58v6.3h.58v-1.51l.58-.7,1.39,2.21h.68l-1.71-2.66,1.5-1.83h-.73Zm-4.95-.09c-.46,0-.88.23-1.13.73v-.64h-.58v4.5h.58v-2.45c0-.9.4-1.58,1.03-1.58.44,0,.67.29.71.86h.58c-.04-.89-.5-1.42-1.19-1.42Zm-5.28,4.12c.76,0,1.03-.78,1.03-1.78s-.27-1.78-1.03-1.78-1.04.81-1.04,1.78.28,1.78,1.04,1.78Zm0-4.12c.75,0,1.23.49,1.46,1.2.11.35.16.74.16,1.14,0,1.32-.51,2.34-1.62,2.34s-1.62-1.02-1.62-2.34.53-2.34,1.62-2.34Zm-4.47,1.73l1.69-3.44h-.65l-1.34,2.84-1.32-2.84h-.66l1.69,3.45v2.85h.58v-2.86Zm-10.11-.36l-.64,2.24-.5-3.52h-.58l.75,4.5h.58l.67-2.36.67,2.36h.58l.75-4.5h-.58l-.5,3.52-.64-2.24h-.56Zm-4.46-.81c.62,0,.96.59,1.03,1.38h-2.13c.1-.79.46-1.38,1.11-1.38Zm0-.56c-.75,0-1.27.48-1.52,1.19-.13.35-.19.74-.19,1.15,0,.83.24,1.59.76,2.02.26.22.58.32.95.32.83,0,1.42-.59,1.56-1.48h-.59c-.14.62-.45.93-.96.93-.72,0-1.09-.74-1.12-1.63h2.76c.03-1.38-.49-2.49-1.64-2.49Zm-3.15-1.71h-.59l.03,5.15-2.08-5.15h-.68v6.3h.59l-.03-5.14,2.09,5.14h.67v-6.3Zm-11.14,5.83c-.75,0-1.08-.77-1.08-1.78s.33-1.77,1.08-1.77c.66,0,1.02.66,1.02,1.77s-.36,1.78-1.02,1.78Zm.98-3.43c-.21-.42-.61-.68-1.05-.68-1.03,0-1.59,1-1.59,2.33s.56,2.34,1.59,2.34c.47,0,.86-.29,1.07-.72v.63h.57v-6.3h-.58v2.4Zm-5.53-.69c-.54,0-1.01.26-1.27.74v-.65s-.59,0-.59,0v4.5h.58v-2.45c0-.97.41-1.58,1.2-1.58.55,0,.78.39.78,1.01v3.02h.58v-3.02c0-.93-.46-1.57-1.29-1.57Zm-5.25,4.13c-.49,0-.83-.27-.83-.74,0-.68.8-.96,1.7-.96h.36v.25c0,.82-.48,1.45-1.23,1.45Zm.41-4.13c-.76,0-1.41.49-1.51,1.35h.59c.04-.51.45-.79.92-.79.51,0,.81.33.81,1.03v.31h-.31c-1.31,0-2.33.44-2.33,1.51,0,.78.59,1.28,1.38,1.28.48,0,1.04-.28,1.25-.76l.02.66h.57v-3c0-1.01-.52-1.58-1.39-1.58Zm-8.23,1.25c-.14-.8-.74-1.25-1.49-1.25s-1.43.47-1.43,1.16c0,.46.29.83.85,1.11l1.04.52c.32.17.52.32.52.68,0,.4-.42.66-.94.66s-.94-.26-1.1-.83h-.59c.17.85.86,1.38,1.69,1.38.53,0,1.03-.21,1.31-.57.14-.18.21-.39.21-.63,0-.58-.31-.93-.82-1.18l-1.04-.52c-.4-.19-.57-.34-.57-.62,0-.37.4-.6.86-.6.44,0,.78.22.9.69h.59Zm-4.81,2.77h-1.19v-3.94h-1.57v.56h.98v3.38h-1.21v.56h2.98v-.56Zm-1.55-4.63c.25,0,.45-.21.45-.46s-.2-.45-.45-.45-.45.21-.45.45.2.46.45.46Zm-4.19.6c-.46,0-.88.23-1.13.73v-.64h-.58v4.5h.57v-2.45c0-.9.4-1.58,1.04-1.58.44,0,.67.29.71.86h.58c-.04-.89-.5-1.42-1.19-1.42Zm-5.49,4.13c-.49,0-.83-.27-.83-.74,0-.68.8-.96,1.7-.96h.36v.25c0,.82-.48,1.45-1.23,1.45Zm.42-4.13c-.77,0-1.41.49-1.51,1.35h.59c.04-.51.45-.79.92-.79.51,0,.81.33.81,1.03v.31h-.31c-1.31,0-2.33.44-2.33,1.51,0,.78.59,1.28,1.38,1.28.48,0,1.05-.28,1.25-.76l.02.66h.57v-3c0-1.01-.52-1.58-1.39-1.58Zm-6.18,1.47v-2.62h1.31c.68,0,1.05.56,1.05,1.31s-.38,1.31-1.05,1.31h-1.31Zm-.58-3.18v6.3h.58v-2.56h1.31c.65,0,1.17-.36,1.44-.93.13-.28.2-.59.2-.94,0-.68-.28-1.28-.77-1.61-.25-.17-.54-.25-.86-.25h-1.89Z" style="fill:none; stroke:#0d0d0b; stroke-width:.15px;"/><path d="m161.42,193.65c-.54,0-1.01.26-1.27.74v-.65s-.59,0-.59,0v4.5h.58v-2.45c0-.97.41-1.58,1.2-1.58.55,0,.78.39.78,1.01v3.02h.58v-3.02c0-.93-.46-1.57-1.29-1.57m-5.01.56c.62,0,.96.58,1.03,1.38h-2.13c.1-.79.46-1.38,1.11-1.38m0-.56c-.75,0-1.27.48-1.52,1.19-.13.35-.19.74-.19,1.15,0,.83.24,1.59.75,2.02.26.22.58.32.96.32.83,0,1.42-.59,1.56-1.49h-.59c-.13.62-.45.93-.96.93-.72,0-1.09-.74-1.13-1.63h2.76c.03-1.38-.49-2.49-1.64-2.49m-4.77.56c.62,0,.96.58,1.03,1.38h-2.13c.1-.79.46-1.38,1.11-1.38m0-.56c-.75,0-1.27.48-1.52,1.19-.13.35-.19.74-.19,1.15,0,.83.24,1.59.76,2.02.26.22.58.32.95.32.83,0,1.42-.59,1.56-1.49h-.59c-.14.62-.45.93-.96.93-.72,0-1.09-.74-1.13-1.63h2.76c.03-1.38-.49-2.49-1.64-2.49m-5.08,1.37l-.64,2.24-.49-3.52h-.59l.75,4.5h.59l.67-2.36.67,2.36h.58l.75-4.5h-.59l-.49,3.52-.64-2.24h-.56Zm-3.1,2.45c-.22.12-.58.22-.78.22-.42,0-.62-.17-.62-.65v-2.75h1.35v-.54h-1.35v-1.5h-.57v1.5h-1.08v.54h1.08v2.75c0,.75.42,1.2,1.15,1.2.25,0,.68-.08.94-.22l-.12-.56Zm-6.14-3.26c.62,0,.96.58,1.03,1.38h-2.13c.1-.79.46-1.38,1.11-1.38m0-.56c-.75,0-1.27.48-1.52,1.19-.13.35-.19.74-.19,1.15,0,.83.24,1.59.76,2.02.26.22.58.32.96.32.83,0,1.42-.59,1.56-1.49h-.59c-.13.62-.45.93-.96.93-.72,0-1.09-.74-1.13-1.63h2.76c.03-1.38-.49-2.49-1.64-2.49m-4.86,4.12c-.66,0-1.02-.67-1.02-1.78s.36-1.77,1.02-1.77c.75,0,1.08.77,1.08,1.77s-.33,1.78-1.08,1.78m.07-4.11c-.44,0-.85.26-1.05.68v-2.4h-.58v6.3h.56v-.63c.22.43.61.72,1.08.72,1.03,0,1.59-1.01,1.59-2.34s-.56-2.33-1.59-2.33m-9.66,4.11c-.75,0-1.08-.77-1.08-1.78s.33-1.77,1.08-1.77c.66,0,1.02.66,1.02,1.77s-.36,1.78-1.02,1.78m.98-4.03v.6c-.21-.42-.61-.68-1.05-.68-1.04,0-1.59,1-1.59,2.33s.56,2.34,1.59,2.34c.46,0,.86-.28,1.06-.71v.68c0,.76-.3,1.14-.95,1.14-.44,0-.86-.23-.95-.71h-.58c.04.53.39.93.85,1.12.23.1.45.14.68.14.98,0,1.54-.65,1.54-1.69v-4.56h-.59Zm-5.37-.09c-.54,0-1.01.26-1.27.74v-.65s-.59,0-.59,0v4.5h.58v-2.45c0-.97.41-1.58,1.2-1.58.55,0,.78.39.78,1.01v3.02h.58v-3.02c0-.93-.46-1.57-1.3-1.57m-3.56,4.02h-1.19v-3.94h-1.57v.56h.98v3.39h-1.21v.56h2.98v-.56Zm-1.55-4.63c.25,0,.45-.21.45-.46s-.2-.45-.45-.45-.45.21-.45.45.2.46.45.46m-6.44.69l1.49,4.45-.54,1.62h.6l1.95-6.07h-.61l-1.12,3.65-1.15-3.65h-.61Zm-1.5,3.94h-1.23v-5.75s-1.57,0-1.57,0v.56h.98v5.19h-1.25v.56h3.07v-.56Zm-4.69-5.58c-.28-.14-.72-.22-1-.22-.76,0-1.21.46-1.21,1.2v.65h-1.14v.56h1.14v3.94h.58v-3.94h1.44v-.56h-1.44v-.65c0-.48.23-.65.67-.65.23,0,.58.1.83.22l.13-.56Zm-9.63,2.8c-.14-.8-.74-1.25-1.49-1.25-.79,0-1.43.47-1.43,1.16,0,.46.29.83.85,1.11l1.04.52c.32.17.52.32.52.67,0,.4-.42.66-.94.66s-.95-.26-1.1-.83h-.59c.17.85.86,1.39,1.69,1.39.53,0,1.03-.21,1.31-.57.13-.18.21-.39.21-.63,0-.58-.31-.93-.82-1.18l-1.04-.52c-.41-.19-.57-.34-.57-.62,0-.37.4-.6.86-.6.44,0,.78.22.9.69h.59Zm-4.9,2.57c-.22.12-.58.22-.78.22-.42,0-.62-.17-.62-.65v-2.75h1.35v-.54h-1.35v-1.5h-.57v1.5h-1.08v.54h1.08v2.75c0,.75.42,1.2,1.15,1.2.25,0,.68-.08.94-.22l-.12-.56Zm-5.97-3.82c-.54,0-1.02.26-1.27.74v-.65s0-1.8,0-1.8h-.59v6.3h.58v-2.45c0-.97.42-1.58,1.2-1.58.55,0,.78.39.78,1.01v3.02h.58v-3.02c0-.93-.46-1.57-1.29-1.57m-5.08,4.12c-.75,0-1.08-.77-1.08-1.78s.33-1.77,1.08-1.77c.66,0,1.02.66,1.02,1.77s-.36,1.78-1.02,1.78m.98-4.03v.6c-.21-.42-.61-.68-1.05-.68-1.04,0-1.59,1-1.59,2.33s.56,2.34,1.59,2.34c.46,0,.86-.28,1.06-.71v.68c0,.76-.3,1.14-.95,1.14-.44,0-.86-.23-.95-.71h-.58c.04.53.39.93.85,1.12.22.1.45.14.68.14.98,0,1.54-.65,1.54-1.69v-4.56h-.59Zm-4.16,3.93h-1.19v-3.94h-1.57v.56h.98v3.39h-1.21v.56h2.98v-.56Zm-1.55-4.63c.25,0,.45-.21.45-.46s-.2-.45-.45-.45-.45.21-.45.45.2.46.45.46m-3.18,4.64h-1.23v-5.75s-1.57,0-1.57,0v.56h.98v5.19h-1.25v.56h3.07v-.56Zm-4.69-5.58c-.28-.14-.72-.22-1-.22-.76,0-1.2.46-1.2,1.2v.65h-1.14v.56h1.14v3.94h.58v-3.94h1.44v-.56h-1.44v-.65c0-.48.22-.65.67-.65.22,0,.58.1.83.22l.13-.56Zm-11.06,2.01c-.4,0-.86.18-1.18.54l.22-2.15h2.37v-.56h-2.89l-.36,3.39.53.08c.32-.51.78-.76,1.26-.76.8,0,1.27.66,1.27,1.55,0,.55-.23,1.05-.62,1.34-.21.14-.44.22-.71.22-.69,0-1.19-.48-1.3-1.08h-.59c.07.57.41,1.11.95,1.42.27.15.58.23.94.23.75,0,1.35-.41,1.67-1.07.16-.32.24-.68.24-1.06,0-.78-.31-1.45-.85-1.82-.28-.18-.59-.27-.96-.27m-4.91,3.66c-.83,0-1.42-.49-1.42-1.29s.6-1.31,1.42-1.31,1.41.52,1.41,1.31-.6,1.29-1.41,1.29m-1.18-4.28c0-.66.49-1.08,1.18-1.08s1.18.42,1.18,1.08-.46,1.13-1.18,1.13-1.18-.48-1.18-1.13m2.03,1.39c.58-.29.92-.76.92-1.39s-.34-1.15-.88-1.43c-.27-.13-.57-.21-.88-.21-.65,0-1.22.29-1.53.78-.15.25-.23.54-.23.86,0,.62.34,1.1.91,1.39-.67.22-1.15.91-1.15,1.59,0,.76.37,1.33.98,1.63.3.15.64.22,1.03.23.76,0,1.4-.32,1.75-.88.17-.28.25-.6.25-.98,0-.68-.48-1.38-1.15-1.59m-5.5,2.9c-.5,0-.94-.27-1.16-.74-.12-.23-.17-.49-.17-.77,0-.59.28-1.04.68-1.29.2-.12.41-.18.64-.18.79,0,1.3.61,1.3,1.49s-.52,1.5-1.29,1.5m.04-3.54c-.59,0-1.14.29-1.47.93.06-1.54.45-2.75,1.47-2.75.53,0,.93.36,1.08.96h.6c-.22-.96-.86-1.52-1.68-1.52-1.02,0-1.63.81-1.87,1.88-.13.53-.19,1.09-.19,1.66,0,1.69.61,2.93,2.01,2.93.72,0,1.32-.38,1.65-1,.16-.32.24-.67.24-1.05,0-.75-.31-1.4-.87-1.77-.28-.18-.6-.27-.96-.27m-5.21,2.92h.72l-.76,2.17h-.52l.56-2.17Zm-3.76-.86h-1.94l1.94-3.26v3.26Zm1.3.56v-.56h-.72v-4.36h-.58l-2.58,4.36v.56h2.58v1.4h.58v-1.4h.72Zm-9.9-4.74c-.28-.14-.72-.22-1-.22-.76,0-1.2.46-1.2,1.2v.65h-1.14v.56h1.14v3.94h.58v-3.94h1.44v-.56h-1.44v-.65c0-.48.23-.65.67-.65.23,0,.58.1.83.22l.13-.56Zm-6.38,5.67c.76,0,1.02-.78,1.02-1.78s-.27-1.78-1.02-1.78-1.04.81-1.04,1.78.28,1.78,1.04,1.78m0-4.12c.75,0,1.23.49,1.46,1.2.11.35.16.74.16,1.14,0,1.32-.51,2.34-1.62,2.34s-1.62-1.02-1.62-2.34.53-2.34,1.62-2.34" style="fill:#0d0d0b;"/><path d="m161.42,193.65c-.54,0-1.01.26-1.27.74v-.65s-.59,0-.59,0v4.5h.58v-2.45c0-.97.41-1.58,1.2-1.58.55,0,.78.39.78,1.01v3.02h.58v-3.02c0-.93-.46-1.57-1.29-1.57Zm-5.01.56c.62,0,.96.58,1.03,1.38h-2.13c.1-.79.46-1.38,1.11-1.38Zm0-.56c-.75,0-1.27.48-1.52,1.19-.13.35-.19.74-.19,1.15,0,.83.24,1.59.75,2.02.26.22.58.32.96.32.83,0,1.42-.59,1.56-1.49h-.59c-.13.62-.45.93-.96.93-.72,0-1.09-.74-1.13-1.63h2.76c.03-1.38-.49-2.49-1.64-2.49Zm-4.77.56c.62,0,.96.58,1.03,1.38h-2.13c.1-.79.46-1.38,1.11-1.38Zm0-.56c-.75,0-1.27.48-1.52,1.19-.13.35-.19.74-.19,1.15,0,.83.24,1.59.76,2.02.26.22.58.32.95.32.83,0,1.42-.59,1.56-1.49h-.59c-.14.62-.45.93-.96.93-.72,0-1.09-.74-1.13-1.63h2.76c.03-1.38-.49-2.49-1.64-2.49Zm-5.08,1.37l-.64,2.24-.49-3.52h-.59l.75,4.5h.59l.67-2.36.67,2.36h.58l.75-4.5h-.59l-.49,3.52-.64-2.24h-.56Zm-3.1,2.45c-.22.12-.58.22-.78.22-.42,0-.62-.17-.62-.65v-2.75h1.35v-.54h-1.35v-1.5h-.57v1.5h-1.08v.54h1.08v2.75c0,.75.42,1.2,1.15,1.2.25,0,.68-.08.94-.22l-.12-.56Zm-6.14-3.26c.62,0,.96.58,1.03,1.38h-2.13c.1-.79.46-1.38,1.11-1.38Zm0-.56c-.75,0-1.27.48-1.52,1.19-.13.35-.19.74-.19,1.15,0,.83.24,1.59.76,2.02.26.22.58.32.96.32.83,0,1.42-.59,1.56-1.49h-.59c-.13.62-.45.93-.96.93-.72,0-1.09-.74-1.13-1.63h2.76c.03-1.38-.49-2.49-1.64-2.49Zm-4.86,4.12c-.66,0-1.02-.67-1.02-1.78s.36-1.77,1.02-1.77c.75,0,1.08.77,1.08,1.77s-.33,1.78-1.08,1.78Zm.07-4.11c-.44,0-.85.26-1.05.68v-2.4h-.58v6.3h.56v-.63c.22.43.61.72,1.08.72,1.03,0,1.59-1.01,1.59-2.34s-.56-2.33-1.59-2.33Zm-9.66,4.11c-.75,0-1.08-.77-1.08-1.78s.33-1.77,1.08-1.77c.66,0,1.02.66,1.02,1.77s-.36,1.78-1.02,1.78Zm.98-4.03v.6c-.21-.42-.61-.68-1.05-.68-1.04,0-1.59,1-1.59,2.33s.56,2.34,1.59,2.34c.46,0,.86-.28,1.06-.71v.68c0,.76-.3,1.14-.95,1.14-.44,0-.86-.23-.95-.71h-.58c.04.53.39.93.85,1.12.23.1.45.14.68.14.98,0,1.54-.65,1.54-1.69v-4.56h-.59Zm-5.37-.09c-.54,0-1.01.26-1.27.74v-.65s-.59,0-.59,0v4.5h.58v-2.45c0-.97.41-1.58,1.2-1.58.55,0,.78.39.78,1.01v3.02h.58v-3.02c0-.93-.46-1.57-1.3-1.57Zm-3.56,4.02h-1.19v-3.94h-1.57v.56h.98v3.39h-1.21v.56h2.98v-.56Zm-1.55-4.63c.25,0,.45-.21.45-.46s-.2-.45-.45-.45-.45.21-.45.45.2.46.45.46Zm-6.44.69l1.49,4.45-.54,1.62h.6l1.95-6.07h-.61l-1.12,3.65-1.15-3.65h-.61Zm-1.5,3.94h-1.23v-5.75s-1.57,0-1.57,0v.56h.98v5.19h-1.25v.56h3.07v-.56Zm-4.69-5.58c-.28-.14-.72-.22-1-.22-.76,0-1.21.46-1.21,1.2v.65h-1.14v.56h1.14v3.94h.58v-3.94h1.44v-.56h-1.44v-.65c0-.48.23-.65.67-.65.23,0,.58.1.83.22l.13-.56Zm-9.63,2.8c-.14-.8-.74-1.25-1.49-1.25-.79,0-1.43.47-1.43,1.16,0,.46.29.83.85,1.11l1.04.52c.32.17.52.32.52.67,0,.4-.42.66-.94.66s-.95-.26-1.1-.83h-.59c.17.85.86,1.39,1.69,1.39.53,0,1.03-.21,1.31-.57.13-.18.21-.39.21-.63,0-.58-.31-.93-.82-1.18l-1.04-.52c-.41-.19-.57-.34-.57-.62,0-.37.4-.6.86-.6.44,0,.78.22.9.69h.59Zm-4.9,2.57c-.22.12-.58.22-.78.22-.42,0-.62-.17-.62-.65v-2.75h1.35v-.54h-1.35v-1.5h-.57v1.5h-1.08v.54h1.08v2.75c0,.75.42,1.2,1.15,1.2.25,0,.68-.08.94-.22l-.12-.56Zm-5.97-3.82c-.54,0-1.02.26-1.27.74v-.65s0-1.8,0-1.8h-.59v6.3h.58v-2.45c0-.97.42-1.58,1.2-1.58.55,0,.78.39.78,1.01v3.02h.58v-3.02c0-.93-.46-1.57-1.29-1.57Zm-5.08,4.12c-.75,0-1.08-.77-1.08-1.78s.33-1.77,1.08-1.77c.66,0,1.02.66,1.02,1.77s-.36,1.78-1.02,1.78Zm.98-4.03v.6c-.21-.42-.61-.68-1.05-.68-1.04,0-1.59,1-1.59,2.33s.56,2.34,1.59,2.34c.46,0,.86-.28,1.06-.71v.68c0,.76-.3,1.14-.95,1.14-.44,0-.86-.23-.95-.71h-.58c.04.53.39.93.85,1.12.22.1.45.14.68.14.98,0,1.54-.65,1.54-1.69v-4.56h-.59Zm-4.16,3.93h-1.19v-3.94h-1.57v.56h.98v3.39h-1.21v.56h2.98v-.56Zm-1.55-4.63c.25,0,.45-.21.45-.46s-.2-.45-.45-.45-.45.21-.45.45.2.46.45.46Zm-3.18,4.64h-1.23v-5.75s-1.57,0-1.57,0v.56h.98v5.19h-1.25v.56h3.07v-.56Zm-4.69-5.58c-.28-.14-.72-.22-1-.22-.76,0-1.2.46-1.2,1.2v.65h-1.14v.56h1.14v3.94h.58v-3.94h1.44v-.56h-1.44v-.65c0-.48.22-.65.67-.65.22,0,.58.1.83.22l.13-.56Zm-11.06,2.01c-.4,0-.86.18-1.18.54l.22-2.15h2.37v-.56h-2.89l-.36,3.39.53.08c.32-.51.78-.76,1.26-.76.8,0,1.27.66,1.27,1.55,0,.55-.23,1.05-.62,1.34-.21.14-.44.22-.71.22-.69,0-1.19-.48-1.3-1.08h-.59c.07.57.41,1.11.95,1.42.27.15.58.23.94.23.75,0,1.35-.41,1.67-1.07.16-.32.24-.68.24-1.06,0-.78-.31-1.45-.85-1.82-.28-.18-.59-.27-.96-.27Zm-4.91,3.66c-.83,0-1.42-.49-1.42-1.29s.6-1.31,1.42-1.31,1.41.52,1.41,1.31-.6,1.29-1.41,1.29Zm-1.18-4.28c0-.66.49-1.08,1.18-1.08s1.18.42,1.18,1.08-.46,1.13-1.18,1.13-1.18-.48-1.18-1.13Zm2.03,1.39c.58-.29.92-.76.92-1.39s-.34-1.15-.88-1.43c-.27-.13-.57-.21-.88-.21-.65,0-1.22.29-1.53.78-.15.25-.23.54-.23.86,0,.62.34,1.1.91,1.39-.67.22-1.15.91-1.15,1.59,0,.76.37,1.33.98,1.63.3.15.64.22,1.03.23.76,0,1.4-.32,1.75-.88.17-.28.25-.6.25-.98,0-.68-.48-1.38-1.15-1.59Zm-5.5,2.9c-.5,0-.94-.27-1.16-.74-.12-.23-.17-.49-.17-.77,0-.59.28-1.04.68-1.29.2-.12.41-.18.64-.18.79,0,1.3.61,1.3,1.49s-.52,1.5-1.29,1.5Zm.04-3.54c-.59,0-1.14.29-1.47.93.06-1.54.45-2.75,1.47-2.75.53,0,.93.36,1.08.96h.6c-.22-.96-.86-1.52-1.68-1.52-1.02,0-1.63.81-1.87,1.88-.13.53-.19,1.09-.19,1.66,0,1.69.61,2.93,2.01,2.93.72,0,1.32-.38,1.65-1,.16-.32.24-.67.24-1.05,0-.75-.31-1.4-.87-1.77-.28-.18-.6-.27-.96-.27Zm-5.21,2.92h.72l-.76,2.17h-.52l.56-2.17Zm-3.76-.86h-1.94l1.94-3.26v3.26Zm1.3.56v-.56h-.72v-4.36h-.58l-2.58,4.36v.56h2.58v1.4h.58v-1.4h.72Zm-9.9-4.74c-.28-.14-.72-.22-1-.22-.76,0-1.2.46-1.2,1.2v.65h-1.14v.56h1.14v3.94h.58v-3.94h1.44v-.56h-1.44v-.65c0-.48.23-.65.67-.65.23,0,.58.1.83.22l.13-.56Zm-6.38,5.67c.76,0,1.02-.78,1.02-1.78s-.27-1.78-1.02-1.78-1.04.81-1.04,1.78.28,1.78,1.04,1.78Zm0-4.12c.75,0,1.23.49,1.46,1.2.11.35.16.74.16,1.14,0,1.32-.51,2.34-1.62,2.34s-1.62-1.02-1.62-2.34.53-2.34,1.62-2.34Z" style="fill:none; stroke:#0d0d0b; stroke-width:.15px;"/><path d="m148.24,186.67c-.22.12-.58.22-.78.22-.42,0-.62-.17-.62-.65v-2.75h1.35v-.54h-1.35v-1.5h-.58v1.5h-1.08v.54h1.08v2.75c0,.75.42,1.2,1.15,1.2.25,0,.68-.08.95-.22l-.12-.56Zm-5.89-3.82c-.54,0-1.01.26-1.27.74v-.65s-.59,0-.59,0v4.5h.58v-2.45c0-.97.41-1.58,1.2-1.58.55,0,.78.39.78,1.01v3.02h.58v-3.02c0-.93-.46-1.57-1.29-1.57m-5.01.56c.62,0,.96.58,1.03,1.38h-2.13c.1-.79.46-1.38,1.11-1.38m0-.56c-.75,0-1.27.48-1.52,1.19-.13.35-.19.74-.19,1.15,0,.83.24,1.59.75,2.02.26.22.58.32.96.32.83,0,1.42-.59,1.56-1.49h-.59c-.13.62-.45.93-.96.93-.72,0-1.09-.74-1.13-1.63h2.76c.03-1.38-.49-2.49-1.64-2.49m-3.27,4.03h-1.23v-5.75s-1.57,0-1.57,0v.56h.98v5.19h-1.25v.56h3.07v-.56Zm-6.51.1c-.5,0-.83-.27-.83-.74,0-.68.8-.96,1.7-.96h.36v.25c0,.82-.48,1.45-1.23,1.45m.41-4.13c-.77,0-1.41.49-1.51,1.35h.59c.04-.51.45-.79.92-.79.51,0,.81.33.81,1.03v.31h-.31c-1.31,0-2.33.44-2.33,1.51,0,.78.59,1.28,1.38,1.28.48,0,1.04-.28,1.25-.75l.02.66h.57v-3c0-1.01-.52-1.58-1.38-1.58m-6.65.09l1.33,4.5h.67l1.33-4.5h-.6l-1.06,3.78-1.06-3.78h-.6Zm-1.61,3.93h-1.19v-3.94h-1.56v.56h.98v3.39h-1.21v.56h2.98v-.56Zm-1.55-4.63c.25,0,.45-.21.45-.46s-.2-.45-.45-.45-.45.21-.45.45.2.46.45.46m-3.73,3.14c0,.97-.41,1.58-1.2,1.58-.54,0-.78-.39-.78-1.01v-3.02h-.58v3.02c0,.93.46,1.56,1.3,1.56.54,0,1.01-.26,1.27-.74v.65s.59,0,.59,0v-4.5h-.58v2.45Zm-5.71,1.58c-.75,0-1.08-.76-1.08-1.77s.33-1.78,1.08-1.78c.66,0,1.02.67,1.02,1.78s-.36,1.77-1.02,1.77m1-3.39c-.21-.43-.6-.72-1.07-.72-1.03,0-1.59,1.01-1.59,2.34s.56,2.33,1.59,2.33c.44,0,.85-.26,1.06-.68v2.4h.58v-6.3h-.56v.63Zm-5.78-.16c.62,0,.96.58,1.03,1.38h-2.13c.1-.79.46-1.38,1.11-1.38m0-.56c-.75,0-1.27.48-1.52,1.19-.13.35-.19.74-.19,1.15,0,.83.24,1.59.76,2.02.26.22.58.32.96.32.83,0,1.42-.59,1.56-1.49h-.59c-.14.62-.45.93-.96.93-.72,0-1.09-.74-1.13-1.63h2.76c.03-1.38-.49-2.49-1.64-2.49m-9.54.56c.62,0,.96.58,1.03,1.38h-2.13c.1-.79.46-1.38,1.11-1.38m0-.56c-.75,0-1.27.48-1.52,1.19-.13.35-.19.74-.19,1.15,0,.83.24,1.59.75,2.02.26.22.58.32.96.32.83,0,1.42-.59,1.56-1.49h-.59c-.13.62-.45.93-.96.93-.72,0-1.09-.74-1.13-1.63h2.76c.03-1.38-.49-2.49-1.64-2.49m-4.6,0c-.54,0-1.02.26-1.27.74v-.65s0-1.8,0-1.8h-.59v6.3h.58v-2.45c0-.97.42-1.58,1.2-1.58.55,0,.78.39.78,1.01v3.02h.58v-3.02c0-.93-.46-1.57-1.29-1.57m-3.57,3.82c-.23.12-.58.22-.78.22-.42,0-.62-.17-.62-.65v-2.75h1.35v-.54h-1.35v-1.5h-.57v1.5h-1.08v.54h1.08v2.75c0,.75.42,1.2,1.15,1.2.25,0,.68-.08.94-.22l-.12-.56Zm-11.28-.31h.72l-.75,2.17h-.52l.56-2.17Zm-2.91-2.25c-.14-.8-.74-1.25-1.49-1.25-.79,0-1.43.47-1.43,1.16,0,.46.29.83.85,1.11l1.04.52c.32.17.52.32.52.67,0,.4-.42.66-.94.66s-.95-.26-1.1-.83h-.59c.17.85.86,1.38,1.69,1.38.53,0,1.03-.21,1.31-.57.13-.18.21-.39.21-.63,0-.58-.31-.93-.82-1.18l-1.04-.52c-.41-.19-.57-.34-.57-.62,0-.37.4-.6.87-.6.44,0,.78.22.9.69h.59Zm-6.02-1.25c-.54,0-1.01.26-1.27.74v-.65s-.59,0-.59,0v4.5h.58v-2.45c0-.97.42-1.58,1.2-1.58.55,0,.78.39.78,1.01v3.02h.58v-3.02c0-.93-.46-1.57-1.29-1.57m-5.04,4.12c.76,0,1.03-.78,1.03-1.78s-.27-1.78-1.03-1.78-1.04.81-1.04,1.78.28,1.78,1.04,1.78m0-4.12c.75,0,1.23.49,1.46,1.2.11.35.16.74.16,1.14,0,1.32-.51,2.34-1.62,2.34s-1.62-1.02-1.62-2.34.53-2.34,1.62-2.34m-3.28,4.02h-1.19v-3.94h-1.56v.56h.98v3.39h-1.21v.56h2.98v-.56Zm-1.55-4.63c.25,0,.45-.21.45-.46s-.2-.45-.45-.45-.45.21-.45.45.2.46.45.46m-3.19,1.85c-.14-.8-.74-1.25-1.49-1.25-.79,0-1.43.47-1.43,1.16,0,.46.29.83.85,1.11l1.04.52c.32.17.52.32.52.67,0,.4-.42.66-.94.66s-.95-.26-1.1-.83h-.59c.17.85.86,1.38,1.69,1.38.53,0,1.03-.21,1.31-.57.13-.18.21-.39.21-.63,0-.58-.31-.93-.82-1.18l-1.04-.52c-.41-.19-.57-.34-.57-.62,0-.37.4-.6.86-.6.44,0,.78.22.9.69h.59Zm-4.77,0c-.14-.8-.74-1.25-1.49-1.25-.79,0-1.43.47-1.43,1.16,0,.46.29.83.85,1.11l1.04.52c.32.17.52.32.52.67,0,.4-.42.66-.94.66s-.95-.26-1.1-.83h-.59c.17.85.86,1.38,1.69,1.38.53,0,1.03-.21,1.31-.57.13-.18.21-.39.21-.63,0-.58-.31-.93-.82-1.18l-1.04-.52c-.41-.19-.57-.34-.57-.62,0-.37.4-.6.86-.6.44,0,.78.22.9.69h.59Zm-4.81,2.77h-1.19v-3.94h-1.56v.56h.98v3.39h-1.21v.56h2.98v-.56Zm-1.55-4.63c.25,0,.45-.21.45-.46s-.2-.45-.45-.45-.45.21-.45.45.2.46.45.46m-3.71.59c-.36,0-.66.25-.85.73-.07-.44-.29-.73-.69-.73-.33,0-.64.23-.79.7l-.04-.6h-.48l-.02,4.5h.56v-2.7c0-.69.16-1.34.63-1.34.17,0,.28.07.33.21.05.14.07.38.07.7v3.13h.57v-2.7c0-.79.09-1.34.59-1.34.33,0,.39.26.39.77v3.28h.56v-3.3c0-.75-.24-1.3-.85-1.3m-5.74.57c.62,0,.96.58,1.03,1.38h-2.14c.1-.79.46-1.38,1.11-1.38m0-.56c-.75,0-1.27.48-1.52,1.19-.13.35-.19.74-.19,1.15,0,.83.24,1.59.76,2.02.26.22.58.32.95.32.83,0,1.42-.59,1.56-1.49h-.59c-.14.62-.45.93-.96.93-.72,0-1.09-.74-1.13-1.63h2.76c.03-1.38-.49-2.49-1.64-2.49" style="fill:#0d0d0b;"/><path d="m148.24,186.67c-.22.12-.58.22-.78.22-.42,0-.62-.17-.62-.65v-2.75h1.35v-.54h-1.35v-1.5h-.58v1.5h-1.08v.54h1.08v2.75c0,.75.42,1.2,1.15,1.2.25,0,.68-.08.95-.22l-.12-.56Zm-5.89-3.82c-.54,0-1.01.26-1.27.74v-.65s-.59,0-.59,0v4.5h.58v-2.45c0-.97.41-1.58,1.2-1.58.55,0,.78.39.78,1.01v3.02h.58v-3.02c0-.93-.46-1.57-1.29-1.57Zm-5.01.56c.62,0,.96.58,1.03,1.38h-2.13c.1-.79.46-1.38,1.11-1.38Zm0-.56c-.75,0-1.27.48-1.52,1.19-.13.35-.19.74-.19,1.15,0,.83.24,1.59.75,2.02.26.22.58.32.96.32.83,0,1.42-.59,1.56-1.49h-.59c-.13.62-.45.93-.96.93-.72,0-1.09-.74-1.13-1.63h2.76c.03-1.38-.49-2.49-1.64-2.49Zm-3.27,4.03h-1.23v-5.75s-1.57,0-1.57,0v.56h.98v5.19h-1.25v.56h3.07v-.56Zm-6.51.1c-.5,0-.83-.27-.83-.74,0-.68.8-.96,1.7-.96h.36v.25c0,.82-.48,1.45-1.23,1.45Zm.41-4.13c-.77,0-1.41.49-1.51,1.35h.59c.04-.51.45-.79.92-.79.51,0,.81.33.81,1.03v.31h-.31c-1.31,0-2.33.44-2.33,1.51,0,.78.59,1.28,1.38,1.28.48,0,1.04-.28,1.25-.75l.02.66h.57v-3c0-1.01-.52-1.58-1.38-1.58Zm-6.65.09l1.33,4.5h.67l1.33-4.5h-.6l-1.06,3.78-1.06-3.78h-.6Zm-1.61,3.93h-1.19v-3.94h-1.56v.56h.98v3.39h-1.21v.56h2.98v-.56Zm-1.55-4.63c.25,0,.45-.21.45-.46s-.2-.45-.45-.45-.45.21-.45.45.2.46.45.46Zm-3.73,3.14c0,.97-.41,1.58-1.2,1.58-.54,0-.78-.39-.78-1.01v-3.02h-.58v3.02c0,.93.46,1.56,1.3,1.56.54,0,1.01-.26,1.27-.74v.65s.59,0,.59,0v-4.5h-.58v2.45Zm-5.71,1.58c-.75,0-1.08-.76-1.08-1.77s.33-1.78,1.08-1.78c.66,0,1.02.67,1.02,1.78s-.36,1.77-1.02,1.77Zm1-3.39c-.21-.43-.6-.72-1.07-.72-1.03,0-1.59,1.01-1.59,2.34s.56,2.33,1.59,2.33c.44,0,.85-.26,1.06-.68v2.4h.58v-6.3h-.56v.63Zm-5.78-.16c.62,0,.96.58,1.03,1.38h-2.13c.1-.79.46-1.38,1.11-1.38Zm0-.56c-.75,0-1.27.48-1.52,1.19-.13.35-.19.74-.19,1.15,0,.83.24,1.59.76,2.02.26.22.58.32.96.32.83,0,1.42-.59,1.56-1.49h-.59c-.14.62-.45.93-.96.93-.72,0-1.09-.74-1.13-1.63h2.76c.03-1.38-.49-2.49-1.64-2.49Zm-9.54.56c.62,0,.96.58,1.03,1.38h-2.13c.1-.79.46-1.38,1.11-1.38Zm0-.56c-.75,0-1.27.48-1.52,1.19-.13.35-.19.74-.19,1.15,0,.83.24,1.59.75,2.02.26.22.58.32.96.32.83,0,1.42-.59,1.56-1.49h-.59c-.13.62-.45.93-.96.93-.72,0-1.09-.74-1.13-1.63h2.76c.03-1.38-.49-2.49-1.64-2.49Zm-4.6,0c-.54,0-1.02.26-1.27.74v-.65s0-1.8,0-1.8h-.59v6.3h.58v-2.45c0-.97.42-1.58,1.2-1.58.55,0,.78.39.78,1.01v3.02h.58v-3.02c0-.93-.46-1.57-1.29-1.57Zm-3.57,3.82c-.23.12-.58.22-.78.22-.42,0-.62-.17-.62-.65v-2.75h1.35v-.54h-1.35v-1.5h-.57v1.5h-1.08v.54h1.08v2.75c0,.75.42,1.2,1.15,1.2.25,0,.68-.08.94-.22l-.12-.56Zm-11.28-.31h.72l-.75,2.17h-.52l.56-2.17Zm-2.91-2.25c-.14-.8-.74-1.25-1.49-1.25-.79,0-1.43.47-1.43,1.16,0,.46.29.83.85,1.11l1.04.52c.32.17.52.32.52.67,0,.4-.42.66-.94.66s-.95-.26-1.1-.83h-.59c.17.85.86,1.38,1.69,1.38.53,0,1.03-.21,1.31-.57.13-.18.21-.39.21-.63,0-.58-.31-.93-.82-1.18l-1.04-.52c-.41-.19-.57-.34-.57-.62,0-.37.4-.6.87-.6.44,0,.78.22.9.69h.59Zm-6.02-1.25c-.54,0-1.01.26-1.27.74v-.65s-.59,0-.59,0v4.5h.58v-2.45c0-.97.42-1.58,1.2-1.58.55,0,.78.39.78,1.01v3.02h.58v-3.02c0-.93-.46-1.57-1.29-1.57Zm-5.04,4.12c.76,0,1.03-.78,1.03-1.78s-.27-1.78-1.03-1.78-1.04.81-1.04,1.78.28,1.78,1.04,1.78Zm0-4.12c.75,0,1.23.49,1.46,1.2.11.35.16.74.16,1.14,0,1.32-.51,2.34-1.62,2.34s-1.62-1.02-1.62-2.34.53-2.34,1.62-2.34Zm-3.28,4.02h-1.19v-3.94h-1.56v.56h.98v3.39h-1.21v.56h2.98v-.56Zm-1.55-4.63c.25,0,.45-.21.45-.46s-.2-.45-.45-.45-.45.21-.45.45.2.46.45.46Zm-3.19,1.85c-.14-.8-.74-1.25-1.49-1.25-.79,0-1.43.47-1.43,1.16,0,.46.29.83.85,1.11l1.04.52c.32.17.52.32.52.67,0,.4-.42.66-.94.66s-.95-.26-1.1-.83h-.59c.17.85.86,1.38,1.69,1.38.53,0,1.03-.21,1.31-.57.13-.18.21-.39.21-.63,0-.58-.31-.93-.82-1.18l-1.04-.52c-.41-.19-.57-.34-.57-.62,0-.37.4-.6.86-.6.44,0,.78.22.9.69h.59Zm-4.77,0c-.14-.8-.74-1.25-1.49-1.25-.79,0-1.43.47-1.43,1.16,0,.46.29.83.85,1.11l1.04.52c.32.17.52.32.52.67,0,.4-.42.66-.94.66s-.95-.26-1.1-.83h-.59c.17.85.86,1.38,1.69,1.38.53,0,1.03-.21,1.31-.57.13-.18.21-.39.21-.63,0-.58-.31-.93-.82-1.18l-1.04-.52c-.41-.19-.57-.34-.57-.62,0-.37.4-.6.86-.6.44,0,.78.22.9.69h.59Zm-4.81,2.77h-1.19v-3.94h-1.56v.56h.98v3.39h-1.21v.56h2.98v-.56Zm-1.55-4.63c.25,0,.45-.21.45-.46s-.2-.45-.45-.45-.45.21-.45.45.2.46.45.46Zm-3.71.59c-.36,0-.66.25-.85.73-.07-.44-.29-.73-.69-.73-.33,0-.64.23-.79.7l-.04-.6h-.48l-.02,4.5h.56v-2.7c0-.69.16-1.34.63-1.34.17,0,.28.07.33.21.05.14.07.38.07.7v3.13h.57v-2.7c0-.79.09-1.34.59-1.34.33,0,.39.26.39.77v3.28h.56v-3.3c0-.75-.24-1.3-.85-1.3Zm-5.74.57c.62,0,.96.58,1.03,1.38h-2.14c.1-.79.46-1.38,1.11-1.38Zm0-.56c-.75,0-1.27.48-1.52,1.19-.13.35-.19.74-.19,1.15,0,.83.24,1.59.76,2.02.26.22.58.32.95.32.83,0,1.42-.59,1.56-1.49h-.59c-.14.62-.45.93-.96.93-.72,0-1.09-.74-1.13-1.63h2.76c.03-1.38-.49-2.49-1.64-2.49Z" style="fill:none; stroke:#0d0d0b; stroke-width:.15px;"/><path d="m156.41,172.61c.62,0,.96.58,1.03,1.38h-2.13c.1-.79.46-1.38,1.11-1.38m0-.56c-.75,0-1.27.48-1.52,1.19-.13.35-.19.74-.19,1.15,0,.83.24,1.59.76,2.02.26.22.58.32.96.32.83,0,1.42-.59,1.56-1.49h-.59c-.14.62-.45.93-.96.93-.72,0-1.09-.74-1.13-1.63h2.76c.03-1.38-.49-2.49-1.64-2.49m-4.1,1.73c.5-.4.79-.68.98-1.11.1-.22.14-.46.14-.74,0-.6-.31-1.15-.85-1.46-.26-.15-.56-.23-.88-.23-1.07,0-1.82.78-1.94,1.92h.59c.11-.79.57-1.34,1.35-1.34.68,0,1.14.5,1.14,1.1,0,.74-.49,1.06-.9,1.39l-.94.75c-.86.68-1.18,1.36-1.24,2.55h3.61s0-.58,0-.58h-2.96c.11-.66.4-1.07.94-1.5l.95-.76Zm-5.47,2.41c-.86,0-1.29-.89-1.29-2.68s.43-2.68,1.29-2.68,1.29.89,1.29,2.68-.43,2.68-1.29,2.68m0-5.92c-1.38,0-1.87,1.43-1.87,3.24s.49,3.24,1.87,3.24,1.87-1.43,1.87-3.24-.49-3.24-1.87-3.24m-4.63,5.9c-.98,0-1.41-1.27-1.41-2.68,0-.87.17-1.74.59-2.28.21-.27.49-.41.83-.41.68,0,1.03.51,1.13,1.31h.56c-.13-1.15-.73-1.87-1.7-1.87s-1.53.69-1.79,1.66c-.13.49-.2,1.02-.2,1.58,0,1.13.25,2.16.84,2.77.3.31.68.47,1.14.47.97,0,1.57-.71,1.71-1.87h-.57c-.11.8-.46,1.31-1.13,1.31m-9.4-4.12c-.54,0-1.01.26-1.27.74v-.65s-.59,0-.59,0v4.5h.58v-2.45c0-.97.41-1.58,1.2-1.58.55,0,.78.39.78,1.01v3.02h.58v-3.02c0-.93-.46-1.57-1.29-1.57m-3.56,4.02h-1.19v-3.94h-1.57v.56h.98v3.39h-1.21v.56h2.98v-.56Zm-1.55-4.63c.25,0,.45-.21.45-.46s-.2-.45-.45-.45-.45.21-.45.45.2.46.45.46m-7.96,1.85c-.14-.8-.74-1.25-1.49-1.25-.79,0-1.43.47-1.43,1.16,0,.46.29.83.85,1.11l1.05.52c.32.17.52.32.52.67,0,.4-.42.66-.94.66s-.95-.26-1.1-.83h-.59c.17.85.86,1.38,1.69,1.38.53,0,1.03-.21,1.31-.57.13-.18.21-.39.21-.63,0-.58-.31-.93-.82-1.18l-1.05-.52c-.4-.19-.57-.34-.57-.62,0-.37.4-.6.86-.6.44,0,.78.22.9.69h.59Zm-6.02-1.25c-.54,0-1.01.26-1.27.74v-.65s-.59,0-.59,0v4.5h.58v-2.45c0-.97.41-1.58,1.2-1.58.55,0,.78.39.78,1.01v3.02h.58v-3.02c0-.93-.46-1.57-1.29-1.57m-5.04,4.12c.75,0,1.03-.78,1.03-1.78s-.27-1.78-1.03-1.78-1.04.81-1.04,1.78.28,1.78,1.04,1.78m0-4.12c.75,0,1.23.49,1.46,1.2.11.35.16.74.16,1.14,0,1.32-.51,2.34-1.62,2.34s-1.62-1.02-1.62-2.34.53-2.34,1.62-2.34m-3.37,3.82c-.22.12-.58.22-.78.22-.42,0-.62-.17-.62-.65v-2.75h1.35v-.54h-1.35v-1.5h-.58v1.5h-1.08v.54h1.08v2.75c0,.75.42,1.2,1.15,1.2.25,0,.68-.08.94-.22l-.12-.56Zm-9.75-2.37c0,1.63-.41,2.66-1.21,2.66s-1.21-.97-1.21-2.66.4-2.64,1.21-2.64,1.21.98,1.21,2.64m.6,0c0-2.03-.59-3.24-1.82-3.24s-1.79,1.21-1.79,3.24.57,3.24,1.79,3.24c1.22,0,1.82-1.22,1.82-3.24m-5.37,0c0,1.63-.41,2.66-1.22,2.66s-1.21-.97-1.21-2.66.41-2.64,1.21-2.64,1.22.98,1.22,2.64m.6,0c0-2.03-.59-3.24-1.82-3.24s-1.79,1.21-1.79,3.24.58,3.24,1.79,3.24c1.22,0,1.82-1.22,1.82-3.24m-5.87.29c.5-.4.79-.68.98-1.11.1-.22.14-.46.14-.74,0-.6-.31-1.15-.85-1.46-.26-.15-.56-.23-.88-.23-1.07,0-1.82.78-1.94,1.92h.58c.11-.79.57-1.34,1.35-1.34.67,0,1.14.5,1.14,1.1,0,.74-.49,1.06-.9,1.39l-.94.75c-.86.68-1.18,1.36-1.24,2.55h3.61s0-.58,0-.58h-2.96c.11-.66.4-1.07.94-1.5l.95-.76Zm-5.81,1.77h.72l-.76,2.17h-.52l.56-2.17Zm-4.48.62c-.83,0-1.42-.49-1.42-1.29s.6-1.31,1.42-1.31,1.41.52,1.41,1.31-.59,1.29-1.41,1.29m-1.18-4.28c0-.66.49-1.08,1.18-1.08s1.18.42,1.18,1.08-.46,1.13-1.18,1.13-1.18-.48-1.18-1.13m2.03,1.39c.58-.29.92-.76.92-1.39s-.34-1.15-.88-1.43c-.27-.13-.57-.21-.88-.21-.65,0-1.22.29-1.53.78-.15.25-.23.54-.23.85,0,.62.34,1.1.91,1.39-.68.22-1.15.91-1.15,1.59,0,.76.37,1.33.98,1.63.3.15.64.22,1.03.23.76,0,1.4-.32,1.75-.88.17-.28.25-.6.25-.98,0-.68-.48-1.38-1.15-1.59m-10.33,2.9c.76,0,1.03-.78,1.03-1.78s-.27-1.78-1.03-1.78-1.04.81-1.04,1.78.28,1.78,1.04,1.78m0-4.12c.75,0,1.23.49,1.46,1.2.11.35.16.74.16,1.14,0,1.32-.51,2.34-1.62,2.34s-1.62-1.02-1.62-2.34.53-2.34,1.62-2.34m-3.37,3.82c-.22.12-.58.22-.78.22-.42,0-.62-.17-.62-.65v-2.75h1.35v-.54h-1.35v-1.5h-.58v1.5h-1.08v.54h1.08v2.75c0,.75.42,1.2,1.15,1.2.25,0,.68-.08.94-.22l-.12-.56Zm-9.41-2.57c-.14-.8-.74-1.25-1.49-1.25-.79,0-1.43.47-1.43,1.16,0,.46.29.83.85,1.11l1.05.52c.32.17.52.32.52.67,0,.4-.42.66-.94.66s-.95-.26-1.1-.83h-.59c.17.85.86,1.38,1.69,1.38.53,0,1.03-.21,1.31-.57.13-.18.21-.39.21-.63,0-.58-.3-.93-.82-1.18l-1.04-.52c-.41-.19-.57-.34-.57-.62,0-.37.4-.6.86-.6.44,0,.78.22.9.69h.59Zm-4.9,2.57c-.22.12-.58.22-.78.22-.42,0-.62-.17-.62-.65v-2.75h1.35v-.54h-1.35v-1.5h-.58v1.5h-1.08v.54h1.08v2.75c0,.75.42,1.2,1.15,1.2.25,0,.68-.08.94-.22l-.12-.56Zm-5.89-3.82c-.54,0-1.01.26-1.27.74v-.65s-.59,0-.59,0v4.5h.58v-2.45c0-.97.42-1.58,1.2-1.58.55,0,.78.39.78,1.01v3.02h.58v-3.02c0-.93-.46-1.57-1.3-1.57m-4.06,2.54c0,.97-.41,1.58-1.2,1.58-.54,0-.78-.39-.78-1.01v-3.02h-.58v3.02c0,.93.46,1.56,1.3,1.56.54,0,1.01-.26,1.27-.74v.65s.59,0,.59,0v-4.5h-.58v2.45Zm-5.75,1.58c.75,0,1.02-.78,1.02-1.78s-.27-1.78-1.02-1.78-1.04.81-1.04,1.78.28,1.78,1.04,1.78m0-4.12c.75,0,1.23.49,1.46,1.2.11.35.16.74.16,1.14,0,1.32-.51,2.34-1.62,2.34s-1.62-1.02-1.62-2.34.53-2.34,1.62-2.34m-3.76,0c-.36,0-.66.25-.85.73-.07-.44-.29-.73-.69-.73-.33,0-.64.23-.79.7l-.04-.6h-.48l-.02,4.5h.57v-2.7c0-.69.16-1.34.63-1.34.17,0,.28.07.33.21.05.14.07.38.07.7v3.13h.58v-2.7c0-.79.09-1.34.59-1.34.33,0,.39.26.39.77v3.28h.57v-3.3c0-.75-.24-1.3-.85-1.3m-5.98,4.14c-.5,0-.83-.27-.83-.74,0-.68.8-.96,1.7-.96h.36v.25c0,.82-.48,1.45-1.23,1.45m.41-4.13c-.77,0-1.41.49-1.51,1.35h.59c.05-.51.45-.79.92-.79.51,0,.81.33.81,1.03v.31h-.31c-1.31,0-2.33.44-2.33,1.51,0,.78.59,1.28,1.38,1.28.48,0,1.04-.28,1.25-.75l.02.66h.57v-3c0-1.01-.52-1.58-1.38-1.58" style="fill:#0d0d0b;"/><path d="m156.41,172.61c.62,0,.96.58,1.03,1.38h-2.13c.1-.79.46-1.38,1.11-1.38Zm0-.56c-.75,0-1.27.48-1.52,1.19-.13.35-.19.74-.19,1.15,0,.83.24,1.59.76,2.02.26.22.58.32.96.32.83,0,1.42-.59,1.56-1.49h-.59c-.14.62-.45.93-.96.93-.72,0-1.09-.74-1.13-1.63h2.76c.03-1.38-.49-2.49-1.64-2.49Zm-4.1,1.73c.5-.4.79-.68.98-1.11.1-.22.14-.46.14-.74,0-.6-.31-1.15-.85-1.46-.26-.15-.56-.23-.88-.23-1.07,0-1.82.78-1.94,1.92h.59c.11-.79.57-1.34,1.35-1.34.68,0,1.14.5,1.14,1.1,0,.74-.49,1.06-.9,1.39l-.94.75c-.86.68-1.18,1.36-1.24,2.55h3.61s0-.58,0-.58h-2.96c.11-.66.4-1.07.94-1.5l.95-.76Zm-5.47,2.41c-.86,0-1.29-.89-1.29-2.68s.43-2.68,1.29-2.68,1.29.89,1.29,2.68-.43,2.68-1.29,2.68Zm0-5.92c-1.38,0-1.87,1.43-1.87,3.24s.49,3.24,1.87,3.24,1.87-1.43,1.87-3.24-.49-3.24-1.87-3.24Zm-4.63,5.9c-.98,0-1.41-1.27-1.41-2.68,0-.87.17-1.74.59-2.28.21-.27.49-.41.83-.41.68,0,1.03.51,1.13,1.31h.56c-.13-1.15-.73-1.87-1.7-1.87s-1.53.69-1.79,1.66c-.13.49-.2,1.02-.2,1.58,0,1.13.25,2.16.84,2.77.3.31.68.47,1.14.47.97,0,1.57-.71,1.71-1.87h-.57c-.11.8-.46,1.31-1.13,1.31Zm-9.4-4.12c-.54,0-1.01.26-1.27.74v-.65s-.59,0-.59,0v4.5h.58v-2.45c0-.97.41-1.58,1.2-1.58.55,0,.78.39.78,1.01v3.02h.58v-3.02c0-.93-.46-1.57-1.29-1.57Zm-3.56,4.02h-1.19v-3.94h-1.57v.56h.98v3.39h-1.21v.56h2.98v-.56Zm-1.55-4.63c.25,0,.45-.21.45-.46s-.2-.45-.45-.45-.45.21-.45.45.2.46.45.46Zm-7.96,1.85c-.14-.8-.74-1.25-1.49-1.25-.79,0-1.43.47-1.43,1.16,0,.46.29.83.85,1.11l1.05.52c.32.17.52.32.52.67,0,.4-.42.66-.94.66s-.95-.26-1.1-.83h-.59c.17.85.86,1.38,1.69,1.38.53,0,1.03-.21,1.31-.57.13-.18.21-.39.21-.63,0-.58-.31-.93-.82-1.18l-1.05-.52c-.4-.19-.57-.34-.57-.62,0-.37.4-.6.86-.6.44,0,.78.22.9.69h.59Zm-6.02-1.25c-.54,0-1.01.26-1.27.74v-.65s-.59,0-.59,0v4.5h.58v-2.45c0-.97.41-1.58,1.2-1.58.55,0,.78.39.78,1.01v3.02h.58v-3.02c0-.93-.46-1.57-1.29-1.57Zm-5.04,4.12c.75,0,1.03-.78,1.03-1.78s-.27-1.78-1.03-1.78-1.04.81-1.04,1.78.28,1.78,1.04,1.78Zm0-4.12c.75,0,1.23.49,1.46,1.2.11.35.16.74.16,1.14,0,1.32-.51,2.34-1.62,2.34s-1.62-1.02-1.62-2.34.53-2.34,1.62-2.34Zm-3.37,3.82c-.22.12-.58.22-.78.22-.42,0-.62-.17-.62-.65v-2.75h1.35v-.54h-1.35v-1.5h-.58v1.5h-1.08v.54h1.08v2.75c0,.75.42,1.2,1.15,1.2.25,0,.68-.08.94-.22l-.12-.56Zm-9.75-2.37c0,1.63-.41,2.66-1.21,2.66s-1.21-.97-1.21-2.66.4-2.64,1.21-2.64,1.21.98,1.21,2.64Zm.6,0c0-2.03-.59-3.24-1.82-3.24s-1.79,1.21-1.79,3.24.57,3.24,1.79,3.24c1.22,0,1.82-1.22,1.82-3.24Zm-5.37,0c0,1.63-.41,2.66-1.22,2.66s-1.21-.97-1.21-2.66.41-2.64,1.21-2.64,1.22.98,1.22,2.64Zm.6,0c0-2.03-.59-3.24-1.82-3.24s-1.79,1.21-1.79,3.24.58,3.24,1.79,3.24c1.22,0,1.82-1.22,1.82-3.24Zm-5.87.29c.5-.4.79-.68.98-1.11.1-.22.14-.46.14-.74,0-.6-.31-1.15-.85-1.46-.26-.15-.56-.23-.88-.23-1.07,0-1.82.78-1.94,1.92h.58c.11-.79.57-1.34,1.35-1.34.67,0,1.14.5,1.14,1.1,0,.74-.49,1.06-.9,1.39l-.94.75c-.86.68-1.18,1.36-1.24,2.55h3.61s0-.58,0-.58h-2.96c.11-.66.4-1.07.94-1.5l.95-.76Zm-5.81,1.77h.72l-.76,2.17h-.52l.56-2.17Zm-4.48.62c-.83,0-1.42-.49-1.42-1.29s.6-1.31,1.42-1.31,1.41.52,1.41,1.31-.59,1.29-1.41,1.29Zm-1.18-4.28c0-.66.49-1.08,1.18-1.08s1.18.42,1.18,1.08-.46,1.13-1.18,1.13-1.18-.48-1.18-1.13Zm2.03,1.39c.58-.29.92-.76.92-1.39s-.34-1.15-.88-1.43c-.27-.13-.57-.21-.88-.21-.65,0-1.22.29-1.53.78-.15.25-.23.54-.23.85,0,.62.34,1.1.91,1.39-.68.22-1.15.91-1.15,1.59,0,.76.37,1.33.98,1.63.3.15.64.22,1.03.23.76,0,1.4-.32,1.75-.88.17-.28.25-.6.25-.98,0-.68-.48-1.38-1.15-1.59Zm-10.33,2.9c.76,0,1.03-.78,1.03-1.78s-.27-1.78-1.03-1.78-1.04.81-1.04,1.78.28,1.78,1.04,1.78Zm0-4.12c.75,0,1.23.49,1.46,1.2.11.35.16.74.16,1.14,0,1.32-.51,2.34-1.62,2.34s-1.62-1.02-1.62-2.34.53-2.34,1.62-2.34Zm-3.37,3.82c-.22.12-.58.22-.78.22-.42,0-.62-.17-.62-.65v-2.75h1.35v-.54h-1.35v-1.5h-.58v1.5h-1.08v.54h1.08v2.75c0,.75.42,1.2,1.15,1.2.25,0,.68-.08.94-.22l-.12-.56Zm-9.41-2.57c-.14-.8-.74-1.25-1.49-1.25-.79,0-1.43.47-1.43,1.16,0,.46.29.83.85,1.11l1.05.52c.32.17.52.32.52.67,0,.4-.42.66-.94.66s-.95-.26-1.1-.83h-.59c.17.85.86,1.38,1.69,1.38.53,0,1.03-.21,1.31-.57.13-.18.21-.39.21-.63,0-.58-.3-.93-.82-1.18l-1.04-.52c-.41-.19-.57-.34-.57-.62,0-.37.4-.6.86-.6.44,0,.78.22.9.69h.59Zm-4.9,2.57c-.22.12-.58.22-.78.22-.42,0-.62-.17-.62-.65v-2.75h1.35v-.54h-1.35v-1.5h-.58v1.5h-1.08v.54h1.08v2.75c0,.75.42,1.2,1.15,1.2.25,0,.68-.08.94-.22l-.12-.56Zm-5.89-3.82c-.54,0-1.01.26-1.27.74v-.65s-.59,0-.59,0v4.5h.58v-2.45c0-.97.42-1.58,1.2-1.58.55,0,.78.39.78,1.01v3.02h.58v-3.02c0-.93-.46-1.57-1.3-1.57Zm-4.06,2.54c0,.97-.41,1.58-1.2,1.58-.54,0-.78-.39-.78-1.01v-3.02h-.58v3.02c0,.93.46,1.56,1.3,1.56.54,0,1.01-.26,1.27-.74v.65s.59,0,.59,0v-4.5h-.58v2.45Zm-5.75,1.58c.75,0,1.02-.78,1.02-1.78s-.27-1.78-1.02-1.78-1.04.81-1.04,1.78.28,1.78,1.04,1.78Zm0-4.12c.75,0,1.23.49,1.46,1.2.11.35.16.74.16,1.14,0,1.32-.51,2.34-1.62,2.34s-1.62-1.02-1.62-2.34.53-2.34,1.62-2.34Zm-3.76,0c-.36,0-.66.25-.85.73-.07-.44-.29-.73-.69-.73-.33,0-.64.23-.79.7l-.04-.6h-.48l-.02,4.5h.57v-2.7c0-.69.16-1.34.63-1.34.17,0,.28.07.33.21.05.14.07.38.07.7v3.13h.58v-2.7c0-.79.09-1.34.59-1.34.33,0,.39.26.39.77v3.28h.57v-3.3c0-.75-.24-1.3-.85-1.3Zm-5.98,4.14c-.5,0-.83-.27-.83-.74,0-.68.8-.96,1.7-.96h.36v.25c0,.82-.48,1.45-1.23,1.45Zm.41-4.13c-.77,0-1.41.49-1.51,1.35h.59c.05-.51.45-.79.92-.79.51,0,.81.33.81,1.03v.31h-.31c-1.31,0-2.33.44-2.33,1.51,0,.78.59,1.28,1.38,1.28.48,0,1.04-.28,1.25-.75l.02.66h.57v-3c0-1.01-.52-1.58-1.38-1.58Z" style="fill:none; stroke:#0d0d0b; stroke-width:.15px;"/><path d="m145.85,165.07c-.22.12-.58.22-.78.22-.42,0-.62-.17-.62-.65v-2.75h1.35v-.54h-1.35v-1.5h-.58v1.5h-1.08v.54h1.08v2.75c0,.75.42,1.2,1.15,1.2.25,0,.68-.08.95-.22l-.12-.56Zm-5.9-3.82c-.54,0-1.01.26-1.27.74v-.65s-.59,0-.59,0v4.5h.58v-2.45c0-.97.41-1.58,1.2-1.58.55,0,.78.39.78,1.01v3.02h.58v-3.02c0-.93-.46-1.56-1.3-1.56m-3.55,4.02h-1.19v-3.94h-1.57v.56h.98v3.39h-1.21v.56h2.98v-.56Zm-1.55-4.63c.25,0,.45-.21.45-.46s-.2-.45-.45-.45-.45.21-.45.45.2.46.45.46m-4.19.6c-.46,0-.88.23-1.14.73v-.64h-.58v4.5h.58v-2.45c0-.9.4-1.58,1.03-1.58.44,0,.67.29.71.86h.58c-.04-.89-.5-1.42-1.19-1.42m-5.35,4.11c-.66,0-1.02-.66-1.02-1.77s.36-1.78,1.02-1.78c.75,0,1.08.77,1.08,1.78s-.33,1.77-1.08,1.77m.07-4.11c-.46,0-.86.29-1.07.72v-.63h-.57v6.3h.58v-2.4c.21.42.61.68,1.05.68,1.04,0,1.59-1,1.59-2.33s-.56-2.34-1.59-2.34m-3.38,3.82c-.23.12-.58.22-.78.22-.42,0-.62-.17-.62-.65v-2.75h1.35v-.54h-1.35v-1.5h-.58v1.5h-1.08v.54h1.08v2.75c0,.75.42,1.2,1.15,1.2.25,0,.68-.08.94-.22l-.12-.56Zm-6.17.31c.76,0,1.03-.78,1.03-1.78s-.27-1.78-1.03-1.78-1.04.81-1.04,1.78.28,1.78,1.04,1.78m0-4.12c.75,0,1.23.49,1.46,1.2.11.35.16.74.16,1.14,0,1.32-.51,2.34-1.62,2.34s-1.62-1.02-1.62-2.34.53-2.34,1.62-2.34m-4.76,4.12c.76,0,1.03-.78,1.03-1.78s-.27-1.78-1.03-1.78-1.04.81-1.04,1.78.28,1.78,1.04,1.78m0-4.12c.75,0,1.23.49,1.46,1.2.11.35.16.74.16,1.14,0,1.32-.51,2.34-1.62,2.34s-1.62-1.02-1.62-2.34.53-2.34,1.62-2.34m-3.15-1.55c-.28-.14-.72-.22-1-.22-.76,0-1.21.46-1.21,1.21v.65h-1.14v.56h1.14v3.94h.58v-3.94h1.44v-.56h-1.44v-.65c0-.48.22-.65.67-.65.22,0,.58.1.83.22l.13-.56Zm-9.62,5.58h-1.23v-5.75s-1.57,0-1.57,0v.56h.98v5.19h-1.25v.56h3.07v-.56Zm-6.51.1c-.49,0-.83-.27-.83-.74,0-.68.8-.96,1.7-.96h.36v.25c0,.82-.48,1.45-1.23,1.45m.42-4.13c-.77,0-1.41.48-1.51,1.35h.59c.04-.51.45-.79.92-.79.51,0,.81.33.81,1.03v.31h-.31c-1.31,0-2.33.44-2.33,1.51,0,.78.59,1.28,1.38,1.28.48,0,1.04-.28,1.25-.75l.02.66h.57v-3c0-1.01-.52-1.58-1.39-1.58m-4,2.54c0,.97-.41,1.58-1.2,1.58-.54,0-.78-.39-.78-1.01v-3.02h-.58v3.02c0,.93.46,1.56,1.29,1.56.54,0,1.01-.26,1.27-.74v.65s.59,0,.59,0v-4.5h-.58v2.45Zm-5.48-2.54c-.54,0-1.01.26-1.27.74v-.65s-.59,0-.59,0v4.5h.58v-2.45c0-.97.41-1.58,1.2-1.58.55,0,.78.39.78,1.01v3.02h.58v-3.02c0-.93-.46-1.56-1.29-1.56m-4.77,0c-.54,0-1.02.26-1.27.74v-.65s-.59,0-.59,0v4.5h.58v-2.45c0-.97.41-1.58,1.2-1.58.55,0,.78.39.78,1.01v3.02h.58v-3.02c0-.93-.46-1.56-1.29-1.56m-5.25,4.13c-.5,0-.83-.27-.83-.74,0-.68.8-.96,1.7-.96h.36v.25c0,.82-.48,1.45-1.23,1.45m.42-4.13c-.77,0-1.41.48-1.51,1.35h.59c.05-.51.45-.79.92-.79.51,0,.81.33.81,1.03v.31h-.31c-1.31,0-2.33.44-2.33,1.51,0,.78.59,1.28,1.38,1.28.48,0,1.04-.28,1.25-.75l.02.66h.57v-3c0-1.01-.52-1.58-1.38-1.58m-9.23,0c-.46,0-.88.23-1.14.73v-.64h-.58v4.5h.58v-2.45c0-.9.4-1.58,1.04-1.58.44,0,.67.29.71.86h.58c-.05-.89-.5-1.42-1.19-1.42m-5.26.56c.62,0,.96.58,1.03,1.38h-2.13c.1-.79.46-1.38,1.11-1.38m0-.56c-.75,0-1.27.48-1.52,1.19-.13.35-.19.74-.19,1.15,0,.83.24,1.59.75,2.02.26.22.58.32.96.32.83,0,1.42-.59,1.56-1.49h-.59c-.13.62-.45.93-.96.93-.72,0-1.09-.74-1.13-1.63h2.76c.03-1.38-.49-2.49-1.64-2.49m-3.4,3.82c-.23.12-.58.22-.78.22-.42,0-.62-.17-.62-.65v-2.75h1.35v-.54h-1.35v-1.5h-.58v1.5h-1.08v.54h1.08v2.75c0,.75.42,1.2,1.15,1.2.25,0,.68-.08.95-.22l-.12-.56Zm-4.77,0c-.23.12-.58.22-.78.22-.42,0-.62-.17-.62-.65v-2.75h1.35v-.54h-1.35v-1.5h-.58v1.5h-1.08v.54h1.08v2.75c0,.75.42,1.2,1.15,1.2.25,0,.68-.08.95-.22l-.12-.56Zm-4.68.21h-1.19v-3.94h-1.57v.56h.98v3.39h-1.21v.56h2.98v-.56Zm-1.55-4.63c.25,0,.45-.21.45-.46s-.2-.45-.45-.45-.45.21-.45.45.2.46.45.46m-4.99,1.97l-.64,2.24-.49-3.52h-.59l.75,4.5h.58l.67-2.36.67,2.36h.58l.75-4.5h-.59l-.49,3.52-.64-2.24h-.56Zm-2.75-2.52v-.56h-3.62v.56h1.52v5.74h.58v-5.74h1.51Z" style="fill:#0d0d0b;"/><path d="m145.85,165.07c-.22.12-.58.22-.78.22-.42,0-.62-.17-.62-.65v-2.75h1.35v-.54h-1.35v-1.5h-.58v1.5h-1.08v.54h1.08v2.75c0,.75.42,1.2,1.15,1.2.25,0,.68-.08.95-.22l-.12-.56Zm-5.9-3.82c-.54,0-1.01.26-1.27.74v-.65s-.59,0-.59,0v4.5h.58v-2.45c0-.97.41-1.58,1.2-1.58.55,0,.78.39.78,1.01v3.02h.58v-3.02c0-.93-.46-1.56-1.3-1.56Zm-3.55,4.02h-1.19v-3.94h-1.57v.56h.98v3.39h-1.21v.56h2.98v-.56Zm-1.55-4.63c.25,0,.45-.21.45-.46s-.2-.45-.45-.45-.45.21-.45.45.2.46.45.46Zm-4.19.6c-.46,0-.88.23-1.14.73v-.64h-.58v4.5h.58v-2.45c0-.9.4-1.58,1.03-1.58.44,0,.67.29.71.86h.58c-.04-.89-.5-1.42-1.19-1.42Zm-5.35,4.11c-.66,0-1.02-.66-1.02-1.77s.36-1.78,1.02-1.78c.75,0,1.08.77,1.08,1.78s-.33,1.77-1.08,1.77Zm.07-4.11c-.46,0-.86.29-1.07.72v-.63h-.57v6.3h.58v-2.4c.21.42.61.68,1.05.68,1.04,0,1.59-1,1.59-2.33s-.56-2.34-1.59-2.34Zm-3.38,3.82c-.23.12-.58.22-.78.22-.42,0-.62-.17-.62-.65v-2.75h1.35v-.54h-1.35v-1.5h-.58v1.5h-1.08v.54h1.08v2.75c0,.75.42,1.2,1.15,1.2.25,0,.68-.08.94-.22l-.12-.56Zm-6.17.31c.76,0,1.03-.78,1.03-1.78s-.27-1.78-1.03-1.78-1.04.81-1.04,1.78.28,1.78,1.04,1.78Zm0-4.12c.75,0,1.23.49,1.46,1.2.11.35.16.74.16,1.14,0,1.32-.51,2.34-1.62,2.34s-1.62-1.02-1.62-2.34.53-2.34,1.62-2.34Zm-4.76,4.12c.76,0,1.03-.78,1.03-1.78s-.27-1.78-1.03-1.78-1.04.81-1.04,1.78.28,1.78,1.04,1.78Zm0-4.12c.75,0,1.23.49,1.46,1.2.11.35.16.74.16,1.14,0,1.32-.51,2.34-1.62,2.34s-1.62-1.02-1.62-2.34.53-2.34,1.62-2.34Zm-3.15-1.55c-.28-.14-.72-.22-1-.22-.76,0-1.21.46-1.21,1.21v.65h-1.14v.56h1.14v3.94h.58v-3.94h1.44v-.56h-1.44v-.65c0-.48.22-.65.67-.65.22,0,.58.1.83.22l.13-.56Zm-9.62,5.58h-1.23v-5.75s-1.57,0-1.57,0v.56h.98v5.19h-1.25v.56h3.07v-.56Zm-6.51.1c-.49,0-.83-.27-.83-.74,0-.68.8-.96,1.7-.96h.36v.25c0,.82-.48,1.45-1.23,1.45Zm.42-4.13c-.77,0-1.41.48-1.51,1.35h.59c.04-.51.45-.79.92-.79.51,0,.81.33.81,1.03v.31h-.31c-1.31,0-2.33.44-2.33,1.51,0,.78.59,1.28,1.38,1.28.48,0,1.04-.28,1.25-.75l.02.66h.57v-3c0-1.01-.52-1.58-1.39-1.58Zm-4,2.54c0,.97-.41,1.58-1.2,1.58-.54,0-.78-.39-.78-1.01v-3.02h-.58v3.02c0,.93.46,1.56,1.29,1.56.54,0,1.01-.26,1.27-.74v.65s.59,0,.59,0v-4.5h-.58v2.45Zm-5.48-2.54c-.54,0-1.01.26-1.27.74v-.65s-.59,0-.59,0v4.5h.58v-2.45c0-.97.41-1.58,1.2-1.58.55,0,.78.39.78,1.01v3.02h.58v-3.02c0-.93-.46-1.56-1.29-1.56Zm-4.77,0c-.54,0-1.02.26-1.27.74v-.65s-.59,0-.59,0v4.5h.58v-2.45c0-.97.41-1.58,1.2-1.58.55,0,.78.39.78,1.01v3.02h.58v-3.02c0-.93-.46-1.56-1.29-1.56Zm-5.25,4.13c-.5,0-.83-.27-.83-.74,0-.68.8-.96,1.7-.96h.36v.25c0,.82-.48,1.45-1.23,1.45Zm.42-4.13c-.77,0-1.41.48-1.51,1.35h.59c.05-.51.45-.79.92-.79.51,0,.81.33.81,1.03v.31h-.31c-1.31,0-2.33.44-2.33,1.51,0,.78.59,1.28,1.38,1.28.48,0,1.04-.28,1.25-.75l.02.66h.57v-3c0-1.01-.52-1.58-1.38-1.58Zm-9.23,0c-.46,0-.88.23-1.14.73v-.64h-.58v4.5h.58v-2.45c0-.9.4-1.58,1.04-1.58.44,0,.67.29.71.86h.58c-.05-.89-.5-1.42-1.19-1.42Zm-5.26.56c.62,0,.96.58,1.03,1.38h-2.13c.1-.79.46-1.38,1.11-1.38Zm0-.56c-.75,0-1.27.48-1.52,1.19-.13.35-.19.74-.19,1.15,0,.83.24,1.59.75,2.02.26.22.58.32.96.32.83,0,1.42-.59,1.56-1.49h-.59c-.13.62-.45.93-.96.93-.72,0-1.09-.74-1.13-1.63h2.76c.03-1.38-.49-2.49-1.64-2.49Zm-3.4,3.82c-.23.12-.58.22-.78.22-.42,0-.62-.17-.62-.65v-2.75h1.35v-.54h-1.35v-1.5h-.58v1.5h-1.08v.54h1.08v2.75c0,.75.42,1.2,1.15,1.2.25,0,.68-.08.95-.22l-.12-.56Zm-4.77,0c-.23.12-.58.22-.78.22-.42,0-.62-.17-.62-.65v-2.75h1.35v-.54h-1.35v-1.5h-.58v1.5h-1.08v.54h1.08v2.75c0,.75.42,1.2,1.15,1.2.25,0,.68-.08.95-.22l-.12-.56Zm-4.68.21h-1.19v-3.94h-1.57v.56h.98v3.39h-1.21v.56h2.98v-.56Zm-1.55-4.63c.25,0,.45-.21.45-.46s-.2-.45-.45-.45-.45.21-.45.45.2.46.45.46Zm-4.99,1.97l-.64,2.24-.49-3.52h-.59l.75,4.5h.58l.67-2.36.67,2.36h.58l.75-4.5h-.59l-.49,3.52-.64-2.24h-.56Zm-2.75-2.52v-.56h-3.62v.56h1.52v5.74h.58v-5.74h1.51Z" style="fill:none; stroke:#0d0d0b; stroke-width:.15px;"/></g></svg>