<?xml version="1.0" encoding="UTF-8"?><svg id="a" xmlns="http://www.w3.org/2000/svg" xmlns:xlink="http://www.w3.org/1999/xlink" viewBox="0 0 178.5 225"><defs><clipPath id="b"><rect x="1.61" y=".36" width="186.06" height="223.22" style="fill:none;"/></clipPath><clipPath id="c"><rect x="1.61" y=".36" width="186.06" height="223.22" style="fill:none;"/></clipPath><clipPath id="d"><rect x="1.61" y=".36" width="186.06" height="223.22" style="fill:none;"/></clipPath><clipPath id="e"><rect x="1.61" y=".36" width="186.06" height="223.22" style="fill:none;"/></clipPath><clipPath id="f"><rect x="1.61" y=".36" width="186.06" height="223.22" style="fill:none;"/></clipPath><clipPath id="g"><rect x="1.61" y=".36" width="186.06" height="223.22" style="fill:none;"/></clipPath><clipPath id="h"><rect x="1.61" y=".36" width="186.06" height="223.22" style="fill:none;"/></clipPath></defs><path d="m8.82,170.28h4.57v-.56h-4.57v.56Zm9.82,0h4.57v-.56h-4.57v.56Zm9.82,0h4.57v-.56h-4.57v.56Zm9.82,0h4.56v-.56h-4.56v.56Zm9.82,0h4.56v-.56h-4.56v.56Zm9.82,0h4.56v-.56h-4.56v.56Zm9.82,0h4.57v-.56h-4.57v.56Zm9.82,0h4.57v-.56h-4.57v.56Zm9.82,0h4.57v-.56h-4.57v.56Zm9.82,0h4.57v-.56h-4.57v.56Zm9.82,0h4.57v-.56h-4.57v.56Zm9.82,0h4.57v-.56h-4.57v.56Zm9.82,0h4.57v-.56h-4.57v.56Zm9.82,0h4.57v-.56h-4.57v.56Zm9.82,0h4.57v-.56h-4.57v.56Zm9.82,0h4.57v-.56h-4.57v.56Zm9.82,0h4.57v-.56h-4.57v.56Z" style="fill:#0d0d0b;"/><path d="m170.47,169.72h-4.57v.56h4.57v-.56Zm-9.82,0h-4.57v.56h4.57v-.56Zm-9.82,0h-4.57v.56h4.57v-.56Zm-9.82,0h-4.57v.56h4.57v-.56Zm-9.82,0h-4.57v.56h4.57v-.56Zm-9.82,0h-4.57v.56h4.57v-.56Zm-9.82,0h-4.57v.56h4.57v-.56Zm-9.82,0h-4.57v.56h4.57v-.56Zm-9.82,0h-4.57v.56h4.57v-.56Zm-9.82,0h-4.57v.56h4.57v-.56Zm-9.82,0h-4.57v.56h4.57v-.56Zm-9.82,0h-4.56v.56h4.56v-.56Zm-9.82,0h-4.56v.56h4.56v-.56Zm-9.82,0h-4.56v.56h4.56v-.56Zm-9.82,0h-4.57v.56h4.57v-.56Zm-9.82,0h-4.57v.56h4.57v-.56Zm-9.82,0h-4.57v.56h4.57v-.56Z" style="fill:none; stroke:#0d0d0b; stroke-width:.15px;"/><path d="m11.11,223.45h4.44v-.56h-4.44v.56Zm9.54,0h4.44v-.56h-4.44v.56Zm9.54,0h4.44v-.56h-4.44v.56Zm9.54,0h4.44v-.56h-4.44v.56Zm9.54,0h4.44v-.56h-4.44v.56Zm9.54,0h4.44v-.56h-4.44v.56Zm9.54,0h4.44v-.56h-4.44v.56Zm9.54,0h4.44v-.56h-4.44v.56Zm9.54,0h4.44v-.56h-4.44v.56Zm9.54,0h4.44v-.56h-4.44v.56Zm9.54,0h4.44v-.56h-4.44v.56Zm9.54,0h4.44v-.56h-4.44v.56Zm9.54,0h4.44v-.56h-4.44v.56Zm9.54,0h4.44v-.56h-4.44v.56Zm9.54,0h4.44v-.56h-4.44v.56Zm9.54,0h4.44v-.56h-4.44v.56Zm9.54,0h4.44v-.56h-4.44v.56Z" style="fill:#0d0d0b;"/><g style="clip-path:url(#b); fill:none;"><path d="m168.19,222.89h-4.44v.56h4.44v-.56Zm-9.54,0h-4.44v.56h4.44v-.56Zm-9.54,0h-4.44v.56h4.44v-.56Zm-9.54,0h-4.44v.56h4.44v-.56Zm-9.54,0h-4.44v.56h4.44v-.56Zm-9.54,0h-4.44v.56h4.44v-.56Zm-9.54,0h-4.44v.56h4.44v-.56Zm-9.54,0h-4.44v.56h4.44v-.56Zm-9.54,0h-4.44v.56h4.44v-.56Zm-9.54,0h-4.44v.56h4.44v-.56Zm-9.54,0h-4.44v.56h4.44v-.56Zm-9.54,0h-4.44v.56h4.44v-.56Zm-9.54,0h-4.44v.56h4.44v-.56Zm-9.54,0h-4.44v.56h4.44v-.56Zm-9.54,0h-4.44v.56h4.44v-.56Zm-9.54,0h-4.44v.56h4.44v-.56Zm-9.54,0h-4.44v.56h4.44v-.56Z" style="fill:none; stroke:#0d0d0b; stroke-width:.15px;"/></g><path d="m11.7,2.25h4.43v-.56h-4.43v.56Zm9.54,0h4.43v-.56h-4.43v.56Zm9.54,0h4.44v-.56h-4.44v.56Zm9.54,0h4.44v-.56h-4.44v.56Zm9.54,0h4.44v-.56h-4.44v.56Zm9.54,0h4.44v-.56h-4.44v.56Zm9.54,0h4.44v-.56h-4.44v.56Zm9.54,0h4.44v-.56h-4.44v.56Zm9.54,0h4.44v-.56h-4.44v.56Zm9.54,0h4.44v-.56h-4.44v.56Zm9.54,0h4.44v-.56h-4.44v.56Zm9.54,0h4.44v-.56h-4.44v.56Zm9.54,0h4.44v-.56h-4.44v.56Zm9.54,0h4.44v-.56h-4.44v.56Zm9.54,0h4.44v-.56h-4.44v.56Zm9.54,0h4.44v-.56h-4.44v.56Zm9.54,0h4.44v-.56h-4.44v.56Z" style="fill:#0d0d0b;"/><path d="m168.77,1.7h-4.44v.56h4.44v-.56Zm-9.54,0h-4.44v.56h4.44v-.56Zm-9.54,0h-4.44v.56h4.44v-.56Zm-9.54,0h-4.44v.56h4.44v-.56Zm-9.54,0h-4.44v.56h4.44v-.56Zm-9.54,0h-4.44v.56h4.44v-.56Zm-9.54,0h-4.44v.56h4.44v-.56Zm-9.54,0h-4.44v.56h4.44v-.56Zm-9.54,0h-4.44v.56h4.44v-.56Zm-9.54,0h-4.44v.56h4.44v-.56Zm-9.54,0h-4.44v.56h4.44v-.56Zm-9.54,0h-4.44v.56h4.44v-.56Zm-9.54,0h-4.44v.56h4.44v-.56Zm-9.54,0h-4.44v.56h4.44v-.56Zm-9.54,0h-4.44v.56h4.44v-.56Zm-9.54,0h-4.44v.56h4.44v-.56Zm-9.54,0h-4.44v.56h4.44v-.56Z" style="fill:none; stroke:#0d0d0b; stroke-width:.15px;"/><polygon points="2.99 220.37 3.15 221.73 1.92 221.18 1.71 221.81 3.06 222.05 2.12 223.05 2.64 223.44 3.33 222.26 4 223.45 4.54 223.05 3.6 222.07 4.95 221.84 4.74 221.19 3.49 221.73 3.65 220.37 2.99 220.37" style="fill:#0d0d0b;"/><g style="clip-path:url(#c); fill:none;"><polygon points="4.95 221.84 4.74 221.19 3.49 221.73 3.65 220.37 2.99 220.37 3.15 221.73 1.92 221.18 1.71 221.81 3.06 222.05 2.12 223.05 2.64 223.44 3.33 222.26 4 223.45 4.54 223.05 3.6 222.07 4.95 221.84" style="fill:none; stroke:#0d0d0b; stroke-width:.15px;"/></g><polygon points="2.99 .44 3.15 1.8 1.92 1.25 1.71 1.88 3.06 2.11 2.12 3.11 2.64 3.5 3.33 2.33 4 3.51 4.54 3.11 3.6 2.14 4.95 1.9 4.74 1.26 3.49 1.8 3.65 .44 2.99 .44" style="fill:#0d0d0b;"/><g style="clip-path:url(#d); fill:none;"><polygon points="4.95 1.9 4.74 1.26 3.49 1.8 3.65 .44 2.99 .44 3.15 1.8 1.92 1.25 1.71 1.88 3.06 2.11 2.12 3.11 2.64 3.5 3.33 2.33 4 3.51 4.54 3.11 3.6 2.14 4.95 1.9" style="fill:none; stroke:#0d0d0b; stroke-width:.15px;"/></g><polygon points="175.63 220.4 175.79 221.76 174.56 221.21 174.35 221.84 175.7 222.07 174.75 223.07 175.28 223.47 175.97 222.29 176.64 223.47 177.17 223.07 176.24 222.1 177.59 221.86 177.38 221.22 176.13 221.76 176.29 220.4 175.63 220.4" style="fill:#0d0d0b;"/><g style="clip-path:url(#e); fill:none;"><polygon points="177.59 221.86 177.38 221.22 176.13 221.76 176.29 220.4 175.63 220.4 175.79 221.76 174.56 221.21 174.35 221.84 175.7 222.07 174.76 223.07 175.28 223.47 175.97 222.29 176.64 223.47 177.18 223.07 176.24 222.1 177.59 221.86" style="fill:none; stroke:#0d0d0b; stroke-width:.15px;"/></g><polygon points="175.63 .47 175.79 1.83 174.56 1.28 174.35 1.91 175.7 2.15 174.75 3.15 175.28 3.54 175.97 2.36 176.64 3.55 177.17 3.15 176.24 2.18 177.59 1.94 177.38 1.29 176.13 1.83 176.29 .47 175.63 .47" style="fill:#0d0d0b;"/><polygon points="177.59 1.94 177.38 1.29 176.13 1.83 176.29 .48 175.63 .48 175.79 1.83 174.56 1.28 174.35 1.91 175.7 2.15 174.76 3.15 175.28 3.54 175.97 2.36 176.64 3.55 177.18 3.15 176.24 2.18 177.59 1.94" style="fill:none; stroke:#0d0d0b; stroke-width:.15px;"/><path d="m175.68,212.47h.56v-4.44h-.56v4.44Zm0-9.53h.56v-4.43h-.56v4.43Zm0-9.53h.56v-4.44h-.56v4.44Zm0-9.53h.56v-4.44h-.56v4.44Zm0-9.53h.56v-4.44h-.56v4.44Zm0-9.53h.56v-4.44h-.56v4.44Zm0-9.53h.56v-4.44h-.56v4.44Zm0-9.53h.56v-4.43h-.56v4.43Zm0-9.53h.56v-4.44h-.56v4.44Zm0-9.53h.56v-4.43h-.56v4.43Zm0-9.53h.56v-4.44h-.56v4.44Zm0-9.53h.56v-4.43h-.56v4.43Zm0-9.53h.56v-4.44h-.56v4.44Zm0-9.53h.56v-4.43h-.56v4.43Zm0-9.53h.56v-4.44h-.56v4.44Zm0-9.53h.56v-4.43h-.56v4.43Zm0-9.53h.56v-4.44h-.56v4.44Zm0-9.53h.56v-4.44h-.56v4.44Zm0-9.53h.56v-4.44h-.56v4.44Zm0-9.53h.56v-4.44h-.56v4.44Zm0-9.53h.56v-4.44h-.56v4.44Zm0-9.53h.56v-4.44h-.56v4.44Z" style="fill:#0d0d0b;"/><path d="m176.24,208.03h-.56v4.44h.56v-4.44Zm0-9.53h-.56v4.44h.56v-4.44Zm0-9.53h-.56v4.44h.56v-4.44Zm0-9.53h-.56v4.44h.56v-4.44Zm0-9.53h-.56v4.44h.56v-4.44Zm0-9.53h-.56v4.44h.56v-4.44Zm0-9.53h-.56v4.44h.56v-4.44Zm0-9.53h-.56v4.44h.56v-4.44Zm0-9.53h-.56v4.44h.56v-4.44Zm0-9.53h-.56v4.44h.56v-4.44Zm0-9.53h-.56v4.44h.56v-4.44Zm0-9.53h-.56v4.44h.56v-4.44Zm0-9.53h-.56v4.44h.56v-4.44Zm0-9.53h-.56v4.44h.56v-4.44Zm0-9.53h-.56v4.44h.56v-4.44Zm0-9.53h-.56v4.44h.56v-4.44Zm0-9.53h-.56v4.44h.56v-4.44Zm0-9.53h-.56v4.44h.56v-4.44Zm0-9.53h-.56v4.44h.56v-4.44Zm0-9.53h-.56v4.44h.56v-4.44Zm0-9.53h-.56v4.44h.56v-4.44Zm0-9.53h-.56v4.44h.56v-4.44Z" style="fill:none; stroke:#0d0d0b; stroke-width:.15px;"/><path d="m3.02,213.88h.56v-4.44h-.56v4.44Zm0-9.53h.56v-4.44h-.56v4.44Zm0-9.53h.56v-4.44h-.56v4.44Zm0-9.53h.56v-4.44h-.56v4.44Zm0-9.53h.56v-4.44h-.56v4.44Zm0-9.53h.56v-4.44h-.56v4.44Zm0-9.53h.56v-4.44h-.56v4.44Zm0-9.53h.56v-4.44h-.56v4.44Zm0-9.53h.56v-4.44h-.56v4.44Zm0-9.53h.56v-4.44h-.56v4.44Zm0-9.53h.56v-4.44h-.56v4.44Zm0-9.53h.56v-4.43h-.56v4.43Zm0-9.53h.56v-4.44h-.56v4.44Zm0-9.53h.56v-4.43h-.56v4.43Zm0-9.53h.56v-4.44h-.56v4.44Zm0-9.53h.56v-4.43h-.56v4.43Zm0-9.53h.56v-4.44h-.56v4.44Zm0-9.53h.56v-4.43h-.56v4.43Zm0-9.53h.56v-4.44h-.56v4.44Zm0-9.53h.56v-4.43h-.56v4.43Zm0-9.53h.56v-4.44h-.56v4.44Zm0-9.53h.56v-4.43h-.56v4.43Z" style="fill:#0d0d0b;"/><path d="m3.58,209.45h-.56v4.44h.56v-4.44Zm0-9.53h-.56v4.44h.56v-4.44Zm0-9.53h-.56v4.44h.56v-4.44Zm0-9.53h-.56v4.44h.56v-4.44Zm0-9.53h-.56v4.44h.56v-4.44Zm0-9.53h-.56v4.44h.56v-4.44Zm0-9.53h-.56v4.44h.56v-4.44Zm0-9.53h-.56v4.44h.56v-4.44Zm0-9.53h-.56v4.44h.56v-4.44Zm0-9.53h-.56v4.44h.56v-4.44Zm0-9.53h-.56v4.44h.56v-4.44Zm0-9.53h-.56v4.44h.56v-4.44Zm0-9.53h-.56v4.44h.56v-4.44Zm0-9.53h-.56v4.44h.56v-4.44Zm0-9.53h-.56v4.44h.56v-4.44Zm0-9.53h-.56v4.44h.56v-4.44Zm0-9.53h-.56v4.44h.56v-4.44Zm0-9.53h-.56v4.44h.56v-4.44Zm0-9.53h-.56v4.44h.56v-4.44Zm0-9.53h-.56v4.44h.56v-4.44Zm0-9.53h-.56v4.44h.56v-4.44Zm0-9.53h-.56v4.44h.56v-4.44Z" style="fill:none; stroke:#0d0d0b; stroke-width:.15px;"/><g style="clip-path:url(#f); fill:none;"><path d="m119.25,132.9l-.28-.86-1.67.72.22-1.81h-.89l.22,1.81-1.64-.73-.28.84,1.8.31-1.26,1.33.7.53.92-1.57.9,1.58.71-.54-1.25-1.29,1.8-.31Zm-27.67,6.53c.38,0,.73-.33.73-.72s-.35-.73-.73-.73-.72.33-.72.73.34.72.72.72m-67.73-6.53l-.28-.86-1.67.72.22-1.81h-.89l.22,1.81-1.64-.73-.27.84,1.8.31-1.26,1.33.7.53.92-1.57.9,1.58.71-.54-1.25-1.29,1.8-.31Z" style="fill:#0d0d0b;"/><path d="m119.25,132.9l-.28-.86-1.67.72.22-1.81h-.89l.22,1.81-1.64-.73-.28.84,1.8.31-1.26,1.33.7.53.92-1.57.9,1.58.71-.54-1.25-1.29,1.8-.31Zm-27.67,6.53c.38,0,.73-.33.73-.72s-.35-.73-.73-.73-.72.33-.72.73.34.72.72.72Zm-67.73-6.53l-.28-.86-1.67.72.22-1.81h-.89l.22,1.81-1.64-.73-.27.84,1.8.31-1.26,1.33.7.53.92-1.57.9,1.58.71-.54-1.25-1.29,1.8-.31Z" style="fill:none; stroke:#0d0d0b; stroke-width:.15px;"/><path d="m148.82,125.03c.38,0,.73-.34.73-.72s-.35-.73-.73-.73-.72.34-.72.73.34.72.72.72" style="fill:#0d0d0b;"/><path d="m148.82,125.03c.38,0,.73-.34.73-.72s-.35-.73-.73-.73-.72.34-.72.73.34.72.72.72Z" style="fill:none; stroke:#0d0d0b; stroke-width:.15px;"/></g><path d="m155.62,102.15h-.74v2.92h.74v-2.92Zm-99.97,1.95l-.28-.86-1.67.72.22-1.81h-.89l.22,1.81-1.64-.73-.27.84,1.8.31-1.26,1.33.7.53.92-1.57.9,1.58.71-.54-1.25-1.29,1.8-.31Z" style="fill:#0d0d0b;"/><path d="m155.62,102.15h-.74v2.92h.74v-2.92Zm-99.97,1.95l-.28-.86-1.67.72.22-1.81h-.89l.22,1.81-1.64-.73-.27.84,1.8.31-1.26,1.33.7.53.92-1.57.9,1.58.71-.54-1.25-1.29,1.8-.31Z" style="fill:none; stroke:#0d0d0b; stroke-width:.15px;"/><g style="clip-path:url(#g); fill:none;"><path d="m168.34,87.75h-.74v2.92h.74v-2.92Zm-32.24,8.48c.38,0,.73-.34.73-.72s-.35-.73-.73-.73-.72.34-.72.73.34.72.72.72m-31.8,0c.38,0,.73-.34.73-.72s-.35-.73-.73-.73-.72.34-.72.73.33.72.72.72m-56.8-8.48h-.74v2.92h.74v-2.92Zm-12.72,0h-.74v2.92h.74v-2.92Zm-25.88,8.48c.38,0,.73-.34.73-.72s-.35-.73-.73-.73-.72.34-.72.73.34.72.72.72" style="fill:#0d0d0b;"/><path d="m168.34,87.75h-.74v2.92h.74v-2.92Zm-32.24,8.48c.38,0,.73-.34.73-.72s-.35-.73-.73-.73-.72.34-.72.73.34.72.72.72Zm-31.8,0c.38,0,.73-.34.73-.72s-.35-.73-.73-.73-.72.34-.72.73.33.72.72.72Zm-56.8-8.48h-.74v2.92h.74v-2.92Zm-12.72,0h-.74v2.92h.74v-2.92Zm-25.88,8.48c.38,0,.73-.34.73-.72s-.35-.73-.73-.73-.72.34-.72.73.34.72.72.72Z" style="fill:none; stroke:#0d0d0b; stroke-width:.15px;"/><path d="m167.9,81.83c.38,0,.73-.34.73-.72s-.35-.73-.73-.73-.72.34-.72.73.34.72.72.72m-5.92-8.48h-.74v2.91h.74v-2.91Zm-6.8,8.48c.38,0,.73-.34.73-.72s-.35-.73-.73-.73-.72.34-.72.73.34.72.72.72m-16.85-6.53l-.28-.86-1.67.72.22-1.81h-.89l.22,1.81-1.64-.73-.28.84,1.8.31-1.26,1.33.7.53.92-1.57.9,1.58.71-.54-1.25-1.29,1.8-.31Zm-57.24,0l-.28-.86-1.67.72.22-1.81h-.89l.22,1.81-1.64-.73-.28.84,1.8.31-1.26,1.33.7.53.92-1.57.9,1.58.71-.54-1.25-1.29,1.8-.31Zm-21.31,6.53c.38,0,.73-.34.73-.72s-.35-.73-.73-.73-.72.34-.72.73.33.72.72.72m-38.16,0c.38,0,.73-.34.73-.72s-.35-.73-.73-.73-.72.34-.72.73.34.72.72.72" style="fill:#0d0d0b;"/><path d="m167.9,81.83c.38,0,.73-.34.73-.72s-.35-.73-.73-.73-.72.34-.72.73.34.72.72.72Zm-5.92-8.48h-.74v2.91h.74v-2.91Zm-6.8,8.48c.38,0,.73-.34.73-.72s-.35-.73-.73-.73-.72.34-.72.73.34.72.72.72Zm-16.85-6.53l-.28-.86-1.67.72.22-1.81h-.89l.22,1.81-1.64-.73-.28.84,1.8.31-1.26,1.33.7.53.92-1.57.9,1.58.71-.54-1.25-1.29,1.8-.31Zm-57.24,0l-.28-.86-1.67.72.22-1.81h-.89l.22,1.81-1.64-.73-.28.84,1.8.31-1.26,1.33.7.53.92-1.57.9,1.58.71-.54-1.25-1.29,1.8-.31Zm-21.31,6.53c.38,0,.73-.34.73-.72s-.35-.73-.73-.73-.72.34-.72.73.33.72.72.72Zm-38.16,0c.38,0,.73-.34.73-.72s-.35-.73-.73-.73-.72.34-.72.73.34.72.72.72Z" style="fill:none; stroke:#0d0d0b; stroke-width:.15px;"/><path d="m66.58,58.95h-.74v2.91h.74v-2.91Zm-6.8,8.48c.38,0,.73-.34.73-.72s-.35-.73-.73-.73-.72.33-.72.73.34.72.72.72m-35.93-6.53l-.28-.86-1.67.72.22-1.81h-.89l.22,1.81-1.64-.73-.27.84,1.8.31-1.26,1.33.7.53.92-1.57.9,1.58.71-.54-1.25-1.29,1.8-.31Z" style="fill:#0d0d0b;"/><path d="m66.58,58.95h-.74v2.91h.74v-2.91Zm-6.8,8.48c.38,0,.73-.34.73-.72s-.35-.73-.73-.73-.72.33-.72.73.34.72.72.72Zm-35.93-6.53l-.28-.86-1.67.72.22-1.81h-.89l.22,1.81-1.64-.73-.27.84,1.8.31-1.26,1.33.7.53.92-1.57.9,1.58.71-.54-1.25-1.29,1.8-.31Z" style="fill:none; stroke:#0d0d0b; stroke-width:.15px;"/></g><g style="clip-path:url(#h); fill:none;"><path d="m167.9,53.03c.38,0,.73-.34.73-.72s-.35-.73-.73-.73-.72.34-.72.73.34.72.72.72m-50.88,0c.38,0,.73-.34.73-.72s-.35-.73-.73-.73-.72.34-.72.73.33.72.72.72m-44.89-1.53h.96l-1.01,2.89h-.69l.74-2.89Zm-10.12-4.99l-.28-.86-1.67.72.22-1.81h-.89l.22,1.81-1.64-.73-.28.84,1.8.31-1.26,1.33.7.53.92-1.57.9,1.58.71-.54-1.25-1.29,1.8-.31Zm-33.59-1.96h-.74v2.91h.74v-2.91Zm-6.8,8.48c.38,0,.73-.34.73-.72s-.35-.73-.73-.73-.72.34-.72.73.34.72.72.72" style="fill:#0d0d0b;"/><path d="m167.9,53.03c.38,0,.73-.34.73-.72s-.35-.73-.73-.73-.72.34-.72.73.34.72.72.72Zm-50.88,0c.38,0,.73-.34.73-.72s-.35-.73-.73-.73-.72.34-.72.73.33.72.72.72Zm-44.89-1.53h.96l-1.01,2.89h-.69l.74-2.89Zm-10.12-4.99l-.28-.86-1.67.72.22-1.81h-.89l.22,1.81-1.64-.73-.28.84,1.8.31-1.26,1.33.7.53.92-1.57.9,1.58.71-.54-1.25-1.29,1.8-.31Zm-33.59-1.96h-.74v2.91h.74v-2.91Zm-6.8,8.48c.38,0,.73-.34.73-.72s-.35-.73-.73-.73-.72.34-.72.73.34.72.72.72Z" style="fill:none; stroke:#0d0d0b; stroke-width:.15px;"/><path d="m154.95,37.13h.96l-1.01,2.89h-.7l.74-2.89Zm-57.01,1.5c.38,0,.73-.34.73-.72s-.35-.73-.73-.73-.72.34-.72.73.33.72.72.72m-12.72,0c.38,0,.73-.34.73-.72s-.35-.73-.73-.73-.72.34-.72.73.33.72.72.72m-50.88,0c.38,0,.73-.34.73-.72s-.35-.73-.73-.73-.72.34-.72.73.33.72.72.72" style="fill:#0d0d0b;"/><path d="m154.95,37.13h.96l-1.01,2.89h-.7l.74-2.89Zm-57.01,1.5c.38,0,.73-.34.73-.72s-.35-.73-.73-.73-.72.34-.72.73.33.72.72.72Zm-12.72,0c.38,0,.73-.34.73-.72s-.35-.73-.73-.73-.72.34-.72.73.33.72.72.72Zm-50.88,0c.38,0,.73-.34.73-.72s-.35-.73-.73-.73-.72.34-.72.73.33.72.72.72Z" style="fill:none; stroke:#0d0d0b; stroke-width:.15px;"/><path d="m151.05,17.7l-.28-.86-1.67.72.22-1.81h-.89l.22,1.81-1.64-.73-.27.84,1.8.31-1.26,1.33.7.53.92-1.57.9,1.58.71-.54-1.25-1.29,1.8-.31Zm-72.56,4.99h.96l-1.01,2.89h-.69l.74-2.89Zm-25.07,1.53c.38,0,.73-.34.73-.72s-.35-.73-.73-.73-.72.34-.72.73.33.72.72.72" style="fill:#0d0d0b;"/><path d="m151.05,17.7l-.28-.86-1.67.72.22-1.81h-.89l.22,1.81-1.64-.73-.27.84,1.8.31-1.26,1.33.7.53.92-1.57.9,1.58.71-.54-1.25-1.29,1.8-.31Zm-72.56,4.99h.96l-1.01,2.89h-.69l.74-2.89Zm-25.07,1.53c.38,0,.73-.34.73-.72s-.35-.73-.73-.73-.72.34-.72.73.33.72.72.72Z" style="fill:none; stroke:#0d0d0b; stroke-width:.15px;"/><path d="m120.51,105.59h-.56v2.19h.56v-2.19Zm-6.56,4.23h3.02v-.54h-3.02v.54Zm-3.31,2.13c.29,0,.55-.25.55-.54s-.26-.55-.55-.55-.54.25-.54.55.25.54.54.54m-4.77,0c.29,0,.55-.25.55-.54s-.26-.55-.55-.55-.54.25-.54.55.25.54.54.54m-6.23-2.13h3.02v-.54h-3.02v.54Zm-2.98-4.23h-.56v2.19h.56v-2.19Z" style="fill:#0d0d0b;"/><path d="m120.51,105.59h-.56v2.19h.56v-2.19Zm-6.56,4.23h3.02v-.54h-3.02v.54Zm-3.31,2.13c.29,0,.55-.25.55-.54s-.26-.55-.55-.55-.54.25-.54.55.25.54.54.54Zm-4.77,0c.29,0,.55-.25.55-.54s-.26-.55-.55-.55-.54.25-.54.55.25.54.54.54Zm-6.23-2.13h3.02v-.54h-3.02v.54Zm-2.98-4.23h-.56v2.19h.56v-2.19Z" style="fill:none; stroke:#0d0d0b; stroke-width:.15px;"/><path d="m124.38,102.9h-.62l1.86-6.31h.61l-1.85,6.31Zm-4.34-1.1h.72l-.76,2.17h-.52l.56-2.17Zm.4-2.39c.29,0,.55-.25.55-.54s-.26-.55-.55-.55-.54.25-.54.55.25.54.54.54m-3.92-1.76l-.81-1.25h-.78l1.05,1.25h.54Zm-20.2,5.29c.29,0,.55-.25.55-.54s-.26-.55-.55-.55-.54.25-.54.55.25.54.54.54m0-3.52c.29,0,.55-.25.55-.54s-.26-.55-.55-.55-.54.25-.54.55.25.54.54.54m-5.35-2.83l1.86,6.31h-.62l-1.85-6.31h.61Z" style="fill:#0d0d0b;"/><path d="m124.38,102.9h-.62l1.86-6.31h.61l-1.85,6.31Zm-4.34-1.1h.72l-.76,2.17h-.52l.56-2.17Zm.4-2.39c.29,0,.55-.25.55-.54s-.26-.55-.55-.55-.54.25-.54.55.25.54.54.54Zm-3.92-1.76l-.81-1.25h-.78l1.05,1.25h.54Zm-20.2,5.29c.29,0,.55-.25.55-.54s-.26-.55-.55-.55-.54.25-.54.55.25.54.54.54Zm0-3.52c.29,0,.55-.25.55-.54s-.26-.55-.55-.55-.54.25-.54.55.25.54.54.54Zm-5.35-2.83l1.86,6.31h-.62l-1.85-6.31h.61Z" style="fill:none; stroke:#0d0d0b; stroke-width:.15px;"/><path d="m129.48,94.52h.59v-6.93s-.59,0-.59,0v6.93Zm-18.84-.58c.29,0,.55-.25.55-.54s-.26-.55-.55-.55-.54.25-.54.55.25.54.54.54m0-3.52c.29,0,.55-.25.55-.54s-.26-.55-.55-.55-.54.25-.54.55.25.54.54.54m-3.65-1.77l-.81-1.25h-.78l1.05,1.25h.54Zm-15.43,5.3c.29,0,.55-.25.55-.54s-.26-.55-.55-.55-.54.25-.54.55.25.54.54.54m-5.01.57h.59v-6.93s-.59,0-.59,0v6.93Z" style="fill:#0d0d0b;"/><path d="m129.48,94.52h.59v-6.93s-.59,0-.59,0v6.93Zm-18.84-.58c.29,0,.55-.25.55-.54s-.26-.55-.55-.55-.54.25-.54.55.25.54.54.54Zm0-3.52c.29,0,.55-.25.55-.54s-.26-.55-.55-.55-.54.25-.54.55.25.54.54.54Zm-3.65-1.77l-.81-1.25h-.78l1.05,1.25h.54Zm-15.43,5.3c.29,0,.55-.25.55-.54s-.26-.55-.55-.55-.54.25-.54.55.25.54.54.54Zm-5.01.57h.59v-6.93s-.59,0-.59,0v6.93Z" style="fill:none; stroke:#0d0d0b; stroke-width:.15px;"/><path d="m124.37,78.59l1.86,6.31h-.62l-1.85-6.31h.61Zm-8.63,0h-.56v2.19h.56v-2.19Zm-5.24,5.21h.72l-.75,2.17h-.52l.56-2.17Zm.4-2.38c.29,0,.55-.25.55-.54s-.26-.55-.55-.55-.54.25-.54.55.25.54.54.54m-5.17,2.38h.72l-.76,2.17h-.52l.56-2.17Zm.4-2.38c.29,0,.55-.25.55-.54s-.26-.55-.55-.55-.54.25-.54.55.25.54.54.54m-5.17,2.38h.72l-.75,2.17h-.52l.56-2.17Zm.4-2.38c.29,0,.55-.25.55-.54s-.26-.55-.55-.55-.54.25-.54.55.25.54.54.54m-10.37,3.48h-.62l1.86-6.31h.61l-1.85,6.31Z" style="fill:#0d0d0b;"/><path d="m124.37,78.59l1.86,6.31h-.62l-1.85-6.31h.61Zm-8.63,0h-.56v2.19h.56v-2.19Zm-5.24,5.21h.72l-.75,2.17h-.52l.56-2.17Zm.4-2.38c.29,0,.55-.25.55-.54s-.26-.55-.55-.55-.54.25-.54.55.25.54.54.54Zm-5.17,2.38h.72l-.76,2.17h-.52l.56-2.17Zm.4-2.38c.29,0,.55-.25.55-.54s-.26-.55-.55-.55-.54.25-.54.55.25.54.54.54Zm-5.17,2.38h.72l-.75,2.17h-.52l.56-2.17Zm.4-2.38c.29,0,.55-.25.55-.54s-.26-.55-.55-.55-.54.25-.54.55.25.54.54.54Zm-10.37,3.48h-.62l1.86-6.31h.61l-1.85,6.31Z" style="fill:none; stroke:#0d0d0b; stroke-width:.15px;"/><path d="m120.18,75.96c.29,0,.55-.25.55-.54s-.26-.55-.55-.55-.54.25-.54.55.25.54.54.54m-6.23-2.13h3.02v-.54h-3.02v.54Zm-3.45.98h.72l-.76,2.17h-.52l.56-2.17Zm.4-2.38c.29,0,.55-.25.55-.54s-.26-.55-.55-.55-.54.25-.54.55.25.54.54.54m-5.17,2.38h.72l-.76,2.17h-.52l.56-2.17Zm.4-2.38c.29,0,.55-.25.55-.54s-.26-.55-.55-.55-.54.25-.54.55.25.54.54.54m-6.49,1.4h3.02v-.54h-3.02v.54Zm-3.31,2.13c.29,0,.55-.25.55-.54s-.26-.55-.55-.55-.54.25-.54.55.25.54.54.54" style="fill:#0d0d0b;"/><path d="m120.18,75.96c.29,0,.55-.25.55-.54s-.26-.55-.55-.55-.54.25-.54.55.25.54.54.54Zm-6.23-2.13h3.02v-.54h-3.02v.54Zm-3.45.98h.72l-.76,2.17h-.52l.56-2.17Zm.4-2.38c.29,0,.55-.25.55-.54s-.26-.55-.55-.55-.54.25-.54.55.25.54.54.54Zm-5.17,2.38h.72l-.76,2.17h-.52l.56-2.17Zm.4-2.38c.29,0,.55-.25.55-.54s-.26-.55-.55-.55-.54.25-.54.55.25.54.54.54Zm-6.49,1.4h3.02v-.54h-3.02v.54Zm-3.31,2.13c.29,0,.55-.25.55-.54s-.26-.55-.55-.55-.54.25-.54.55.25.54.54.54Z" style="fill:none; stroke:#0d0d0b; stroke-width:.15px;"/><path d="m124.53,207.18c-.14-.8-.74-1.25-1.49-1.25s-1.43.47-1.43,1.16c0,.46.29.83.85,1.11l1.04.52c.32.17.52.32.52.68,0,.4-.42.66-.94.66s-.94-.26-1.1-.83h-.59c.17.85.86,1.39,1.69,1.39.53,0,1.03-.21,1.31-.57.13-.18.21-.39.21-.63,0-.58-.31-.93-.82-1.18l-1.05-.52c-.4-.19-.57-.34-.57-.62,0-.37.4-.6.86-.6.44,0,.78.22.9.69h.59Zm-6.26-.69c.62,0,.96.58,1.03,1.38h-2.13c.1-.79.46-1.38,1.11-1.38m0-.56c-.75,0-1.27.48-1.52,1.19-.13.35-.19.74-.19,1.15,0,.83.24,1.59.75,2.02.26.21.58.32.95.32.83,0,1.42-.59,1.56-1.49h-.59c-.13.62-.45.93-.96.93-.72,0-1.09-.74-1.12-1.63h2.76c.03-1.38-.49-2.49-1.64-2.49m-3.8,0c-.36,0-.66.25-.85.73-.07-.44-.29-.73-.69-.73-.33,0-.64.23-.79.7l-.04-.6h-.49l-.02,4.5h.57v-2.7c0-.69.16-1.34.63-1.34.17,0,.28.07.33.21.04.14.07.38.07.7v3.13h.58v-2.7c0-.79.09-1.34.59-1.34.33,0,.39.26.39.77v3.28h.57v-3.3c0-.75-.24-1.3-.84-1.3m-4.29,4.03h-1.19v-3.94h-1.57v.56h.98v3.39h-1.21v.56h2.98v-.56Zm-1.55-4.63c.25,0,.45-.21.45-.46s-.2-.45-.45-.45-.45.21-.45.45.2.46.45.46m-3.31,4.42c-.22.12-.58.22-.78.22-.42,0-.62-.17-.62-.65v-2.75h1.35v-.54h-1.35v-1.5h-.57v1.5h-1.08v.54h1.08v2.75c0,.75.42,1.2,1.15,1.2.25,0,.68-.08.94-.22l-.12-.56Zm-10.39-2.57c.68-.18,1.16-.83,1.16-1.47,0-.6-.31-1.11-.8-1.38-.25-.14-.53-.2-.84-.2-.64,0-1.2.3-1.55.79-.18.24-.3.52-.34.82h.58c.15-.61.66-1.04,1.31-1.04.58,0,1.05.42,1.05,1.01,0,.76-.61,1.21-1.41,1.21h-.22v.56h.22c.94,0,1.62.47,1.62,1.31,0,.75-.5,1.28-1.27,1.28s-1.22-.44-1.39-1.1h-.6c.22.95.89,1.66,1.98,1.66.72,0,1.31-.33,1.64-.89.15-.28.23-.59.23-.94,0-.51-.25-1-.67-1.31-.21-.15-.44-.25-.69-.29m-8.57,0c-.14-.8-.74-1.25-1.49-1.25s-1.43.47-1.43,1.16c0,.46.29.83.85,1.11l1.05.52c.32.17.52.32.52.68,0,.4-.42.66-.94.66s-.95-.26-1.1-.83h-.59c.17.85.86,1.39,1.69,1.39.53,0,1.03-.21,1.3-.57.13-.18.21-.39.21-.63,0-.58-.31-.93-.82-1.18l-1.05-.52c-.4-.19-.57-.34-.57-.62,0-.37.4-.6.86-.6.44,0,.78.22.9.69h.59Zm-5.78-1.25c-.46,0-.88.23-1.13.73v-.64h-.58v4.5h.57v-2.45c0-.9.4-1.58,1.04-1.58.44,0,.67.29.71.86h.58c-.04-.89-.5-1.42-1.19-1.42m-5.49,4.13c-.5,0-.83-.27-.83-.74,0-.68.8-.96,1.7-.96h.36v.25c0,.82-.48,1.45-1.23,1.45m.42-4.13c-.77,0-1.41.49-1.51,1.35h.59c.04-.51.45-.79.92-.79.51,0,.81.33.81,1.03v.31h-.31c-1.31,0-2.33.44-2.33,1.51,0,.78.59,1.28,1.38,1.28.48,0,1.05-.28,1.25-.76l.02.66h.57v-3c0-1.01-.52-1.58-1.39-1.58m-3.24-1.71h-.66l-1.09,3.16-1.09-3.17h-.68v6.31h.6l-.02-4.96.9,2.62h.58l.88-2.62v4.96h.59v-6.3Zm-11.28,5.83c.75,0,1.02-.78,1.02-1.78s-.27-1.78-1.02-1.78-1.04.81-1.04,1.78.28,1.78,1.04,1.78m0-4.12c.75,0,1.23.49,1.46,1.2.11.35.16.74.16,1.14,0,1.32-.51,2.34-1.62,2.34s-1.62-1.02-1.62-2.34.53-2.34,1.62-2.34m-3.37,3.82c-.23.12-.58.22-.78.22-.42,0-.62-.17-.62-.65v-2.75h1.35v-.54h-1.35v-1.5h-.57v1.5h-1.08v.54h1.08v2.75c0,.75.42,1.2,1.15,1.2.25,0,.68-.08.94-.22l-.12-.56Z" style="fill:#0d0d0b;"/><path d="m124.53,207.18c-.14-.8-.74-1.25-1.49-1.25s-1.43.47-1.43,1.16c0,.46.29.83.85,1.11l1.04.52c.32.17.52.32.52.68,0,.4-.42.66-.94.66s-.94-.26-1.1-.83h-.59c.17.85.86,1.39,1.69,1.39.53,0,1.03-.21,1.31-.57.13-.18.21-.39.21-.63,0-.58-.31-.93-.82-1.18l-1.05-.52c-.4-.19-.57-.34-.57-.62,0-.37.4-.6.86-.6.44,0,.78.22.9.69h.59Zm-6.26-.69c.62,0,.96.58,1.03,1.38h-2.13c.1-.79.46-1.38,1.11-1.38Zm0-.56c-.75,0-1.27.48-1.52,1.19-.13.35-.19.74-.19,1.15,0,.83.24,1.59.75,2.02.26.21.58.32.95.32.83,0,1.42-.59,1.56-1.49h-.59c-.13.62-.45.93-.96.93-.72,0-1.09-.74-1.12-1.63h2.76c.03-1.38-.49-2.49-1.64-2.49Zm-3.8,0c-.36,0-.66.25-.85.73-.07-.44-.29-.73-.69-.73-.33,0-.64.23-.79.7l-.04-.6h-.49l-.02,4.5h.57v-2.7c0-.69.16-1.34.63-1.34.17,0,.28.07.33.21.04.14.07.38.07.7v3.13h.58v-2.7c0-.79.09-1.34.59-1.34.33,0,.39.26.39.77v3.28h.57v-3.3c0-.75-.24-1.3-.84-1.3Zm-4.29,4.03h-1.19v-3.94h-1.57v.56h.98v3.39h-1.21v.56h2.98v-.56Zm-1.55-4.63c.25,0,.45-.21.45-.46s-.2-.45-.45-.45-.45.21-.45.45.2.46.45.46Zm-3.31,4.42c-.22.12-.58.22-.78.22-.42,0-.62-.17-.62-.65v-2.75h1.35v-.54h-1.35v-1.5h-.57v1.5h-1.08v.54h1.08v2.75c0,.75.42,1.2,1.15,1.2.25,0,.68-.08.94-.22l-.12-.56Zm-10.39-2.57c.68-.18,1.16-.83,1.16-1.47,0-.6-.31-1.11-.8-1.38-.25-.14-.53-.2-.84-.2-.64,0-1.2.3-1.55.79-.18.24-.3.52-.34.82h.58c.15-.61.66-1.04,1.31-1.04.58,0,1.05.42,1.05,1.01,0,.76-.61,1.21-1.41,1.21h-.22v.56h.22c.94,0,1.62.47,1.62,1.31,0,.75-.5,1.28-1.27,1.28s-1.22-.44-1.39-1.1h-.6c.22.95.89,1.66,1.98,1.66.72,0,1.31-.33,1.64-.89.15-.28.23-.59.23-.94,0-.51-.25-1-.67-1.31-.21-.15-.44-.25-.69-.29Zm-8.57,0c-.14-.8-.74-1.25-1.49-1.25s-1.43.47-1.43,1.16c0,.46.29.83.85,1.11l1.05.52c.32.17.52.32.52.68,0,.4-.42.66-.94.66s-.95-.26-1.1-.83h-.59c.17.85.86,1.39,1.69,1.39.53,0,1.03-.21,1.3-.57.13-.18.21-.39.21-.63,0-.58-.31-.93-.82-1.18l-1.05-.52c-.4-.19-.57-.34-.57-.62,0-.37.4-.6.86-.6.44,0,.78.22.9.69h.59Zm-5.78-1.25c-.46,0-.88.23-1.13.73v-.64h-.58v4.5h.57v-2.45c0-.9.4-1.58,1.04-1.58.44,0,.67.29.71.86h.58c-.04-.89-.5-1.42-1.19-1.42Zm-5.49,4.13c-.5,0-.83-.27-.83-.74,0-.68.8-.96,1.7-.96h.36v.25c0,.82-.48,1.45-1.23,1.45Zm.42-4.13c-.77,0-1.41.49-1.51,1.35h.59c.04-.51.45-.79.92-.79.51,0,.81.33.81,1.03v.31h-.31c-1.31,0-2.33.44-2.33,1.51,0,.78.59,1.28,1.38,1.28.48,0,1.05-.28,1.25-.76l.02.66h.57v-3c0-1.01-.52-1.58-1.39-1.58Zm-3.24-1.71h-.66l-1.09,3.16-1.09-3.17h-.68v6.31h.6l-.02-4.96.9,2.62h.58l.88-2.62v4.96h.59v-6.3Zm-11.28,5.83c.75,0,1.02-.78,1.02-1.78s-.27-1.78-1.02-1.78-1.04.81-1.04,1.78.28,1.78,1.04,1.78Zm0-4.12c.75,0,1.23.49,1.46,1.2.11.35.16.74.16,1.14,0,1.32-.51,2.34-1.62,2.34s-1.62-1.02-1.62-2.34.53-2.34,1.62-2.34Zm-3.37,3.82c-.23.12-.58.22-.78.22-.42,0-.62-.17-.62-.65v-2.75h1.35v-.54h-1.35v-1.5h-.57v1.5h-1.08v.54h1.08v2.75c0,.75.42,1.2,1.15,1.2.25,0,.68-.08.94-.22l-.12-.56Z" style="fill:none; stroke:#0d0d0b; stroke-width:.15px;"/><path d="m158.81,195.69c.62,0,.96.58,1.03,1.38h-2.13c.1-.79.46-1.38,1.11-1.38m0-.56c-.75,0-1.27.48-1.52,1.19-.13.35-.19.74-.19,1.15,0,.83.24,1.58.75,2.02.26.22.58.32.96.32.83,0,1.42-.59,1.56-1.49h-.59c-.13.62-.45.93-.96.93-.72,0-1.09-.74-1.13-1.63h2.76c.03-1.38-.49-2.49-1.64-2.49m-6.47.09l1.33,4.5h.67l1.33-4.5h-.6l-1.06,3.78-1.06-3.78h-.6Zm-1.61,3.93h-1.19v-3.94h-1.57v.56h.98v3.39h-1.21v.56h2.98v-.56Zm-1.55-4.63c.25,0,.45-.21.45-.46s-.2-.45-.45-.45-.45.21-.45.45.2.46.45.46m-4.19.6c-.46,0-.88.23-1.13.73v-.64h-.58v4.5h.58v-2.45c0-.9.4-1.58,1.04-1.58.44,0,.67.29.71.86h.58c-.04-.89-.5-1.42-1.19-1.42m-5.24,4.12c-.75,0-1.08-.77-1.08-1.78s.33-1.77,1.08-1.77c.66,0,1.02.66,1.02,1.77s-.36,1.78-1.02,1.78m.98-3.43c-.21-.42-.61-.68-1.05-.68-1.04,0-1.59,1-1.59,2.33s.56,2.34,1.59,2.34c.46,0,.86-.29,1.07-.72v.63h.57v-6.3h-.58v2.4Zm-10.57,3.43c.75,0,1.02-.78,1.02-1.78s-.27-1.78-1.02-1.78-1.04.81-1.04,1.78.28,1.78,1.04,1.78m0-4.12c.75,0,1.23.49,1.46,1.2.11.35.16.74.16,1.14,0,1.32-.51,2.34-1.62,2.34s-1.62-1.02-1.62-2.34.53-2.34,1.62-2.34m-3.37,3.82c-.22.12-.58.22-.78.22-.42,0-.62-.17-.62-.65v-2.75h1.35v-.54h-1.35v-1.5h-.58v1.5h-1.08v.54h1.08v2.75c0,.75.42,1.2,1.15,1.2.25,0,.68-.08.94-.22l-.12-.56Zm-12.67-3.73l1.49,4.45-.54,1.62h.6l1.95-6.07h-.61l-1.12,3.65-1.15-3.65h-.61Zm-3.14,4.03c-.75,0-1.08-.77-1.08-1.78s.33-1.77,1.08-1.77c.66,0,1.02.66,1.02,1.77s-.36,1.78-1.02,1.78m.98-4.03v.6c-.21-.42-.61-.68-1.05-.68-1.04,0-1.59,1-1.59,2.33s.56,2.34,1.59,2.34c.46,0,.86-.28,1.06-.71v.68c0,.76-.3,1.14-.95,1.14-.44,0-.86-.23-.95-.71h-.58c.04.53.39.93.85,1.12.23.1.45.14.68.14.98,0,1.54-.65,1.54-1.69v-4.56h-.59Zm-5.13-.09c-.46,0-.88.23-1.14.73v-.64h-.58v4.5h.57v-2.45c0-.9.4-1.58,1.04-1.58.44,0,.67.29.71.86h.58c-.04-.89-.5-1.42-1.19-1.42m-5.26.56c.62,0,.96.58,1.03,1.38h-2.13c.1-.79.46-1.38,1.11-1.38m0-.56c-.75,0-1.27.48-1.52,1.19-.13.35-.19.74-.19,1.15,0,.83.24,1.58.76,2.02.26.22.58.32.95.32.83,0,1.42-.59,1.56-1.49h-.59c-.14.62-.45.93-.96.93-.72,0-1.09-.74-1.13-1.63h2.76c.03-1.38-.49-2.49-1.64-2.49m-4.53,0c-.54,0-1.01.26-1.27.74v-.65s-.59,0-.59,0v4.5h.58v-2.45c0-.97.41-1.58,1.2-1.58.55,0,.78.39.78,1.01v3.02h.58v-3.02c0-.93-.46-1.57-1.3-1.57m-5.01.56c.62,0,.96.58,1.03,1.38h-2.13c.1-.79.46-1.38,1.11-1.38m0-.56c-.75,0-1.27.48-1.52,1.19-.13.35-.19.74-.19,1.15,0,.83.24,1.58.76,2.02.26.22.58.32.95.32.83,0,1.42-.59,1.56-1.49h-.59c-.14.62-.45.93-.96.93-.72,0-1.09-.74-1.13-1.63h2.76c.03-1.38-.49-2.49-1.64-2.49m-9.37,0c-.54,0-1.02.26-1.27.74v-.65s0-1.8,0-1.8h-.59v6.3h.58v-2.45c0-.97.41-1.58,1.2-1.58.55,0,.78.39.78,1.01v3.02h.58v-3.02c0-.93-.46-1.57-1.29-1.57m-5.08,4.12c-.75,0-1.08-.77-1.08-1.78s.33-1.77,1.08-1.77c.66,0,1.02.66,1.02,1.77s-.36,1.78-1.02,1.78m.98-4.03v.6c-.21-.42-.61-.68-1.05-.68-1.04,0-1.59,1-1.59,2.33s.56,2.34,1.59,2.34c.46,0,.86-.28,1.06-.71v.68c0,.76-.3,1.14-.95,1.14-.44,0-.86-.23-.95-.71h-.58c.04.53.39.93.85,1.12.23.1.45.14.68.14.98,0,1.54-.65,1.54-1.69v-4.56h-.59Zm-4.66,2.45c0,.97-.41,1.58-1.2,1.58-.54,0-.78-.39-.78-1.01v-3.02h-.58v3.02c0,.93.46,1.57,1.3,1.57.54,0,1.01-.26,1.27-.74v.65s.59,0,.59,0v-4.5h-.58v2.45Zm-5.75,1.58c.75,0,1.02-.78,1.02-1.78s-.27-1.78-1.02-1.78-1.04.81-1.04,1.78.28,1.78,1.04,1.78m0-4.12c.75,0,1.23.49,1.46,1.2.11.35.16.74.16,1.14,0,1.32-.51,2.34-1.62,2.34s-1.62-1.02-1.62-2.34.53-2.34,1.62-2.34m-4.49,0c-.54,0-1.01.26-1.27.74v-.65s-.59,0-.59,0v4.5h.58v-2.45c0-.97.41-1.58,1.2-1.58.55,0,.78.39.78,1.01v3.02h.58v-3.02c0-.93-.46-1.57-1.29-1.57m-5.01.56c.62,0,.96.58,1.03,1.38h-2.13c.1-.79.46-1.38,1.11-1.38m0-.56c-.75,0-1.27.48-1.52,1.19-.13.35-.19.74-.19,1.15,0,.83.24,1.58.76,2.02.26.22.58.32.96.32.83,0,1.42-.59,1.56-1.49h-.59c-.13.62-.45.93-.96.93-.72,0-1.09-.74-1.13-1.63h2.76c.03-1.38-.49-2.49-1.64-2.49m-9.54.56c.62,0,.96.58,1.03,1.38h-2.13c.1-.79.46-1.38,1.11-1.38m0-.56c-.75,0-1.27.48-1.52,1.19-.13.35-.19.74-.19,1.15,0,.83.24,1.58.76,2.02.26.22.58.32.96.32.83,0,1.42-.59,1.56-1.49h-.59c-.13.62-.45.93-.96.93-.72,0-1.09-.74-1.13-1.63h2.76c.03-1.38-.49-2.49-1.64-2.49m-3.8,0c-.36,0-.66.25-.85.73-.07-.44-.29-.73-.69-.73-.33,0-.64.23-.79.7l-.04-.6h-.49l-.02,4.5h.57v-2.7c0-.69.16-1.34.63-1.34.17,0,.28.07.33.21.04.14.07.38.07.7v3.13h.58v-2.7c0-.79.09-1.34.59-1.34.33,0,.39.26.39.76v3.28h.57v-3.3c0-.75-.24-1.3-.84-1.3m-4.79,2.55c0,.97-.41,1.58-1.2,1.58-.54,0-.78-.39-.78-1.01v-3.02h-.58v3.02c0,.93.46,1.57,1.3,1.57.54,0,1.01-.26,1.27-.74v.65s.59,0,.59,0v-4.5h-.58v2.45Zm-4.23-1.29c-.14-.8-.74-1.25-1.49-1.25-.79,0-1.43.47-1.43,1.16,0,.46.29.83.85,1.11l1.04.52c.32.17.52.32.52.67,0,.4-.42.66-.94.66s-.95-.26-1.1-.83h-.59c.17.85.86,1.39,1.69,1.39.53,0,1.03-.21,1.31-.57.13-.18.21-.39.21-.63,0-.58-.31-.93-.82-1.18l-1.04-.52c-.41-.19-.57-.34-.57-.62,0-.37.4-.6.87-.6.44,0,.78.22.9.69h.59Zm-6.02-1.25c-.54,0-1.01.26-1.27.74v-.65s-.59,0-.59,0v4.5h.58v-2.45c0-.97.41-1.58,1.2-1.58.55,0,.78.39.78,1.01v3.02h.58v-3.02c0-.93-.46-1.57-1.29-1.57m-5.04,4.12c.75,0,1.02-.78,1.02-1.78s-.27-1.78-1.02-1.78-1.04.81-1.04,1.78.28,1.78,1.04,1.78m0-4.12c.75,0,1.23.49,1.46,1.2.11.35.16.74.16,1.14,0,1.32-.51,2.34-1.62,2.34s-1.62-1.02-1.62-2.34.53-2.34,1.62-2.34m-4.66,4.12c-.75,0-1.13-.79-1.13-1.77s.38-1.76,1.13-1.76c.5,0,.81.36.89.96h.59c-.11-.94-.67-1.52-1.48-1.52-.72,0-1.25.44-1.51,1.15-.14.35-.2.75-.2,1.17h0c0,.86.27,1.6.78,2.02.26.21.57.31.93.31.82,0,1.38-.58,1.48-1.52h-.59c-.08.6-.39.96-.89.96" style="fill:#0d0d0b;"/><path d="m158.81,195.69c.62,0,.96.58,1.03,1.38h-2.13c.1-.79.46-1.38,1.11-1.38Zm0-.56c-.75,0-1.27.48-1.52,1.19-.13.35-.19.74-.19,1.15,0,.83.24,1.58.75,2.02.26.22.58.32.96.32.83,0,1.42-.59,1.56-1.49h-.59c-.13.62-.45.93-.96.93-.72,0-1.09-.74-1.13-1.63h2.76c.03-1.38-.49-2.49-1.64-2.49Zm-6.47.09l1.33,4.5h.67l1.33-4.5h-.6l-1.06,3.78-1.06-3.78h-.6Zm-1.61,3.93h-1.19v-3.94h-1.57v.56h.98v3.39h-1.21v.56h2.98v-.56Zm-1.55-4.63c.25,0,.45-.21.45-.46s-.2-.45-.45-.45-.45.21-.45.45.2.46.45.46Zm-4.19.6c-.46,0-.88.23-1.13.73v-.64h-.58v4.5h.58v-2.45c0-.9.4-1.58,1.04-1.58.44,0,.67.29.71.86h.58c-.04-.89-.5-1.42-1.19-1.42Zm-5.24,4.12c-.75,0-1.08-.77-1.08-1.78s.33-1.77,1.08-1.77c.66,0,1.02.66,1.02,1.77s-.36,1.78-1.02,1.78Zm.98-3.43c-.21-.42-.61-.68-1.05-.68-1.04,0-1.59,1-1.59,2.33s.56,2.34,1.59,2.34c.46,0,.86-.29,1.07-.72v.63h.57v-6.3h-.58v2.4Zm-10.57,3.43c.75,0,1.02-.78,1.02-1.78s-.27-1.78-1.02-1.78-1.04.81-1.04,1.78.28,1.78,1.04,1.78Zm0-4.12c.75,0,1.23.49,1.46,1.2.11.35.16.74.16,1.14,0,1.32-.51,2.34-1.62,2.34s-1.62-1.02-1.62-2.34.53-2.34,1.62-2.34Zm-3.37,3.82c-.22.12-.58.22-.78.22-.42,0-.62-.17-.62-.65v-2.75h1.35v-.54h-1.35v-1.5h-.58v1.5h-1.08v.54h1.08v2.75c0,.75.42,1.2,1.15,1.2.25,0,.68-.08.94-.22l-.12-.56Zm-12.67-3.73l1.49,4.45-.54,1.62h.6l1.95-6.07h-.61l-1.12,3.65-1.15-3.65h-.61Zm-3.14,4.03c-.75,0-1.08-.77-1.08-1.78s.33-1.77,1.08-1.77c.66,0,1.02.66,1.02,1.77s-.36,1.78-1.02,1.78Zm.98-4.03v.6c-.21-.42-.61-.68-1.05-.68-1.04,0-1.59,1-1.59,2.33s.56,2.34,1.59,2.34c.46,0,.86-.28,1.06-.71v.68c0,.76-.3,1.14-.95,1.14-.44,0-.86-.23-.95-.71h-.58c.04.53.39.93.85,1.12.23.1.45.14.68.14.98,0,1.54-.65,1.54-1.69v-4.56h-.59Zm-5.13-.09c-.46,0-.88.23-1.14.73v-.64h-.58v4.5h.57v-2.45c0-.9.4-1.58,1.04-1.58.44,0,.67.29.71.86h.58c-.04-.89-.5-1.42-1.19-1.42Zm-5.26.56c.62,0,.96.58,1.03,1.38h-2.13c.1-.79.46-1.38,1.11-1.38Zm0-.56c-.75,0-1.27.48-1.52,1.19-.13.35-.19.74-.19,1.15,0,.83.24,1.58.76,2.02.26.22.58.32.95.32.83,0,1.42-.59,1.56-1.49h-.59c-.14.62-.45.93-.96.93-.72,0-1.09-.74-1.13-1.63h2.76c.03-1.38-.49-2.49-1.64-2.49Zm-4.53,0c-.54,0-1.01.26-1.27.74v-.65s-.59,0-.59,0v4.5h.58v-2.45c0-.97.41-1.58,1.2-1.58.55,0,.78.39.78,1.01v3.02h.58v-3.02c0-.93-.46-1.57-1.3-1.57Zm-5.01.56c.62,0,.96.58,1.03,1.38h-2.13c.1-.79.46-1.38,1.11-1.38Zm0-.56c-.75,0-1.27.48-1.52,1.19-.13.35-.19.74-.19,1.15,0,.83.24,1.58.76,2.02.26.22.58.32.95.32.83,0,1.42-.59,1.56-1.49h-.59c-.14.62-.45.93-.96.93-.72,0-1.09-.74-1.13-1.63h2.76c.03-1.38-.49-2.49-1.64-2.49Zm-9.37,0c-.54,0-1.02.26-1.27.74v-.65s0-1.8,0-1.8h-.59v6.3h.58v-2.45c0-.97.41-1.58,1.2-1.58.55,0,.78.39.78,1.01v3.02h.58v-3.02c0-.93-.46-1.57-1.29-1.57Zm-5.08,4.12c-.75,0-1.08-.77-1.08-1.78s.33-1.77,1.08-1.77c.66,0,1.02.66,1.02,1.77s-.36,1.78-1.02,1.78Zm.98-4.03v.6c-.21-.42-.61-.68-1.05-.68-1.04,0-1.59,1-1.59,2.33s.56,2.34,1.59,2.34c.46,0,.86-.28,1.06-.71v.68c0,.76-.3,1.14-.95,1.14-.44,0-.86-.23-.95-.71h-.58c.04.53.39.93.85,1.12.23.1.45.14.68.14.98,0,1.54-.65,1.54-1.69v-4.56h-.59Zm-4.66,2.45c0,.97-.41,1.58-1.2,1.58-.54,0-.78-.39-.78-1.01v-3.02h-.58v3.02c0,.93.46,1.57,1.3,1.57.54,0,1.01-.26,1.27-.74v.65s.59,0,.59,0v-4.5h-.58v2.45Zm-5.75,1.58c.75,0,1.02-.78,1.02-1.78s-.27-1.78-1.02-1.78-1.04.81-1.04,1.78.28,1.78,1.04,1.78Zm0-4.12c.75,0,1.23.49,1.46,1.2.11.35.16.74.16,1.14,0,1.32-.51,2.34-1.62,2.34s-1.62-1.02-1.62-2.34.53-2.34,1.62-2.34Zm-4.49,0c-.54,0-1.01.26-1.27.74v-.65s-.59,0-.59,0v4.5h.58v-2.45c0-.97.41-1.58,1.2-1.58.55,0,.78.39.78,1.01v3.02h.58v-3.02c0-.93-.46-1.57-1.29-1.57Zm-5.01.56c.62,0,.96.58,1.03,1.38h-2.13c.1-.79.46-1.38,1.11-1.38Zm0-.56c-.75,0-1.27.48-1.52,1.19-.13.35-.19.74-.19,1.15,0,.83.24,1.58.76,2.02.26.22.58.32.96.32.83,0,1.42-.59,1.56-1.49h-.59c-.13.62-.45.93-.96.93-.72,0-1.09-.74-1.13-1.63h2.76c.03-1.38-.49-2.49-1.64-2.49Zm-9.54.56c.62,0,.96.58,1.03,1.38h-2.13c.1-.79.46-1.38,1.11-1.38Zm0-.56c-.75,0-1.27.48-1.52,1.19-.13.35-.19.74-.19,1.15,0,.83.24,1.58.76,2.02.26.22.58.32.96.32.83,0,1.42-.59,1.56-1.49h-.59c-.13.62-.45.93-.96.93-.72,0-1.09-.74-1.13-1.63h2.76c.03-1.38-.49-2.49-1.64-2.49Zm-3.8,0c-.36,0-.66.25-.85.73-.07-.44-.29-.73-.69-.73-.33,0-.64.23-.79.7l-.04-.6h-.49l-.02,4.5h.57v-2.7c0-.69.16-1.34.63-1.34.17,0,.28.07.33.21.04.14.07.38.07.7v3.13h.58v-2.7c0-.79.09-1.34.59-1.34.33,0,.39.26.39.76v3.28h.57v-3.3c0-.75-.24-1.3-.84-1.3Zm-4.79,2.55c0,.97-.41,1.58-1.2,1.58-.54,0-.78-.39-.78-1.01v-3.02h-.58v3.02c0,.93.46,1.57,1.3,1.57.54,0,1.01-.26,1.27-.74v.65s.59,0,.59,0v-4.5h-.58v2.45Zm-4.23-1.29c-.14-.8-.74-1.25-1.49-1.25-.79,0-1.43.47-1.43,1.16,0,.46.29.83.85,1.11l1.04.52c.32.17.52.32.52.67,0,.4-.42.66-.94.66s-.95-.26-1.1-.83h-.59c.17.85.86,1.39,1.69,1.39.53,0,1.03-.21,1.31-.57.13-.18.21-.39.21-.63,0-.58-.31-.93-.82-1.18l-1.04-.52c-.41-.19-.57-.34-.57-.62,0-.37.4-.6.87-.6.44,0,.78.22.9.69h.59Zm-6.02-1.25c-.54,0-1.01.26-1.27.74v-.65s-.59,0-.59,0v4.5h.58v-2.45c0-.97.41-1.58,1.2-1.58.55,0,.78.39.78,1.01v3.02h.58v-3.02c0-.93-.46-1.57-1.29-1.57Zm-5.04,4.12c.75,0,1.02-.78,1.02-1.78s-.27-1.78-1.02-1.78-1.04.81-1.04,1.78.28,1.78,1.04,1.78Zm0-4.12c.75,0,1.23.49,1.46,1.2.11.35.16.74.16,1.14,0,1.32-.51,2.34-1.62,2.34s-1.62-1.02-1.62-2.34.53-2.34,1.62-2.34Zm-4.66,4.12c-.75,0-1.13-.79-1.13-1.77s.38-1.76,1.13-1.76c.5,0,.81.36.89.96h.59c-.11-.94-.67-1.52-1.48-1.52-.72,0-1.25.44-1.51,1.15-.14.35-.2.75-.2,1.17h0c0,.86.27,1.6.78,2.02.26.21.57.31.93.31.82,0,1.38-.58,1.48-1.52h-.59c-.08.6-.39.96-.89.96Z" style="fill:none; stroke:#0d0d0b; stroke-width:.15px;"/><path d="m146.89,184.89c.62,0,.96.58,1.03,1.38h-2.13c.1-.79.46-1.38,1.11-1.38m0-.56c-.75,0-1.27.48-1.52,1.19-.13.35-.19.74-.19,1.15,0,.83.24,1.59.76,2.02.26.22.58.32.95.32.83,0,1.42-.59,1.56-1.48h-.59c-.14.62-.45.93-.96.93-.72,0-1.09-.74-1.12-1.63h2.76c.03-1.38-.49-2.49-1.64-2.49m-4.86,4.11c-.66,0-1.02-.66-1.02-1.77s.36-1.78,1.02-1.78c.75,0,1.08.77,1.08,1.78s-.33,1.77-1.08,1.77m.07-4.11c-.47,0-.86.29-1.07.72v-.63h-.57v6.3h.58v-2.4c.21.42.61.68,1.05.68,1.04,0,1.59-1,1.59-2.33s-.56-2.34-1.59-2.34m-4.78,4.12c.76,0,1.03-.78,1.03-1.78s-.27-1.78-1.03-1.78-1.04.81-1.04,1.78.28,1.78,1.04,1.78m0-4.12c.75,0,1.23.49,1.46,1.2.11.35.16.74.16,1.14,0,1.32-.51,2.34-1.62,2.34s-1.62-1.02-1.62-2.34.53-2.34,1.62-2.34m-4.25,0c-.46,0-.88.23-1.13.73v-.64h-.58v4.5h.57v-2.45c0-.9.4-1.58,1.03-1.58.44,0,.67.29.71.86h.58c-.04-.89-.5-1.42-1.19-1.42m-4.3,2.54c0,.97-.41,1.58-1.2,1.58-.54,0-.78-.39-.78-1.01v-3.02h-.58v3.02c0,.93.46,1.56,1.29,1.56.54,0,1.01-.26,1.27-.74v.65s.59,0,.59,0v-4.5h-.58v2.45Zm-6.75-3.69h2.56v-.56h-3.15v6.3h3.15v-.56h-2.56v-2.35h2.3v-.56h-2.3v-2.28Zm-8.27,1.15c-.54,0-1.01.26-1.27.74v-.65s-.59,0-.59,0v4.5h.58v-2.45c0-.97.41-1.58,1.2-1.58.55,0,.78.39.78,1.01v3.02h.58v-3.02c0-.93-.46-1.56-1.29-1.56m-3.56,4.02h-1.19v-3.94h-1.56v.56h.98v3.38h-1.21v.56h2.98v-.56Zm-1.55-4.63c.25,0,.45-.21.45-.46s-.2-.45-.45-.45-.45.21-.45.45.2.46.45.46m-7.96,1.85c-.14-.8-.74-1.25-1.49-1.25s-1.43.47-1.43,1.16c0,.46.29.83.85,1.11l1.04.52c.32.17.52.32.52.68,0,.4-.42.66-.94.66s-.94-.26-1.1-.83h-.59c.17.85.86,1.38,1.69,1.38.53,0,1.03-.21,1.31-.57.14-.18.21-.39.21-.63,0-.58-.31-.93-.82-1.18l-1.04-.52c-.4-.19-.57-.34-.57-.62,0-.37.4-.6.86-.6.44,0,.78.22.9.69h.59Zm-6.26-.69c.62,0,.96.58,1.03,1.38h-2.13c.1-.79.46-1.38,1.11-1.38m0-.56c-.75,0-1.27.48-1.52,1.19-.13.35-.19.74-.19,1.15,0,.83.24,1.59.76,2.02.26.22.58.32.95.32.83,0,1.42-.59,1.56-1.48h-.59c-.14.62-.45.93-.96.93-.72,0-1.09-.74-1.12-1.63h2.76c.03-1.38-.49-2.49-1.64-2.49m-4.8,1.83l-.97-1.74h-.65l1.32,2.24-1.33,2.26h.65l.98-1.75.98,1.75h.65l-1.33-2.26,1.32-2.24h-.65l-.97,1.74Zm-4.77,2.29c.76,0,1.03-.78,1.03-1.78s-.27-1.78-1.03-1.78-1.04.81-1.04,1.78.28,1.78,1.04,1.78m0-4.12c.75,0,1.23.49,1.46,1.2.11.35.16.74.16,1.14,0,1.32-.51,2.34-1.62,2.34s-1.62-1.02-1.62-2.34.53-2.34,1.62-2.34m-4.82,4.12c-.66,0-1.02-.67-1.02-1.78s.36-1.77,1.02-1.77c.75,0,1.08.76,1.08,1.77s-.33,1.78-1.08,1.78m.07-4.11c-.44,0-.85.26-1.05.68v-2.4h-.58v6.3h.56v-.63c.22.43.61.72,1.08.72,1.03,0,1.59-1.01,1.59-2.34s-.56-2.33-1.59-2.33m-4.51,0c-.54,0-1.01.26-1.27.74v-.65s-.59,0-.59,0v4.5h.58v-2.45c0-.97.41-1.58,1.2-1.58.55,0,.78.39.78,1.01v3.02h.58v-3.02c0-.93-.46-1.56-1.3-1.56m-3.56,4.02h-1.19v-3.94h-1.57v.56h.98v3.38h-1.21v.56h2.98v-.56Zm-1.55-4.63c.25,0,.45-.21.45-.46s-.2-.45-.45-.45-.45.21-.45.45.2.46.45.46m-9.45,1.16c.62,0,.96.58,1.03,1.38h-2.13c.1-.79.46-1.38,1.11-1.38m0-.56c-.75,0-1.27.48-1.52,1.19-.13.35-.19.74-.19,1.15,0,.83.24,1.59.76,2.02.26.22.58.32.96.32.83,0,1.42-.59,1.56-1.48h-.59c-.13.62-.45.93-.96.93-.72,0-1.09-.74-1.13-1.63h2.76c.03-1.38-.49-2.49-1.64-2.49m-4.6,0c-.54,0-1.02.26-1.27.74v-.65s0-1.8,0-1.8h-.59v6.3h.58v-2.45c0-.97.41-1.58,1.2-1.58.55,0,.78.39.78,1.01v3.02h.58v-3.02c0-.93-.46-1.56-1.3-1.56m-3.57,3.82c-.23.12-.58.22-.78.22-.42,0-.62-.17-.62-.65v-2.75h1.35v-.54h-1.35v-1.5h-.58v1.5h-1.08v.54h1.08v2.75c0,.75.42,1.2,1.15,1.2.25,0,.68-.08.94-.22l-.12-.56Zm-9.41.22h-1.23v-5.75s-1.57,0-1.57,0v.56h.98v5.19h-1.25v.56h3.07v-.56Zm-4.77,0h-1.23v-5.75s-1.57,0-1.57,0v.56h.98v5.19h-1.25v.56h3.07v-.56Zm-5.5-1.58h-1.63l.82-3.26.81,3.26Zm-2.18,2.13l.4-1.57h1.92l.41,1.57h.58l-1.59-6.3h-.69l-1.61,6.3h.59Z" style="fill:#0d0d0b;"/><path d="m146.89,184.89c.62,0,.96.58,1.03,1.38h-2.13c.1-.79.46-1.38,1.11-1.38Zm0-.56c-.75,0-1.27.48-1.52,1.19-.13.35-.19.74-.19,1.15,0,.83.24,1.59.76,2.02.26.22.58.32.95.32.83,0,1.42-.59,1.56-1.48h-.59c-.14.62-.45.93-.96.93-.72,0-1.09-.74-1.12-1.63h2.76c.03-1.38-.49-2.49-1.64-2.49Zm-4.86,4.11c-.66,0-1.02-.66-1.02-1.77s.36-1.78,1.02-1.78c.75,0,1.08.77,1.08,1.78s-.33,1.77-1.08,1.77Zm.07-4.11c-.47,0-.86.29-1.07.72v-.63h-.57v6.3h.58v-2.4c.21.42.61.68,1.05.68,1.04,0,1.59-1,1.59-2.33s-.56-2.34-1.59-2.34Zm-4.78,4.12c.76,0,1.03-.78,1.03-1.78s-.27-1.78-1.03-1.78-1.04.81-1.04,1.78.28,1.78,1.04,1.78Zm0-4.12c.75,0,1.23.49,1.46,1.2.11.35.16.74.16,1.14,0,1.32-.51,2.34-1.62,2.34s-1.62-1.02-1.62-2.34.53-2.34,1.62-2.34Zm-4.25,0c-.46,0-.88.23-1.13.73v-.64h-.58v4.5h.57v-2.45c0-.9.4-1.58,1.03-1.58.44,0,.67.29.71.86h.58c-.04-.89-.5-1.42-1.19-1.42Zm-4.3,2.54c0,.97-.41,1.58-1.2,1.58-.54,0-.78-.39-.78-1.01v-3.02h-.58v3.02c0,.93.46,1.56,1.29,1.56.54,0,1.01-.26,1.27-.74v.65s.59,0,.59,0v-4.5h-.58v2.45Zm-6.75-3.69h2.56v-.56h-3.15v6.3h3.15v-.56h-2.56v-2.35h2.3v-.56h-2.3v-2.28Zm-8.27,1.15c-.54,0-1.01.26-1.27.74v-.65s-.59,0-.59,0v4.5h.58v-2.45c0-.97.41-1.58,1.2-1.58.55,0,.78.39.78,1.01v3.02h.58v-3.02c0-.93-.46-1.56-1.29-1.56Zm-3.56,4.02h-1.19v-3.94h-1.56v.56h.98v3.38h-1.21v.56h2.98v-.56Zm-1.55-4.63c.25,0,.45-.21.45-.46s-.2-.45-.45-.45-.45.21-.45.45.2.46.45.46Zm-7.96,1.85c-.14-.8-.74-1.25-1.49-1.25s-1.43.47-1.43,1.16c0,.46.29.83.85,1.11l1.04.52c.32.17.52.32.52.68,0,.4-.42.66-.94.66s-.94-.26-1.1-.83h-.59c.17.85.86,1.38,1.69,1.38.53,0,1.03-.21,1.31-.57.14-.18.21-.39.21-.63,0-.58-.31-.93-.82-1.18l-1.04-.52c-.4-.19-.57-.34-.57-.62,0-.37.4-.6.86-.6.44,0,.78.22.9.69h.59Zm-6.26-.69c.62,0,.96.58,1.03,1.38h-2.13c.1-.79.46-1.38,1.11-1.38Zm0-.56c-.75,0-1.27.48-1.52,1.19-.13.35-.19.74-.19,1.15,0,.83.24,1.59.76,2.02.26.22.58.32.95.32.83,0,1.42-.59,1.56-1.48h-.59c-.14.62-.45.93-.96.93-.72,0-1.09-.74-1.12-1.63h2.76c.03-1.38-.49-2.49-1.64-2.49Zm-4.8,1.83l-.97-1.74h-.65l1.32,2.24-1.33,2.26h.65l.98-1.75.98,1.75h.65l-1.33-2.26,1.32-2.24h-.65l-.97,1.74Zm-4.77,2.29c.76,0,1.03-.78,1.03-1.78s-.27-1.78-1.03-1.78-1.04.81-1.04,1.78.28,1.78,1.04,1.78Zm0-4.12c.75,0,1.23.49,1.46,1.2.11.35.16.74.16,1.14,0,1.32-.51,2.34-1.62,2.34s-1.62-1.02-1.62-2.34.53-2.34,1.62-2.34Zm-4.82,4.12c-.66,0-1.02-.67-1.02-1.78s.36-1.77,1.02-1.77c.75,0,1.08.76,1.08,1.77s-.33,1.78-1.08,1.78Zm.07-4.11c-.44,0-.85.26-1.05.68v-2.4h-.58v6.3h.56v-.63c.22.43.61.72,1.08.72,1.03,0,1.59-1.01,1.59-2.34s-.56-2.33-1.59-2.33Zm-4.51,0c-.54,0-1.01.26-1.27.74v-.65s-.59,0-.59,0v4.5h.58v-2.45c0-.97.41-1.58,1.2-1.58.55,0,.78.39.78,1.01v3.02h.58v-3.02c0-.93-.46-1.56-1.3-1.56Zm-3.56,4.02h-1.19v-3.94h-1.57v.56h.98v3.38h-1.21v.56h2.98v-.56Zm-1.55-4.63c.25,0,.45-.21.45-.46s-.2-.45-.45-.45-.45.21-.45.45.2.46.45.46Zm-9.45,1.16c.62,0,.96.58,1.03,1.38h-2.13c.1-.79.46-1.38,1.11-1.38Zm0-.56c-.75,0-1.27.48-1.52,1.19-.13.35-.19.74-.19,1.15,0,.83.24,1.59.76,2.02.26.22.58.32.96.32.83,0,1.42-.59,1.56-1.48h-.59c-.13.62-.45.93-.96.93-.72,0-1.09-.74-1.13-1.63h2.76c.03-1.38-.49-2.49-1.64-2.49Zm-4.6,0c-.54,0-1.02.26-1.27.74v-.65s0-1.8,0-1.8h-.59v6.3h.58v-2.45c0-.97.41-1.58,1.2-1.58.55,0,.78.39.78,1.01v3.02h.58v-3.02c0-.93-.46-1.56-1.3-1.56Zm-3.57,3.82c-.23.12-.58.22-.78.22-.42,0-.62-.17-.62-.65v-2.75h1.35v-.54h-1.35v-1.5h-.58v1.5h-1.08v.54h1.08v2.75c0,.75.42,1.2,1.15,1.2.25,0,.68-.08.94-.22l-.12-.56Zm-9.41.22h-1.23v-5.75s-1.57,0-1.57,0v.56h.98v5.19h-1.25v.56h3.07v-.56Zm-4.77,0h-1.23v-5.75s-1.57,0-1.57,0v.56h.98v5.19h-1.25v.56h3.07v-.56Zm-5.5-1.58h-1.63l.82-3.26.81,3.26Zm-2.18,2.13l.4-1.57h1.92l.41,1.57h.58l-1.59-6.3h-.69l-1.61,6.3h.59Z" style="fill:none; stroke:#0d0d0b; stroke-width:.15px;"/></g></svg>