<?xml version="1.0" encoding="utf-8"?>
<!-- Generator: Adobe Illustrator 27.6.1, SVG Export Plug-In . SVG Version: 6.00 Build 0)  -->
<svg version="1.1" id="a" xmlns="http://www.w3.org/2000/svg" xmlns:xlink="http://www.w3.org/1999/xlink" x="0px" y="0px"
	 viewBox="0 0 176.1 223.2" style="enable-background:new 0 0 176.1 223.2;" xml:space="preserve">
<style type="text/css">
	.st0{fill:#0B0B0A;}
	.st1{fill:none;stroke:#0B0B0A;stroke-width:0.15;}
	.st2{clip-path:url(#SVGID_00000057116239641024412780000017557513426151338161_);fill:none;stroke:#0B0B0A;stroke-width:0.15;}
	.st3{clip-path:url(#SVGID_00000008146086696582373430000011361446485458921390_);fill:none;stroke:#0B0B0A;stroke-width:0.15;}
	.st4{clip-path:url(#SVGID_00000078017785393529798930000001495429522553140903_);fill:none;stroke:#0B0B0A;stroke-width:0.15;}
	.st5{clip-path:url(#SVGID_00000015322692381123740920000005623453925229927598_);fill:none;stroke:#0B0B0A;stroke-width:0.15;}
	.st6{clip-path:url(#SVGID_00000009585153080260771050000007681655903699919035_);fill:#0B0B0A;}
	.st7{clip-path:url(#SVGID_00000009585153080260771050000007681655903699919035_);fill:none;stroke:#0B0B0A;stroke-width:0.15;}
	.st8{clip-path:url(#SVGID_00000006708982089030641790000016582625054751103916_);fill:#0B0B0A;}
	.st9{clip-path:url(#SVGID_00000006708982089030641790000016582625054751103916_);fill:none;stroke:#0B0B0A;stroke-width:0.15;}
</style>
<path class="st0" d="M7,156.8h4.6v-0.6H7V156.8z M16.8,156.8h4.6v-0.6h-4.6V156.8z M26.6,156.8h4.6v-0.6h-4.6V156.8z M36.4,156.8H41
	v-0.6h-4.6V156.8z M46.3,156.8h4.6v-0.6h-4.6V156.8z M56.1,156.8h4.6v-0.6h-4.6V156.8z M65.9,156.8h4.6v-0.6h-4.6V156.8z
	 M75.7,156.8h4.6v-0.6h-4.6V156.8z M85.5,156.8h4.6v-0.6h-4.6V156.8z M95.3,156.8h4.6v-0.6h-4.6V156.8z M105.2,156.8h4.6v-0.6h-4.6
	V156.8z M115,156.8h4.6v-0.6H115V156.8z M124.8,156.8h4.6v-0.6h-4.6V156.8z M134.6,156.8h4.6v-0.6h-4.6V156.8z M144.4,156.8h4.6
	v-0.6h-4.6V156.8z M154.2,156.8h4.6v-0.6h-4.6V156.8z M164.1,156.8h4.6v-0.6h-4.6V156.8z"/>
<path class="st1" d="M168.6,156.2h-4.6v0.6h4.6V156.2z M158.8,156.2h-4.6v0.6h4.6V156.2z M149,156.2h-4.6v0.6h4.6V156.2z
	 M139.2,156.2h-4.6v0.6h4.6V156.2z M129.4,156.2h-4.6v0.6h4.6V156.2z M119.5,156.2H115v0.6h4.6V156.2z M109.7,156.2h-4.6v0.6h4.6
	V156.2z M99.9,156.2h-4.6v0.6h4.6V156.2z M90.1,156.2h-4.6v0.6h4.6V156.2z M80.3,156.2h-4.6v0.6h4.6V156.2z M70.5,156.2h-4.6v0.6
	h4.6V156.2z M60.6,156.2h-4.6v0.6h4.6V156.2z M50.8,156.2h-4.6v0.6h4.6V156.2z M41,156.2h-4.6v0.6H41V156.2z M31.2,156.2h-4.6v0.6
	h4.6V156.2z M21.4,156.2h-4.6v0.6h4.6V156.2z M11.6,156.2H7v0.6h4.6V156.2z"/>
<path class="st0" d="M9.5,223.1h4.4v-0.6H9.5V223.1z M19,223.1h4.4v-0.6H19V223.1z M28.6,223.1H33v-0.6h-4.4V223.1z M38.1,223.1h4.4
	v-0.6h-4.4V223.1z M47.7,223.1h4.4v-0.6h-4.4V223.1z M57.2,223.1h4.4v-0.6h-4.4V223.1z M66.7,223.1h4.4v-0.6h-4.4V223.1z
	 M76.3,223.1h4.4v-0.6h-4.4V223.1z M85.8,223.1h4.4v-0.6h-4.4V223.1z M95.4,223.1h4.4v-0.6h-4.4V223.1z M104.9,223.1h4.4v-0.6h-4.4
	V223.1z M114.4,223.1h4.4v-0.6h-4.4V223.1z M124,223.1h4.4v-0.6H124V223.1z M133.5,223.1h4.4v-0.6h-4.4V223.1z M143.1,223.1h4.4
	v-0.6h-4.4V223.1z M152.6,223.1h4.4v-0.6h-4.4V223.1z M162.1,223.1h4.4v-0.6h-4.4V223.1z"/>
<g>
	<defs>
		<rect id="SVGID_1_" x="0" y="0" width="176.1" height="223.2"/>
	</defs>
	<clipPath id="SVGID_00000068638307700477020070000001552398262069132452_">
		<use xlink:href="#SVGID_1_"  style="overflow:visible;"/>
	</clipPath>
	
		<path style="clip-path:url(#SVGID_00000068638307700477020070000001552398262069132452_);fill:none;stroke:#0B0B0A;stroke-width:0.15;" d="
		M166.6,222.5h-4.4v0.6h4.4V222.5z M157,222.5h-4.4v0.6h4.4V222.5z M147.5,222.5h-4.4v0.6h4.4V222.5z M138,222.5h-4.4v0.6h4.4V222.5
		z M128.4,222.5H124v0.6h4.4V222.5z M118.9,222.5h-4.4v0.6h4.4V222.5z M109.3,222.5h-4.4v0.6h4.4V222.5z M99.8,222.5h-4.4v0.6h4.4
		V222.5z M90.3,222.5h-4.4v0.6h4.4V222.5z M80.7,222.5h-4.4v0.6h4.4V222.5z M71.2,222.5h-4.4v0.6h4.4V222.5z M61.6,222.5h-4.4v0.6
		h4.4V222.5z M52.1,222.5h-4.4v0.6h4.4V222.5z M42.6,222.5h-4.4v0.6h4.4V222.5z M33,222.5h-4.4v0.6H33V222.5z M23.5,222.5H19v0.6
		h4.4V222.5z M13.9,222.5H9.5v0.6h4.4V222.5z"/>
</g>
<path class="st0" d="M10.1,1.9h4.4V1.3h-4.4V1.9z M19.6,1.9h4.4V1.3h-4.4V1.9z M29.2,1.9h4.4V1.3h-4.4V1.9z M38.7,1.9h4.4V1.3h-4.4
	V1.9z M48.2,1.9h4.4V1.3h-4.4V1.9z M57.8,1.9h4.4V1.3h-4.4V1.9z M67.3,1.9h4.4V1.3h-4.4V1.9z M76.9,1.9h4.4V1.3h-4.4V1.9z M86.4,1.9
	h4.4V1.3h-4.4V1.9z M95.9,1.9h4.4V1.3h-4.4V1.9z M105.5,1.9h4.4V1.3h-4.4V1.9z M115,1.9h4.4V1.3H115V1.9z M124.6,1.9h4.4V1.3h-4.4
	V1.9z M134.1,1.9h4.4V1.3h-4.4V1.9z M143.6,1.9h4.4V1.3h-4.4V1.9z M153.2,1.9h4.4V1.3h-4.4V1.9z M162.7,1.9h4.4V1.3h-4.4V1.9z"/>
<path class="st1" d="M167.2,1.3h-4.4v0.6h4.4V1.3z M157.6,1.3h-4.4v0.6h4.4V1.3z M148.1,1.3h-4.4v0.6h4.4V1.3z M138.5,1.3h-4.4v0.6
	h4.4V1.3z M129,1.3h-4.4v0.6h4.4V1.3z M119.5,1.3H115v0.6h4.4V1.3z M109.9,1.3h-4.4v0.6h4.4V1.3z M100.4,1.3h-4.4v0.6h4.4V1.3z
	 M90.8,1.3h-4.4v0.6h4.4V1.3z M81.3,1.3h-4.4v0.6h4.4V1.3z M71.8,1.3h-4.4v0.6h4.4V1.3z M62.2,1.3h-4.4v0.6h4.4V1.3z M52.7,1.3h-4.4
	v0.6h4.4V1.3z M43.1,1.3h-4.4v0.6h4.4V1.3z M33.6,1.3h-4.4v0.6h4.4V1.3z M24.1,1.3h-4.4v0.6h4.4V1.3z M14.5,1.3h-4.4v0.6h4.4V1.3z"
	/>
<polygon class="st0" points="1.4,220 1.5,221.4 0.3,220.8 0.1,221.4 1.4,221.7 0.5,222.7 1,223.1 1.7,221.9 2.4,223.1 2.9,222.7 
	2,221.7 3.3,221.5 3.1,220.8 1.9,221.4 2,220 "/>
<g>
	<defs>
		<rect id="SVGID_00000132053370741488949620000000232878471755873169_" x="0" y="0" width="176.1" height="223.2"/>
	</defs>
	<clipPath id="SVGID_00000049187827883146299710000007903811624105992622_">
		<use xlink:href="#SVGID_00000132053370741488949620000000232878471755873169_"  style="overflow:visible;"/>
	</clipPath>
	
		<polygon style="clip-path:url(#SVGID_00000049187827883146299710000007903811624105992622_);fill:none;stroke:#0B0B0A;stroke-width:0.15;" points="
		3.3,221.5 3.1,220.8 1.9,221.4 2,220 1.4,220 1.5,221.4 0.3,220.8 0.1,221.4 1.4,221.7 0.5,222.7 1,223.1 1.7,221.9 2.4,223.1 
		2.9,222.7 2,221.7 	"/>
</g>
<polygon class="st0" points="1.4,0.1 1.5,1.4 0.3,0.9 0.1,1.5 1.4,1.7 0.5,2.7 1,3.1 1.7,2 2.4,3.1 2.9,2.7 2,1.8 3.3,1.5 3.1,0.9 
	1.9,1.4 2,0.1 "/>
<g>
	<defs>
		<rect id="SVGID_00000001645122528387342330000008248220387445026228_" x="0" y="0" width="176.1" height="223.2"/>
	</defs>
	<clipPath id="SVGID_00000101068677562882035010000004276015462996793231_">
		<use xlink:href="#SVGID_00000001645122528387342330000008248220387445026228_"  style="overflow:visible;"/>
	</clipPath>
	
		<polygon style="clip-path:url(#SVGID_00000101068677562882035010000004276015462996793231_);fill:none;stroke:#0B0B0A;stroke-width:0.15;" points="
		3.3,1.5 3.1,0.9 1.9,1.4 2,0.1 1.4,0.1 1.5,1.4 0.3,0.9 0.1,1.5 1.4,1.7 0.5,2.7 1,3.1 1.7,2 2.4,3.1 2.9,2.7 2,1.8 	"/>
</g>
<polygon class="st0" points="174,220 174.2,221.4 172.9,220.8 172.7,221.5 174.1,221.7 173.1,222.7 173.7,223.1 174.4,221.9 
	175,223.1 175.6,222.7 174.6,221.7 176,221.5 175.8,220.9 174.5,221.4 174.7,220 "/>
<g>
	<defs>
		<rect id="SVGID_00000072961349888944515380000001271494910904545172_" x="0" y="0" width="176.1" height="223.2"/>
	</defs>
	<clipPath id="SVGID_00000030449577959770522750000010916613099900197798_">
		<use xlink:href="#SVGID_00000072961349888944515380000001271494910904545172_"  style="overflow:visible;"/>
	</clipPath>
	
		<polygon style="clip-path:url(#SVGID_00000030449577959770522750000010916613099900197798_);fill:none;stroke:#0B0B0A;stroke-width:0.15;" points="
		176,221.5 175.8,220.9 174.5,221.4 174.7,220 174,220 174.2,221.4 172.9,220.8 172.7,221.5 174.1,221.7 173.1,222.7 173.7,223.1 
		174.4,221.9 175,223.1 175.6,222.7 174.6,221.7 	"/>
</g>
<polygon class="st0" points="174,0.1 174.2,1.5 172.9,0.9 172.7,1.6 174.1,1.8 173.1,2.8 173.7,3.2 174.4,2 175,3.2 175.6,2.8 
	174.6,1.8 176,1.6 175.8,0.9 174.5,1.5 174.7,0.1 "/>
<polygon class="st1" points="176,1.6 175.8,0.9 174.5,1.5 174.7,0.1 174,0.1 174.2,1.5 172.9,0.9 172.7,1.5 174.1,1.8 173.1,2.8 
	173.7,3.2 174.4,2 175,3.2 175.6,2.8 174.6,1.8 "/>
<path class="st0" d="M174.1,212.1h0.6v-4.4h-0.6V212.1z M174.1,202.6h0.6v-4.4h-0.6V202.6z M174.1,193h0.6v-4.4h-0.6V193z
	 M174.1,183.5h0.6v-4.4h-0.6V183.5z M174.1,174h0.6v-4.4h-0.6V174z M174.1,164.4h0.6V160h-0.6V164.4z M174.1,154.9h0.6v-4.4h-0.6
	V154.9z M174.1,145.4h0.6V141h-0.6V145.4z M174.1,135.9h0.6v-4.4h-0.6V135.9z M174.1,126.3h0.6v-4.4h-0.6V126.3z M174.1,116.8h0.6
	v-4.4h-0.6V116.8z M174.1,107.3h0.6v-4.4h-0.6V107.3z M174.1,97.7h0.6v-4.4h-0.6V97.7z M174.1,88.2h0.6v-4.4h-0.6V88.2z M174.1,78.7
	h0.6v-4.4h-0.6V78.7z M174.1,69.1h0.6v-4.4h-0.6V69.1z M174.1,59.6h0.6v-4.4h-0.6V59.6z M174.1,50.1h0.6v-4.4h-0.6V50.1z
	 M174.1,40.6h0.6v-4.4h-0.6V40.6z M174.1,31h0.6v-4.4h-0.6V31z M174.1,21.5h0.6v-4.4h-0.6V21.5z M174.1,12h0.6V7.5h-0.6V12z"/>
<path class="st1" d="M174.6,207.7h-0.6v4.4h0.6V207.7z M174.6,198.1h-0.6v4.4h0.6V198.1z M174.6,188.6h-0.6v4.4h0.6V188.6z
	 M174.6,179.1h-0.6v4.4h0.6V179.1z M174.6,169.5h-0.6v4.4h0.6V169.5z M174.6,160h-0.6v4.4h0.6V160z M174.6,150.5h-0.6v4.4h0.6V150.5
	z M174.6,141h-0.6v4.4h0.6V141z M174.6,131.4h-0.6v4.4h0.6V131.4z M174.6,121.9h-0.6v4.4h0.6V121.9z M174.6,112.4h-0.6v4.4h0.6
	V112.4z M174.6,102.8h-0.6v4.4h0.6V102.8z M174.6,93.3h-0.6v4.4h0.6V93.3z M174.6,83.8h-0.6v4.4h0.6V83.8z M174.6,74.2h-0.6v4.4h0.6
	V74.2z M174.6,64.7h-0.6v4.4h0.6V64.7z M174.6,55.2h-0.6v4.4h0.6V55.2z M174.6,45.6h-0.6v4.4h0.6V45.6z M174.6,36.1h-0.6v4.4h0.6
	V36.1z M174.6,26.6h-0.6V31h0.6V26.6z M174.6,17.1h-0.6v4.4h0.6V17.1z M174.6,7.5h-0.6V12h0.6V7.5z"/>
<path class="st0" d="M1.4,213.5H2v-4.4H1.4V213.5z M1.4,204H2v-4.4H1.4V204z M1.4,194.5H2V190H1.4V194.5z M1.4,184.9H2v-4.4H1.4
	V184.9z M1.4,175.4H2V171H1.4V175.4z M1.4,165.9H2v-4.4H1.4V165.9z M1.4,156.3H2v-4.4H1.4V156.3z M1.4,146.8H2v-4.4H1.4V146.8z
	 M1.4,137.3H2v-4.4H1.4V137.3z M1.4,127.7H2v-4.4H1.4V127.7z M1.4,118.2H2v-4.4H1.4V118.2z M1.4,108.7H2v-4.4H1.4V108.7z M1.4,99.2
	H2v-4.4H1.4V99.2z M1.4,89.6H2v-4.4H1.4V89.6z M1.4,80.1H2v-4.4H1.4V80.1z M1.4,70.6H2v-4.4H1.4V70.6z M1.4,61H2v-4.4H1.4V61z
	 M1.4,51.5H2v-4.4H1.4V51.5z M1.4,42H2v-4.4H1.4V42z M1.4,32.4H2V28H1.4V32.4z M1.4,22.9H2v-4.4H1.4V22.9z M1.4,13.4H2V8.9H1.4V13.4
	z"/>
<path class="st1" d="M2,209.1H1.4v4.4H2V209.1z M2,199.6H1.4v4.4H2V199.6z M2,190H1.4v4.4H2V190z M2,180.5H1.4v4.4H2V180.5z M2,171
	H1.4v4.4H2V171z M2,161.4H1.4v4.4H2V161.4z M2,151.9H1.4v4.4H2V151.9z M2,142.4H1.4v4.4H2V142.4z M2,132.8H1.4v4.4H2V132.8z
	 M2,123.3H1.4v4.4H2V123.3z M2,113.8H1.4v4.4H2V113.8z M2,104.2H1.4v4.4H2V104.2z M2,94.7H1.4v4.4H2V94.7z M2,85.2H1.4v4.4H2V85.2z
	 M2,75.7H1.4v4.4H2V75.7z M2,66.1H1.4v4.4H2V66.1z M2,56.6H1.4V61H2V56.6z M2,47.1H1.4v4.4H2V47.1z M2,37.5H1.4V42H2V37.5z M2,28
	H1.4v4.4H2V28z M2,18.5H1.4v4.4H2V18.5z M2,8.9H1.4v4.4H2V8.9z"/>
<g>
	<defs>
		<rect id="SVGID_00000169538338935819726460000013949565224588479875_" x="0" y="0" width="176.1" height="223.2"/>
	</defs>
	<clipPath id="SVGID_00000098217010009033827720000016452630922692378045_">
		<use xlink:href="#SVGID_00000169538338935819726460000013949565224588479875_"  style="overflow:visible;"/>
	</clipPath>
	<path style="clip-path:url(#SVGID_00000098217010009033827720000016452630922692378045_);fill:#0B0B0A;" d="M146.9,120.6h-0.6v2.2
		h0.6V120.6z M140.4,124.8h3v-0.5h-3V124.8z M136.3,127.3c0.7-1,1-2.1,1-3.4c0-1.3-0.3-2.4-1-3.4h0.6c0.7,0.9,1,2.1,1,3.4
		c0,1.3-0.3,2.4-1,3.4H136.3z M130.1,126.9h4.5v-0.5l-4.5,0V126.9z M127.8,127.3c-0.7-1-1-2.1-1-3.4c0-1.3,0.3-2.4,1-3.4h0.6
		c-0.7,1-1,2-1,3.4c0,1.3,0.3,2.4,1,3.4H127.8z M121.3,124.8h3v-0.5h-3V124.8z M116.5,124.8h3v-0.5h-3V124.8z M112.5,127.3
		c0.7-1,1-2.1,1-3.4c0-1.3-0.3-2.4-1-3.4h0.6c0.7,0.9,1,2.1,1,3.4c0,1.3-0.3,2.4-1,3.4H112.5z M106.2,126.9h4.5v-0.5l-4.5,0V126.9z
		 M103.9,127.3c-0.7-1-1-2.1-1-3.4c0-1.3,0.3-2.4,1-3.4h0.6c-0.7,1-1,2-1,3.4c0,1.3,0.3,2.4,1,3.4H103.9z M97.4,124.8h3v-0.5h-3
		V124.8z M95.2,121.6l-0.8-1.2h-0.8l1.1,1.2H95.2z M91.4,125h-3.9v0.6h3.9V125z M91.4,123.1h-3.9v0.6h3.9V123.1z"/>
	
		<path style="clip-path:url(#SVGID_00000098217010009033827720000016452630922692378045_);fill:none;stroke:#0B0B0A;stroke-width:0.15;" d="
		M146.9,120.6h-0.6v2.2h0.6V120.6z M140.4,124.8h3v-0.5h-3V124.8z M136.3,127.3c0.7-1,1-2.1,1-3.4c0-1.3-0.3-2.4-1-3.4h0.6
		c0.7,0.9,1,2.1,1,3.4c0,1.3-0.3,2.4-1,3.4H136.3z M130.1,126.9h4.5v-0.5l-4.5,0V126.9z M127.8,127.3c-0.7-1-1-2.1-1-3.4
		c0-1.3,0.3-2.4,1-3.4h0.6c-0.7,1-1,2-1,3.4c0,1.3,0.3,2.4,1,3.4H127.8z M121.3,124.8h3v-0.5h-3V124.8z M116.5,124.8h3v-0.5h-3
		V124.8z M112.5,127.3c0.7-1,1-2.1,1-3.4c0-1.3-0.3-2.4-1-3.4h0.6c0.7,0.9,1,2.1,1,3.4c0,1.3-0.3,2.4-1,3.4H112.5z M106.2,126.9h4.5
		v-0.5l-4.5,0V126.9z M103.9,127.3c-0.7-1-1-2.1-1-3.4c0-1.3,0.3-2.4,1-3.4h0.6c-0.7,1-1,2-1,3.4c0,1.3,0.3,2.4,1,3.4H103.9z
		 M97.4,124.8h3v-0.5h-3V124.8z M95.2,121.6l-0.8-1.2h-0.8l1.1,1.2H95.2z M91.4,125h-3.9v0.6h3.9V125z M91.4,123.1h-3.9v0.6h3.9
		V123.1z"/>
	<path style="clip-path:url(#SVGID_00000098217010009033827720000016452630922692378045_);fill:#0B0B0A;" d="M146,109.8l1.9,6.3
		h-0.6l-1.9-6.3H146z M139.6,116.1h4.5v-0.5l-4.5,0V116.1z M130.1,116.1h4.5v-0.5l-4.5,0V116.1z M106.2,116.1h4.5v-0.5l-4.5,0V116.1
		z M89.6,116.5c-0.7-1-1-2.1-1-3.4c0-1.3,0.3-2.4,1-3.4h0.6c-0.7,1-1,2-1,3.4c0,1.3,0.3,2.4,1,3.4H89.6z"/>
	
		<path style="clip-path:url(#SVGID_00000098217010009033827720000016452630922692378045_);fill:none;stroke:#0B0B0A;stroke-width:0.15;" d="
		M146,109.8l1.9,6.3h-0.6l-1.9-6.3H146z M139.6,116.1h4.5v-0.5l-4.5,0V116.1z M130.1,116.1h4.5v-0.5l-4.5,0V116.1z M106.2,116.1h4.5
		v-0.5l-4.5,0V116.1z M89.6,116.5c-0.7-1-1-2.1-1-3.4c0-1.3,0.3-2.4,1-3.4h0.6c-0.7,1-1,2-1,3.4c0,1.3,0.3,2.4,1,3.4H89.6z"/>
	<path style="clip-path:url(#SVGID_00000098217010009033827720000016452630922692378045_);fill:#0B0B0A;" d="M139.6,105.3h4.5v-0.5
		l-4.5,0V105.3z M134.9,105.3h4.5v-0.5l-4.5,0V105.3z M132.3,105.3c0.3,0,0.5-0.3,0.5-0.5c0-0.3-0.3-0.5-0.5-0.5
		c-0.3,0-0.5,0.3-0.5,0.5C131.7,105.1,132,105.3,132.3,105.3 M128.6,100l-0.8-1.2H127l1.1,1.2H128.6z M122.2,99l1.9,6.3h-0.6
		l-1.9-6.3H122.2z M115.8,105.3h4.5v-0.5l-4.5,0V105.3z M113,105.9h0.6l0-6.9H113V105.9z M108.2,105.9h0.6l0-6.9h-0.6V105.9z
		 M101.5,105.3h4.5v-0.5l-4.5,0V105.3z M98.6,105.9h0.6l0-6.9h-0.6V105.9z M93.5,105.3h-0.6l1.9-6.3h0.6L93.5,105.3z"/>
	
		<path style="clip-path:url(#SVGID_00000098217010009033827720000016452630922692378045_);fill:none;stroke:#0B0B0A;stroke-width:0.15;" d="
		M139.6,105.3h4.5v-0.5l-4.5,0V105.3z M134.9,105.3h4.5v-0.5l-4.5,0V105.3z M132.3,105.3c0.3,0,0.5-0.3,0.5-0.5
		c0-0.3-0.3-0.5-0.5-0.5c-0.3,0-0.5,0.3-0.5,0.5C131.7,105.1,132,105.3,132.3,105.3z M128.6,100l-0.8-1.2H127l1.1,1.2H128.6z
		 M122.2,99l1.9,6.3h-0.6l-1.9-6.3H122.2z M115.8,105.3h4.5v-0.5l-4.5,0V105.3z M113,105.9h0.6l0-6.9H113V105.9z M108.2,105.9h0.6
		l0-6.9h-0.6V105.9z M101.5,105.3h4.5v-0.5l-4.5,0V105.3z M98.6,105.9h0.6l0-6.9h-0.6V105.9z M93.5,105.3h-0.6l1.9-6.3h0.6
		L93.5,105.3z"/>
</g>
<path class="st0" d="M96,94.5h4.7v-0.5l-4.7,0V94.5z M101,94.5h4.7v-0.5l-4.7,0V94.5z M106.1,94.5h4.7v-0.5l-4.7,0V94.5z
	 M111.1,94.5h4.7v-0.5l-4.7,0V94.5z M116.1,94.5h4.7v-0.5l-4.7,0V94.5z M121.2,94.5h4.7v-0.5l-4.7,0V94.5z"/>
<path class="st1" d="M121.2,94.5h4.7v-0.5l-4.7,0V94.5z M116.1,94.5h4.7v-0.5l-4.7,0V94.5z M111.1,94.5h4.7v-0.5l-4.7,0V94.5z
	 M106.1,94.5h4.7v-0.5l-4.7,0V94.5z M101,94.5h4.7v-0.5l-4.7,0V94.5z M96,94.5h4.7v-0.5l-4.7,0V94.5z"/>
<g>
	<defs>
		<rect id="SVGID_00000088840608677851881010000010524031544704643733_" x="0" y="0" width="176.1" height="223.2"/>
	</defs>
	<clipPath id="SVGID_00000016769213382688737970000009220944944930973061_">
		<use xlink:href="#SVGID_00000088840608677851881010000010524031544704643733_"  style="overflow:visible;"/>
	</clipPath>
	<path style="clip-path:url(#SVGID_00000016769213382688737970000009220944944930973061_);fill:#0B0B0A;" d="M73.3,123
		c-1-0.7-2.1-1-3.4-1c-1.3,0-2.4,0.3-3.4,1v-0.6c0.9-0.7,2.1-1,3.4-1c1.3,0,2.4,0.3,3.4,1V123z M73.3,126.8c-1,0.7-2.1,1-3.4,1
		c-1.3,0-2.4-0.3-3.4-1v-0.6c1,0.7,2,1,3.4,1c1.3,0,2.4-0.3,3.4-1V126.8z"/>
	
		<path style="clip-path:url(#SVGID_00000016769213382688737970000009220944944930973061_);fill:none;stroke:#0B0B0A;stroke-width:0.15;" d="
		M73.3,123c-1-0.7-2.1-1-3.4-1c-1.3,0-2.4,0.3-3.4,1v-0.6c0.9-0.7,2.1-1,3.4-1c1.3,0,2.4,0.3,3.4,1V123z M73.3,126.8
		c-1,0.7-2.1,1-3.4,1c-1.3,0-2.4-0.3-3.4-1v-0.6c1,0.7,2,1,3.4,1c1.3,0,2.4-0.3,3.4-1V126.8z"/>
	<path style="clip-path:url(#SVGID_00000016769213382688737970000009220944944930973061_);fill:#0B0B0A;" d="M64.1,123
		c-1-0.7-2.1-1-3.4-1c-1.3,0-2.4,0.3-3.4,1v-0.6c0.9-0.7,2.1-1,3.4-1c1.3,0,2.4,0.3,3.4,1V123z M64.1,126.8c-1,0.7-2.1,1-3.4,1
		c-1.3,0-2.4-0.3-3.4-1v-0.6c1,0.7,2,1,3.4,1c1.3,0,2.4-0.3,3.4-1V126.8z"/>
	
		<path style="clip-path:url(#SVGID_00000016769213382688737970000009220944944930973061_);fill:none;stroke:#0B0B0A;stroke-width:0.15;" d="
		M64.1,123c-1-0.7-2.1-1-3.4-1c-1.3,0-2.4,0.3-3.4,1v-0.6c0.9-0.7,2.1-1,3.4-1c1.3,0,2.4,0.3,3.4,1V123z M64.1,126.8
		c-1,0.7-2.1,1-3.4,1c-1.3,0-2.4-0.3-3.4-1v-0.6c1,0.7,2,1,3.4,1c1.3,0,2.4-0.3,3.4-1V126.8z"/>
	<path style="clip-path:url(#SVGID_00000016769213382688737970000009220944944930973061_);fill:#0B0B0A;" d="M54.8,123
		c-1-0.7-2.1-1-3.4-1c-1.3,0-2.4,0.3-3.4,1v-0.6c0.9-0.7,2.1-1,3.4-1c1.3,0,2.4,0.3,3.4,1V123z M54.8,126.8c-1,0.7-2.1,1-3.4,1
		c-1.3,0-2.4-0.3-3.4-1v-0.6c1,0.7,2,1,3.4,1c1.3,0,2.4-0.3,3.4-1V126.8z"/>
	
		<path style="clip-path:url(#SVGID_00000016769213382688737970000009220944944930973061_);fill:none;stroke:#0B0B0A;stroke-width:0.15;" d="
		M54.8,123c-1-0.7-2.1-1-3.4-1c-1.3,0-2.4,0.3-3.4,1v-0.6c0.9-0.7,2.1-1,3.4-1c1.3,0,2.4,0.3,3.4,1V123z M54.8,126.8
		c-1,0.7-2.1,1-3.4,1c-1.3,0-2.4-0.3-3.4-1v-0.6c1,0.7,2,1,3.4,1c1.3,0,2.4-0.3,3.4-1V126.8z"/>
	<path style="clip-path:url(#SVGID_00000016769213382688737970000009220944944930973061_);fill:#0B0B0A;" d="M139.6,204.7
		c-0.1-0.8-0.7-1.2-1.5-1.2c-0.8,0-1.4,0.5-1.4,1.2c0,0.5,0.3,0.8,0.9,1.1l1,0.5c0.3,0.2,0.5,0.3,0.5,0.7c0,0.4-0.4,0.7-0.9,0.7
		c-0.5,0-0.9-0.3-1.1-0.8h-0.6c0.2,0.9,0.9,1.4,1.7,1.4c0.5,0,1-0.2,1.3-0.6c0.1-0.2,0.2-0.4,0.2-0.6c0-0.6-0.3-0.9-0.8-1.2l-1-0.5
		c-0.4-0.2-0.6-0.3-0.6-0.6c0-0.4,0.4-0.6,0.9-0.6c0.4,0,0.8,0.2,0.9,0.7H139.6z M133.3,204c0.6,0,1,0.6,1,1.4h-2.1
		C132.3,204.6,132.7,204,133.3,204 M133.3,203.5c-0.7,0-1.3,0.5-1.5,1.2c-0.1,0.4-0.2,0.7-0.2,1.2c0,0.8,0.2,1.6,0.8,2
		c0.3,0.2,0.6,0.3,1,0.3c0.8,0,1.4-0.6,1.6-1.5h-0.6c-0.1,0.6-0.5,0.9-1,0.9c-0.7,0-1.1-0.7-1.1-1.6h2.8
		C135,204.6,134.5,203.5,133.3,203.5 M130,207.5h-1.2v-5.2l0-0.6h-1.6v0.6h1v5.2H127v0.6h3.1V207.5z M125.2,207.5H124v-3.9h-1.6v0.6
		h1v3.4h-1.2v0.6h3V207.5z M123.7,202.9c0.3,0,0.5-0.2,0.5-0.5c0-0.2-0.2-0.4-0.5-0.4c-0.3,0-0.4,0.2-0.4,0.4
		C123.2,202.7,123.4,202.9,123.7,202.9 M120,203.5c-0.4,0-0.7,0.3-0.8,0.7c-0.1-0.4-0.3-0.7-0.7-0.7c-0.3,0-0.6,0.2-0.8,0.7l0-0.6
		h-0.5l0,4.5h0.6v-2.7c0-0.7,0.2-1.3,0.6-1.3c0.2,0,0.3,0.1,0.3,0.2c0,0.1,0.1,0.4,0.1,0.7v3.1h0.6v-2.7c0-0.8,0.1-1.3,0.6-1.3
		c0.3,0,0.4,0.3,0.4,0.8v3.3h0.6v-3.3C120.8,204,120.6,203.5,120,203.5 M110.1,206.1h-1.9l1.9-3.3V206.1z M111.4,206.7v-0.6h-0.7
		v-4.4h-0.6l-2.6,4.4v0.6h2.6v1.4h0.6v-1.4H111.4z M101.3,207.3c-0.2,0.1-0.6,0.2-0.8,0.2c-0.4,0-0.6-0.2-0.6-0.6v-2.7h1.4v-0.5
		h-1.4v-1.5h-0.6v1.5h-1.1v0.5h1.1v2.7c0,0.7,0.4,1.2,1.2,1.2c0.3,0,0.7-0.1,0.9-0.2L101.3,207.3z M96.6,204.7
		c-0.1-0.8-0.7-1.2-1.5-1.2c-0.8,0-1.4,0.5-1.4,1.2c0,0.5,0.3,0.8,0.9,1.1l1,0.5c0.3,0.2,0.5,0.3,0.5,0.7c0,0.4-0.4,0.7-0.9,0.7
		c-0.5,0-0.9-0.3-1.1-0.8h-0.6c0.2,0.9,0.9,1.4,1.7,1.4c0.5,0,1-0.2,1.3-0.6c0.1-0.2,0.2-0.4,0.2-0.6c0-0.6-0.3-0.9-0.8-1.2l-1-0.5
		c-0.4-0.2-0.6-0.3-0.6-0.6c0-0.4,0.4-0.6,0.9-0.6c0.4,0,0.8,0.2,0.9,0.7H96.6z M90.4,207.6c0.8,0,1-0.8,1-1.8c0-1-0.3-1.8-1-1.8
		c-0.8,0-1,0.8-1,1.8C89.3,206.8,89.6,207.6,90.4,207.6 M90.3,203.5c0.7,0,1.2,0.5,1.5,1.2c0.1,0.4,0.2,0.7,0.2,1.1
		c0,1.3-0.5,2.3-1.6,2.3c-1.1,0-1.6-1-1.6-2.3C88.7,204.5,89.3,203.5,90.3,203.5 M86.6,203.5c-0.4,0-0.7,0.3-0.8,0.7
		c-0.1-0.4-0.3-0.7-0.7-0.7c-0.3,0-0.6,0.2-0.8,0.7l0-0.6h-0.5l0,4.5h0.6v-2.7c0-0.7,0.2-1.3,0.6-1.3c0.2,0,0.3,0.1,0.3,0.2
		c0,0.1,0.1,0.4,0.1,0.7v3.1h0.6v-2.7c0-0.8,0.1-1.3,0.6-1.3c0.3,0,0.4,0.3,0.4,0.8v3.3h0.6v-3.3C87.4,204,87.2,203.5,86.6,203.5
		 M82.3,207.5h-1.2v-5.2l0-0.6h-1.6v0.6h1v5.2h-1.3v0.6h3.1V207.5z M75.8,207.6c-0.5,0-0.8-0.3-0.8-0.7c0-0.7,0.8-1,1.7-1h0.4v0.3
		C77.1,207,76.6,207.6,75.8,207.6 M76.3,203.5c-0.8,0-1.4,0.5-1.5,1.3h0.6c0-0.5,0.4-0.8,0.9-0.8c0.5,0,0.8,0.3,0.8,1v0.3h-0.3
		c-1.3,0-2.3,0.4-2.3,1.5c0,0.8,0.6,1.3,1.4,1.3c0.5,0,1-0.3,1.3-0.8l0,0.7h0.6l0-3C77.6,204,77.1,203.5,76.3,203.5 M66.4,207.6
		c-0.7,0-1.1-0.8-1.1-1.8c0-1,0.3-1.8,1.1-1.8c0.7,0,1,0.7,1,1.8C67.4,206.9,67.1,207.6,66.4,207.6 M67.4,203.6v0.6
		c-0.2-0.4-0.6-0.7-1.1-0.7c-1,0-1.6,1-1.6,2.3c0,1.3,0.6,2.3,1.6,2.3c0.5,0,0.9-0.3,1.1-0.7v0.7c0,0.8-0.3,1.1-1,1.1
		c-0.4,0-0.9-0.2-0.9-0.7h-0.6c0,0.5,0.4,0.9,0.8,1.1c0.2,0.1,0.5,0.1,0.7,0.1c1,0,1.5-0.6,1.5-1.7v-2.3l0-2.2H67.4z M62,203.5
		c-0.5,0-1,0.3-1.3,0.7l0-0.6h-0.6v4.5h0.6v-2.4c0-1,0.4-1.6,1.2-1.6c0.5,0,0.8,0.4,0.8,1v3h0.6v-3C63.3,204.1,62.8,203.5,62,203.5
		 M58.5,207.5h-1.2v-3.9h-1.6v0.6h1v3.4h-1.2v0.6h3V207.5z M56.9,202.9c0.3,0,0.5-0.2,0.5-0.5c0-0.2-0.2-0.4-0.5-0.4
		c-0.3,0-0.4,0.2-0.4,0.4C56.5,202.7,56.7,202.9,56.9,202.9 M50.5,203.6l1.3,4.5h0.7l1.3-4.5h-0.6l-1.1,3.8l-1.1-3.8H50.5z
		 M48.9,207.5h-1.2v-3.9h-1.6v0.6h1v3.4h-1.2v0.6h3V207.5z M47.4,202.9c0.3,0,0.5-0.2,0.5-0.5c0-0.2-0.2-0.4-0.5-0.4
		c-0.3,0-0.4,0.2-0.4,0.4C46.9,202.7,47.1,202.9,47.4,202.9 M43.2,203.5c-0.5,0-0.9,0.2-1.1,0.7v-0.6h-0.6v4.5H42v-2.4
		c0-0.9,0.4-1.6,1-1.6c0.4,0,0.7,0.3,0.7,0.9h0.6C44.3,204,43.9,203.5,43.2,203.5 M37.9,207.6c-0.7,0-1.1-0.8-1.1-1.8
		c0-1,0.3-1.8,1.1-1.8c0.7,0,1,0.7,1,1.8C38.9,206.9,38.6,207.6,37.9,207.6 M38.9,204.2c-0.2-0.4-0.6-0.7-1.1-0.7
		c-1,0-1.6,1-1.6,2.3c0,1.3,0.6,2.3,1.6,2.3c0.5,0,0.9-0.3,1.1-0.7l0,0.6h0.6v-6.3h-0.6V204.2z"/>
	
		<path style="clip-path:url(#SVGID_00000016769213382688737970000009220944944930973061_);fill:none;stroke:#0B0B0A;stroke-width:0.15;" d="
		M139.6,204.7c-0.1-0.8-0.7-1.2-1.5-1.2c-0.8,0-1.4,0.5-1.4,1.2c0,0.5,0.3,0.8,0.9,1.1l1,0.5c0.3,0.2,0.5,0.3,0.5,0.7
		c0,0.4-0.4,0.7-0.9,0.7c-0.5,0-0.9-0.3-1.1-0.8h-0.6c0.2,0.9,0.9,1.4,1.7,1.4c0.5,0,1-0.2,1.3-0.6c0.1-0.2,0.2-0.4,0.2-0.6
		c0-0.6-0.3-0.9-0.8-1.2l-1-0.5c-0.4-0.2-0.6-0.3-0.6-0.6c0-0.4,0.4-0.6,0.9-0.6c0.4,0,0.8,0.2,0.9,0.7H139.6z M133.3,204
		c0.6,0,1,0.6,1,1.4h-2.1C132.3,204.6,132.7,204,133.3,204z M133.3,203.5c-0.7,0-1.3,0.5-1.5,1.2c-0.1,0.4-0.2,0.7-0.2,1.2
		c0,0.8,0.2,1.6,0.8,2c0.3,0.2,0.6,0.3,1,0.3c0.8,0,1.4-0.6,1.6-1.5h-0.6c-0.1,0.6-0.5,0.9-1,0.9c-0.7,0-1.1-0.7-1.1-1.6h2.8
		C135,204.6,134.5,203.5,133.3,203.5z M130,207.5h-1.2v-5.2l0-0.6h-1.6v0.6h1v5.2H127v0.6h3.1V207.5z M125.2,207.5H124v-3.9h-1.6
		v0.6h1v3.4h-1.2v0.6h3V207.5z M123.7,202.9c0.3,0,0.5-0.2,0.5-0.5c0-0.2-0.2-0.4-0.5-0.4c-0.3,0-0.4,0.2-0.4,0.4
		C123.2,202.7,123.4,202.9,123.7,202.9z M120,203.5c-0.4,0-0.7,0.3-0.8,0.7c-0.1-0.4-0.3-0.7-0.7-0.7c-0.3,0-0.6,0.2-0.8,0.7l0-0.6
		h-0.5l0,4.5h0.6v-2.7c0-0.7,0.2-1.3,0.6-1.3c0.2,0,0.3,0.1,0.3,0.2c0,0.1,0.1,0.4,0.1,0.7v3.1h0.6v-2.7c0-0.8,0.1-1.3,0.6-1.3
		c0.3,0,0.4,0.3,0.4,0.8v3.3h0.6v-3.3C120.8,204,120.6,203.5,120,203.5z M110.1,206.1h-1.9l1.9-3.3V206.1z M111.4,206.7v-0.6h-0.7
		v-4.4h-0.6l-2.6,4.4v0.6h2.6v1.4h0.6v-1.4H111.4z M101.3,207.3c-0.2,0.1-0.6,0.2-0.8,0.2c-0.4,0-0.6-0.2-0.6-0.6v-2.7h1.4v-0.5
		h-1.4v-1.5h-0.6v1.5h-1.1v0.5h1.1v2.7c0,0.7,0.4,1.2,1.2,1.2c0.3,0,0.7-0.1,0.9-0.2L101.3,207.3z M96.6,204.7
		c-0.1-0.8-0.7-1.2-1.5-1.2c-0.8,0-1.4,0.5-1.4,1.2c0,0.5,0.3,0.8,0.9,1.1l1,0.5c0.3,0.2,0.5,0.3,0.5,0.7c0,0.4-0.4,0.7-0.9,0.7
		c-0.5,0-0.9-0.3-1.1-0.8h-0.6c0.2,0.9,0.9,1.4,1.7,1.4c0.5,0,1-0.2,1.3-0.6c0.1-0.2,0.2-0.4,0.2-0.6c0-0.6-0.3-0.9-0.8-1.2l-1-0.5
		c-0.4-0.2-0.6-0.3-0.6-0.6c0-0.4,0.4-0.6,0.9-0.6c0.4,0,0.8,0.2,0.9,0.7H96.6z M90.4,207.6c0.8,0,1-0.8,1-1.8c0-1-0.3-1.8-1-1.8
		c-0.8,0-1,0.8-1,1.8C89.3,206.8,89.6,207.6,90.4,207.6z M90.3,203.5c0.7,0,1.2,0.5,1.5,1.2c0.1,0.4,0.2,0.7,0.2,1.1
		c0,1.3-0.5,2.3-1.6,2.3c-1.1,0-1.6-1-1.6-2.3C88.7,204.5,89.3,203.5,90.3,203.5z M86.6,203.5c-0.4,0-0.7,0.3-0.8,0.7
		c-0.1-0.4-0.3-0.7-0.7-0.7c-0.3,0-0.6,0.2-0.8,0.7l0-0.6h-0.5l0,4.5h0.6v-2.7c0-0.7,0.2-1.3,0.6-1.3c0.2,0,0.3,0.1,0.3,0.2
		c0,0.1,0.1,0.4,0.1,0.7v3.1h0.6v-2.7c0-0.8,0.1-1.3,0.6-1.3c0.3,0,0.4,0.3,0.4,0.8v3.3h0.6v-3.3C87.4,204,87.2,203.5,86.6,203.5z
		 M82.3,207.5h-1.2v-5.2l0-0.6h-1.6v0.6h1v5.2h-1.3v0.6h3.1V207.5z M75.8,207.6c-0.5,0-0.8-0.3-0.8-0.7c0-0.7,0.8-1,1.7-1h0.4v0.3
		C77.1,207,76.6,207.6,75.8,207.6z M76.3,203.5c-0.8,0-1.4,0.5-1.5,1.3h0.6c0-0.5,0.4-0.8,0.9-0.8c0.5,0,0.8,0.3,0.8,1v0.3h-0.3
		c-1.3,0-2.3,0.4-2.3,1.5c0,0.8,0.6,1.3,1.4,1.3c0.5,0,1-0.3,1.3-0.8l0,0.7h0.6l0-3C77.6,204,77.1,203.5,76.3,203.5z M66.4,207.6
		c-0.7,0-1.1-0.8-1.1-1.8c0-1,0.3-1.8,1.1-1.8c0.7,0,1,0.7,1,1.8C67.4,206.9,67.1,207.6,66.4,207.6z M67.4,203.6v0.6
		c-0.2-0.4-0.6-0.7-1.1-0.7c-1,0-1.6,1-1.6,2.3c0,1.3,0.6,2.3,1.6,2.3c0.5,0,0.9-0.3,1.1-0.7v0.7c0,0.8-0.3,1.1-1,1.1
		c-0.4,0-0.9-0.2-0.9-0.7h-0.6c0,0.5,0.4,0.9,0.8,1.1c0.2,0.1,0.5,0.1,0.7,0.1c1,0,1.5-0.6,1.5-1.7v-2.3l0-2.2H67.4z M62,203.5
		c-0.5,0-1,0.3-1.3,0.7l0-0.6h-0.6v4.5h0.6v-2.4c0-1,0.4-1.6,1.2-1.6c0.5,0,0.8,0.4,0.8,1v3h0.6v-3C63.3,204.1,62.8,203.5,62,203.5z
		 M58.5,207.5h-1.2v-3.9h-1.6v0.6h1v3.4h-1.2v0.6h3V207.5z M56.9,202.9c0.3,0,0.5-0.2,0.5-0.5c0-0.2-0.2-0.4-0.5-0.4
		c-0.3,0-0.4,0.2-0.4,0.4C56.5,202.7,56.7,202.9,56.9,202.9z M50.5,203.6l1.3,4.5h0.7l1.3-4.5h-0.6l-1.1,3.8l-1.1-3.8H50.5z
		 M48.9,207.5h-1.2v-3.9h-1.6v0.6h1v3.4h-1.2v0.6h3V207.5z M47.4,202.9c0.3,0,0.5-0.2,0.5-0.5c0-0.2-0.2-0.4-0.5-0.4
		c-0.3,0-0.4,0.2-0.4,0.4C46.9,202.7,47.1,202.9,47.4,202.9z M43.2,203.5c-0.5,0-0.9,0.2-1.1,0.7v-0.6h-0.6v4.5H42v-2.4
		c0-0.9,0.4-1.6,1-1.6c0.4,0,0.7,0.3,0.7,0.9h0.6C44.3,204,43.9,203.5,43.2,203.5z M37.9,207.6c-0.7,0-1.1-0.8-1.1-1.8
		c0-1,0.3-1.8,1.1-1.8c0.7,0,1,0.7,1,1.8C38.9,206.9,38.6,207.6,37.9,207.6z M38.9,204.2c-0.2-0.4-0.6-0.7-1.1-0.7
		c-1,0-1.6,1-1.6,2.3c0,1.3,0.6,2.3,1.6,2.3c0.5,0,0.9-0.3,1.1-0.7l0,0.6h0.6v-6.3h-0.6V204.2z"/>
	<path style="clip-path:url(#SVGID_00000016769213382688737970000009220944944930973061_);fill:#0B0B0A;" d="M158.7,193.9
		c-0.1-0.8-0.7-1.2-1.5-1.2c-0.8,0-1.4,0.5-1.4,1.2c0,0.5,0.3,0.8,0.9,1.1l1,0.5c0.3,0.2,0.5,0.3,0.5,0.7c0,0.4-0.4,0.7-0.9,0.7
		c-0.5,0-0.9-0.3-1.1-0.8h-0.6c0.2,0.9,0.9,1.4,1.7,1.4c0.5,0,1-0.2,1.3-0.6c0.1-0.2,0.2-0.4,0.2-0.6c0-0.6-0.3-0.9-0.8-1.2l-1-0.5
		c-0.4-0.2-0.6-0.3-0.6-0.6c0-0.4,0.4-0.6,0.9-0.6c0.4,0,0.8,0.2,0.9,0.7H158.7z M152.2,196.8c-0.5,0-0.8-0.3-0.8-0.7
		c0-0.7,0.8-1,1.7-1h0.4v0.3C153.4,196.2,152.9,196.8,152.2,196.8 M152.6,192.7c-0.8,0-1.4,0.5-1.5,1.4h0.6c0-0.5,0.4-0.8,0.9-0.8
		c0.5,0,0.8,0.3,0.8,1v0.3h-0.3c-1.3,0-2.3,0.4-2.3,1.5c0,0.8,0.6,1.3,1.4,1.3c0.5,0,1-0.3,1.3-0.8l0,0.7h0.6l0-3
		C154,193.2,153.4,192.7,152.6,192.7 M142.9,193.2c0.6,0,1,0.6,1,1.4h-2.1C141.8,193.8,142.2,193.2,142.9,193.2 M142.9,192.7
		c-0.7,0-1.3,0.5-1.5,1.2c-0.1,0.4-0.2,0.7-0.2,1.2c0,0.8,0.2,1.6,0.8,2c0.3,0.2,0.6,0.3,1,0.3c0.8,0,1.4-0.6,1.6-1.5h-0.6
		c-0.1,0.6-0.4,0.9-1,0.9c-0.7,0-1.1-0.7-1.1-1.6h2.8C144.5,193.8,144,192.7,142.9,192.7 M139.1,192.7c-0.4,0-0.7,0.3-0.8,0.7
		c-0.1-0.4-0.3-0.7-0.7-0.7c-0.3,0-0.6,0.2-0.8,0.7l0-0.6h-0.5l0,4.5h0.6v-2.7c0-0.7,0.2-1.3,0.6-1.3c0.2,0,0.3,0.1,0.3,0.2
		c0,0.1,0.1,0.4,0.1,0.7v3.1h0.6v-2.7c0-0.8,0.1-1.3,0.6-1.3c0.3,0,0.4,0.3,0.4,0.8v3.3h0.6v-3.3
		C139.9,193.2,139.7,192.7,139.1,192.7 M133.1,196.8c-0.5,0-0.8-0.3-0.8-0.7c0-0.7,0.8-1,1.7-1h0.4v0.3
		C134.3,196.2,133.8,196.8,133.1,196.8 M133.5,192.7c-0.8,0-1.4,0.5-1.5,1.4h0.6c0-0.5,0.4-0.8,0.9-0.8c0.5,0,0.8,0.3,0.8,1v0.3H134
		c-1.3,0-2.3,0.4-2.3,1.5c0,0.8,0.6,1.3,1.4,1.3c0.5,0,1-0.3,1.3-0.8l0,0.7h0.6l0-3C134.9,193.2,134.4,192.7,133.5,192.7 M130,193.9
		c-0.1-0.8-0.7-1.2-1.5-1.2c-0.8,0-1.4,0.5-1.4,1.2c0,0.5,0.3,0.8,0.9,1.1l1,0.5c0.3,0.2,0.5,0.3,0.5,0.7c0,0.4-0.4,0.7-0.9,0.7
		c-0.5,0-0.9-0.3-1.1-0.8h-0.6c0.2,0.9,0.9,1.4,1.7,1.4c0.5,0,1-0.2,1.3-0.6c0.1-0.2,0.2-0.4,0.2-0.6c0-0.6-0.3-0.9-0.8-1.2l-1-0.5
		c-0.4-0.2-0.6-0.3-0.6-0.6c0-0.4,0.4-0.6,0.9-0.6c0.4,0,0.8,0.2,0.9,0.7H130z M119,193.2c0.6,0,1,0.6,1,1.4h-2.1
		C118,193.8,118.4,193.2,119,193.2 M119,192.7c-0.7,0-1.3,0.5-1.5,1.2c-0.1,0.4-0.2,0.7-0.2,1.2c0,0.8,0.2,1.6,0.8,2
		c0.3,0.2,0.6,0.3,1,0.3c0.8,0,1.4-0.6,1.6-1.5H120c-0.1,0.6-0.5,0.9-1,0.9c-0.7,0-1.1-0.7-1.1-1.6h2.8
		C120.7,193.8,120.1,192.7,119,192.7 M114.4,192.7c-0.5,0-1,0.3-1.3,0.7l0-0.6V191h-0.6v6.3h0.6v-2.4c0-1,0.4-1.6,1.2-1.6
		c0.6,0,0.8,0.4,0.8,1v3h0.6v-3C115.7,193.3,115.2,192.7,114.4,192.7 M110.8,196.5c-0.2,0.1-0.6,0.2-0.8,0.2c-0.4,0-0.6-0.2-0.6-0.6
		v-2.7h1.3v-0.5h-1.3v-1.5h-0.6v1.5h-1.1v0.5h1.1v2.7c0,0.7,0.4,1.2,1.2,1.2c0.3,0,0.7-0.1,0.9-0.2L110.8,196.5z M101.4,193.9
		c-0.1-0.8-0.7-1.2-1.5-1.2c-0.8,0-1.4,0.5-1.4,1.2c0,0.5,0.3,0.8,0.9,1.1l1,0.5c0.3,0.2,0.5,0.3,0.5,0.7c0,0.4-0.4,0.7-0.9,0.7
		c-0.5,0-0.9-0.3-1.1-0.8h-0.6c0.2,0.9,0.9,1.4,1.7,1.4c0.5,0,1-0.2,1.3-0.6c0.1-0.2,0.2-0.4,0.2-0.6c0-0.6-0.3-0.9-0.8-1.2l-1-0.5
		c-0.4-0.2-0.6-0.3-0.6-0.6c0-0.4,0.4-0.6,0.9-0.6c0.4,0,0.8,0.2,0.9,0.7H101.4z M96.6,196.7h-1.2v-3.9h-1.6v0.6h1v3.4h-1.2v0.6h3
		V196.7z M95.1,192.1c0.3,0,0.4-0.2,0.4-0.5c0-0.2-0.2-0.4-0.4-0.4c-0.3,0-0.4,0.2-0.4,0.4C94.6,191.9,94.8,192.1,95.1,192.1
		 M85.8,191.5v5.6h-1v0.6h1.6v-6.7h-1.6l0,0.6H85.8z M81.5,194.4c0.5-0.4,0.8-0.7,1-1.1c0.1-0.2,0.1-0.5,0.1-0.7
		c0-0.6-0.3-1.2-0.8-1.5c-0.3-0.2-0.6-0.2-0.9-0.2c-1.1,0-1.8,0.8-1.9,1.9h0.6c0.1-0.8,0.6-1.3,1.3-1.3c0.7,0,1.1,0.5,1.1,1.1
		c0,0.7-0.5,1.1-0.9,1.4l-0.9,0.7c-0.9,0.7-1.2,1.4-1.2,2.6l3.6,0v-0.6l-3,0c0.1-0.6,0.4-1.1,0.9-1.5L81.5,194.4z M76,196.8
		c-0.9,0-1.3-0.9-1.3-2.7c0-1.8,0.4-2.7,1.3-2.7c0.9,0,1.3,0.9,1.3,2.7C77.3,195.9,76.9,196.8,76,196.8 M76,190.9
		c-1.4,0-1.9,1.4-1.9,3.2c0,1.8,0.5,3.2,1.9,3.2c1.4,0,1.9-1.4,1.9-3.2C77.9,192.3,77.4,190.9,76,190.9 M71.4,196.8
		c-1,0-1.4-1.3-1.4-2.7c0-0.9,0.2-1.7,0.6-2.3c0.2-0.3,0.5-0.4,0.8-0.4c0.7,0,1,0.5,1.1,1.3h0.6c-0.1-1.2-0.7-1.9-1.7-1.9
		c-0.9,0-1.5,0.7-1.8,1.7c-0.1,0.5-0.2,1-0.2,1.6c0,1.1,0.3,2.2,0.8,2.8c0.3,0.3,0.7,0.5,1.1,0.5c1,0,1.6-0.7,1.7-1.9h-0.6
		C72.4,196.3,72.1,196.8,71.4,196.8 M63.3,191.1c-0.3-0.1-0.7-0.2-1-0.2c-0.8,0-1.2,0.5-1.2,1.2v0.6H60v0.6h1.1v3.9h0.6v-3.9h1.4
		v-0.6h-1.4v-0.6c0-0.5,0.2-0.6,0.7-0.6c0.2,0,0.6,0.1,0.8,0.2L63.3,191.1z M57,196.8c0.8,0,1-0.8,1-1.8c0-1-0.3-1.8-1-1.8
		c-0.8,0-1,0.8-1,1.8C55.9,196,56.2,196.8,57,196.8 M57,192.7c0.7,0,1.2,0.5,1.5,1.2c0.1,0.4,0.2,0.7,0.2,1.1c0,1.3-0.5,2.3-1.6,2.3
		c-1.1,0-1.6-1-1.6-2.3C55.3,193.7,55.9,192.7,57,192.7 M47.3,196.8c-0.7,0-1.1-0.8-1.1-1.8c0-1,0.3-1.8,1.1-1.8c0.7,0,1,0.7,1,1.8
		C48.3,196.1,48,196.8,47.3,196.8 M48.3,192.8v0.6c-0.2-0.4-0.6-0.7-1.1-0.7c-1,0-1.6,1-1.6,2.3c0,1.3,0.6,2.3,1.6,2.3
		c0.5,0,0.9-0.3,1.1-0.7v0.7c0,0.8-0.3,1.1-1,1.1c-0.4,0-0.9-0.2-0.9-0.7h-0.6c0,0.5,0.4,0.9,0.8,1.1c0.2,0.1,0.5,0.1,0.7,0.1
		c1,0,1.5-0.6,1.5-1.7V195l0-2.2H48.3z M43.3,192.8l-1.7,2.1V191h-0.6v6.3h0.6v-1.5l0.6-0.7l1.4,2.2h0.7l-1.7-2.7l1.5-1.8H43.3z
		 M33.2,196.8c-0.5,0-0.9-0.3-1.2-0.7c-0.1-0.2-0.2-0.5-0.2-0.8c0-0.6,0.3-1,0.7-1.3c0.2-0.1,0.4-0.2,0.6-0.2c0.8,0,1.3,0.6,1.3,1.5
		C34.5,196.2,33.9,196.8,33.2,196.8 M33.2,193.2c-0.6,0-1.1,0.3-1.5,0.9c0.1-1.5,0.5-2.8,1.5-2.8c0.5,0,0.9,0.4,1.1,1h0.6
		c-0.2-1-0.9-1.5-1.7-1.5c-1,0-1.6,0.8-1.9,1.9c-0.1,0.5-0.2,1.1-0.2,1.7c0,1.7,0.6,2.9,2,2.9c0.7,0,1.3-0.4,1.6-1
		c0.2-0.3,0.2-0.7,0.2-1.1c0-0.7-0.3-1.4-0.9-1.8C33.9,193.3,33.6,193.2,33.2,193.2 M28.3,197.3c0.3,0,0.5-0.3,0.5-0.5
		c0-0.3-0.3-0.5-0.5-0.5c-0.3,0-0.5,0.3-0.5,0.5C27.7,197.1,28,197.3,28.3,197.3 M25.3,196.7h-1.5v-5.7h-0.6l-1.5,1.7l0.4,0.5
		l1.2-1.3v4.9h-1.5v0.6h3.6V196.7z M19.6,197.1h-1v-5.6h1l0-0.6H18v6.7h1.6V197.1z"/>
	
		<path style="clip-path:url(#SVGID_00000016769213382688737970000009220944944930973061_);fill:none;stroke:#0B0B0A;stroke-width:0.15;" d="
		M158.7,193.9c-0.1-0.8-0.7-1.2-1.5-1.2c-0.8,0-1.4,0.5-1.4,1.2c0,0.5,0.3,0.8,0.9,1.1l1,0.5c0.3,0.2,0.5,0.3,0.5,0.7
		c0,0.4-0.4,0.7-0.9,0.7c-0.5,0-0.9-0.3-1.1-0.8h-0.6c0.2,0.9,0.9,1.4,1.7,1.4c0.5,0,1-0.2,1.3-0.6c0.1-0.2,0.2-0.4,0.2-0.6
		c0-0.6-0.3-0.9-0.8-1.2l-1-0.5c-0.4-0.2-0.6-0.3-0.6-0.6c0-0.4,0.4-0.6,0.9-0.6c0.4,0,0.8,0.2,0.9,0.7H158.7z M152.2,196.8
		c-0.5,0-0.8-0.3-0.8-0.7c0-0.7,0.8-1,1.7-1h0.4v0.3C153.4,196.2,152.9,196.8,152.2,196.8z M152.6,192.7c-0.8,0-1.4,0.5-1.5,1.4h0.6
		c0-0.5,0.4-0.8,0.9-0.8c0.5,0,0.8,0.3,0.8,1v0.3h-0.3c-1.3,0-2.3,0.4-2.3,1.5c0,0.8,0.6,1.3,1.4,1.3c0.5,0,1-0.3,1.3-0.8l0,0.7h0.6
		l0-3C154,193.2,153.4,192.7,152.6,192.7z M142.9,193.2c0.6,0,1,0.6,1,1.4h-2.1C141.8,193.8,142.2,193.2,142.9,193.2z M142.9,192.7
		c-0.7,0-1.3,0.5-1.5,1.2c-0.1,0.4-0.2,0.7-0.2,1.2c0,0.8,0.2,1.6,0.8,2c0.3,0.2,0.6,0.3,1,0.3c0.8,0,1.4-0.6,1.6-1.5h-0.6
		c-0.1,0.6-0.4,0.9-1,0.9c-0.7,0-1.1-0.7-1.1-1.6h2.8C144.5,193.8,144,192.7,142.9,192.7z M139.1,192.7c-0.4,0-0.7,0.3-0.8,0.7
		c-0.1-0.4-0.3-0.7-0.7-0.7c-0.3,0-0.6,0.2-0.8,0.7l0-0.6h-0.5l0,4.5h0.6v-2.7c0-0.7,0.2-1.3,0.6-1.3c0.2,0,0.3,0.1,0.3,0.2
		c0,0.1,0.1,0.4,0.1,0.7v3.1h0.6v-2.7c0-0.8,0.1-1.3,0.6-1.3c0.3,0,0.4,0.3,0.4,0.8v3.3h0.6v-3.3
		C139.9,193.2,139.7,192.7,139.1,192.7z M133.1,196.8c-0.5,0-0.8-0.3-0.8-0.7c0-0.7,0.8-1,1.7-1h0.4v0.3
		C134.3,196.2,133.8,196.8,133.1,196.8z M133.5,192.7c-0.8,0-1.4,0.5-1.5,1.4h0.6c0-0.5,0.4-0.8,0.9-0.8c0.5,0,0.8,0.3,0.8,1v0.3
		H134c-1.3,0-2.3,0.4-2.3,1.5c0,0.8,0.6,1.3,1.4,1.3c0.5,0,1-0.3,1.3-0.8l0,0.7h0.6l0-3C134.9,193.2,134.4,192.7,133.5,192.7z
		 M130,193.9c-0.1-0.8-0.7-1.2-1.5-1.2c-0.8,0-1.4,0.5-1.4,1.2c0,0.5,0.3,0.8,0.9,1.1l1,0.5c0.3,0.2,0.5,0.3,0.5,0.7
		c0,0.4-0.4,0.7-0.9,0.7c-0.5,0-0.9-0.3-1.1-0.8h-0.6c0.2,0.9,0.9,1.4,1.7,1.4c0.5,0,1-0.2,1.3-0.6c0.1-0.2,0.2-0.4,0.2-0.6
		c0-0.6-0.3-0.9-0.8-1.2l-1-0.5c-0.4-0.2-0.6-0.3-0.6-0.6c0-0.4,0.4-0.6,0.9-0.6c0.4,0,0.8,0.2,0.9,0.7H130z M119,193.2
		c0.6,0,1,0.6,1,1.4h-2.1C118,193.8,118.4,193.2,119,193.2z M119,192.7c-0.7,0-1.3,0.5-1.5,1.2c-0.1,0.4-0.2,0.7-0.2,1.2
		c0,0.8,0.2,1.6,0.8,2c0.3,0.2,0.6,0.3,1,0.3c0.8,0,1.4-0.6,1.6-1.5H120c-0.1,0.6-0.5,0.9-1,0.9c-0.7,0-1.1-0.7-1.1-1.6h2.8
		C120.7,193.8,120.1,192.7,119,192.7z M114.4,192.7c-0.5,0-1,0.3-1.3,0.7l0-0.6V191h-0.6v6.3h0.6v-2.4c0-1,0.4-1.6,1.2-1.6
		c0.6,0,0.8,0.4,0.8,1v3h0.6v-3C115.7,193.3,115.2,192.7,114.4,192.7z M110.8,196.5c-0.2,0.1-0.6,0.2-0.8,0.2
		c-0.4,0-0.6-0.2-0.6-0.6v-2.7h1.3v-0.5h-1.3v-1.5h-0.6v1.5h-1.1v0.5h1.1v2.7c0,0.7,0.4,1.2,1.2,1.2c0.3,0,0.7-0.1,0.9-0.2
		L110.8,196.5z M101.4,193.9c-0.1-0.8-0.7-1.2-1.5-1.2c-0.8,0-1.4,0.5-1.4,1.2c0,0.5,0.3,0.8,0.9,1.1l1,0.5c0.3,0.2,0.5,0.3,0.5,0.7
		c0,0.4-0.4,0.7-0.9,0.7c-0.5,0-0.9-0.3-1.1-0.8h-0.6c0.2,0.9,0.9,1.4,1.7,1.4c0.5,0,1-0.2,1.3-0.6c0.1-0.2,0.2-0.4,0.2-0.6
		c0-0.6-0.3-0.9-0.8-1.2l-1-0.5c-0.4-0.2-0.6-0.3-0.6-0.6c0-0.4,0.4-0.6,0.9-0.6c0.4,0,0.8,0.2,0.9,0.7H101.4z M96.6,196.7h-1.2
		v-3.9h-1.6v0.6h1v3.4h-1.2v0.6h3V196.7z M95.1,192.1c0.3,0,0.4-0.2,0.4-0.5c0-0.2-0.2-0.4-0.4-0.4c-0.3,0-0.4,0.2-0.4,0.4
		C94.6,191.9,94.8,192.1,95.1,192.1z M85.8,191.5v5.6h-1v0.6h1.6v-6.7h-1.6l0,0.6H85.8z M81.5,194.4c0.5-0.4,0.8-0.7,1-1.1
		c0.1-0.2,0.1-0.5,0.1-0.7c0-0.6-0.3-1.2-0.8-1.5c-0.3-0.2-0.6-0.2-0.9-0.2c-1.1,0-1.8,0.8-1.9,1.9h0.6c0.1-0.8,0.6-1.3,1.3-1.3
		c0.7,0,1.1,0.5,1.1,1.1c0,0.7-0.5,1.1-0.9,1.4l-0.9,0.7c-0.9,0.7-1.2,1.4-1.2,2.6l3.6,0v-0.6l-3,0c0.1-0.6,0.4-1.1,0.9-1.5
		L81.5,194.4z M76,196.8c-0.9,0-1.3-0.9-1.3-2.7c0-1.8,0.4-2.7,1.3-2.7c0.9,0,1.3,0.9,1.3,2.7C77.3,195.9,76.9,196.8,76,196.8z
		 M76,190.9c-1.4,0-1.9,1.4-1.9,3.2c0,1.8,0.5,3.2,1.9,3.2c1.4,0,1.9-1.4,1.9-3.2C77.9,192.3,77.4,190.9,76,190.9z M71.4,196.8
		c-1,0-1.4-1.3-1.4-2.7c0-0.9,0.2-1.7,0.6-2.3c0.2-0.3,0.5-0.4,0.8-0.4c0.7,0,1,0.5,1.1,1.3h0.6c-0.1-1.2-0.7-1.9-1.7-1.9
		c-0.9,0-1.5,0.7-1.8,1.7c-0.1,0.5-0.2,1-0.2,1.6c0,1.1,0.3,2.2,0.8,2.8c0.3,0.3,0.7,0.5,1.1,0.5c1,0,1.6-0.7,1.7-1.9h-0.6
		C72.4,196.3,72.1,196.8,71.4,196.8z M63.3,191.1c-0.3-0.1-0.7-0.2-1-0.2c-0.8,0-1.2,0.5-1.2,1.2v0.6H60v0.6h1.1v3.9h0.6v-3.9h1.4
		v-0.6h-1.4v-0.6c0-0.5,0.2-0.6,0.7-0.6c0.2,0,0.6,0.1,0.8,0.2L63.3,191.1z M57,196.8c0.8,0,1-0.8,1-1.8c0-1-0.3-1.8-1-1.8
		c-0.8,0-1,0.8-1,1.8C55.9,196,56.2,196.8,57,196.8z M57,192.7c0.7,0,1.2,0.5,1.5,1.2c0.1,0.4,0.2,0.7,0.2,1.1
		c0,1.3-0.5,2.3-1.6,2.3c-1.1,0-1.6-1-1.6-2.3C55.3,193.7,55.9,192.7,57,192.7z M47.3,196.8c-0.7,0-1.1-0.8-1.1-1.8
		c0-1,0.3-1.8,1.1-1.8c0.7,0,1,0.7,1,1.8C48.3,196.1,48,196.8,47.3,196.8z M48.3,192.8v0.6c-0.2-0.4-0.6-0.7-1.1-0.7
		c-1,0-1.6,1-1.6,2.3c0,1.3,0.6,2.3,1.6,2.3c0.5,0,0.9-0.3,1.1-0.7v0.7c0,0.8-0.3,1.1-1,1.1c-0.4,0-0.9-0.2-0.9-0.7h-0.6
		c0,0.5,0.4,0.9,0.8,1.1c0.2,0.1,0.5,0.1,0.7,0.1c1,0,1.5-0.6,1.5-1.7V195l0-2.2H48.3z M43.3,192.8l-1.7,2.1V191h-0.6v6.3h0.6v-1.5
		l0.6-0.7l1.4,2.2h0.7l-1.7-2.7l1.5-1.8H43.3z M33.2,196.8c-0.5,0-0.9-0.3-1.2-0.7c-0.1-0.2-0.2-0.5-0.2-0.8c0-0.6,0.3-1,0.7-1.3
		c0.2-0.1,0.4-0.2,0.6-0.2c0.8,0,1.3,0.6,1.3,1.5C34.5,196.2,33.9,196.8,33.2,196.8z M33.2,193.2c-0.6,0-1.1,0.3-1.5,0.9
		c0.1-1.5,0.5-2.8,1.5-2.8c0.5,0,0.9,0.4,1.1,1h0.6c-0.2-1-0.9-1.5-1.7-1.5c-1,0-1.6,0.8-1.9,1.9c-0.1,0.5-0.2,1.1-0.2,1.7
		c0,1.7,0.6,2.9,2,2.9c0.7,0,1.3-0.4,1.6-1c0.2-0.3,0.2-0.7,0.2-1.1c0-0.7-0.3-1.4-0.9-1.8C33.9,193.3,33.6,193.2,33.2,193.2z
		 M28.3,197.3c0.3,0,0.5-0.3,0.5-0.5c0-0.3-0.3-0.5-0.5-0.5c-0.3,0-0.5,0.3-0.5,0.5C27.7,197.1,28,197.3,28.3,197.3z M25.3,196.7
		h-1.5v-5.7h-0.6l-1.5,1.7l0.4,0.5l1.2-1.3v4.9h-1.5v0.6h3.6V196.7z M19.6,197.1h-1v-5.6h1l0-0.6H18v6.7h1.6V197.1z"/>
	<path style="clip-path:url(#SVGID_00000016769213382688737970000009220944944930973061_);fill:#0B0B0A;" d="M157.1,183.7l-1-1.7
		h-0.6l1.3,2.2l-1.3,2.3h0.6l1-1.8l1,1.8h0.6l-1.3-2.3l1.3-2.2h-0.6L157.1,183.7z M153.8,185.9h-1.2v-3.9h-1.6v0.6h1v3.4h-1.2v0.6h3
		V185.9z M152.3,181.3c0.3,0,0.4-0.2,0.4-0.5c0-0.2-0.2-0.4-0.4-0.4c-0.3,0-0.4,0.2-0.4,0.4C151.9,181.1,152.1,181.3,152.3,181.3
		 M149.1,185.9h-1.2v-5.2l0-0.6h-1.6v0.6h1v5.2h-1.3v0.6h3.1V185.9z M144.4,180.3c-0.3-0.1-0.7-0.2-1-0.2c-0.8,0-1.2,0.5-1.2,1.2
		v0.6h-1.1v0.6h1.1v3.9h0.6v-3.9h1.4V182h-1.4v-0.6c0-0.5,0.2-0.6,0.7-0.6c0.2,0,0.6,0.1,0.8,0.2L144.4,180.3z M139.4,185.7
		c-0.2,0.1-0.6,0.2-0.8,0.2c-0.4,0-0.6-0.2-0.6-0.6v-2.7h1.4V182H138v-1.5h-0.6v1.5h-1.1v0.5h1.1v2.7c0,0.7,0.4,1.2,1.2,1.2
		c0.3,0,0.7-0.1,0.9-0.2L139.4,185.7z M133.3,182.4c0.6,0,1,0.6,1,1.4h-2.1C132.3,183,132.7,182.4,133.3,182.4 M133.3,181.9
		c-0.7,0-1.3,0.5-1.5,1.2c-0.1,0.4-0.2,0.7-0.2,1.2c0,0.8,0.2,1.6,0.8,2c0.3,0.2,0.6,0.3,1,0.3c0.8,0,1.4-0.6,1.6-1.5h-0.6
		c-0.1,0.6-0.4,0.9-1,0.9c-0.7,0-1.1-0.7-1.1-1.6h2.8C135,183,134.5,181.9,133.3,181.9 M130.2,180.2h-0.6l0,5.1l-2.1-5.1h-0.7v6.3
		h0.6l0-5.1l2.1,5.1h0.7V180.2z M120.6,180.3c-0.3-0.1-0.7-0.2-1-0.2c-0.8,0-1.2,0.5-1.2,1.2v0.6h-1.1v0.6h1.1v3.9h0.6v-3.9h1.4V182
		H119v-0.6c0-0.5,0.2-0.6,0.7-0.6c0.2,0,0.6,0.1,0.8,0.2L120.6,180.3z M114.2,186c0.8,0,1-0.8,1-1.8c0-1-0.3-1.8-1-1.8
		c-0.8,0-1,0.8-1,1.8C113.2,185.2,113.4,186,114.2,186 M114.2,181.9c0.7,0,1.2,0.5,1.5,1.2c0.1,0.4,0.2,0.7,0.2,1.1
		c0,1.3-0.5,2.3-1.6,2.3c-1.1,0-1.6-1-1.6-2.3C112.6,182.9,113.1,181.9,114.2,181.9 M106.2,183.1c-0.1-0.8-0.7-1.2-1.5-1.2
		c-0.8,0-1.4,0.5-1.4,1.2c0,0.5,0.3,0.8,0.9,1.1l1,0.5c0.3,0.2,0.5,0.3,0.5,0.7c0,0.4-0.4,0.7-0.9,0.7c-0.5,0-0.9-0.3-1.1-0.8h-0.6
		c0.2,0.9,0.9,1.4,1.7,1.4c0.5,0,1-0.2,1.3-0.6c0.1-0.2,0.2-0.4,0.2-0.6c0-0.6-0.3-0.9-0.8-1.2l-1-0.5c-0.4-0.2-0.6-0.3-0.6-0.6
		c0-0.4,0.4-0.6,0.9-0.6c0.4,0,0.8,0.2,0.9,0.7H106.2z M99.9,182.4c0.6,0,1,0.6,1,1.4h-2.1C98.9,183,99.3,182.4,99.9,182.4
		 M99.9,181.9c-0.7,0-1.3,0.5-1.5,1.2c-0.1,0.4-0.2,0.7-0.2,1.2c0,0.8,0.2,1.6,0.8,2c0.3,0.2,0.6,0.3,1,0.3c0.8,0,1.4-0.6,1.6-1.5
		h-0.6c-0.1,0.6-0.5,0.9-1,0.9c-0.7,0-1.1-0.7-1.1-1.6h2.8C101.6,183,101.1,181.9,99.9,181.9 M96.5,185.7c-0.2,0.1-0.6,0.2-0.8,0.2
		c-0.4,0-0.6-0.2-0.6-0.6v-2.7h1.4V182h-1.4v-1.5h-0.6v1.5h-1.1v0.5h1.1v2.7c0,0.7,0.4,1.2,1.2,1.2c0.3,0,0.7-0.1,0.9-0.2
		L96.5,185.7z M91.3,184.4c0,1-0.4,1.6-1.2,1.6c-0.5,0-0.8-0.4-0.8-1v-3h-0.6v3c0,0.9,0.5,1.6,1.3,1.6c0.5,0,1-0.3,1.3-0.7l0,0.6
		h0.6V182h-0.6V184.4z M85.9,181.9c-0.5,0-1,0.3-1.3,0.7l0-0.6H84v4.5h0.6V184c0-1,0.4-1.6,1.2-1.6c0.5,0,0.8,0.4,0.8,1v3h0.6v-3
		C87.2,182.5,86.7,181.9,85.9,181.9 M82.3,185.9h-1.2v-3.9h-1.6v0.6h1v3.4h-1.2v0.6h3V185.9z M80.8,181.3c0.3,0,0.4-0.2,0.4-0.5
		c0-0.2-0.2-0.4-0.4-0.4c-0.3,0-0.5,0.2-0.5,0.4C80.3,181.1,80.5,181.3,80.8,181.3 M77,181.9c-0.4,0-0.7,0.3-0.8,0.7
		c-0.1-0.4-0.3-0.7-0.7-0.7c-0.3,0-0.6,0.2-0.8,0.7l0-0.6h-0.5l0,4.5h0.6v-2.7c0-0.7,0.2-1.3,0.6-1.3c0.2,0,0.3,0.1,0.3,0.2
		c0,0.1,0.1,0.4,0.1,0.7v3.1h0.6v-2.7c0-0.8,0.1-1.3,0.6-1.3c0.3,0,0.4,0.3,0.4,0.8v3.3h0.6v-3.3C77.9,182.4,77.6,181.9,77,181.9
		 M67.7,183.3c0,1.6-0.4,2.7-1.2,2.7c-0.8,0-1.2-1-1.2-2.7c0-1.8,0.4-2.6,1.2-2.6C67.3,180.7,67.7,181.7,67.7,183.3 M68.3,183.3
		c0-2-0.6-3.2-1.8-3.2c-1.2,0-1.8,1.2-1.8,3.2c0,2,0.6,3.2,1.8,3.2C67.7,186.5,68.3,185.3,68.3,183.3 M62.3,183.1
		c0.7-0.2,1.2-0.8,1.2-1.5c0-0.6-0.3-1.1-0.8-1.4c-0.3-0.1-0.5-0.2-0.8-0.2c-0.6,0-1.2,0.3-1.5,0.8c-0.2,0.2-0.3,0.5-0.3,0.8h0.6
		c0.2-0.6,0.7-1,1.3-1c0.6,0,1.1,0.4,1.1,1c0,0.8-0.6,1.2-1.4,1.2h-0.2v0.6h0.2c0.9,0,1.6,0.5,1.6,1.3c0,0.7-0.5,1.3-1.3,1.3
		c-0.7,0-1.2-0.4-1.4-1.1h-0.6c0.2,0.9,0.9,1.7,2,1.7c0.7,0,1.3-0.3,1.6-0.9c0.2-0.3,0.2-0.6,0.2-0.9c0-0.5-0.3-1-0.7-1.3
		C62.8,183.2,62.5,183.1,62.3,183.1 M52.1,186c-0.7,0-1.1-0.8-1.1-1.8c0-1,0.3-1.8,1.1-1.8c0.7,0,1,0.7,1,1.8
		C53.1,185.3,52.7,186,52.1,186 M53.1,182v0.6c-0.2-0.4-0.6-0.7-1.1-0.7c-1,0-1.6,1-1.6,2.3c0,1.3,0.6,2.3,1.6,2.3
		c0.5,0,0.9-0.3,1.1-0.7v0.7c0,0.8-0.3,1.1-1,1.1c-0.4,0-0.9-0.2-0.9-0.7h-0.6c0,0.5,0.4,0.9,0.8,1.1c0.2,0.1,0.5,0.1,0.7,0.1
		c1,0,1.5-0.6,1.5-1.7v-2.3l0-2.2H53.1z M47.7,181.9c-0.5,0-1,0.3-1.3,0.7l0-0.6h-0.6v4.5h0.6V184c0-1,0.4-1.6,1.2-1.6
		c0.5,0,0.8,0.4,0.8,1v3H49v-3C49,182.5,48.5,181.9,47.7,181.9 M44.1,185.9H43v-3.9h-1.6v0.6h1v3.4h-1.2v0.6h3V185.9z M42.6,181.3
		c0.3,0,0.4-0.2,0.4-0.5c0-0.2-0.2-0.4-0.4-0.4c-0.3,0-0.5,0.2-0.5,0.4C42.1,181.1,42.3,181.3,42.6,181.3 M38.1,181.9
		c-0.5,0-1,0.3-1.3,0.7l0-0.6v-1.8h-0.6v6.3h0.6V184c0-1,0.4-1.6,1.2-1.6c0.5,0,0.8,0.4,0.8,1v3h0.6v-3
		C39.4,182.5,38.9,181.9,38.1,181.9 M33.2,186c-0.7,0-1.1-0.8-1.1-1.8c0-1,0.4-1.8,1.1-1.8c0.5,0,0.8,0.4,0.9,1h0.6
		c-0.1-0.9-0.7-1.5-1.5-1.5c-0.7,0-1.3,0.4-1.5,1.2c-0.1,0.4-0.2,0.7-0.2,1.2v0c0,0.9,0.3,1.6,0.8,2c0.3,0.2,0.6,0.3,0.9,0.3
		c0.8,0,1.4-0.6,1.5-1.5h-0.6C34,185.6,33.7,186,33.2,186 M29.7,185.7c-0.2,0.1-0.6,0.2-0.8,0.2c-0.4,0-0.6-0.2-0.6-0.6v-2.7h1.4
		V182h-1.4v-1.5h-0.6v1.5h-1.1v0.5h1.1v2.7c0,0.7,0.4,1.2,1.2,1.2c0.3,0,0.7-0.1,0.9-0.2L29.7,185.7z M23.4,186
		c-0.5,0-0.8-0.3-0.8-0.7c0-0.7,0.8-1,1.7-1h0.4v0.3C24.6,185.4,24.1,186,23.4,186 M23.8,181.9c-0.8,0-1.4,0.5-1.5,1.4h0.6
		c0-0.5,0.5-0.8,0.9-0.8c0.5,0,0.8,0.3,0.8,1v0.3h-0.3c-1.3,0-2.3,0.4-2.3,1.5c0,0.8,0.6,1.3,1.4,1.3c0.5,0,1-0.3,1.3-0.8l0,0.7h0.6
		l0-3C25.2,182.4,24.6,181.9,23.8,181.9 M18.5,183.2l-0.6,2.2l-0.5-3.5h-0.6l0.7,4.5h0.6l0.7-2.4l0.7,2.4h0.6l0.7-4.5h-0.6l-0.5,3.5
		l-0.6-2.2H18.5z"/>
	
		<path style="clip-path:url(#SVGID_00000016769213382688737970000009220944944930973061_);fill:none;stroke:#0B0B0A;stroke-width:0.15;" d="
		M157.1,183.7l-1-1.7h-0.6l1.3,2.2l-1.3,2.3h0.6l1-1.8l1,1.8h0.6l-1.3-2.3l1.3-2.2h-0.6L157.1,183.7z M153.8,185.9h-1.2v-3.9h-1.6
		v0.6h1v3.4h-1.2v0.6h3V185.9z M152.3,181.3c0.3,0,0.4-0.2,0.4-0.5c0-0.2-0.2-0.4-0.4-0.4c-0.3,0-0.4,0.2-0.4,0.4
		C151.9,181.1,152.1,181.3,152.3,181.3z M149.1,185.9h-1.2v-5.2l0-0.6h-1.6v0.6h1v5.2h-1.3v0.6h3.1V185.9z M144.4,180.3
		c-0.3-0.1-0.7-0.2-1-0.2c-0.8,0-1.2,0.5-1.2,1.2v0.6h-1.1v0.6h1.1v3.9h0.6v-3.9h1.4V182h-1.4v-0.6c0-0.5,0.2-0.6,0.7-0.6
		c0.2,0,0.6,0.1,0.8,0.2L144.4,180.3z M139.4,185.7c-0.2,0.1-0.6,0.2-0.8,0.2c-0.4,0-0.6-0.2-0.6-0.6v-2.7h1.4V182H138v-1.5h-0.6
		v1.5h-1.1v0.5h1.1v2.7c0,0.7,0.4,1.2,1.2,1.2c0.3,0,0.7-0.1,0.9-0.2L139.4,185.7z M133.3,182.4c0.6,0,1,0.6,1,1.4h-2.1
		C132.3,183,132.7,182.4,133.3,182.4z M133.3,181.9c-0.7,0-1.3,0.5-1.5,1.2c-0.1,0.4-0.2,0.7-0.2,1.2c0,0.8,0.2,1.6,0.8,2
		c0.3,0.2,0.6,0.3,1,0.3c0.8,0,1.4-0.6,1.6-1.5h-0.6c-0.1,0.6-0.4,0.9-1,0.9c-0.7,0-1.1-0.7-1.1-1.6h2.8
		C135,183,134.5,181.9,133.3,181.9z M130.2,180.2h-0.6l0,5.1l-2.1-5.1h-0.7v6.3h0.6l0-5.1l2.1,5.1h0.7V180.2z M120.6,180.3
		c-0.3-0.1-0.7-0.2-1-0.2c-0.8,0-1.2,0.5-1.2,1.2v0.6h-1.1v0.6h1.1v3.9h0.6v-3.9h1.4V182H119v-0.6c0-0.5,0.2-0.6,0.7-0.6
		c0.2,0,0.6,0.1,0.8,0.2L120.6,180.3z M114.2,186c0.8,0,1-0.8,1-1.8c0-1-0.3-1.8-1-1.8c-0.8,0-1,0.8-1,1.8
		C113.2,185.2,113.4,186,114.2,186z M114.2,181.9c0.7,0,1.2,0.5,1.5,1.2c0.1,0.4,0.2,0.7,0.2,1.1c0,1.3-0.5,2.3-1.6,2.3
		c-1.1,0-1.6-1-1.6-2.3C112.6,182.9,113.1,181.9,114.2,181.9z M106.2,183.1c-0.1-0.8-0.7-1.2-1.5-1.2c-0.8,0-1.4,0.5-1.4,1.2
		c0,0.5,0.3,0.8,0.9,1.1l1,0.5c0.3,0.2,0.5,0.3,0.5,0.7c0,0.4-0.4,0.7-0.9,0.7c-0.5,0-0.9-0.3-1.1-0.8h-0.6c0.2,0.9,0.9,1.4,1.7,1.4
		c0.5,0,1-0.2,1.3-0.6c0.1-0.2,0.2-0.4,0.2-0.6c0-0.6-0.3-0.9-0.8-1.2l-1-0.5c-0.4-0.2-0.6-0.3-0.6-0.6c0-0.4,0.4-0.6,0.9-0.6
		c0.4,0,0.8,0.2,0.9,0.7H106.2z M99.9,182.4c0.6,0,1,0.6,1,1.4h-2.1C98.9,183,99.3,182.4,99.9,182.4z M99.9,181.9
		c-0.7,0-1.3,0.5-1.5,1.2c-0.1,0.4-0.2,0.7-0.2,1.2c0,0.8,0.2,1.6,0.8,2c0.3,0.2,0.6,0.3,1,0.3c0.8,0,1.4-0.6,1.6-1.5h-0.6
		c-0.1,0.6-0.5,0.9-1,0.9c-0.7,0-1.1-0.7-1.1-1.6h2.8C101.6,183,101.1,181.9,99.9,181.9z M96.5,185.7c-0.2,0.1-0.6,0.2-0.8,0.2
		c-0.4,0-0.6-0.2-0.6-0.6v-2.7h1.4V182h-1.4v-1.5h-0.6v1.5h-1.1v0.5h1.1v2.7c0,0.7,0.4,1.2,1.2,1.2c0.3,0,0.7-0.1,0.9-0.2
		L96.5,185.7z M91.3,184.4c0,1-0.4,1.6-1.2,1.6c-0.5,0-0.8-0.4-0.8-1v-3h-0.6v3c0,0.9,0.5,1.6,1.3,1.6c0.5,0,1-0.3,1.3-0.7l0,0.6
		h0.6V182h-0.6V184.4z M85.9,181.9c-0.5,0-1,0.3-1.3,0.7l0-0.6H84v4.5h0.6V184c0-1,0.4-1.6,1.2-1.6c0.5,0,0.8,0.4,0.8,1v3h0.6v-3
		C87.2,182.5,86.7,181.9,85.9,181.9z M82.3,185.9h-1.2v-3.9h-1.6v0.6h1v3.4h-1.2v0.6h3V185.9z M80.8,181.3c0.3,0,0.4-0.2,0.4-0.5
		c0-0.2-0.2-0.4-0.4-0.4c-0.3,0-0.5,0.2-0.5,0.4C80.3,181.1,80.5,181.3,80.8,181.3z M77,181.9c-0.4,0-0.7,0.3-0.8,0.7
		c-0.1-0.4-0.3-0.7-0.7-0.7c-0.3,0-0.6,0.2-0.8,0.7l0-0.6h-0.5l0,4.5h0.6v-2.7c0-0.7,0.2-1.3,0.6-1.3c0.2,0,0.3,0.1,0.3,0.2
		c0,0.1,0.1,0.4,0.1,0.7v3.1h0.6v-2.7c0-0.8,0.1-1.3,0.6-1.3c0.3,0,0.4,0.3,0.4,0.8v3.3h0.6v-3.3C77.9,182.4,77.6,181.9,77,181.9z
		 M67.7,183.3c0,1.6-0.4,2.7-1.2,2.7c-0.8,0-1.2-1-1.2-2.7c0-1.8,0.4-2.6,1.2-2.6C67.3,180.7,67.7,181.7,67.7,183.3z M68.3,183.3
		c0-2-0.6-3.2-1.8-3.2c-1.2,0-1.8,1.2-1.8,3.2c0,2,0.6,3.2,1.8,3.2C67.7,186.5,68.3,185.3,68.3,183.3z M62.3,183.1
		c0.7-0.2,1.2-0.8,1.2-1.5c0-0.6-0.3-1.1-0.8-1.4c-0.3-0.1-0.5-0.2-0.8-0.2c-0.6,0-1.2,0.3-1.5,0.8c-0.2,0.2-0.3,0.5-0.3,0.8h0.6
		c0.2-0.6,0.7-1,1.3-1c0.6,0,1.1,0.4,1.1,1c0,0.8-0.6,1.2-1.4,1.2h-0.2v0.6h0.2c0.9,0,1.6,0.5,1.6,1.3c0,0.7-0.5,1.3-1.3,1.3
		c-0.7,0-1.2-0.4-1.4-1.1h-0.6c0.2,0.9,0.9,1.7,2,1.7c0.7,0,1.3-0.3,1.6-0.9c0.2-0.3,0.2-0.6,0.2-0.9c0-0.5-0.3-1-0.7-1.3
		C62.8,183.2,62.5,183.1,62.3,183.1z M52.1,186c-0.7,0-1.1-0.8-1.1-1.8c0-1,0.3-1.8,1.1-1.8c0.7,0,1,0.7,1,1.8
		C53.1,185.3,52.7,186,52.1,186z M53.1,182v0.6c-0.2-0.4-0.6-0.7-1.1-0.7c-1,0-1.6,1-1.6,2.3c0,1.3,0.6,2.3,1.6,2.3
		c0.5,0,0.9-0.3,1.1-0.7v0.7c0,0.8-0.3,1.1-1,1.1c-0.4,0-0.9-0.2-0.9-0.7h-0.6c0,0.5,0.4,0.9,0.8,1.1c0.2,0.1,0.5,0.1,0.7,0.1
		c1,0,1.5-0.6,1.5-1.7v-2.3l0-2.2H53.1z M47.7,181.9c-0.5,0-1,0.3-1.3,0.7l0-0.6h-0.6v4.5h0.6V184c0-1,0.4-1.6,1.2-1.6
		c0.5,0,0.8,0.4,0.8,1v3H49v-3C49,182.5,48.5,181.9,47.7,181.9z M44.1,185.9H43v-3.9h-1.6v0.6h1v3.4h-1.2v0.6h3V185.9z M42.6,181.3
		c0.3,0,0.4-0.2,0.4-0.5c0-0.2-0.2-0.4-0.4-0.4c-0.3,0-0.5,0.2-0.5,0.4C42.1,181.1,42.3,181.3,42.6,181.3z M38.1,181.9
		c-0.5,0-1,0.3-1.3,0.7l0-0.6v-1.8h-0.6v6.3h0.6V184c0-1,0.4-1.6,1.2-1.6c0.5,0,0.8,0.4,0.8,1v3h0.6v-3
		C39.4,182.5,38.9,181.9,38.1,181.9z M33.2,186c-0.7,0-1.1-0.8-1.1-1.8c0-1,0.4-1.8,1.1-1.8c0.5,0,0.8,0.4,0.9,1h0.6
		c-0.1-0.9-0.7-1.5-1.5-1.5c-0.7,0-1.3,0.4-1.5,1.2c-0.1,0.4-0.2,0.7-0.2,1.2v0c0,0.9,0.3,1.6,0.8,2c0.3,0.2,0.6,0.3,0.9,0.3
		c0.8,0,1.4-0.6,1.5-1.5h-0.6C34,185.6,33.7,186,33.2,186z M29.7,185.7c-0.2,0.1-0.6,0.2-0.8,0.2c-0.4,0-0.6-0.2-0.6-0.6v-2.7h1.4
		V182h-1.4v-1.5h-0.6v1.5h-1.1v0.5h1.1v2.7c0,0.7,0.4,1.2,1.2,1.2c0.3,0,0.7-0.1,0.9-0.2L29.7,185.7z M23.4,186
		c-0.5,0-0.8-0.3-0.8-0.7c0-0.7,0.8-1,1.7-1h0.4v0.3C24.6,185.4,24.1,186,23.4,186z M23.8,181.9c-0.8,0-1.4,0.5-1.5,1.4h0.6
		c0-0.5,0.5-0.8,0.9-0.8c0.5,0,0.8,0.3,0.8,1v0.3h-0.3c-1.3,0-2.3,0.4-2.3,1.5c0,0.8,0.6,1.3,1.4,1.3c0.5,0,1-0.3,1.3-0.8l0,0.7h0.6
		l0-3C25.2,182.4,24.6,181.9,23.8,181.9z M18.5,183.2l-0.6,2.2l-0.5-3.5h-0.6l0.7,4.5h0.6l0.7-2.4l0.7,2.4h0.6l0.7-4.5h-0.6
		l-0.5,3.5l-0.6-2.2H18.5z"/>
	<path style="clip-path:url(#SVGID_00000016769213382688737970000009220944944930973061_);fill:#0B0B0A;" d="M145.9,171.2l1.5,4.5
		l-0.5,1.6h0.6l2-6.1h-0.6l-1.1,3.7l-1.2-3.7H145.9z M142.8,175.2c-0.7,0-1-0.7-1-1.8c0-1.1,0.4-1.8,1-1.8c0.7,0,1.1,0.8,1.1,1.8
		C143.8,174.4,143.5,175.2,142.8,175.2 M142.8,171.1c-0.4,0-0.8,0.3-1.1,0.7v-2.4h-0.6v6.3h0.6l0-0.6c0.2,0.4,0.6,0.7,1.1,0.7
		c1,0,1.6-1,1.6-2.3C144.4,172.1,143.9,171.1,142.8,171.1 M133.3,175.2c-0.7,0-1.1-0.8-1.1-1.8c0-1,0.3-1.8,1.1-1.8
		c0.7,0,1,0.7,1,1.8C134.3,174.5,134,175.2,133.3,175.2 M134.3,171.8c-0.2-0.4-0.6-0.7-1.1-0.7c-1,0-1.6,1-1.6,2.3
		c0,1.3,0.6,2.3,1.6,2.3c0.5,0,0.9-0.3,1.1-0.7l0,0.6h0.6v-6.3h-0.6V171.8z M128.5,171.6c0.6,0,1,0.6,1,1.4h-2.1
		C127.5,172.2,127.9,171.6,128.5,171.6 M128.5,171.1c-0.7,0-1.3,0.5-1.5,1.2c-0.1,0.4-0.2,0.7-0.2,1.2c0,0.8,0.2,1.6,0.8,2
		c0.3,0.2,0.6,0.3,1,0.3c0.8,0,1.4-0.6,1.6-1.5h-0.6c-0.1,0.6-0.4,0.9-1,0.9c-0.7,0-1.1-0.7-1.1-1.6h2.8
		C130.2,172.2,129.7,171.1,128.5,171.1 M125.1,174.9c-0.2,0.1-0.6,0.2-0.8,0.2c-0.4,0-0.6-0.2-0.6-0.6v-2.7h1.4v-0.5h-1.4v-1.5h-0.6
		v1.5h-1.1v0.5h1.1v2.7c0,0.7,0.4,1.2,1.2,1.2c0.3,0,0.7-0.1,0.9-0.2L125.1,174.9z M118.8,175.2c-0.5,0-0.8-0.3-0.8-0.7
		c0-0.7,0.8-1,1.7-1h0.4v0.3C120,174.6,119.5,175.2,118.8,175.2 M119.2,171.1c-0.8,0-1.4,0.5-1.5,1.4h0.6c0-0.5,0.5-0.8,0.9-0.8
		c0.5,0,0.8,0.3,0.8,1v0.3h-0.3c-1.3,0-2.3,0.4-2.3,1.5c0,0.8,0.6,1.3,1.4,1.3c0.5,0,1-0.3,1.3-0.8l0,0.7h0.6l0-3
		C120.6,171.6,120,171.1,119.2,171.1 M114.7,171.1c-0.5,0-0.9,0.2-1.1,0.7v-0.6H113v4.5h0.6v-2.4c0-0.9,0.4-1.6,1-1.6
		c0.4,0,0.7,0.3,0.7,0.9h0.6C115.9,171.6,115.4,171.1,114.7,171.1 M109.5,171.6c0.6,0,1,0.6,1,1.4h-2.1
		C108.5,172.2,108.8,171.6,109.5,171.6 M109.5,171.1c-0.7,0-1.3,0.5-1.5,1.2c-0.1,0.4-0.2,0.7-0.2,1.2c0,0.8,0.2,1.6,0.8,2
		c0.3,0.2,0.6,0.3,1,0.3c0.8,0,1.4-0.6,1.6-1.5h-0.6c-0.1,0.6-0.4,0.9-1,0.9c-0.7,0-1.1-0.7-1.1-1.6h2.8
		C111.1,172.2,110.6,171.1,109.5,171.1 M104.9,171.1c-0.5,0-1,0.3-1.3,0.7l0-0.6h-0.6v4.5h0.6v-2.4c0-1,0.4-1.6,1.2-1.6
		c0.5,0,0.8,0.4,0.8,1v3h0.6v-3C106.2,171.7,105.8,171.1,104.9,171.1 M99.9,171.6c0.6,0,1,0.6,1,1.4h-2.1
		C98.9,172.2,99.3,171.6,99.9,171.6 M99.9,171.1c-0.7,0-1.3,0.5-1.5,1.2c-0.1,0.4-0.2,0.7-0.2,1.2c0,0.8,0.2,1.6,0.8,2
		c0.3,0.2,0.6,0.3,1,0.3c0.8,0,1.4-0.6,1.6-1.5h-0.6c-0.1,0.6-0.4,0.9-1,0.9c-0.7,0-1.1-0.7-1.1-1.6h2.8
		C101.6,172.2,101.1,171.1,99.9,171.1 M95,175.2c-0.7,0-1.1-0.8-1.1-1.8c0-1,0.3-1.8,1.1-1.8c0.7,0,1,0.7,1,1.8
		C96,174.5,95.7,175.2,95,175.2 M96,171.2v0.6c-0.2-0.4-0.6-0.7-1.1-0.7c-1,0-1.6,1-1.6,2.3c0,1.3,0.6,2.3,1.6,2.3
		c0.5,0,0.9-0.3,1.1-0.7v0.7c0,0.8-0.3,1.1-1,1.1c-0.4,0-0.9-0.2-0.9-0.7h-0.6c0,0.5,0.4,0.9,0.8,1.1c0.2,0.1,0.4,0.1,0.7,0.1
		c1,0,1.5-0.6,1.5-1.7v-2.3l0-2.2H96z M87.1,172.3c-0.1-0.8-0.7-1.2-1.5-1.2c-0.8,0-1.4,0.5-1.4,1.2c0,0.5,0.3,0.8,0.9,1.1l1,0.5
		c0.3,0.2,0.5,0.3,0.5,0.7c0,0.4-0.4,0.7-0.9,0.7c-0.5,0-0.9-0.3-1.1-0.8H84c0.2,0.9,0.9,1.4,1.7,1.4c0.5,0,1-0.2,1.3-0.6
		c0.1-0.2,0.2-0.4,0.2-0.6c0-0.6-0.3-0.9-0.8-1.2l-1-0.5c-0.4-0.2-0.6-0.3-0.6-0.6c0-0.4,0.4-0.6,0.9-0.6c0.4,0,0.8,0.2,0.9,0.7
		H87.1z M81.1,171.1c-0.5,0-1,0.3-1.3,0.7l0-0.6h-0.6v4.5h0.6v-2.4c0-1,0.4-1.6,1.2-1.6c0.5,0,0.8,0.4,0.8,1v3h0.6v-3
		C82.4,171.7,81.9,171.1,81.1,171.1 M76,175.2c0.8,0,1-0.8,1-1.8c0-1-0.3-1.8-1-1.8c-0.8,0-1,0.8-1,1.8
		C75,174.4,75.3,175.2,76,175.2 M76,171.1c0.7,0,1.2,0.5,1.5,1.2c0.1,0.4,0.2,0.7,0.2,1.1c0,1.3-0.5,2.3-1.6,2.3
		c-1.1,0-1.6-1-1.6-2.3C74.4,172.1,74.9,171.1,76,171.1 M72.8,175.1h-1.2v-3.9H70v0.6h1v3.4h-1.2v0.6h3V175.1z M71.2,170.5
		c0.3,0,0.5-0.2,0.5-0.5c0-0.2-0.2-0.4-0.5-0.4c-0.3,0-0.4,0.2-0.4,0.4C70.8,170.3,71,170.5,71.2,170.5 M68,172.3
		c-0.1-0.8-0.7-1.2-1.5-1.2c-0.8,0-1.4,0.5-1.4,1.2c0,0.5,0.3,0.8,0.9,1.1l1,0.5c0.3,0.2,0.5,0.3,0.5,0.7c0,0.4-0.4,0.7-0.9,0.7
		c-0.5,0-0.9-0.3-1.1-0.8h-0.6c0.2,0.9,0.9,1.4,1.7,1.4c0.5,0,1-0.2,1.3-0.6c0.1-0.2,0.2-0.4,0.2-0.6c0-0.6-0.3-0.9-0.8-1.2l-1-0.5
		c-0.4-0.2-0.6-0.3-0.6-0.6c0-0.4,0.4-0.6,0.9-0.6c0.4,0,0.8,0.2,0.9,0.7H68z M63.3,172.3c-0.1-0.8-0.7-1.2-1.5-1.2
		c-0.8,0-1.4,0.5-1.4,1.2c0,0.5,0.3,0.8,0.9,1.1l1,0.5c0.3,0.2,0.5,0.3,0.5,0.7c0,0.4-0.4,0.7-0.9,0.7c-0.5,0-0.9-0.3-1.1-0.8h-0.6
		c0.2,0.9,0.9,1.4,1.7,1.4c0.5,0,1-0.2,1.3-0.6c0.1-0.2,0.2-0.4,0.2-0.6c0-0.6-0.3-0.9-0.8-1.2l-1-0.5c-0.4-0.2-0.6-0.3-0.6-0.6
		c0-0.4,0.4-0.6,0.9-0.6c0.4,0,0.8,0.2,0.9,0.7H63.3z M58.5,175.1h-1.2v-3.9h-1.6v0.6h1v3.4h-1.2v0.6h3V175.1z M56.9,170.5
		c0.3,0,0.5-0.2,0.5-0.5c0-0.2-0.2-0.4-0.5-0.4c-0.3,0-0.4,0.2-0.4,0.4C56.5,170.3,56.7,170.5,56.9,170.5 M53.2,171.1
		c-0.4,0-0.7,0.3-0.8,0.7c-0.1-0.4-0.3-0.7-0.7-0.7c-0.3,0-0.6,0.2-0.8,0.7l0-0.6h-0.5l0,4.5h0.6V173c0-0.7,0.2-1.3,0.6-1.3
		c0.2,0,0.3,0.1,0.3,0.2c0,0.1,0.1,0.4,0.1,0.7v3.1h0.6V173c0-0.8,0.1-1.3,0.6-1.3c0.3,0,0.4,0.3,0.4,0.8v3.3H54v-3.3
		C54,171.6,53.8,171.1,53.2,171.1 M47.5,171.6c0.6,0,1,0.6,1,1.4h-2.1C46.4,172.2,46.8,171.6,47.5,171.6 M47.5,171.1
		c-0.7,0-1.3,0.5-1.5,1.2c-0.1,0.4-0.2,0.7-0.2,1.2c0,0.8,0.2,1.6,0.8,2c0.3,0.2,0.6,0.3,1,0.3c0.8,0,1.4-0.6,1.6-1.5h-0.6
		c-0.1,0.6-0.5,0.9-1,0.9c-0.7,0-1.1-0.7-1.1-1.6h2.8C49.1,172.2,48.6,171.1,47.5,171.1 M37.9,171.6c0.6,0,1,0.6,1,1.4h-2.1
		C36.9,172.2,37.3,171.6,37.9,171.6 M37.9,171.1c-0.7,0-1.3,0.5-1.5,1.2c-0.1,0.4-0.2,0.7-0.2,1.2c0,0.8,0.2,1.6,0.8,2
		c0.3,0.2,0.6,0.3,1,0.3c0.8,0,1.4-0.6,1.6-1.5h-0.6c-0.1,0.6-0.5,0.9-1,0.9c-0.7,0-1.1-0.7-1.1-1.6h2.8
		C39.6,172.2,39.1,171.1,37.9,171.1 M33.3,171.1c-0.5,0-1,0.3-1.3,0.7l0-0.6v-1.8h-0.6v6.3H32v-2.4c0-1,0.4-1.6,1.2-1.6
		c0.5,0,0.8,0.4,0.8,1v3h0.6v-3C34.6,171.7,34.2,171.1,33.3,171.1 M30.1,169.9v-0.6h-3.6v0.6H28v5.7h0.6v-5.7H30.1z"/>
	
		<path style="clip-path:url(#SVGID_00000016769213382688737970000009220944944930973061_);fill:none;stroke:#0B0B0A;stroke-width:0.15;" d="
		M145.9,171.2l1.5,4.5l-0.5,1.6h0.6l2-6.1h-0.6l-1.1,3.7l-1.2-3.7H145.9z M142.8,175.2c-0.7,0-1-0.7-1-1.8c0-1.1,0.4-1.8,1-1.8
		c0.7,0,1.1,0.8,1.1,1.8C143.8,174.4,143.5,175.2,142.8,175.2z M142.8,171.1c-0.4,0-0.8,0.3-1.1,0.7v-2.4h-0.6v6.3h0.6l0-0.6
		c0.2,0.4,0.6,0.7,1.1,0.7c1,0,1.6-1,1.6-2.3C144.4,172.1,143.9,171.1,142.8,171.1z M133.3,175.2c-0.7,0-1.1-0.8-1.1-1.8
		c0-1,0.3-1.8,1.1-1.8c0.7,0,1,0.7,1,1.8C134.3,174.5,134,175.2,133.3,175.2z M134.3,171.8c-0.2-0.4-0.6-0.7-1.1-0.7
		c-1,0-1.6,1-1.6,2.3c0,1.3,0.6,2.3,1.6,2.3c0.5,0,0.9-0.3,1.1-0.7l0,0.6h0.6v-6.3h-0.6V171.8z M128.5,171.6c0.6,0,1,0.6,1,1.4h-2.1
		C127.5,172.2,127.9,171.6,128.5,171.6z M128.5,171.1c-0.7,0-1.3,0.5-1.5,1.2c-0.1,0.4-0.2,0.7-0.2,1.2c0,0.8,0.2,1.6,0.8,2
		c0.3,0.2,0.6,0.3,1,0.3c0.8,0,1.4-0.6,1.6-1.5h-0.6c-0.1,0.6-0.4,0.9-1,0.9c-0.7,0-1.1-0.7-1.1-1.6h2.8
		C130.2,172.2,129.7,171.1,128.5,171.1z M125.1,174.9c-0.2,0.1-0.6,0.2-0.8,0.2c-0.4,0-0.6-0.2-0.6-0.6v-2.7h1.4v-0.5h-1.4v-1.5
		h-0.6v1.5h-1.1v0.5h1.1v2.7c0,0.7,0.4,1.2,1.2,1.2c0.3,0,0.7-0.1,0.9-0.2L125.1,174.9z M118.8,175.2c-0.5,0-0.8-0.3-0.8-0.7
		c0-0.7,0.8-1,1.7-1h0.4v0.3C120,174.6,119.5,175.2,118.8,175.2z M119.2,171.1c-0.8,0-1.4,0.5-1.5,1.4h0.6c0-0.5,0.5-0.8,0.9-0.8
		c0.5,0,0.8,0.3,0.8,1v0.3h-0.3c-1.3,0-2.3,0.4-2.3,1.5c0,0.8,0.6,1.3,1.4,1.3c0.5,0,1-0.3,1.3-0.8l0,0.7h0.6l0-3
		C120.6,171.6,120,171.1,119.2,171.1z M114.7,171.1c-0.5,0-0.9,0.2-1.1,0.7v-0.6H113v4.5h0.6v-2.4c0-0.9,0.4-1.6,1-1.6
		c0.4,0,0.7,0.3,0.7,0.9h0.6C115.9,171.6,115.4,171.1,114.7,171.1z M109.5,171.6c0.6,0,1,0.6,1,1.4h-2.1
		C108.5,172.2,108.8,171.6,109.5,171.6z M109.5,171.1c-0.7,0-1.3,0.5-1.5,1.2c-0.1,0.4-0.2,0.7-0.2,1.2c0,0.8,0.2,1.6,0.8,2
		c0.3,0.2,0.6,0.3,1,0.3c0.8,0,1.4-0.6,1.6-1.5h-0.6c-0.1,0.6-0.4,0.9-1,0.9c-0.7,0-1.1-0.7-1.1-1.6h2.8
		C111.1,172.2,110.6,171.1,109.5,171.1z M104.9,171.1c-0.5,0-1,0.3-1.3,0.7l0-0.6h-0.6v4.5h0.6v-2.4c0-1,0.4-1.6,1.2-1.6
		c0.5,0,0.8,0.4,0.8,1v3h0.6v-3C106.2,171.7,105.8,171.1,104.9,171.1z M99.9,171.6c0.6,0,1,0.6,1,1.4h-2.1
		C98.9,172.2,99.3,171.6,99.9,171.6z M99.9,171.1c-0.7,0-1.3,0.5-1.5,1.2c-0.1,0.4-0.2,0.7-0.2,1.2c0,0.8,0.2,1.6,0.8,2
		c0.3,0.2,0.6,0.3,1,0.3c0.8,0,1.4-0.6,1.6-1.5h-0.6c-0.1,0.6-0.4,0.9-1,0.9c-0.7,0-1.1-0.7-1.1-1.6h2.8
		C101.6,172.2,101.1,171.1,99.9,171.1z M95,175.2c-0.7,0-1.1-0.8-1.1-1.8c0-1,0.3-1.8,1.1-1.8c0.7,0,1,0.7,1,1.8
		C96,174.5,95.7,175.2,95,175.2z M96,171.2v0.6c-0.2-0.4-0.6-0.7-1.1-0.7c-1,0-1.6,1-1.6,2.3c0,1.3,0.6,2.3,1.6,2.3
		c0.5,0,0.9-0.3,1.1-0.7v0.7c0,0.8-0.3,1.1-1,1.1c-0.4,0-0.9-0.2-0.9-0.7h-0.6c0,0.5,0.4,0.9,0.8,1.1c0.2,0.1,0.4,0.1,0.7,0.1
		c1,0,1.5-0.6,1.5-1.7v-2.3l0-2.2H96z M87.1,172.3c-0.1-0.8-0.7-1.2-1.5-1.2c-0.8,0-1.4,0.5-1.4,1.2c0,0.5,0.3,0.8,0.9,1.1l1,0.5
		c0.3,0.2,0.5,0.3,0.5,0.7c0,0.4-0.4,0.7-0.9,0.7c-0.5,0-0.9-0.3-1.1-0.8H84c0.2,0.9,0.9,1.4,1.7,1.4c0.5,0,1-0.2,1.3-0.6
		c0.1-0.2,0.2-0.4,0.2-0.6c0-0.6-0.3-0.9-0.8-1.2l-1-0.5c-0.4-0.2-0.6-0.3-0.6-0.6c0-0.4,0.4-0.6,0.9-0.6c0.4,0,0.8,0.2,0.9,0.7
		H87.1z M81.1,171.1c-0.5,0-1,0.3-1.3,0.7l0-0.6h-0.6v4.5h0.6v-2.4c0-1,0.4-1.6,1.2-1.6c0.5,0,0.8,0.4,0.8,1v3h0.6v-3
		C82.4,171.7,81.9,171.1,81.1,171.1z M76,175.2c0.8,0,1-0.8,1-1.8c0-1-0.3-1.8-1-1.8c-0.8,0-1,0.8-1,1.8
		C75,174.4,75.3,175.2,76,175.2z M76,171.1c0.7,0,1.2,0.5,1.5,1.2c0.1,0.4,0.2,0.7,0.2,1.1c0,1.3-0.5,2.3-1.6,2.3
		c-1.1,0-1.6-1-1.6-2.3C74.4,172.1,74.9,171.1,76,171.1z M72.8,175.1h-1.2v-3.9H70v0.6h1v3.4h-1.2v0.6h3V175.1z M71.2,170.5
		c0.3,0,0.5-0.2,0.5-0.5c0-0.2-0.2-0.4-0.5-0.4c-0.3,0-0.4,0.2-0.4,0.4C70.8,170.3,71,170.5,71.2,170.5z M68,172.3
		c-0.1-0.8-0.7-1.2-1.5-1.2c-0.8,0-1.4,0.5-1.4,1.2c0,0.5,0.3,0.8,0.9,1.1l1,0.5c0.3,0.2,0.5,0.3,0.5,0.7c0,0.4-0.4,0.7-0.9,0.7
		c-0.5,0-0.9-0.3-1.1-0.8h-0.6c0.2,0.9,0.9,1.4,1.7,1.4c0.5,0,1-0.2,1.3-0.6c0.1-0.2,0.2-0.4,0.2-0.6c0-0.6-0.3-0.9-0.8-1.2l-1-0.5
		c-0.4-0.2-0.6-0.3-0.6-0.6c0-0.4,0.4-0.6,0.9-0.6c0.4,0,0.8,0.2,0.9,0.7H68z M63.3,172.3c-0.1-0.8-0.7-1.2-1.5-1.2
		c-0.8,0-1.4,0.5-1.4,1.2c0,0.5,0.3,0.8,0.9,1.1l1,0.5c0.3,0.2,0.5,0.3,0.5,0.7c0,0.4-0.4,0.7-0.9,0.7c-0.5,0-0.9-0.3-1.1-0.8h-0.6
		c0.2,0.9,0.9,1.4,1.7,1.4c0.5,0,1-0.2,1.3-0.6c0.1-0.2,0.2-0.4,0.2-0.6c0-0.6-0.3-0.9-0.8-1.2l-1-0.5c-0.4-0.2-0.6-0.3-0.6-0.6
		c0-0.4,0.4-0.6,0.9-0.6c0.4,0,0.8,0.2,0.9,0.7H63.3z M58.5,175.1h-1.2v-3.9h-1.6v0.6h1v3.4h-1.2v0.6h3V175.1z M56.9,170.5
		c0.3,0,0.5-0.2,0.5-0.5c0-0.2-0.2-0.4-0.5-0.4c-0.3,0-0.4,0.2-0.4,0.4C56.5,170.3,56.7,170.5,56.9,170.5z M53.2,171.1
		c-0.4,0-0.7,0.3-0.8,0.7c-0.1-0.4-0.3-0.7-0.7-0.7c-0.3,0-0.6,0.2-0.8,0.7l0-0.6h-0.5l0,4.5h0.6V173c0-0.7,0.2-1.3,0.6-1.3
		c0.2,0,0.3,0.1,0.3,0.2c0,0.1,0.1,0.4,0.1,0.7v3.1h0.6V173c0-0.8,0.1-1.3,0.6-1.3c0.3,0,0.4,0.3,0.4,0.8v3.3H54v-3.3
		C54,171.6,53.8,171.1,53.2,171.1z M47.5,171.6c0.6,0,1,0.6,1,1.4h-2.1C46.4,172.2,46.8,171.6,47.5,171.6z M47.5,171.1
		c-0.7,0-1.3,0.5-1.5,1.2c-0.1,0.4-0.2,0.7-0.2,1.2c0,0.8,0.2,1.6,0.8,2c0.3,0.2,0.6,0.3,1,0.3c0.8,0,1.4-0.6,1.6-1.5h-0.6
		c-0.1,0.6-0.5,0.9-1,0.9c-0.7,0-1.1-0.7-1.1-1.6h2.8C49.1,172.2,48.6,171.1,47.5,171.1z M37.9,171.6c0.6,0,1,0.6,1,1.4h-2.1
		C36.9,172.2,37.3,171.6,37.9,171.6z M37.9,171.1c-0.7,0-1.3,0.5-1.5,1.2c-0.1,0.4-0.2,0.7-0.2,1.2c0,0.8,0.2,1.6,0.8,2
		c0.3,0.2,0.6,0.3,1,0.3c0.8,0,1.4-0.6,1.6-1.5h-0.6c-0.1,0.6-0.5,0.9-1,0.9c-0.7,0-1.1-0.7-1.1-1.6h2.8
		C39.6,172.2,39.1,171.1,37.9,171.1z M33.3,171.1c-0.5,0-1,0.3-1.3,0.7l0-0.6v-1.8h-0.6v6.3H32v-2.4c0-1,0.4-1.6,1.2-1.6
		c0.5,0,0.8,0.4,0.8,1v3h0.6v-3C34.6,171.7,34.2,171.1,33.3,171.1z M30.1,169.9v-0.6h-3.6v0.6H28v5.7h0.6v-5.7H30.1z"/>
</g>
</svg>
