<?xml version="1.0" encoding="UTF-8"?><svg id="a" xmlns="http://www.w3.org/2000/svg" xmlns:xlink="http://www.w3.org/1999/xlink" viewBox="0 0 178.5 225"><defs><clipPath id="b"><rect x="1.24" y="1.06" width="176.07" height="223.22" style="fill:none;"/></clipPath><clipPath id="c"><rect x="1.24" y="1.06" width="176.07" height="223.22" style="fill:none;"/></clipPath><clipPath id="d"><rect x="1.24" y="1.06" width="176.07" height="223.22" style="fill:none;"/></clipPath><clipPath id="e"><rect x="1.24" y="1.06" width="176.07" height="223.22" style="fill:none;"/></clipPath><clipPath id="f"><rect x="1.24" y="1.06" width="176.07" height="223.22" style="fill:none;"/></clipPath><clipPath id="g"><rect x="1.24" y="1.06" width="176.07" height="223.22" style="fill:none;"/></clipPath></defs><path d="m8.22,157.87h4.57v-.56h-4.57v.56Zm9.82,0h4.57v-.56h-4.57v.56Zm9.82,0h4.57v-.56h-4.57v.56Zm9.82,0h4.56v-.56h-4.56v.56Zm9.82,0h4.56v-.56h-4.56v.56Zm9.82,0h4.56v-.56h-4.56v.56Zm9.82,0h4.57v-.56h-4.57v.56Zm9.82,0h4.57v-.56h-4.57v.56Zm9.82,0h4.57v-.56h-4.57v.56Zm9.82,0h4.57v-.56h-4.57v.56Zm9.82,0h4.57v-.56h-4.57v.56Zm9.82,0h4.57v-.56h-4.57v.56Zm9.82,0h4.57v-.56h-4.57v.56Zm9.82,0h4.57v-.56h-4.57v.56Zm9.82,0h4.57v-.56h-4.57v.56Zm9.82,0h4.57v-.56h-4.57v.56Zm9.82,0h4.57v-.56h-4.57v.56Z" style="fill:#0d0d0b;"/><path d="m169.87,157.31h-4.57v.56h4.57v-.56Zm-9.82,0h-4.57v.56h4.57v-.56Zm-9.82,0h-4.57v.56h4.57v-.56Zm-9.82,0h-4.57v.56h4.57v-.56Zm-9.82,0h-4.57v.56h4.57v-.56Zm-9.82,0h-4.57v.56h4.57v-.56Zm-9.82,0h-4.57v.56h4.57v-.56Zm-9.82,0h-4.57v.56h4.57v-.56Zm-9.82,0h-4.57v.56h4.57v-.56Zm-9.82,0h-4.57v.56h4.57v-.56Zm-9.82,0h-4.57v.56h4.57v-.56Zm-9.82,0h-4.56v.56h4.56v-.56Zm-9.82,0h-4.56v.56h4.56v-.56Zm-9.82,0h-4.56v.56h4.56v-.56Zm-9.82,0h-4.57v.56h4.57v-.56Zm-9.82,0h-4.57v.56h4.57v-.56Zm-9.82,0h-4.57v.56h4.57v-.56Z" style="fill:none; stroke:#0d0d0b; stroke-width:.15px;"/><path d="m10.73,224.15h4.44v-.56h-4.44v.56Zm9.54,0h4.44v-.56h-4.44v.56Zm9.54,0h4.44v-.56h-4.44v.56Zm9.54,0h4.44v-.56h-4.44v.56Zm9.54,0h4.44v-.56h-4.44v.56Zm9.54,0h4.44v-.56h-4.44v.56Zm9.54,0h4.44v-.56h-4.44v.56Zm9.54,0h4.44v-.56h-4.44v.56Zm9.54,0h4.44v-.56h-4.44v.56Zm9.54,0h4.44v-.56h-4.44v.56Zm9.54,0h4.44v-.56h-4.44v.56Zm9.54,0h4.44v-.56h-4.44v.56Zm9.54,0h4.44v-.56h-4.44v.56Zm9.54,0h4.44v-.56h-4.44v.56Zm9.54,0h4.44v-.56h-4.44v.56Zm9.54,0h4.44v-.56h-4.44v.56Zm9.54,0h4.44v-.56h-4.44v.56Z" style="fill:#0d0d0b;"/><g style="clip-path:url(#b); fill:none;"><path d="m167.81,223.59h-4.44v.56h4.44v-.56Zm-9.54,0h-4.44v.56h4.44v-.56Zm-9.54,0h-4.44v.56h4.44v-.56Zm-9.54,0h-4.44v.56h4.44v-.56Zm-9.54,0h-4.44v.56h4.44v-.56Zm-9.54,0h-4.44v.56h4.44v-.56Zm-9.54,0h-4.44v.56h4.44v-.56Zm-9.54,0h-4.44v.56h4.44v-.56Zm-9.54,0h-4.44v.56h4.44v-.56Zm-9.54,0h-4.44v.56h4.44v-.56Zm-9.54,0h-4.44v.56h4.44v-.56Zm-9.54,0h-4.44v.56h4.44v-.56Zm-9.54,0h-4.44v.56h4.44v-.56Zm-9.54,0h-4.44v.56h4.44v-.56Zm-9.54,0h-4.44v.56h4.44v-.56Zm-9.54,0h-4.44v.56h4.44v-.56Zm-9.54,0h-4.44v.56h4.44v-.56Z" style="fill:none; stroke:#0d0d0b; stroke-width:.15px;"/></g><path d="m11.32,2.95h4.43v-.56h-4.43v.56Zm9.54,0h4.43v-.56h-4.43v.56Zm9.54,0h4.44v-.56h-4.44v.56Zm9.54,0h4.44v-.56h-4.44v.56Zm9.54,0h4.44v-.56h-4.44v.56Zm9.54,0h4.44v-.56h-4.44v.56Zm9.54,0h4.44v-.56h-4.44v.56Zm9.54,0h4.44v-.56h-4.44v.56Zm9.54,0h4.44v-.56h-4.44v.56Zm9.54,0h4.44v-.56h-4.44v.56Zm9.54,0h4.44v-.56h-4.44v.56Zm9.54,0h4.44v-.56h-4.44v.56Zm9.54,0h4.44v-.56h-4.44v.56Zm9.54,0h4.44v-.56h-4.44v.56Zm9.54,0h4.44v-.56h-4.44v.56Zm9.54,0h4.44v-.56h-4.44v.56Zm9.54,0h4.44v-.56h-4.44v.56Z" style="fill:#0d0d0b;"/><path d="m168.4,2.39h-4.44v.56h4.44v-.56Zm-9.54,0h-4.44v.56h4.44v-.56Zm-9.54,0h-4.44v.56h4.44v-.56Zm-9.54,0h-4.44v.56h4.44v-.56Zm-9.54,0h-4.44v.56h4.44v-.56Zm-9.54,0h-4.44v.56h4.44v-.56Zm-9.54,0h-4.44v.56h4.44v-.56Zm-9.54,0h-4.44v.56h4.44v-.56Zm-9.54,0h-4.44v.56h4.44v-.56Zm-9.54,0h-4.44v.56h4.44v-.56Zm-9.54,0h-4.44v.56h4.44v-.56Zm-9.54,0h-4.44v.56h4.44v-.56Zm-9.54,0h-4.44v.56h4.44v-.56Zm-9.54,0h-4.44v.56h4.44v-.56Zm-9.54,0h-4.44v.56h4.44v-.56Zm-9.54,0h-4.44v.56h4.44v-.56Zm-9.54,0h-4.44v.56h4.44v-.56Z" style="fill:none; stroke:#0d0d0b; stroke-width:.15px;"/><polygon points="2.61 221.07 2.77 222.43 1.54 221.88 1.33 222.51 2.68 222.74 1.74 223.74 2.26 224.14 2.95 222.96 3.63 224.15 4.16 223.74 3.22 222.77 4.57 222.54 4.37 221.89 3.12 222.43 3.28 221.07 2.61 221.07" style="fill:#0d0d0b;"/><g style="clip-path:url(#c); fill:none;"><polygon points="4.57 222.54 4.37 221.89 3.12 222.43 3.28 221.07 2.61 221.07 2.78 222.43 1.54 221.88 1.34 222.51 2.69 222.74 1.74 223.74 2.26 224.14 2.96 222.96 3.63 224.15 4.16 223.74 3.22 222.77 4.57 222.54" style="fill:none; stroke:#0d0d0b; stroke-width:.15px;"/></g><polygon points="2.61 1.14 2.77 2.49 1.54 1.94 1.33 2.57 2.68 2.81 1.74 3.81 2.26 4.2 2.95 3.02 3.63 4.21 4.16 3.81 3.22 2.84 4.57 2.6 4.37 1.95 3.12 2.49 3.28 1.14 2.61 1.14" style="fill:#0d0d0b;"/><g style="clip-path:url(#d); fill:none;"><polygon points="4.57 2.6 4.37 1.95 3.12 2.49 3.28 1.14 2.61 1.14 2.78 2.49 1.54 1.94 1.34 2.57 2.69 2.81 1.74 3.81 2.26 4.2 2.96 3.02 3.63 4.21 4.16 3.81 3.22 2.84 4.57 2.6" style="fill:none; stroke:#0d0d0b; stroke-width:.15px;"/></g><polygon points="175.25 221.1 175.41 222.45 174.18 221.91 173.98 222.54 175.32 222.77 174.38 223.77 174.9 224.16 175.59 222.98 176.27 224.17 176.8 223.77 175.86 222.8 177.21 222.56 177.01 221.91 175.76 222.45 175.92 221.1 175.25 221.1" style="fill:#0d0d0b;"/><g style="clip-path:url(#e); fill:none;"><polygon points="177.21 222.56 177.01 221.91 175.76 222.45 175.92 221.1 175.25 221.1 175.42 222.45 174.18 221.9 173.98 222.53 175.33 222.77 174.38 223.77 174.9 224.16 175.6 222.98 176.27 224.17 176.8 223.77 175.86 222.8 177.21 222.56" style="fill:none; stroke:#0d0d0b; stroke-width:.15px;"/></g><polygon points="175.25 1.17 175.41 2.53 174.18 1.98 173.98 2.61 175.32 2.85 174.38 3.84 174.9 4.24 175.59 3.06 176.27 4.25 176.8 3.84 175.86 2.87 177.21 2.64 177.01 1.99 175.76 2.53 175.92 1.17 175.25 1.17" style="fill:#0d0d0b;"/><polygon points="177.21 2.64 177.01 1.99 175.76 2.53 175.92 1.17 175.25 1.17 175.42 2.53 174.18 1.98 173.98 2.61 175.33 2.85 174.38 3.84 174.9 4.24 175.6 3.06 176.27 4.25 176.8 3.84 175.86 2.87 177.21 2.64" style="fill:none; stroke:#0d0d0b; stroke-width:.15px;"/><path d="m175.3,213.16h.56v-4.44h-.56v4.44Zm0-9.53h.56v-4.43h-.56v4.43Zm0-9.53h.56v-4.44h-.56v4.44Zm0-9.53h.56v-4.44h-.56v4.44Zm0-9.53h.56v-4.44h-.56v4.44Zm0-9.53h.56v-4.44h-.56v4.44Zm0-9.53h.56v-4.44h-.56v4.44Zm0-9.53h.56v-4.43h-.56v4.43Zm0-9.53h.56v-4.44h-.56v4.44Zm0-9.53h.56v-4.43h-.56v4.43Zm0-9.53h.56v-4.44h-.56v4.44Zm0-9.53h.56v-4.43h-.56v4.43Zm0-9.53h.56v-4.44h-.56v4.44Zm0-9.53h.56v-4.43h-.56v4.43Zm0-9.53h.56v-4.44h-.56v4.44Zm0-9.53h.56v-4.43h-.56v4.43Zm0-9.53h.56v-4.44h-.56v4.44Zm0-9.53h.56v-4.44h-.56v4.44Zm0-9.53h.56v-4.44h-.56v4.44Zm0-9.53h.56v-4.44h-.56v4.44Zm0-9.53h.56v-4.44h-.56v4.44Zm0-9.53h.56v-4.44h-.56v4.44Z" style="fill:#0d0d0b;"/><path d="m175.86,208.73h-.56v4.44h.56v-4.44Zm0-9.53h-.56v4.44h.56v-4.44Zm0-9.53h-.56v4.44h.56v-4.44Zm0-9.53h-.56v4.44h.56v-4.44Zm0-9.53h-.56v4.44h.56v-4.44Zm0-9.53h-.56v4.44h.56v-4.44Zm0-9.53h-.56v4.44h.56v-4.44Zm0-9.53h-.56v4.44h.56v-4.44Zm0-9.53h-.56v4.44h.56v-4.44Zm0-9.53h-.56v4.44h.56v-4.44Zm0-9.53h-.56v4.44h.56v-4.44Zm0-9.53h-.56v4.44h.56v-4.44Zm0-9.53h-.56v4.44h.56v-4.44Zm0-9.53h-.56v4.44h.56v-4.44Zm0-9.53h-.56v4.44h.56v-4.44Zm0-9.53h-.56v4.44h.56v-4.44Zm0-9.53h-.56v4.44h.56v-4.44Zm0-9.53h-.56v4.44h.56v-4.44Zm0-9.53h-.56v4.44h.56v-4.44Zm0-9.53h-.56v4.44h.56v-4.44Zm0-9.53h-.56v4.44h.56v-4.44Zm0-9.53h-.56v4.44h.56v-4.44Z" style="fill:none; stroke:#0d0d0b; stroke-width:.15px;"/><path d="m2.64,214.58h.56v-4.44h-.56v4.44Zm0-9.53h.56v-4.44h-.56v4.44Zm0-9.53h.56v-4.44h-.56v4.44Zm0-9.53h.56v-4.44h-.56v4.44Zm0-9.53h.56v-4.44h-.56v4.44Zm0-9.53h.56v-4.44h-.56v4.44Zm0-9.53h.56v-4.44h-.56v4.44Zm0-9.53h.56v-4.44h-.56v4.44Zm0-9.53h.56v-4.44h-.56v4.44Zm0-9.53h.56v-4.44h-.56v4.44Zm0-9.53h.56v-4.44h-.56v4.44Zm0-9.53h.56v-4.43h-.56v4.43Zm0-9.53h.56v-4.44h-.56v4.44Zm0-9.53h.56v-4.43h-.56v4.43Zm0-9.53h.56v-4.44h-.56v4.44Zm0-9.53h.56v-4.43h-.56v4.43Zm0-9.53h.56v-4.44h-.56v4.44Zm0-9.53h.56v-4.43h-.56v4.43Zm0-9.53h.56v-4.44h-.56v4.44Zm0-9.53h.56v-4.43h-.56v4.43Zm0-9.53h.56v-4.44h-.56v4.44Zm0-9.53h.56v-4.43h-.56v4.43Z" style="fill:#0d0d0b;"/><path d="m3.2,210.14h-.56v4.44h.56v-4.44Zm0-9.53h-.56v4.44h.56v-4.44Zm0-9.53h-.56v4.44h.56v-4.44Zm0-9.53h-.56v4.44h.56v-4.44Zm0-9.53h-.56v4.44h.56v-4.44Zm0-9.53h-.56v4.44h.56v-4.44Zm0-9.53h-.56v4.44h.56v-4.44Zm0-9.53h-.56v4.44h.56v-4.44Zm0-9.53h-.56v4.44h.56v-4.44Zm0-9.53h-.56v4.44h.56v-4.44Zm0-9.53h-.56v4.44h.56v-4.44Zm0-9.53h-.56v4.44h.56v-4.44Zm0-9.53h-.56v4.44h.56v-4.44Zm0-9.53h-.56v4.44h.56v-4.44Zm0-9.53h-.56v4.44h.56v-4.44Zm0-9.53h-.56v4.44h.56v-4.44Zm0-9.53h-.56v4.44h.56v-4.44Zm0-9.53h-.56v4.44h.56v-4.44Zm0-9.53h-.56v4.44h.56v-4.44Zm0-9.53h-.56v4.44h.56v-4.44Zm0-9.53h-.56v4.44h.56v-4.44Zm0-9.53h-.56v4.44h.56v-4.44Z" style="fill:none; stroke:#0d0d0b; stroke-width:.15px;"/><path d="m55.16,144.42h4.48v-.54h-4.48s0,.54,0,.54Zm9.54,0h4.48v-.54h-4.48s0,.54,0,.54Zm9.54,0h4.48v-.54h-4.48s0,.54,0,.54Zm9.54,0h4.48v-.54h-4.48s0,.54,0,.54Zm9.54,0h4.48v-.54h-4.48s0,.54,0,.54Zm9.54,0h4.48v-.54h-4.48s0,.54,0,.54Zm9.54,0h4.48v-.54h-4.48s0,.54,0,.54Z" style="fill:#0d0d0b;"/><path d="m112.4,144.42h4.48v-.54h-4.48s0,.54,0,.54Zm-9.54,0h4.48v-.54h-4.48s0,.54,0,.54Zm-9.54,0h4.48v-.54h-4.48s0,.54,0,.54Zm-9.54,0h4.48v-.54h-4.48s0,.54,0,.54Zm-9.54,0h4.48v-.54h-4.48s0,.54,0,.54Zm-9.54,0h4.48v-.54h-4.48s0,.54,0,.54Zm-9.54,0h4.48v-.54h-4.48s0,.54,0,.54Z" style="fill:none; stroke:#0d0d0b; stroke-width:.15px;"/><path d="m124.52,134.24h.59v-6.93s-.59,0-.59,0v6.93Zm-73.8,0h.59v-6.93s-.59,0-.59,0v6.93Z" style="fill:#0d0d0b;"/><path d="m124.52,134.24h.59v-6.93s-.59,0-.59,0v6.93Zm-73.8,0h.59v-6.93s-.59,0-.59,0v6.93Z" style="fill:none; stroke:#0d0d0b; stroke-width:.15px;"/><path d="m124.52,123.44h.59v-6.93s-.59,0-.59,0v6.93Zm-4.77,0h.59v-6.93s-.59,0-.59,0v6.93Zm-13.56-.63h4.48v-.54h-4.48s0,.54,0,.54Zm-9.54,0h4.48v-.54h-4.48s0,.54,0,.54Zm-9.54,0h4.48v-.54h-4.48s0,.54,0,.54Zm-9.54,0h4.48v-.54h-4.48s0,.54,0,.54Zm-9.54,0h4.48v-.54h-4.48s0,.54,0,.54Zm-9.54,0h4.48v-.54h-4.48s0,.54,0,.54Zm-2.83.63h.59v-6.93s-.59,0-.59,0v6.93Zm-4.95,0h.59v-6.93s-.59,0-.59,0v6.93Z" style="fill:#0d0d0b;"/><path d="m124.52,123.44h.59v-6.93s-.59,0-.59,0v6.93Zm-4.77,0h.59v-6.93s-.59,0-.59,0v6.93Zm-13.56-.63h4.48v-.54h-4.48s0,.54,0,.54Zm-9.54,0h4.48v-.54h-4.48s0,.54,0,.54Zm-9.54,0h4.48v-.54h-4.48s0,.54,0,.54Zm-9.54,0h4.48v-.54h-4.48s0,.54,0,.54Zm-9.54,0h4.48v-.54h-4.48s0,.54,0,.54Zm-9.54,0h4.48v-.54h-4.48s0,.54,0,.54Zm-2.83.63h.59v-6.93s-.59,0-.59,0v6.93Zm-4.95,0h.59v-6.93s-.59,0-.59,0v6.93Z" style="fill:none; stroke:#0d0d0b; stroke-width:.15px;"/><path d="m124.43,112.64h.59v-6.93s-.59,0-.59,0v6.93Zm-4.77,0h.59v-6.93s-.59,0-.59,0v6.93Zm-64.17,0h.59v-6.93s-.59,0-.59,0v6.93Zm-4.77,0h.59v-6.93s-.59,0-.59,0v6.93Z" style="fill:#0d0d0b;"/><path d="m124.43,112.64h.59v-6.93s-.59,0-.59,0v6.93Zm-4.77,0h.59v-6.93s-.59,0-.59,0v6.93Zm-64.17,0h.59v-6.93s-.59,0-.59,0v6.93Zm-4.77,0h.59v-6.93s-.59,0-.59,0v6.93Z" style="fill:none; stroke:#0d0d0b; stroke-width:.15px;"/><path d="m124.43,101.84h.59v-6.93s-.59,0-.59,0v6.93Zm-4.77,0h.59v-6.93s-.59,0-.59,0v6.93Zm-64.17,0h.59v-6.93s-.59,0-.59,0v6.93Zm-4.77,0h.59v-6.93s-.59,0-.59,0v6.93Z" style="fill:#0d0d0b;"/><path d="m124.43,101.84h.59v-6.93s-.59,0-.59,0v6.93Zm-4.77,0h.59v-6.93s-.59,0-.59,0v6.93Zm-64.17,0h.59v-6.93s-.59,0-.59,0v6.93Zm-4.77,0h.59v-6.93s-.59,0-.59,0v6.93Z" style="fill:none; stroke:#0d0d0b; stroke-width:.15px;"/><path d="m124.43,91.04h.59v-6.93s-.59,0-.59,0v6.93Zm-4.77,0h.59v-6.93s-.59,0-.59,0v6.93Zm-64.17,0h.59v-6.93s-.59,0-.59,0v6.93Zm-4.77,0h.59v-6.93s-.59,0-.59,0v6.93Z" style="fill:#0d0d0b;"/><path d="m124.43,91.04h.59v-6.93s-.59,0-.59,0v6.93Zm-4.77,0h.59v-6.93s-.59,0-.59,0v6.93Zm-64.17,0h.59v-6.93s-.59,0-.59,0v6.93Zm-4.77,0h.59v-6.93s-.59,0-.59,0v6.93Z" style="fill:none; stroke:#0d0d0b; stroke-width:.15px;"/><path d="m124.43,80.24h.59v-6.93s-.59,0-.59,0v6.93Zm-4.77,0h.59v-6.93s-.59,0-.59,0v6.93Zm-64.17,0h.59v-6.93s-.59,0-.59,0v6.93Zm-4.77,0h.59v-6.93s-.59,0-.59,0v6.93Z" style="fill:#0d0d0b;"/><path d="m124.43,80.24h.59v-6.93s-.59,0-.59,0v6.93Zm-4.77,0h.59v-6.93s-.59,0-.59,0v6.93Zm-64.17,0h.59v-6.93s-.59,0-.59,0v6.93Zm-4.77,0h.59v-6.93s-.59,0-.59,0v6.93Z" style="fill:none; stroke:#0d0d0b; stroke-width:.15px;"/><path d="m124.52,69.44h.59v-6.93s-.59,0-.59,0v6.93Zm-4.77,0h.59v-6.93s-.59,0-.59,0v6.93Zm-64.26,0h.59v-6.93s-.59,0-.59,0v6.93Zm-4.77,0h.59v-6.93s-.59,0-.59,0v6.93Z" style="fill:#0d0d0b;"/><path d="m124.52,69.44h.59v-6.93s-.59,0-.59,0v6.93Zm-4.77,0h.59v-6.93s-.59,0-.59,0v6.93Zm-64.26,0h.59v-6.93s-.59,0-.59,0v6.93Zm-4.77,0h.59v-6.93s-.59,0-.59,0v6.93Z" style="fill:none; stroke:#0d0d0b; stroke-width:.15px;"/><path d="m124.52,58.64h.59v-6.93s-.59,0-.59,0v6.93Zm-4.77,0h.59v-6.93s-.59,0-.59,0v6.93Zm-64.26,0h.59v-6.93s-.59,0-.59,0v6.93Zm-4.77,0h.59v-6.93s-.59,0-.59,0v6.93Z" style="fill:#0d0d0b;"/><path d="m124.52,58.64h.59v-6.93s-.59,0-.59,0v6.93Zm-4.77,0h.59v-6.93s-.59,0-.59,0v6.93Zm-64.26,0h.59v-6.93s-.59,0-.59,0v6.93Zm-4.77,0h.59v-6.93s-.59,0-.59,0v6.93Z" style="fill:none; stroke:#0d0d0b; stroke-width:.15px;"/><path d="m124.52,47.84h.59v-6.93s-.59,0-.59,0v6.93Zm-4.77,0h.59v-6.93s-.59,0-.59,0v6.93Zm-64.26,0h.59v-6.93s-.59,0-.59,0v6.93Zm-4.77,0h.59v-6.93s-.59,0-.59,0v6.93Z" style="fill:#0d0d0b;"/><path d="m124.52,47.84h.59v-6.93s-.59,0-.59,0v6.93Zm-4.77,0h.59v-6.93s-.59,0-.59,0v6.93Zm-64.26,0h.59v-6.93s-.59,0-.59,0v6.93Zm-4.77,0h.59v-6.93s-.59,0-.59,0v6.93Z" style="fill:none; stroke:#0d0d0b; stroke-width:.15px;"/><path d="m124.52,37.04h.59v-6.93s-.59,0-.59,0v6.93Zm-11.31-.63h4.48v-.54h-4.48s0,.54,0,.54Zm-9.36,0h4.48v-.54h-4.48s0,.54,0,.54Zm-9.36,0h4.48v-.54h-4.48s0,.54,0,.54Zm-9.36,0h4.48v-.54h-4.48s0,.54,0,.54Zm-9.36,0h4.48v-.54h-4.48s0,.54,0,.54Zm-9.36,0h4.48v-.54h-4.48s0,.54,0,.54Zm-9.36,0h4.48v-.54h-4.48s0,.54,0,.54Zm-6.33.63h.59v-6.93s-.59,0-.59,0v6.93Z" style="fill:#0d0d0b;"/><path d="m124.52,37.04h.59v-6.93s-.59,0-.59,0v6.93Zm-11.31-.63h4.48v-.54h-4.48s0,.54,0,.54Zm-9.36,0h4.48v-.54h-4.48s0,.54,0,.54Zm-9.36,0h4.48v-.54h-4.48s0,.54,0,.54Zm-9.36,0h4.48v-.54h-4.48s0,.54,0,.54Zm-9.36,0h4.48v-.54h-4.48s0,.54,0,.54Zm-9.36,0h4.48v-.54h-4.48s0,.54,0,.54Zm-9.36,0h4.48v-.54h-4.48s0,.54,0,.54Zm-6.33.63h.59v-6.93s-.59,0-.59,0v6.93Z" style="fill:none; stroke:#0d0d0b; stroke-width:.15px;"/><path d="m57.05,25.62h4.48v-.54h-4.48s0,.54,0,.54Zm9.54,0h4.48v-.54h-4.48s0,.54,0,.54Zm9.54,0h4.48v-.54h-4.48s0,.54,0,.54Zm9.54,0h4.48v-.54h-4.48s0,.54,0,.54Zm9.54,0h4.48v-.54h-4.48s0,.54,0,.54Zm9.54,0h4.48v-.54h-4.48s0,.54,0,.54Zm9.54,0h4.48v-.54h-4.48s0,.54,0,.54Z" style="fill:#0d0d0b;"/><path d="m114.29,25.62h4.48v-.54h-4.48s0,.54,0,.54Zm-9.54,0h4.48v-.54h-4.48s0,.54,0,.54Zm-9.54,0h4.48v-.54h-4.48s0,.54,0,.54Zm-9.54,0h4.48v-.54h-4.48s0,.54,0,.54Zm-9.54,0h4.48v-.54h-4.48s0,.54,0,.54Zm-9.54,0h4.48v-.54h-4.48s0,.54,0,.54Zm-9.54,0h4.48v-.54h-4.48s0,.54,0,.54Z" style="fill:none; stroke:#0d0d0b; stroke-width:.15px;"/><g style="clip-path:url(#f); fill:none;"><path d="m92.02,135.74c.66-.98.99-2.11.99-3.38s-.33-2.39-.99-3.37h.56c.68.93,1.02,2.05,1.02,3.37s-.34,2.42-1.02,3.38h-.56Zm-3.88-.92c.76,0,1.03-.78,1.03-1.78s-.27-1.78-1.03-1.78-1.04.81-1.04,1.78.28,1.78,1.04,1.78m0-4.12c.75,0,1.23.49,1.46,1.2.11.35.16.74.16,1.14,0,1.32-.51,2.34-1.62,2.34s-1.62-1.02-1.62-2.34.53-2.34,1.62-2.34m-4.45,5.04c-.68-.96-1.02-2.1-1.02-3.38s.34-2.44,1.02-3.37h.56c-.66.98-.99,2.04-.99,3.37s.33,2.4.99,3.38h-.56Z" style="fill:#0d0d0b;"/><path d="m92.02,135.74c.66-.98.99-2.11.99-3.38s-.33-2.39-.99-3.37h.56c.68.93,1.02,2.05,1.02,3.37s-.34,2.42-1.02,3.38h-.56Zm-3.88-.92c.76,0,1.03-.78,1.03-1.78s-.27-1.78-1.03-1.78-1.04.81-1.04,1.78.28,1.78,1.04,1.78Zm0-4.12c.75,0,1.23.49,1.46,1.2.11.35.16.74.16,1.14,0,1.32-.51,2.34-1.62,2.34s-1.62-1.02-1.62-2.34.53-2.34,1.62-2.34Zm-4.45,5.04c-.68-.96-1.02-2.1-1.02-3.38s.34-2.44,1.02-3.37h.56c-.66.98-.99,2.04-.99,3.37s.33,2.4.99,3.38h-.56Z" style="fill:none; stroke:#0d0d0b; stroke-width:.15px;"/></g><path d="m65.77,82.17h4.48v-.54h-4.48s0,.54,0,.54Zm7.74,0h4.48v-.54h-4.48s0,.54,0,.54Zm7.74,0h4.48v-.54h-4.48s0,.54,0,.54Zm7.74,0h4.48v-.54h-4.48s0,.54,0,.54Zm7.74,0h4.48v-.54h-4.48s0,.54,0,.54Zm7.74,0h4.48v-.54h-4.48s0,.54,0,.54Z" style="fill:#0d0d0b;"/><path d="m104.47,82.17h4.48v-.54h-4.48s0,.54,0,.54Zm-7.74,0h4.48v-.54h-4.48s0,.54,0,.54Zm-7.74,0h4.48v-.54h-4.48s0,.54,0,.54Zm-7.74,0h4.48v-.54h-4.48s0,.54,0,.54Zm-7.74,0h4.48v-.54h-4.48s0,.54,0,.54Zm-7.74,0h4.48v-.54h-4.48s0,.54,0,.54Z" style="fill:none; stroke:#0d0d0b; stroke-width:.15px;"/><path d="m65.77,71.37h4.48v-.54h-4.48s0,.54,0,.54Zm7.74,0h4.48v-.54h-4.48s0,.54,0,.54Zm7.74,0h4.48v-.54h-4.48s0,.54,0,.54Zm7.74,0h4.48v-.54h-4.48s0,.54,0,.54Zm7.74,0h4.48v-.54h-4.48s0,.54,0,.54Zm7.74,0h4.48v-.54h-4.48s0,.54,0,.54Z" style="fill:#0d0d0b;"/><path d="m104.47,71.37h4.48v-.54h-4.48s0,.54,0,.54Zm-7.74,0h4.48v-.54h-4.48s0,.54,0,.54Zm-7.74,0h4.48v-.54h-4.48s0,.54,0,.54Zm-7.74,0h4.48v-.54h-4.48s0,.54,0,.54Zm-7.74,0h4.48v-.54h-4.48s0,.54,0,.54Zm-7.74,0h4.48v-.54h-4.48s0,.54,0,.54Z" style="fill:none; stroke:#0d0d0b; stroke-width:.15px;"/><path d="m111.66,73.82v5.63h-1v.56h1.58v-6.75h-1.6v.56h1.01Zm-12.44,5.76h-.62l1.86-6.31h.61l-1.85,6.31Zm-7.74,0h-.62l1.86-6.31h.61l-1.85,6.31Zm-7.74,0h-.62l1.86-6.31h.61l-1.85,6.31Zm-7.74,0h-.62l1.86-6.31h.61l-1.85,6.31Zm-7.74,0h-.62l1.86-6.31h.61l-1.85,6.31Zm-2.47-.12h-1v-5.63h1v-.56s-1.59,0-1.59,0v6.75h1.58v-.56Z" style="fill:#0d0d0b;"/><path d="m111.66,73.82v5.63h-1v.56h1.58v-6.75h-1.6v.56h1.01Zm-12.44,5.76h-.62l1.86-6.31h.61l-1.85,6.31Zm-7.74,0h-.62l1.86-6.31h.61l-1.85,6.31Zm-7.74,0h-.62l1.86-6.31h.61l-1.85,6.31Zm-7.74,0h-.62l1.86-6.31h.61l-1.85,6.31Zm-7.74,0h-.62l1.86-6.31h.61l-1.85,6.31Zm-2.47-.12h-1v-5.63h1v-.56s-1.59,0-1.59,0v6.75h1.58v-.56Z" style="fill:none; stroke:#0d0d0b; stroke-width:.15px;"/><rect x="122.68" y="25.53" width=".54" height="3.02" transform="translate(14.64 91.21) rotate(-43.05)" style="fill:#0d0d0b;"/><rect x="122.68" y="25.53" width=".54" height="3.02" transform="translate(14.64 91.21) rotate(-43.05)" style="fill:none; stroke:#0d0d0b; stroke-width:.15px;"/><polygon points="124.7 137.71 122.46 141.59 121.99 141.32 124.22 137.43 124.7 137.71" style="fill:#0d0d0b;"/><polygon points="124.7 137.71 122.46 141.59 121.99 141.32 124.22 137.43 124.7 137.71" style="fill:none; stroke:#0d0d0b; stroke-width:.15px;"/><rect x="51.62" y="26.06" width="3.02" height=".54" transform="translate(-2.38 47.19) rotate(-46.95)" style="fill:#0d0d0b;"/><rect x="51.62" y="26.06" width="3.02" height=".54" transform="translate(-2.38 47.19) rotate(-46.95)" style="fill:none; stroke:#0d0d0b; stroke-width:.15px;"/><polygon points="50.64 137.61 52.88 141.49 53.35 141.22 51.11 137.34 50.64 137.61" style="fill:#0d0d0b;"/><polygon points="50.64 137.61 52.88 141.49 53.35 141.22 51.11 137.34 50.64 137.61" style="fill:none; stroke:#0d0d0b; stroke-width:.15px;"/><g style="clip-path:url(#g); fill:none;"><path d="m129.69,207.41c-.14-.8-.74-1.25-1.49-1.25s-1.43.47-1.43,1.16c0,.46.29.83.85,1.11l1.04.52c.33.17.52.32.52.68,0,.4-.42.66-.94.66s-.94-.26-1.1-.83h-.59c.17.85.86,1.38,1.69,1.38.53,0,1.03-.21,1.31-.57.13-.18.21-.39.21-.63,0-.58-.31-.93-.82-1.18l-1.04-.52c-.4-.19-.57-.34-.57-.62,0-.37.4-.6.86-.6.44,0,.78.22.9.69h.59Zm-6.26-.69c.62,0,.96.58,1.03,1.38h-2.13c.1-.79.46-1.38,1.11-1.38m0-.56c-.75,0-1.27.48-1.52,1.19-.12.35-.19.74-.19,1.15,0,.83.24,1.59.75,2.02.26.22.58.32.95.32.83,0,1.42-.59,1.56-1.48h-.59c-.13.62-.45.93-.96.93-.72,0-1.09-.74-1.12-1.63h2.76c.03-1.38-.49-2.49-1.64-2.49m-4.53,0c-.54,0-1.01.26-1.27.74v-.65s-.59,0-.59,0v4.5h.58v-2.45c0-.97.41-1.58,1.2-1.58.55,0,.78.39.78,1.01v3.02h.58v-3.02c0-.93-.46-1.57-1.3-1.57m-5.04,4.12c.76,0,1.03-.78,1.03-1.78s-.27-1.78-1.03-1.78-1.04.81-1.04,1.78.28,1.78,1.04,1.78m0-4.12c.75,0,1.23.49,1.46,1.2.11.35.16.74.16,1.14,0,1.32-.51,2.34-1.62,2.34s-1.62-1.02-1.62-2.34.53-2.34,1.62-2.34m-4.56,0c-.54,0-1.02.26-1.27.74v-.65s0-1.8,0-1.8h-.59v6.3h.58v-2.45c0-.97.41-1.58,1.2-1.58.55,0,.78.39.78,1.01v3.02h.58v-3.02c0-.93-.46-1.57-1.3-1.57m-5.03,4.11c-.66,0-1.02-.66-1.02-1.77s.36-1.78,1.02-1.78c.75,0,1.08.77,1.08,1.78s-.33,1.77-1.08,1.77m.07-4.11c-.47,0-.86.29-1.07.72v-.63h-.57v6.3h.58v-2.4c.21.42.61.68,1.05.68,1.04,0,1.59-1,1.59-2.33s-.56-2.34-1.59-2.34m-3.38,3.82c-.22.12-.58.22-.78.22-.42,0-.62-.17-.62-.65v-2.75h1.35v-.54h-1.35v-1.5h-.57v1.5h-1.08v.54h1.08v2.75c0,.75.42,1.2,1.15,1.2.25,0,.68-.08.95-.22l-.12-.56Zm-5.65-3.82c-.46,0-.88.23-1.13.73v-.64h-.58v4.5h.58v-2.45c0-.9.4-1.58,1.03-1.58.44,0,.67.29.71.86h.58c-.05-.89-.5-1.42-1.19-1.42m-5.49,4.13c-.5,0-.83-.27-.83-.74,0-.68.8-.96,1.7-.96h.36v.25c0,.82-.48,1.45-1.23,1.45m.41-4.13c-.76,0-1.41.49-1.51,1.35h.59c.04-.51.45-.79.92-.79.51,0,.81.33.81,1.03v.31h-.31c-1.31,0-2.33.44-2.33,1.51,0,.78.59,1.28,1.38,1.28.48,0,1.05-.28,1.25-.75l.02.66h.57v-3c0-1.01-.52-1.58-1.39-1.58m-3.98,0c-.36,0-.66.25-.85.73-.07-.44-.29-.73-.69-.73-.33,0-.64.23-.79.7l-.04-.6h-.49l-.02,4.5h.57v-2.7c0-.69.16-1.34.63-1.34.17,0,.28.07.33.21.04.14.07.38.07.7v3.13h.57v-2.7c0-.79.09-1.34.58-1.34.33,0,.39.26.39.77v3.28h.57v-3.3c0-.75-.24-1.3-.85-1.3m-4.25,1.26c-.14-.8-.74-1.25-1.49-1.25s-1.43.47-1.43,1.16c0,.46.29.83.85,1.11l1.04.52c.32.17.52.32.52.68,0,.4-.42.66-.94.66s-.94-.26-1.1-.83h-.59c.17.85.86,1.38,1.69,1.38.53,0,1.03-.21,1.31-.57.13-.18.21-.39.21-.63,0-.58-.31-.93-.82-1.18l-1.05-.52c-.4-.19-.57-.34-.57-.62,0-.37.4-.6.86-.6.44,0,.78.22.9.69h.59Zm-10.79-1.25c-.54,0-1.01.26-1.27.74v-.65s-.59,0-.59,0v4.5h.58v-2.45c0-.97.41-1.58,1.2-1.58.55,0,.78.39.78,1.01v3.02h.58v-3.02c0-.93-.46-1.57-1.3-1.57m-5.01.56c.62,0,.96.58,1.03,1.38h-2.13c.1-.79.46-1.38,1.11-1.38m0-.56c-.75,0-1.27.48-1.52,1.19-.13.35-.19.74-.19,1.15,0,.83.24,1.59.76,2.02.26.22.58.32.95.32.83,0,1.42-.59,1.56-1.48h-.59c-.14.62-.45.93-.96.93-.72,0-1.09-.74-1.12-1.63h2.76c.03-1.38-.49-2.49-1.64-2.49m-6.47.09l1.33,4.5h.67l1.33-4.5h-.6l-1.06,3.78-1.06-3.78h-.6Zm-3.07.47c.62,0,.96.58,1.03,1.38h-2.13c.1-.79.46-1.38,1.11-1.38m0-.56c-.75,0-1.27.48-1.52,1.19-.13.35-.19.74-.19,1.15,0,.83.24,1.59.76,2.02.26.22.58.32.95.32.83,0,1.42-.59,1.56-1.48h-.59c-.13.62-.45.93-.96.93-.72,0-1.09-.74-1.12-1.63h2.76c.03-1.38-.49-2.49-1.64-2.49m-3.28,1.25c-.14-.8-.74-1.25-1.49-1.25s-1.43.47-1.43,1.16c0,.46.29.83.85,1.11l1.05.52c.32.17.52.32.52.68,0,.4-.42.66-.94.66s-.94-.26-1.1-.83h-.59c.17.85.86,1.38,1.69,1.38.53,0,1.03-.21,1.31-.57.14-.18.21-.39.21-.63,0-.58-.31-.93-.82-1.18l-1.04-.52c-.41-.19-.57-.34-.57-.62,0-.37.4-.6.86-.6.44,0,.78.22.9.69h.59Z" style="fill:#0d0d0b;"/><path d="m129.69,207.41c-.14-.8-.74-1.25-1.49-1.25s-1.43.47-1.43,1.16c0,.46.29.83.85,1.11l1.04.52c.33.17.52.32.52.68,0,.4-.42.66-.94.66s-.94-.26-1.1-.83h-.59c.17.85.86,1.38,1.69,1.38.53,0,1.03-.21,1.31-.57.13-.18.21-.39.21-.63,0-.58-.31-.93-.82-1.18l-1.04-.52c-.4-.19-.57-.34-.57-.62,0-.37.4-.6.86-.6.44,0,.78.22.9.69h.59Zm-6.26-.69c.62,0,.96.58,1.03,1.38h-2.13c.1-.79.46-1.38,1.11-1.38Zm0-.56c-.75,0-1.27.48-1.52,1.19-.12.35-.19.74-.19,1.15,0,.83.24,1.59.75,2.02.26.22.58.32.95.32.83,0,1.42-.59,1.56-1.48h-.59c-.13.62-.45.93-.96.93-.72,0-1.09-.74-1.12-1.63h2.76c.03-1.38-.49-2.49-1.64-2.49Zm-4.53,0c-.54,0-1.01.26-1.27.74v-.65s-.59,0-.59,0v4.5h.58v-2.45c0-.97.41-1.58,1.2-1.58.55,0,.78.39.78,1.01v3.02h.58v-3.02c0-.93-.46-1.57-1.3-1.57Zm-5.04,4.12c.76,0,1.03-.78,1.03-1.78s-.27-1.78-1.03-1.78-1.04.81-1.04,1.78.28,1.78,1.04,1.78Zm0-4.12c.75,0,1.23.49,1.46,1.2.11.35.16.74.16,1.14,0,1.32-.51,2.34-1.62,2.34s-1.62-1.02-1.62-2.34.53-2.34,1.62-2.34Zm-4.56,0c-.54,0-1.02.26-1.27.74v-.65s0-1.8,0-1.8h-.59v6.3h.58v-2.45c0-.97.41-1.58,1.2-1.58.55,0,.78.39.78,1.01v3.02h.58v-3.02c0-.93-.46-1.57-1.3-1.57Zm-5.03,4.11c-.66,0-1.02-.66-1.02-1.77s.36-1.78,1.02-1.78c.75,0,1.08.77,1.08,1.78s-.33,1.77-1.08,1.77Zm.07-4.11c-.47,0-.86.29-1.07.72v-.63h-.57v6.3h.58v-2.4c.21.42.61.68,1.05.68,1.04,0,1.59-1,1.59-2.33s-.56-2.34-1.59-2.34Zm-3.38,3.82c-.22.12-.58.22-.78.22-.42,0-.62-.17-.62-.65v-2.75h1.35v-.54h-1.35v-1.5h-.57v1.5h-1.08v.54h1.08v2.75c0,.75.42,1.2,1.15,1.2.25,0,.68-.08.95-.22l-.12-.56Zm-5.65-3.82c-.46,0-.88.23-1.13.73v-.64h-.58v4.5h.58v-2.45c0-.9.4-1.58,1.03-1.58.44,0,.67.29.71.86h.58c-.05-.89-.5-1.42-1.19-1.42Zm-5.49,4.13c-.5,0-.83-.27-.83-.74,0-.68.8-.96,1.7-.96h.36v.25c0,.82-.48,1.45-1.23,1.45Zm.41-4.13c-.76,0-1.41.49-1.51,1.35h.59c.04-.51.45-.79.92-.79.51,0,.81.33.81,1.03v.31h-.31c-1.31,0-2.33.44-2.33,1.51,0,.78.59,1.28,1.38,1.28.48,0,1.05-.28,1.25-.75l.02.66h.57v-3c0-1.01-.52-1.58-1.39-1.58Zm-3.98,0c-.36,0-.66.25-.85.73-.07-.44-.29-.73-.69-.73-.33,0-.64.23-.79.7l-.04-.6h-.49l-.02,4.5h.57v-2.7c0-.69.16-1.34.63-1.34.17,0,.28.07.33.21.04.14.07.38.07.7v3.13h.57v-2.7c0-.79.09-1.34.58-1.34.33,0,.39.26.39.77v3.28h.57v-3.3c0-.75-.24-1.3-.85-1.3Zm-4.25,1.26c-.14-.8-.74-1.25-1.49-1.25s-1.43.47-1.43,1.16c0,.46.29.83.85,1.11l1.04.52c.32.17.52.32.52.68,0,.4-.42.66-.94.66s-.94-.26-1.1-.83h-.59c.17.85.86,1.38,1.69,1.38.53,0,1.03-.21,1.31-.57.13-.18.21-.39.21-.63,0-.58-.31-.93-.82-1.18l-1.05-.52c-.4-.19-.57-.34-.57-.62,0-.37.4-.6.86-.6.44,0,.78.22.9.69h.59Zm-10.79-1.25c-.54,0-1.01.26-1.27.74v-.65s-.59,0-.59,0v4.5h.58v-2.45c0-.97.41-1.58,1.2-1.58.55,0,.78.39.78,1.01v3.02h.58v-3.02c0-.93-.46-1.57-1.3-1.57Zm-5.01.56c.62,0,.96.58,1.03,1.38h-2.13c.1-.79.46-1.38,1.11-1.38Zm0-.56c-.75,0-1.27.48-1.52,1.19-.13.35-.19.74-.19,1.15,0,.83.24,1.59.76,2.02.26.22.58.32.95.32.83,0,1.42-.59,1.56-1.48h-.59c-.14.62-.45.93-.96.93-.72,0-1.09-.74-1.12-1.63h2.76c.03-1.38-.49-2.49-1.64-2.49Zm-6.47.09l1.33,4.5h.67l1.33-4.5h-.6l-1.06,3.78-1.06-3.78h-.6Zm-3.07.47c.62,0,.96.58,1.03,1.38h-2.13c.1-.79.46-1.38,1.11-1.38Zm0-.56c-.75,0-1.27.48-1.52,1.19-.13.35-.19.74-.19,1.15,0,.83.24,1.59.76,2.02.26.22.58.32.95.32.83,0,1.42-.59,1.56-1.48h-.59c-.13.62-.45.93-.96.93-.72,0-1.09-.74-1.12-1.63h2.76c.03-1.38-.49-2.49-1.64-2.49Zm-3.28,1.25c-.14-.8-.74-1.25-1.49-1.25s-1.43.47-1.43,1.16c0,.46.29.83.85,1.11l1.05.52c.32.17.52.32.52.68,0,.4-.42.66-.94.66s-.94-.26-1.1-.83h-.59c.17.85.86,1.38,1.69,1.38.53,0,1.03-.21,1.31-.57.14-.18.21-.39.21-.63,0-.58-.31-.93-.82-1.18l-1.04-.52c-.41-.19-.57-.34-.57-.62,0-.37.4-.6.86-.6.44,0,.78.22.9.69h.59Z" style="fill:none; stroke:#0d0d0b; stroke-width:.15px;"/><path d="m151.91,199.48c-.75,0-1.08-.77-1.08-1.78s.33-1.77,1.08-1.77c.66,0,1.02.66,1.02,1.77s-.36,1.78-1.02,1.78m.98-4.03v.6c-.21-.42-.61-.68-1.05-.68-1.03,0-1.59,1-1.59,2.33s.56,2.34,1.59,2.34c.46,0,.86-.28,1.06-.71v.68c0,.76-.3,1.14-.96,1.14-.44,0-.86-.23-.94-.71h-.58c.04.53.39.93.85,1.12.22.1.45.14.68.14.98,0,1.54-.65,1.54-1.69v-4.56h-.59Zm-5.37-.09c-.54,0-1.01.26-1.27.74v-.65s-.59,0-.59,0v4.5h.58v-2.45c0-.97.41-1.58,1.2-1.58.55,0,.78.39.78,1.01v3.02h.58v-3.02c0-.93-.46-1.57-1.3-1.57m-3.56,4.02h-1.19v-3.94h-1.57v.56h.98v3.39h-1.21v.56h2.98v-.56Zm-1.55-4.63c.25,0,.45-.21.45-.46s-.2-.45-.45-.45-.45.21-.45.45.2.46.45.46m-4.82,4.73c-.75,0-1.08-.77-1.08-1.78s.33-1.77,1.08-1.77c.66,0,1.02.66,1.02,1.77s-.36,1.78-1.02,1.78m.98-4.03v.6c-.21-.42-.61-.68-1.05-.68-1.04,0-1.59,1-1.59,2.33s.56,2.34,1.59,2.34c.46,0,.86-.28,1.06-.71v.68c0,.76-.3,1.14-.96,1.14-.44,0-.86-.23-.95-.71h-.58c.04.53.4.93.85,1.12.23.1.45.14.68.14.98,0,1.54-.65,1.54-1.69v-4.56h-.59Zm-5.13-.09c-.46,0-.88.23-1.13.73v-.64h-.58v4.5h.57v-2.45c0-.9.4-1.58,1.04-1.58.44,0,.67.29.71.86h.58c-.05-.89-.5-1.42-1.19-1.42m-5.49,4.13c-.5,0-.83-.27-.83-.74,0-.68.8-.96,1.7-.96h.36v.25c0,.82-.48,1.45-1.23,1.45m.41-4.13c-.76,0-1.41.49-1.51,1.35h.59c.04-.51.45-.79.92-.79.51,0,.81.33.81,1.03v.31h-.31c-1.31,0-2.33.44-2.33,1.51,0,.78.59,1.28,1.38,1.28.48,0,1.05-.28,1.25-.75l.02.66h.57v-3c0-1.01-.52-1.58-1.39-1.58m-4.78,0c-.54,0-1.02.26-1.27.74v-.65s0-1.8,0-1.8h-.59v6.3h.58v-2.45c0-.97.41-1.58,1.2-1.58.55,0,.78.39.78,1.01v3.02h.58v-3.02c0-.93-.46-1.57-1.3-1.57m-4.87,4.12c-.75,0-1.12-.79-1.12-1.77s.38-1.76,1.12-1.76c.5,0,.81.36.89.96h.59c-.11-.94-.67-1.52-1.49-1.52-.72,0-1.25.44-1.51,1.15-.13.35-.2.75-.2,1.17h0c0,.86.27,1.6.78,2.02.26.21.57.31.93.31.82,0,1.38-.58,1.49-1.52h-.59c-.08.6-.39.96-.89.96m-8.12-2.87c-.14-.8-.74-1.25-1.49-1.25s-1.43.47-1.43,1.16c0,.46.29.83.85,1.11l1.04.52c.32.17.52.32.52.67,0,.4-.42.66-.94.66s-.94-.26-1.1-.83h-.59c.17.85.86,1.39,1.69,1.39.53,0,1.03-.21,1.31-.57.14-.18.21-.39.21-.63,0-.58-.31-.93-.82-1.18l-1.04-.52c-.41-.19-.57-.34-.57-.62,0-.37.4-.6.86-.6.44,0,.78.22.9.69h.59Zm-6.5,2.88c-.5,0-.83-.27-.83-.74,0-.68.8-.96,1.7-.96h.36v.25c0,.82-.48,1.45-1.23,1.45m.42-4.13c-.77,0-1.41.49-1.51,1.35h.59c.05-.51.45-.79.92-.79.51,0,.81.33.81,1.03v.31h-.31c-1.31,0-2.33.44-2.33,1.51,0,.78.59,1.28,1.38,1.28.48,0,1.04-.28,1.25-.75l.02.66h.57v-3c0-1.01-.52-1.58-1.38-1.58m-8.35,3.82c-.22.12-.58.22-.78.22-.42,0-.62-.17-.62-.65v-2.75h1.35v-.54h-1.35v-1.5h-.57v1.5h-1.08v.54h1.08v2.75c0,.75.42,1.2,1.15,1.2.25,0,.68-.08.94-.22l-.12-.56Zm-5.89-3.82c-.54,0-1.01.26-1.27.74v-.65s-.59,0-.59,0v4.5h.58v-2.45c0-.97.41-1.58,1.2-1.58.55,0,.78.39.78,1.01v3.02h.58v-3.02c0-.93-.46-1.57-1.29-1.57m-4.06,2.54c0,.97-.41,1.58-1.2,1.58-.54,0-.78-.39-.78-1.01v-3.02h-.58v3.02c0,.93.46,1.57,1.29,1.57.54,0,1.01-.26,1.27-.74v.65s.59,0,.59,0v-4.5h-.58v2.45Zm-5.75,1.58c.76,0,1.03-.78,1.03-1.78s-.27-1.78-1.03-1.78-1.04.81-1.04,1.78.28,1.78,1.04,1.78m0-4.12c.75,0,1.23.49,1.46,1.2.11.35.16.74.16,1.14,0,1.32-.51,2.34-1.62,2.34s-1.62-1.02-1.62-2.34.53-2.34,1.62-2.34m-3.76,0c-.36,0-.66.25-.85.73-.07-.44-.29-.73-.69-.73-.33,0-.64.23-.79.7l-.04-.6h-.49l-.02,4.5h.57v-2.7c0-.69.16-1.34.63-1.34.17,0,.28.07.33.21.04.14.07.38.07.7v3.13h.57v-2.7c0-.79.09-1.34.59-1.34.33,0,.39.26.39.77v3.28h.57v-3.3c0-.75-.24-1.3-.85-1.3m-5.98,4.14c-.5,0-.83-.27-.83-.74,0-.68.8-.96,1.7-.96h.36v.25c0,.82-.48,1.45-1.23,1.45m.42-4.13c-.77,0-1.41.49-1.51,1.35h.59c.04-.51.45-.79.92-.79.51,0,.81.33.81,1.03v.31h-.31c-1.31,0-2.33.44-2.33,1.51,0,.78.59,1.28,1.38,1.28.48,0,1.05-.28,1.25-.75l.02.66h.57v-3c0-1.01-.52-1.58-1.38-1.58m-9.72.56c.62,0,.96.58,1.03,1.38h-2.13c.1-.79.46-1.38,1.11-1.38m0-.56c-.75,0-1.27.48-1.52,1.19-.13.35-.19.74-.19,1.15,0,.83.24,1.59.76,2.02.26.22.58.32.95.32.83,0,1.42-.59,1.56-1.49h-.59c-.13.62-.45.93-.96.93-.72,0-1.09-.74-1.13-1.63h2.76c.03-1.38-.49-2.49-1.64-2.49m-3.8,0c-.36,0-.66.25-.85.73-.07-.44-.29-.73-.69-.73-.33,0-.64.23-.79.7l-.04-.6h-.49l-.02,4.5h.57v-2.7c0-.69.16-1.34.63-1.34.17,0,.28.07.33.21.04.14.07.38.07.7v3.13h.58v-2.7c0-.79.09-1.34.59-1.34.33,0,.39.26.39.77v3.28h.57v-3.3c0-.75-.24-1.3-.84-1.3m-5.98,4.14c-.49,0-.83-.27-.83-.74,0-.68.8-.96,1.7-.96h.36v.25c0,.82-.48,1.45-1.23,1.45m.42-4.13c-.77,0-1.41.49-1.51,1.35h.59c.05-.51.45-.79.92-.79.51,0,.81.33.81,1.03v.31h-.31c-1.31,0-2.33.44-2.33,1.51,0,.78.59,1.28,1.38,1.28.48,0,1.04-.28,1.25-.75l.02.66h.57v-3c0-1.01-.52-1.58-1.38-1.58m-3.46,1.25c-.14-.8-.74-1.25-1.49-1.25s-1.43.47-1.43,1.16c0,.46.29.83.85,1.11l1.04.52c.32.17.52.32.52.67,0,.4-.42.66-.94.66s-.95-.26-1.1-.83h-.59c.17.85.86,1.39,1.69,1.39.53,0,1.03-.21,1.3-.57.14-.18.21-.39.21-.63,0-.58-.31-.93-.82-1.18l-1.04-.52c-.4-.19-.57-.34-.57-.62,0-.37.4-.6.86-.6.44,0,.78.22.9.69h.59Zm-11.03-.69c.62,0,.96.58,1.03,1.38h-2.13c.1-.79.46-1.38,1.11-1.38m0-.56c-.75,0-1.27.48-1.52,1.19-.13.35-.19.74-.19,1.15,0,.83.24,1.59.75,2.02.26.22.58.32.96.32.83,0,1.42-.59,1.56-1.49h-.59c-.14.62-.45.93-.96.93-.72,0-1.09-.74-1.13-1.63h2.76c.03-1.38-.49-2.49-1.64-2.49m-4.6,0c-.54,0-1.02.26-1.27.74v-.65s0-1.8,0-1.8h-.59v6.3h.58v-2.45c0-.97.41-1.58,1.2-1.58.55,0,.78.39.78,1.01v3.02h.58v-3.02c0-.93-.46-1.57-1.29-1.57m-3.57,3.82c-.23.12-.58.22-.78.22-.42,0-.62-.17-.62-.65v-2.75h1.35v-.54h-1.35v-1.5h-.57v1.5h-1.08v.54h1.08v2.75c0,.75.42,1.2,1.15,1.2.25,0,.68-.08.94-.22l-.12-.56Z" style="fill:#0d0d0b;"/><path d="m151.91,199.48c-.75,0-1.08-.77-1.08-1.78s.33-1.77,1.08-1.77c.66,0,1.02.66,1.02,1.77s-.36,1.78-1.02,1.78Zm.98-4.03v.6c-.21-.42-.61-.68-1.05-.68-1.03,0-1.59,1-1.59,2.33s.56,2.34,1.59,2.34c.46,0,.86-.28,1.06-.71v.68c0,.76-.3,1.14-.96,1.14-.44,0-.86-.23-.94-.71h-.58c.04.53.39.93.85,1.12.22.1.45.14.68.14.98,0,1.54-.65,1.54-1.69v-4.56h-.59Zm-5.37-.09c-.54,0-1.01.26-1.27.74v-.65s-.59,0-.59,0v4.5h.58v-2.45c0-.97.41-1.58,1.2-1.58.55,0,.78.39.78,1.01v3.02h.58v-3.02c0-.93-.46-1.57-1.3-1.57Zm-3.56,4.02h-1.19v-3.94h-1.57v.56h.98v3.39h-1.21v.56h2.98v-.56Zm-1.55-4.63c.25,0,.45-.21.45-.46s-.2-.45-.45-.45-.45.21-.45.45.2.46.45.46Zm-4.82,4.73c-.75,0-1.08-.77-1.08-1.78s.33-1.77,1.08-1.77c.66,0,1.02.66,1.02,1.77s-.36,1.78-1.02,1.78Zm.98-4.03v.6c-.21-.42-.61-.68-1.05-.68-1.04,0-1.59,1-1.59,2.33s.56,2.34,1.59,2.34c.46,0,.86-.28,1.06-.71v.68c0,.76-.3,1.14-.96,1.14-.44,0-.86-.23-.95-.71h-.58c.04.53.4.93.85,1.12.23.1.45.14.68.14.98,0,1.54-.65,1.54-1.69v-4.56h-.59Zm-5.13-.09c-.46,0-.88.23-1.13.73v-.64h-.58v4.5h.57v-2.45c0-.9.4-1.58,1.04-1.58.44,0,.67.29.71.86h.58c-.05-.89-.5-1.42-1.19-1.42Zm-5.49,4.13c-.5,0-.83-.27-.83-.74,0-.68.8-.96,1.7-.96h.36v.25c0,.82-.48,1.45-1.23,1.45Zm.41-4.13c-.76,0-1.41.49-1.51,1.35h.59c.04-.51.45-.79.92-.79.51,0,.81.33.81,1.03v.31h-.31c-1.31,0-2.33.44-2.33,1.51,0,.78.59,1.28,1.38,1.28.48,0,1.05-.28,1.25-.75l.02.66h.57v-3c0-1.01-.52-1.58-1.39-1.58Zm-4.78,0c-.54,0-1.02.26-1.27.74v-.65s0-1.8,0-1.8h-.59v6.3h.58v-2.45c0-.97.41-1.58,1.2-1.58.55,0,.78.39.78,1.01v3.02h.58v-3.02c0-.93-.46-1.57-1.3-1.57Zm-4.87,4.12c-.75,0-1.12-.79-1.12-1.77s.38-1.76,1.12-1.76c.5,0,.81.36.89.96h.59c-.11-.94-.67-1.52-1.49-1.52-.72,0-1.25.44-1.51,1.15-.13.35-.2.75-.2,1.17h0c0,.86.27,1.6.78,2.02.26.21.57.31.93.31.82,0,1.38-.58,1.49-1.52h-.59c-.08.6-.39.96-.89.96Zm-8.12-2.87c-.14-.8-.74-1.25-1.49-1.25s-1.43.47-1.43,1.16c0,.46.29.83.85,1.11l1.04.52c.32.17.52.32.52.67,0,.4-.42.66-.94.66s-.94-.26-1.1-.83h-.59c.17.85.86,1.39,1.69,1.39.53,0,1.03-.21,1.31-.57.14-.18.21-.39.21-.63,0-.58-.31-.93-.82-1.18l-1.04-.52c-.41-.19-.57-.34-.57-.62,0-.37.4-.6.86-.6.44,0,.78.22.9.69h.59Zm-6.5,2.88c-.5,0-.83-.27-.83-.74,0-.68.8-.96,1.7-.96h.36v.25c0,.82-.48,1.45-1.23,1.45Zm.42-4.13c-.77,0-1.41.49-1.51,1.35h.59c.05-.51.45-.79.92-.79.51,0,.81.33.81,1.03v.31h-.31c-1.31,0-2.33.44-2.33,1.51,0,.78.59,1.28,1.38,1.28.48,0,1.04-.28,1.25-.75l.02.66h.57v-3c0-1.01-.52-1.58-1.38-1.58Zm-8.35,3.82c-.22.12-.58.22-.78.22-.42,0-.62-.17-.62-.65v-2.75h1.35v-.54h-1.35v-1.5h-.57v1.5h-1.08v.54h1.08v2.75c0,.75.42,1.2,1.15,1.2.25,0,.68-.08.94-.22l-.12-.56Zm-5.89-3.82c-.54,0-1.01.26-1.27.74v-.65s-.59,0-.59,0v4.5h.58v-2.45c0-.97.41-1.58,1.2-1.58.55,0,.78.39.78,1.01v3.02h.58v-3.02c0-.93-.46-1.57-1.29-1.57Zm-4.06,2.54c0,.97-.41,1.58-1.2,1.58-.54,0-.78-.39-.78-1.01v-3.02h-.58v3.02c0,.93.46,1.57,1.29,1.57.54,0,1.01-.26,1.27-.74v.65s.59,0,.59,0v-4.5h-.58v2.45Zm-5.75,1.58c.76,0,1.03-.78,1.03-1.78s-.27-1.78-1.03-1.78-1.04.81-1.04,1.78.28,1.78,1.04,1.78Zm0-4.12c.75,0,1.23.49,1.46,1.2.11.35.16.74.16,1.14,0,1.32-.51,2.34-1.62,2.34s-1.62-1.02-1.62-2.34.53-2.34,1.62-2.34Zm-3.76,0c-.36,0-.66.25-.85.73-.07-.44-.29-.73-.69-.73-.33,0-.64.23-.79.7l-.04-.6h-.49l-.02,4.5h.57v-2.7c0-.69.16-1.34.63-1.34.17,0,.28.07.33.21.04.14.07.38.07.7v3.13h.57v-2.7c0-.79.09-1.34.59-1.34.33,0,.39.26.39.77v3.28h.57v-3.3c0-.75-.24-1.3-.85-1.3Zm-5.98,4.14c-.5,0-.83-.27-.83-.74,0-.68.8-.96,1.7-.96h.36v.25c0,.82-.48,1.45-1.23,1.45Zm.42-4.13c-.77,0-1.41.49-1.51,1.35h.59c.04-.51.45-.79.92-.79.51,0,.81.33.81,1.03v.31h-.31c-1.31,0-2.33.44-2.33,1.51,0,.78.59,1.28,1.38,1.28.48,0,1.05-.28,1.25-.75l.02.66h.57v-3c0-1.01-.52-1.58-1.38-1.58Zm-9.72.56c.62,0,.96.58,1.03,1.38h-2.13c.1-.79.46-1.38,1.11-1.38Zm0-.56c-.75,0-1.27.48-1.52,1.19-.13.35-.19.74-.19,1.15,0,.83.24,1.59.76,2.02.26.22.58.32.95.32.83,0,1.42-.59,1.56-1.49h-.59c-.13.62-.45.93-.96.93-.72,0-1.09-.74-1.13-1.63h2.76c.03-1.38-.49-2.49-1.64-2.49Zm-3.8,0c-.36,0-.66.25-.85.73-.07-.44-.29-.73-.69-.73-.33,0-.64.23-.79.7l-.04-.6h-.49l-.02,4.5h.57v-2.7c0-.69.16-1.34.63-1.34.17,0,.28.07.33.21.04.14.07.38.07.7v3.13h.58v-2.7c0-.79.09-1.34.59-1.34.33,0,.39.26.39.77v3.28h.57v-3.3c0-.75-.24-1.3-.84-1.3Zm-5.98,4.14c-.49,0-.83-.27-.83-.74,0-.68.8-.96,1.7-.96h.36v.25c0,.82-.48,1.45-1.23,1.45Zm.42-4.13c-.77,0-1.41.49-1.51,1.35h.59c.05-.51.45-.79.92-.79.51,0,.81.33.81,1.03v.31h-.31c-1.31,0-2.33.44-2.33,1.51,0,.78.59,1.28,1.38,1.28.48,0,1.04-.28,1.25-.75l.02.66h.57v-3c0-1.01-.52-1.58-1.38-1.58Zm-3.46,1.25c-.14-.8-.74-1.25-1.49-1.25s-1.43.47-1.43,1.16c0,.46.29.83.85,1.11l1.04.52c.32.17.52.32.52.67,0,.4-.42.66-.94.66s-.95-.26-1.1-.83h-.59c.17.85.86,1.39,1.69,1.39.53,0,1.03-.21,1.3-.57.14-.18.21-.39.21-.63,0-.58-.31-.93-.82-1.18l-1.04-.52c-.4-.19-.57-.34-.57-.62,0-.37.4-.6.86-.6.44,0,.78.22.9.69h.59Zm-11.03-.69c.62,0,.96.58,1.03,1.38h-2.13c.1-.79.46-1.38,1.11-1.38Zm0-.56c-.75,0-1.27.48-1.52,1.19-.13.35-.19.74-.19,1.15,0,.83.24,1.59.75,2.02.26.22.58.32.96.32.83,0,1.42-.59,1.56-1.49h-.59c-.14.62-.45.93-.96.93-.72,0-1.09-.74-1.13-1.63h2.76c.03-1.38-.49-2.49-1.64-2.49Zm-4.6,0c-.54,0-1.02.26-1.27.74v-.65s0-1.8,0-1.8h-.59v6.3h.58v-2.45c0-.97.41-1.58,1.2-1.58.55,0,.78.39.78,1.01v3.02h.58v-3.02c0-.93-.46-1.57-1.29-1.57Zm-3.57,3.82c-.23.12-.58.22-.78.22-.42,0-.62-.17-.62-.65v-2.75h1.35v-.54h-1.35v-1.5h-.57v1.5h-1.08v.54h1.08v2.75c0,.75.42,1.2,1.15,1.2.25,0,.68-.08.94-.22l-.12-.56Z" style="fill:none; stroke:#0d0d0b; stroke-width:.15px;"/><path d="m165.34,188.38c-.23.12-.58.22-.78.22-.42,0-.62-.17-.62-.65v-2.75h1.35v-.54h-1.35v-1.5h-.57v1.5h-1.08v.54h1.08v2.75c0,.75.42,1.2,1.15,1.2.25,0,.68-.08.94-.22l-.12-.56Zm-5.89-3.82c-.54,0-1.01.26-1.27.74v-.65s-.59,0-.59,0v4.5h.58v-2.45c0-.97.41-1.58,1.2-1.58.55,0,.78.39.78,1.01v3.02h.58v-3.02c0-.93-.46-1.57-1.29-1.57m-5.01.56c.62,0,.96.58,1.03,1.38h-2.13c.1-.79.46-1.38,1.11-1.38m0-.56c-.75,0-1.27.48-1.52,1.19-.13.35-.19.74-.19,1.15,0,.83.24,1.59.76,2.02.26.22.58.32.95.32.83,0,1.42-.59,1.56-1.49h-.59c-.14.62-.45.93-.96.93-.72,0-1.09-.74-1.13-1.63h2.76c.03-1.38-.49-2.49-1.64-2.49m-3.27,4.03h-1.23v-5.75s-1.57,0-1.57,0v.56h.98v5.19h-1.25v.56h3.07v-.56Zm-6.51.1c-.49,0-.83-.27-.83-.74,0-.68.8-.96,1.7-.96h.36v.25c0,.82-.48,1.45-1.23,1.45m.41-4.13c-.77,0-1.41.49-1.51,1.35h.59c.04-.51.45-.79.92-.79.51,0,.81.33.81,1.03v.31h-.31c-1.31,0-2.33.44-2.33,1.51,0,.78.59,1.28,1.38,1.28.48,0,1.04-.28,1.25-.75l.02.66h.57v-3c0-1.01-.52-1.58-1.39-1.58m-6.65.09l1.33,4.5h.66l1.33-4.5h-.6l-1.06,3.78-1.06-3.78h-.6Zm-1.61,3.93h-1.19v-3.94h-1.57v.56h.98v3.39h-1.21v.56h2.98v-.56Zm-1.55-4.63c.25,0,.45-.21.45-.46s-.2-.45-.45-.45-.45.21-.45.45.2.46.45.46m-3.73,3.14c0,.97-.41,1.58-1.2,1.58-.54,0-.78-.39-.78-1.01v-3.02h-.58v3.02c0,.93.46,1.56,1.29,1.56.54,0,1.01-.26,1.27-.74v.65s.59,0,.59,0v-4.5h-.58v2.45Zm-5.71,1.58c-.75,0-1.08-.76-1.08-1.77s.33-1.78,1.08-1.78c.66,0,1.02.67,1.02,1.78s-.36,1.77-1.02,1.77m1-3.39c-.21-.43-.6-.72-1.07-.72-1.03,0-1.59,1.01-1.59,2.34s.56,2.33,1.59,2.33c.44,0,.85-.26,1.06-.68v2.4h.58v-6.3h-.56v.63Zm-5.78-.16c.62,0,.96.58,1.03,1.38h-2.13c.1-.79.46-1.38,1.11-1.38m0-.56c-.75,0-1.27.48-1.52,1.19-.13.35-.19.74-.19,1.15,0,.83.24,1.59.75,2.02.26.22.58.32.96.32.83,0,1.42-.59,1.56-1.49h-.59c-.14.62-.45.93-.96.93-.72,0-1.09-.74-1.13-1.63h2.76c.03-1.38-.49-2.49-1.64-2.49m-9.14,4.01c.46-.35.67-.67.67-1.04,0-.58-.45-.99-1.03-.99-.65,0-1.15.55-1.15,1.24h.45c0-.47.28-.79.7-.79.33,0,.59.22.59.54,0,.22-.15.45-.46.67l-.36.26c-.66.48-.86.78-.94,1.5h2.17v-.44h-1.63c.16-.37.42-.51.66-.7l.35-.26Zm-5.21.14c-.86,0-1.29-.89-1.29-2.68s.43-2.68,1.29-2.68,1.29.89,1.29,2.68-.43,2.68-1.29,2.68m0-5.92c-1.38,0-1.87,1.43-1.87,3.24s.49,3.24,1.87,3.24,1.87-1.43,1.87-3.24-.49-3.24-1.87-3.24m-4.63,5.9c-.98,0-1.41-1.27-1.41-2.68,0-.87.17-1.74.59-2.28.21-.27.49-.41.83-.41.68,0,1.03.51,1.13,1.31h.56c-.14-1.15-.73-1.87-1.7-1.87s-1.53.69-1.79,1.66c-.14.49-.2,1.02-.2,1.58,0,1.13.25,2.16.84,2.77.3.31.67.47,1.14.47.97,0,1.57-.71,1.71-1.87h-.57c-.11.8-.46,1.31-1.13,1.31m-8.06-5.67c-.28-.14-.72-.22-1-.22-.76,0-1.21.46-1.21,1.21v.65h-1.14v.56h1.14v3.94h.58v-3.94h1.44v-.56h-1.44v-.65c0-.48.23-.65.67-.65.23,0,.58.1.83.22l.13-.56Zm-6.38,5.67c.75,0,1.02-.78,1.02-1.78s-.27-1.78-1.02-1.78-1.04.81-1.04,1.78.28,1.78,1.04,1.78m0-4.12c.75,0,1.23.49,1.46,1.2.11.35.16.74.16,1.14,0,1.32-.51,2.34-1.62,2.34s-1.62-1.02-1.62-2.34.53-2.34,1.62-2.34m-8.01,1.25c-.14-.8-.74-1.25-1.49-1.25-.79,0-1.43.47-1.43,1.16,0,.46.29.83.85,1.11l1.05.52c.32.17.52.32.52.67,0,.4-.42.66-.94.66s-.95-.26-1.1-.83h-.59c.17.85.86,1.38,1.69,1.38.53,0,1.03-.21,1.31-.57.13-.18.21-.39.21-.63,0-.58-.31-.93-.82-1.18l-1.04-.52c-.41-.19-.57-.34-.57-.62,0-.37.4-.6.86-.6.44,0,.78.22.9.69h.59Zm-5.29-1.26c-.36,0-.66.25-.85.73-.07-.44-.29-.73-.69-.73-.33,0-.64.23-.79.7l-.04-.6h-.49l-.02,4.5h.57v-2.7c0-.69.16-1.34.63-1.34.17,0,.28.07.33.21.04.14.07.38.07.7v3.13h.58v-2.7c0-.79.09-1.34.59-1.34.33,0,.39.26.39.77v3.28h.57v-3.3c0-.75-.24-1.3-.84-1.3m-5.98,4.14c-.5,0-.83-.27-.83-.74,0-.68.8-.96,1.7-.96h.36v.25c0,.82-.48,1.45-1.23,1.45m.41-4.13c-.77,0-1.41.49-1.51,1.35h.59c.04-.51.45-.79.92-.79.51,0,.81.33.81,1.03v.31h-.31c-1.31,0-2.33.44-2.33,1.51,0,.78.59,1.28,1.38,1.28.48,0,1.04-.28,1.25-.75l.02.66h.57v-3c0-1.01-.52-1.58-1.39-1.58m-4.46,0c-.46,0-.88.23-1.14.73v-.64h-.58v4.5h.58v-2.45c0-.9.4-1.58,1.04-1.58.44,0,.67.29.71.86h.58c-.04-.89-.5-1.42-1.19-1.42m-5.39,4.12c-.75,0-1.08-.77-1.08-1.78s.33-1.77,1.08-1.77c.66,0,1.02.66,1.02,1.77s-.36,1.78-1.02,1.78m.98-4.03v.6c-.21-.42-.61-.68-1.05-.68-1.04,0-1.59,1-1.59,2.33s.56,2.34,1.59,2.34c.46,0,.85-.28,1.06-.71v.68c0,.76-.3,1.14-.95,1.14-.44,0-.87-.23-.95-.71h-.58c.05.53.4.93.85,1.12.23.1.45.14.69.14.98,0,1.54-.65,1.54-1.69v-4.56h-.59Zm-10.32.37c-.4,0-.86.18-1.18.54l.22-2.15h2.37v-.56h-2.89l-.36,3.39.53.08c.32-.51.78-.76,1.26-.76.8,0,1.27.66,1.27,1.55,0,.55-.23,1.05-.62,1.34-.21.14-.44.22-.71.22-.69,0-1.19-.48-1.3-1.08h-.59c.07.57.41,1.11.95,1.42.27.15.58.23.94.23.75,0,1.35-.41,1.67-1.07.16-.32.24-.67.24-1.06,0-.78-.31-1.45-.85-1.82-.28-.18-.59-.27-.96-.27m-4.77,0c-.4,0-.86.18-1.18.54l.23-2.15h2.37v-.56h-2.89l-.36,3.39.53.08c.32-.51.78-.76,1.26-.76.8,0,1.27.66,1.27,1.55,0,.55-.22,1.05-.62,1.34-.21.14-.44.22-.71.22-.69,0-1.19-.48-1.3-1.08h-.59c.07.57.41,1.11.95,1.42.27.15.58.23.94.23.75,0,1.35-.41,1.67-1.07.16-.32.24-.67.24-1.06,0-.78-.31-1.45-.85-1.82-.28-.18-.59-.27-.96-.27m-8.24,3.36c-.22.12-.58.22-.78.22-.42,0-.62-.17-.62-.65v-2.75h1.35v-.54h-1.35v-1.5h-.58v1.5h-1.08v.54h1.08v2.75c0,.75.42,1.2,1.15,1.2.25,0,.68-.08.94-.22l-.12-.56Zm-5.18-1.28c0,.97-.41,1.58-1.2,1.58-.54,0-.78-.39-.78-1.01v-3.02h-.58v3.02c0,.93.46,1.56,1.3,1.56.54,0,1.01-.26,1.27-.74v.65s.59,0,.59,0v-4.5h-.58v2.45Zm-5.75,1.58c.75,0,1.02-.78,1.02-1.78s-.27-1.78-1.02-1.78-1.04.81-1.04,1.78.28,1.78,1.04,1.78m0-4.12c.75,0,1.23.49,1.46,1.2.11.35.16.74.16,1.14,0,1.32-.51,2.34-1.62,2.34s-1.62-1.02-1.62-2.34.53-2.34,1.62-2.34m-4.82,4.12c-.66,0-1.02-.67-1.02-1.78s.36-1.77,1.02-1.77c.75,0,1.08.76,1.08,1.77s-.33,1.78-1.08,1.78m.07-4.11c-.44,0-.85.26-1.05.68v-2.4h-.58v6.3h.56v-.63c.22.43.61.72,1.08.72,1.03,0,1.59-1.01,1.59-2.34s-.56-2.33-1.59-2.33m-4.99,4.12c-.5,0-.83-.27-.83-.74,0-.68.8-.96,1.7-.96h.36v.25c0,.82-.48,1.45-1.23,1.45m.41-4.13c-.77,0-1.41.49-1.51,1.35h.59c.05-.51.45-.79.92-.79.51,0,.81.33.81,1.03v.31h-.31c-1.31,0-2.33.44-2.33,1.51,0,.78.59,1.28,1.38,1.28.48,0,1.04-.28,1.25-.75l.02.66h.57v-3c0-1.01-.52-1.58-1.38-1.58" style="fill:#0d0d0b;"/><path d="m165.34,188.38c-.23.12-.58.22-.78.22-.42,0-.62-.17-.62-.65v-2.75h1.35v-.54h-1.35v-1.5h-.57v1.5h-1.08v.54h1.08v2.75c0,.75.42,1.2,1.15,1.2.25,0,.68-.08.94-.22l-.12-.56Zm-5.89-3.82c-.54,0-1.01.26-1.27.74v-.65s-.59,0-.59,0v4.5h.58v-2.45c0-.97.41-1.58,1.2-1.58.55,0,.78.39.78,1.01v3.02h.58v-3.02c0-.93-.46-1.57-1.29-1.57Zm-5.01.56c.62,0,.96.58,1.03,1.38h-2.13c.1-.79.46-1.38,1.11-1.38Zm0-.56c-.75,0-1.27.48-1.52,1.19-.13.35-.19.74-.19,1.15,0,.83.24,1.59.76,2.02.26.22.58.32.95.32.83,0,1.42-.59,1.56-1.49h-.59c-.14.62-.45.93-.96.93-.72,0-1.09-.74-1.13-1.63h2.76c.03-1.38-.49-2.49-1.64-2.49Zm-3.27,4.03h-1.23v-5.75s-1.57,0-1.57,0v.56h.98v5.19h-1.25v.56h3.07v-.56Zm-6.51.1c-.49,0-.83-.27-.83-.74,0-.68.8-.96,1.7-.96h.36v.25c0,.82-.48,1.45-1.23,1.45Zm.41-4.13c-.77,0-1.41.49-1.51,1.35h.59c.04-.51.45-.79.92-.79.51,0,.81.33.81,1.03v.31h-.31c-1.31,0-2.33.44-2.33,1.51,0,.78.59,1.28,1.38,1.28.48,0,1.04-.28,1.25-.75l.02.66h.57v-3c0-1.01-.52-1.58-1.39-1.58Zm-6.65.09l1.33,4.5h.66l1.33-4.5h-.6l-1.06,3.78-1.06-3.78h-.6Zm-1.61,3.93h-1.19v-3.94h-1.57v.56h.98v3.39h-1.21v.56h2.98v-.56Zm-1.55-4.63c.25,0,.45-.21.45-.46s-.2-.45-.45-.45-.45.21-.45.45.2.46.45.46Zm-3.73,3.14c0,.97-.41,1.58-1.2,1.58-.54,0-.78-.39-.78-1.01v-3.02h-.58v3.02c0,.93.46,1.56,1.29,1.56.54,0,1.01-.26,1.27-.74v.65s.59,0,.59,0v-4.5h-.58v2.45Zm-5.71,1.58c-.75,0-1.08-.76-1.08-1.77s.33-1.78,1.08-1.78c.66,0,1.02.67,1.02,1.78s-.36,1.77-1.02,1.77Zm1-3.39c-.21-.43-.6-.72-1.07-.72-1.03,0-1.59,1.01-1.59,2.34s.56,2.33,1.59,2.33c.44,0,.85-.26,1.06-.68v2.4h.58v-6.3h-.56v.63Zm-5.78-.16c.62,0,.96.58,1.03,1.38h-2.13c.1-.79.46-1.38,1.11-1.38Zm0-.56c-.75,0-1.27.48-1.52,1.19-.13.35-.19.74-.19,1.15,0,.83.24,1.59.75,2.02.26.22.58.32.96.32.83,0,1.42-.59,1.56-1.49h-.59c-.14.62-.45.93-.96.93-.72,0-1.09-.74-1.13-1.63h2.76c.03-1.38-.49-2.49-1.64-2.49Zm-9.14,4.01c.46-.35.67-.67.67-1.04,0-.58-.45-.99-1.03-.99-.65,0-1.15.55-1.15,1.24h.45c0-.47.28-.79.7-.79.33,0,.59.22.59.54,0,.22-.15.45-.46.67l-.36.26c-.66.48-.86.78-.94,1.5h2.17v-.44h-1.63c.16-.37.42-.51.66-.7l.35-.26Zm-5.21.14c-.86,0-1.29-.89-1.29-2.68s.43-2.68,1.29-2.68,1.29.89,1.29,2.68-.43,2.68-1.29,2.68Zm0-5.92c-1.38,0-1.87,1.43-1.87,3.24s.49,3.24,1.87,3.24,1.87-1.43,1.87-3.24-.49-3.24-1.87-3.24Zm-4.63,5.9c-.98,0-1.41-1.27-1.41-2.68,0-.87.17-1.74.59-2.28.21-.27.49-.41.83-.41.68,0,1.03.51,1.13,1.31h.56c-.14-1.15-.73-1.87-1.7-1.87s-1.53.69-1.79,1.66c-.14.49-.2,1.02-.2,1.58,0,1.13.25,2.16.84,2.77.3.31.67.47,1.14.47.97,0,1.57-.71,1.71-1.87h-.57c-.11.8-.46,1.31-1.13,1.31Zm-8.06-5.67c-.28-.14-.72-.22-1-.22-.76,0-1.21.46-1.21,1.21v.65h-1.14v.56h1.14v3.94h.58v-3.94h1.44v-.56h-1.44v-.65c0-.48.23-.65.67-.65.23,0,.58.1.83.22l.13-.56Zm-6.38,5.67c.75,0,1.02-.78,1.02-1.78s-.27-1.78-1.02-1.78-1.04.81-1.04,1.78.28,1.78,1.04,1.78Zm0-4.12c.75,0,1.23.49,1.46,1.2.11.35.16.74.16,1.14,0,1.32-.51,2.34-1.62,2.34s-1.62-1.02-1.62-2.34.53-2.34,1.62-2.34Zm-8.01,1.25c-.14-.8-.74-1.25-1.49-1.25-.79,0-1.43.47-1.43,1.16,0,.46.29.83.85,1.11l1.05.52c.32.17.52.32.52.67,0,.4-.42.66-.94.66s-.95-.26-1.1-.83h-.59c.17.85.86,1.38,1.69,1.38.53,0,1.03-.21,1.31-.57.13-.18.21-.39.21-.63,0-.58-.31-.93-.82-1.18l-1.04-.52c-.41-.19-.57-.34-.57-.62,0-.37.4-.6.86-.6.44,0,.78.22.9.69h.59Zm-5.29-1.26c-.36,0-.66.25-.85.73-.07-.44-.29-.73-.69-.73-.33,0-.64.23-.79.7l-.04-.6h-.49l-.02,4.5h.57v-2.7c0-.69.16-1.34.63-1.34.17,0,.28.07.33.21.04.14.07.38.07.7v3.13h.58v-2.7c0-.79.09-1.34.59-1.34.33,0,.39.26.39.77v3.28h.57v-3.3c0-.75-.24-1.3-.84-1.3Zm-5.98,4.14c-.5,0-.83-.27-.83-.74,0-.68.8-.96,1.7-.96h.36v.25c0,.82-.48,1.45-1.23,1.45Zm.41-4.13c-.77,0-1.41.49-1.51,1.35h.59c.04-.51.45-.79.92-.79.51,0,.81.33.81,1.03v.31h-.31c-1.31,0-2.33.44-2.33,1.51,0,.78.59,1.28,1.38,1.28.48,0,1.04-.28,1.25-.75l.02.66h.57v-3c0-1.01-.52-1.58-1.39-1.58Zm-4.46,0c-.46,0-.88.23-1.14.73v-.64h-.58v4.5h.58v-2.45c0-.9.4-1.58,1.04-1.58.44,0,.67.29.71.86h.58c-.04-.89-.5-1.42-1.19-1.42Zm-5.39,4.12c-.75,0-1.08-.77-1.08-1.78s.33-1.77,1.08-1.77c.66,0,1.02.66,1.02,1.77s-.36,1.78-1.02,1.78Zm.98-4.03v.6c-.21-.42-.61-.68-1.05-.68-1.04,0-1.59,1-1.59,2.33s.56,2.34,1.59,2.34c.46,0,.85-.28,1.06-.71v.68c0,.76-.3,1.14-.95,1.14-.44,0-.87-.23-.95-.71h-.58c.05.53.4.93.85,1.12.23.1.45.14.69.14.98,0,1.54-.65,1.54-1.69v-4.56h-.59Zm-10.32.37c-.4,0-.86.18-1.18.54l.22-2.15h2.37v-.56h-2.89l-.36,3.39.53.08c.32-.51.78-.76,1.26-.76.8,0,1.27.66,1.27,1.55,0,.55-.23,1.05-.62,1.34-.21.14-.44.22-.71.22-.69,0-1.19-.48-1.3-1.08h-.59c.07.57.41,1.11.95,1.42.27.15.58.23.94.23.75,0,1.35-.41,1.67-1.07.16-.32.24-.67.24-1.06,0-.78-.31-1.45-.85-1.82-.28-.18-.59-.27-.96-.27Zm-4.77,0c-.4,0-.86.18-1.18.54l.23-2.15h2.37v-.56h-2.89l-.36,3.39.53.08c.32-.51.78-.76,1.26-.76.8,0,1.27.66,1.27,1.55,0,.55-.22,1.05-.62,1.34-.21.14-.44.22-.71.22-.69,0-1.19-.48-1.3-1.08h-.59c.07.57.41,1.11.95,1.42.27.15.58.23.94.23.75,0,1.35-.41,1.67-1.07.16-.32.24-.67.24-1.06,0-.78-.31-1.45-.85-1.82-.28-.18-.59-.27-.96-.27Zm-8.24,3.36c-.22.12-.58.22-.78.22-.42,0-.62-.17-.62-.65v-2.75h1.35v-.54h-1.35v-1.5h-.58v1.5h-1.08v.54h1.08v2.75c0,.75.42,1.2,1.15,1.2.25,0,.68-.08.94-.22l-.12-.56Zm-5.18-1.28c0,.97-.41,1.58-1.2,1.58-.54,0-.78-.39-.78-1.01v-3.02h-.58v3.02c0,.93.46,1.56,1.3,1.56.54,0,1.01-.26,1.27-.74v.65s.59,0,.59,0v-4.5h-.58v2.45Zm-5.75,1.58c.75,0,1.02-.78,1.02-1.78s-.27-1.78-1.02-1.78-1.04.81-1.04,1.78.28,1.78,1.04,1.78Zm0-4.12c.75,0,1.23.49,1.46,1.2.11.35.16.74.16,1.14,0,1.32-.51,2.34-1.62,2.34s-1.62-1.02-1.62-2.34.53-2.34,1.62-2.34Zm-4.82,4.12c-.66,0-1.02-.67-1.02-1.78s.36-1.77,1.02-1.77c.75,0,1.08.76,1.08,1.77s-.33,1.78-1.08,1.78Zm.07-4.11c-.44,0-.85.26-1.05.68v-2.4h-.58v6.3h.56v-.63c.22.43.61.72,1.08.72,1.03,0,1.59-1.01,1.59-2.34s-.56-2.33-1.59-2.33Zm-4.99,4.12c-.5,0-.83-.27-.83-.74,0-.68.8-.96,1.7-.96h.36v.25c0,.82-.48,1.45-1.23,1.45Zm.41-4.13c-.77,0-1.41.49-1.51,1.35h.59c.05-.51.45-.79.92-.79.51,0,.81.33.81,1.03v.31h-.31c-1.31,0-2.33.44-2.33,1.51,0,.78.59,1.28,1.38,1.28.48,0,1.04-.28,1.25-.75l.02.66h.57v-3c0-1.01-.52-1.58-1.38-1.58Z" style="fill:none; stroke:#0d0d0b; stroke-width:.15px;"/><path d="m163.08,175.01c-.14-.8-.74-1.25-1.49-1.25-.79,0-1.43.47-1.43,1.16,0,.46.29.83.85,1.11l1.04.52c.32.17.52.32.52.67,0,.4-.42.66-.94.66s-.95-.26-1.1-.83h-.59c.17.86.86,1.39,1.69,1.39.53,0,1.03-.21,1.31-.57.13-.18.21-.39.21-.63,0-.58-.3-.93-.82-1.18l-1.05-.52c-.4-.19-.57-.34-.57-.62,0-.37.4-.6.86-.6.44,0,.78.22.9.69h.59Zm-6.26-.69c.62,0,.96.59,1.03,1.38h-2.13c.1-.79.46-1.38,1.11-1.38m0-.56c-.75,0-1.27.48-1.52,1.19-.13.35-.19.74-.19,1.15,0,.83.24,1.58.76,2.02.26.22.58.32.95.32.83,0,1.42-.59,1.56-1.49h-.59c-.14.62-.45.93-.96.93-.72,0-1.09-.74-1.13-1.63h2.76c.03-1.38-.49-2.49-1.64-2.49m-4.7,4.12c-.75,0-1.13-.79-1.13-1.77s.38-1.76,1.13-1.76c.5,0,.81.36.89.96h.59c-.11-.94-.67-1.52-1.48-1.52-.72,0-1.25.44-1.51,1.15-.13.35-.2.75-.2,1.17h0c0,.87.27,1.6.78,2.02.26.21.57.32.93.32.82,0,1.38-.58,1.48-1.52h-.59c-.08.6-.39.96-.89.96m-3.89-1.58c0,.97-.41,1.58-1.2,1.58-.54,0-.78-.39-.78-1.01v-3.02h-.58v3.02c0,.93.46,1.57,1.3,1.57.54,0,1.01-.26,1.27-.74v.65s.59,0,.59,0v-4.5h-.58v2.45Zm-5.71,1.58c-.75,0-1.08-.77-1.08-1.78s.33-1.77,1.08-1.77c.66,0,1.02.66,1.02,1.77s-.36,1.78-1.02,1.78m.98-3.43c-.21-.42-.61-.68-1.05-.68-1.04,0-1.59,1-1.59,2.33s.56,2.34,1.59,2.34c.46,0,.86-.29,1.07-.72v.63h.57v-6.3h-.58v2.4Zm-5.8,3.43c.76,0,1.03-.78,1.03-1.78s-.27-1.78-1.03-1.78-1.04.81-1.04,1.78.28,1.78,1.04,1.78m0-4.12c.75,0,1.23.49,1.46,1.2.11.35.16.74.16,1.14,0,1.32-.51,2.34-1.62,2.34s-1.62-1.02-1.62-2.34.53-2.34,1.62-2.34m-4.25,0c-.46,0-.88.23-1.14.73v-.64h-.58v4.5h.57v-2.45c0-.9.4-1.58,1.04-1.58.44,0,.67.29.71.86h.58c-.04-.89-.5-1.42-1.19-1.42m-5.35,4.11c-.66,0-1.02-.66-1.02-1.77s.36-1.78,1.02-1.78c.75,0,1.08.77,1.08,1.78s-.33,1.77-1.08,1.77m.07-4.11c-.47,0-.86.29-1.07.72v-.63h-.57v6.3h.58v-2.4c.21.42.61.68,1.05.68,1.03,0,1.59-1,1.59-2.33s-.56-2.34-1.59-2.34m-9.66,4.12c-.75,0-1.08-.77-1.08-1.78s.33-1.77,1.08-1.77c.66,0,1.02.66,1.02,1.77s-.36,1.78-1.02,1.78m.98-4.03v.6c-.21-.42-.61-.68-1.05-.68-1.04,0-1.59,1-1.59,2.33s.56,2.34,1.59,2.34c.46,0,.86-.28,1.06-.71v.68c0,.76-.3,1.13-.95,1.13-.44,0-.86-.23-.95-.71h-.58c.04.53.4.93.85,1.12.23.1.45.14.68.14.98,0,1.54-.65,1.54-1.69v-4.56h-.59Zm-5.37-.09c-.54,0-1.01.26-1.27.74v-.65s-.59,0-.59,0v4.5h.58v-2.45c0-.97.41-1.58,1.2-1.58.55,0,.78.39.78,1.01v3.02h.58v-3.02c0-.93-.46-1.56-1.3-1.56m-3.56,4.02h-1.19v-3.94h-1.57v.56h.98v3.38h-1.21v.56h2.98v-.56Zm-1.55-4.63c.25,0,.45-.21.45-.46s-.2-.45-.45-.45-.45.21-.45.45.2.46.45.46m-3.71.6c-.36,0-.66.25-.85.73-.07-.44-.29-.73-.69-.73-.33,0-.64.23-.79.7l-.04-.6h-.49l-.02,4.5h.57v-2.7c0-.69.16-1.34.63-1.34.17,0,.28.07.33.21.04.14.07.38.07.7v3.13h.57v-2.7c0-.79.09-1.34.59-1.34.33,0,.39.26.39.76v3.28h.57v-3.3c0-.75-.24-1.29-.85-1.29m-5.98,4.14c-.5,0-.83-.27-.83-.74,0-.68.8-.96,1.7-.96h.36v.25c0,.82-.48,1.45-1.23,1.45m.41-4.13c-.76,0-1.41.49-1.51,1.35h.59c.05-.51.45-.79.92-.79.51,0,.81.33.81,1.03v.31h-.31c-1.31,0-2.33.44-2.33,1.51,0,.78.59,1.28,1.38,1.28.48,0,1.04-.28,1.25-.76l.02.67h.57v-3.01c0-1.01-.52-1.58-1.38-1.58m-4.95.56c.62,0,.96.59,1.03,1.38h-2.13c.1-.79.46-1.38,1.11-1.38m0-.56c-.75,0-1.27.48-1.52,1.19-.13.35-.19.74-.19,1.15,0,.83.24,1.58.75,2.02.26.22.58.32.96.32.83,0,1.42-.59,1.56-1.49h-.59c-.14.62-.45.93-.96.93-.72,0-1.09-.74-1.13-1.63h2.76c.03-1.38-.49-2.49-1.64-2.49m-4.28,0c-.46,0-.88.23-1.14.73v-.64h-.58v4.5h.57v-2.45c0-.9.4-1.58,1.04-1.58.44,0,.67.29.71.86h.58c-.04-.89-.5-1.42-1.19-1.42m-3.89,3.82c-.22.12-.58.22-.78.22-.42,0-.62-.17-.62-.65v-2.75h1.35v-.54h-1.35v-1.5h-.57v1.5h-1.08v.54h1.08v2.75c0,.75.42,1.21,1.15,1.21.25,0,.68-.08.94-.22l-.12-.56Zm-4.64-2.57c-.14-.8-.74-1.25-1.49-1.25-.79,0-1.43.47-1.43,1.16,0,.46.29.83.85,1.11l1.04.52c.32.17.52.32.52.67,0,.4-.42.66-.94.66s-.95-.26-1.1-.83h-.59c.17.86.86,1.39,1.69,1.39.53,0,1.03-.21,1.3-.57.13-.18.21-.39.21-.63,0-.58-.31-.93-.82-1.18l-1.04-.52c-.41-.19-.57-.34-.57-.62,0-.37.4-.6.87-.6.44,0,.78.22.9.69h.59Zm-9.45-2.8c-.28-.13-.72-.22-1-.22-.76,0-1.21.46-1.21,1.21v.65h-1.14v.56h1.14v3.94h.58v-3.94h1.44v-.56h-1.44v-.65c0-.48.22-.65.67-.65.22,0,.58.1.83.22l.13-.56Zm-6.38,5.67c.76,0,1.03-.78,1.03-1.78s-.27-1.78-1.03-1.78-1.04.81-1.04,1.78.28,1.78,1.04,1.78m0-4.12c.75,0,1.23.49,1.46,1.2.11.35.16.74.16,1.14,0,1.32-.51,2.34-1.62,2.34s-1.62-1.02-1.62-2.34.53-2.34,1.62-2.34m-9.02,0c-.46,0-.88.23-1.13.73v-.64h-.58v4.5h.58v-2.45c0-.9.4-1.58,1.04-1.58.44,0,.67.29.71.86h.58c-.04-.89-.5-1.42-1.19-1.42m-4.3,2.54c0,.97-.41,1.58-1.2,1.58-.54,0-.78-.39-.78-1.01v-3.02h-.58v3.02c0,.93.46,1.57,1.3,1.57.54,0,1.01-.26,1.27-.74v.65s.59,0,.59,0v-4.5h-.58v2.45Zm-5.75,1.58c.76,0,1.03-.78,1.03-1.78s-.27-1.78-1.03-1.78-1.04.81-1.04,1.78.28,1.78,1.04,1.78m0-4.12c.75,0,1.23.49,1.46,1.2.11.35.16.74.16,1.14,0,1.32-.51,2.34-1.62,2.34s-1.62-1.02-1.62-2.34.53-2.34,1.62-2.34m-4.56,0c-.54,0-1.02.26-1.27.74v-.65s0-1.8,0-1.8h-.59v6.3h.58v-2.45c0-.97.42-1.58,1.2-1.58.55,0,.78.39.78,1.01v3.02h.58v-3.02c0-.93-.46-1.56-1.3-1.56m-9.71.56c.62,0,.96.59,1.03,1.38h-2.13c.1-.79.46-1.38,1.11-1.38m0-.56c-.75,0-1.27.48-1.52,1.19-.13.35-.19.74-.19,1.15,0,.83.24,1.58.75,2.02.26.22.58.32.95.32.83,0,1.42-.59,1.56-1.49h-.59c-.13.62-.45.93-.96.93-.72,0-1.09-.74-1.13-1.63h2.76c.03-1.38-.49-2.49-1.64-2.49m-4.53,0c-.54,0-1.01.26-1.27.74v-.65s-.59,0-.59,0v4.5h.58v-2.45c0-.97.41-1.58,1.2-1.58.55,0,.78.39.78,1.01v3.02h.58v-3.02c0-.93-.46-1.56-1.3-1.56m-5.05,4.14c-.86,0-1.29-.89-1.29-2.68s.43-2.68,1.29-2.68,1.29.89,1.29,2.68-.43,2.68-1.29,2.68m0-5.92c-1.38,0-1.87,1.43-1.87,3.24s.49,3.24,1.87,3.24,1.87-1.43,1.87-3.24-.49-3.24-1.87-3.24" style="fill:#0d0d0b;"/><path d="m163.08,175.01c-.14-.8-.74-1.25-1.49-1.25-.79,0-1.43.47-1.43,1.16,0,.46.29.83.85,1.11l1.04.52c.32.17.52.32.52.67,0,.4-.42.66-.94.66s-.95-.26-1.1-.83h-.59c.17.86.86,1.39,1.69,1.39.53,0,1.03-.21,1.31-.57.13-.18.21-.39.21-.63,0-.58-.3-.93-.82-1.18l-1.05-.52c-.4-.19-.57-.34-.57-.62,0-.37.4-.6.86-.6.44,0,.78.22.9.69h.59Zm-6.26-.69c.62,0,.96.59,1.03,1.38h-2.13c.1-.79.46-1.38,1.11-1.38Zm0-.56c-.75,0-1.27.48-1.52,1.19-.13.35-.19.74-.19,1.15,0,.83.24,1.58.76,2.02.26.22.58.32.95.32.83,0,1.42-.59,1.56-1.49h-.59c-.14.62-.45.93-.96.93-.72,0-1.09-.74-1.13-1.63h2.76c.03-1.38-.49-2.49-1.64-2.49Zm-4.7,4.12c-.75,0-1.13-.79-1.13-1.77s.38-1.76,1.13-1.76c.5,0,.81.36.89.96h.59c-.11-.94-.67-1.52-1.48-1.52-.72,0-1.25.44-1.51,1.15-.13.35-.2.75-.2,1.17h0c0,.87.27,1.6.78,2.02.26.21.57.32.93.32.82,0,1.38-.58,1.48-1.52h-.59c-.08.6-.39.96-.89.96Zm-3.89-1.58c0,.97-.41,1.58-1.2,1.58-.54,0-.78-.39-.78-1.01v-3.02h-.58v3.02c0,.93.46,1.57,1.3,1.57.54,0,1.01-.26,1.27-.74v.65s.59,0,.59,0v-4.5h-.58v2.45Zm-5.71,1.58c-.75,0-1.08-.77-1.08-1.78s.33-1.77,1.08-1.77c.66,0,1.02.66,1.02,1.77s-.36,1.78-1.02,1.78Zm.98-3.43c-.21-.42-.61-.68-1.05-.68-1.04,0-1.59,1-1.59,2.33s.56,2.34,1.59,2.34c.46,0,.86-.29,1.07-.72v.63h.57v-6.3h-.58v2.4Zm-5.8,3.43c.76,0,1.03-.78,1.03-1.78s-.27-1.78-1.03-1.78-1.04.81-1.04,1.78.28,1.78,1.04,1.78Zm0-4.12c.75,0,1.23.49,1.46,1.2.11.35.16.74.16,1.14,0,1.32-.51,2.34-1.62,2.34s-1.62-1.02-1.62-2.34.53-2.34,1.62-2.34Zm-4.25,0c-.46,0-.88.23-1.14.73v-.64h-.58v4.5h.57v-2.45c0-.9.4-1.58,1.04-1.58.44,0,.67.29.71.86h.58c-.04-.89-.5-1.42-1.19-1.42Zm-5.35,4.11c-.66,0-1.02-.66-1.02-1.77s.36-1.78,1.02-1.78c.75,0,1.08.77,1.08,1.78s-.33,1.77-1.08,1.77Zm.07-4.11c-.47,0-.86.29-1.07.72v-.63h-.57v6.3h.58v-2.4c.21.42.61.68,1.05.68,1.03,0,1.59-1,1.59-2.33s-.56-2.34-1.59-2.34Zm-9.66,4.12c-.75,0-1.08-.77-1.08-1.78s.33-1.77,1.08-1.77c.66,0,1.02.66,1.02,1.77s-.36,1.78-1.02,1.78Zm.98-4.03v.6c-.21-.42-.61-.68-1.05-.68-1.04,0-1.59,1-1.59,2.33s.56,2.34,1.59,2.34c.46,0,.86-.28,1.06-.71v.68c0,.76-.3,1.13-.95,1.13-.44,0-.86-.23-.95-.71h-.58c.04.53.4.93.85,1.12.23.1.45.14.68.14.98,0,1.54-.65,1.54-1.69v-4.56h-.59Zm-5.37-.09c-.54,0-1.01.26-1.27.74v-.65s-.59,0-.59,0v4.5h.58v-2.45c0-.97.41-1.58,1.2-1.58.55,0,.78.39.78,1.01v3.02h.58v-3.02c0-.93-.46-1.56-1.3-1.56Zm-3.56,4.02h-1.19v-3.94h-1.57v.56h.98v3.38h-1.21v.56h2.98v-.56Zm-1.55-4.63c.25,0,.45-.21.45-.46s-.2-.45-.45-.45-.45.21-.45.45.2.46.45.46Zm-3.71.6c-.36,0-.66.25-.85.73-.07-.44-.29-.73-.69-.73-.33,0-.64.23-.79.7l-.04-.6h-.49l-.02,4.5h.57v-2.7c0-.69.16-1.34.63-1.34.17,0,.28.07.33.21.04.14.07.38.07.7v3.13h.57v-2.7c0-.79.09-1.34.59-1.34.33,0,.39.26.39.76v3.28h.57v-3.3c0-.75-.24-1.29-.85-1.29Zm-5.98,4.14c-.5,0-.83-.27-.83-.74,0-.68.8-.96,1.7-.96h.36v.25c0,.82-.48,1.45-1.23,1.45Zm.41-4.13c-.76,0-1.41.49-1.51,1.35h.59c.05-.51.45-.79.92-.79.51,0,.81.33.81,1.03v.31h-.31c-1.31,0-2.33.44-2.33,1.51,0,.78.59,1.28,1.38,1.28.48,0,1.04-.28,1.25-.76l.02.67h.57v-3.01c0-1.01-.52-1.58-1.38-1.58Zm-4.95.56c.62,0,.96.59,1.03,1.38h-2.13c.1-.79.46-1.38,1.11-1.38Zm0-.56c-.75,0-1.27.48-1.52,1.19-.13.35-.19.74-.19,1.15,0,.83.24,1.58.75,2.02.26.22.58.32.96.32.83,0,1.42-.59,1.56-1.49h-.59c-.14.62-.45.93-.96.93-.72,0-1.09-.74-1.13-1.63h2.76c.03-1.38-.49-2.49-1.64-2.49Zm-4.28,0c-.46,0-.88.23-1.14.73v-.64h-.58v4.5h.57v-2.45c0-.9.4-1.58,1.04-1.58.44,0,.67.29.71.86h.58c-.04-.89-.5-1.42-1.19-1.42Zm-3.89,3.82c-.22.12-.58.22-.78.22-.42,0-.62-.17-.62-.65v-2.75h1.35v-.54h-1.35v-1.5h-.57v1.5h-1.08v.54h1.08v2.75c0,.75.42,1.21,1.15,1.21.25,0,.68-.08.94-.22l-.12-.56Zm-4.64-2.57c-.14-.8-.74-1.25-1.49-1.25-.79,0-1.43.47-1.43,1.16,0,.46.29.83.85,1.11l1.04.52c.32.17.52.32.52.67,0,.4-.42.66-.94.66s-.95-.26-1.1-.83h-.59c.17.86.86,1.39,1.69,1.39.53,0,1.03-.21,1.3-.57.13-.18.21-.39.21-.63,0-.58-.31-.93-.82-1.18l-1.04-.52c-.41-.19-.57-.34-.57-.62,0-.37.4-.6.87-.6.44,0,.78.22.9.69h.59Zm-9.45-2.8c-.28-.13-.72-.22-1-.22-.76,0-1.21.46-1.21,1.21v.65h-1.14v.56h1.14v3.94h.58v-3.94h1.44v-.56h-1.44v-.65c0-.48.22-.65.67-.65.22,0,.58.1.83.22l.13-.56Zm-6.38,5.67c.76,0,1.03-.78,1.03-1.78s-.27-1.78-1.03-1.78-1.04.81-1.04,1.78.28,1.78,1.04,1.78Zm0-4.12c.75,0,1.23.49,1.46,1.2.11.35.16.74.16,1.14,0,1.32-.51,2.34-1.62,2.34s-1.62-1.02-1.62-2.34.53-2.34,1.62-2.34Zm-9.02,0c-.46,0-.88.23-1.13.73v-.64h-.58v4.5h.58v-2.45c0-.9.4-1.58,1.04-1.58.44,0,.67.29.71.86h.58c-.04-.89-.5-1.42-1.19-1.42Zm-4.3,2.54c0,.97-.41,1.58-1.2,1.58-.54,0-.78-.39-.78-1.01v-3.02h-.58v3.02c0,.93.46,1.57,1.3,1.57.54,0,1.01-.26,1.27-.74v.65s.59,0,.59,0v-4.5h-.58v2.45Zm-5.75,1.58c.76,0,1.03-.78,1.03-1.78s-.27-1.78-1.03-1.78-1.04.81-1.04,1.78.28,1.78,1.04,1.78Zm0-4.12c.75,0,1.23.49,1.46,1.2.11.35.16.74.16,1.14,0,1.32-.51,2.34-1.62,2.34s-1.62-1.02-1.62-2.34.53-2.34,1.62-2.34Zm-4.56,0c-.54,0-1.02.26-1.27.74v-.65s0-1.8,0-1.8h-.59v6.3h.58v-2.45c0-.97.42-1.58,1.2-1.58.55,0,.78.39.78,1.01v3.02h.58v-3.02c0-.93-.46-1.56-1.3-1.56Zm-9.71.56c.62,0,.96.59,1.03,1.38h-2.13c.1-.79.46-1.38,1.11-1.38Zm0-.56c-.75,0-1.27.48-1.52,1.19-.13.35-.19.74-.19,1.15,0,.83.24,1.58.75,2.02.26.22.58.32.95.32.83,0,1.42-.59,1.56-1.49h-.59c-.13.62-.45.93-.96.93-.72,0-1.09-.74-1.13-1.63h2.76c.03-1.38-.49-2.49-1.64-2.49Zm-4.53,0c-.54,0-1.01.26-1.27.74v-.65s-.59,0-.59,0v4.5h.58v-2.45c0-.97.41-1.58,1.2-1.58.55,0,.78.39.78,1.01v3.02h.58v-3.02c0-.93-.46-1.56-1.3-1.56Zm-5.05,4.14c-.86,0-1.29-.89-1.29-2.68s.43-2.68,1.29-2.68,1.29.89,1.29,2.68-.43,2.68-1.29,2.68Zm0-5.92c-1.38,0-1.87,1.43-1.87,3.24s.49,3.24,1.87,3.24,1.87-1.43,1.87-3.24-.49-3.24-1.87-3.24Z" style="fill:none; stroke:#0d0d0b; stroke-width:.15px;"/></g></svg>