<?xml version="1.0" encoding="utf-8"?>
<!-- Generator: Adobe Illustrator 27.6.1, SVG Export Plug-In . SVG Version: 6.00 Build 0)  -->
<svg version="1.1" id="a" xmlns="http://www.w3.org/2000/svg" xmlns:xlink="http://www.w3.org/1999/xlink" x="0px" y="0px"
	 viewBox="0 0 178.5 225" style="enable-background:new 0 0 178.5 225;" xml:space="preserve">
<style type="text/css">
	.st0{clip-path:url(#SVGID_00000145743320013928805010000003248725263008310430_);fill:#0B0B0A;}
	.st1{clip-path:url(#SVGID_00000145743320013928805010000003248725263008310430_);fill:none;stroke:#0B0B0A;stroke-width:0.15;}
	.st2{fill:#0B0B0A;}
	.st3{fill:none;stroke:#0B0B0A;stroke-width:0.1;}
	.st4{clip-path:url(#SVGID_00000085213995145265323040000012887239874963246511_);fill:none;stroke:#0B0B0A;stroke-width:0.1;}
	.st5{clip-path:url(#SVGID_00000176760265939784014390000003465248366575588505_);fill:none;stroke:#0B0B0A;stroke-width:0.1;}
	.st6{clip-path:url(#SVGID_00000150069258691407739740000012155866182310208423_);fill:none;stroke:#0B0B0A;stroke-width:0.1;}
	.st7{clip-path:url(#SVGID_00000079463287188645755790000017854008881460671643_);fill:none;stroke:#0B0B0A;stroke-width:0.1;}
	.st8{clip-path:url(#SVGID_00000127027889113075640160000005770872595278578593_);fill:#0B0B0A;}
	.st9{clip-path:url(#SVGID_00000127027889113075640160000005770872595278578593_);fill:none;stroke:#0B0B0A;stroke-width:0.1;}
</style>
<g>
	<defs>
		<rect id="SVGID_1_" x="1.4" y="0.9" width="176" height="223.2"/>
	</defs>
	<clipPath id="SVGID_00000119077726726782895110000006420944035975550646_">
		<use xlink:href="#SVGID_1_"  style="overflow:visible;"/>
	</clipPath>
	<path style="clip-path:url(#SVGID_00000119077726726782895110000006420944035975550646_);fill:#0B0B0A;" d="M164.8,207.8
		c-0.1-0.8-0.7-1.2-1.5-1.2c-0.8,0-1.4,0.5-1.4,1.2c0,0.5,0.3,0.8,0.9,1.1l1,0.5c0.3,0.2,0.5,0.3,0.5,0.7c0,0.4-0.4,0.7-0.9,0.7
		c-0.5,0-0.9-0.3-1.1-0.8h-0.6c0.2,0.9,0.9,1.4,1.7,1.4c0.5,0,1-0.2,1.3-0.6c0.1-0.2,0.2-0.4,0.2-0.6c0-0.6-0.3-0.9-0.8-1.2l-1-0.5
		c-0.4-0.2-0.6-0.3-0.6-0.6c0-0.4,0.4-0.6,0.9-0.6c0.4,0,0.8,0.2,0.9,0.7H164.8z M159,206.6c-0.5,0-0.9,0.2-1.1,0.7v-0.6h-0.6v4.5
		h0.6v-2.4c0-0.9,0.4-1.6,1-1.6c0.4,0,0.7,0.3,0.7,0.9h0.6C160.2,207.1,159.7,206.6,159,206.6 M154.7,209.1c0,1-0.4,1.6-1.2,1.6
		c-0.5,0-0.8-0.4-0.8-1v-3h-0.6v3c0,0.9,0.5,1.6,1.3,1.6c0.5,0,1-0.3,1.3-0.7l0,0.6h0.6v-4.5h-0.6V209.1z M149,210.7
		c0.8,0,1-0.8,1-1.8c0-1-0.3-1.8-1-1.8c-0.8,0-1,0.8-1,1.8C147.9,209.9,148.2,210.7,149,210.7 M149,206.6c0.7,0,1.2,0.5,1.5,1.2
		c0.1,0.4,0.2,0.7,0.2,1.1c0,1.3-0.5,2.3-1.6,2.3c-1.1,0-1.6-1-1.6-2.3C147.3,207.6,147.9,206.6,149,206.6 M144.4,206.6
		c-0.5,0-1,0.3-1.3,0.7l0-0.6v-1.8h-0.6v6.3h0.6v-2.4c0-1,0.4-1.6,1.2-1.6c0.5,0,0.8,0.4,0.8,1v3h0.6v-3
		C145.7,207.2,145.2,206.6,144.4,206.6 M134.6,210.7c-0.8,0-1.4-0.5-1.4-1.3c0-0.8,0.6-1.3,1.4-1.3c0.8,0,1.4,0.5,1.4,1.3
		C136,210.2,135.4,210.7,134.6,210.7 M133.4,206.4c0-0.7,0.5-1.1,1.2-1.1c0.7,0,1.2,0.4,1.2,1.1c0,0.7-0.5,1.1-1.2,1.1
		C133.9,207.5,133.4,207.1,133.4,206.4 M135.5,207.8c0.6-0.3,0.9-0.8,0.9-1.4c0-0.6-0.3-1.2-0.9-1.4c-0.3-0.1-0.6-0.2-0.9-0.2
		c-0.6,0-1.2,0.3-1.5,0.8c-0.2,0.3-0.2,0.5-0.2,0.9c0,0.6,0.3,1.1,0.9,1.4c-0.7,0.2-1.2,0.9-1.2,1.6c0,0.8,0.4,1.3,1,1.6
		c0.3,0.2,0.6,0.2,1,0.2c0.8,0,1.4-0.3,1.7-0.9c0.2-0.3,0.3-0.6,0.3-1C136.6,208.7,136.1,208,135.5,207.8 M130.6,208.3
		c0.5-0.4,0.8-0.7,1-1.1c0.1-0.2,0.1-0.5,0.1-0.7c0-0.6-0.3-1.2-0.8-1.5c-0.3-0.2-0.6-0.2-0.9-0.2c-1.1,0-1.8,0.8-1.9,1.9h0.6
		c0.1-0.8,0.6-1.3,1.4-1.3c0.7,0,1.1,0.5,1.1,1.1c0,0.7-0.5,1.1-0.9,1.4l-0.9,0.7c-0.9,0.7-1.2,1.4-1.2,2.6l3.6,0v-0.6l-3,0
		c0.1-0.6,0.4-1.1,0.9-1.5L130.6,208.3z M120.9,206.6c-0.5,0-0.9,0.2-1.1,0.7v-0.6h-0.6v4.5h0.6v-2.4c0-0.9,0.4-1.6,1-1.6
		c0.4,0,0.7,0.3,0.7,0.9h0.6C122,207.1,121.5,206.6,120.9,206.6 M115.6,210.7c0.8,0,1-0.8,1-1.8c0-1-0.3-1.8-1-1.8
		c-0.8,0-1,0.8-1,1.8C114.5,209.9,114.8,210.7,115.6,210.7 M115.6,206.6c0.7,0,1.2,0.5,1.5,1.2c0.1,0.4,0.2,0.7,0.2,1.1
		c0,1.3-0.5,2.3-1.6,2.3c-1.1,0-1.6-1-1.6-2.3C113.9,207.6,114.5,206.6,115.6,206.6 M112.4,205c-0.3-0.1-0.7-0.2-1-0.2
		c-0.8,0-1.2,0.5-1.2,1.2v0.6h-1.1v0.6h1.1v3.9h0.6v-3.9h1.4v-0.6h-1.4V206c0-0.5,0.2-0.6,0.7-0.6c0.2,0,0.6,0.1,0.8,0.2L112.4,205z
		 M99.4,209.4c0.1,0.8,0.5,1.3,1,1.6c0.3,0.2,0.6,0.2,0.9,0.2c0.6,0,1.2-0.3,1.5-0.8c0.2-0.2,0.3-0.5,0.3-0.8c0-0.7-0.4-1.2-1.1-1.7
		l-1.1-0.7c-0.4-0.3-0.7-0.5-0.7-1c0-0.6,0.5-0.9,1.1-0.9c0.6,0,1.1,0.5,1.2,1.2h0.6c-0.1-0.7-0.4-1.3-0.9-1.6
		c-0.3-0.2-0.5-0.2-0.8-0.2c-0.6,0-1.1,0.3-1.4,0.7c-0.2,0.2-0.2,0.5-0.2,0.8c0,0.6,0.4,1.1,1,1.5l1.1,0.7c0.6,0.4,0.8,0.6,0.8,1.2
		c0,0.6-0.6,1.1-1.2,1.1c-0.7,0-1.3-0.5-1.4-1.3H99.4z M98.2,204.9h-0.6v4.3c0,1-0.3,1.5-1.2,1.5c-0.8,0-1.2-0.5-1.2-1.5v-4.3h-0.6
		v4.3c0,1.3,0.6,2.1,1.8,2.1c1.2,0,1.7-0.8,1.7-2.1V204.9z M87,207.1c0.6,0,1,0.6,1,1.4h-2.1C86,207.7,86.3,207.1,87,207.1
		 M87,206.6c-0.7,0-1.3,0.5-1.5,1.2c-0.1,0.4-0.2,0.7-0.2,1.2c0,0.8,0.2,1.6,0.8,2c0.3,0.2,0.6,0.3,1,0.3c0.8,0,1.4-0.6,1.6-1.5
		h-0.6c-0.1,0.6-0.5,0.9-1,0.9c-0.7,0-1.1-0.7-1.1-1.6h2.8C88.6,207.7,88.1,206.6,87,206.6 M82.4,206.6c-0.5,0-1,0.3-1.3,0.7l0-0.6
		v-1.8h-0.6v6.3h0.6v-2.4c0-1,0.4-1.6,1.2-1.6c0.5,0,0.8,0.4,0.8,1v3h0.6v-3C83.7,207.2,83.2,206.6,82.4,206.6 M78.8,210.4
		c-0.2,0.1-0.6,0.2-0.8,0.2c-0.4,0-0.6-0.2-0.6-0.6v-2.7h1.3v-0.5h-1.3v-1.5h-0.6v1.5h-1.1v0.5h1.1v2.7c0,0.7,0.4,1.2,1.2,1.2
		c0.3,0,0.7-0.1,0.9-0.2L78.8,210.4z M69.5,205c-0.3-0.1-0.7-0.2-1-0.2c-0.8,0-1.2,0.5-1.2,1.2v0.6h-1.1v0.6h1.1v3.9h0.6v-3.9h1.4
		v-0.6h-1.4V206c0-0.5,0.2-0.6,0.7-0.6c0.2,0,0.6,0.1,0.8,0.2L69.5,205z M63.1,210.7c0.8,0,1-0.8,1-1.8c0-1-0.3-1.8-1-1.8
		c-0.8,0-1,0.8-1,1.8C62.1,209.9,62.3,210.7,63.1,210.7 M63.1,206.6c0.7,0,1.2,0.5,1.5,1.2c0.1,0.4,0.2,0.7,0.2,1.1
		c0,1.3-0.5,2.3-1.6,2.3c-1.1,0-1.6-1-1.6-2.3C61.5,207.6,62,206.6,63.1,206.6 M53.6,207.1c0.6,0,1,0.6,1,1.4h-2.1
		C52.6,207.7,52.9,207.1,53.6,207.1 M53.6,206.6c-0.7,0-1.3,0.5-1.5,1.2c-0.1,0.4-0.2,0.7-0.2,1.2c0,0.8,0.2,1.6,0.8,2
		c0.3,0.2,0.6,0.3,1,0.3c0.8,0,1.4-0.6,1.6-1.5h-0.6c-0.1,0.6-0.5,0.9-1,0.9c-0.7,0-1.1-0.7-1.1-1.6h2.8
		C55.3,207.7,54.7,206.6,53.6,206.6 M50.3,210.6h-1.2v-5.2l0-0.6h-1.6v0.6h1v5.2h-1.3v0.6h3.1V210.6z M44,210.7c0.8,0,1-0.8,1-1.8
		c0-1-0.3-1.8-1-1.8c-0.8,0-1,0.8-1,1.8C43,209.9,43.3,210.7,44,210.7 M44,206.6c0.7,0,1.2,0.5,1.5,1.2c0.1,0.4,0.2,0.7,0.2,1.1
		c0,1.3-0.5,2.3-1.6,2.3c-1.1,0-1.6-1-1.6-2.3C42.4,207.6,42.9,206.6,44,206.6 M39.5,206.6c-0.5,0-1,0.3-1.3,0.7l0-0.6v-1.8h-0.6
		v6.3h0.6v-2.4c0-1,0.4-1.6,1.2-1.6c0.5,0,0.8,0.4,0.8,1v3h0.6v-3C40.8,207.2,40.3,206.6,39.5,206.6 M34.2,207.9l-0.6,2.2l-0.5-3.5
		h-0.6l0.7,4.5h0.6l0.7-2.4l0.7,2.4h0.6l0.7-4.5h-0.6l-0.5,3.5l-0.6-2.2H34.2z M25,207.1c0.6,0,1,0.6,1,1.4h-2.1
		C24,207.7,24.3,207.1,25,207.1 M25,206.6c-0.7,0-1.3,0.5-1.5,1.2c-0.1,0.4-0.2,0.7-0.2,1.2c0,0.8,0.2,1.6,0.8,2
		c0.3,0.2,0.6,0.3,1,0.3c0.8,0,1.4-0.6,1.6-1.5h-0.6c-0.1,0.6-0.5,0.9-1,0.9c-0.7,0-1.1-0.7-1.1-1.6h2.8
		C26.6,207.7,26.1,206.6,25,206.6 M20.4,206.6c-0.5,0-1,0.3-1.3,0.7l0-0.6v-1.8h-0.6v6.3h0.6v-2.4c0-1,0.4-1.6,1.2-1.6
		c0.5,0,0.8,0.4,0.8,1v3h0.6v-3C21.7,207.2,21.2,206.6,20.4,206.6 M16.8,210.4c-0.2,0.1-0.6,0.2-0.8,0.2c-0.4,0-0.6-0.2-0.6-0.6
		v-2.7h1.3v-0.5h-1.3v-1.5h-0.6v1.5h-1.1v0.5h1.1v2.7c0,0.7,0.4,1.2,1.2,1.2c0.3,0,0.7-0.1,0.9-0.2L16.8,210.4z"/>
	
		<path style="clip-path:url(#SVGID_00000119077726726782895110000006420944035975550646_);fill:none;stroke:#0B0B0A;stroke-width:0.15;" d="
		M164.8,207.8c-0.1-0.8-0.7-1.2-1.5-1.2c-0.8,0-1.4,0.5-1.4,1.2c0,0.5,0.3,0.8,0.9,1.1l1,0.5c0.3,0.2,0.5,0.3,0.5,0.7
		c0,0.4-0.4,0.7-0.9,0.7c-0.5,0-0.9-0.3-1.1-0.8h-0.6c0.2,0.9,0.9,1.4,1.7,1.4c0.5,0,1-0.2,1.3-0.6c0.1-0.2,0.2-0.4,0.2-0.6
		c0-0.6-0.3-0.9-0.8-1.2l-1-0.5c-0.4-0.2-0.6-0.3-0.6-0.6c0-0.4,0.4-0.6,0.9-0.6c0.4,0,0.8,0.2,0.9,0.7H164.8z M159,206.6
		c-0.5,0-0.9,0.2-1.1,0.7v-0.6h-0.6v4.5h0.6v-2.4c0-0.9,0.4-1.6,1-1.6c0.4,0,0.7,0.3,0.7,0.9h0.6C160.2,207.1,159.7,206.6,159,206.6
		z M154.7,209.1c0,1-0.4,1.6-1.2,1.6c-0.5,0-0.8-0.4-0.8-1v-3h-0.6v3c0,0.9,0.5,1.6,1.3,1.6c0.5,0,1-0.3,1.3-0.7l0,0.6h0.6v-4.5
		h-0.6V209.1z M149,210.7c0.8,0,1-0.8,1-1.8c0-1-0.3-1.8-1-1.8c-0.8,0-1,0.8-1,1.8C147.9,209.9,148.2,210.7,149,210.7z M149,206.6
		c0.7,0,1.2,0.5,1.5,1.2c0.1,0.4,0.2,0.7,0.2,1.1c0,1.3-0.5,2.3-1.6,2.3c-1.1,0-1.6-1-1.6-2.3C147.3,207.6,147.9,206.6,149,206.6z
		 M144.4,206.6c-0.5,0-1,0.3-1.3,0.7l0-0.6v-1.8h-0.6v6.3h0.6v-2.4c0-1,0.4-1.6,1.2-1.6c0.5,0,0.8,0.4,0.8,1v3h0.6v-3
		C145.7,207.2,145.2,206.6,144.4,206.6z M134.6,210.7c-0.8,0-1.4-0.5-1.4-1.3c0-0.8,0.6-1.3,1.4-1.3c0.8,0,1.4,0.5,1.4,1.3
		C136,210.2,135.4,210.7,134.6,210.7z M133.4,206.4c0-0.7,0.5-1.1,1.2-1.1c0.7,0,1.2,0.4,1.2,1.1c0,0.7-0.5,1.1-1.2,1.1
		C133.9,207.5,133.4,207.1,133.4,206.4z M135.5,207.8c0.6-0.3,0.9-0.8,0.9-1.4c0-0.6-0.3-1.2-0.9-1.4c-0.3-0.1-0.6-0.2-0.9-0.2
		c-0.6,0-1.2,0.3-1.5,0.8c-0.2,0.3-0.2,0.5-0.2,0.9c0,0.6,0.3,1.1,0.9,1.4c-0.7,0.2-1.2,0.9-1.2,1.6c0,0.8,0.4,1.3,1,1.6
		c0.3,0.2,0.6,0.2,1,0.2c0.8,0,1.4-0.3,1.7-0.9c0.2-0.3,0.3-0.6,0.3-1C136.6,208.7,136.1,208,135.5,207.8z M130.6,208.3
		c0.5-0.4,0.8-0.7,1-1.1c0.1-0.2,0.1-0.5,0.1-0.7c0-0.6-0.3-1.2-0.8-1.5c-0.3-0.2-0.6-0.2-0.9-0.2c-1.1,0-1.8,0.8-1.9,1.9h0.6
		c0.1-0.8,0.6-1.3,1.4-1.3c0.7,0,1.1,0.5,1.1,1.1c0,0.7-0.5,1.1-0.9,1.4l-0.9,0.7c-0.9,0.7-1.2,1.4-1.2,2.6l3.6,0v-0.6l-3,0
		c0.1-0.6,0.4-1.1,0.9-1.5L130.6,208.3z M120.9,206.6c-0.5,0-0.9,0.2-1.1,0.7v-0.6h-0.6v4.5h0.6v-2.4c0-0.9,0.4-1.6,1-1.6
		c0.4,0,0.7,0.3,0.7,0.9h0.6C122,207.1,121.5,206.6,120.9,206.6z M115.6,210.7c0.8,0,1-0.8,1-1.8c0-1-0.3-1.8-1-1.8
		c-0.8,0-1,0.8-1,1.8C114.5,209.9,114.8,210.7,115.6,210.7z M115.6,206.6c0.7,0,1.2,0.5,1.5,1.2c0.1,0.4,0.2,0.7,0.2,1.1
		c0,1.3-0.5,2.3-1.6,2.3c-1.1,0-1.6-1-1.6-2.3C113.9,207.6,114.5,206.6,115.6,206.6z M112.4,205c-0.3-0.1-0.7-0.2-1-0.2
		c-0.8,0-1.2,0.5-1.2,1.2v0.6h-1.1v0.6h1.1v3.9h0.6v-3.9h1.4v-0.6h-1.4V206c0-0.5,0.2-0.6,0.7-0.6c0.2,0,0.6,0.1,0.8,0.2L112.4,205z
		 M99.4,209.4c0.1,0.8,0.5,1.3,1,1.6c0.3,0.2,0.6,0.2,0.9,0.2c0.6,0,1.2-0.3,1.5-0.8c0.2-0.2,0.3-0.5,0.3-0.8c0-0.7-0.4-1.2-1.1-1.7
		l-1.1-0.7c-0.4-0.3-0.7-0.5-0.7-1c0-0.6,0.5-0.9,1.1-0.9c0.6,0,1.1,0.5,1.2,1.2h0.6c-0.1-0.7-0.4-1.3-0.9-1.6
		c-0.3-0.2-0.5-0.2-0.8-0.2c-0.6,0-1.1,0.3-1.4,0.7c-0.2,0.2-0.2,0.5-0.2,0.8c0,0.6,0.4,1.1,1,1.5l1.1,0.7c0.6,0.4,0.8,0.6,0.8,1.2
		c0,0.6-0.6,1.1-1.2,1.1c-0.7,0-1.3-0.5-1.4-1.3H99.4z M98.2,204.9h-0.6v4.3c0,1-0.3,1.5-1.2,1.5c-0.8,0-1.2-0.5-1.2-1.5v-4.3h-0.6
		v4.3c0,1.3,0.6,2.1,1.8,2.1c1.2,0,1.7-0.8,1.7-2.1V204.9z M87,207.1c0.6,0,1,0.6,1,1.4h-2.1C86,207.7,86.3,207.1,87,207.1z
		 M87,206.6c-0.7,0-1.3,0.5-1.5,1.2c-0.1,0.4-0.2,0.7-0.2,1.2c0,0.8,0.2,1.6,0.8,2c0.3,0.2,0.6,0.3,1,0.3c0.8,0,1.4-0.6,1.6-1.5
		h-0.6c-0.1,0.6-0.5,0.9-1,0.9c-0.7,0-1.1-0.7-1.1-1.6h2.8C88.6,207.7,88.1,206.6,87,206.6z M82.4,206.6c-0.5,0-1,0.3-1.3,0.7l0-0.6
		v-1.8h-0.6v6.3h0.6v-2.4c0-1,0.4-1.6,1.2-1.6c0.5,0,0.8,0.4,0.8,1v3h0.6v-3C83.7,207.2,83.2,206.6,82.4,206.6z M78.8,210.4
		c-0.2,0.1-0.6,0.2-0.8,0.2c-0.4,0-0.6-0.2-0.6-0.6v-2.7h1.3v-0.5h-1.3v-1.5h-0.6v1.5h-1.1v0.5h1.1v2.7c0,0.7,0.4,1.2,1.2,1.2
		c0.3,0,0.7-0.1,0.9-0.2L78.8,210.4z M69.5,205c-0.3-0.1-0.7-0.2-1-0.2c-0.8,0-1.2,0.5-1.2,1.2v0.6h-1.1v0.6h1.1v3.9h0.6v-3.9h1.4
		v-0.6h-1.4V206c0-0.5,0.2-0.6,0.7-0.6c0.2,0,0.6,0.1,0.8,0.2L69.5,205z M63.1,210.7c0.8,0,1-0.8,1-1.8c0-1-0.3-1.8-1-1.8
		c-0.8,0-1,0.8-1,1.8C62.1,209.9,62.3,210.7,63.1,210.7z M63.1,206.6c0.7,0,1.2,0.5,1.5,1.2c0.1,0.4,0.2,0.7,0.2,1.1
		c0,1.3-0.5,2.3-1.6,2.3c-1.1,0-1.6-1-1.6-2.3C61.5,207.6,62,206.6,63.1,206.6z M53.6,207.1c0.6,0,1,0.6,1,1.4h-2.1
		C52.6,207.7,52.9,207.1,53.6,207.1z M53.6,206.6c-0.7,0-1.3,0.5-1.5,1.2c-0.1,0.4-0.2,0.7-0.2,1.2c0,0.8,0.2,1.6,0.8,2
		c0.3,0.2,0.6,0.3,1,0.3c0.8,0,1.4-0.6,1.6-1.5h-0.6c-0.1,0.6-0.5,0.9-1,0.9c-0.7,0-1.1-0.7-1.1-1.6h2.8
		C55.3,207.7,54.7,206.6,53.6,206.6z M50.3,210.6h-1.2v-5.2l0-0.6h-1.6v0.6h1v5.2h-1.3v0.6h3.1V210.6z M44,210.7c0.8,0,1-0.8,1-1.8
		c0-1-0.3-1.8-1-1.8c-0.8,0-1,0.8-1,1.8C43,209.9,43.3,210.7,44,210.7z M44,206.6c0.7,0,1.2,0.5,1.5,1.2c0.1,0.4,0.2,0.7,0.2,1.1
		c0,1.3-0.5,2.3-1.6,2.3c-1.1,0-1.6-1-1.6-2.3C42.4,207.6,42.9,206.6,44,206.6z M39.5,206.6c-0.5,0-1,0.3-1.3,0.7l0-0.6v-1.8h-0.6
		v6.3h0.6v-2.4c0-1,0.4-1.6,1.2-1.6c0.5,0,0.8,0.4,0.8,1v3h0.6v-3C40.8,207.2,40.3,206.6,39.5,206.6z M34.2,207.9l-0.6,2.2l-0.5-3.5
		h-0.6l0.7,4.5h0.6l0.7-2.4l0.7,2.4h0.6l0.7-4.5h-0.6l-0.5,3.5l-0.6-2.2H34.2z M25,207.1c0.6,0,1,0.6,1,1.4h-2.1
		C24,207.7,24.3,207.1,25,207.1z M25,206.6c-0.7,0-1.3,0.5-1.5,1.2c-0.1,0.4-0.2,0.7-0.2,1.2c0,0.8,0.2,1.6,0.8,2
		c0.3,0.2,0.6,0.3,1,0.3c0.8,0,1.4-0.6,1.6-1.5h-0.6c-0.1,0.6-0.5,0.9-1,0.9c-0.7,0-1.1-0.7-1.1-1.6h2.8
		C26.6,207.7,26.1,206.6,25,206.6z M20.4,206.6c-0.5,0-1,0.3-1.3,0.7l0-0.6v-1.8h-0.6v6.3h0.6v-2.4c0-1,0.4-1.6,1.2-1.6
		c0.5,0,0.8,0.4,0.8,1v3h0.6v-3C21.7,207.2,21.2,206.6,20.4,206.6z M16.8,210.4c-0.2,0.1-0.6,0.2-0.8,0.2c-0.4,0-0.6-0.2-0.6-0.6
		v-2.7h1.3v-0.5h-1.3v-1.5h-0.6v1.5h-1.1v0.5h1.1v2.7c0,0.7,0.4,1.2,1.2,1.2c0.3,0,0.7-0.1,0.9-0.2L16.8,210.4z"/>
	<path style="clip-path:url(#SVGID_00000119077726726782895110000006420944035975550646_);fill:#0B0B0A;" d="M159.9,199.6
		c-0.2,0.1-0.6,0.2-0.8,0.2c-0.4,0-0.6-0.2-0.6-0.6v-2.7h1.4v-0.5h-1.4v-1.5h-0.6v1.5h-1.1v0.5h1.1v2.7c0,0.7,0.4,1.2,1.2,1.2
		c0.3,0,0.7-0.1,0.9-0.2L159.9,199.6z M153.9,195.8c-0.5,0-1,0.3-1.3,0.7l0-0.6v-1.8h-0.6v6.3h0.6v-2.4c0-1,0.4-1.6,1.2-1.6
		c0.5,0,0.8,0.4,0.8,1v3h0.6v-3C155.2,196.4,154.8,195.8,153.9,195.8 M148.9,199.9c-0.7,0-1.1-0.8-1.1-1.8c0-1,0.3-1.8,1.1-1.8
		c0.7,0,1,0.7,1,1.8C149.9,199.2,149.5,199.9,148.9,199.9 M149.8,195.9v0.6c-0.2-0.4-0.6-0.7-1.1-0.7c-1,0-1.6,1-1.6,2.3
		c0,1.3,0.6,2.3,1.6,2.3c0.5,0,0.9-0.3,1.1-0.7v0.7c0,0.8-0.3,1.1-1,1.1c-0.4,0-0.9-0.2-0.9-0.7h-0.6c0,0.5,0.4,0.9,0.8,1.1
		c0.2,0.1,0.5,0.1,0.7,0.1c1,0,1.5-0.6,1.5-1.7v-2.3l0-2.2H149.8z M145.7,199.8h-1.2v-3.9h-1.6v0.6h1v3.4h-1.2v0.6h3V199.8z
		 M144.1,195.2c0.3,0,0.4-0.2,0.4-0.5c0-0.2-0.2-0.4-0.4-0.4c-0.3,0-0.5,0.2-0.5,0.4C143.7,195,143.9,195.2,144.1,195.2 M141,199.8
		h-1.2v-5.2l0-0.6h-1.6v0.6h1v5.2h-1.3v0.6h3.1V199.8z M129.9,199.9c0.8,0,1-0.8,1-1.8c0-1-0.3-1.8-1-1.8c-0.8,0-1,0.8-1,1.8
		C128.8,199.1,129.1,199.9,129.9,199.9 M129.9,195.8c0.7,0,1.2,0.5,1.5,1.2c0.1,0.4,0.2,0.7,0.2,1.1c0,1.3-0.5,2.3-1.6,2.3
		c-1.1,0-1.6-1-1.6-2.3C128.3,196.8,128.8,195.8,129.9,195.8 M126.5,199.6c-0.2,0.1-0.6,0.2-0.8,0.2c-0.4,0-0.6-0.2-0.6-0.6v-2.7
		h1.3v-0.5h-1.3v-1.5h-0.6v1.5h-1.1v0.5h1.1v2.7c0,0.7,0.4,1.2,1.2,1.2c0.3,0,0.7-0.1,0.9-0.2L126.5,199.6z M113.8,195.9l1.5,4.5
		l-0.5,1.6h0.6l2-6.1h-0.6l-1.1,3.7l-1.2-3.7H113.8z M110.7,199.9c-0.7,0-1.1-0.8-1.1-1.8c0-1,0.3-1.8,1.1-1.8c0.7,0,1,0.7,1,1.8
		C111.7,199.2,111.4,199.9,110.7,199.9 M111.7,195.9v0.6c-0.2-0.4-0.6-0.7-1.1-0.7c-1,0-1.6,1-1.6,2.3c0,1.3,0.6,2.3,1.6,2.3
		c0.5,0,0.9-0.3,1.1-0.7v0.7c0,0.8-0.3,1.1-1,1.1c-0.4,0-0.9-0.2-0.9-0.7h-0.6c0,0.5,0.4,0.9,0.8,1.1c0.2,0.1,0.5,0.1,0.7,0.1
		c1,0,1.5-0.6,1.5-1.7v-2.3l0-2.2H111.7z M106.6,195.8c-0.5,0-0.9,0.2-1.1,0.7v-0.6h-0.6v4.5h0.6v-2.4c0-0.9,0.4-1.6,1-1.6
		c0.4,0,0.7,0.3,0.7,0.9h0.6C107.7,196.3,107.2,195.8,106.6,195.8 M101.3,196.3c0.6,0,1,0.6,1,1.4h-2.1
		C100.3,196.9,100.6,196.3,101.3,196.3 M101.3,195.8c-0.7,0-1.3,0.5-1.5,1.2c-0.1,0.4-0.2,0.7-0.2,1.2c0,0.8,0.2,1.6,0.8,2
		c0.3,0.2,0.6,0.3,1,0.3c0.8,0,1.4-0.6,1.6-1.5h-0.6c-0.1,0.6-0.5,0.9-1,0.9c-0.7,0-1.1-0.7-1.1-1.6h2.8
		C103,196.9,102.4,195.8,101.3,195.8 M96.8,195.8c-0.5,0-1,0.3-1.3,0.7l0-0.6h-0.6v4.5h0.6v-2.4c0-1,0.4-1.6,1.2-1.6
		c0.5,0,0.8,0.4,0.8,1v3h0.6v-3C98.1,196.4,97.6,195.8,96.8,195.8 M91.8,196.3c0.6,0,1,0.6,1,1.4h-2.1
		C90.7,196.9,91.1,196.3,91.8,196.3 M91.8,195.8c-0.7,0-1.3,0.5-1.5,1.2c-0.1,0.4-0.2,0.7-0.2,1.2c0,0.8,0.2,1.6,0.8,2
		c0.3,0.2,0.6,0.3,1,0.3c0.8,0,1.4-0.6,1.6-1.5h-0.6c-0.1,0.6-0.5,0.9-1,0.9c-0.7,0-1.1-0.7-1.1-1.6h2.8
		C93.4,196.9,92.9,195.8,91.8,195.8 M82.4,195.8c-0.5,0-1,0.3-1.3,0.7l0-0.6v-1.8h-0.6v6.3h0.6v-2.4c0-1,0.4-1.6,1.2-1.6
		c0.5,0,0.8,0.4,0.8,1v3h0.6v-3C83.7,196.4,83.2,195.8,82.4,195.8 M77.3,199.9c-0.7,0-1.1-0.8-1.1-1.8c0-1,0.3-1.8,1.1-1.8
		c0.7,0,1,0.7,1,1.8C78.3,199.2,78,199.9,77.3,199.9 M78.3,195.9v0.6c-0.2-0.4-0.6-0.7-1.1-0.7c-1,0-1.6,1-1.6,2.3
		c0,1.3,0.6,2.3,1.6,2.3c0.5,0,0.9-0.3,1.1-0.7v0.7c0,0.8-0.3,1.1-1,1.1c-0.4,0-0.9-0.2-0.9-0.7h-0.6c0,0.5,0.4,0.9,0.8,1.1
		c0.2,0.1,0.5,0.1,0.7,0.1c1,0,1.5-0.6,1.5-1.7v-2.3l0-2.2H78.3z M73.6,198.3c0,1-0.4,1.6-1.2,1.6c-0.5,0-0.8-0.4-0.8-1v-3h-0.6v3
		c0,0.9,0.5,1.6,1.3,1.6c0.5,0,1-0.3,1.3-0.7l0,0.6h0.6v-4.5h-0.6V198.3z M67.9,199.9c0.8,0,1-0.8,1-1.8c0-1-0.3-1.8-1-1.8
		c-0.8,0-1,0.8-1,1.8C66.8,199.1,67.1,199.9,67.9,199.9 M67.9,195.8c0.7,0,1.2,0.5,1.5,1.2c0.1,0.4,0.2,0.7,0.2,1.1
		c0,1.3-0.5,2.3-1.6,2.3c-1.1,0-1.6-1-1.6-2.3C66.2,196.8,66.8,195.8,67.9,195.8 M63.4,195.8c-0.5,0-1,0.3-1.3,0.7l0-0.6h-0.6v4.5
		h0.6v-2.4c0-1,0.4-1.6,1.2-1.6c0.5,0,0.8,0.4,0.8,1v3h0.6v-3C64.7,196.4,64.2,195.8,63.4,195.8 M58.4,196.3c0.6,0,1,0.6,1,1.4h-2.1
		C57.4,196.9,57.7,196.3,58.4,196.3 M58.4,195.8c-0.7,0-1.3,0.5-1.5,1.2c-0.1,0.4-0.2,0.7-0.2,1.2c0,0.8,0.2,1.6,0.8,2
		c0.3,0.2,0.6,0.3,1,0.3c0.8,0,1.4-0.6,1.6-1.5h-0.6c-0.1,0.6-0.4,0.9-1,0.9c-0.7,0-1.1-0.7-1.1-1.6H60
		C60,196.9,59.5,195.8,58.4,195.8 M48.8,196.3c0.6,0,1,0.6,1,1.4h-2.1C47.8,196.9,48.2,196.3,48.8,196.3 M48.8,195.8
		c-0.7,0-1.3,0.5-1.5,1.2c-0.1,0.4-0.2,0.7-0.2,1.2c0,0.8,0.2,1.6,0.8,2c0.3,0.2,0.6,0.3,1,0.3c0.8,0,1.4-0.6,1.6-1.5h-0.6
		c-0.1,0.6-0.4,0.9-1,0.9c-0.7,0-1.1-0.7-1.1-1.6h2.8C50.5,196.9,50,195.8,48.8,195.8 M45,195.8c-0.4,0-0.7,0.3-0.8,0.7
		c-0.1-0.4-0.3-0.7-0.7-0.7c-0.3,0-0.6,0.2-0.8,0.7l0-0.6h-0.5l0,4.5h0.6v-2.7c0-0.7,0.2-1.3,0.6-1.3c0.2,0,0.3,0.1,0.3,0.2
		c0,0.1,0.1,0.4,0.1,0.7v3.1h0.6v-2.7c0-0.8,0.1-1.3,0.6-1.3c0.3,0,0.4,0.3,0.4,0.8v3.3h0.6v-3.3C45.9,196.3,45.6,195.8,45,195.8
		 M40.2,198.3c0,1-0.4,1.6-1.2,1.6c-0.5,0-0.8-0.4-0.8-1v-3h-0.6v3c0,0.9,0.5,1.6,1.3,1.6c0.5,0,1-0.3,1.3-0.7l0,0.6h0.6v-4.5h-0.6
		V198.3z M36,197c-0.1-0.8-0.7-1.2-1.5-1.2c-0.8,0-1.4,0.5-1.4,1.2c0,0.5,0.3,0.8,0.9,1.1l1,0.5c0.3,0.2,0.5,0.3,0.5,0.7
		c0,0.4-0.4,0.7-0.9,0.7c-0.5,0-0.9-0.3-1.1-0.8h-0.6c0.2,0.9,0.9,1.4,1.7,1.4c0.5,0,1-0.2,1.3-0.6c0.1-0.2,0.2-0.4,0.2-0.6
		c0-0.6-0.3-0.9-0.8-1.2l-1-0.5c-0.4-0.2-0.6-0.3-0.6-0.6c0-0.4,0.4-0.6,0.9-0.6c0.4,0,0.8,0.2,0.9,0.7H36z M30,195.8
		c-0.5,0-1,0.3-1.3,0.7l0-0.6h-0.6v4.5h0.6v-2.4c0-1,0.4-1.6,1.2-1.6c0.5,0,0.8,0.4,0.8,1v3h0.6v-3C31.3,196.4,30.8,195.8,30,195.8
		 M24.9,199.9c0.8,0,1-0.8,1-1.8c0-1-0.3-1.8-1-1.8c-0.8,0-1,0.8-1,1.8C23.9,199.1,24.2,199.9,24.9,199.9 M24.9,195.8
		c0.7,0,1.2,0.5,1.5,1.2c0.1,0.4,0.2,0.7,0.2,1.1c0,1.3-0.5,2.3-1.6,2.3c-1.1,0-1.6-1-1.6-2.3C23.3,196.8,23.9,195.8,24.9,195.8
		 M20.3,199.9c-0.7,0-1.1-0.8-1.1-1.8c0-1,0.4-1.8,1.1-1.8c0.5,0,0.8,0.4,0.9,1h0.6c-0.1-0.9-0.7-1.5-1.5-1.5
		c-0.7,0-1.3,0.4-1.5,1.2c-0.1,0.4-0.2,0.7-0.2,1.2v0c0,0.9,0.3,1.6,0.8,2c0.3,0.2,0.6,0.3,0.9,0.3c0.8,0,1.4-0.6,1.5-1.5h-0.6
		C21.1,199.5,20.8,199.9,20.3,199.9"/>
	
		<path style="clip-path:url(#SVGID_00000119077726726782895110000006420944035975550646_);fill:none;stroke:#0B0B0A;stroke-width:0.15;" d="
		M159.9,199.6c-0.2,0.1-0.6,0.2-0.8,0.2c-0.4,0-0.6-0.2-0.6-0.6v-2.7h1.4v-0.5h-1.4v-1.5h-0.6v1.5h-1.1v0.5h1.1v2.7
		c0,0.7,0.4,1.2,1.2,1.2c0.3,0,0.7-0.1,0.9-0.2L159.9,199.6z M153.9,195.8c-0.5,0-1,0.3-1.3,0.7l0-0.6v-1.8h-0.6v6.3h0.6v-2.4
		c0-1,0.4-1.6,1.2-1.6c0.5,0,0.8,0.4,0.8,1v3h0.6v-3C155.2,196.4,154.8,195.8,153.9,195.8z M148.9,199.9c-0.7,0-1.1-0.8-1.1-1.8
		c0-1,0.3-1.8,1.1-1.8c0.7,0,1,0.7,1,1.8C149.9,199.2,149.5,199.9,148.9,199.9z M149.8,195.9v0.6c-0.2-0.4-0.6-0.7-1.1-0.7
		c-1,0-1.6,1-1.6,2.3c0,1.3,0.6,2.3,1.6,2.3c0.5,0,0.9-0.3,1.1-0.7v0.7c0,0.8-0.3,1.1-1,1.1c-0.4,0-0.9-0.2-0.9-0.7h-0.6
		c0,0.5,0.4,0.9,0.8,1.1c0.2,0.1,0.5,0.1,0.7,0.1c1,0,1.5-0.6,1.5-1.7v-2.3l0-2.2H149.8z M145.7,199.8h-1.2v-3.9h-1.6v0.6h1v3.4
		h-1.2v0.6h3V199.8z M144.1,195.2c0.3,0,0.4-0.2,0.4-0.5c0-0.2-0.2-0.4-0.4-0.4c-0.3,0-0.5,0.2-0.5,0.4
		C143.7,195,143.9,195.2,144.1,195.2z M141,199.8h-1.2v-5.2l0-0.6h-1.6v0.6h1v5.2h-1.3v0.6h3.1V199.8z M129.9,199.9
		c0.8,0,1-0.8,1-1.8c0-1-0.3-1.8-1-1.8c-0.8,0-1,0.8-1,1.8C128.8,199.1,129.1,199.9,129.9,199.9z M129.9,195.8
		c0.7,0,1.2,0.5,1.5,1.2c0.1,0.4,0.2,0.7,0.2,1.1c0,1.3-0.5,2.3-1.6,2.3c-1.1,0-1.6-1-1.6-2.3C128.3,196.8,128.8,195.8,129.9,195.8z
		 M126.5,199.6c-0.2,0.1-0.6,0.2-0.8,0.2c-0.4,0-0.6-0.2-0.6-0.6v-2.7h1.3v-0.5h-1.3v-1.5h-0.6v1.5h-1.1v0.5h1.1v2.7
		c0,0.7,0.4,1.2,1.2,1.2c0.3,0,0.7-0.1,0.9-0.2L126.5,199.6z M113.8,195.9l1.5,4.5l-0.5,1.6h0.6l2-6.1h-0.6l-1.1,3.7l-1.2-3.7H113.8
		z M110.7,199.9c-0.7,0-1.1-0.8-1.1-1.8c0-1,0.3-1.8,1.1-1.8c0.7,0,1,0.7,1,1.8C111.7,199.2,111.4,199.9,110.7,199.9z M111.7,195.9
		v0.6c-0.2-0.4-0.6-0.7-1.1-0.7c-1,0-1.6,1-1.6,2.3c0,1.3,0.6,2.3,1.6,2.3c0.5,0,0.9-0.3,1.1-0.7v0.7c0,0.8-0.3,1.1-1,1.1
		c-0.4,0-0.9-0.2-0.9-0.7h-0.6c0,0.5,0.4,0.9,0.8,1.1c0.2,0.1,0.5,0.1,0.7,0.1c1,0,1.5-0.6,1.5-1.7v-2.3l0-2.2H111.7z M106.6,195.8
		c-0.5,0-0.9,0.2-1.1,0.7v-0.6h-0.6v4.5h0.6v-2.4c0-0.9,0.4-1.6,1-1.6c0.4,0,0.7,0.3,0.7,0.9h0.6
		C107.7,196.3,107.2,195.8,106.6,195.8z M101.3,196.3c0.6,0,1,0.6,1,1.4h-2.1C100.3,196.9,100.6,196.3,101.3,196.3z M101.3,195.8
		c-0.7,0-1.3,0.5-1.5,1.2c-0.1,0.4-0.2,0.7-0.2,1.2c0,0.8,0.2,1.6,0.8,2c0.3,0.2,0.6,0.3,1,0.3c0.8,0,1.4-0.6,1.6-1.5h-0.6
		c-0.1,0.6-0.5,0.9-1,0.9c-0.7,0-1.1-0.7-1.1-1.6h2.8C103,196.9,102.4,195.8,101.3,195.8z M96.8,195.8c-0.5,0-1,0.3-1.3,0.7l0-0.6
		h-0.6v4.5h0.6v-2.4c0-1,0.4-1.6,1.2-1.6c0.5,0,0.8,0.4,0.8,1v3h0.6v-3C98.1,196.4,97.6,195.8,96.8,195.8z M91.8,196.3
		c0.6,0,1,0.6,1,1.4h-2.1C90.7,196.9,91.1,196.3,91.8,196.3z M91.8,195.8c-0.7,0-1.3,0.5-1.5,1.2c-0.1,0.4-0.2,0.7-0.2,1.2
		c0,0.8,0.2,1.6,0.8,2c0.3,0.2,0.6,0.3,1,0.3c0.8,0,1.4-0.6,1.6-1.5h-0.6c-0.1,0.6-0.5,0.9-1,0.9c-0.7,0-1.1-0.7-1.1-1.6h2.8
		C93.4,196.9,92.9,195.8,91.8,195.8z M82.4,195.8c-0.5,0-1,0.3-1.3,0.7l0-0.6v-1.8h-0.6v6.3h0.6v-2.4c0-1,0.4-1.6,1.2-1.6
		c0.5,0,0.8,0.4,0.8,1v3h0.6v-3C83.7,196.4,83.2,195.8,82.4,195.8z M77.3,199.9c-0.7,0-1.1-0.8-1.1-1.8c0-1,0.3-1.8,1.1-1.8
		c0.7,0,1,0.7,1,1.8C78.3,199.2,78,199.9,77.3,199.9z M78.3,195.9v0.6c-0.2-0.4-0.6-0.7-1.1-0.7c-1,0-1.6,1-1.6,2.3
		c0,1.3,0.6,2.3,1.6,2.3c0.5,0,0.9-0.3,1.1-0.7v0.7c0,0.8-0.3,1.1-1,1.1c-0.4,0-0.9-0.2-0.9-0.7h-0.6c0,0.5,0.4,0.9,0.8,1.1
		c0.2,0.1,0.5,0.1,0.7,0.1c1,0,1.5-0.6,1.5-1.7v-2.3l0-2.2H78.3z M73.6,198.3c0,1-0.4,1.6-1.2,1.6c-0.5,0-0.8-0.4-0.8-1v-3h-0.6v3
		c0,0.9,0.5,1.6,1.3,1.6c0.5,0,1-0.3,1.3-0.7l0,0.6h0.6v-4.5h-0.6V198.3z M67.9,199.9c0.8,0,1-0.8,1-1.8c0-1-0.3-1.8-1-1.8
		c-0.8,0-1,0.8-1,1.8C66.8,199.1,67.1,199.9,67.9,199.9z M67.9,195.8c0.7,0,1.2,0.5,1.5,1.2c0.1,0.4,0.2,0.7,0.2,1.1
		c0,1.3-0.5,2.3-1.6,2.3c-1.1,0-1.6-1-1.6-2.3C66.2,196.8,66.8,195.8,67.9,195.8z M63.4,195.8c-0.5,0-1,0.3-1.3,0.7l0-0.6h-0.6v4.5
		h0.6v-2.4c0-1,0.4-1.6,1.2-1.6c0.5,0,0.8,0.4,0.8,1v3h0.6v-3C64.7,196.4,64.2,195.8,63.4,195.8z M58.4,196.3c0.6,0,1,0.6,1,1.4
		h-2.1C57.4,196.9,57.7,196.3,58.4,196.3z M58.4,195.8c-0.7,0-1.3,0.5-1.5,1.2c-0.1,0.4-0.2,0.7-0.2,1.2c0,0.8,0.2,1.6,0.8,2
		c0.3,0.2,0.6,0.3,1,0.3c0.8,0,1.4-0.6,1.6-1.5h-0.6c-0.1,0.6-0.4,0.9-1,0.9c-0.7,0-1.1-0.7-1.1-1.6H60
		C60,196.9,59.5,195.8,58.4,195.8z M48.8,196.3c0.6,0,1,0.6,1,1.4h-2.1C47.8,196.9,48.2,196.3,48.8,196.3z M48.8,195.8
		c-0.7,0-1.3,0.5-1.5,1.2c-0.1,0.4-0.2,0.7-0.2,1.2c0,0.8,0.2,1.6,0.8,2c0.3,0.2,0.6,0.3,1,0.3c0.8,0,1.4-0.6,1.6-1.5h-0.6
		c-0.1,0.6-0.4,0.9-1,0.9c-0.7,0-1.1-0.7-1.1-1.6h2.8C50.5,196.9,50,195.8,48.8,195.8z M45,195.8c-0.4,0-0.7,0.3-0.8,0.7
		c-0.1-0.4-0.3-0.7-0.7-0.7c-0.3,0-0.6,0.2-0.8,0.7l0-0.6h-0.5l0,4.5h0.6v-2.7c0-0.7,0.2-1.3,0.6-1.3c0.2,0,0.3,0.1,0.3,0.2
		c0,0.1,0.1,0.4,0.1,0.7v3.1h0.6v-2.7c0-0.8,0.1-1.3,0.6-1.3c0.3,0,0.4,0.3,0.4,0.8v3.3h0.6v-3.3C45.9,196.3,45.6,195.8,45,195.8z
		 M40.2,198.3c0,1-0.4,1.6-1.2,1.6c-0.5,0-0.8-0.4-0.8-1v-3h-0.6v3c0,0.9,0.5,1.6,1.3,1.6c0.5,0,1-0.3,1.3-0.7l0,0.6h0.6v-4.5h-0.6
		V198.3z M36,197c-0.1-0.8-0.7-1.2-1.5-1.2c-0.8,0-1.4,0.5-1.4,1.2c0,0.5,0.3,0.8,0.9,1.1l1,0.5c0.3,0.2,0.5,0.3,0.5,0.7
		c0,0.4-0.4,0.7-0.9,0.7c-0.5,0-0.9-0.3-1.1-0.8h-0.6c0.2,0.9,0.9,1.4,1.7,1.4c0.5,0,1-0.2,1.3-0.6c0.1-0.2,0.2-0.4,0.2-0.6
		c0-0.6-0.3-0.9-0.8-1.2l-1-0.5c-0.4-0.2-0.6-0.3-0.6-0.6c0-0.4,0.4-0.6,0.9-0.6c0.4,0,0.8,0.2,0.9,0.7H36z M30,195.8
		c-0.5,0-1,0.3-1.3,0.7l0-0.6h-0.6v4.5h0.6v-2.4c0-1,0.4-1.6,1.2-1.6c0.5,0,0.8,0.4,0.8,1v3h0.6v-3C31.3,196.4,30.8,195.8,30,195.8z
		 M24.9,199.9c0.8,0,1-0.8,1-1.8c0-1-0.3-1.8-1-1.8c-0.8,0-1,0.8-1,1.8C23.9,199.1,24.2,199.9,24.9,199.9z M24.9,195.8
		c0.7,0,1.2,0.5,1.5,1.2c0.1,0.4,0.2,0.7,0.2,1.1c0,1.3-0.5,2.3-1.6,2.3c-1.1,0-1.6-1-1.6-2.3C23.3,196.8,23.9,195.8,24.9,195.8z
		 M20.3,199.9c-0.7,0-1.1-0.8-1.1-1.8c0-1,0.4-1.8,1.1-1.8c0.5,0,0.8,0.4,0.9,1h0.6c-0.1-0.9-0.7-1.5-1.5-1.5
		c-0.7,0-1.3,0.4-1.5,1.2c-0.1,0.4-0.2,0.7-0.2,1.2v0c0,0.9,0.3,1.6,0.8,2c0.3,0.2,0.6,0.3,0.9,0.3c0.8,0,1.4-0.6,1.5-1.5h-0.6
		C21.1,199.5,20.8,199.9,20.3,199.9z"/>
	<path style="clip-path:url(#SVGID_00000119077726726782895110000006420944035975550646_);fill:#0B0B0A;" d="M153.8,189.1
		c-0.7,0-1.1-0.8-1.1-1.8c0-1,0.3-1.8,1.1-1.8c0.7,0,1,0.7,1,1.8C154.8,188.4,154.4,189.1,153.8,189.1 M154.8,185.7
		c-0.2-0.4-0.6-0.7-1.1-0.7c-1,0-1.6,1-1.6,2.3c0,1.3,0.6,2.3,1.6,2.3c0.5,0,0.9-0.3,1.1-0.7l0,0.6h0.6v-6.3h-0.6V185.7z M150.5,189
		h-1.2v-5.2l0-0.6h-1.6v0.6h1v5.2h-1.3v0.6h3.1V189z M144.7,185c-0.5,0-0.9,0.2-1.1,0.7v-0.6H143v4.5h0.6v-2.4c0-0.9,0.4-1.6,1-1.6
		c0.4,0,0.7,0.3,0.7,0.9h0.6C145.9,185.5,145.4,185,144.7,185 M139.4,189.1c0.8,0,1-0.8,1-1.8c0-1-0.3-1.8-1-1.8c-0.8,0-1,0.8-1,1.8
		C138.4,188.3,138.7,189.1,139.4,189.1 M139.4,185c0.7,0,1.2,0.5,1.5,1.2c0.1,0.4,0.2,0.7,0.2,1.1c0,1.3-0.5,2.3-1.6,2.3
		c-1.1,0-1.6-1-1.6-2.3C137.8,186,138.3,185,139.4,185 M134.4,186.3l-0.6,2.2l-0.5-3.5h-0.6l0.7,4.5h0.6l0.7-2.4l0.7,2.4h0.6
		l0.7-4.5h-0.6l-0.5,3.5l-0.6-2.2H134.4z M125.1,185.5c0.6,0,1,0.6,1,1.4H124C124.1,186.1,124.5,185.5,125.1,185.5 M125.1,185
		c-0.7,0-1.3,0.5-1.5,1.2c-0.1,0.4-0.2,0.7-0.2,1.2c0,0.8,0.2,1.6,0.8,2c0.3,0.2,0.6,0.3,1,0.3c0.8,0,1.4-0.6,1.6-1.5h-0.6
		c-0.1,0.6-0.5,0.9-1,0.9c-0.7,0-1.1-0.7-1.1-1.6h2.8C126.8,186.1,126.3,185,125.1,185 M120.5,185c-0.5,0-1,0.3-1.3,0.7l0-0.6v-1.8
		h-0.6v6.3h0.6v-2.4c0-1,0.4-1.6,1.2-1.6c0.6,0,0.8,0.4,0.8,1v3h0.6v-3C121.8,185.6,121.4,185,120.5,185 M117,188.8
		c-0.2,0.1-0.6,0.2-0.8,0.2c-0.4,0-0.6-0.2-0.6-0.6v-2.7h1.3v-0.5h-1.3v-1.5H115v1.5h-1.1v0.5h1.1v2.7c0,0.7,0.4,1.2,1.2,1.2
		c0.3,0,0.7-0.1,0.9-0.2L117,188.8z M106.3,185c-0.5,0-1,0.3-1.3,0.7l0-0.6h-0.6v4.5h0.6v-2.4c0-1,0.4-1.6,1.2-1.6
		c0.5,0,0.8,0.4,0.8,1v3h0.6v-3C107.6,185.6,107.1,185,106.3,185 M102.8,189h-1.2V185H100v0.6h1v3.4h-1.2v0.6h3V189z M101.2,184.4
		c0.3,0,0.4-0.2,0.4-0.5c0-0.2-0.2-0.4-0.4-0.4c-0.3,0-0.4,0.2-0.4,0.4C100.8,184.2,101,184.4,101.2,184.4 M93.2,186.2
		c-0.1-0.8-0.7-1.2-1.5-1.2c-0.8,0-1.4,0.5-1.4,1.2c0,0.5,0.3,0.8,0.9,1.1l1,0.5c0.3,0.2,0.5,0.3,0.5,0.7c0,0.4-0.4,0.7-0.9,0.7
		c-0.5,0-0.9-0.3-1.1-0.8h-0.6c0.2,0.9,0.9,1.4,1.7,1.4c0.5,0,1-0.2,1.3-0.6c0.1-0.2,0.2-0.4,0.2-0.6c0-0.6-0.3-0.9-0.8-1.2l-1-0.5
		c-0.4-0.2-0.6-0.3-0.6-0.6c0-0.4,0.4-0.6,0.9-0.6c0.4,0,0.8,0.2,0.9,0.7H93.2z M87,185.5c0.6,0,1,0.6,1,1.4h-2.1
		C86,186.1,86.3,185.5,87,185.5 M87,185c-0.7,0-1.3,0.5-1.5,1.2c-0.1,0.4-0.2,0.7-0.2,1.2c0,0.8,0.2,1.6,0.8,2
		c0.3,0.2,0.6,0.3,1,0.3c0.8,0,1.4-0.6,1.6-1.5h-0.6c-0.1,0.6-0.5,0.9-1,0.9c-0.7,0-1.1-0.7-1.1-1.6h2.8C88.6,186.1,88.1,185,87,185
		 M82.2,186.8l-1-1.7h-0.6l1.3,2.2l-1.3,2.3h0.6l1-1.8l1,1.8h0.6l-1.3-2.3l1.3-2.2h-0.6L82.2,186.8z M77.4,189.1c0.8,0,1-0.8,1-1.8
		c0-1-0.3-1.8-1-1.8c-0.8,0-1,0.8-1,1.8C76.4,188.3,76.7,189.1,77.4,189.1 M77.4,185c0.7,0,1.2,0.5,1.5,1.2c0.1,0.4,0.2,0.7,0.2,1.1
		c0,1.3-0.5,2.3-1.6,2.3c-1.1,0-1.6-1-1.6-2.3C75.8,186,76.3,185,77.4,185 M72.6,189.1c-0.7,0-1-0.7-1-1.8c0-1.1,0.4-1.8,1-1.8
		c0.7,0,1.1,0.8,1.1,1.8C73.7,188.3,73.3,189.1,72.6,189.1 M72.7,185c-0.4,0-0.8,0.3-1.1,0.7v-2.4H71v6.3h0.6l0-0.6
		c0.2,0.4,0.6,0.7,1.1,0.7c1,0,1.6-1,1.6-2.3C74.2,186,73.7,185,72.7,185 M68.1,185c-0.5,0-1,0.3-1.3,0.7l0-0.6h-0.6v4.5h0.6v-2.4
		c0-1,0.4-1.6,1.2-1.6c0.5,0,0.8,0.4,0.8,1v3h0.6v-3C69.4,185.6,69,185,68.1,185 M64.6,189h-1.2V185h-1.6v0.6h1v3.4h-1.2v0.6h3V189z
		 M63,184.4c0.3,0,0.4-0.2,0.4-0.5c0-0.2-0.2-0.4-0.4-0.4c-0.3,0-0.5,0.2-0.5,0.4C62.6,184.2,62.8,184.4,63,184.4 M53.6,185.5
		c0.6,0,1,0.6,1,1.4h-2.1C52.6,186.1,52.9,185.5,53.6,185.5 M53.6,185c-0.7,0-1.3,0.5-1.5,1.2c-0.1,0.4-0.2,0.7-0.2,1.2
		c0,0.8,0.2,1.6,0.8,2c0.3,0.2,0.6,0.3,1,0.3c0.8,0,1.4-0.6,1.6-1.5h-0.6c-0.1,0.6-0.5,0.9-1,0.9c-0.7,0-1.1-0.7-1.1-1.6h2.8
		C55.3,186.1,54.7,185,53.6,185 M49,185c-0.5,0-1,0.3-1.3,0.7l0-0.6v-1.8h-0.6v6.3h0.6v-2.4c0-1,0.4-1.6,1.2-1.6
		c0.5,0,0.8,0.4,0.8,1v3h0.6v-3C50.3,185.6,49.8,185,49,185 M45.4,188.8c-0.2,0.1-0.6,0.2-0.8,0.2c-0.4,0-0.6-0.2-0.6-0.6v-2.7h1.4
		v-0.5H44v-1.5h-0.6v1.5h-1.1v0.5h1.1v2.7c0,0.7,0.4,1.2,1.2,1.2c0.3,0,0.7-0.1,0.9-0.2L45.4,188.8z M36,189h-1.2v-5.2l0-0.6h-1.6
		v0.6h1v5.2h-1.3v0.6H36V189z M31.2,189H30v-5.2l0-0.6h-1.6v0.6h1v5.2h-1.3v0.6h3.1V189z M25.7,187.4h-1.6l0.8-3.3L25.7,187.4z
		 M23.6,189.6L24,188h1.9l0.4,1.6h0.6l-1.6-6.3h-0.7l-1.6,6.3H23.6z"/>
	
		<path style="clip-path:url(#SVGID_00000119077726726782895110000006420944035975550646_);fill:none;stroke:#0B0B0A;stroke-width:0.15;" d="
		M153.8,189.1c-0.7,0-1.1-0.8-1.1-1.8c0-1,0.3-1.8,1.1-1.8c0.7,0,1,0.7,1,1.8C154.8,188.4,154.4,189.1,153.8,189.1z M154.8,185.7
		c-0.2-0.4-0.6-0.7-1.1-0.7c-1,0-1.6,1-1.6,2.3c0,1.3,0.6,2.3,1.6,2.3c0.5,0,0.9-0.3,1.1-0.7l0,0.6h0.6v-6.3h-0.6V185.7z M150.5,189
		h-1.2v-5.2l0-0.6h-1.6v0.6h1v5.2h-1.3v0.6h3.1V189z M144.7,185c-0.5,0-0.9,0.2-1.1,0.7v-0.6H143v4.5h0.6v-2.4c0-0.9,0.4-1.6,1-1.6
		c0.4,0,0.7,0.3,0.7,0.9h0.6C145.9,185.5,145.4,185,144.7,185z M139.4,189.1c0.8,0,1-0.8,1-1.8c0-1-0.3-1.8-1-1.8
		c-0.8,0-1,0.8-1,1.8C138.4,188.3,138.7,189.1,139.4,189.1z M139.4,185c0.7,0,1.2,0.5,1.5,1.2c0.1,0.4,0.2,0.7,0.2,1.1
		c0,1.3-0.5,2.3-1.6,2.3c-1.1,0-1.6-1-1.6-2.3C137.8,186,138.3,185,139.4,185z M134.4,186.3l-0.6,2.2l-0.5-3.5h-0.6l0.7,4.5h0.6
		l0.7-2.4l0.7,2.4h0.6l0.7-4.5h-0.6l-0.5,3.5l-0.6-2.2H134.4z M125.1,185.5c0.6,0,1,0.6,1,1.4H124
		C124.1,186.1,124.5,185.5,125.1,185.5z M125.1,185c-0.7,0-1.3,0.5-1.5,1.2c-0.1,0.4-0.2,0.7-0.2,1.2c0,0.8,0.2,1.6,0.8,2
		c0.3,0.2,0.6,0.3,1,0.3c0.8,0,1.4-0.6,1.6-1.5h-0.6c-0.1,0.6-0.5,0.9-1,0.9c-0.7,0-1.1-0.7-1.1-1.6h2.8
		C126.8,186.1,126.3,185,125.1,185z M120.5,185c-0.5,0-1,0.3-1.3,0.7l0-0.6v-1.8h-0.6v6.3h0.6v-2.4c0-1,0.4-1.6,1.2-1.6
		c0.6,0,0.8,0.4,0.8,1v3h0.6v-3C121.8,185.6,121.4,185,120.5,185z M117,188.8c-0.2,0.1-0.6,0.2-0.8,0.2c-0.4,0-0.6-0.2-0.6-0.6v-2.7
		h1.3v-0.5h-1.3v-1.5H115v1.5h-1.1v0.5h1.1v2.7c0,0.7,0.4,1.2,1.2,1.2c0.3,0,0.7-0.1,0.9-0.2L117,188.8z M106.3,185
		c-0.5,0-1,0.3-1.3,0.7l0-0.6h-0.6v4.5h0.6v-2.4c0-1,0.4-1.6,1.2-1.6c0.5,0,0.8,0.4,0.8,1v3h0.6v-3C107.6,185.6,107.1,185,106.3,185
		z M102.8,189h-1.2V185H100v0.6h1v3.4h-1.2v0.6h3V189z M101.2,184.4c0.3,0,0.4-0.2,0.4-0.5c0-0.2-0.2-0.4-0.4-0.4
		c-0.3,0-0.4,0.2-0.4,0.4C100.8,184.2,101,184.4,101.2,184.4z M93.2,186.2c-0.1-0.8-0.7-1.2-1.5-1.2c-0.8,0-1.4,0.5-1.4,1.2
		c0,0.5,0.3,0.8,0.9,1.1l1,0.5c0.3,0.2,0.5,0.3,0.5,0.7c0,0.4-0.4,0.7-0.9,0.7c-0.5,0-0.9-0.3-1.1-0.8h-0.6c0.2,0.9,0.9,1.4,1.7,1.4
		c0.5,0,1-0.2,1.3-0.6c0.1-0.2,0.2-0.4,0.2-0.6c0-0.6-0.3-0.9-0.8-1.2l-1-0.5c-0.4-0.2-0.6-0.3-0.6-0.6c0-0.4,0.4-0.6,0.9-0.6
		c0.4,0,0.8,0.2,0.9,0.7H93.2z M87,185.5c0.6,0,1,0.6,1,1.4h-2.1C86,186.1,86.3,185.5,87,185.5z M87,185c-0.7,0-1.3,0.5-1.5,1.2
		c-0.1,0.4-0.2,0.7-0.2,1.2c0,0.8,0.2,1.6,0.8,2c0.3,0.2,0.6,0.3,1,0.3c0.8,0,1.4-0.6,1.6-1.5h-0.6c-0.1,0.6-0.5,0.9-1,0.9
		c-0.7,0-1.1-0.7-1.1-1.6h2.8C88.6,186.1,88.1,185,87,185z M82.2,186.8l-1-1.7h-0.6l1.3,2.2l-1.3,2.3h0.6l1-1.8l1,1.8h0.6l-1.3-2.3
		l1.3-2.2h-0.6L82.2,186.8z M77.4,189.1c0.8,0,1-0.8,1-1.8c0-1-0.3-1.8-1-1.8c-0.8,0-1,0.8-1,1.8C76.4,188.3,76.7,189.1,77.4,189.1z
		 M77.4,185c0.7,0,1.2,0.5,1.5,1.2c0.1,0.4,0.2,0.7,0.2,1.1c0,1.3-0.5,2.3-1.6,2.3c-1.1,0-1.6-1-1.6-2.3C75.8,186,76.3,185,77.4,185
		z M72.6,189.1c-0.7,0-1-0.7-1-1.8c0-1.1,0.4-1.8,1-1.8c0.7,0,1.1,0.8,1.1,1.8C73.7,188.3,73.3,189.1,72.6,189.1z M72.7,185
		c-0.4,0-0.8,0.3-1.1,0.7v-2.4H71v6.3h0.6l0-0.6c0.2,0.4,0.6,0.7,1.1,0.7c1,0,1.6-1,1.6-2.3C74.2,186,73.7,185,72.7,185z M68.1,185
		c-0.5,0-1,0.3-1.3,0.7l0-0.6h-0.6v4.5h0.6v-2.4c0-1,0.4-1.6,1.2-1.6c0.5,0,0.8,0.4,0.8,1v3h0.6v-3C69.4,185.6,69,185,68.1,185z
		 M64.6,189h-1.2V185h-1.6v0.6h1v3.4h-1.2v0.6h3V189z M63,184.4c0.3,0,0.4-0.2,0.4-0.5c0-0.2-0.2-0.4-0.4-0.4
		c-0.3,0-0.5,0.2-0.5,0.4C62.6,184.2,62.8,184.4,63,184.4z M53.6,185.5c0.6,0,1,0.6,1,1.4h-2.1C52.6,186.1,52.9,185.5,53.6,185.5z
		 M53.6,185c-0.7,0-1.3,0.5-1.5,1.2c-0.1,0.4-0.2,0.7-0.2,1.2c0,0.8,0.2,1.6,0.8,2c0.3,0.2,0.6,0.3,1,0.3c0.8,0,1.4-0.6,1.6-1.5
		h-0.6c-0.1,0.6-0.5,0.9-1,0.9c-0.7,0-1.1-0.7-1.1-1.6h2.8C55.3,186.1,54.7,185,53.6,185z M49,185c-0.5,0-1,0.3-1.3,0.7l0-0.6v-1.8
		h-0.6v6.3h0.6v-2.4c0-1,0.4-1.6,1.2-1.6c0.5,0,0.8,0.4,0.8,1v3h0.6v-3C50.3,185.6,49.8,185,49,185z M45.4,188.8
		c-0.2,0.1-0.6,0.2-0.8,0.2c-0.4,0-0.6-0.2-0.6-0.6v-2.7h1.4v-0.5H44v-1.5h-0.6v1.5h-1.1v0.5h1.1v2.7c0,0.7,0.4,1.2,1.2,1.2
		c0.3,0,0.7-0.1,0.9-0.2L45.4,188.8z M36,189h-1.2v-5.2l0-0.6h-1.6v0.6h1v5.2h-1.3v0.6H36V189z M31.2,189H30v-5.2l0-0.6h-1.6v0.6h1
		v5.2h-1.3v0.6h3.1V189z M25.7,187.4h-1.6l0.8-3.3L25.7,187.4z M23.6,189.6L24,188h1.9l0.4,1.6h0.6l-1.6-6.3h-0.7l-1.6,6.3H23.6z"/>
</g>
<path class="st2" d="M8.5,170.8h4.6v-0.6H8.5V170.8z M18.3,170.8h4.6v-0.6h-4.6V170.8z M28.2,170.8h4.6v-0.6h-4.6V170.8z M38,170.8
	h4.6v-0.6H38V170.8z M47.8,170.8h4.6v-0.6h-4.6V170.8z M57.6,170.8h4.6v-0.6h-4.6V170.8z M67.4,170.8H72v-0.6h-4.6V170.8z
	 M77.3,170.8h4.6v-0.6h-4.6V170.8z M87.1,170.8h4.6v-0.6h-4.6V170.8z M96.9,170.8h4.6v-0.6h-4.6V170.8z M106.7,170.8h4.6v-0.6h-4.6
	V170.8z M116.5,170.8h4.6v-0.6h-4.6V170.8z M126.3,170.8h4.6v-0.6h-4.6V170.8z M136.2,170.8h4.6v-0.6h-4.6V170.8z M146,170.8h4.6
	v-0.6H146V170.8z M155.8,170.8h4.6v-0.6h-4.6V170.8z M165.6,170.8h4.6v-0.6h-4.6V170.8z"/>
<path class="st3" d="M170.2,170.2h-4.6v0.6h4.6V170.2z M160.4,170.2h-4.6v0.6h4.6V170.2z M150.5,170.2H146v0.6h4.6V170.2z
	 M140.7,170.2h-4.6v0.6h4.6V170.2z M130.9,170.2h-4.6v0.6h4.6V170.2z M121.1,170.2h-4.6v0.6h4.6V170.2z M111.3,170.2h-4.6v0.6h4.6
	V170.2z M101.5,170.2h-4.6v0.6h4.6V170.2z M91.6,170.2h-4.6v0.6h4.6V170.2z M81.8,170.2h-4.6v0.6h4.6V170.2z M72,170.2h-4.6v0.6H72
	V170.2z M62.2,170.2h-4.6v0.6h4.6V170.2z M52.4,170.2h-4.6v0.6h4.6V170.2z M42.5,170.2H38v0.6h4.6V170.2z M32.7,170.2h-4.6v0.6h4.6
	V170.2z M22.9,170.2h-4.6v0.6h4.6V170.2z M13.1,170.2H8.5v0.6h4.6V170.2z"/>
<path class="st2" d="M10.8,224h4.4v-0.6h-4.4V224z M20.4,224h4.4v-0.6h-4.4V224z M29.9,224h4.4v-0.6h-4.4V224z M39.4,224h4.4v-0.6
	h-4.4V224z M49,224h4.4v-0.6H49V224z M58.5,224H63v-0.6h-4.4V224z M68.1,224h4.4v-0.6h-4.4V224z M77.6,224H82v-0.6h-4.4V224z
	 M87.1,224h4.4v-0.6h-4.4V224z M96.7,224h4.4v-0.6h-4.4V224z M106.2,224h4.4v-0.6h-4.4V224z M115.8,224h4.4v-0.6h-4.4V224z
	 M125.3,224h4.4v-0.6h-4.4V224z M134.8,224h4.4v-0.6h-4.4V224z M144.4,224h4.4v-0.6h-4.4V224z M153.9,224h4.4v-0.6h-4.4V224z
	 M163.5,224h4.4v-0.6h-4.4V224z"/>
<g>
	<defs>
		<rect id="SVGID_00000154419249334496406580000016009890129213888938_" x="1.4" y="0.9" width="176" height="223.2"/>
	</defs>
	<clipPath id="SVGID_00000026164763962493801440000010846440660494150037_">
		<use xlink:href="#SVGID_00000154419249334496406580000016009890129213888938_"  style="overflow:visible;"/>
	</clipPath>
	
		<path style="clip-path:url(#SVGID_00000026164763962493801440000010846440660494150037_);fill:none;stroke:#0B0B0A;stroke-width:0.1;" d="
		M167.9,223.4h-4.4v0.6h4.4V223.4z M158.4,223.4h-4.4v0.6h4.4V223.4z M148.8,223.4h-4.4v0.6h4.4V223.4z M139.3,223.4h-4.4v0.6h4.4
		V223.4z M129.7,223.4h-4.4v0.6h4.4V223.4z M120.2,223.4h-4.4v0.6h4.4V223.4z M110.7,223.4h-4.4v0.6h4.4V223.4z M101.1,223.4h-4.4
		v0.6h4.4V223.4z M91.6,223.4h-4.4v0.6h4.4V223.4z M82,223.4h-4.4v0.6H82V223.4z M72.5,223.4h-4.4v0.6h4.4V223.4z M63,223.4h-4.4
		v0.6H63V223.4z M53.4,223.4H49v0.6h4.4V223.4z M43.9,223.4h-4.4v0.6h4.4V223.4z M34.3,223.4h-4.4v0.6h4.4V223.4z M24.8,223.4h-4.4
		v0.6h4.4V223.4z M15.3,223.4h-4.4v0.6h4.4V223.4z"/>
</g>
<path class="st2" d="M11.4,2.8h4.4V2.2h-4.4V2.8z M20.9,2.8h4.4V2.2h-4.4V2.8z M30.5,2.8h4.4V2.2h-4.4V2.8z M40,2.8h4.4V2.2H40V2.8z
	 M49.6,2.8H54V2.2h-4.4V2.8z M59.1,2.8h4.4V2.2h-4.4V2.8z M68.6,2.8h4.4V2.2h-4.4V2.8z M78.2,2.8h4.4V2.2h-4.4V2.8z M87.7,2.8h4.4
	V2.2h-4.4V2.8z M97.3,2.8h4.4V2.2h-4.4V2.8z M106.8,2.8h4.4V2.2h-4.4V2.8z M116.3,2.8h4.4V2.2h-4.4V2.8z M125.9,2.8h4.4V2.2h-4.4
	V2.8z M135.4,2.8h4.4V2.2h-4.4V2.8z M145,2.8h4.4V2.2H145V2.8z M154.5,2.8h4.4V2.2h-4.4V2.8z M164,2.8h4.4V2.2H164V2.8z"/>
<path class="st3" d="M168.5,2.2H164v0.6h4.4V2.2z M158.9,2.2h-4.4v0.6h4.4V2.2z M149.4,2.2H145v0.6h4.4V2.2z M139.9,2.2h-4.4v0.6
	h4.4V2.2z M130.3,2.2h-4.4v0.6h4.4V2.2z M120.8,2.2h-4.4v0.6h4.4V2.2z M111.2,2.2h-4.4v0.6h4.4V2.2z M101.7,2.2h-4.4v0.6h4.4V2.2z
	 M92.2,2.2h-4.4v0.6h4.4V2.2z M82.6,2.2h-4.4v0.6h4.4V2.2z M73.1,2.2h-4.4v0.6h4.4V2.2z M63.5,2.2h-4.4v0.6h4.4V2.2z M54,2.2h-4.4
	v0.6H54V2.2z M44.5,2.2H40v0.6h4.4V2.2z M34.9,2.2h-4.4v0.6h4.4V2.2z M25.4,2.2h-4.4v0.6h4.4V2.2z M15.8,2.2h-4.4v0.6h4.4V2.2z"/>
<polygon class="st2" points="2.7,220.9 2.9,222.3 1.6,221.7 1.4,222.3 2.8,222.6 1.8,223.6 2.3,224 3,222.8 3.7,224 4.2,223.6 
	3.3,222.6 4.7,222.4 4.5,221.7 3.2,222.3 3.4,220.9 "/>
<g>
	<defs>
		<rect id="SVGID_00000174591026793602890150000012171437619733731741_" x="1.4" y="0.9" width="176" height="223.2"/>
	</defs>
	<clipPath id="SVGID_00000049212124237107476920000005214795824156736432_">
		<use xlink:href="#SVGID_00000174591026793602890150000012171437619733731741_"  style="overflow:visible;"/>
	</clipPath>
	
		<polygon style="clip-path:url(#SVGID_00000049212124237107476920000005214795824156736432_);fill:none;stroke:#0B0B0A;stroke-width:0.1;" points="
		4.7,222.4 4.5,221.7 3.2,222.3 3.4,220.9 2.7,220.9 2.9,222.3 1.6,221.7 1.4,222.3 2.8,222.6 1.8,223.6 2.3,224 3,222.8 3.7,224 
		4.2,223.6 3.3,222.6 	"/>
</g>
<polygon class="st2" points="2.7,1 2.9,2.3 1.6,1.8 1.4,2.4 2.8,2.6 1.8,3.6 2.3,4 3,2.9 3.7,4 4.2,3.6 3.3,2.7 4.7,2.4 4.5,1.8 
	3.2,2.3 3.4,1 "/>
<g>
	<defs>
		<rect id="SVGID_00000136390795468180273790000015598150288490456502_" x="1.4" y="0.9" width="176" height="223.2"/>
	</defs>
	<clipPath id="SVGID_00000094576881619736118670000017794676803624888212_">
		<use xlink:href="#SVGID_00000136390795468180273790000015598150288490456502_"  style="overflow:visible;"/>
	</clipPath>
	
		<polygon style="clip-path:url(#SVGID_00000094576881619736118670000017794676803624888212_);fill:none;stroke:#0B0B0A;stroke-width:0.1;" points="
		4.7,2.4 4.5,1.8 3.2,2.3 3.4,1 2.7,1 2.9,2.3 1.6,1.8 1.4,2.4 2.8,2.6 1.8,3.6 2.3,4 3,2.9 3.7,4 4.2,3.6 3.3,2.7 	"/>
</g>
<polygon class="st2" points="175.3,220.9 175.5,222.3 174.3,221.7 174.1,222.4 175.4,222.6 174.5,223.6 175,224 175.7,222.8 
	176.4,224 176.9,223.6 175.9,222.6 177.3,222.4 177.1,221.7 175.8,222.3 176,220.9 "/>
<g>
	<defs>
		<rect id="SVGID_00000050637790060098570610000005736158327016536236_" x="1.4" y="0.9" width="176" height="223.2"/>
	</defs>
	<clipPath id="SVGID_00000061429921155107069410000015018241594264043668_">
		<use xlink:href="#SVGID_00000050637790060098570610000005736158327016536236_"  style="overflow:visible;"/>
	</clipPath>
	
		<polygon style="clip-path:url(#SVGID_00000061429921155107069410000015018241594264043668_);fill:none;stroke:#0B0B0A;stroke-width:0.1;" points="
		177.3,222.4 177.1,221.7 175.8,222.3 176,220.9 175.3,220.9 175.5,222.3 174.3,221.7 174.1,222.4 175.4,222.6 174.5,223.6 175,224 
		175.7,222.8 176.4,224 176.9,223.6 175.9,222.6 	"/>
</g>
<polygon class="st2" points="175.3,1 175.5,2.4 174.3,1.8 174.1,2.4 175.4,2.7 174.5,3.7 175,4.1 175.7,2.9 176.4,4.1 176.9,3.7 
	175.9,2.7 177.3,2.5 177.1,1.8 175.8,2.4 176,1 "/>
<polygon class="st3" points="177.3,2.5 177.1,1.8 175.8,2.4 176,1 175.3,1 175.5,2.4 174.3,1.8 174.1,2.4 175.4,2.7 174.5,3.7 
	175,4.1 175.7,2.9 176.4,4.1 176.9,3.7 175.9,2.7 "/>
<polygon class="st2" points="63.6,49.5 63.4,48.8 62.1,49.4 62.3,48 61.6,48 61.8,49.4 60.5,48.8 60.3,49.4 61.7,49.7 60.7,50.7 
	61.2,51.1 61.9,49.9 62.6,51.1 63.1,50.7 62.2,49.7 "/>
<polygon class="st3" points="63.6,49.5 63.4,48.8 62.1,49.4 62.3,48 61.6,48 61.8,49.4 60.5,48.8 60.3,49.4 61.7,49.7 60.7,50.7 
	61.2,51.1 61.9,49.9 62.6,51.1 63.1,50.7 62.2,49.7 "/>
<polygon class="st2" points="63.6,56.1 63.4,55.4 62.1,56 62.3,54.6 61.6,54.6 61.8,56 60.5,55.4 60.3,56 61.7,56.3 60.7,57.3 
	61.2,57.7 61.9,56.5 62.6,57.7 63.1,57.3 62.2,56.3 "/>
<polygon class="st3" points="63.6,56.1 63.4,55.4 62.1,56 62.3,54.6 61.6,54.6 61.8,56 60.5,55.4 60.3,56 61.7,56.3 60.7,57.3 
	61.2,57.7 61.9,56.5 62.6,57.7 63.1,57.3 62.2,56.3 "/>
<polygon class="st2" points="63.6,62.2 63.4,61.6 62.1,62.1 62.3,60.8 61.6,60.8 61.8,62.1 60.5,61.6 60.3,62.2 61.7,62.4 
	60.7,63.4 61.2,63.8 61.9,62.6 62.6,63.8 63.1,63.4 62.2,62.5 "/>
<polygon class="st3" points="63.6,62.2 63.4,61.6 62.1,62.1 62.3,60.8 61.6,60.8 61.8,62.1 60.5,61.6 60.3,62.2 61.7,62.4 
	60.7,63.4 61.2,63.8 61.9,62.6 62.6,63.8 63.1,63.4 62.2,62.5 "/>
<polygon class="st2" points="63.6,68.3 63.4,67.7 62.1,68.2 62.3,66.9 61.6,66.9 61.8,68.2 60.5,67.7 60.3,68.3 61.7,68.6 
	60.7,69.6 61.2,69.9 61.9,68.8 62.6,70 63.1,69.6 62.2,68.6 "/>
<polygon class="st3" points="63.6,68.3 63.4,67.7 62.1,68.2 62.3,66.9 61.6,66.9 61.8,68.2 60.5,67.7 60.3,68.3 61.7,68.6 
	60.7,69.6 61.2,69.9 61.9,68.8 62.6,70 63.1,69.6 62.2,68.6 "/>
<polygon class="st2" points="69.6,47.2 69.4,46.5 68.1,47.1 68.3,45.7 67.6,45.7 67.8,47.1 66.5,46.5 66.3,47.2 67.7,47.4 
	66.7,48.4 67.2,48.8 67.9,47.6 68.6,48.8 69.1,48.4 68.2,47.4 "/>
<polygon class="st3" points="69.6,47.2 69.4,46.5 68.1,47.1 68.3,45.7 67.6,45.7 67.8,47.1 66.5,46.5 66.3,47.2 67.7,47.4 
	66.7,48.4 67.2,48.8 67.9,47.6 68.6,48.8 69.1,48.4 68.2,47.4 "/>
<polygon class="st2" points="69.6,53.8 69.4,53.1 68.1,53.7 68.3,52.3 67.6,52.3 67.8,53.7 66.5,53.1 66.3,53.8 67.7,54 66.7,55 
	67.2,55.4 67.9,54.2 68.6,55.4 69.1,55 68.2,54 "/>
<polygon class="st3" points="69.6,53.8 69.4,53.1 68.1,53.7 68.3,52.3 67.6,52.3 67.8,53.7 66.5,53.1 66.3,53.8 67.7,54 66.7,55 
	67.2,55.4 67.9,54.2 68.6,55.4 69.1,55 68.2,54 "/>
<polygon class="st2" points="69.6,59.9 69.4,59.3 68.1,59.8 68.3,58.5 67.6,58.5 67.8,59.8 66.5,59.3 66.3,59.9 67.7,60.1 
	66.7,61.1 67.2,61.5 67.9,60.4 68.6,61.5 69.1,61.1 68.2,60.2 "/>
<polygon class="st3" points="69.6,59.9 69.4,59.3 68.1,59.8 68.3,58.5 67.6,58.5 67.8,59.8 66.5,59.3 66.3,59.9 67.7,60.1 
	66.7,61.1 67.2,61.5 67.9,60.4 68.6,61.5 69.1,61.1 68.2,60.2 "/>
<polygon class="st2" points="69.6,66.1 69.4,65.4 68.1,65.9 68.3,64.6 67.6,64.6 67.8,65.9 66.5,65.4 66.3,66 67.7,66.3 66.7,67.3 
	67.2,67.7 67.9,66.5 68.6,67.7 69.1,67.3 68.2,66.3 "/>
<polygon class="st3" points="69.6,66.1 69.4,65.4 68.1,65.9 68.3,64.6 67.6,64.6 67.8,65.9 66.5,65.4 66.3,66 67.7,66.3 66.7,67.3 
	67.2,67.7 67.9,66.5 68.6,67.7 69.1,67.3 68.2,66.3 "/>
<polygon class="st2" points="75.6,46.5 75.4,45.8 74.1,46.4 74.3,45 73.6,45 73.8,46.4 72.5,45.8 72.3,46.4 73.7,46.7 72.7,47.7 
	73.2,48.1 73.9,46.9 74.6,48.1 75.1,47.7 74.2,46.7 "/>
<polygon class="st3" points="75.6,46.5 75.4,45.8 74.1,46.4 74.3,45 73.6,45 73.8,46.4 72.5,45.8 72.3,46.4 73.7,46.7 72.7,47.7 
	73.2,48.1 73.9,46.9 74.6,48.1 75.1,47.7 74.2,46.7 "/>
<polygon class="st2" points="75.6,53.1 75.4,52.4 74.1,53 74.3,51.6 73.6,51.6 73.8,53 72.5,52.4 72.3,53 73.7,53.3 72.7,54.3 
	73.2,54.7 73.9,53.5 74.6,54.7 75.1,54.3 74.2,53.3 "/>
<polygon class="st3" points="75.6,53.1 75.4,52.4 74.1,53 74.3,51.6 73.6,51.6 73.8,53 72.5,52.4 72.3,53 73.7,53.3 72.7,54.3 
	73.2,54.7 73.9,53.5 74.6,54.7 75.1,54.3 74.2,53.3 "/>
<polygon class="st2" points="75.6,59.2 75.4,58.6 74.1,59.1 74.3,57.8 73.6,57.8 73.8,59.1 72.5,58.6 72.3,59.2 73.7,59.4 
	72.7,60.4 73.2,60.8 73.9,59.6 74.6,60.8 75.1,60.4 74.2,59.5 "/>
<polygon class="st3" points="75.6,59.2 75.4,58.6 74.1,59.1 74.3,57.8 73.6,57.8 73.8,59.1 72.5,58.6 72.3,59.2 73.7,59.4 
	72.7,60.4 73.2,60.8 73.9,59.6 74.6,60.8 75.1,60.4 74.2,59.5 "/>
<polygon class="st2" points="75.6,65.3 75.4,64.7 74.1,65.2 74.3,63.9 73.6,63.9 73.8,65.2 72.5,64.7 72.3,65.3 73.7,65.6 
	72.7,66.6 73.2,66.9 73.9,65.8 74.6,67 75.1,66.6 74.2,65.6 "/>
<polygon class="st3" points="75.6,65.3 75.4,64.7 74.1,65.2 74.3,63.9 73.6,63.9 73.8,65.2 72.5,64.7 72.3,65.3 73.7,65.6 
	72.7,66.6 73.2,66.9 73.9,65.8 74.6,67 75.1,66.6 74.2,65.6 "/>
<polygon class="st2" points="81.6,47.2 81.4,46.5 80.1,47.1 80.3,45.7 79.6,45.7 79.8,47.1 78.5,46.5 78.3,47.2 79.7,47.4 
	78.7,48.4 79.2,48.8 79.9,47.6 80.6,48.8 81.1,48.4 80.2,47.4 "/>
<polygon class="st3" points="81.6,47.2 81.4,46.5 80.1,47.1 80.3,45.7 79.6,45.7 79.8,47.1 78.5,46.5 78.3,47.2 79.7,47.4 
	78.7,48.4 79.2,48.8 79.9,47.6 80.6,48.8 81.1,48.4 80.2,47.4 "/>
<polygon class="st2" points="81.6,53.8 81.4,53.1 80.1,53.7 80.3,52.3 79.6,52.3 79.8,53.7 78.5,53.1 78.3,53.8 79.7,54 78.7,55 
	79.2,55.4 79.9,54.2 80.6,55.4 81.1,55 80.2,54 "/>
<polygon class="st3" points="81.6,53.8 81.4,53.1 80.1,53.7 80.3,52.3 79.6,52.3 79.8,53.7 78.5,53.1 78.3,53.8 79.7,54 78.7,55 
	79.2,55.4 79.9,54.2 80.6,55.4 81.1,55 80.2,54 "/>
<polygon class="st2" points="81.6,59.9 81.4,59.3 80.1,59.8 80.3,58.5 79.6,58.5 79.8,59.8 78.5,59.3 78.3,59.9 79.7,60.1 
	78.7,61.1 79.2,61.5 79.9,60.4 80.6,61.5 81.1,61.1 80.2,60.2 "/>
<polygon class="st3" points="81.6,59.9 81.4,59.3 80.1,59.8 80.3,58.5 79.6,58.5 79.8,59.8 78.5,59.3 78.3,59.9 79.7,60.1 
	78.7,61.1 79.2,61.5 79.9,60.4 80.6,61.5 81.1,61.1 80.2,60.2 "/>
<polygon class="st2" points="81.6,66.1 81.4,65.4 80.1,65.9 80.3,64.6 79.6,64.6 79.8,65.9 78.5,65.4 78.3,66 79.7,66.3 78.7,67.3 
	79.2,67.7 79.9,66.5 80.6,67.7 81.1,67.3 80.2,66.3 "/>
<polygon class="st3" points="81.6,66.1 81.4,65.4 80.1,65.9 80.3,64.6 79.6,64.6 79.8,65.9 78.5,65.4 78.3,66 79.7,66.3 78.7,67.3 
	79.2,67.7 79.9,66.5 80.6,67.7 81.1,67.3 80.2,66.3 "/>
<polygon class="st2" points="87.6,49.2 87.4,48.5 86.1,49.1 86.3,47.7 85.6,47.7 85.8,49.1 84.5,48.5 84.3,49.2 85.7,49.4 
	84.7,50.4 85.2,50.8 85.9,49.6 86.6,50.8 87.1,50.4 86.2,49.4 "/>
<polygon class="st3" points="87.6,49.2 87.4,48.5 86.1,49.1 86.3,47.7 85.6,47.7 85.8,49.1 84.5,48.5 84.3,49.2 85.7,49.4 
	84.7,50.4 85.2,50.8 85.9,49.6 86.6,50.8 87.1,50.4 86.2,49.4 "/>
<polygon class="st2" points="87.6,55.8 87.4,55.1 86.1,55.7 86.3,54.3 85.6,54.3 85.8,55.7 84.5,55.1 84.3,55.8 85.7,56 84.7,57 
	85.2,57.4 85.9,56.2 86.6,57.4 87.1,57 86.2,56 "/>
<polygon class="st3" points="87.6,55.8 87.4,55.1 86.1,55.7 86.3,54.3 85.6,54.3 85.8,55.7 84.5,55.1 84.3,55.8 85.7,56 84.7,57 
	85.2,57.4 85.9,56.2 86.6,57.4 87.1,57 86.2,56 "/>
<polygon class="st2" points="87.6,61.9 87.4,61.3 86.1,61.8 86.3,60.5 85.6,60.5 85.8,61.8 84.5,61.3 84.3,61.9 85.7,62.1 
	84.7,63.1 85.2,63.5 85.9,62.4 86.6,63.5 87.1,63.1 86.2,62.2 "/>
<polygon class="st3" points="87.6,61.9 87.4,61.3 86.1,61.8 86.3,60.5 85.6,60.5 85.8,61.8 84.5,61.3 84.3,61.9 85.7,62.1 
	84.7,63.1 85.2,63.5 85.9,62.4 86.6,63.5 87.1,63.1 86.2,62.2 "/>
<polygon class="st2" points="87.6,68.1 87.4,67.4 86.1,67.9 86.3,66.6 85.6,66.6 85.8,67.9 84.5,67.4 84.3,68 85.7,68.3 84.7,69.3 
	85.2,69.7 85.9,68.5 86.6,69.7 87.1,69.3 86.2,68.3 "/>
<polygon class="st3" points="87.6,68.1 87.4,67.4 86.1,67.9 86.3,66.6 85.6,66.6 85.8,67.9 84.5,67.4 84.3,68 85.7,68.3 84.7,69.3 
	85.2,69.7 85.9,68.5 86.6,69.7 87.1,69.3 86.2,68.3 "/>
<polygon class="st2" points="93.6,52.2 93.4,51.5 92.1,52.1 92.3,50.7 91.6,50.7 91.8,52.1 90.5,51.5 90.3,52.2 91.7,52.4 
	90.7,53.4 91.2,53.8 91.9,52.6 92.6,53.8 93.1,53.4 92.2,52.4 "/>
<polygon class="st3" points="93.6,52.2 93.4,51.5 92.1,52.1 92.3,50.7 91.6,50.7 91.8,52.1 90.5,51.5 90.3,52.2 91.7,52.4 
	90.7,53.4 91.2,53.8 91.9,52.6 92.6,53.8 93.1,53.4 92.2,52.4 "/>
<polygon class="st2" points="93.6,58.8 93.4,58.1 92.1,58.7 92.3,57.3 91.6,57.3 91.8,58.7 90.5,58.1 90.3,58.8 91.7,59 90.7,60 
	91.2,60.4 91.9,59.2 92.6,60.4 93.1,60 92.2,59 "/>
<polygon class="st3" points="93.6,58.8 93.4,58.1 92.1,58.7 92.3,57.3 91.6,57.3 91.8,58.7 90.5,58.1 90.3,58.8 91.7,59 90.7,60 
	91.2,60.4 91.9,59.2 92.6,60.4 93.1,60 92.2,59 "/>
<polygon class="st2" points="93.6,64.9 93.4,64.3 92.1,64.8 92.3,63.5 91.6,63.5 91.8,64.8 90.5,64.3 90.3,64.9 91.7,65.1 
	90.7,66.1 91.2,66.5 91.9,65.4 92.6,66.5 93.1,66.1 92.2,65.2 "/>
<polygon class="st3" points="93.6,64.9 93.4,64.3 92.1,64.8 92.3,63.5 91.6,63.5 91.8,64.8 90.5,64.3 90.3,64.9 91.7,65.1 
	90.7,66.1 91.2,66.5 91.9,65.4 92.6,66.5 93.1,66.1 92.2,65.2 "/>
<polygon class="st2" points="93.6,71.1 93.4,70.4 92.1,70.9 92.3,69.6 91.6,69.6 91.8,70.9 90.5,70.4 90.3,71 91.7,71.3 90.7,72.3 
	91.2,72.7 91.9,71.5 92.6,72.7 93.1,72.3 92.2,71.3 "/>
<polygon class="st3" points="93.6,71.1 93.4,70.4 92.1,70.9 92.3,69.6 91.6,69.6 91.8,70.9 90.5,70.4 90.3,71 91.7,71.3 90.7,72.3 
	91.2,72.7 91.9,71.5 92.6,72.7 93.1,72.3 92.2,71.3 "/>
<path class="st2" d="M99.6,55.2h-3.9v0.6h3.9V55.2z M99.6,53.3h-3.9v0.6h3.9V53.3z"/>
<path class="st3" d="M99.6,55.2h-3.9v0.6h3.9V55.2z M99.6,53.3h-3.9v0.6h3.9V53.3z"/>
<path class="st2" d="M99.6,61.8h-3.9v0.6h3.9V61.8z M99.6,59.9h-3.9v0.6h3.9V59.9z"/>
<path class="st3" d="M99.6,61.8h-3.9v0.6h3.9V61.8z M99.6,59.9h-3.9v0.6h3.9V59.9z"/>
<path class="st2" d="M99.6,68h-3.9v0.6h3.9V68z M99.6,66h-3.9v0.6h3.9V66z"/>
<path class="st3" d="M99.6,68h-3.9v0.6h3.9V68z M99.6,66h-3.9v0.6h3.9V66z"/>
<path class="st2" d="M99.6,74.1h-3.9v0.6h3.9V74.1z M99.6,72.1h-3.9v0.6h3.9V72.1z"/>
<path class="st3" d="M99.6,74.1h-3.9v0.6h3.9V74.1z M99.6,72.1h-3.9v0.6h3.9V72.1z"/>
<path class="st2" d="M99.6,80.6h-3.9v0.6h3.9V80.6z M99.6,78.6h-3.9v0.6h3.9V78.6z"/>
<path class="st3" d="M99.6,80.6h-3.9v0.6h3.9V80.6z M99.6,78.6h-3.9v0.6h3.9V78.6z"/>
<path class="st2" d="M99.6,86.7h-3.9v0.6h3.9V86.7z M99.6,84.8h-3.9v0.6h3.9V84.8z"/>
<path class="st3" d="M99.6,86.7h-3.9v0.6h3.9V86.7z M99.6,84.8h-3.9v0.6h3.9V84.8z"/>
<path class="st2" d="M99.6,93.2h-3.9v0.6h3.9V93.2z M99.6,91.3h-3.9v0.6h3.9V91.3z"/>
<path class="st3" d="M99.6,93.2h-3.9v0.6h3.9V93.2z M99.6,91.3h-3.9v0.6h3.9V91.3z"/>
<path class="st2" d="M99.6,99.1h-3.9v0.6h3.9V99.1z M99.6,97.1h-3.9v0.6h3.9V97.1z"/>
<path class="st3" d="M99.6,99.1h-3.9v0.6h3.9V99.1z M99.6,97.1h-3.9v0.6h3.9V97.1z"/>
<path class="st2" d="M93.9,77.5H90V78h3.9V77.5z M93.9,75.5H90v0.6h3.9V75.5z"/>
<path class="st3" d="M93.9,77.5H90V78h3.9V77.5z M93.9,75.5H90v0.6h3.9V75.5z"/>
<path class="st2" d="M93.9,83.6H90v0.6h3.9V83.6z M93.9,81.7H90v0.6h3.9V81.7z"/>
<path class="st3" d="M93.9,83.6H90v0.6h3.9V83.6z M93.9,81.7H90v0.6h3.9V81.7z"/>
<path class="st2" d="M93.9,90.1H90v0.6h3.9V90.1z M93.9,88.2H90v0.6h3.9V88.2z"/>
<path class="st3" d="M93.9,90.1H90v0.6h3.9V90.1z M93.9,88.2H90v0.6h3.9V88.2z"/>
<path class="st2" d="M93.9,95.9H90v0.6h3.9V95.9z M93.9,94H90v0.6h3.9V94z"/>
<path class="st3" d="M93.9,95.9H90v0.6h3.9V95.9z M93.9,94H90v0.6h3.9V94z"/>
<path class="st2" d="M87.9,74.9H84v0.6h3.9V74.9z M87.9,72.9H84v0.6h3.9V72.9z"/>
<path class="st3" d="M87.9,74.9H84v0.6h3.9V74.9z M87.9,72.9H84v0.6h3.9V72.9z"/>
<path class="st2" d="M87.9,81H84v0.6h3.9V81z M87.9,79.1H84v0.6h3.9V79.1z"/>
<path class="st3" d="M87.9,81H84v0.6h3.9V81z M87.9,79.1H84v0.6h3.9V79.1z"/>
<path class="st2" d="M87.9,87.5H84v0.6h3.9V87.5z M87.9,85.6H84v0.6h3.9V85.6z"/>
<path class="st3" d="M87.9,87.5H84v0.6h3.9V87.5z M87.9,85.6H84v0.6h3.9V85.6z"/>
<path class="st2" d="M87.9,93.4H84v0.6h3.9V93.4z M87.9,91.4H84V92h3.9V91.4z"/>
<path class="st3" d="M87.9,93.4H84v0.6h3.9V93.4z M87.9,91.4H84V92h3.9V91.4z"/>
<path class="st2" d="M81.9,73.1H78v0.6h3.9V73.1z M81.9,71.1H78v0.6h3.9V71.1z"/>
<path class="st3" d="M81.9,73.1H78v0.6h3.9V73.1z M81.9,71.1H78v0.6h3.9V71.1z"/>
<path class="st2" d="M81.9,79.2H78v0.6h3.9V79.2z M81.9,77.3H78v0.6h3.9V77.3z"/>
<path class="st3" d="M81.9,79.2H78v0.6h3.9V79.2z M81.9,77.3H78v0.6h3.9V77.3z"/>
<path class="st2" d="M81.9,85.7H78v0.6h3.9V85.7z M81.9,83.8H78v0.6h3.9V83.8z"/>
<path class="st3" d="M81.9,85.7H78v0.6h3.9V85.7z M81.9,83.8H78v0.6h3.9V83.8z"/>
<path class="st2" d="M81.9,91.6H78v0.6h3.9V91.6z M81.9,89.6H78v0.6h3.9V89.6z"/>
<path class="st3" d="M81.9,91.6H78v0.6h3.9V91.6z M81.9,89.6H78v0.6h3.9V89.6z"/>
<path class="st2" d="M75.9,72.7H72v0.6h3.9V72.7z M75.9,70.8H72v0.6h3.9V70.8z"/>
<path class="st3" d="M75.9,72.7H72v0.6h3.9V72.7z M75.9,70.8H72v0.6h3.9V70.8z"/>
<path class="st2" d="M75.9,78.9H72v0.6h3.9V78.9z M75.9,76.9H72v0.6h3.9V76.9z"/>
<path class="st3" d="M75.9,78.9H72v0.6h3.9V78.9z M75.9,76.9H72v0.6h3.9V76.9z"/>
<path class="st2" d="M75.9,85.4H72v0.6h3.9V85.4z M75.9,83.4H72V84h3.9V83.4z"/>
<path class="st3" d="M75.9,85.4H72v0.6h3.9V85.4z M75.9,83.4H72V84h3.9V83.4z"/>
<path class="st2" d="M75.9,91.2H72v0.6h3.9V91.2z M75.9,89.3H72v0.6h3.9V89.3z"/>
<path class="st3" d="M75.9,91.2H72v0.6h3.9V91.2z M75.9,89.3H72v0.6h3.9V89.3z"/>
<path class="st2" d="M69.9,73.4H66V74h3.9V73.4z M69.9,71.5H66v0.6h3.9V71.5z"/>
<path class="st3" d="M69.9,73.4H66V74h3.9V73.4z M69.9,71.5H66v0.6h3.9V71.5z"/>
<path class="st2" d="M69.9,79.6H66v0.6h3.9V79.6z M69.9,77.7H66v0.6h3.9V77.7z"/>
<path class="st3" d="M69.9,79.6H66v0.6h3.9V79.6z M69.9,77.7H66v0.6h3.9V77.7z"/>
<path class="st2" d="M69.9,86.1H66v0.6h3.9V86.1z M69.9,84.1H66v0.6h3.9V84.1z"/>
<path class="st3" d="M69.9,86.1H66v0.6h3.9V86.1z M69.9,84.1H66v0.6h3.9V84.1z"/>
<path class="st2" d="M69.9,91.9H66v0.6h3.9V91.9z M69.9,90H66v0.6h3.9V90z"/>
<path class="st3" d="M69.9,91.9H66v0.6h3.9V91.9z M69.9,90H66v0.6h3.9V90z"/>
<path class="st2" d="M63.9,74.9h-4v0.6h4V74.9z M63.9,72.9h-4v0.6h4V72.9z"/>
<path class="st3" d="M63.9,74.9h-4v0.6h4V74.9z M63.9,72.9h-4v0.6h4V72.9z"/>
<path class="st2" d="M63.9,81h-4v0.6h4V81z M63.9,79.1h-4v0.6h4V79.1z"/>
<path class="st3" d="M63.9,81h-4v0.6h4V81z M63.9,79.1h-4v0.6h4V79.1z"/>
<path class="st2" d="M63.9,87.5h-4v0.6h4V87.5z M63.9,85.6h-4v0.6h4V85.6z"/>
<path class="st3" d="M63.9,87.5h-4v0.6h4V87.5z M63.9,85.6h-4v0.6h4V85.6z"/>
<path class="st2" d="M63.9,93.4h-4v0.6h4V93.4z M63.9,91.4h-4V92h4V91.4z"/>
<path class="st3" d="M63.9,93.4h-4v0.6h4V93.4z M63.9,91.4h-4V92h4V91.4z"/>
<path class="st2" d="M105.2,57.4h-3.9V58h3.9V57.4z M105.2,55.5h-3.9v0.6h3.9V55.5z"/>
<path class="st3" d="M105.2,57.4h-3.9V58h3.9V57.4z M105.2,55.5h-3.9v0.6h3.9V55.5z"/>
<path class="st2" d="M105.2,64h-3.9v0.6h3.9V64z M105.2,62.1h-3.9v0.6h3.9V62.1z"/>
<path class="st3" d="M105.2,64h-3.9v0.6h3.9V64z M105.2,62.1h-3.9v0.6h3.9V62.1z"/>
<path class="st2" d="M105.2,70.1h-3.9v0.6h3.9V70.1z M105.2,68.2h-3.9v0.6h3.9V68.2z"/>
<path class="st3" d="M105.2,70.1h-3.9v0.6h3.9V70.1z M105.2,68.2h-3.9v0.6h3.9V68.2z"/>
<path class="st2" d="M105.2,76.3h-3.9v0.6h3.9V76.3z M105.2,74.3h-3.9v0.6h3.9V74.3z"/>
<path class="st3" d="M105.2,76.3h-3.9v0.6h3.9V76.3z M105.2,74.3h-3.9v0.6h3.9V74.3z"/>
<path class="st2" d="M105.2,82.8h-3.9v0.6h3.9V82.8z M105.2,80.8h-3.9v0.6h3.9V80.8z"/>
<path class="st3" d="M105.2,82.8h-3.9v0.6h3.9V82.8z M105.2,80.8h-3.9v0.6h3.9V80.8z"/>
<path class="st2" d="M105.2,88.9h-3.9v0.6h3.9V88.9z M105.2,87h-3.9v0.6h3.9V87z"/>
<path class="st3" d="M105.2,88.9h-3.9v0.6h3.9V88.9z M105.2,87h-3.9v0.6h3.9V87z"/>
<path class="st2" d="M105.2,95.4h-3.9V96h3.9V95.4z M105.2,93.5h-3.9v0.6h3.9V93.5z"/>
<path class="st3" d="M105.2,95.4h-3.9V96h3.9V95.4z M105.2,93.5h-3.9v0.6h3.9V93.5z"/>
<path class="st2" d="M105.2,101.3h-3.9v0.6h3.9V101.3z M105.2,99.3h-3.9v0.6h3.9V99.3z"/>
<path class="st3" d="M105.2,101.3h-3.9v0.6h3.9V101.3z M105.2,99.3h-3.9v0.6h3.9V99.3z"/>
<path class="st2" d="M110.9,58.2h-3.9v0.6h3.9V58.2z M110.9,56.3h-3.9v0.6h3.9V56.3z"/>
<path class="st3" d="M110.9,58.2h-3.9v0.6h3.9V58.2z M110.9,56.3h-3.9v0.6h3.9V56.3z"/>
<path class="st2" d="M110.9,64.8h-3.9v0.6h3.9V64.8z M110.9,62.9h-3.9v0.6h3.9V62.9z"/>
<path class="st3" d="M110.9,64.8h-3.9v0.6h3.9V64.8z M110.9,62.9h-3.9v0.6h3.9V62.9z"/>
<path class="st2" d="M110.9,71h-3.9v0.6h3.9V71z M110.9,69h-3.9v0.6h3.9V69z"/>
<path class="st3" d="M110.9,71h-3.9v0.6h3.9V71z M110.9,69h-3.9v0.6h3.9V69z"/>
<path class="st2" d="M110.9,77.1h-3.9v0.6h3.9V77.1z M110.9,75.2h-3.9v0.6h3.9V75.2z"/>
<path class="st3" d="M110.9,77.1h-3.9v0.6h3.9V77.1z M110.9,75.2h-3.9v0.6h3.9V75.2z"/>
<path class="st2" d="M110.9,83.6h-3.9v0.6h3.9V83.6z M110.9,81.6h-3.9v0.6h3.9V81.6z"/>
<path class="st3" d="M110.9,83.6h-3.9v0.6h3.9V83.6z M110.9,81.6h-3.9v0.6h3.9V81.6z"/>
<path class="st2" d="M110.9,89.7h-3.9v0.6h3.9V89.7z M110.9,87.8h-3.9v0.6h3.9V87.8z"/>
<path class="st3" d="M110.9,89.7h-3.9v0.6h3.9V89.7z M110.9,87.8h-3.9v0.6h3.9V87.8z"/>
<path class="st2" d="M110.9,96.2h-3.9v0.6h3.9V96.2z M110.9,94.3h-3.9v0.6h3.9V94.3z"/>
<path class="st3" d="M110.9,96.2h-3.9v0.6h3.9V96.2z M110.9,94.3h-3.9v0.6h3.9V94.3z"/>
<path class="st2" d="M110.9,102.1h-3.9v0.6h3.9V102.1z M110.9,100.1h-3.9v0.6h3.9V100.1z"/>
<path class="st3" d="M110.9,102.1h-3.9v0.6h3.9V102.1z M110.9,100.1h-3.9v0.6h3.9V100.1z"/>
<path class="st2" d="M116.5,59.4h-3.9V60h3.9V59.4z M116.5,57.5h-3.9v0.6h3.9V57.5z"/>
<path class="st3" d="M116.5,59.4h-3.9V60h3.9V59.4z M116.5,57.5h-3.9v0.6h3.9V57.5z"/>
<path class="st2" d="M116.5,66h-3.9v0.6h3.9V66z M116.5,64.1h-3.9v0.6h3.9V64.1z"/>
<path class="st3" d="M116.5,66h-3.9v0.6h3.9V66z M116.5,64.1h-3.9v0.6h3.9V64.1z"/>
<path class="st2" d="M116.5,72.1h-3.9v0.6h3.9V72.1z M116.5,70.2h-3.9v0.6h3.9V70.2z"/>
<path class="st3" d="M116.5,72.1h-3.9v0.6h3.9V72.1z M116.5,70.2h-3.9v0.6h3.9V70.2z"/>
<path class="st2" d="M116.5,78.3h-3.9v0.6h3.9V78.3z M116.5,76.3h-3.9v0.6h3.9V76.3z"/>
<path class="st3" d="M116.5,78.3h-3.9v0.6h3.9V78.3z M116.5,76.3h-3.9v0.6h3.9V76.3z"/>
<path class="st2" d="M116.5,84.8h-3.9v0.6h3.9V84.8z M116.5,82.8h-3.9v0.6h3.9V82.8z"/>
<path class="st3" d="M116.5,84.8h-3.9v0.6h3.9V84.8z M116.5,82.8h-3.9v0.6h3.9V82.8z"/>
<path class="st2" d="M116.5,90.9h-3.9v0.6h3.9V90.9z M116.5,89h-3.9v0.6h3.9V89z"/>
<path class="st3" d="M116.5,90.9h-3.9v0.6h3.9V90.9z M116.5,89h-3.9v0.6h3.9V89z"/>
<path class="st2" d="M116.5,97.4h-3.9V98h3.9V97.4z M116.5,95.5h-3.9v0.6h3.9V95.5z"/>
<path class="st3" d="M116.5,97.4h-3.9V98h3.9V97.4z M116.5,95.5h-3.9v0.6h3.9V95.5z"/>
<path class="st2" d="M116.5,103.3h-3.9v0.6h3.9V103.3z M116.5,101.3h-3.9v0.6h3.9V101.3z"/>
<path class="st3" d="M116.5,103.3h-3.9v0.6h3.9V103.3z M116.5,101.3h-3.9v0.6h3.9V101.3z"/>
<path class="st2" d="M122.2,59.4h-3.9V60h3.9V59.4z M122.2,57.5h-3.9v0.6h3.9V57.5z"/>
<path class="st3" d="M122.2,59.4h-3.9V60h3.9V59.4z M122.2,57.5h-3.9v0.6h3.9V57.5z"/>
<path class="st2" d="M122.2,66h-3.9v0.6h3.9V66z M122.2,64.1h-3.9v0.6h3.9V64.1z"/>
<path class="st3" d="M122.2,66h-3.9v0.6h3.9V66z M122.2,64.1h-3.9v0.6h3.9V64.1z"/>
<path class="st2" d="M122.2,72.1h-3.9v0.6h3.9V72.1z M122.2,70.2h-3.9v0.6h3.9V70.2z"/>
<path class="st3" d="M122.2,72.1h-3.9v0.6h3.9V72.1z M122.2,70.2h-3.9v0.6h3.9V70.2z"/>
<path class="st2" d="M122.2,78.3h-3.9v0.6h3.9V78.3z M122.2,76.3h-3.9v0.6h3.9V76.3z"/>
<path class="st3" d="M122.2,78.3h-3.9v0.6h3.9V78.3z M122.2,76.3h-3.9v0.6h3.9V76.3z"/>
<path class="st2" d="M122.2,84.8h-3.9v0.6h3.9V84.8z M122.2,82.8h-3.9v0.6h3.9V82.8z"/>
<path class="st3" d="M122.2,84.8h-3.9v0.6h3.9V84.8z M122.2,82.8h-3.9v0.6h3.9V82.8z"/>
<path class="st2" d="M122.2,90.9h-3.9v0.6h3.9V90.9z M122.2,89h-3.9v0.6h3.9V89z"/>
<path class="st3" d="M122.2,90.9h-3.9v0.6h3.9V90.9z M122.2,89h-3.9v0.6h3.9V89z"/>
<path class="st2" d="M122.2,97.4h-3.9V98h3.9V97.4z M122.2,95.5h-3.9v0.6h3.9V95.5z"/>
<path class="st3" d="M122.2,97.4h-3.9V98h3.9V97.4z M122.2,95.5h-3.9v0.6h3.9V95.5z"/>
<path class="st2" d="M122.2,103.3h-3.9v0.6h3.9V103.3z M122.2,101.3h-3.9v0.6h3.9V101.3z"/>
<path class="st3" d="M122.2,103.3h-3.9v0.6h3.9V103.3z M122.2,101.3h-3.9v0.6h3.9V101.3z"/>
<path class="st2" d="M127.8,57.4h-3.9V58h3.9V57.4z M127.8,55.5h-3.9v0.6h3.9V55.5z"/>
<path class="st3" d="M127.8,57.4h-3.9V58h3.9V57.4z M127.8,55.5h-3.9v0.6h3.9V55.5z"/>
<path class="st2" d="M127.8,64h-3.9v0.6h3.9V64z M127.8,62.1h-3.9v0.6h3.9V62.1z"/>
<path class="st3" d="M127.8,64h-3.9v0.6h3.9V64z M127.8,62.1h-3.9v0.6h3.9V62.1z"/>
<path class="st2" d="M127.8,70.1h-3.9v0.6h3.9V70.1z M127.8,68.2h-3.9v0.6h3.9V68.2z"/>
<path class="st3" d="M127.8,70.1h-3.9v0.6h3.9V70.1z M127.8,68.2h-3.9v0.6h3.9V68.2z"/>
<path class="st2" d="M127.8,76.3h-3.9v0.6h3.9V76.3z M127.8,74.3h-3.9v0.6h3.9V74.3z"/>
<path class="st3" d="M127.8,76.3h-3.9v0.6h3.9V76.3z M127.8,74.3h-3.9v0.6h3.9V74.3z"/>
<path class="st2" d="M127.8,82.8h-3.9v0.6h3.9V82.8z M127.8,80.8h-3.9v0.6h3.9V80.8z"/>
<path class="st3" d="M127.8,82.8h-3.9v0.6h3.9V82.8z M127.8,80.8h-3.9v0.6h3.9V80.8z"/>
<path class="st2" d="M127.8,88.9h-3.9v0.6h3.9V88.9z M127.8,87h-3.9v0.6h3.9V87z"/>
<path class="st3" d="M127.8,88.9h-3.9v0.6h3.9V88.9z M127.8,87h-3.9v0.6h3.9V87z"/>
<path class="st2" d="M127.8,95.4h-3.9V96h3.9V95.4z M127.8,93.5h-3.9v0.6h3.9V93.5z"/>
<path class="st3" d="M127.8,95.4h-3.9V96h3.9V95.4z M127.8,93.5h-3.9v0.6h3.9V93.5z"/>
<path class="st2" d="M127.8,101.3h-3.9v0.6h3.9V101.3z M127.8,99.3h-3.9v0.6h3.9V99.3z"/>
<path class="st3" d="M127.8,101.3h-3.9v0.6h3.9V101.3z M127.8,99.3h-3.9v0.6h3.9V99.3z"/>
<path class="st2" d="M56.4,135H57l0-6.9h-0.6V135z M51.6,135h0.6l0-6.9h-0.6V135z"/>
<path class="st3" d="M56.4,135H57l0-6.9h-0.6V135z M51.6,135h0.6l0-6.9h-0.6V135z"/>
<path class="st2" d="M56.4,124.2H57l0-6.9h-0.6V124.2z M51.6,124.2h0.6l0-6.9h-0.6V124.2z"/>
<path class="st3" d="M56.4,124.2H57l0-6.9h-0.6V124.2z M51.6,124.2h0.6l0-6.9h-0.6V124.2z"/>
<path class="st2" d="M56.4,113.4H57l0-6.9h-0.6V113.4z M51.6,113.4h0.6l0-6.9h-0.6V113.4z"/>
<path class="st3" d="M56.4,113.4H57l0-6.9h-0.6V113.4z M51.6,113.4h0.6l0-6.9h-0.6V113.4z"/>
<path class="st2" d="M56.4,102.6H57l0-6.9h-0.6V102.6z M51.6,102.6h0.6l0-6.9h-0.6V102.6z"/>
<path class="st3" d="M56.4,102.6H57l0-6.9h-0.6V102.6z M51.6,102.6h0.6l0-6.9h-0.6V102.6z"/>
<path class="st2" d="M56.4,91.8H57l0-6.9h-0.6V91.8z M51.6,91.8h0.6l0-6.9h-0.6V91.8z"/>
<path class="st3" d="M56.4,91.8H57l0-6.9h-0.6V91.8z M51.6,91.8h0.6l0-6.9h-0.6V91.8z"/>
<path class="st2" d="M56.4,81H57l0-6.9h-0.6V81z M51.6,81h0.6l0-6.9h-0.6V81z"/>
<path class="st3" d="M56.4,81H57l0-6.9h-0.6V81z M51.6,81h0.6l0-6.9h-0.6V81z"/>
<path class="st2" d="M56.4,70.2H57l0-6.9h-0.6V70.2z M51.6,70.2h0.6l0-6.9h-0.6V70.2z"/>
<path class="st3" d="M56.4,70.2H57l0-6.9h-0.6V70.2z M51.6,70.2h0.6l0-6.9h-0.6V70.2z"/>
<path class="st2" d="M56.4,59.4H57l0-6.9h-0.6V59.4z M51.6,59.4h0.6l0-6.9h-0.6V59.4z"/>
<path class="st3" d="M56.4,59.4H57l0-6.9h-0.6V59.4z M51.6,59.4h0.6l0-6.9h-0.6V59.4z"/>
<g>
	<defs>
		<rect id="SVGID_00000052825258789257140590000005115640617773571206_" x="1.4" y="0.9" width="176" height="223.2"/>
	</defs>
	<clipPath id="SVGID_00000004519609923822175510000000942381875893746611_">
		<use xlink:href="#SVGID_00000052825258789257140590000005115640617773571206_"  style="overflow:visible;"/>
	</clipPath>
	<path style="clip-path:url(#SVGID_00000004519609923822175510000000942381875893746611_);fill:#0B0B0A;" d="M56.4,43.6
		c0,0.9,0.3,1.3,1,1.4c-0.7,0.1-1,0.5-1,1.4v0.4c0,0.6-0.2,1.1-0.7,1.1l-0.3,0v0.5l0.4,0c0.8,0,1.2-0.6,1.2-1.5v-0.3
		c0-0.9,0.2-1.2,0.8-1.3v-0.6c-0.6-0.1-0.8-0.4-0.8-1.3v-0.3c0-0.8-0.4-1.5-1.2-1.5l-0.4,0v0.5l0.3,0c0.4,0,0.7,0.4,0.7,1.1V43.6z
		 M52.1,43.3c0-0.6,0.2-1.1,0.7-1.1l0.3,0v-0.5l-0.4,0c-0.8,0-1.2,0.6-1.2,1.5v0.3c0,0.9-0.2,1.3-0.8,1.3v0.6
		c0.6,0.1,0.8,0.4,0.8,1.3v0.3c0,0.8,0.4,1.5,1.2,1.5l0.4,0v-0.5l-0.3,0c-0.4,0-0.7-0.4-0.7-1.1v-0.4c0-0.9-0.3-1.3-1-1.4
		c0.7-0.1,1-0.5,1-1.4V43.3z"/>
	
		<path style="clip-path:url(#SVGID_00000004519609923822175510000000942381875893746611_);fill:none;stroke:#0B0B0A;stroke-width:0.1;" d="
		M56.4,43.6c0,0.9,0.3,1.3,1,1.4c-0.7,0.1-1,0.5-1,1.4v0.4c0,0.6-0.2,1.1-0.7,1.1l-0.3,0v0.5l0.4,0c0.8,0,1.2-0.6,1.2-1.5v-0.3
		c0-0.9,0.2-1.2,0.8-1.3v-0.6c-0.6-0.1-0.8-0.4-0.8-1.3v-0.3c0-0.8-0.4-1.5-1.2-1.5l-0.4,0v0.5l0.3,0c0.4,0,0.7,0.4,0.7,1.1V43.6z
		 M52.1,43.3c0-0.6,0.2-1.1,0.7-1.1l0.3,0v-0.5l-0.4,0c-0.8,0-1.2,0.6-1.2,1.5v0.3c0,0.9-0.2,1.3-0.8,1.3v0.6
		c0.6,0.1,0.8,0.4,0.8,1.3v0.3c0,0.8,0.4,1.5,1.2,1.5l0.4,0v-0.5l-0.3,0c-0.4,0-0.7-0.4-0.7-1.1v-0.4c0-0.9-0.3-1.3-1-1.4
		c0.7-0.1,1-0.5,1-1.4V43.3z"/>
</g>
<path class="st2" d="M175.4,213h0.6v-4.4h-0.6V213z M175.4,203.5h0.6V199h-0.6V203.5z M175.4,193.9h0.6v-4.4h-0.6V193.9z
	 M175.4,184.4h0.6V180h-0.6V184.4z M175.4,174.9h0.6v-4.4h-0.6V174.9z M175.4,165.3h0.6v-4.4h-0.6V165.3z M175.4,155.8h0.6v-4.4
	h-0.6V155.8z M175.4,146.3h0.6v-4.4h-0.6V146.3z M175.4,136.8h0.6v-4.4h-0.6V136.8z M175.4,127.2h0.6v-4.4h-0.6V127.2z M175.4,117.7
	h0.6v-4.4h-0.6V117.7z M175.4,108.2h0.6v-4.4h-0.6V108.2z M175.4,98.6h0.6v-4.4h-0.6V98.6z M175.4,89.1h0.6v-4.4h-0.6V89.1z
	 M175.4,79.6h0.6v-4.4h-0.6V79.6z M175.4,70h0.6v-4.4h-0.6V70z M175.4,60.5h0.6v-4.4h-0.6V60.5z M175.4,51h0.6v-4.4h-0.6V51z
	 M175.4,41.4h0.6V37h-0.6V41.4z M175.4,31.9h0.6v-4.4h-0.6V31.9z M175.4,22.4h0.6V18h-0.6V22.4z M175.4,12.9h0.6V8.4h-0.6V12.9z"/>
<path class="st3" d="M175.9,208.6h-0.6v4.4h0.6V208.6z M175.9,199h-0.6v4.4h0.6V199z M175.9,189.5h-0.6v4.4h0.6V189.5z M175.9,180
	h-0.6v4.4h0.6V180z M175.9,170.4h-0.6v4.4h0.6V170.4z M175.9,160.9h-0.6v4.4h0.6V160.9z M175.9,151.4h-0.6v4.4h0.6V151.4z
	 M175.9,141.8h-0.6v4.4h0.6V141.8z M175.9,132.3h-0.6v4.4h0.6V132.3z M175.9,122.8h-0.6v4.4h0.6V122.8z M175.9,113.3h-0.6v4.4h0.6
	V113.3z M175.9,103.7h-0.6v4.4h0.6V103.7z M175.9,94.2h-0.6v4.4h0.6V94.2z M175.9,84.7h-0.6v4.4h0.6V84.7z M175.9,75.1h-0.6v4.4h0.6
	V75.1z M175.9,65.6h-0.6V70h0.6V65.6z M175.9,56.1h-0.6v4.4h0.6V56.1z M175.9,46.5h-0.6V51h0.6V46.5z M175.9,37h-0.6v4.4h0.6V37z
	 M175.9,27.5h-0.6v4.4h0.6V27.5z M175.9,18h-0.6v4.4h0.6V18z M175.9,8.4h-0.6v4.4h0.6V8.4z"/>
<path class="st2" d="M2.7,214.4h0.6V210H2.7V214.4z M2.7,204.9h0.6v-4.4H2.7V204.9z M2.7,195.4h0.6v-4.4H2.7V195.4z M2.7,185.8h0.6
	v-4.4H2.7V185.8z M2.7,176.3h0.6v-4.4H2.7V176.3z M2.7,166.8h0.6v-4.4H2.7V166.8z M2.7,157.2h0.6v-4.4H2.7V157.2z M2.7,147.7h0.6
	v-4.4H2.7V147.7z M2.7,138.2h0.6v-4.4H2.7V138.2z M2.7,128.6h0.6v-4.4H2.7V128.6z M2.7,119.1h0.6v-4.4H2.7V119.1z M2.7,109.6h0.6
	v-4.4H2.7V109.6z M2.7,100h0.6v-4.4H2.7V100z M2.7,90.5h0.6v-4.4H2.7V90.5z M2.7,81h0.6v-4.4H2.7V81z M2.7,71.5h0.6V67H2.7V71.5z
	 M2.7,61.9h0.6v-4.4H2.7V61.9z M2.7,52.4h0.6V48H2.7V52.4z M2.7,42.9h0.6v-4.4H2.7V42.9z M2.7,33.3h0.6v-4.4H2.7V33.3z M2.7,23.8
	h0.6v-4.4H2.7V23.8z M2.7,14.3h0.6V9.8H2.7V14.3z"/>
<path class="st3" d="M3.3,210H2.7v4.4h0.6V210z M3.3,200.4H2.7v4.4h0.6V200.4z M3.3,190.9H2.7v4.4h0.6V190.9z M3.3,181.4H2.7v4.4
	h0.6V181.4z M3.3,171.9H2.7v4.4h0.6V171.9z M3.3,162.3H2.7v4.4h0.6V162.3z M3.3,152.8H2.7v4.4h0.6V152.8z M3.3,143.3H2.7v4.4h0.6
	V143.3z M3.3,133.7H2.7v4.4h0.6V133.7z M3.3,124.2H2.7v4.4h0.6V124.2z M3.3,114.7H2.7v4.4h0.6V114.7z M3.3,105.1H2.7v4.4h0.6V105.1z
	 M3.3,95.6H2.7v4.4h0.6V95.6z M3.3,86.1H2.7v4.4h0.6V86.1z M3.3,76.6H2.7V81h0.6V76.6z M3.3,67H2.7v4.4h0.6V67z M3.3,57.5H2.7v4.4
	h0.6V57.5z M3.3,48H2.7v4.4h0.6V48z M3.3,38.4H2.7v4.4h0.6V38.4z M3.3,28.9H2.7v4.4h0.6V28.9z M3.3,19.4H2.7v4.4h0.6V19.4z M3.3,9.8
	H2.7v4.4h0.6V9.8z"/>
</svg>
